<svg xmlns="http://www.w3.org/2000/svg" viewBox="0 0 175 175" width="175" height="175">
	<defs>
		<clipPath clipPathUnits="userSpaceOnUse" id="cp1">
			<path d="M-209 -625L1391 -625L1391 575L-209 575Z" />
		</clipPath>
	</defs>
	<style>
		tspan { white-space:pre }
		.shp0 { fill: #ffffff } 
		.shp1 { fill: #23f5a5 } 
		.shp2 { fill: #8a64ff } 
		.shp3 { fill: #f831e3 } 
		.shp4 { fill: #c713ef } 
		.shp5 { fill: #5b90ff } 
		.shp6 { fill: #fff35a } 
		.shp7 { fill: #a0fff5 } 
		.shp8 { fill: #50e3c2 } 
		.shp9 { fill: #bd10e0 } 
		.shp10 { fill: #4a90e2 } 
		.shp11 { fill: #ff00f5 } 
		.shp12 { fill: #50e38c } 
		.shp13 { fill: #f8e71c } 
		.shp14 { fill: #bfdcff } 
		.shp15 { fill: #6fd6d9 } 
		.shp16 { fill: #9013fe } 
		.shp17 { fill: #ff00b6 } 
		.shp18 { fill: #e800ff } 
		.shp19 { fill: #ff0053 } 
		.shp20 { fill: #3c57ff } 
		.shp21 { fill: #27cedb } 
		.shp22 { fill: #0f7cfa } 
		.shp23 { fill: #00ffc6 } 
		.shp24 { fill: #9210e0 } 
		.shp25 { fill: #ff008f } 
		.shp26 { fill: #f59b23 } 
		.shp27 { fill: #f5c823 } 
		.shp28 { fill: #ffa7e6 } 
		.shp29 { fill: #ffcb74 } 
		.shp30 { fill: #fff683 } 
		.shp31 { fill: #ff0082 } 
		.txt32 { font-size: 100px;fill: #ffffff;font-family: "Leckerli One";font-weight: 400 } 
		.shp33 { fill: #f8c61c } 
	</style>
	<g id="Dribbble Shot" clip-path="url(#cp1)">
		<g id="Sparkle Smoke">
			<path id="Spacing" class="shp0" d="M516 15L666 15L666 165L516 165L516 15Z" />
			<g id="Icon">
				<path id="Path" class="shp1" d="M629.52 128.02C628.21 128.02 627.16 129.02 627.16 130.26L627.16 136.2C627.16 137.43 628.21 138.44 629.52 138.44C630.82 138.44 631.88 137.43 631.88 136.2L631.88 130.26C631.88 129.02 630.82 128.02 629.52 128.02Z" />
				<path id="Path" class="shp1" d="M629.52 144.17C628.21 144.17 627.16 145.17 627.16 146.41L627.16 152.34C627.16 153.58 628.21 154.58 629.52 154.58C630.82 154.58 631.88 153.58 631.88 152.34L631.88 146.41C631.88 145.17 630.82 144.17 629.52 144.17Z" />
				<path id="Path" class="shp1" d="M640.63 138.96L634.66 138.96C633.41 138.96 632.4 140.01 632.4 141.3C632.4 142.6 633.41 143.65 634.66 143.65L640.63 143.65C641.88 143.65 642.89 142.6 642.89 141.3C642.89 140.01 641.88 138.96 640.63 138.96Z" />
				<path id="Path" class="shp1" d="M624.9 138.96L618.93 138.96C617.68 138.96 616.67 140.01 616.67 141.3C616.67 142.6 617.68 143.65 618.93 143.65L624.9 143.65C626.15 143.65 627.16 142.6 627.16 141.3C627.16 140.01 626.15 138.96 624.9 138.96Z" />
				<path id="Path" class="shp2" d="M620.65 73.82C619.45 73.57 618.27 74.35 618.02 75.55C617.18 79.58 614.47 82.64 609.48 85.2C607.72 86.09 605.74 86.89 603.64 87.6C604.42 86.19 605.02 84.56 605.42 82.65C606.43 77.74 605.46 73.81 602.54 70.97C598.94 67.47 592.53 65.93 583.48 66.4C577.3 66.72 572.07 67.87 571.43 68.01C564.29 69.28 558.18 69.81 552.92 69.81C531.6 69.81 524.52 61.03 522.31 56.56C520.3 52.51 519.93 47.8 521.24 42.95C522.54 38.15 525.47 33.48 529.49 29.81C530.4 28.98 530.46 27.57 529.63 26.66C528.8 25.75 527.39 25.69 526.48 26.52C521.83 30.76 518.44 36.18 516.93 41.79C515.33 47.7 515.8 53.49 518.3 58.53C521.43 64.86 527.56 69.53 536.02 72.04C545.51 74.86 557.7 74.98 572.26 72.39C572.3 72.38 572.34 72.37 572.38 72.37C578.04 71.06 593.95 68.83 599.43 74.16C601.21 75.89 601.74 78.38 601.04 81.75C599.6 88.75 594.58 91.48 582.53 91.8C581.3 91.83 580.32 92.85 580.36 94.08C580.39 95.29 581.38 96.25 582.59 96.25C582.61 96.25 582.63 96.25 582.65 96.25C586.25 96.15 589.81 95.87 593.01 95.07C606.81 92.01 620.04 87.85 622.39 76.45C622.64 75.24 621.86 74.07 620.65 73.82Z" />
				<path id="Path" class="shp3" d="M624.16 47C618.24 46.24 611.63 45.86 604.51 45.86C598.07 45.86 591.64 46.33 585.42 46.79C577.12 47.4 568.6 48.03 563.88 46.91C563.75 46.86 563.62 46.83 563.47 46.8C562.23 46.46 561.28 45.98 560.73 45.32C560.49 45.04 559.78 44.19 560.44 41.71C562.55 33.8 573.02 30.1 581.43 28.38C591.01 26.43 600.19 26.57 600.28 26.58C601.35 26.59 602.3 25.85 602.52 24.81C602.74 23.76 602.17 22.71 601.18 22.3C600.79 22.14 591.6 18.42 578.87 16.33C567.03 14.39 549.81 13.61 535.07 20.87C533.96 21.42 533.51 22.75 534.06 23.85C534.61 24.95 535.96 25.4 537.07 24.85C550.7 18.13 566.88 18.88 578.04 20.7C581.74 21.3 585.15 22.06 588.11 22.82C576.17 24.21 559.37 28.35 556.1 40.58C555.67 42.19 555.57 43.66 555.81 44.97C551.82 43.22 548.56 39.88 548.56 33.28C548.56 32.05 547.55 31.06 546.32 31.06C545.08 31.06 544.08 32.05 544.08 33.28C544.08 46.34 554.25 50.23 562.82 51.2C565.16 51.77 568.01 51.98 571.25 51.98C575.49 51.98 580.4 51.62 585.76 51.22C591.89 50.77 598.23 50.3 604.51 50.3C611.44 50.3 617.86 50.67 623.58 51.41C624.8 51.56 625.93 50.71 626.09 49.49C626.25 48.27 625.38 47.16 624.16 47Z" />
				<path id="Path" class="shp4" d="M662.03 66.34C659.19 61.51 654.81 57.47 649.01 54.33C647.93 53.75 646.57 54.15 645.99 55.22C645.4 56.3 645.8 57.65 646.88 58.23C656.58 63.47 661.49 71.32 661.49 81.55C661.49 92.98 655.38 102.95 645.14 108.2C644.05 108.77 643.62 110.11 644.19 111.19C644.58 111.96 645.36 112.4 646.17 112.4C646.52 112.4 646.87 112.32 647.19 112.15C658.94 106.11 665.96 94.68 665.96 81.55C665.96 75.9 664.64 70.78 662.03 66.34Z" />
				<path id="Path" class="shp5" d="M639.68 112.69C639.4 111.49 638.19 110.75 636.99 111.03C634.11 111.71 631.07 112.05 627.96 112.05C616.71 112.05 606.6 112.05 599.96 115.13C592.86 117.49 584.51 122.7 582.04 130.38C581.66 131.55 582.31 132.8 583.49 133.17C583.71 133.25 583.94 133.28 584.17 133.28C585.12 133.28 586 132.68 586.3 131.73C587.08 129.33 589.05 126.44 592.49 123.86C591.74 127.12 592.1 131.05 593.59 135.77C595.05 140.42 594.73 144.63 592.64 148.27C589.37 153.96 582.5 157.28 578.17 158.88C579.79 151.86 578.81 145.43 575.31 140.47C570.99 134.36 563.19 130.99 553.34 130.99C548.25 130.99 543.8 129.66 540.49 127.14C537.58 124.93 535.6 121.8 534.9 118.33C534.2 114.79 534.84 111.05 536.72 107.8C538.83 104.14 542.4 101.19 547.03 99.29C550.41 97.9 554.33 96.99 559.02 96.52C560.25 96.4 561.15 95.31 561.02 94.08C560.9 92.86 559.8 91.97 558.57 92.09C553.44 92.61 549.1 93.62 545.32 95.17C532.8 100.32 528.86 110.95 530.51 119.19C531.42 123.73 534 127.81 537.77 130.68C541.87 133.79 547.25 135.44 553.34 135.44C561.69 135.44 568.19 138.13 571.64 143.03C574.96 147.73 575.35 154.29 572.72 161.5C572.45 162.26 572.61 163.12 573.16 163.73C573.59 164.21 574.2 164.48 574.83 164.48C575 164.48 575.17 164.46 575.33 164.42C575.95 164.28 590.57 160.82 596.52 150.5C599.26 145.73 599.71 140.33 597.86 134.44C596.07 128.75 596.15 124.69 598.12 122.03C598.99 120.85 600.25 119.92 601.81 119.19C601.82 119.19 601.83 119.19 601.84 119.18C607.61 116.5 617.55 116.5 627.96 116.5C631.42 116.5 634.8 116.12 638.02 115.36C639.22 115.08 639.97 113.88 639.68 112.69Z" />
				<path id="Shape" fill-rule="evenodd" class="shp6" d="M660.71 39.22C660.71 41.42 659.2 43.27 657.02 43.7L651.68 44.78C647.29 45.67 643.87 49.06 642.98 53.42L641.9 58.73C641.46 60.89 639.6 62.4 637.38 62.4C635.16 62.4 633.31 60.89 632.87 58.73L631.78 53.42C630.89 49.06 627.48 45.67 623.09 44.78L617.74 43.7C615.57 43.27 614.05 41.42 614.05 39.22C614.05 37.02 615.57 35.17 617.74 34.73L623.09 33.66C627.48 32.77 630.89 29.38 631.78 25.02L632.87 19.71C633.31 17.55 635.16 16.04 637.38 16.04C639.6 16.04 641.46 17.55 641.9 19.71L642.98 25.02C643.87 29.38 647.29 32.77 651.68 33.66L657.02 34.73C659.2 35.17 660.71 37.02 660.71 39.22ZM656.2 39.12C656.2 39.13 656.18 39.12 656.13 39.11L650.79 38.03C644.62 36.79 639.83 32.03 638.58 25.9L637.5 20.6C637.49 20.55 637.47 20.52 637.47 20.52C637.44 20.5 637.33 20.5 637.29 20.52C637.29 20.52 637.28 20.54 637.27 20.6L636.18 25.9C634.94 32.03 630.14 36.79 623.98 38.03L618.63 39.11C618.59 39.12 618.56 39.13 618.55 39.13C618.53 39.16 618.53 39.28 618.56 39.31C618.56 39.31 618.56 39.31 618.56 39.31C618.57 39.31 618.59 39.32 618.63 39.33L623.98 40.41C630.14 41.65 634.93 46.41 636.18 52.53L637.27 57.84C637.28 57.89 637.29 57.92 637.29 57.92C637.33 57.94 637.44 57.94 637.48 57.92C637.48 57.92 637.49 57.89 637.5 57.84L638.58 52.53C639.83 46.41 644.62 41.65 650.79 40.41L656.13 39.33C656.18 39.32 656.21 39.31 656.21 39.31C656.23 39.28 656.23 39.16 656.2 39.12Z" />
				<path id="Shape" fill-rule="evenodd" class="shp7" d="M594.13 105.89C594.13 108.09 592.61 109.93 590.43 110.37L585.09 111.45C580.7 112.33 577.28 115.72 576.39 120.09L575.31 125.4C574.87 127.55 573.01 129.06 570.79 129.06C568.57 129.06 566.72 127.55 566.28 125.4L565.19 120.09C564.3 115.72 560.89 112.33 556.5 111.45L551.15 110.37C548.98 109.93 547.46 108.09 547.46 105.89C547.46 103.68 548.98 101.84 551.15 101.4L556.5 100.32C560.89 99.44 564.3 96.05 565.19 91.68L566.28 86.38C566.72 84.22 568.57 82.71 570.79 82.71C573.01 82.71 574.87 84.22 575.31 86.38L576.39 91.68C577.28 96.05 580.7 99.44 585.09 100.32L590.43 101.4C592.61 101.84 594.13 103.68 594.13 105.89ZM589.61 105.79C589.62 105.79 589.59 105.78 589.54 105.77L584.2 104.69C578.03 103.45 573.24 98.69 571.99 92.57L570.91 87.26C570.9 87.21 570.88 87.19 570.88 87.18C570.85 87.16 570.74 87.16 570.7 87.19C570.7 87.19 570.69 87.21 570.68 87.26L569.59 92.57C568.34 98.69 563.55 103.45 557.39 104.69L552.04 105.77C552 105.78 551.97 105.79 551.96 105.8C551.94 105.83 551.94 105.94 551.97 105.98C551.97 105.98 551.97 105.98 551.97 105.98C551.98 105.98 552 105.99 552.04 106L557.39 107.07C563.55 108.32 568.34 113.08 569.59 119.2L570.68 124.51C570.69 124.56 570.7 124.58 570.7 124.59C570.74 124.61 570.85 124.61 570.89 124.58C570.89 124.58 570.9 124.56 570.91 124.51L571.99 119.2C573.24 113.08 578.03 108.32 584.2 107.07L589.54 106C589.59 105.99 589.62 105.98 589.62 105.97C589.64 105.94 589.64 105.83 589.61 105.79Z" />
			</g>
		</g>
		<g id="Round Potion">
			<path id="Spacing" class="shp0" d="M16 265L166 265L166 415L16 415L16 265Z" />
			<g id="Icon">
				<path id="Shape" fill-rule="evenodd" class="shp8" d="M72.03 319.21L72.03 302.5C67.91 302.5 64.55 299.14 64.55 295C64.55 290.87 67.91 287.5 72.03 287.5L76.41 287.5L73.44 274.13C72.95 271.9 73.48 269.59 74.91 267.81C76.34 266.02 78.47 265 80.75 265L103.25 265C105.53 265 107.66 266.02 109.09 267.81C110.52 269.59 111.05 271.89 110.56 274.13L107.59 287.5L111.97 287.5C116.09 287.5 119.45 290.86 119.45 295C119.45 299.13 116.09 302.5 111.97 302.5L111.97 319.21C130.21 327.18 141.91 344.97 141.91 365C141.91 392.57 119.52 415 92 415C64.48 415 42.09 392.57 42.09 365C42.09 344.97 53.79 327.18 72.03 319.21ZM92 410C116.77 410 136.92 389.81 136.92 365C136.92 364.07 136.87 363.14 136.82 362.22L133.99 363.71C127.27 367.25 119.96 369.02 112.65 369.02C104.91 369.02 97.19 367.04 90.2 363.1C78.76 356.65 64.82 356.13 52.93 361.69L47.1 364.41C47.1 364.61 47.08 364.8 47.08 365C47.08 389.81 67.23 410 92 410ZM136.17 356.91C136.15 356.79 136.13 356.67 136.1 356.54C134.56 356.28 132.92 356.17 130.45 356.03C123.84 355.65 117.33 358.13 112.57 362.85L111.43 363.98C118.34 364.19 125.3 362.64 131.66 359.29L136.17 356.91ZM81.52 287.5L102.47 287.5L105.68 273.04C105.85 272.3 105.67 271.53 105.19 270.94C104.72 270.34 104.01 270 103.25 270L80.75 270C79.99 270 79.28 270.34 78.81 270.94C78.33 271.53 78.15 272.3 78.32 273.04L81.52 287.5ZM69.54 295C69.54 296.38 70.66 297.5 72.03 297.5L111.97 297.5C113.34 297.5 114.46 296.38 114.46 295C114.46 293.62 113.34 292.5 111.97 292.5L72.03 292.5C70.66 292.5 69.54 293.62 69.54 295ZM85.06 302.5L86.56 310L97.44 310L98.94 302.5L85.06 302.5ZM75.45 323.19C60.2 329.26 49.74 342.81 47.53 358.7L50.82 357.16C64.17 350.92 79.8 351.51 92.64 358.75C96.57 360.96 100.75 362.46 105.03 363.28L109.06 359.3C114.83 353.57 122.75 350.55 130.74 351.04C132.26 351.13 133.57 351.21 134.81 351.33C130.82 338.7 121.38 328.3 108.55 323.19C107.6 322.82 106.97 321.89 106.97 320.87L106.97 302.5L104.03 302.5L101.93 312.99C101.7 314.16 100.68 315 99.49 315L84.51 315C83.32 315 82.3 314.16 82.06 312.99L79.97 302.5L77.03 302.5L77.03 320.87C77.03 321.89 76.4 322.82 75.45 323.19Z" />
				<path id="Shape" fill-rule="evenodd" class="shp9" d="M134.6 300.02C140.07 300.02 144.53 304.47 144.53 309.95C144.53 315.42 140.07 319.88 134.6 319.88C129.12 319.88 124.67 315.42 124.67 309.95C124.67 304.47 129.12 300.02 134.6 300.02ZM129.63 309.95C129.63 312.69 131.86 314.91 134.6 314.91C137.33 314.91 139.56 312.69 139.56 309.95C139.56 307.21 137.33 304.98 134.6 304.98C131.86 304.98 129.63 307.21 129.63 309.95Z" />
				<path id="Shape" fill-rule="evenodd" class="shp10" d="M151.84 265C158.76 265 164.39 270.63 164.39 277.54C164.39 284.46 158.76 290.09 151.84 290.09C144.93 290.09 139.3 284.46 139.3 277.54C139.3 270.63 144.93 265 151.84 265ZM144.32 277.54C144.32 281.69 147.69 285.07 151.84 285.07C155.99 285.07 159.37 281.69 159.37 277.54C159.37 273.39 155.99 270.02 151.84 270.02C147.69 270.02 144.32 273.39 144.32 277.54Z" />
				<path id="Shape" fill-rule="evenodd" class="shp11" d="M57.24 297.4C57.24 302.88 52.79 307.33 47.31 307.33C41.84 307.33 37.38 302.88 37.38 297.4C37.38 291.93 41.84 287.47 47.31 287.47C52.79 287.47 57.24 291.93 57.24 297.4ZM52.28 297.4C52.28 294.67 50.05 292.44 47.31 292.44C44.58 292.44 42.35 294.67 42.35 297.4C42.35 300.14 44.58 302.37 47.31 302.37C50.05 302.37 52.28 300.14 52.28 297.4Z" />
				<path id="Shape" fill-rule="evenodd" class="shp12" d="M24.58 342.35C20.4 342.35 17 338.95 17 334.77C17 330.6 20.4 327.2 24.58 327.2C28.76 327.2 32.16 330.6 32.16 334.77C32.16 338.95 28.76 342.35 24.58 342.35ZM24.58 337.3C25.97 337.3 27.1 336.17 27.1 334.77C27.1 333.38 25.97 332.25 24.58 332.25C23.18 332.25 22.05 333.38 22.05 334.77C22.05 336.17 23.18 337.3 24.58 337.3Z" />
				<path id="Path" class="shp13" d="M60.23 351.24C64.45 341.51 72.7 334.31 82.85 331.49L81.53 326.67C69.93 329.9 60.51 338.12 55.68 349.23L60.23 351.24Z" />
			</g>
		</g>
		<g id="Pestle And Morter">
			<g id="Icon">
				<path id="Path" class="shp14" d="M85.01 135.83C83.43 135.83 82.15 137.12 82.15 138.7C82.15 140.28 83.43 141.56 85.01 141.56C86.59 141.56 87.88 140.28 87.88 138.7C87.88 137.12 86.59 135.83 85.01 135.83Z" />
				<path id="Shape" fill-rule="evenodd" class="shp15" d="M165.48 92.96C165.48 97.87 162.43 102.24 157.88 103.91C157.71 125.71 143.46 144.76 122.85 151.1L122.85 156.22C122.85 161.06 118.92 165 114.09 165L67.38 165C62.55 165 58.62 161.06 58.62 156.22L58.62 151.1C38.01 144.76 23.77 125.71 23.6 103.91C19.04 102.24 16 97.87 16 92.96C16 86.51 21.24 81.25 27.68 81.25L84.68 81.25L132.21 40.91C130.78 37.68 131.37 33.76 134.01 31.12C137.48 27.65 143 27.72 146.39 31.11L162.91 47.68C166.33 51.11 166.33 56.67 162.91 60.1C160.24 62.79 156.32 63.34 153.14 61.91L136.83 81.25L153.8 81.25C160.24 81.25 165.48 86.51 165.48 92.96ZM138.14 39.4C138.14 39.4 138.14 39.4 138.14 39.4C138.14 39.4 154.66 55.96 154.66 55.96C154.66 55.96 154.66 55.96 154.66 55.97C155.79 57.11 157.65 57.11 158.78 55.97C159.94 54.8 159.91 52.95 158.78 51.82L142.27 35.26C141.13 34.12 139.29 34.1 138.14 35.26C137 36.4 137 38.26 138.14 39.4ZM93.72 81.25L129.18 81.25L148.63 58.2L135.91 45.44L93.72 81.25ZM117.01 156.22L117.01 152.51C114.13 153.02 111.2 153.29 108.26 153.29L73.22 153.29C70.28 153.29 67.34 153.02 64.46 152.51L64.46 156.22C64.46 157.83 65.77 159.14 67.38 159.14L114.09 159.14C115.7 159.14 117.01 157.83 117.01 156.22ZM152.03 104.65L29.45 104.65C29.96 124.21 43.31 141.16 62.27 146.05C65.83 146.96 69.51 147.43 73.22 147.43L108.26 147.43C111.96 147.43 115.65 146.96 119.21 146.05C138.17 141.16 151.52 124.21 152.03 104.65ZM159.64 92.96C159.64 89.74 157.02 87.11 153.8 87.11L27.68 87.11C24.46 87.11 21.84 89.74 21.84 92.96C21.84 96.33 24.61 98.82 27.68 98.82L153.8 98.82C154.48 98.82 155.07 98.72 155.69 98.48C155.72 98.47 155.74 98.46 155.77 98.45C158.08 97.65 159.64 95.45 159.64 92.96Z" />
				<path id="Path" class="shp14" d="M73.48 135.73C59.84 135.73 47.62 127.13 43.05 114.34C42.51 112.82 40.84 112.03 39.31 112.56C37.78 113.1 36.98 114.77 37.52 116.29C42.91 131.41 57.36 141.56 73.48 141.56C75.1 141.56 76.42 140.26 76.42 138.65C76.42 137.03 75.1 135.73 73.48 135.73Z" />
				<path id="Shape" fill-rule="evenodd" class="shp12" d="M87.02 66.75C85.88 67.89 84.03 67.89 82.89 66.75L77.9 61.76L67.42 61.76C49.69 61.76 35.27 47.34 35.27 29.61L35.27 17.92C35.27 16.31 36.58 15 38.19 15L49.88 15C67.61 15 82.03 29.42 82.03 47.15L82.03 57.63L87.02 62.61C88.16 63.76 88.16 65.61 87.02 66.75ZM76.19 47.15C76.19 32.64 64.39 20.84 49.88 20.84L41.12 20.84L41.12 29.61C41.12 44.12 52.91 55.91 67.42 55.91L72.05 55.91L47.82 31.68C46.68 30.54 46.68 28.69 47.82 27.55C48.96 26.4 50.81 26.4 51.95 27.55L76.19 51.78L76.19 47.15Z" />
				<path id="Shape" fill-rule="evenodd" class="shp8" d="M105.58 23.85C105.58 28.74 101.61 32.71 96.73 32.71C91.85 32.71 87.88 28.74 87.88 23.85C87.88 18.97 91.85 15 96.73 15C101.61 15 105.58 18.97 105.58 23.85ZM99.68 23.85C99.68 22.23 98.36 20.9 96.73 20.9C95.1 20.9 93.78 22.23 93.78 23.85C93.78 25.48 95.1 26.81 96.73 26.81C98.36 26.81 99.68 25.48 99.68 23.85Z" />
			</g>
		</g>
		<g id="Potion Bottle">
			<path id="Spacing" class="shp0" d="M266 265L416 265L416 415L266 415L266 265Z" />
			<g id="Icon">
				<path id="Shape" fill-rule="evenodd" class="shp16" d="M386.46 365.39L386.46 393.35C386.46 405.29 376.77 415 364.86 415L317.13 415C305.21 415 295.52 405.29 295.52 393.35L295.52 365.39C295.52 359.89 298.73 354.81 303.7 352.47C303.73 352.45 303.77 352.44 303.8 352.42L319.76 345.88C322.62 344.7 324.47 341.94 324.47 338.84L324.47 334.43C324.47 333.22 325.45 332.24 326.66 332.24C327.88 332.24 328.86 333.22 328.86 334.43L328.86 338.84C328.86 343.73 325.94 348.09 321.42 349.94L305.52 356.47C302.11 358.1 299.91 361.6 299.91 365.39L299.91 393.35C299.91 402.87 307.63 410.61 317.13 410.61L364.86 410.61C374.35 410.61 382.08 402.87 382.08 393.35L382.08 365.39C382.08 361.6 379.88 358.1 376.47 356.47L372.99 355.04C372.16 354.7 371.62 353.89 371.62 353C371.63 352.1 372.17 351.3 373 350.97C378.51 348.74 382.08 343.46 382.08 337.51C382.08 329.51 375.58 323.01 367.6 323.01C363.84 323.01 360.21 324.5 357.51 327.12L357.51 330.77C357.51 331.98 356.53 332.97 355.32 332.97C354.11 332.97 353.13 331.98 353.13 330.77L353.13 316.56L348.6 316.56C347.38 316.56 346.4 315.58 346.4 314.37C346.4 313.15 347.38 312.17 348.6 312.17L355.03 312.17C355.05 312.17 355.06 312.17 355.08 312.17C355.1 312.17 355.12 312.17 355.14 312.17C356.12 312.17 356.93 311.36 356.93 310.37L356.93 301.33L354.03 301.33L353.73 306.22C353.73 306.23 353.73 306.25 353.73 306.26C353.58 308.18 351.96 309.68 350.04 309.68L331.36 309.68C329.44 309.68 327.82 308.18 327.67 306.26C327.67 306.25 327.67 306.23 327.67 306.22L327.37 301.33L325.06 301.33L325.06 310.37C325.06 311.36 325.86 312.17 326.85 312.17L340.99 312.17C342.2 312.17 343.19 313.15 343.19 314.37C343.19 315.58 342.2 316.56 340.99 316.56L328.86 316.56L328.86 325.64C328.86 326.86 327.88 327.84 326.66 327.84C325.45 327.84 324.47 326.86 324.47 325.64L324.47 316.09C322.24 315.15 320.67 312.94 320.67 310.37L320.67 300.75C318.77 299.82 317.45 297.87 317.45 295.62C317.45 292.47 320.01 289.9 323.15 289.9L326.52 289.9L325.89 281.82L325.08 271.41C324.96 269.76 325.52 268.12 326.65 266.91C327.77 265.7 329.35 265 331 265L350.4 265C352.05 265 353.63 265.7 354.75 266.91C355.87 268.12 356.44 269.76 356.32 271.41L355.89 276.96C355.82 277.75 355.34 278.45 354.61 278.79L352.34 279.83L354.18 280.7C355 281.09 355.5 281.95 355.43 282.86L354.88 289.9L358.24 289.9C361.39 289.9 363.95 292.47 363.95 295.62C363.95 297.63 362.89 299.4 361.32 300.42L361.32 310.37C361.32 312.94 359.74 315.15 357.51 316.09L357.51 321.55C360.51 319.65 364.01 318.61 367.6 318.61C378 318.61 386.46 327.09 386.46 337.51C386.46 343.64 383.56 349.22 378.8 352.72C383.47 355.17 386.46 360.08 386.46 365.39ZM329.46 271.07L329.53 272.03L339.24 272.03C340.45 272.03 341.43 273.01 341.43 274.23C341.43 275.44 340.45 276.42 339.24 276.42L329.87 276.42L330.28 281.68L333.39 281.68C334.6 281.68 335.58 282.67 335.58 283.88C335.58 285.09 334.6 286.08 333.39 286.08L330.62 286.08L330.92 289.9L350.48 289.9L350.94 284.03L347.39 282.35C346.4 281.88 345.77 280.88 345.78 279.79C345.79 278.7 346.43 277.7 347.42 277.25L351.61 275.33L351.94 271.07C351.98 270.63 351.83 270.21 351.53 269.89C351.24 269.57 350.83 269.39 350.4 269.39L331 269.39C330.57 269.39 330.16 269.57 329.86 269.89C329.57 270.21 329.42 270.63 329.46 271.07ZM349.63 301.33L331.76 301.33L332.01 305.28L349.39 305.28L349.63 301.33ZM358.24 296.93C358.97 296.93 359.56 296.34 359.56 295.62C359.56 294.89 358.97 294.3 358.24 294.3L323.15 294.3C322.43 294.3 321.84 294.89 321.84 295.62C321.84 296.34 322.43 296.93 323.15 296.93L358.24 296.93Z" />
				<path id="Shape" fill-rule="evenodd" class="shp9" d="M378.1 337.39C378.1 343.29 373.29 348.1 367.39 348.1C361.48 348.1 356.67 343.29 356.67 337.39C356.67 331.48 361.48 326.67 367.39 326.67C373.29 326.67 378.1 331.48 378.1 337.39ZM373.7 337.39C373.7 333.91 370.87 331.08 367.39 331.08C363.91 331.08 361.08 333.91 361.08 337.39C361.08 340.87 363.91 343.7 367.39 343.7C370.87 343.7 373.7 340.87 373.7 337.39Z" />
				<path id="Shape" fill-rule="evenodd" class="shp17" d="M378.62 391.44L378.62 393.22C378.62 400.9 372.34 407.16 364.61 407.16L316.85 407.16C309.13 407.16 302.84 400.9 302.84 393.22L302.84 378.98C302.84 377.92 303.3 376.92 304.11 376.24C304.92 375.55 305.98 375.25 307.03 375.41L313.68 376.44C313.67 376.25 313.67 376.05 313.67 375.86C313.67 370.64 317.93 366.39 323.18 366.39C328.42 366.39 332.68 370.64 332.68 375.86C332.68 377.05 332.46 378.21 332.04 379.29L335.48 379.82C337.28 380.1 339.08 380.23 340.89 380.22C341.2 373.19 347.05 367.56 354.19 367.56C360.03 367.56 365.04 371.25 366.82 376.59L374.43 375.41C375.48 375.25 376.55 375.55 377.35 376.24C378.16 376.92 378.62 377.93 378.62 378.98L378.62 382.7C378.62 383.91 377.64 384.88 376.43 384.88C375.22 384.88 374.23 383.91 374.23 382.7L374.23 379.86L346.66 384.14C342.72 384.75 338.74 384.75 334.81 384.14L307.23 379.86L307.23 393.22C307.23 398.5 311.55 402.79 316.85 402.79L364.61 402.79C369.92 402.79 374.23 398.5 374.23 393.22L374.23 391.44C374.23 390.23 375.22 389.25 376.43 389.25C377.64 389.25 378.62 390.23 378.62 391.44ZM345.31 379.91C345.53 379.88 345.76 379.86 345.98 379.82L362.39 377.28C361.01 374.08 357.84 371.93 354.19 371.93C349.57 371.93 345.76 375.43 345.31 379.91ZM318.05 375.86C318.05 376.3 318.11 376.73 318.22 377.15L327.5 378.58C328.01 377.78 328.3 376.84 328.3 375.86C328.3 373.05 326 370.76 323.17 370.76C320.35 370.76 318.05 373.05 318.05 375.86Z" />
				<path id="Shape" fill-rule="evenodd" class="shp18" d="M343.08 354.63C343.08 358.81 339.68 362.21 335.51 362.21C331.33 362.21 327.93 358.81 327.93 354.63C327.93 350.46 331.33 347.06 335.51 347.06C339.68 347.06 343.08 350.46 343.08 354.63ZM338.63 354.63C338.63 352.91 337.23 351.51 335.51 351.51C333.78 351.51 332.38 352.91 332.38 354.63C332.38 356.35 333.78 357.75 335.51 357.75C337.23 357.75 338.63 356.35 338.63 354.63Z" />
				<path id="Shape" fill-rule="evenodd" class="shp19" d="M335.77 393.31C335.77 397.49 332.37 400.89 328.19 400.89C324.01 400.89 320.61 397.49 320.61 393.31C320.61 389.13 324.01 385.73 328.19 385.73C332.37 385.73 335.77 389.13 335.77 393.31ZM331.31 393.31C331.31 391.59 329.91 390.19 328.19 390.19C326.47 390.19 325.07 391.59 325.07 393.31C325.07 395.03 326.47 396.43 328.19 396.43C329.91 396.43 331.31 395.03 331.31 393.31Z" />
				<path id="Shape" fill-rule="evenodd" class="shp10" d="M350.4 328.76C350.4 333.37 346.65 337.13 342.04 337.13C337.43 337.13 333.68 333.37 333.68 328.76C333.68 324.15 337.43 320.4 342.04 320.4C346.65 320.4 350.4 324.15 350.4 328.76ZM346 328.76C346 326.58 344.22 324.8 342.04 324.8C339.85 324.8 338.08 326.58 338.08 328.76C338.08 330.95 339.85 332.72 342.04 332.72C344.22 332.72 346 330.95 346 328.76Z" />
			</g>
		</g>
		<g id="Cauldren">
			<path id="Spacing" class="shp0" d="M1016 15L1166 15L1166 165L1016 165L1016 15Z" />
			<g id="Icon">
				<path id="Shape" fill-rule="evenodd" class="shp8" d="M1110.91 24.09C1110.91 19.08 1116.01 15 1122.27 15C1128.54 15 1133.64 19.08 1133.64 24.09C1133.64 29.1 1128.54 33.18 1122.27 33.18C1116.01 33.18 1110.91 29.1 1110.91 24.09ZM1116.59 24.09C1116.59 26.6 1119.14 28.64 1122.27 28.64C1125.41 28.64 1127.95 26.6 1127.95 24.09C1127.95 21.58 1125.41 19.55 1122.27 19.55C1119.14 19.55 1116.59 21.58 1116.59 24.09Z" />
				<path id="Shape" fill-rule="evenodd" class="shp13" d="M1033.64 24.09C1033.64 19.08 1038.73 15 1045 15C1051.27 15 1056.36 19.08 1056.36 24.09C1056.36 29.1 1051.27 33.18 1045 33.18C1038.73 33.18 1033.64 29.1 1033.64 24.09ZM1039.32 24.09C1039.32 26.6 1041.87 28.64 1045 28.64C1048.13 28.64 1050.68 26.6 1050.68 24.09C1050.68 21.58 1048.13 19.55 1045 19.55C1041.87 19.55 1039.32 21.58 1039.32 24.09Z" />
				<path id="Shape" fill-rule="evenodd" class="shp20" d="M1092.73 37.73C1092.73 32.71 1096.81 28.64 1101.82 28.64C1106.83 28.64 1110.91 32.71 1110.91 37.73C1110.91 42.74 1106.83 46.82 1101.82 46.82C1096.81 46.82 1092.73 42.74 1092.73 37.73ZM1097.92 37.73C1097.92 39.88 1099.67 41.62 1101.82 41.62C1103.97 41.62 1105.71 39.88 1105.71 37.73C1105.71 35.58 1103.97 33.83 1101.82 33.83C1099.67 33.83 1097.92 35.58 1097.92 37.73Z" />
				<path id="Shape" fill-rule="evenodd" class="shp21" d="M1060.91 28.64C1060.91 23.62 1064.99 19.55 1070 19.55C1075.01 19.55 1079.09 23.62 1079.09 28.64C1079.09 33.65 1075.01 37.73 1070 37.73C1064.99 37.73 1060.91 33.65 1060.91 28.64ZM1066.1 28.64C1066.1 30.78 1067.85 32.53 1070 32.53C1072.15 32.53 1073.9 30.78 1073.9 28.64C1073.9 26.49 1072.15 24.74 1070 24.74C1067.85 24.74 1066.1 26.49 1066.1 28.64Z" />
				<path id="Shape" fill-rule="evenodd" class="shp22" d="M1148.05 149.29C1151.1 152.27 1151.1 157.11 1148.05 160.09C1146.52 161.58 1144.52 162.32 1142.51 162.32C1140.51 162.32 1138.5 161.58 1136.98 160.09L1130.17 153.45C1118.85 160.73 1105.18 165 1090.45 165C1076.38 165 1063.27 161.09 1052.26 154.39L1046.41 160.09C1044.88 161.58 1042.88 162.32 1040.88 162.32C1038.87 162.32 1036.87 161.58 1035.34 160.09C1032.29 157.11 1032.29 152.27 1035.34 149.29L1039.9 144.85C1027.6 132.92 1020 116.69 1020 98.82C1020 88.78 1022.37 79.15 1026.99 70.15L1022.05 62.13C1021.23 60.79 1021.21 59.11 1022 57.75C1022.78 56.39 1024.27 55.55 1025.87 55.55L1028.2 55.55C1029.37 51.16 1033.42 47.91 1038.27 47.91C1040.38 47.91 1042.43 48.55 1044.15 49.7C1046.58 46.97 1050.1 45.36 1053.92 45.36C1055.42 45.36 1056.89 45.61 1058.28 46.1C1060.91 41.05 1066.26 37.73 1072.19 37.73C1079.2 37.73 1085.13 42.2 1087.1 48.46C1089.81 47.55 1092.94 47.82 1095.45 49.17C1098.05 45.27 1102.52 42.82 1107.42 42.82C1112.31 42.82 1116.78 45.27 1119.39 49.17C1122.73 47.36 1127.11 47.59 1130.26 49.7C1132.69 46.97 1136.21 45.36 1140.03 45.36C1146.34 45.36 1151.6 49.74 1152.82 55.55L1155.04 55.55C1156.64 55.55 1158.12 56.39 1158.91 57.75C1159.7 59.11 1159.68 60.79 1158.86 62.13L1153.92 70.15C1158.54 79.15 1160.91 88.78 1160.91 98.82C1160.91 116.09 1153.82 131.83 1142.24 143.63L1148.05 149.29ZM1132.64 55.55L1147.42 55.55C1146.34 52.58 1143.44 50.45 1140.03 50.45C1137.05 50.45 1134.37 52.1 1133.04 54.75L1132.64 55.55ZM1119.78 55.55L1128.91 55.55L1128.59 55.12C1126.68 52.56 1122.6 52.36 1120.45 54.78L1119.78 55.55ZM1098.26 55.55L1116.57 55.55L1116.01 53.95C1114.74 50.33 1111.29 47.91 1107.42 47.91C1103.55 47.91 1100.09 50.33 1098.82 53.95L1098.26 55.55ZM1085.62 55.55L1095.05 55.55L1094.38 54.78C1092.49 52.65 1089.07 52.45 1086.94 54.35L1085.62 55.55ZM1046.53 55.55L1082.7 55.55L1082.57 52.59C1082.34 47.11 1077.78 42.82 1072.19 42.82C1067.55 42.82 1063.44 45.89 1062.18 50.29L1061.22 53.66L1058.23 51.72C1056.94 50.89 1055.46 50.45 1053.92 50.45C1050.94 50.45 1048.26 52.1 1046.93 54.75L1046.53 55.55ZM1033.75 55.55L1042.8 55.55L1042.48 55.12C1041.47 53.77 1039.94 53 1038.27 53C1036.34 53 1034.65 54.02 1033.75 55.55ZM1027.22 60.64L1029.81 64.85L1029.81 64.85L1031.91 68.27L1148.99 68.27L1151.1 64.85L1151.1 64.85L1153.69 60.64L1027.22 60.64ZM1046.93 150.81C1046.15 150.22 1045.37 149.63 1044.62 149.02C1044.32 148.78 1044.01 148.56 1043.72 148.32L1039.03 152.89C1038.01 153.88 1038.01 155.5 1039.03 156.49C1040.05 157.48 1041.71 157.48 1042.72 156.49L1047.83 151.5C1047.53 151.28 1047.24 151.03 1046.93 150.81ZM1090.45 159.91C1105.03 159.91 1118.51 155.41 1129.38 147.81C1130.39 147.11 1131.36 146.37 1132.32 145.62C1132.83 145.22 1133.33 144.81 1133.83 144.4C1134.44 143.89 1135.03 143.37 1135.61 142.84C1147.97 131.72 1155.69 116.1 1155.69 98.82C1155.69 89.93 1153.69 81.37 1149.75 73.36L1031.15 73.36C1027.22 81.37 1025.22 89.93 1025.22 98.82C1025.22 116.41 1033.21 132.28 1045.96 143.43C1046.94 144.3 1047.95 145.15 1048.99 145.95C1049.32 146.2 1049.66 146.44 1049.98 146.68C1050.82 147.3 1051.67 147.9 1052.53 148.48C1063.23 155.66 1076.32 159.91 1090.45 159.91ZM1144.35 152.89L1138.52 147.2C1138.3 147.39 1138.06 147.56 1137.84 147.75C1136.95 148.51 1136.04 149.25 1135.11 149.97C1134.9 150.13 1134.71 150.31 1134.49 150.47L1140.67 156.49C1141.69 157.48 1143.34 157.48 1144.36 156.49C1145.38 155.5 1145.38 153.88 1144.35 152.89Z" />
				<path id="Path" class="shp23" d="M1090.1 142.03C1066.88 142.03 1047.99 124.86 1047.99 103.76C1047.99 102.43 1046.81 101.36 1045.36 101.36C1043.9 101.36 1042.73 102.43 1042.73 103.76C1042.73 127.5 1063.98 146.82 1090.1 146.82C1091.55 146.82 1092.73 145.75 1092.73 144.43C1092.73 143.1 1091.55 142.03 1090.1 142.03Z" />
			</g>
		</g>
		<g id="Doble Terminated Crystal">
			<path id="Spacing" class="shp0" d="M516 269L666 269L666 419L516 419L516 269Z" />
			<g id="Icon">
				<path id="Shape" fill-rule="evenodd" class="shp24" d="M628.31 303.09L628.31 376.91C628.31 377.69 628 378.44 627.45 378.98L592.23 414.14C591.68 414.69 590.93 415 590.15 415C589.37 415 588.63 414.69 588.08 414.14L552.86 378.98C552.31 378.44 552 377.69 552 376.91L552 303.09C552 301.47 553.31 300.16 554.93 300.16L570.87 300.16L579.85 282.35L575.69 286.51C574.54 287.66 572.68 287.66 571.54 286.51C570.39 285.37 570.39 283.52 571.54 282.37L588.08 265.86C588.63 265.31 589.37 265 590.15 265C590.93 265 591.68 265.31 592.23 265.86L627.45 301.02C628 301.57 628.31 302.31 628.31 303.09ZM622.44 306.02L610.7 306.02L610.7 350.28C610.7 351.89 609.38 353.21 607.76 353.21C606.14 353.21 604.83 351.89 604.83 350.28L604.83 306.02L575.48 306.02L575.48 373.98L622.44 373.98L622.44 306.02ZM562.02 379.84L579.85 397.65L570.87 379.84L562.02 379.84ZM590.15 405.03L602.86 379.84L577.44 379.84L590.15 405.03ZM600.45 397.65L618.29 379.84L609.44 379.84L600.45 397.65ZM618.29 300.16L600.45 282.35L609.43 300.16L618.29 300.16ZM577.44 300.16L602.86 300.16L590.15 274.97L577.44 300.16ZM557.87 306.02L557.87 373.98L569.61 373.98L569.61 306.02L557.87 306.02Z" />
				<path id="Path" class="shp25" d="M564.28 296.88C565.06 296.88 565.84 296.56 566.41 295.94L566.41 295.94C567.48 294.76 567.39 292.95 566.22 291.88C565.04 290.81 563.22 290.9 562.16 292.07C561.09 293.25 561.17 295.07 562.35 296.13C562.9 296.63 563.59 296.88 564.28 296.88Z" />
				<path id="Path" class="shp25" d="M607.66 360.64C606.07 360.64 604.79 361.93 604.79 363.52C604.79 365.11 606.07 366.39 607.66 366.39C609.25 366.39 610.54 365.11 610.54 363.52L610.54 363.52C610.54 361.93 609.25 360.64 607.66 360.64Z" />
			</g>
		</g>
		<g id="Wand">
			<path id="Spacing" class="shp0" d="M266 15L416 15L416 165L266 165L266 15Z" />
			<g id="Icon">
				<path id="Path" class="shp26" d="M397.51 95.21C395.93 95.21 394.65 96.49 394.65 98.07C394.65 99.65 395.93 100.94 397.51 100.94C399.09 100.94 400.38 99.65 400.38 98.07C400.38 96.49 399.09 95.21 397.51 95.21Z" />
				<path id="Path" class="shp26" d="M361.51 33.55C360.4 32.43 358.58 32.43 357.46 33.55C356.35 34.66 356.35 36.48 357.46 37.6C358.58 38.72 360.4 38.72 361.51 37.6C362.63 36.48 362.63 34.67 361.51 33.55Z" />
				<path id="Shape" fill-rule="evenodd" class="shp27" d="M407.11 86.48L385.1 86.49L372.39 104.18C368.19 110.11 358.99 108.63 356.83 101.7L354.23 93.33L286 161.56C281.43 166.15 274.01 166.14 269.43 161.56C264.85 156.99 264.86 149.56 269.44 144.99L337.67 76.77L329.31 74.17C322.35 72.01 320.9 62.81 326.84 58.6L344.51 45.9L344.52 23.89C344.44 16.63 352.73 12.41 358.56 16.76L376.18 29.91L397.01 22.85C403.9 20.51 410.49 27.1 408.15 33.99L401.09 54.82L414.24 72.44C418.59 78.28 414.37 86.57 407.11 86.48ZM352.27 87.01L350.3 80.7L343.99 78.73L273.58 149.14C271.27 151.44 271.31 155.15 273.58 157.42C275.87 159.72 279.57 159.71 281.86 157.42L352.27 87.01ZM409.54 75.94L395.47 57.09C394.9 56.32 394.74 55.31 395.05 54.4L402.6 32.11C403.39 29.8 401.18 27.62 398.89 28.4L376.6 35.95C375.69 36.26 374.68 36.1 373.91 35.53L355.06 21.46C353.1 20 350.31 21.41 350.34 23.84C350.35 23.85 350.35 23.87 350.35 23.88L350.34 47.41C350.34 48.35 349.91 49.23 349.15 49.78L330.24 63.37C328.22 64.8 328.74 67.86 331.04 68.57L353.51 75.56C354.43 75.84 355.16 76.57 355.44 77.49L358.39 86.96L358.4 86.99C358.4 86.99 358.4 87 358.4 87.01L362.43 99.96C363.15 102.28 366.21 102.77 367.62 100.78L381.22 81.85C381.77 81.09 382.65 80.66 383.59 80.66L407.12 80.65C409.69 80.65 410.96 77.84 409.54 75.94Z" />
				<path id="Path" class="shp26" d="M375.21 44.15L370.27 40.58C368.94 39.62 367.07 39.88 366.07 41.17C365.08 42.45 365.36 44.27 366.68 45.23L371.63 48.8C372.96 49.76 374.83 49.49 375.82 48.21C376.81 46.92 376.54 45.11 375.21 44.15Z" />
				<path id="Path" class="shp17" d="M327.11 30.28L324.16 30.28L324.16 27.33C324.16 25.7 322.84 24.38 321.21 24.38C319.58 24.38 318.26 25.7 318.26 27.33L318.26 30.28L315.31 30.28C313.68 30.28 312.35 31.6 312.35 33.23C312.35 34.86 313.68 36.18 315.31 36.18L318.26 36.18L318.26 39.13C318.26 40.76 319.58 42.08 321.21 42.08C322.84 42.08 324.16 40.76 324.16 39.13L324.16 36.18L327.11 36.18C328.74 36.18 330.06 34.86 330.06 33.23C330.06 31.6 328.74 30.28 327.11 30.28Z" />
				<path id="Path" class="shp17" d="M391.69 118.3L388.74 118.3L388.74 115.35C388.74 113.72 387.42 112.4 385.79 112.4C384.16 112.4 382.84 113.72 382.84 115.35L382.84 118.3L379.89 118.3C378.26 118.3 376.94 119.62 376.94 121.25C376.94 122.88 378.26 124.2 379.89 124.2L382.84 124.2L382.84 127.15C382.84 128.78 384.16 130.1 385.79 130.1C387.42 130.1 388.74 128.78 388.74 127.15L388.74 124.2L391.69 124.2C393.32 124.2 394.65 122.88 394.65 121.25C394.65 119.62 393.32 118.3 391.69 118.3Z" />
			</g>
		</g>
		<g id="Castle">
			<path id="Spacing" class="shp0" d="M766 265L916 265L916 415L766 415L766 265Z" />
			<g id="Icon">
				<path id="Path" class="shp13" d="M896 370C894.62 370 893.5 371.12 893.5 372.5L893.5 377.5C893.5 378.88 894.62 380 896 380C897.38 380 898.5 378.88 898.5 377.5L898.5 372.5C898.5 371.12 897.38 370 896 370Z" />
				<path id="Path" class="shp21" d="M827.38 309.74C828.62 310.36 830.12 309.85 830.74 308.62L838.5 293.09L838.5 307.5C838.5 308.88 839.62 310 841 310C842.38 310 843.5 308.88 843.5 307.5L843.5 293.09L851.26 308.62C851.7 309.5 852.58 310 853.5 310C853.88 310 854.26 309.92 854.62 309.74C855.85 309.12 856.36 307.62 855.74 306.38L843.5 281.91L843.5 270L856 270L856 275L848.5 275C847.12 275 846 276.12 846 277.5C846 278.88 847.12 280 848.5 280L858.5 280C859.88 280 861 278.88 861 277.5L861 267.5C861 266.12 859.88 265 858.5 265L841 265C839.62 265 838.5 266.12 838.5 267.5L838.5 281.91L826.26 306.38C825.64 307.62 826.15 309.12 827.38 309.74Z" />
				<path id="Path" class="shp10" d="M853.5 345C854.88 345 856 343.88 856 342.5L856 320L858.5 320C859.88 320 861 318.88 861 317.5C861 316.12 859.88 315 858.5 315L823.5 315C822.12 315 821 316.12 821 317.5C821 318.88 822.12 320 823.5 320L826 320L826 342.5C826 343.88 827.12 345 828.5 345C829.88 345 831 343.88 831 342.5L831 320L851 320L851 342.5C851 343.88 852.12 345 853.5 345Z" />
				<path id="Path" class="shp13" d="M838.5 332.5L838.5 337.5C838.5 338.88 839.62 340 841 340C842.38 340 843.5 338.88 843.5 337.5L843.5 332.5C843.5 331.12 842.38 330 841 330C839.62 330 838.5 331.12 838.5 332.5Z" />
				<path id="Path" class="shp10" d="M878.5 340L881 340L881 342.5C881 343.88 882.12 345 883.5 345C884.88 345 886 343.88 886 342.5L886 340L906 340L906 390C906 391.38 907.12 392.5 908.5 392.5C909.88 392.5 911 391.38 911 390L911 340L913.5 340C914.88 340 916 338.88 916 337.5C916 336.12 914.88 335 913.5 335L878.5 335C877.12 335 876 336.12 876 337.5C876 338.88 877.12 340 878.5 340Z" />
				<path id="Path" class="shp28" d="M886 290C886 291.38 887.12 292.5 888.5 292.5C889.88 292.5 891 291.38 891 290C892.38 290 893.5 288.88 893.5 287.5C893.5 286.12 892.38 285 891 285C891 283.62 889.88 282.5 888.5 282.5C887.12 282.5 886 283.62 886 285C884.62 285 883.5 286.12 883.5 287.5C883.5 288.88 884.62 290 886 290Z" />
				<path id="Path" class="shp21" d="M882.38 329.74C883.62 330.36 885.12 329.85 885.74 328.62L893.5 313.09L893.5 327.5C893.5 328.88 894.62 330 896 330C897.38 330 898.5 328.88 898.5 327.5L898.5 313.09L906.26 328.62C906.7 329.5 907.58 330 908.5 330C908.88 330 909.26 329.92 909.62 329.74C910.85 329.12 911.35 327.62 910.74 326.38L898.24 301.38C898.13 301.17 897.99 300.98 897.82 300.82C897.37 300.32 896.73 300 896 300C895.27 300 894.63 300.32 894.18 300.82C894.01 300.98 893.87 301.17 893.76 301.38L881.26 326.38C880.65 327.62 881.15 329.12 882.38 329.74Z" />
				<path id="Shape" fill-rule="evenodd" class="shp13" d="M856 390L856 412.5C856 413.88 854.88 415 853.5 415L828.5 415C827.12 415 826 413.88 826 412.5L826 390C826 381.73 832.73 375 841 375C849.27 375 856 381.73 856 390ZM851 405L831 405L831 410L851 410L851 405ZM851 395L831 395L831 400L851 400L851 395ZM851 390C851 384.49 846.52 380 841 380C835.49 380 831 384.48 831 390L851 390Z" />
				<path id="Path" class="shp13" d="M898.5 352.5C898.5 351.12 897.38 350 896 350C894.62 350 893.5 351.12 893.5 352.5L893.5 357.5C893.5 358.88 894.62 360 896 360C897.38 360 898.5 358.88 898.5 357.5L898.5 352.5Z" />
				<path id="Path" class="shp28" d="M816 272.5C816 273.88 817.12 275 818.5 275C819.88 275 821 273.88 821 272.5C822.38 272.5 823.5 271.38 823.5 270C823.5 268.62 822.38 267.5 821 267.5C821 266.12 819.88 265 818.5 265C817.12 265 816 266.12 816 267.5C814.62 267.5 813.5 268.62 813.5 270C813.5 271.38 814.62 272.5 816 272.5Z" />
				<path id="Path" class="shp13" d="M786 370C784.62 370 783.5 371.12 783.5 372.5L783.5 377.5C783.5 378.88 784.62 380 786 380C787.38 380 788.5 378.88 788.5 377.5L788.5 372.5C788.5 371.12 787.38 370 786 370Z" />
				<path id="Shape" fill-rule="evenodd" class="shp9" d="M821 402.5L821 412.5C821 413.88 819.88 415 818.5 415L768.5 415C767.12 415 766 413.88 766 412.5L766 402.5C766 399.74 768.24 397.5 771 397.5C771.91 397.5 772.76 397.75 773.5 398.17C774.97 397.32 777.03 397.32 778.5 398.17C779.97 397.32 782.03 397.32 783.5 398.17C784.97 397.32 787.03 397.32 788.5 398.17C789.97 397.32 792.03 397.32 793.5 398.17C794.97 397.32 797.03 397.32 798.5 398.17C799.97 397.32 802.03 397.32 803.5 398.17C804.97 397.32 807.03 397.32 808.5 398.17C809.97 397.32 812.03 397.32 813.5 398.17C814.23 397.75 815.09 397.5 816 397.5C818.76 397.5 821 399.74 821 402.5ZM816 410L816 402.5C816 403.88 814.88 405 813.5 405C812.12 405 811 403.88 811 402.5C811 403.88 809.88 405 808.5 405C807.12 405 806 403.88 806 402.5C806 403.88 804.88 405 803.5 405C802.12 405 801 403.88 801 402.5C801 403.88 799.88 405 798.5 405C797.12 405 796 403.88 796 402.5C796 403.88 794.88 405 793.5 405C792.12 405 791 403.88 791 402.5C791 403.88 789.88 405 788.5 405C787.12 405 786 403.88 786 402.5C786 403.88 784.88 405 783.5 405C782.12 405 781 403.88 781 402.5C781 403.88 779.88 405 778.5 405C777.12 405 776 403.88 776 402.5C776 403.88 774.88 405 773.5 405C772.12 405 771 403.88 771 402.5L771 410L816 410Z" />
				<path id="Shape" fill-rule="evenodd" class="shp9" d="M916 402.5L916 412.5C916 413.88 914.88 415 913.5 415L863.5 415C862.12 415 861 413.88 861 412.5L861 402.5C861 399.74 863.24 397.5 866 397.5C866.91 397.5 867.76 397.75 868.5 398.17C869.97 397.32 872.03 397.32 873.5 398.17C874.97 397.32 877.03 397.32 878.5 398.17C879.97 397.32 882.03 397.32 883.5 398.17C884.97 397.32 887.03 397.32 888.5 398.17C889.97 397.32 892.03 397.32 893.5 398.17C894.97 397.32 897.03 397.32 898.5 398.17C899.97 397.32 902.03 397.32 903.5 398.17C904.97 397.32 907.03 397.32 908.5 398.17C909.23 397.75 910.09 397.5 911 397.5C913.76 397.5 916 399.74 916 402.5ZM911 410L911 402.5C911 403.88 909.88 405 908.5 405C907.12 405 906 403.88 906 402.5C906 403.88 904.88 405 903.5 405C902.12 405 901 403.88 901 402.5C901 403.88 899.88 405 898.5 405C897.12 405 896 403.88 896 402.5C896 403.88 894.88 405 893.5 405C892.12 405 891 403.88 891 402.5C891 403.88 889.88 405 888.5 405C887.12 405 886 403.88 886 402.5C886 403.88 884.88 405 883.5 405C882.12 405 881 403.88 881 402.5C881 403.88 879.88 405 878.5 405C877.12 405 876 403.88 876 402.5C876 403.88 874.88 405 873.5 405C872.12 405 871 403.88 871 402.5C871 403.88 869.88 405 868.5 405C867.12 405 866 403.88 866 402.5L866 410L911 410Z" />
				<path id="Path" class="shp21" d="M772.38 329.74C773.62 330.36 775.12 329.85 775.74 328.62L783.5 313.09L783.5 327.5C783.5 328.88 784.62 330 786 330C787.38 330 788.5 328.88 788.5 327.5L788.5 313.09L796.26 328.62C796.7 329.5 797.58 330 798.5 330C798.88 330 799.26 329.92 799.62 329.74C800.85 329.12 801.36 327.62 800.74 326.38L788.24 301.38C788.13 301.17 787.99 300.98 787.82 300.82C787.37 300.32 786.73 300 786 300C785.27 300 784.63 300.32 784.18 300.82C784.01 300.98 783.87 301.17 783.76 301.38L771.26 326.38C770.65 327.62 771.15 329.12 772.38 329.74Z" />
				<path id="Path" class="shp17" d="M876 362.5L876 355L881 355L881 390C881 391.38 882.12 392.5 883.5 392.5C884.88 392.5 886 391.38 886 390L886 352.5C886 351.12 884.88 350 883.5 350L873.5 350C872.12 350 871 351.12 871 352.5L871 360L861 360L861 352.5C861 351.12 859.88 350 858.5 350L848.5 350C847.12 350 846 351.12 846 352.5L846 360L836 360L836 352.5C836 351.12 834.88 350 833.5 350L823.5 350C822.12 350 821 351.12 821 352.5L821 360L811 360L811 352.5C811 351.12 809.88 350 808.5 350L798.5 350C797.12 350 796 351.12 796 352.5L796 390C796 391.38 797.12 392.5 798.5 392.5C799.88 392.5 801 391.38 801 390L801 355L806 355L806 362.5C806 363.88 807.12 365 808.5 365L823.5 365C824.88 365 826 363.88 826 362.5L826 355L831 355L831 362.5C831 363.88 832.12 365 833.5 365L848.5 365C849.88 365 851 363.88 851 362.5L851 355L856 355L856 362.5C856 363.88 857.12 365 858.5 365L873.5 365C874.88 365 876 363.88 876 362.5Z" />
				<path id="Path" class="shp28" d="M768.5 280L771 280L771 282.5C771 283.88 772.12 285 773.5 285C774.88 285 776 283.88 776 282.5L776 280L778.5 280C779.88 280 781 278.88 781 277.5C781 276.12 779.88 275 778.5 275L776 275L776 272.5C776 271.12 774.88 270 773.5 270C772.12 270 771 271.12 771 272.5L771 275L768.5 275C767.12 275 766 276.12 766 277.5C766 278.88 767.12 280 768.5 280Z" />
				<path id="Path" class="shp10" d="M768.5 340L771 340L771 392.5C771 393.88 772.12 395 773.5 395C774.88 395 776 393.88 776 392.5L776 340L796 340L796 342.5C796 343.88 797.12 345 798.5 345C799.88 345 801 343.88 801 342.5L801 340L803.5 340C804.88 340 806 338.88 806 337.5C806 336.12 804.88 335 803.5 335L768.5 335C767.12 335 766 336.12 766 337.5C766 338.88 767.12 340 768.5 340Z" />
				<path id="Path" class="shp13" d="M788.5 352.5C788.5 351.12 787.38 350 786 350C784.62 350 783.5 351.12 783.5 352.5L783.5 357.5C783.5 358.88 784.62 360 786 360C787.38 360 788.5 358.88 788.5 357.5L788.5 352.5Z" />
			</g>
		</g>
		<g id="Crown">
			<path id="Spacing" class="shp0" d="M1016 265L1166 265L1166 415L1016 415L1016 265Z" />
			<g id="Icon">
				<path id="Shape" fill-rule="evenodd" class="shp29" d="M1159.63 345.06C1163.36 346.49 1166 350.85 1166 356.14C1166 362.64 1162.03 367.72 1156.97 367.72C1156.13 367.72 1155.3 367.58 1154.51 367.3L1153.5 371.67C1155.36 372.26 1156.71 374.01 1156.71 376.06L1156.71 380.04C1156.71 382.58 1154.64 384.65 1152.1 384.65L1128.57 384.65C1127.35 384.65 1126.37 383.66 1126.37 382.45C1126.37 381.23 1127.35 380.25 1128.57 380.25L1152.1 380.25C1152.22 380.25 1152.31 380.15 1152.31 380.04L1152.31 376.06C1152.31 375.95 1152.22 375.85 1152.1 375.85L1029.9 375.85C1029.78 375.85 1029.69 375.95 1029.69 376.06L1029.69 380.04C1029.69 380.15 1029.78 380.25 1029.9 380.25L1119.01 380.25C1120.23 380.25 1121.21 381.23 1121.21 382.45C1121.21 383.66 1120.23 384.65 1119.01 384.65L1029.9 384.65C1027.36 384.65 1025.29 382.58 1025.29 380.04L1025.29 376.06C1025.29 374.01 1026.64 372.26 1028.5 371.67L1027.49 367.3C1026.7 367.58 1025.87 367.72 1025.03 367.72C1019.96 367.72 1016 362.64 1016 356.14C1016 350.85 1018.64 346.49 1022.37 345.06L1019.18 331.24C1018.51 328.32 1021.93 326.19 1024.23 328.12C1026.22 329.79 1029.32 332.02 1032.75 333.16C1035.24 333.98 1037.05 335.8 1037.83 338.29C1038.71 341.05 1038.18 344.42 1036.51 346.66C1035.61 347.88 1035.8 349.5 1036.95 350.36C1038.23 351.31 1039.84 351.8 1041.72 351.8C1044.98 351.8 1046.76 344.65 1047.13 337.46C1044 337.77 1041.43 336.74 1039.94 334.53C1037.88 331.45 1040.91 325.51 1047.82 313.61C1049.59 310.56 1051.27 307.68 1052.25 305.66C1052.72 304.68 1053.64 304.03 1054.71 303.91C1055.79 303.79 1056.83 304.23 1057.5 305.07C1059.95 308.16 1065.65 316.19 1065.65 324.13C1065.65 326.97 1065.95 330.27 1066.5 333.41C1066.7 334.61 1065.9 335.74 1064.71 335.95C1063.51 336.16 1062.37 335.36 1062.17 334.16C1061.58 330.78 1061.25 327.22 1061.25 324.13C1061.25 318.58 1057.52 312.55 1055.26 309.41C1054.26 311.29 1052.97 313.51 1051.62 315.82C1050.06 318.5 1043.57 329.36 1043.69 332.21C1044.65 333.42 1046.69 333.16 1047.85 332.89C1049.79 332.43 1051.63 333.92 1051.59 335.91C1051.45 342.01 1050.21 356.2 1041.72 356.2C1038.87 356.2 1036.38 355.42 1034.33 353.89C1031.25 351.6 1030.65 347.18 1032.98 344.04C1033.7 343.07 1034.16 341.24 1033.64 339.62C1033.28 338.48 1032.52 337.71 1031.37 337.33C1028.71 336.45 1026.26 335.06 1024.25 333.66L1031.09 363.33C1031.09 363.34 1031.09 363.34 1031.09 363.35L1032.96 371.45L1149.04 371.45L1150.91 363.35C1150.91 363.34 1150.91 363.34 1150.91 363.33L1157.75 333.66C1155.74 335.06 1153.29 336.45 1150.63 337.33C1149.48 337.71 1148.72 338.48 1148.36 339.62C1147.84 341.24 1148.3 343.07 1149.02 344.04C1151.35 347.18 1150.75 351.6 1147.67 353.89C1145.62 355.42 1143.13 356.2 1140.28 356.2C1131.79 356.2 1130.55 342.01 1130.42 335.91C1130.37 333.92 1132.21 332.43 1134.15 332.89C1135.31 333.16 1137.35 333.42 1138.32 332.2C1138.34 331.74 1138.14 329.87 1134.91 323.82C1134.33 322.75 1134.74 321.42 1135.81 320.84C1136.88 320.27 1138.21 320.68 1138.78 321.75C1142.61 328.92 1143.5 332.38 1142.06 334.53C1140.57 336.74 1138.01 337.76 1134.87 337.46C1135.24 344.65 1137.02 351.8 1140.28 351.8C1142.16 351.8 1143.77 351.31 1145.05 350.36C1146.2 349.5 1146.39 347.88 1145.49 346.66C1143.83 344.42 1143.29 341.05 1144.17 338.29C1144.95 335.8 1146.76 333.98 1149.25 333.16C1152.68 332.02 1155.78 329.79 1157.77 328.12C1160.07 326.2 1163.49 328.32 1162.82 331.24L1159.63 345.06ZM1025.03 363.32C1025.58 363.32 1026.07 363.16 1026.49 362.94L1023.38 349.46C1021.65 350.51 1020.39 353.15 1020.39 356.14C1020.39 360.04 1022.52 363.32 1025.03 363.32ZM1156.97 363.32C1159.48 363.32 1161.61 360.04 1161.61 356.14C1161.61 353.15 1160.35 350.51 1158.62 349.46L1155.51 362.94C1155.93 363.16 1156.42 363.32 1156.97 363.32Z" />
				<path id="Path" class="shp30" d="M1064.89 343.85C1066.46 347.41 1068.41 349.44 1070.69 349.87C1073.75 350.46 1077.02 348.92 1079.45 346.9C1083.74 343.35 1086.3 337.76 1086.3 331.94L1086.3 327.78C1086.3 325.18 1083.45 323.58 1081.24 324.93C1080.56 325.35 1079.58 325.57 1078.42 325.57C1075.51 325.57 1073.57 324.67 1073.57 320.31C1073.57 320.02 1073.8 318.32 1078.21 313.3C1081.15 309.96 1084.98 306.22 1088.05 303.22C1089.14 302.17 1090.12 301.21 1091 300.33C1091.88 301.21 1092.87 302.17 1093.96 303.23C1097.03 306.23 1100.86 309.96 1103.79 313.3C1108.2 318.32 1108.43 320.02 1108.43 320.31C1108.43 324.67 1106.49 325.57 1103.58 325.57C1102.4 325.57 1101.45 325.35 1100.76 324.93C1098.54 323.58 1095.7 325.18 1095.7 327.78L1095.7 331.94C1095.7 337.76 1098.26 343.35 1102.55 346.9C1105.45 349.3 1108.64 350.39 1111.32 349.87C1118.37 348.52 1120.75 331.62 1120.75 324.13C1120.75 318.58 1124.48 312.55 1126.74 309.41C1127.73 311.27 1129 313.45 1130.32 315.73C1130.93 316.78 1132.28 317.13 1133.33 316.52C1134.38 315.91 1134.73 314.57 1134.12 313.52C1132.38 310.51 1130.73 307.68 1129.75 305.66C1129.28 304.68 1128.36 304.03 1127.29 303.91C1126.21 303.79 1125.17 304.23 1124.5 305.08C1122.05 308.16 1116.35 316.19 1116.35 324.13C1116.35 328.67 1115.6 334.15 1114.38 338.42C1112.85 343.77 1111.16 345.42 1110.49 345.55C1109.49 345.75 1107.54 345.33 1105.35 343.51C1102.06 340.79 1100.1 336.47 1100.1 331.94L1100.1 329.44C1101.14 329.79 1102.3 329.97 1103.58 329.97C1109.54 329.97 1112.82 326.53 1112.82 320.31C1112.82 315.84 1105.97 308.81 1097.02 300.08C1092.96 296.13 1092.93 296.03 1092.56 295.65C1092.15 295.23 1091.59 295 1091 295C1090.42 295 1089.85 295.23 1089.44 295.65C1088.93 296.17 1088.95 296.21 1084.99 300.07C1076.03 308.81 1069.18 315.84 1069.18 320.31C1069.18 326.54 1072.46 329.97 1078.42 329.97C1079.7 329.97 1080.86 329.79 1081.9 329.44L1081.9 331.94C1081.9 336.47 1079.94 340.79 1076.65 343.51C1074.46 345.33 1072.51 345.75 1071.51 345.55C1071.39 345.53 1070.31 345.24 1068.91 342.07C1068.42 340.96 1067.13 340.46 1066.02 340.95C1064.91 341.44 1064.4 342.74 1064.89 343.85L1064.89 343.85Z" />
				<path id="Shape" fill-rule="evenodd" class="shp31" d="M1091 343.27C1096.06 343.27 1100.17 348.47 1100.17 354.85C1100.17 361.24 1096.06 366.43 1091 366.43C1085.94 366.43 1081.83 361.24 1081.83 354.85C1081.83 348.47 1085.94 343.27 1091 343.27ZM1086.23 354.85C1086.23 358.74 1088.41 362.03 1091 362.03C1093.59 362.03 1095.77 358.74 1095.77 354.85C1095.77 350.96 1093.59 347.67 1091 347.67C1088.41 347.67 1086.23 350.96 1086.23 354.85Z" />
				<path id="Shape" fill-rule="evenodd" class="shp12" d="M1091 323.65C1087.16 323.65 1084.16 319.87 1084.16 315.04C1084.16 310.21 1087.16 306.43 1091 306.43C1094.84 306.43 1097.84 310.21 1097.84 315.04C1097.84 319.87 1094.84 323.65 1091 323.65ZM1088.55 315.04C1088.55 317.45 1089.84 319.25 1091 319.25C1092.16 319.25 1093.45 317.45 1093.45 315.04C1093.45 312.63 1092.16 310.83 1091 310.83C1089.84 310.83 1088.55 312.63 1088.55 315.04Z" />
			</g>
		</g>
		<text id="Fantasy Icon Set" style="transform: matrix(1,0,0,1,16,-369)" >
			<tspan x="0" y="0" class="txt32">Fantasy Icon Set</tspan>
		</text>
		<g id="Color Pallet">
			<path id="Oval" class="shp10" d="M956 -387C964.28 -387 971 -393.72 971 -402C971 -410.28 964.28 -417 956 -417C947.72 -417 941 -410.28 941 -402C941 -393.72 947.72 -387 956 -387Z" />
			<path id="Oval" class="shp9" d="M876 -387C884.28 -387 891 -393.72 891 -402C891 -410.28 884.28 -417 876 -417C867.72 -417 861 -410.28 861 -402C861 -393.72 867.72 -387 876 -387Z" />
			<path id="Oval" class="shp16" d="M916 -387C924.28 -387 931 -393.72 931 -402C931 -410.28 924.28 -417 916 -417C907.72 -417 901 -410.28 901 -402C901 -393.72 907.72 -387 916 -387Z" />
			<path id="Oval" class="shp8" d="M1036 -387C1044.28 -387 1051 -393.72 1051 -402C1051 -410.28 1044.28 -417 1036 -417C1027.72 -417 1021 -410.28 1021 -402C1021 -393.72 1027.72 -387 1036 -387Z" />
			<path id="Oval" class="shp21" d="M996 -387C1004.28 -387 1011 -393.72 1011 -402C1011 -410.28 1004.28 -417 996 -417C987.72 -417 981 -410.28 981 -402C981 -393.72 987.72 -387 996 -387Z" />
			<path id="Oval" class="shp17" d="M836 -387C844.28 -387 851 -393.72 851 -402C851 -410.28 844.28 -417 836 -417C827.72 -417 821 -410.28 821 -402C821 -393.72 827.72 -387 836 -387Z" />
			<path id="Oval" class="shp33" d="M1116 -387C1124.28 -387 1131 -393.72 1131 -402C1131 -410.28 1124.28 -417 1116 -417C1107.72 -417 1101 -410.28 1101 -402C1101 -393.72 1107.72 -387 1116 -387Z" />
			<path id="Oval" class="shp12" d="M1076 -387C1084.28 -387 1091 -393.72 1091 -402C1091 -410.28 1084.28 -417 1076 -417C1067.72 -417 1061 -410.28 1061 -402C1061 -393.72 1067.72 -387 1076 -387Z" />
		</g>
	</g>
</svg>