<svg xmlns="http://www.w3.org/2000/svg" viewBox="0 0 175 175" width="175" height="175">
	<defs>
		<clipPath clipPathUnits="userSpaceOnUse" id="cp1">
			<path d="M-214 -870L1386 -870L1386 330L-214 330Z" />
		</clipPath>
	</defs>
	<style>
		tspan { white-space:pre }
		.shp0 { fill: #50e3c2 } 
		.shp1 { fill: #bd10e0 } 
		.shp2 { fill: #4a90e2 } 
		.shp3 { fill: #ff00f5 } 
		.shp4 { fill: #50e38c } 
		.shp5 { fill: #f8e71c } 
		.shp6 { fill: #ffffff } 
		.shp7 { fill: #9013fe } 
		.shp8 { fill: #ff00b6 } 
		.shp9 { fill: #e800ff } 
		.shp10 { fill: #ff0053 } 
		.shp11 { fill: #9210e0 } 
		.shp12 { fill: #ff008f } 
		.shp13 { fill: #27cedb } 
		.shp14 { fill: #ffa7e6 } 
		.shp15 { fill: #ffcb74 } 
		.shp16 { fill: #fff683 } 
		.shp17 { fill: #ff0082 } 
		.txt18 { font-size: 100px;fill: #ffffff;font-family: "Leckerli One";font-weight: 400 } 
		.shp19 { fill: #f8c61c } 
	</style>
	<g id="Dribbble Shot" clip-path="url(#cp1)">
		<g id="Round Potion">
			<g id="Icon">
				<path id="Shape" fill-rule="evenodd" class="shp0" d="M67.03 74.21L67.03 57.5C62.91 57.5 59.55 54.14 59.55 50C59.55 45.87 62.91 42.5 67.03 42.5L71.41 42.5L68.44 29.13C67.95 26.9 68.48 24.59 69.91 22.81C71.34 21.02 73.47 20 75.75 20L98.25 20C100.53 20 102.66 21.02 104.09 22.81C105.52 24.59 106.05 26.89 105.56 29.13L102.59 42.5L106.97 42.5C111.09 42.5 114.45 45.86 114.45 50C114.45 54.13 111.09 57.5 106.97 57.5L106.97 74.21C125.21 82.18 136.91 99.97 136.91 120C136.91 147.57 114.52 170 87 170C59.48 170 37.09 147.57 37.09 120C37.09 99.97 48.79 82.18 67.03 74.21ZM87 165C111.77 165 131.92 144.81 131.92 120C131.92 119.07 131.87 118.14 131.82 117.22L128.99 118.71C122.27 122.25 114.96 124.02 107.65 124.02C99.91 124.02 92.19 122.04 85.2 118.1C73.76 111.65 59.82 111.13 47.93 116.69L42.1 119.41C42.1 119.61 42.08 119.8 42.08 120C42.08 144.81 62.23 165 87 165ZM131.17 111.91C131.15 111.79 131.13 111.67 131.1 111.54C129.56 111.28 127.92 111.17 125.45 111.03C118.84 110.65 112.33 113.13 107.57 117.85L106.43 118.98C113.34 119.19 120.3 117.64 126.66 114.29L131.17 111.91ZM76.52 42.5L97.47 42.5L100.68 28.04C100.85 27.3 100.67 26.53 100.19 25.94C99.72 25.34 99.01 25 98.25 25L75.75 25C74.99 25 74.28 25.34 73.81 25.94C73.33 26.53 73.15 27.3 73.32 28.04L76.52 42.5ZM64.54 50C64.54 51.38 65.66 52.5 67.03 52.5L106.97 52.5C108.34 52.5 109.46 51.38 109.46 50C109.46 48.62 108.34 47.5 106.97 47.5L67.03 47.5C65.66 47.5 64.54 48.62 64.54 50ZM80.06 57.5L81.56 65L92.44 65L93.94 57.5L80.06 57.5ZM70.45 78.19C55.2 84.26 44.74 97.81 42.53 113.7L45.82 112.16C59.17 105.92 74.8 106.51 87.64 113.75C91.57 115.96 95.75 117.46 100.03 118.28L104.06 114.3C109.83 108.57 117.75 105.55 125.74 106.04C127.26 106.13 128.57 106.21 129.81 106.33C125.82 93.7 116.38 83.3 103.55 78.19C102.6 77.82 101.97 76.89 101.97 75.87L101.97 57.5L99.03 57.5L96.93 67.99C96.7 69.16 95.68 70 94.49 70L79.51 70C78.32 70 77.3 69.16 77.06 67.99L74.97 57.5L72.03 57.5L72.03 75.87C72.03 76.89 71.4 77.82 70.45 78.19Z" />
				<path id="Shape" fill-rule="evenodd" class="shp1" d="M129.6 55.02C135.07 55.02 139.53 59.47 139.53 64.95C139.53 70.42 135.07 74.88 129.6 74.88C124.12 74.88 119.67 70.42 119.67 64.95C119.67 59.47 124.12 55.02 129.6 55.02ZM124.63 64.95C124.63 67.69 126.86 69.91 129.6 69.91C132.33 69.91 134.56 67.69 134.56 64.95C134.56 62.21 132.33 59.98 129.6 59.98C126.86 59.98 124.63 62.21 124.63 64.95Z" />
				<path id="Shape" fill-rule="evenodd" class="shp2" d="M146.84 20C153.76 20 159.39 25.63 159.39 32.54C159.39 39.46 153.76 45.09 146.84 45.09C139.93 45.09 134.3 39.46 134.3 32.54C134.3 25.63 139.93 20 146.84 20ZM139.32 32.54C139.32 36.69 142.69 40.07 146.84 40.07C150.99 40.07 154.37 36.69 154.37 32.54C154.37 28.39 150.99 25.02 146.84 25.02C142.69 25.02 139.32 28.39 139.32 32.54Z" />
				<path id="Shape" fill-rule="evenodd" class="shp3" d="M52.24 52.4C52.24 57.88 47.79 62.33 42.31 62.33C36.84 62.33 32.38 57.88 32.38 52.4C32.38 46.93 36.84 42.47 42.31 42.47C47.79 42.47 52.24 46.93 52.24 52.4ZM47.28 52.4C47.28 49.67 45.05 47.44 42.31 47.44C39.58 47.44 37.35 49.67 37.35 52.4C37.35 55.14 39.58 57.37 42.31 57.37C45.05 57.37 47.28 55.14 47.28 52.4Z" />
				<path id="Shape" fill-rule="evenodd" class="shp4" d="M19.58 97.35C15.4 97.35 12 93.95 12 89.77C12 85.6 15.4 82.2 19.58 82.2C23.76 82.2 27.16 85.6 27.16 89.77C27.16 93.95 23.76 97.35 19.58 97.35ZM19.58 92.3C20.97 92.3 22.1 91.17 22.1 89.77C22.1 88.38 20.97 87.25 19.58 87.25C18.18 87.25 17.05 88.38 17.05 89.77C17.05 91.17 18.18 92.3 19.58 92.3Z" />
				<path id="Path" class="shp5" d="M55.23 106.24C59.45 96.51 67.7 89.31 77.85 86.49L76.53 81.67C64.93 84.9 55.51 93.12 50.68 104.23L55.23 106.24Z" />
			</g>
		</g>
		<g id="Potion Bottle">
			<path id="Spacing" class="shp6" d="M261 20L411 20L411 170L261 170L261 20Z" />
			<g id="Icon">
				<path id="Shape" fill-rule="evenodd" class="shp7" d="M381.46 120.39L381.46 148.35C381.46 160.29 371.77 170 359.86 170L312.13 170C300.21 170 290.52 160.29 290.52 148.35L290.52 120.39C290.52 114.89 293.73 109.81 298.7 107.47C298.73 107.45 298.77 107.44 298.8 107.42L314.76 100.88C317.62 99.7 319.47 96.94 319.47 93.84L319.47 89.43C319.47 88.22 320.45 87.24 321.66 87.24C322.88 87.24 323.86 88.22 323.86 89.43L323.86 93.84C323.86 98.73 320.94 103.09 316.42 104.94L300.52 111.47C297.11 113.1 294.91 116.6 294.91 120.39L294.91 148.35C294.91 157.87 302.63 165.61 312.13 165.61L359.86 165.61C369.35 165.61 377.08 157.87 377.08 148.35L377.08 120.39C377.08 116.6 374.88 113.1 371.47 111.47L367.99 110.04C367.16 109.7 366.62 108.89 366.62 108C366.63 107.1 367.17 106.3 368 105.97C373.51 103.74 377.08 98.46 377.08 92.51C377.08 84.51 370.58 78.01 362.6 78.01C358.84 78.01 355.21 79.5 352.51 82.12L352.51 85.77C352.51 86.98 351.53 87.97 350.32 87.97C349.11 87.97 348.13 86.98 348.13 85.77L348.13 71.56L343.6 71.56C342.38 71.56 341.4 70.58 341.4 69.37C341.4 68.15 342.38 67.17 343.6 67.17L350.03 67.17C350.05 67.17 350.06 67.17 350.08 67.17C350.1 67.17 350.12 67.17 350.14 67.17C351.12 67.17 351.93 66.36 351.93 65.37L351.93 56.33L349.03 56.33L348.73 61.22C348.73 61.23 348.73 61.25 348.73 61.26C348.58 63.18 346.96 64.68 345.04 64.68L326.36 64.68C324.44 64.68 322.82 63.18 322.67 61.26C322.67 61.25 322.67 61.23 322.67 61.22L322.37 56.33L320.06 56.33L320.06 65.37C320.06 66.36 320.86 67.17 321.85 67.17L335.99 67.17C337.2 67.17 338.19 68.15 338.19 69.37C338.19 70.58 337.2 71.56 335.99 71.56L323.86 71.56L323.86 80.64C323.86 81.86 322.88 82.84 321.66 82.84C320.45 82.84 319.47 81.86 319.47 80.64L319.47 71.09C317.24 70.15 315.67 67.94 315.67 65.37L315.67 55.75C313.77 54.82 312.45 52.87 312.45 50.62C312.45 47.47 315.01 44.9 318.15 44.9L321.52 44.9L320.89 36.82L320.08 26.41C319.96 24.76 320.52 23.12 321.65 21.91C322.77 20.7 324.35 20 326 20L345.4 20C347.05 20 348.63 20.7 349.75 21.91C350.87 23.12 351.44 24.76 351.32 26.41L350.89 31.96C350.82 32.75 350.34 33.45 349.61 33.79L347.34 34.83L349.18 35.7C350 36.09 350.5 36.95 350.43 37.86L349.88 44.9L353.24 44.9C356.39 44.9 358.95 47.47 358.95 50.62C358.95 52.63 357.89 54.4 356.32 55.42L356.32 65.37C356.32 67.94 354.74 70.15 352.51 71.09L352.51 76.55C355.51 74.65 359.01 73.61 362.6 73.61C373 73.61 381.46 82.09 381.46 92.51C381.46 98.64 378.56 104.22 373.8 107.72C378.47 110.17 381.46 115.08 381.46 120.39ZM324.46 26.07L324.53 27.03L334.24 27.03C335.45 27.03 336.43 28.01 336.43 29.23C336.43 30.44 335.45 31.42 334.24 31.42L324.87 31.42L325.28 36.68L328.39 36.68C329.6 36.68 330.58 37.67 330.58 38.88C330.58 40.09 329.6 41.08 328.39 41.08L325.62 41.08L325.92 44.9L345.48 44.9L345.94 39.03L342.39 37.35C341.4 36.88 340.77 35.88 340.78 34.79C340.79 33.7 341.43 32.7 342.42 32.25L346.61 30.33L346.94 26.07C346.98 25.63 346.83 25.21 346.53 24.89C346.24 24.57 345.83 24.39 345.4 24.39L326 24.39C325.57 24.39 325.16 24.57 324.86 24.89C324.57 25.21 324.42 25.63 324.46 26.07ZM344.63 56.33L326.76 56.33L327.01 60.28L344.39 60.28L344.63 56.33ZM353.24 51.93C353.97 51.93 354.56 51.34 354.56 50.62C354.56 49.89 353.97 49.3 353.24 49.3L318.15 49.3C317.43 49.3 316.84 49.89 316.84 50.62C316.84 51.34 317.43 51.93 318.15 51.93L353.24 51.93Z" />
				<path id="Shape" fill-rule="evenodd" class="shp1" d="M373.1 92.39C373.1 98.29 368.29 103.1 362.39 103.1C356.48 103.1 351.67 98.29 351.67 92.39C351.67 86.48 356.48 81.67 362.39 81.67C368.29 81.67 373.1 86.48 373.1 92.39ZM368.7 92.39C368.7 88.91 365.87 86.08 362.39 86.08C358.91 86.08 356.08 88.91 356.08 92.39C356.08 95.87 358.91 98.7 362.39 98.7C365.87 98.7 368.7 95.87 368.7 92.39Z" />
				<path id="Shape" fill-rule="evenodd" class="shp8" d="M373.62 146.44L373.62 148.22C373.62 155.9 367.34 162.16 359.61 162.16L311.85 162.16C304.13 162.16 297.84 155.9 297.84 148.22L297.84 133.98C297.84 132.92 298.3 131.92 299.11 131.24C299.92 130.55 300.98 130.25 302.03 130.41L308.68 131.44C308.67 131.25 308.67 131.05 308.67 130.86C308.67 125.64 312.93 121.39 318.18 121.39C323.42 121.39 327.68 125.64 327.68 130.86C327.68 132.05 327.46 133.21 327.04 134.29L330.48 134.82C332.28 135.1 334.08 135.23 335.89 135.22C336.2 128.19 342.05 122.56 349.19 122.56C355.03 122.56 360.04 126.25 361.82 131.59L369.43 130.41C370.48 130.25 371.55 130.55 372.35 131.24C373.16 131.92 373.62 132.93 373.62 133.98L373.62 137.7C373.62 138.91 372.64 139.88 371.43 139.88C370.22 139.88 369.23 138.91 369.23 137.7L369.23 134.86L341.66 139.14C337.72 139.75 333.74 139.75 329.81 139.14L302.23 134.86L302.23 148.22C302.23 153.5 306.55 157.79 311.85 157.79L359.61 157.79C364.92 157.79 369.23 153.5 369.23 148.22L369.23 146.44C369.23 145.23 370.22 144.25 371.43 144.25C372.64 144.25 373.62 145.23 373.62 146.44ZM340.31 134.91C340.53 134.88 340.76 134.86 340.98 134.82L357.39 132.28C356.01 129.08 352.84 126.93 349.19 126.93C344.57 126.93 340.76 130.43 340.31 134.91ZM313.05 130.86C313.05 131.3 313.11 131.73 313.22 132.15L322.5 133.58C323.01 132.78 323.3 131.84 323.3 130.86C323.3 128.05 321 125.76 318.17 125.76C315.35 125.76 313.05 128.05 313.05 130.86Z" />
				<path id="Shape" fill-rule="evenodd" class="shp9" d="M338.08 109.63C338.08 113.81 334.68 117.21 330.51 117.21C326.33 117.21 322.93 113.81 322.93 109.63C322.93 105.46 326.33 102.06 330.51 102.06C334.68 102.06 338.08 105.46 338.08 109.63ZM333.63 109.63C333.63 107.91 332.23 106.51 330.51 106.51C328.78 106.51 327.38 107.91 327.38 109.63C327.38 111.35 328.78 112.75 330.51 112.75C332.23 112.75 333.63 111.35 333.63 109.63Z" />
				<path id="Shape" fill-rule="evenodd" class="shp10" d="M330.77 148.31C330.77 152.49 327.37 155.89 323.19 155.89C319.01 155.89 315.61 152.49 315.61 148.31C315.61 144.13 319.01 140.73 323.19 140.73C327.37 140.73 330.77 144.13 330.77 148.31ZM326.31 148.31C326.31 146.59 324.91 145.19 323.19 145.19C321.47 145.19 320.07 146.59 320.07 148.31C320.07 150.03 321.47 151.43 323.19 151.43C324.91 151.43 326.31 150.03 326.31 148.31Z" />
				<path id="Shape" fill-rule="evenodd" class="shp2" d="M345.4 83.76C345.4 88.37 341.65 92.13 337.04 92.13C332.43 92.13 328.68 88.37 328.68 83.76C328.68 79.15 332.43 75.4 337.04 75.4C341.65 75.4 345.4 79.15 345.4 83.76ZM341 83.76C341 81.58 339.22 79.8 337.04 79.8C334.85 79.8 333.08 81.58 333.08 83.76C333.08 85.95 334.85 87.72 337.04 87.72C339.22 87.72 341 85.95 341 83.76Z" />
			</g>
		</g>
		<g id="Doble Terminated Crystal">
			<path id="Spacing" class="shp6" d="M511 24L661 24L661 174L511 174L511 24Z" />
			<g id="Icon">
				<path id="Shape" fill-rule="evenodd" class="shp11" d="M623.31 58.09L623.31 131.91C623.31 132.69 623 133.44 622.45 133.98L587.23 169.14C586.68 169.69 585.93 170 585.15 170C584.37 170 583.63 169.69 583.08 169.14L547.86 133.98C547.31 133.44 547 132.69 547 131.91L547 58.09C547 56.47 548.31 55.16 549.93 55.16L565.87 55.16L574.85 37.35L570.69 41.51C569.54 42.66 567.68 42.66 566.54 41.51C565.39 40.37 565.39 38.52 566.54 37.37L583.08 20.86C583.63 20.31 584.37 20 585.15 20C585.93 20 586.68 20.31 587.23 20.86L622.45 56.02C623 56.57 623.31 57.31 623.31 58.09ZM617.44 61.02L605.7 61.02L605.7 105.28C605.7 106.89 604.38 108.21 602.76 108.21C601.14 108.21 599.83 106.89 599.83 105.28L599.83 61.02L570.48 61.02L570.48 128.98L617.44 128.98L617.44 61.02ZM557.02 134.84L574.85 152.65L565.87 134.84L557.02 134.84ZM585.15 160.03L597.86 134.84L572.44 134.84L585.15 160.03ZM595.45 152.65L613.29 134.84L604.44 134.84L595.45 152.65ZM613.29 55.16L595.45 37.35L604.43 55.16L613.29 55.16ZM572.44 55.16L597.86 55.16L585.15 29.97L572.44 55.16ZM552.87 61.02L552.87 128.98L564.61 128.98L564.61 61.02L552.87 61.02Z" />
				<path id="Path" class="shp12" d="M559.28 51.88C560.06 51.88 560.84 51.56 561.41 50.94L561.41 50.94C562.48 49.76 562.39 47.95 561.22 46.88C560.04 45.81 558.22 45.9 557.16 47.07C556.09 48.25 556.17 50.07 557.35 51.13C557.9 51.63 558.59 51.88 559.28 51.88Z" />
				<path id="Path" class="shp12" d="M602.66 115.64C601.07 115.64 599.79 116.93 599.79 118.52C599.79 120.11 601.07 121.39 602.66 121.39C604.25 121.39 605.54 120.11 605.54 118.52L605.54 118.52C605.54 116.93 604.25 115.64 602.66 115.64Z" />
			</g>
		</g>
		<g id="Castle">
			<path id="Spacing" class="shp6" d="M761 20L911 20L911 170L761 170L761 20Z" />
			<g id="Icon">
				<path id="Path" class="shp5" d="M891 125C889.62 125 888.5 126.12 888.5 127.5L888.5 132.5C888.5 133.88 889.62 135 891 135C892.38 135 893.5 133.88 893.5 132.5L893.5 127.5C893.5 126.12 892.38 125 891 125Z" />
				<path id="Path" class="shp13" d="M822.38 64.74C823.62 65.36 825.12 64.85 825.74 63.62L833.5 48.09L833.5 62.5C833.5 63.88 834.62 65 836 65C837.38 65 838.5 63.88 838.5 62.5L838.5 48.09L846.26 63.62C846.7 64.5 847.58 65 848.5 65C848.88 65 849.26 64.92 849.62 64.74C850.85 64.12 851.36 62.62 850.74 61.38L838.5 36.91L838.5 25L851 25L851 30L843.5 30C842.12 30 841 31.12 841 32.5C841 33.88 842.12 35 843.5 35L853.5 35C854.88 35 856 33.88 856 32.5L856 22.5C856 21.12 854.88 20 853.5 20L836 20C834.62 20 833.5 21.12 833.5 22.5L833.5 36.91L821.26 61.38C820.64 62.62 821.15 64.12 822.38 64.74Z" />
				<path id="Path" class="shp2" d="M848.5 100C849.88 100 851 98.88 851 97.5L851 75L853.5 75C854.88 75 856 73.88 856 72.5C856 71.12 854.88 70 853.5 70L818.5 70C817.12 70 816 71.12 816 72.5C816 73.88 817.12 75 818.5 75L821 75L821 97.5C821 98.88 822.12 100 823.5 100C824.88 100 826 98.88 826 97.5L826 75L846 75L846 97.5C846 98.88 847.12 100 848.5 100Z" />
				<path id="Path" class="shp5" d="M833.5 87.5L833.5 92.5C833.5 93.88 834.62 95 836 95C837.38 95 838.5 93.88 838.5 92.5L838.5 87.5C838.5 86.12 837.38 85 836 85C834.62 85 833.5 86.12 833.5 87.5Z" />
				<path id="Path" class="shp2" d="M873.5 95L876 95L876 97.5C876 98.88 877.12 100 878.5 100C879.88 100 881 98.88 881 97.5L881 95L901 95L901 145C901 146.38 902.12 147.5 903.5 147.5C904.88 147.5 906 146.38 906 145L906 95L908.5 95C909.88 95 911 93.88 911 92.5C911 91.12 909.88 90 908.5 90L873.5 90C872.12 90 871 91.12 871 92.5C871 93.88 872.12 95 873.5 95Z" />
				<path id="Path" class="shp14" d="M881 45C881 46.38 882.12 47.5 883.5 47.5C884.88 47.5 886 46.38 886 45C887.38 45 888.5 43.88 888.5 42.5C888.5 41.12 887.38 40 886 40C886 38.62 884.88 37.5 883.5 37.5C882.12 37.5 881 38.62 881 40C879.62 40 878.5 41.12 878.5 42.5C878.5 43.88 879.62 45 881 45Z" />
				<path id="Path" class="shp13" d="M877.38 84.74C878.62 85.36 880.12 84.85 880.74 83.62L888.5 68.09L888.5 82.5C888.5 83.88 889.62 85 891 85C892.38 85 893.5 83.88 893.5 82.5L893.5 68.09L901.26 83.62C901.7 84.5 902.58 85 903.5 85C903.88 85 904.26 84.92 904.62 84.74C905.85 84.12 906.35 82.62 905.74 81.38L893.24 56.38C893.13 56.17 892.99 55.98 892.82 55.82C892.37 55.32 891.73 55 891 55C890.27 55 889.63 55.32 889.18 55.82C889.01 55.98 888.87 56.17 888.76 56.38L876.26 81.38C875.65 82.62 876.15 84.12 877.38 84.74Z" />
				<path id="Shape" fill-rule="evenodd" class="shp5" d="M851 145L851 167.5C851 168.88 849.88 170 848.5 170L823.5 170C822.12 170 821 168.88 821 167.5L821 145C821 136.73 827.73 130 836 130C844.27 130 851 136.73 851 145ZM846 160L826 160L826 165L846 165L846 160ZM846 150L826 150L826 155L846 155L846 150ZM846 145C846 139.49 841.52 135 836 135C830.49 135 826 139.48 826 145L846 145Z" />
				<path id="Path" class="shp5" d="M893.5 107.5C893.5 106.12 892.38 105 891 105C889.62 105 888.5 106.12 888.5 107.5L888.5 112.5C888.5 113.88 889.62 115 891 115C892.38 115 893.5 113.88 893.5 112.5L893.5 107.5Z" />
				<path id="Path" class="shp14" d="M811 27.5C811 28.88 812.12 30 813.5 30C814.88 30 816 28.88 816 27.5C817.38 27.5 818.5 26.38 818.5 25C818.5 23.62 817.38 22.5 816 22.5C816 21.12 814.88 20 813.5 20C812.12 20 811 21.12 811 22.5C809.62 22.5 808.5 23.62 808.5 25C808.5 26.38 809.62 27.5 811 27.5Z" />
				<path id="Path" class="shp5" d="M781 125C779.62 125 778.5 126.12 778.5 127.5L778.5 132.5C778.5 133.88 779.62 135 781 135C782.38 135 783.5 133.88 783.5 132.5L783.5 127.5C783.5 126.12 782.38 125 781 125Z" />
				<path id="Shape" fill-rule="evenodd" class="shp1" d="M816 157.5L816 167.5C816 168.88 814.88 170 813.5 170L763.5 170C762.12 170 761 168.88 761 167.5L761 157.5C761 154.74 763.24 152.5 766 152.5C766.91 152.5 767.76 152.75 768.5 153.17C769.97 152.32 772.03 152.32 773.5 153.17C774.97 152.32 777.03 152.32 778.5 153.17C779.97 152.32 782.03 152.32 783.5 153.17C784.97 152.32 787.03 152.32 788.5 153.17C789.97 152.32 792.03 152.32 793.5 153.17C794.97 152.32 797.03 152.32 798.5 153.17C799.97 152.32 802.03 152.32 803.5 153.17C804.97 152.32 807.03 152.32 808.5 153.17C809.23 152.75 810.09 152.5 811 152.5C813.76 152.5 816 154.74 816 157.5ZM811 165L811 157.5C811 158.88 809.88 160 808.5 160C807.12 160 806 158.88 806 157.5C806 158.88 804.88 160 803.5 160C802.12 160 801 158.88 801 157.5C801 158.88 799.88 160 798.5 160C797.12 160 796 158.88 796 157.5C796 158.88 794.88 160 793.5 160C792.12 160 791 158.88 791 157.5C791 158.88 789.88 160 788.5 160C787.12 160 786 158.88 786 157.5C786 158.88 784.88 160 783.5 160C782.12 160 781 158.88 781 157.5C781 158.88 779.88 160 778.5 160C777.12 160 776 158.88 776 157.5C776 158.88 774.88 160 773.5 160C772.12 160 771 158.88 771 157.5C771 158.88 769.88 160 768.5 160C767.12 160 766 158.88 766 157.5L766 165L811 165Z" />
				<path id="Shape" fill-rule="evenodd" class="shp1" d="M911 157.5L911 167.5C911 168.88 909.88 170 908.5 170L858.5 170C857.12 170 856 168.88 856 167.5L856 157.5C856 154.74 858.24 152.5 861 152.5C861.91 152.5 862.76 152.75 863.5 153.17C864.97 152.32 867.03 152.32 868.5 153.17C869.97 152.32 872.03 152.32 873.5 153.17C874.97 152.32 877.03 152.32 878.5 153.17C879.97 152.32 882.03 152.32 883.5 153.17C884.97 152.32 887.03 152.32 888.5 153.17C889.97 152.32 892.03 152.32 893.5 153.17C894.97 152.32 897.03 152.32 898.5 153.17C899.97 152.32 902.03 152.32 903.5 153.17C904.23 152.75 905.09 152.5 906 152.5C908.76 152.5 911 154.74 911 157.5ZM906 165L906 157.5C906 158.88 904.88 160 903.5 160C902.12 160 901 158.88 901 157.5C901 158.88 899.88 160 898.5 160C897.12 160 896 158.88 896 157.5C896 158.88 894.88 160 893.5 160C892.12 160 891 158.88 891 157.5C891 158.88 889.88 160 888.5 160C887.12 160 886 158.88 886 157.5C886 158.88 884.88 160 883.5 160C882.12 160 881 158.88 881 157.5C881 158.88 879.88 160 878.5 160C877.12 160 876 158.88 876 157.5C876 158.88 874.88 160 873.5 160C872.12 160 871 158.88 871 157.5C871 158.88 869.88 160 868.5 160C867.12 160 866 158.88 866 157.5C866 158.88 864.88 160 863.5 160C862.12 160 861 158.88 861 157.5L861 165L906 165Z" />
				<path id="Path" class="shp13" d="M767.38 84.74C768.62 85.36 770.12 84.85 770.74 83.62L778.5 68.09L778.5 82.5C778.5 83.88 779.62 85 781 85C782.38 85 783.5 83.88 783.5 82.5L783.5 68.09L791.26 83.62C791.7 84.5 792.58 85 793.5 85C793.88 85 794.26 84.92 794.62 84.74C795.85 84.12 796.36 82.62 795.74 81.38L783.24 56.38C783.13 56.17 782.99 55.98 782.82 55.82C782.37 55.32 781.73 55 781 55C780.27 55 779.63 55.32 779.18 55.82C779.01 55.98 778.87 56.17 778.76 56.38L766.26 81.38C765.65 82.62 766.15 84.12 767.38 84.74Z" />
				<path id="Path" class="shp8" d="M871 117.5L871 110L876 110L876 145C876 146.38 877.12 147.5 878.5 147.5C879.88 147.5 881 146.38 881 145L881 107.5C881 106.12 879.88 105 878.5 105L868.5 105C867.12 105 866 106.12 866 107.5L866 115L856 115L856 107.5C856 106.12 854.88 105 853.5 105L843.5 105C842.12 105 841 106.12 841 107.5L841 115L831 115L831 107.5C831 106.12 829.88 105 828.5 105L818.5 105C817.12 105 816 106.12 816 107.5L816 115L806 115L806 107.5C806 106.12 804.88 105 803.5 105L793.5 105C792.12 105 791 106.12 791 107.5L791 145C791 146.38 792.12 147.5 793.5 147.5C794.88 147.5 796 146.38 796 145L796 110L801 110L801 117.5C801 118.88 802.12 120 803.5 120L818.5 120C819.88 120 821 118.88 821 117.5L821 110L826 110L826 117.5C826 118.88 827.12 120 828.5 120L843.5 120C844.88 120 846 118.88 846 117.5L846 110L851 110L851 117.5C851 118.88 852.12 120 853.5 120L868.5 120C869.88 120 871 118.88 871 117.5Z" />
				<path id="Path" class="shp14" d="M763.5 35L766 35L766 37.5C766 38.88 767.12 40 768.5 40C769.88 40 771 38.88 771 37.5L771 35L773.5 35C774.88 35 776 33.88 776 32.5C776 31.12 774.88 30 773.5 30L771 30L771 27.5C771 26.12 769.88 25 768.5 25C767.12 25 766 26.12 766 27.5L766 30L763.5 30C762.12 30 761 31.12 761 32.5C761 33.88 762.12 35 763.5 35Z" />
				<path id="Path" class="shp2" d="M763.5 95L766 95L766 147.5C766 148.88 767.12 150 768.5 150C769.88 150 771 148.88 771 147.5L771 95L791 95L791 97.5C791 98.88 792.12 100 793.5 100C794.88 100 796 98.88 796 97.5L796 95L798.5 95C799.88 95 801 93.88 801 92.5C801 91.12 799.88 90 798.5 90L763.5 90C762.12 90 761 91.12 761 92.5C761 93.88 762.12 95 763.5 95Z" />
				<path id="Path" class="shp5" d="M783.5 107.5C783.5 106.12 782.38 105 781 105C779.62 105 778.5 106.12 778.5 107.5L778.5 112.5C778.5 113.88 779.62 115 781 115C782.38 115 783.5 113.88 783.5 112.5L783.5 107.5Z" />
			</g>
		</g>
		<g id="Crown">
			<path id="Spacing" class="shp6" d="M1011 20L1161 20L1161 170L1011 170L1011 20Z" />
			<g id="Icon">
				<path id="Shape" fill-rule="evenodd" class="shp15" d="M1154.63 100.06C1158.36 101.49 1161 105.85 1161 111.14C1161 117.64 1157.03 122.72 1151.97 122.72C1151.13 122.72 1150.3 122.58 1149.51 122.3L1148.5 126.67C1150.36 127.26 1151.71 129.01 1151.71 131.06L1151.71 135.04C1151.71 137.58 1149.64 139.65 1147.1 139.65L1123.57 139.65C1122.35 139.65 1121.37 138.66 1121.37 137.45C1121.37 136.23 1122.35 135.25 1123.57 135.25L1147.1 135.25C1147.22 135.25 1147.31 135.15 1147.31 135.04L1147.31 131.06C1147.31 130.95 1147.22 130.85 1147.1 130.85L1024.9 130.85C1024.78 130.85 1024.69 130.95 1024.69 131.06L1024.69 135.04C1024.69 135.15 1024.78 135.25 1024.9 135.25L1114.01 135.25C1115.23 135.25 1116.21 136.23 1116.21 137.45C1116.21 138.66 1115.23 139.65 1114.01 139.65L1024.9 139.65C1022.36 139.65 1020.29 137.58 1020.29 135.04L1020.29 131.06C1020.29 129.01 1021.64 127.26 1023.5 126.67L1022.49 122.3C1021.7 122.58 1020.87 122.72 1020.03 122.72C1014.96 122.72 1011 117.64 1011 111.14C1011 105.85 1013.64 101.49 1017.37 100.06L1014.18 86.24C1013.51 83.32 1016.93 81.19 1019.23 83.12C1021.22 84.79 1024.32 87.02 1027.75 88.16C1030.24 88.98 1032.05 90.8 1032.83 93.29C1033.71 96.05 1033.18 99.42 1031.51 101.66C1030.61 102.88 1030.8 104.5 1031.95 105.36C1033.23 106.31 1034.84 106.8 1036.72 106.8C1039.98 106.8 1041.76 99.65 1042.13 92.46C1039 92.77 1036.43 91.74 1034.94 89.53C1032.88 86.45 1035.91 80.51 1042.82 68.61C1044.59 65.56 1046.27 62.68 1047.25 60.66C1047.72 59.68 1048.64 59.03 1049.71 58.91C1050.79 58.79 1051.83 59.23 1052.5 60.07C1054.95 63.16 1060.65 71.19 1060.65 79.13C1060.65 81.97 1060.95 85.27 1061.5 88.41C1061.7 89.61 1060.9 90.74 1059.71 90.95C1058.51 91.16 1057.37 90.36 1057.17 89.16C1056.58 85.78 1056.25 82.22 1056.25 79.13C1056.25 73.58 1052.52 67.55 1050.26 64.41C1049.26 66.29 1047.97 68.51 1046.62 70.82C1045.06 73.5 1038.57 84.36 1038.69 87.21C1039.65 88.42 1041.69 88.16 1042.85 87.89C1044.79 87.43 1046.63 88.92 1046.59 90.91C1046.45 97.01 1045.21 111.2 1036.72 111.2C1033.87 111.2 1031.38 110.42 1029.33 108.89C1026.25 106.6 1025.65 102.18 1027.98 99.04C1028.7 98.07 1029.16 96.24 1028.64 94.62C1028.28 93.48 1027.52 92.71 1026.37 92.33C1023.71 91.45 1021.26 90.06 1019.25 88.66L1026.09 118.33C1026.09 118.34 1026.09 118.34 1026.09 118.35L1027.96 126.45L1144.04 126.45L1145.91 118.35C1145.91 118.34 1145.91 118.34 1145.91 118.33L1152.75 88.66C1150.74 90.06 1148.29 91.45 1145.63 92.33C1144.48 92.71 1143.72 93.48 1143.36 94.62C1142.84 96.24 1143.3 98.07 1144.02 99.04C1146.35 102.18 1145.75 106.6 1142.67 108.89C1140.62 110.42 1138.13 111.2 1135.28 111.2C1126.79 111.2 1125.55 97.01 1125.42 90.91C1125.37 88.92 1127.21 87.43 1129.15 87.89C1130.31 88.16 1132.35 88.42 1133.32 87.2C1133.34 86.74 1133.14 84.87 1129.91 78.82C1129.33 77.75 1129.74 76.42 1130.81 75.84C1131.88 75.27 1133.21 75.68 1133.78 76.75C1137.61 83.92 1138.5 87.38 1137.06 89.53C1135.57 91.74 1133.01 92.76 1129.87 92.46C1130.24 99.65 1132.02 106.8 1135.28 106.8C1137.16 106.8 1138.77 106.31 1140.05 105.36C1141.2 104.5 1141.39 102.88 1140.49 101.66C1138.83 99.42 1138.29 96.05 1139.17 93.29C1139.95 90.8 1141.76 88.98 1144.25 88.16C1147.68 87.02 1150.78 84.79 1152.77 83.12C1155.07 81.2 1158.49 83.32 1157.82 86.24L1154.63 100.06ZM1020.03 118.32C1020.58 118.32 1021.07 118.16 1021.49 117.94L1018.38 104.46C1016.65 105.51 1015.39 108.15 1015.39 111.14C1015.39 115.04 1017.52 118.32 1020.03 118.32ZM1151.97 118.32C1154.48 118.32 1156.61 115.04 1156.61 111.14C1156.61 108.15 1155.35 105.51 1153.62 104.46L1150.51 117.94C1150.93 118.16 1151.42 118.32 1151.97 118.32Z" />
				<path id="Path" class="shp16" d="M1059.89 98.85C1061.46 102.41 1063.41 104.44 1065.69 104.87C1068.75 105.46 1072.02 103.92 1074.45 101.9C1078.74 98.35 1081.3 92.76 1081.3 86.94L1081.3 82.78C1081.3 80.18 1078.45 78.58 1076.24 79.93C1075.56 80.35 1074.58 80.57 1073.42 80.57C1070.51 80.57 1068.57 79.67 1068.57 75.31C1068.57 75.02 1068.8 73.32 1073.21 68.3C1076.15 64.96 1079.98 61.22 1083.05 58.22C1084.14 57.17 1085.12 56.21 1086 55.33C1086.88 56.21 1087.87 57.17 1088.96 58.23C1092.03 61.23 1095.86 64.96 1098.79 68.3C1103.2 73.32 1103.43 75.02 1103.43 75.31C1103.43 79.67 1101.49 80.57 1098.58 80.57C1097.4 80.57 1096.45 80.35 1095.76 79.93C1093.54 78.58 1090.7 80.18 1090.7 82.78L1090.7 86.94C1090.7 92.76 1093.26 98.35 1097.55 101.9C1100.45 104.3 1103.64 105.39 1106.32 104.87C1113.37 103.52 1115.75 86.62 1115.75 79.13C1115.75 73.58 1119.48 67.55 1121.74 64.41C1122.73 66.27 1124 68.45 1125.32 70.73C1125.93 71.78 1127.28 72.13 1128.33 71.52C1129.38 70.91 1129.73 69.57 1129.12 68.52C1127.38 65.51 1125.73 62.68 1124.75 60.66C1124.28 59.68 1123.36 59.03 1122.29 58.91C1121.21 58.79 1120.17 59.23 1119.5 60.08C1117.05 63.16 1111.35 71.19 1111.35 79.13C1111.35 83.67 1110.6 89.15 1109.38 93.42C1107.85 98.77 1106.16 100.42 1105.49 100.55C1104.49 100.75 1102.54 100.33 1100.35 98.51C1097.06 95.79 1095.1 91.47 1095.1 86.94L1095.1 84.44C1096.14 84.79 1097.3 84.97 1098.58 84.97C1104.54 84.97 1107.82 81.53 1107.82 75.31C1107.82 70.84 1100.97 63.81 1092.02 55.08C1087.96 51.13 1087.93 51.03 1087.56 50.65C1087.15 50.23 1086.59 50 1086 50C1085.42 50 1084.85 50.23 1084.44 50.65C1083.93 51.17 1083.95 51.21 1079.99 55.07C1071.03 63.81 1064.18 70.84 1064.18 75.31C1064.18 81.54 1067.46 84.97 1073.42 84.97C1074.7 84.97 1075.86 84.79 1076.9 84.44L1076.9 86.94C1076.9 91.47 1074.94 95.79 1071.65 98.51C1069.46 100.33 1067.51 100.75 1066.51 100.55C1066.39 100.53 1065.31 100.24 1063.91 97.07C1063.42 95.96 1062.13 95.46 1061.02 95.95C1059.91 96.44 1059.4 97.74 1059.89 98.85L1059.89 98.85Z" />
				<path id="Shape" fill-rule="evenodd" class="shp17" d="M1086 98.27C1091.06 98.27 1095.17 103.47 1095.17 109.85C1095.17 116.24 1091.06 121.43 1086 121.43C1080.94 121.43 1076.83 116.24 1076.83 109.85C1076.83 103.47 1080.94 98.27 1086 98.27ZM1081.23 109.85C1081.23 113.74 1083.41 117.03 1086 117.03C1088.59 117.03 1090.77 113.74 1090.77 109.85C1090.77 105.96 1088.59 102.67 1086 102.67C1083.41 102.67 1081.23 105.96 1081.23 109.85Z" />
				<path id="Shape" fill-rule="evenodd" class="shp4" d="M1086 78.65C1082.16 78.65 1079.16 74.87 1079.16 70.04C1079.16 65.21 1082.16 61.43 1086 61.43C1089.84 61.43 1092.84 65.21 1092.84 70.04C1092.84 74.87 1089.84 78.65 1086 78.65ZM1083.55 70.04C1083.55 72.45 1084.84 74.25 1086 74.25C1087.16 74.25 1088.45 72.45 1088.45 70.04C1088.45 67.63 1087.16 65.83 1086 65.83C1084.84 65.83 1083.55 67.63 1083.55 70.04Z" />
			</g>
		</g>
		<text id="Fantasy Icon Set" style="transform: matrix(1,0,0,1,11,-614)" >
			<tspan x="0" y="0" class="txt18">Fantasy Icon Set</tspan>
		</text>
		<g id="Color Pallet">
			<path id="Oval" class="shp2" d="M951 -632C959.28 -632 966 -638.72 966 -647C966 -655.28 959.28 -662 951 -662C942.72 -662 936 -655.28 936 -647C936 -638.72 942.72 -632 951 -632Z" />
			<path id="Oval" class="shp1" d="M871 -632C879.28 -632 886 -638.72 886 -647C886 -655.28 879.28 -662 871 -662C862.72 -662 856 -655.28 856 -647C856 -638.72 862.72 -632 871 -632Z" />
			<path id="Oval" class="shp7" d="M911 -632C919.28 -632 926 -638.72 926 -647C926 -655.28 919.28 -662 911 -662C902.72 -662 896 -655.28 896 -647C896 -638.72 902.72 -632 911 -632Z" />
			<path id="Oval" class="shp0" d="M1031 -632C1039.28 -632 1046 -638.72 1046 -647C1046 -655.28 1039.28 -662 1031 -662C1022.72 -662 1016 -655.28 1016 -647C1016 -638.72 1022.72 -632 1031 -632Z" />
			<path id="Oval" class="shp13" d="M991 -632C999.28 -632 1006 -638.72 1006 -647C1006 -655.28 999.28 -662 991 -662C982.72 -662 976 -655.28 976 -647C976 -638.72 982.72 -632 991 -632Z" />
			<path id="Oval" class="shp8" d="M831 -632C839.28 -632 846 -638.72 846 -647C846 -655.28 839.28 -662 831 -662C822.72 -662 816 -655.28 816 -647C816 -638.72 822.72 -632 831 -632Z" />
			<path id="Oval" class="shp19" d="M1111 -632C1119.28 -632 1126 -638.72 1126 -647C1126 -655.28 1119.28 -662 1111 -662C1102.72 -662 1096 -655.28 1096 -647C1096 -638.72 1102.72 -632 1111 -632Z" />
			<path id="Oval" class="shp4" d="M1071 -632C1079.28 -632 1086 -638.72 1086 -647C1086 -655.28 1079.28 -662 1071 -662C1062.72 -662 1056 -655.28 1056 -647C1056 -638.72 1062.72 -632 1071 -632Z" />
		</g>
	</g>
</svg>