<svg xmlns="http://www.w3.org/2000/svg" viewBox="0 0 175 175" width="175" height="175">
	<defs>
		<clipPath clipPathUnits="userSpaceOnUse" id="cp1">
			<path d="M-211 -373L1389 -373L1389 827L-211 827Z" />
		</clipPath>
	</defs>
	<style>
		tspan { white-space:pre }
		.shp0 { fill: #ffffff } 
		.shp1 { fill: #ac4eff } 
		.shp2 { fill: #e463ff } 
		.shp3 { fill: #f8e71c } 
		.shp4 { fill: #23f5a5 } 
		.shp5 { fill: #8a64ff } 
		.shp6 { fill: #f831e3 } 
		.shp7 { fill: #c713ef } 
		.shp8 { fill: #5b90ff } 
		.shp9 { fill: #fff35a } 
		.shp10 { fill: #a0fff5 } 
		.shp11 { fill: #ff008b } 
		.shp12 { fill: #ff8edf } 
		.shp13 { fill: #9013fe } 
		.shp14 { fill: #bfdcff } 
		.shp15 { fill: #bd10e0 } 
		.shp16 { fill: #27cedb } 
		.shp17 { fill: #4a90e2 } 
		.shp18 { fill: #6c66ff } 
		.shp19 { fill: #a254ff } 
		.shp20 { fill: #e64ad1 } 
		.shp21 { fill: #ff68f0 } 
		.shp22 { fill: #ff00b6 } 
		.shp23 { fill: #bf00ff } 
		.shp24 { fill: #ff0076 } 
		.shp25 { fill: #50e3c2 } 
		.shp26 { fill: #ff00f5 } 
		.shp27 { fill: #50e38c } 
		.shp28 { fill: #6fd6d9 } 
		.shp29 { fill: #e800ff } 
		.shp30 { fill: #ff0053 } 
		.shp31 { fill: #3c57ff } 
		.shp32 { fill: #0f7cfa } 
		.shp33 { fill: #00ffc6 } 
		.shp34 { fill: #4ef5ff } 
		.shp35 { fill: #2aa7ff } 
		.shp36 { fill: #9210e0 } 
		.shp37 { fill: #ff008f } 
		.shp38 { fill: #f59b23 } 
		.shp39 { fill: #f5c823 } 
		.shp40 { fill: #ffa7e6 } 
		.shp41 { fill: #ffcb74 } 
		.shp42 { fill: #fff683 } 
		.shp43 { fill: #ff0082 } 
		.txt44 { font-size: 100px;fill: #ffffff;font-family: "Leckerli One";font-weight: 400 } 
		.shp45 { fill: #f8c61c } 
	</style>
	<g id="Dribbble Shot" clip-path="url(#cp1)">
		<g id="Wizard Hat">
			<path id="Spacing" class="shp0" d="M764 267L914 267L914 417L764 417L764 267Z" />
			<g id="Icon">
				<path id="Shape" fill-rule="evenodd" class="shp1" d="M913.43 394.81C913.43 399.17 909.92 403.12 903.01 406.52C902.69 406.68 902.36 406.75 902.03 406.75C901.21 406.75 900.43 406.31 900.05 405.53C899.5 404.45 899.95 403.13 901.04 402.59C906.18 400.06 909 397.29 909 394.81C909 391.39 903.45 386.46 888.15 382.45L890 386.91C890.28 387.58 890.2 388.35 889.8 388.96C889.4 389.56 879.49 403.76 838.71 403.76C797.94 403.76 788.03 389.56 787.63 388.96C787.23 388.35 787.15 387.58 787.43 386.91L789.28 382.46C783.21 384.05 778.17 385.94 774.57 387.98C772.27 389.29 768.42 391.9 768.42 394.81C768.42 399.68 778.56 404.21 788.04 406.83C801.55 410.55 819.54 412.61 838.71 412.61C858.51 412.61 877.6 410.33 891.07 406.35C892.24 406 893.47 406.67 893.82 407.83C894.17 408.99 893.5 410.22 892.33 410.56C878.26 414.71 859.22 417 838.71 417C802.49 417 764 409.22 764 394.81C764 390.9 766.82 387.32 772.38 384.17C777.01 381.54 783.4 379.27 791.38 377.41L812.58 326.37C813.04 325.25 814.34 324.72 815.47 325.18C816.6 325.64 817.13 326.93 816.67 328.05L800.38 367.27C807.22 370.43 819.12 373.8 838.71 373.8C858.31 373.8 870.2 370.43 877.05 367.27L873.51 358.74C872.42 356.12 876.51 354.45 877.6 357.06L886.05 377.41C886.07 377.41 886.08 377.41 886.1 377.42C894.27 379.33 900.76 381.67 905.4 384.37C910.73 387.47 913.43 390.99 913.43 394.81ZM885.39 387.35L878.74 371.33C866.43 376.97 850.35 378.2 838.71 378.2C827.08 378.2 811 376.97 798.69 371.33L792.03 387.35C793.16 388.5 795.72 390.7 800.51 392.9C812.17 398.25 827.72 399.37 838.71 399.37C858.99 399.37 870.94 395.73 877.4 392.67C881.91 390.54 884.32 388.46 885.39 387.35Z" />
				<path id="Path" class="shp2" d="M890.01 313.87L865.1 268.15C864.71 267.44 863.96 267 863.15 267L838.76 267C837.86 267 837.05 267.54 836.71 268.36L816.78 316.39C816.32 317.51 816.86 318.8 817.98 319.26C819.11 319.72 820.41 319.19 820.87 318.06L840.24 271.4L861.84 271.4L881.35 307.21L858.75 290.5L860.31 289.02C861.2 288.18 861.23 286.79 860.39 285.91C859.55 285.03 858.15 285 857.26 285.83L850.69 292.2L847.93 285.54C847.46 284.42 846.17 283.88 845.04 284.35C843.91 284.81 843.37 286.1 843.84 287.22L869.39 348.79C870.48 351.4 874.57 349.73 873.48 347.11L852.52 296.6L855.54 293.61L886.75 316.68C887.58 317.3 888.73 317.25 889.51 316.58C890.3 315.9 890.5 314.77 890.01 313.87Z" />
				<path id="Shape" fill-rule="evenodd" class="shp3" d="M853.3 346.54L847.88 351.73L849.16 359.06C849.46 360.8 847.53 362.18 845.94 361.35L839.23 357.9L832.53 361.35C830.93 362.18 829 360.8 829.31 359.06L830.59 351.73L825.16 346.54C823.87 345.3 824.61 343.08 826.39 342.83L833.89 341.76L837.24 335.09C838.04 333.5 840.43 333.5 841.22 335.09L844.58 341.76L852.07 342.83C852.91 342.94 853.6 343.52 853.86 344.31C854.12 345.1 853.91 345.96 853.3 346.54ZM846.98 346.5L842.78 345.9C842.06 345.8 841.43 345.36 841.11 344.71L839.23 340.98L837.35 344.71C837.03 345.36 836.41 345.8 835.68 345.9L831.48 346.5L834.52 349.41C835.05 349.91 835.28 350.63 835.16 351.34L834.44 355.44L838.2 353.5C838.85 353.17 839.62 353.17 840.27 353.5L844.02 355.44L843.3 351.34C843.18 350.63 843.42 349.91 843.94 349.41L846.98 346.5Z" />
			</g>
		</g>
		<g id="Sparkle Smoke">
			<path id="Spacing" class="shp0" d="M514 267L664 267L664 417L514 417L514 267Z" />
			<g id="Icon">
				<path id="Path" class="shp4" d="M627.52 380.02C626.21 380.02 625.16 381.02 625.16 382.26L625.16 388.2C625.16 389.43 626.21 390.44 627.52 390.44C628.82 390.44 629.88 389.43 629.88 388.2L629.88 382.26C629.88 381.02 628.82 380.02 627.52 380.02Z" />
				<path id="Path" class="shp4" d="M627.52 396.17C626.21 396.17 625.16 397.17 625.16 398.41L625.16 404.34C625.16 405.58 626.21 406.58 627.52 406.58C628.82 406.58 629.88 405.58 629.88 404.34L629.88 398.41C629.88 397.17 628.82 396.17 627.52 396.17Z" />
				<path id="Path" class="shp4" d="M638.63 390.96L632.66 390.96C631.41 390.96 630.4 392.01 630.4 393.3C630.4 394.6 631.41 395.65 632.66 395.65L638.63 395.65C639.88 395.65 640.89 394.6 640.89 393.3C640.89 392.01 639.88 390.96 638.63 390.96Z" />
				<path id="Path" class="shp4" d="M622.9 390.96L616.93 390.96C615.68 390.96 614.67 392.01 614.67 393.3C614.67 394.6 615.68 395.65 616.93 395.65L622.9 395.65C624.15 395.65 625.16 394.6 625.16 393.3C625.16 392.01 624.15 390.96 622.9 390.96Z" />
				<path id="Path" class="shp5" d="M618.65 325.82C617.45 325.57 616.27 326.35 616.02 327.55C615.18 331.58 612.47 334.64 607.48 337.2C605.72 338.09 603.74 338.89 601.64 339.6C602.42 338.19 603.02 336.56 603.42 334.65C604.43 329.74 603.46 325.81 600.54 322.97C596.94 319.47 590.53 317.93 581.48 318.4C575.3 318.72 570.07 319.87 569.43 320.01C562.29 321.28 556.18 321.81 550.92 321.81C529.6 321.81 522.52 313.03 520.31 308.56C518.3 304.51 517.93 299.8 519.24 294.95C520.54 290.15 523.47 285.48 527.49 281.81C528.4 280.98 528.46 279.57 527.63 278.66C526.8 277.75 525.39 277.69 524.48 278.52C519.83 282.76 516.44 288.18 514.93 293.79C513.33 299.7 513.8 305.49 516.3 310.53C519.43 316.86 525.56 321.53 534.02 324.04C543.51 326.86 555.7 326.98 570.26 324.39C570.3 324.38 570.34 324.37 570.38 324.37C576.04 323.06 591.95 320.83 597.43 326.16C599.21 327.89 599.74 330.38 599.04 333.75C597.6 340.75 592.58 343.48 580.53 343.8C579.3 343.83 578.32 344.85 578.36 346.08C578.39 347.29 579.38 348.25 580.59 348.25C580.61 348.25 580.63 348.25 580.65 348.25C584.25 348.15 587.81 347.87 591.01 347.07C604.81 344.01 618.04 339.85 620.39 328.45C620.64 327.24 619.86 326.07 618.65 325.82Z" />
				<path id="Path" class="shp6" d="M622.16 299C616.24 298.24 609.63 297.86 602.51 297.86C596.07 297.86 589.64 298.33 583.42 298.79C575.12 299.4 566.6 300.03 561.88 298.91C561.75 298.86 561.62 298.83 561.47 298.8C560.23 298.46 559.28 297.98 558.73 297.32C558.49 297.04 557.78 296.19 558.44 293.71C560.55 285.8 571.02 282.1 579.43 280.38C589.01 278.43 598.19 278.57 598.28 278.58C599.35 278.59 600.3 277.85 600.52 276.81C600.74 275.76 600.17 274.71 599.18 274.3C598.79 274.14 589.6 270.42 576.87 268.33C565.03 266.39 547.81 265.61 533.07 272.87C531.96 273.42 531.51 274.75 532.06 275.85C532.61 276.95 533.96 277.4 535.07 276.85C548.7 270.13 564.88 270.88 576.04 272.7C579.74 273.3 583.15 274.06 586.11 274.82C574.17 276.21 557.37 280.35 554.1 292.58C553.67 294.19 553.57 295.66 553.81 296.97C549.82 295.22 546.56 291.88 546.56 285.28C546.56 284.05 545.55 283.06 544.32 283.06C543.08 283.06 542.08 284.05 542.08 285.28C542.08 298.34 552.25 302.23 560.82 303.2C563.16 303.77 566.01 303.98 569.25 303.98C573.49 303.98 578.4 303.62 583.76 303.22C589.89 302.77 596.23 302.3 602.51 302.3C609.44 302.3 615.86 302.67 621.58 303.41C622.8 303.56 623.93 302.71 624.09 301.49C624.25 300.27 623.38 299.16 622.16 299Z" />
				<path id="Path" class="shp7" d="M660.03 318.34C657.19 313.51 652.81 309.47 647.01 306.33C645.93 305.75 644.57 306.15 643.99 307.22C643.4 308.3 643.8 309.65 644.88 310.23C654.58 315.47 659.49 323.32 659.49 333.55C659.49 344.98 653.38 354.95 643.14 360.2C642.05 360.77 641.62 362.11 642.19 363.19C642.58 363.96 643.36 364.4 644.17 364.4C644.52 364.4 644.87 364.32 645.19 364.15C656.94 358.11 663.96 346.68 663.96 333.55C663.96 327.9 662.64 322.78 660.03 318.34Z" />
				<path id="Path" class="shp8" d="M637.68 364.69C637.4 363.49 636.19 362.75 634.99 363.03C632.11 363.71 629.07 364.05 625.96 364.05C614.71 364.05 604.6 364.05 597.96 367.13C590.86 369.49 582.51 374.7 580.04 382.38C579.66 383.55 580.31 384.8 581.49 385.17C581.71 385.25 581.94 385.28 582.17 385.28C583.12 385.28 584 384.68 584.3 383.73C585.08 381.33 587.05 378.44 590.49 375.86C589.74 379.12 590.1 383.05 591.59 387.77C593.05 392.42 592.73 396.63 590.64 400.27C587.37 405.96 580.5 409.28 576.17 410.88C577.79 403.86 576.81 397.43 573.31 392.47C568.99 386.36 561.19 382.99 551.34 382.99C546.25 382.99 541.8 381.66 538.49 379.14C535.58 376.93 533.6 373.8 532.9 370.33C532.2 366.79 532.84 363.05 534.72 359.8C536.83 356.14 540.4 353.19 545.03 351.29C548.41 349.9 552.33 348.99 557.02 348.52C558.25 348.4 559.15 347.31 559.02 346.08C558.9 344.86 557.8 343.97 556.57 344.09C551.44 344.61 547.1 345.62 543.32 347.17C530.8 352.32 526.86 362.95 528.51 371.19C529.42 375.73 532 379.81 535.77 382.68C539.87 385.79 545.25 387.44 551.34 387.44C559.69 387.44 566.19 390.13 569.64 395.03C572.96 399.73 573.35 406.29 570.72 413.5C570.45 414.26 570.61 415.12 571.16 415.73C571.59 416.21 572.2 416.48 572.83 416.48C573 416.48 573.17 416.46 573.33 416.42C573.95 416.28 588.57 412.82 594.52 402.5C597.26 397.73 597.71 392.33 595.86 386.44C594.07 380.75 594.15 376.69 596.12 374.03C596.99 372.85 598.25 371.92 599.81 371.19C599.82 371.19 599.83 371.19 599.84 371.18C605.61 368.5 615.55 368.5 625.96 368.5C629.42 368.5 632.8 368.12 636.02 367.36C637.22 367.08 637.97 365.88 637.68 364.69Z" />
				<path id="Shape" fill-rule="evenodd" class="shp9" d="M658.71 291.22C658.71 293.42 657.2 295.27 655.02 295.7L649.68 296.78C645.29 297.67 641.87 301.06 640.98 305.42L639.9 310.73C639.46 312.89 637.6 314.4 635.38 314.4C633.16 314.4 631.31 312.89 630.87 310.73L629.78 305.42C628.89 301.06 625.48 297.67 621.09 296.78L615.74 295.7C613.57 295.27 612.05 293.42 612.05 291.22C612.05 289.02 613.57 287.17 615.74 286.73L621.09 285.66C625.48 284.77 628.89 281.38 629.78 277.02L630.87 271.71C631.31 269.55 633.16 268.04 635.38 268.04C637.6 268.04 639.46 269.55 639.9 271.71L640.98 277.02C641.87 281.38 645.29 284.77 649.68 285.66L655.02 286.73C657.2 287.17 658.71 289.02 658.71 291.22ZM654.2 291.12C654.2 291.13 654.18 291.12 654.13 291.11L648.79 290.03C642.62 288.79 637.83 284.03 636.58 277.9L635.5 272.6C635.49 272.55 635.47 272.52 635.47 272.52C635.44 272.5 635.33 272.5 635.29 272.52C635.29 272.52 635.28 272.54 635.27 272.6L634.18 277.9C632.94 284.03 628.14 288.79 621.98 290.03L616.63 291.11C616.59 291.12 616.56 291.13 616.55 291.13C616.53 291.16 616.53 291.28 616.56 291.31C616.56 291.31 616.56 291.31 616.56 291.31C616.57 291.31 616.59 291.32 616.63 291.33L621.98 292.41C628.14 293.65 632.93 298.41 634.18 304.53L635.27 309.84C635.28 309.89 635.29 309.92 635.29 309.92C635.33 309.94 635.44 309.94 635.48 309.92C635.48 309.92 635.49 309.89 635.5 309.84L636.58 304.53C637.83 298.41 642.62 293.65 648.79 292.41L654.13 291.33C654.18 291.32 654.21 291.31 654.21 291.31C654.23 291.28 654.23 291.16 654.2 291.12Z" />
				<path id="Shape" fill-rule="evenodd" class="shp10" d="M592.13 357.89C592.13 360.09 590.61 361.93 588.43 362.37L583.09 363.45C578.7 364.33 575.28 367.72 574.39 372.09L573.31 377.4C572.87 379.55 571.01 381.06 568.79 381.06C566.57 381.06 564.72 379.55 564.28 377.4L563.19 372.09C562.3 367.72 558.89 364.33 554.5 363.45L549.15 362.37C546.98 361.93 545.46 360.09 545.46 357.89C545.46 355.68 546.98 353.84 549.15 353.4L554.5 352.32C558.89 351.44 562.3 348.05 563.19 343.68L564.28 338.38C564.72 336.22 566.57 334.71 568.79 334.71C571.01 334.71 572.87 336.22 573.31 338.38L574.39 343.68C575.28 348.05 578.7 351.44 583.09 352.32L588.43 353.4C590.61 353.84 592.13 355.68 592.13 357.89ZM587.61 357.79C587.62 357.79 587.59 357.78 587.54 357.77L582.2 356.69C576.03 355.45 571.24 350.69 569.99 344.57L568.91 339.26C568.9 339.21 568.88 339.19 568.88 339.18C568.85 339.16 568.74 339.16 568.7 339.19C568.7 339.19 568.69 339.21 568.68 339.26L567.59 344.57C566.34 350.69 561.55 355.45 555.39 356.69L550.04 357.77C550 357.78 549.97 357.79 549.96 357.8C549.94 357.83 549.94 357.94 549.97 357.98C549.97 357.98 549.97 357.98 549.97 357.98C549.98 357.98 550 357.99 550.04 358L555.39 359.07C561.55 360.32 566.34 365.08 567.59 371.2L568.68 376.51C568.69 376.56 568.7 376.58 568.7 376.59C568.74 376.61 568.85 376.61 568.89 376.58C568.89 376.58 568.9 376.56 568.91 376.51L569.99 371.2C571.24 365.08 576.03 360.32 582.2 359.07L587.54 358C587.59 357.99 587.62 357.98 587.62 357.97C587.64 357.94 587.64 357.83 587.61 357.79Z" />
			</g>
		</g>
		<g id="Spell Book">
			<path id="Spacing" class="shp0" d="M1014 17L1164 17L1164 167L1014 167L1014 17Z" />
			<g id="Icon">
				<path id="Shape" fill-rule="evenodd" class="shp11" d="M1161.39 151.5C1162.77 151.5 1163.89 152.62 1163.89 153.99L1163.89 163.96C1163.89 165.33 1162.77 166.45 1161.39 166.45L1098.94 166.45C1097.56 166.45 1096.44 165.33 1096.44 163.96C1096.44 159.83 1093.09 156.48 1088.95 156.48C1084.81 156.48 1081.45 159.83 1081.45 163.96C1081.45 165.33 1080.33 166.45 1078.95 166.45L1016.5 166.45C1015.12 166.45 1014 165.33 1014 163.96L1014 153.99C1014 152.62 1015.12 151.5 1016.5 151.5L1019 151.5L1019 129.08C1019 128.38 1019.29 127.71 1019.81 127.24C1020.34 126.77 1021.03 126.54 1021.73 126.61C1067.99 131 1083.73 139.39 1087.22 141.65C1087.8 141.61 1088.34 141.54 1088.95 141.54C1089.56 141.54 1090.09 141.61 1090.67 141.65C1094.16 139.39 1109.9 131 1156.16 126.61C1156.86 126.54 1157.56 126.77 1158.08 127.24C1158.6 127.71 1158.9 128.38 1158.9 129.08L1158.9 151.5L1161.39 151.5ZM1098.4 143.26C1102.4 144.88 1105.75 147.78 1107.92 151.5L1153.9 151.5L1153.9 146.52L1123.92 146.52L1123.92 141.54L1153.9 141.54L1153.9 131.82C1121.94 135.06 1105.78 140.12 1098.4 143.26ZM1023.99 151.5L1069.97 151.5C1072.13 147.8 1075.45 144.91 1079.42 143.28C1071.94 140.12 1055.67 135.02 1023.99 131.82L1023.99 141.54L1053.97 141.54L1053.97 146.52L1023.99 146.52L1023.99 151.5ZM1033.99 161.46L1033.99 156.48L1019 156.48L1019 161.46L1033.99 161.46ZM1101.19 161.46L1138.91 161.46L1138.91 156.48L1106.43 156.48C1105.48 156.49 1104.61 155.95 1104.19 155.11C1101.34 149.41 1096.21 146.52 1088.95 146.52C1081.68 146.52 1076.55 149.41 1073.69 155.11C1073.27 155.95 1072.41 156.48 1071.46 156.48L1038.98 156.48L1038.98 161.46L1076.71 161.46C1077.9 155.67 1083.01 151.51 1088.95 151.5C1094.88 151.51 1099.99 155.67 1101.19 161.46ZM1158.9 156.48L1143.91 156.48L1143.91 161.46L1158.9 161.46L1158.9 156.48Z" />
				<path id="Path" class="shp12" d="M1114.3 141.54L1119.31 141.54L1119.31 146.52L1114.3 146.52L1114.3 141.54Z" />
				<path id="Shape" fill-rule="evenodd" class="shp13" d="M1071.47 20.83C1068.41 29.87 1068.4 43.39 1095.7 67.86C1103.11 74.52 1106.54 81.72 1105.86 89.25C1104.55 103.66 1088.54 113.63 1087.86 114.05C1086.95 114.6 1085.8 114.52 1084.98 113.85C1084.16 113.18 1083.85 112.06 1084.22 111.07C1084.32 110.78 1087.68 99.42 1064.96 79.02C1056.54 71.47 1052.15 62.73 1051.9 53.06C1051.42 34.31 1066.7 18.92 1067.35 18.28C1068.17 17.46 1069.44 17.32 1070.42 17.93C1071.4 18.54 1071.84 19.74 1071.47 20.83ZM1092.35 71.57C1074.06 55.15 1065.33 41.58 1065.17 28.86C1061.19 34.67 1056.62 43.46 1056.87 52.96C1057.08 61.2 1060.92 68.73 1068.28 75.33C1084.54 89.93 1088.66 100.61 1089.36 106.8C1093.76 103.17 1100.18 96.61 1100.88 88.81C1101.41 82.92 1098.54 77.13 1092.35 71.57L1092.35 71.57Z" />
				<path id="Shape" fill-rule="evenodd" class="shp13" d="M1099.82 42.56C1113.88 31.65 1113.28 24.7 1111.61 20.41C1111.19 19.35 1111.55 18.15 1112.47 17.48C1113.39 16.81 1114.65 16.84 1115.54 17.56C1116.04 17.96 1127.78 27.58 1127.67 38.53C1127.5 43.74 1124.85 48.56 1120.53 51.51C1108.31 61 1108.88 66.55 1108.88 66.6C1109.1 67.57 1108.71 68.58 1107.89 69.14C1107.48 69.43 1106.99 69.59 1106.49 69.58C1106 69.58 1105.52 69.44 1105.1 69.19C1104.65 68.92 1094.19 62.51 1093.68 53.93C1093.64 49.34 1095.95 45.05 1099.82 42.56ZM1117.36 26.55C1116.58 33.02 1111.8 39.61 1102.92 46.5C1100.4 48.01 1098.81 50.69 1098.71 53.62C1098.91 57.02 1101.95 60.38 1104.61 62.63C1105.9 59.13 1109.21 53.95 1117.44 47.56C1120.54 45.54 1122.47 42.16 1122.65 38.48C1122.25 34.04 1120.39 29.84 1117.36 26.55L1117.36 26.55Z" />
				<path id="Path" class="shp14" d="M1089.22 84.53L1094.24 84.53L1094.24 89.51L1089.22 89.51L1089.22 84.53Z" />
				<path id="Path" class="shp14" d="M1081.42 77.33L1086.44 77.33L1086.44 82.31L1081.42 82.31L1081.42 77.33Z" />
				<path id="Shape" fill-rule="evenodd" class="shp15" d="M1129.07 82.31C1133.22 82.31 1136.59 78.97 1136.59 74.84C1136.59 73.47 1137.71 72.35 1139.1 72.35C1140.48 72.35 1141.6 73.47 1141.6 74.84C1141.6 78.97 1144.97 82.31 1149.13 82.31C1150.51 82.31 1151.63 83.43 1151.63 84.8C1151.63 86.18 1150.51 87.3 1149.13 87.3C1144.97 87.3 1141.6 90.64 1141.6 94.77C1141.6 96.14 1140.48 97.26 1139.1 97.26C1137.71 97.26 1136.59 96.14 1136.59 94.77C1136.59 90.64 1133.22 87.3 1129.07 87.3C1127.68 87.3 1126.56 86.18 1126.56 84.8C1126.56 83.43 1127.68 82.31 1129.07 82.31ZM1139.1 82.24C1138.37 83.21 1137.49 84.08 1136.51 84.8C1137.49 85.53 1138.37 86.4 1139.1 87.37C1139.83 86.4 1140.7 85.53 1141.68 84.8C1140.7 84.08 1139.83 83.21 1139.1 82.24Z" />
				<path id="Shape" fill-rule="evenodd" class="shp15" d="M1046.6 106.67C1050.75 106.67 1054.12 103.32 1054.12 99.2C1054.12 97.82 1055.24 96.7 1056.63 96.7C1058.01 96.7 1059.13 97.82 1059.13 99.2C1059.13 103.32 1062.5 106.67 1066.66 106.67C1068.04 106.67 1069.16 107.78 1069.16 109.16C1069.16 110.53 1068.04 111.65 1066.66 111.65C1062.5 111.65 1059.13 115 1059.13 119.12C1059.13 120.5 1058.01 121.61 1056.63 121.61C1055.24 121.61 1054.12 120.5 1054.12 119.12C1054.12 115 1050.75 111.65 1046.6 111.65C1045.21 111.65 1044.09 110.53 1044.09 109.16C1044.09 107.78 1045.21 106.67 1046.6 106.67ZM1054.04 109.16C1055.03 109.88 1055.9 110.75 1056.63 111.73C1057.36 110.75 1058.23 109.88 1059.21 109.16C1058.23 108.43 1057.36 107.57 1056.63 106.59C1055.9 107.57 1055.03 108.43 1054.04 109.16Z" />
				<path id="Shape" fill-rule="evenodd" class="shp15" d="M1101.48 30.01C1101.48 31.38 1100.36 32.5 1098.98 32.5C1094.82 32.5 1091.45 35.84 1091.45 39.97C1091.45 41.35 1090.33 42.46 1088.95 42.46C1087.56 42.46 1086.44 41.35 1086.44 39.97C1086.44 35.84 1083.07 32.5 1078.92 32.5C1077.53 32.5 1076.41 31.38 1076.41 30.01C1076.41 28.63 1077.53 27.52 1078.92 27.52C1083.07 27.52 1086.44 24.17 1086.44 20.04C1086.44 18.67 1087.56 17.55 1088.95 17.55C1090.33 17.55 1091.45 18.67 1091.45 20.04C1091.45 24.17 1094.82 27.52 1098.98 27.52C1100.36 27.52 1101.48 28.63 1101.48 30.01ZM1091.53 30.01C1090.55 29.28 1089.68 28.42 1088.95 27.44C1088.22 28.42 1087.34 29.28 1086.36 30.01C1087.34 30.73 1088.22 31.6 1088.95 32.57C1089.68 31.6 1090.55 30.73 1091.53 30.01Z" />
				<path id="Path" class="shp14" d="M1116.53 64.6L1121.54 64.6L1121.54 69.58L1116.53 69.58L1116.53 64.6Z" />
				<path id="Path" class="shp14" d="M1116.53 97.26L1121.54 97.26L1121.54 102.24L1116.53 102.24L1116.53 97.26Z" />
				<path id="Path" class="shp14" d="M1051.33 84.53L1056.35 84.53L1056.35 89.51L1051.33 89.51L1051.33 84.53Z" />
				<path id="Path" class="shp14" d="M1076.41 121.61L1081.42 121.61L1081.42 126.59L1076.41 126.59L1076.41 121.61Z" />
				<path id="Path" class="shp14" d="M1029.04 109.44L1034.06 109.44L1034.06 114.42L1029.04 114.42L1029.04 109.44Z" />
				<path id="Shape" fill-rule="evenodd" class="shp16" d="M1106.78 109.44C1110.93 109.44 1114.3 112.78 1114.3 116.91C1114.3 121.03 1110.93 124.38 1106.78 124.38C1102.62 124.38 1099.25 121.03 1099.25 116.91C1099.25 112.78 1102.62 109.44 1106.78 109.44ZM1106.78 114.42C1105.39 114.42 1104.27 115.53 1104.27 116.91C1104.27 118.28 1105.39 119.4 1106.78 119.4C1108.16 119.4 1109.28 118.28 1109.28 116.91C1109.28 115.53 1108.16 114.42 1106.78 114.42Z" />
				<path id="Shape" fill-rule="evenodd" class="shp16" d="M1046.32 74.84C1046.32 78.97 1042.95 82.31 1038.8 82.31C1034.64 82.31 1031.27 78.97 1031.27 74.84C1031.27 70.71 1034.64 67.37 1038.8 67.37C1042.95 67.37 1046.32 70.71 1046.32 74.84ZM1041.3 74.84C1041.3 73.47 1040.18 72.35 1038.8 72.35C1037.41 72.35 1036.29 73.47 1036.29 74.84C1036.29 76.22 1037.41 77.33 1038.8 77.33C1040.18 77.33 1041.3 76.22 1041.3 74.84Z" />
				<path id="Shape" fill-rule="evenodd" class="shp16" d="M1134.36 49.93C1134.36 45.81 1137.73 42.46 1141.88 42.46C1146.04 42.46 1149.4 45.81 1149.4 49.93C1149.4 54.06 1146.04 57.41 1141.88 57.41C1137.73 57.41 1134.36 54.06 1134.36 49.93ZM1139.37 49.93C1139.37 51.31 1140.5 52.42 1141.88 52.42C1143.27 52.42 1144.39 51.31 1144.39 49.93C1144.39 48.56 1143.27 47.44 1141.88 47.44C1140.5 47.44 1139.37 48.56 1139.37 49.93Z" />
			</g>
		</g>
		<g id="Crystal Ball">
			<path id="Spacing" class="shp0" d="M514 17L664 17L664 167L514 167L514 17Z" />
			<g id="Icon">
				<path id="Shape" fill-rule="evenodd" class="shp17" d="M622.61 137.21L554.75 137.21C554.27 137.21 553.8 137.07 553.39 136.81C534.74 124.74 523.61 104.29 523.61 82.11C523.61 46.21 552.8 17 588.68 17C624.56 17 653.75 46.21 653.75 82.11C653.75 104.29 642.62 124.74 623.97 136.81C623.56 137.07 623.1 137.21 622.61 137.21ZM555.5 132.2L621.86 132.2C638.71 121.01 648.75 102.34 648.75 82.11C648.75 48.97 621.8 22.01 588.68 22.01C555.56 22.01 528.62 48.97 528.62 82.11C528.62 102.34 538.65 121.01 555.5 132.2Z" />
				<path id="Shape" fill-rule="evenodd" class="shp18" d="M545.98 147.14C544.6 147.14 543.47 146.01 543.47 144.61L543.47 134.51C543.47 133.11 544.6 131.98 545.98 131.98L631.38 131.98C632.77 131.98 633.89 133.11 633.89 134.51L633.89 144.61C633.89 146.01 632.77 147.14 631.38 147.14L545.98 147.14ZM548.5 142.09L628.87 142.09L628.87 137.03L548.5 137.03L548.5 142.09Z" />
				<path id="Shape" fill-rule="evenodd" class="shp19" d="M643.92 157.07L533.44 157.07C532.06 157.07 530.93 155.94 530.93 154.54L530.93 149.52C530.93 145.33 534.32 141.91 538.49 141.91L638.9 141.91C643.05 141.91 646.44 145.31 646.44 149.5L646.44 154.54C646.44 155.94 645.31 157.07 643.92 157.07ZM535.95 152.02L641.41 152.02L641.41 149.5C641.41 148.1 640.29 146.97 638.9 146.97L538.49 146.97C537.09 146.97 535.95 148.11 535.95 149.52L535.95 152.02Z" />
				<path id="Shape" fill-rule="evenodd" class="shp20" d="M653.86 167L523.51 167C522.12 167 521 165.87 521 164.47L521 154.37C521 152.97 522.12 151.84 523.51 151.84L653.86 151.84C655.24 151.84 656.37 152.97 656.37 154.37L656.37 164.47C656.37 165.87 655.24 167 653.86 167ZM526.01 161.95L651.35 161.95L651.35 156.9L526.01 156.9L526.01 161.95Z" />
				<path id="Path" class="shp21" d="M561.13 44.7C560.34 44.7 559.56 44.33 559.08 43.62C558.29 42.49 558.57 40.92 559.7 40.13C567.27 34.82 576.99 32.22 588.55 32.16C589.92 32.16 591.04 33.28 591.03 34.67C591.03 36.06 589.92 37.17 588.54 37.17C588.51 37.17 588.47 37.17 588.43 37.17C577.95 37.17 569.25 39.55 562.55 44.25C562.11 44.55 561.62 44.7 561.13 44.7Z" />
				<path id="Path" class="shp21" d="M541.28 84.42C539.89 84.42 538.77 83.31 538.77 81.94C538.77 71.89 541.22 63.8 546.72 55.72C547.5 54.59 549.06 54.29 550.21 55.05C551.36 55.82 551.66 57.36 550.88 58.5C545.97 65.71 543.78 72.94 543.79 81.94C543.79 83.31 542.66 84.42 541.28 84.42Z" />
				<g id="Sparkles">
					<path id="Shape" fill-rule="evenodd" class="shp16" d="M621.35 77.15L610.37 66.17L621.35 55.2L632.32 66.17L621.35 77.15ZM617.4 66.17L621.35 70.12L625.29 66.17L621.35 62.23L617.4 66.17Z" />
					<path id="Path" class="shp16" d="M621.35 60.95C619.91 60.95 618.74 59.84 618.74 58.46L618.74 53.5C618.74 52.13 619.91 51.02 621.35 51.02C622.79 51.02 623.96 52.13 623.96 53.5L623.96 58.46C623.96 59.84 622.79 60.95 621.35 60.95Z" />
					<path id="Path" class="shp16" d="M633.5 68.79L628.54 68.79C627.16 68.79 626.05 67.62 626.05 66.17C626.05 64.73 627.16 63.56 628.54 63.56L633.5 63.56C634.87 63.56 635.98 64.73 635.98 66.17C635.98 67.62 634.87 68.79 633.5 68.79Z" />
					<path id="Path" class="shp16" d="M621.35 80.81C619.91 80.81 618.74 79.7 618.74 78.33L618.74 73.36C618.74 71.99 619.91 70.88 621.35 70.88C622.79 70.88 623.96 71.99 623.96 73.36L623.96 78.33C623.96 79.7 622.79 80.81 621.35 80.81Z" />
					<path id="Path" class="shp16" d="M613.64 68.79L608.67 68.79C607.3 68.79 606.19 67.62 606.19 66.17C606.19 64.73 607.3 63.56 608.67 63.56L613.64 63.56C615.01 63.56 616.12 64.73 616.12 66.17C616.12 67.62 615.01 68.79 613.64 68.79Z" />
					<path id="Shape" fill-rule="evenodd" class="shp16" d="M588.42 116.87L577.45 105.89L588.42 94.92L599.4 105.89L588.42 116.87ZM584.48 105.89L588.42 109.84L592.37 105.89L588.42 101.95L584.48 105.89Z" />
					<path id="Path" class="shp16" d="M588.42 101.19C586.98 101.19 585.81 100.08 585.81 98.71L585.81 93.74C585.81 92.37 586.98 91.26 588.42 91.26C589.86 91.26 591.03 92.37 591.03 93.74L591.03 98.71C591.03 100.08 589.86 101.19 588.42 101.19L588.42 101.19Z" />
					<path id="Path" class="shp16" d="M601.1 108.51L596.13 108.51C594.76 108.51 593.65 107.34 593.65 105.89C593.65 104.45 594.76 103.28 596.13 103.28L601.1 103.28C602.47 103.28 603.58 104.45 603.58 105.89C603.58 107.34 602.47 108.51 601.1 108.51L601.1 108.51Z" />
					<path id="Path" class="shp16" d="M588.42 121.05C586.98 121.05 585.81 119.94 585.81 118.57L585.81 113.61C585.81 112.23 586.98 111.12 588.42 111.12C589.86 111.12 591.03 112.23 591.03 113.61L591.03 118.57C591.03 119.94 589.86 121.05 588.42 121.05L588.42 121.05Z" />
					<path id="Path" class="shp16" d="M581.24 108.51L576.27 108.51C574.9 108.51 573.79 107.34 573.79 105.89C573.79 104.45 574.9 103.28 576.27 103.28L581.24 103.28C582.61 103.28 583.72 104.45 583.72 105.89C583.72 107.34 582.61 108.51 581.24 108.51Z" />
				</g>
			</g>
		</g>
		<g id="Crystal Cluster">
			<path id="Spacing" class="shp0" d="M764 17L914 17L914 167L764 167L764 17Z" />
			<g id="Icon">
				<path id="Shape" fill-rule="evenodd" class="shp22" d="M913.41 114.52C913.39 114.62 913.36 114.7 913.33 114.8C913.26 115.04 913.17 115.26 913.03 115.47C913 115.52 913 115.58 912.96 115.63L878.58 161.46L883.56 161.46L883.56 166.44L773.96 166.44L773.96 161.46L780.35 161.46L764.14 117.49C764.06 117.25 764.06 117.01 764.05 116.77C764.04 116.64 763.99 116.52 764 116.4C764.04 116.03 764.15 115.67 764.35 115.34L786.77 77.98C787.14 77.36 787.77 76.93 788.48 76.81C789.2 76.69 789.93 76.88 790.49 77.35L810.71 94.2L806.34 39.61C806.33 39.47 806.35 39.33 806.37 39.19C806.37 39.15 806.35 39.11 806.36 39.07C806.36 39.06 806.37 39.05 806.38 39.03C806.42 38.73 806.53 38.44 806.69 38.18C806.72 38.12 806.76 38.07 806.79 38.01C806.97 37.76 807.18 37.52 807.45 37.34L837.34 17.42C838.13 16.89 839.15 16.86 839.98 17.34L869.87 34.77C870.17 34.95 870.4 35.19 870.6 35.46C870.65 35.52 870.69 35.58 870.73 35.64C870.9 35.93 871.02 36.23 871.07 36.57C871.07 36.58 871.08 36.59 871.08 36.61C871.09 36.65 871.07 36.68 871.07 36.72C871.09 36.88 871.11 37.05 871.09 37.22L862.24 112.47L868.84 98.15C868.86 98.11 868.91 98.09 868.93 98.05C869.1 97.73 869.31 97.43 869.61 97.2L899.51 74.79C900.17 74.29 901.04 74.16 901.82 74.42C902.6 74.7 903.2 75.34 903.41 76.14L913.37 113.5C913.46 113.84 913.46 114.18 913.41 114.52ZM874.21 99.99L883.26 119.92L895.94 83.69L874.21 99.99ZM812.55 39.93L824.93 54.36L847.66 54.36L864.57 37.45L838.82 22.43L812.55 39.93ZM791.71 84.85L793.63 119.4L814.74 104.05L812.08 101.82C812.08 101.82 812.08 101.82 812.08 101.82L791.71 84.85ZM770.27 115.17L788.71 120.7L786.87 87.51L770.27 115.17ZM802.75 161.46L789.5 126.13L770.55 120.45L785.66 161.46L802.75 161.46ZM816.31 109.07L794.39 125L808.07 161.46L816.31 161.46L816.31 109.07ZM828.58 161.46L821.36 57.85L811.93 46.85L816.07 98.67L820.39 102.26C820.68 102.51 820.9 102.81 821.06 103.14C821.11 103.26 821.1 103.39 821.14 103.51C821.2 103.73 821.29 103.94 821.29 104.18L821.29 161.46L828.58 161.46ZM846.02 59.35L826.45 59.35L833.58 161.46L838.9 161.46L846.02 59.35ZM844.65 150.58L855.51 127.05L865.3 43.76L851.11 57.96L844.65 150.58ZM845.11 161.46L862.14 161.46L880.79 126.51L871.09 105.18L860.2 128.78L860.2 128.79L845.11 161.46ZM903.13 120.44L885.37 128.51L867.79 161.46L872.35 161.46L903.13 120.44ZM908.02 112.75L900.68 85.24L887.84 121.91L908.02 112.75Z" />
				<path id="Shape" fill-rule="evenodd" class="shp23" d="M794 32C794 33.38 792.88 34.5 791.5 34.5C785.98 34.5 781.5 38.98 781.5 44.5C781.5 45.88 780.38 47 779 47C777.62 47 776.5 45.88 776.5 44.5C776.5 38.98 772.01 34.5 766.5 34.5C765.12 34.5 764 33.38 764 32C764 30.62 765.12 29.5 766.5 29.5C772.01 29.5 776.5 25.01 776.5 19.5C776.5 18.12 777.62 17 779 17C780.38 17 781.5 18.12 781.5 19.5C781.5 25.01 785.98 29.5 791.5 29.5C792.88 29.5 794 30.62 794 32ZM783.22 32C781.55 30.89 780.11 29.45 779 27.78C777.89 29.45 776.45 30.89 774.78 32C776.45 33.11 777.89 34.55 779 36.22C780.11 34.55 781.55 33.11 783.22 32Z" />
				<path id="Shape" fill-rule="evenodd" class="shp23" d="M908.44 52C908.44 53.38 907.32 54.5 905.94 54.5C900.43 54.5 895.94 58.98 895.94 64.5C895.94 65.88 894.82 67 893.44 67C892.06 67 890.94 65.88 890.94 64.5C890.94 58.98 886.46 54.5 880.94 54.5C879.56 54.5 878.44 53.38 878.44 52C878.44 50.62 879.56 49.5 880.94 49.5C886.46 49.5 890.94 45.01 890.94 39.5C890.94 38.12 892.06 37 893.44 37C894.82 37 895.94 38.12 895.94 39.5C895.94 45.01 900.43 49.5 905.94 49.5C907.32 49.5 908.44 50.62 908.44 52ZM897.66 52C895.99 50.89 894.55 49.45 893.44 47.78C892.33 49.45 890.9 50.89 889.23 52C890.9 53.11 892.33 54.55 893.44 56.22C894.56 54.55 895.99 53.11 897.66 52Z" />
				<path id="Rectangle" class="shp24" d="M888.44 161.44L893.44 161.44L893.44 166.44L888.44 166.44L888.44 161.44Z" />
				<path id="Rectangle" class="shp24" d="M898.44 161.44L903.44 161.44L903.44 166.44L898.44 166.44L898.44 161.44Z" />
			</g>
		</g>
		<g id="Round Potion">
			<path id="Spacing" class="shp0" d="M14 517L164 517L164 667L14 667L14 517Z" />
			<g id="Icon">
				<path id="Shape" fill-rule="evenodd" class="shp25" d="M70.03 571.21L70.03 554.5C65.91 554.5 62.55 551.14 62.55 547C62.55 542.87 65.91 539.5 70.03 539.5L74.41 539.5L71.44 526.13C70.95 523.9 71.48 521.59 72.91 519.81C74.34 518.02 76.47 517 78.75 517L101.25 517C103.53 517 105.66 518.02 107.09 519.81C108.52 521.59 109.05 523.89 108.56 526.13L105.59 539.5L109.97 539.5C114.09 539.5 117.45 542.86 117.45 547C117.45 551.13 114.09 554.5 109.97 554.5L109.97 571.21C128.21 579.18 139.91 596.97 139.91 617C139.91 644.57 117.52 667 90 667C62.48 667 40.09 644.57 40.09 617C40.09 596.97 51.79 579.18 70.03 571.21ZM90 662C114.77 662 134.92 641.81 134.92 617C134.92 616.07 134.87 615.14 134.82 614.22L131.99 615.71C125.27 619.25 117.96 621.02 110.65 621.02C102.91 621.02 95.19 619.04 88.2 615.1C76.76 608.65 62.82 608.13 50.93 613.69L45.1 616.41C45.1 616.61 45.08 616.8 45.08 617C45.08 641.81 65.23 662 90 662ZM134.17 608.91C134.15 608.79 134.13 608.67 134.1 608.54C132.56 608.28 130.92 608.17 128.45 608.03C121.84 607.65 115.33 610.13 110.57 614.85L109.43 615.98C116.34 616.19 123.3 614.64 129.66 611.29L134.17 608.91ZM79.52 539.5L100.47 539.5L103.68 525.04C103.85 524.3 103.67 523.53 103.19 522.94C102.72 522.34 102.01 522 101.25 522L78.75 522C77.99 522 77.28 522.34 76.81 522.94C76.33 523.53 76.15 524.3 76.32 525.04L79.52 539.5ZM67.54 547C67.54 548.38 68.66 549.5 70.03 549.5L109.97 549.5C111.34 549.5 112.46 548.38 112.46 547C112.46 545.62 111.34 544.5 109.97 544.5L70.03 544.5C68.66 544.5 67.54 545.62 67.54 547ZM83.06 554.5L84.56 562L95.44 562L96.94 554.5L83.06 554.5ZM73.45 575.19C58.2 581.26 47.74 594.81 45.53 610.7L48.82 609.16C62.17 602.92 77.8 603.51 90.64 610.75C94.57 612.96 98.75 614.46 103.03 615.28L107.06 611.3C112.83 605.57 120.75 602.55 128.74 603.04C130.26 603.13 131.57 603.21 132.81 603.33C128.82 590.7 119.38 580.3 106.55 575.19C105.6 574.82 104.97 573.89 104.97 572.87L104.97 554.5L102.03 554.5L99.93 564.99C99.7 566.16 98.68 567 97.49 567L82.51 567C81.32 567 80.3 566.16 80.06 564.99L77.97 554.5L75.03 554.5L75.03 572.87C75.03 573.89 74.4 574.82 73.45 575.19Z" />
				<path id="Shape" fill-rule="evenodd" class="shp15" d="M132.6 552.02C138.07 552.02 142.53 556.47 142.53 561.95C142.53 567.42 138.07 571.88 132.6 571.88C127.12 571.88 122.67 567.42 122.67 561.95C122.67 556.47 127.12 552.02 132.6 552.02ZM127.63 561.95C127.63 564.69 129.86 566.91 132.6 566.91C135.33 566.91 137.56 564.69 137.56 561.95C137.56 559.21 135.33 556.98 132.6 556.98C129.86 556.98 127.63 559.21 127.63 561.95Z" />
				<path id="Shape" fill-rule="evenodd" class="shp17" d="M149.84 517C156.76 517 162.39 522.63 162.39 529.54C162.39 536.46 156.76 542.09 149.84 542.09C142.93 542.09 137.3 536.46 137.3 529.54C137.3 522.63 142.93 517 149.84 517ZM142.32 529.54C142.32 533.69 145.69 537.07 149.84 537.07C153.99 537.07 157.37 533.69 157.37 529.54C157.37 525.39 153.99 522.02 149.84 522.02C145.69 522.02 142.32 525.39 142.32 529.54Z" />
				<path id="Shape" fill-rule="evenodd" class="shp26" d="M55.24 549.4C55.24 554.88 50.79 559.33 45.31 559.33C39.84 559.33 35.38 554.88 35.38 549.4C35.38 543.93 39.84 539.47 45.31 539.47C50.79 539.47 55.24 543.93 55.24 549.4ZM50.28 549.4C50.28 546.67 48.05 544.44 45.31 544.44C42.58 544.44 40.35 546.67 40.35 549.4C40.35 552.14 42.58 554.37 45.31 554.37C48.05 554.37 50.28 552.14 50.28 549.4Z" />
				<path id="Shape" fill-rule="evenodd" class="shp27" d="M22.58 594.35C18.4 594.35 15 590.95 15 586.77C15 582.6 18.4 579.2 22.58 579.2C26.76 579.2 30.16 582.6 30.16 586.77C30.16 590.95 26.76 594.35 22.58 594.35ZM22.58 589.3C23.97 589.3 25.1 588.17 25.1 586.77C25.1 585.38 23.97 584.25 22.58 584.25C21.18 584.25 20.05 585.38 20.05 586.77C20.05 588.17 21.18 589.3 22.58 589.3Z" />
				<path id="Path" class="shp3" d="M58.23 603.24C62.45 593.51 70.7 586.31 80.85 583.49L79.53 578.67C67.93 581.9 58.51 590.12 53.68 601.23L58.23 603.24Z" />
			</g>
		</g>
		<g id="Jem">
			<path id="Spacing" class="shp0" d="M264 17L414 17L414 167L264 167L264 17Z" />
			<g id="Icon">
				<path id="Shape" fill-rule="evenodd" class="shp15" d="M413.75 19.02C413.92 19.41 414 19.84 414 20.26L414 72.43C414 72.87 413.91 73.3 413.75 73.69C413.58 74.09 413.34 74.44 413.04 74.74L321.74 166.04C321.45 166.34 321.09 166.58 320.69 166.75C320.3 166.91 319.87 167 319.43 167L267.26 167C266.84 167 266.41 166.92 266.02 166.75C265.22 166.42 264.58 165.78 264.25 164.98C264.08 164.59 264 164.16 264 163.74L264 111.57C264 111.13 264.09 110.7 264.25 110.31C264.42 109.91 264.66 109.56 264.96 109.26L356.26 17.96C356.55 17.66 356.91 17.42 357.31 17.25C357.7 17.09 358.13 17 358.57 17L410.74 17C411.16 17 411.59 17.08 411.98 17.25C412.78 17.58 413.42 18.22 413.75 19.02ZM407.48 28.13L394.43 41.18L394.43 65.91C394.43 66.78 394.09 67.61 393.48 68.22L392.52 69.17L407.48 69.17L407.48 28.13ZM270.52 155.87L283.57 142.82L283.57 118.09C283.57 117.22 283.91 116.39 284.52 115.78L285.48 114.83L270.52 114.83L270.52 155.87ZM382.34 70.14C382.34 70.13 387.91 64.57 387.91 64.56L387.91 43.09L366.44 43.09L290.09 119.44L290.09 140.91L311.56 140.91C311.57 140.91 382.34 70.14 382.34 70.14ZM402.87 23.52L361.83 23.52L361.83 38.48L362.78 37.52C363.39 36.91 364.22 36.57 365.09 36.57L389.82 36.57L402.87 23.52ZM355.3 28.13L275.13 108.3L292 108.3L355.3 45L355.3 28.13ZM275.13 160.48L316.17 160.48L316.17 145.52L315.22 146.48C314.61 147.09 313.78 147.43 312.91 147.43L288.18 147.43L275.13 160.48ZM322.7 155.87L402.87 75.7L386 75.7L322.7 139L322.7 155.87Z" />
			</g>
		</g>
		<g id="Pestle And Morter">
			<path id="Spacing" class="shp0" d="M14 267L164 267L164 417L14 417L14 267Z" />
			<g id="Icon">
				<path id="Path" class="shp14" d="M83.01 387.83C81.43 387.83 80.15 389.12 80.15 390.7C80.15 392.28 81.43 393.56 83.01 393.56C84.59 393.56 85.88 392.28 85.88 390.7C85.88 389.12 84.59 387.83 83.01 387.83Z" />
				<path id="Shape" fill-rule="evenodd" class="shp28" d="M163.48 344.96C163.48 349.87 160.43 354.24 155.88 355.91C155.71 377.71 141.46 396.76 120.85 403.1L120.85 408.22C120.85 413.06 116.92 417 112.09 417L65.38 417C60.55 417 56.62 413.06 56.62 408.22L56.62 403.1C36.01 396.76 21.77 377.71 21.6 355.91C17.04 354.24 14 349.87 14 344.96C14 338.51 19.24 333.25 25.68 333.25L82.68 333.25L130.21 292.91C128.78 289.68 129.37 285.76 132.01 283.12C135.48 279.65 141 279.72 144.39 283.11L160.91 299.68C164.33 303.11 164.33 308.67 160.91 312.1C158.24 314.79 154.32 315.34 151.14 313.91L134.83 333.25L151.8 333.25C158.24 333.25 163.48 338.51 163.48 344.96ZM136.14 291.4C136.14 291.4 136.14 291.4 136.14 291.4C136.14 291.4 152.66 307.96 152.66 307.96C152.66 307.96 152.66 307.96 152.66 307.97C153.79 309.11 155.65 309.11 156.78 307.97C157.94 306.8 157.91 304.95 156.78 303.82L140.27 287.26C139.13 286.12 137.29 286.1 136.14 287.26C135 288.4 135 290.26 136.14 291.4ZM91.72 333.25L127.18 333.25L146.63 310.2L133.91 297.44L91.72 333.25ZM115.01 408.22L115.01 404.51C112.13 405.02 109.2 405.29 106.26 405.29L71.22 405.29C68.28 405.29 65.34 405.02 62.46 404.51L62.46 408.22C62.46 409.83 63.77 411.14 65.38 411.14L112.09 411.14C113.7 411.14 115.01 409.83 115.01 408.22ZM150.03 356.65L27.45 356.65C27.96 376.21 41.31 393.16 60.27 398.05C63.83 398.96 67.51 399.43 71.22 399.43L106.26 399.43C109.96 399.43 113.65 398.96 117.21 398.05C136.17 393.16 149.52 376.21 150.03 356.65ZM157.64 344.96C157.64 341.74 155.02 339.11 151.8 339.11L25.68 339.11C22.46 339.11 19.84 341.74 19.84 344.96C19.84 348.33 22.61 350.82 25.68 350.82L151.8 350.82C152.48 350.82 153.07 350.72 153.69 350.48C153.72 350.47 153.74 350.46 153.77 350.45C156.08 349.65 157.64 347.45 157.64 344.96Z" />
				<path id="Path" class="shp14" d="M71.48 387.73C57.84 387.73 45.62 379.13 41.05 366.34C40.51 364.82 38.84 364.03 37.31 364.56C35.78 365.1 34.98 366.77 35.52 368.29C40.91 383.41 55.36 393.56 71.48 393.56C73.1 393.56 74.42 392.26 74.42 390.65C74.42 389.03 73.1 387.73 71.48 387.73Z" />
				<path id="Shape" fill-rule="evenodd" class="shp27" d="M85.02 318.75C83.88 319.89 82.03 319.89 80.89 318.75L75.9 313.76L65.42 313.76C47.69 313.76 33.27 299.34 33.27 281.61L33.27 269.92C33.27 268.31 34.58 267 36.19 267L47.88 267C65.61 267 80.03 281.42 80.03 299.15L80.03 309.63L85.02 314.61C86.16 315.76 86.16 317.61 85.02 318.75ZM74.19 299.15C74.19 284.64 62.39 272.84 47.88 272.84L39.12 272.84L39.12 281.61C39.12 296.12 50.91 307.91 65.42 307.91L70.05 307.91L45.82 283.68C44.68 282.54 44.68 280.69 45.82 279.55C46.96 278.4 48.81 278.4 49.95 279.55L74.19 303.78L74.19 299.15Z" />
				<path id="Shape" fill-rule="evenodd" class="shp25" d="M103.58 275.85C103.58 280.74 99.61 284.71 94.73 284.71C89.85 284.71 85.87 280.74 85.87 275.85C85.87 270.97 89.85 267 94.73 267C99.61 267 103.58 270.97 103.58 275.85ZM97.68 275.85C97.68 274.23 96.36 272.9 94.73 272.9C93.1 272.9 91.78 274.23 91.78 275.85C91.78 277.48 93.1 278.81 94.73 278.81C96.36 278.81 97.68 277.48 97.68 275.85Z" />
			</g>
		</g>
		<g id="Potion Bottle">
			<path id="Spacing" class="shp0" d="M264 517L414 517L414 667L264 667L264 517Z" />
			<g id="Icon">
				<path id="Shape" fill-rule="evenodd" class="shp13" d="M384.46 617.39L384.46 645.35C384.46 657.29 374.77 667 362.86 667L315.13 667C303.21 667 293.52 657.29 293.52 645.35L293.52 617.39C293.52 611.89 296.73 606.81 301.7 604.47C301.73 604.45 301.77 604.44 301.8 604.42L317.76 597.88C320.62 596.7 322.47 593.94 322.47 590.84L322.47 586.43C322.47 585.22 323.45 584.24 324.66 584.24C325.88 584.24 326.86 585.22 326.86 586.43L326.86 590.84C326.86 595.73 323.94 600.09 319.42 601.94L303.52 608.47C300.11 610.1 297.91 613.6 297.91 617.39L297.91 645.35C297.91 654.87 305.63 662.61 315.13 662.61L362.86 662.61C372.35 662.61 380.08 654.87 380.08 645.35L380.08 617.39C380.08 613.6 377.88 610.1 374.47 608.47L370.99 607.04C370.16 606.7 369.62 605.89 369.62 605C369.63 604.1 370.17 603.3 371 602.97C376.51 600.74 380.08 595.46 380.08 589.51C380.08 581.51 373.58 575.01 365.6 575.01C361.84 575.01 358.21 576.5 355.51 579.12L355.51 582.77C355.51 583.98 354.53 584.97 353.32 584.97C352.11 584.97 351.13 583.98 351.13 582.77L351.13 568.56L346.6 568.56C345.38 568.56 344.4 567.58 344.4 566.37C344.4 565.15 345.38 564.17 346.6 564.17L353.03 564.17C353.05 564.17 353.06 564.17 353.08 564.17C353.1 564.17 353.12 564.17 353.14 564.17C354.12 564.17 354.93 563.36 354.93 562.37L354.93 553.33L352.03 553.33L351.73 558.22C351.73 558.23 351.73 558.25 351.73 558.26C351.58 560.18 349.96 561.68 348.04 561.68L329.36 561.68C327.44 561.68 325.82 560.18 325.67 558.26C325.67 558.25 325.67 558.23 325.67 558.22L325.37 553.33L323.06 553.33L323.06 562.37C323.06 563.36 323.86 564.17 324.85 564.17L338.99 564.17C340.2 564.17 341.19 565.15 341.19 566.37C341.19 567.58 340.2 568.56 338.99 568.56L326.86 568.56L326.86 577.64C326.86 578.86 325.88 579.84 324.66 579.84C323.45 579.84 322.47 578.86 322.47 577.64L322.47 568.09C320.24 567.15 318.67 564.94 318.67 562.37L318.67 552.75C316.77 551.82 315.45 549.87 315.45 547.62C315.45 544.47 318.01 541.9 321.15 541.9L324.52 541.9L323.89 533.82L323.08 523.41C322.96 521.76 323.52 520.12 324.65 518.91C325.77 517.7 327.35 517 329 517L348.4 517C350.05 517 351.63 517.7 352.75 518.91C353.87 520.12 354.44 521.76 354.32 523.41L353.89 528.96C353.82 529.75 353.34 530.45 352.61 530.79L350.34 531.83L352.18 532.7C353 533.09 353.5 533.95 353.43 534.86L352.88 541.9L356.24 541.9C359.39 541.9 361.95 544.47 361.95 547.62C361.95 549.63 360.89 551.4 359.32 552.42L359.32 562.37C359.32 564.94 357.74 567.15 355.51 568.09L355.51 573.55C358.51 571.65 362.01 570.61 365.6 570.61C376 570.61 384.46 579.09 384.46 589.51C384.46 595.64 381.56 601.22 376.8 604.72C381.47 607.17 384.46 612.08 384.46 617.39ZM327.46 523.07L327.53 524.03L337.24 524.03C338.45 524.03 339.43 525.01 339.43 526.23C339.43 527.44 338.45 528.42 337.24 528.42L327.87 528.42L328.28 533.68L331.39 533.68C332.6 533.68 333.58 534.67 333.58 535.88C333.58 537.09 332.6 538.08 331.39 538.08L328.62 538.08L328.92 541.9L348.48 541.9L348.94 536.03L345.39 534.35C344.4 533.88 343.77 532.88 343.78 531.79C343.79 530.7 344.43 529.7 345.42 529.25L349.61 527.33L349.94 523.07C349.98 522.63 349.83 522.21 349.53 521.89C349.24 521.57 348.83 521.39 348.4 521.39L329 521.39C328.57 521.39 328.16 521.57 327.86 521.89C327.57 522.21 327.42 522.63 327.46 523.07ZM347.63 553.33L329.76 553.33L330.01 557.28L347.39 557.28L347.63 553.33ZM356.24 548.93C356.97 548.93 357.56 548.34 357.56 547.62C357.56 546.89 356.97 546.3 356.24 546.3L321.15 546.3C320.43 546.3 319.84 546.89 319.84 547.62C319.84 548.34 320.43 548.93 321.15 548.93L356.24 548.93Z" />
				<path id="Shape" fill-rule="evenodd" class="shp15" d="M376.1 589.39C376.1 595.29 371.29 600.1 365.39 600.1C359.48 600.1 354.67 595.29 354.67 589.39C354.67 583.48 359.48 578.67 365.39 578.67C371.29 578.67 376.1 583.48 376.1 589.39ZM371.7 589.39C371.7 585.91 368.87 583.08 365.39 583.08C361.91 583.08 359.08 585.91 359.08 589.39C359.08 592.87 361.91 595.7 365.39 595.7C368.87 595.7 371.7 592.87 371.7 589.39Z" />
				<path id="Shape" fill-rule="evenodd" class="shp22" d="M376.62 643.44L376.62 645.22C376.62 652.9 370.34 659.16 362.61 659.16L314.85 659.16C307.13 659.16 300.84 652.9 300.84 645.22L300.84 630.98C300.84 629.92 301.3 628.92 302.11 628.24C302.92 627.55 303.98 627.25 305.03 627.41L311.68 628.44C311.67 628.25 311.67 628.05 311.67 627.86C311.67 622.64 315.93 618.39 321.18 618.39C326.42 618.39 330.68 622.64 330.68 627.86C330.68 629.05 330.46 630.21 330.04 631.29L333.48 631.82C335.28 632.1 337.08 632.23 338.89 632.22C339.2 625.19 345.05 619.56 352.19 619.56C358.03 619.56 363.04 623.25 364.82 628.59L372.43 627.41C373.48 627.25 374.55 627.55 375.35 628.24C376.16 628.92 376.62 629.93 376.62 630.98L376.62 634.7C376.62 635.91 375.64 636.88 374.43 636.88C373.22 636.88 372.23 635.91 372.23 634.7L372.23 631.86L344.66 636.14C340.72 636.75 336.74 636.75 332.81 636.14L305.23 631.86L305.23 645.22C305.23 650.5 309.55 654.79 314.85 654.79L362.61 654.79C367.92 654.79 372.23 650.5 372.23 645.22L372.23 643.44C372.23 642.23 373.22 641.25 374.43 641.25C375.64 641.25 376.62 642.23 376.62 643.44ZM343.31 631.91C343.53 631.88 343.76 631.86 343.98 631.82L360.39 629.28C359.01 626.08 355.84 623.93 352.19 623.93C347.57 623.93 343.76 627.43 343.31 631.91ZM316.05 627.86C316.05 628.3 316.11 628.73 316.22 629.15L325.5 630.58C326.01 629.78 326.3 628.84 326.3 627.86C326.3 625.05 324 622.76 321.17 622.76C318.35 622.76 316.05 625.05 316.05 627.86Z" />
				<path id="Shape" fill-rule="evenodd" class="shp29" d="M341.08 606.63C341.08 610.81 337.68 614.21 333.51 614.21C329.33 614.21 325.93 610.81 325.93 606.63C325.93 602.46 329.33 599.06 333.51 599.06C337.68 599.06 341.08 602.46 341.08 606.63ZM336.63 606.63C336.63 604.91 335.23 603.51 333.51 603.51C331.78 603.51 330.38 604.91 330.38 606.63C330.38 608.35 331.78 609.75 333.51 609.75C335.23 609.75 336.63 608.35 336.63 606.63Z" />
				<path id="Shape" fill-rule="evenodd" class="shp30" d="M333.77 645.31C333.77 649.49 330.37 652.89 326.19 652.89C322.01 652.89 318.61 649.49 318.61 645.31C318.61 641.13 322.01 637.73 326.19 637.73C330.37 637.73 333.77 641.13 333.77 645.31ZM329.31 645.31C329.31 643.59 327.91 642.19 326.19 642.19C324.47 642.19 323.07 643.59 323.07 645.31C323.07 647.03 324.47 648.43 326.19 648.43C327.91 648.43 329.31 647.03 329.31 645.31Z" />
				<path id="Shape" fill-rule="evenodd" class="shp17" d="M348.4 580.76C348.4 585.37 344.65 589.13 340.04 589.13C335.43 589.13 331.68 585.37 331.68 580.76C331.68 576.15 335.43 572.4 340.04 572.4C344.65 572.4 348.4 576.15 348.4 580.76ZM344 580.76C344 578.58 342.22 576.8 340.04 576.8C337.85 576.8 336.08 578.58 336.08 580.76C336.08 582.95 337.85 584.72 340.04 584.72C342.22 584.72 344 582.95 344 580.76Z" />
			</g>
		</g>
		<g id="Cauldren">
			<path id="Spacing" class="shp0" d="M1014 267L1164 267L1164 417L1014 417L1014 267Z" />
			<g id="Icon">
				<path id="Shape" fill-rule="evenodd" class="shp25" d="M1108.91 276.09C1108.91 271.08 1114.01 267 1120.27 267C1126.54 267 1131.64 271.08 1131.64 276.09C1131.64 281.1 1126.54 285.18 1120.27 285.18C1114.01 285.18 1108.91 281.1 1108.91 276.09ZM1114.59 276.09C1114.59 278.6 1117.14 280.64 1120.27 280.64C1123.41 280.64 1125.95 278.6 1125.95 276.09C1125.95 273.58 1123.41 271.55 1120.27 271.55C1117.14 271.55 1114.59 273.58 1114.59 276.09Z" />
				<path id="Shape" fill-rule="evenodd" class="shp3" d="M1031.64 276.09C1031.64 271.08 1036.73 267 1043 267C1049.27 267 1054.36 271.08 1054.36 276.09C1054.36 281.1 1049.27 285.18 1043 285.18C1036.73 285.18 1031.64 281.1 1031.64 276.09ZM1037.32 276.09C1037.32 278.6 1039.87 280.64 1043 280.64C1046.13 280.64 1048.68 278.6 1048.68 276.09C1048.68 273.58 1046.13 271.55 1043 271.55C1039.87 271.55 1037.32 273.58 1037.32 276.09Z" />
				<path id="Shape" fill-rule="evenodd" class="shp31" d="M1090.73 289.73C1090.73 284.71 1094.81 280.64 1099.82 280.64C1104.83 280.64 1108.91 284.71 1108.91 289.73C1108.91 294.74 1104.83 298.82 1099.82 298.82C1094.81 298.82 1090.73 294.74 1090.73 289.73ZM1095.92 289.73C1095.92 291.88 1097.67 293.62 1099.82 293.62C1101.97 293.62 1103.71 291.88 1103.71 289.73C1103.71 287.58 1101.97 285.83 1099.82 285.83C1097.67 285.83 1095.92 287.58 1095.92 289.73Z" />
				<path id="Shape" fill-rule="evenodd" class="shp16" d="M1058.91 280.64C1058.91 275.62 1062.99 271.55 1068 271.55C1073.01 271.55 1077.09 275.62 1077.09 280.64C1077.09 285.65 1073.01 289.73 1068 289.73C1062.99 289.73 1058.91 285.65 1058.91 280.64ZM1064.1 280.64C1064.1 282.78 1065.85 284.53 1068 284.53C1070.15 284.53 1071.9 282.78 1071.9 280.64C1071.9 278.49 1070.15 276.74 1068 276.74C1065.85 276.74 1064.1 278.49 1064.1 280.64Z" />
				<path id="Shape" fill-rule="evenodd" class="shp32" d="M1146.05 401.29C1149.1 404.27 1149.1 409.11 1146.05 412.09C1144.52 413.58 1142.52 414.32 1140.51 414.32C1138.51 414.32 1136.5 413.58 1134.98 412.09L1128.17 405.45C1116.85 412.73 1103.18 417 1088.45 417C1074.38 417 1061.27 413.09 1050.26 406.39L1044.41 412.09C1042.88 413.58 1040.88 414.32 1038.88 414.32C1036.87 414.32 1034.87 413.58 1033.34 412.09C1030.29 409.11 1030.29 404.27 1033.34 401.29L1037.9 396.85C1025.6 384.92 1018 368.69 1018 350.82C1018 340.78 1020.37 331.15 1024.99 322.15L1020.05 314.13C1019.23 312.79 1019.21 311.11 1020 309.75C1020.78 308.39 1022.27 307.55 1023.87 307.55L1026.2 307.55C1027.37 303.16 1031.42 299.91 1036.27 299.91C1038.38 299.91 1040.43 300.55 1042.15 301.7C1044.58 298.97 1048.1 297.36 1051.92 297.36C1053.42 297.36 1054.89 297.61 1056.28 298.1C1058.91 293.05 1064.26 289.73 1070.19 289.73C1077.2 289.73 1083.13 294.2 1085.1 300.46C1087.81 299.55 1090.94 299.82 1093.45 301.17C1096.05 297.27 1100.52 294.82 1105.42 294.82C1110.31 294.82 1114.78 297.27 1117.39 301.17C1120.73 299.36 1125.11 299.59 1128.26 301.7C1130.69 298.97 1134.21 297.36 1138.03 297.36C1144.34 297.36 1149.6 301.74 1150.82 307.55L1153.04 307.55C1154.64 307.55 1156.12 308.39 1156.91 309.75C1157.7 311.11 1157.68 312.79 1156.86 314.13L1151.92 322.15C1156.54 331.15 1158.91 340.78 1158.91 350.82C1158.91 368.09 1151.82 383.83 1140.24 395.63L1146.05 401.29ZM1130.64 307.55L1145.42 307.55C1144.34 304.58 1141.44 302.45 1138.03 302.45C1135.05 302.45 1132.37 304.1 1131.04 306.75L1130.64 307.55ZM1117.78 307.55L1126.91 307.55L1126.59 307.12C1124.68 304.56 1120.6 304.36 1118.45 306.78L1117.78 307.55ZM1096.26 307.55L1114.57 307.55L1114.01 305.95C1112.74 302.33 1109.29 299.91 1105.42 299.91C1101.55 299.91 1098.09 302.33 1096.82 305.95L1096.26 307.55ZM1083.62 307.55L1093.05 307.55L1092.38 306.78C1090.49 304.65 1087.07 304.45 1084.94 306.35L1083.62 307.55ZM1044.53 307.55L1080.7 307.55L1080.57 304.59C1080.34 299.11 1075.78 294.82 1070.19 294.82C1065.55 294.82 1061.44 297.89 1060.18 302.29L1059.22 305.66L1056.23 303.72C1054.94 302.89 1053.46 302.45 1051.92 302.45C1048.94 302.45 1046.26 304.1 1044.93 306.75L1044.53 307.55ZM1031.75 307.55L1040.8 307.55L1040.48 307.12C1039.47 305.77 1037.94 305 1036.27 305C1034.34 305 1032.65 306.02 1031.75 307.55ZM1025.22 312.64L1027.81 316.85L1027.81 316.85L1029.91 320.27L1146.99 320.27L1149.1 316.85L1149.1 316.85L1151.69 312.64L1025.22 312.64ZM1044.93 402.81C1044.15 402.22 1043.37 401.63 1042.62 401.02C1042.32 400.78 1042.01 400.56 1041.72 400.32L1037.03 404.89C1036.01 405.88 1036.01 407.5 1037.03 408.49C1038.05 409.48 1039.71 409.48 1040.72 408.49L1045.83 403.5C1045.53 403.28 1045.24 403.03 1044.93 402.81ZM1088.45 411.91C1103.03 411.91 1116.51 407.41 1127.38 399.81C1128.39 399.11 1129.36 398.37 1130.32 397.62C1130.83 397.22 1131.33 396.81 1131.83 396.4C1132.44 395.89 1133.03 395.37 1133.61 394.84C1145.97 383.72 1153.69 368.1 1153.69 350.82C1153.69 341.93 1151.69 333.37 1147.75 325.36L1029.15 325.36C1025.22 333.37 1023.22 341.93 1023.22 350.82C1023.22 368.41 1031.21 384.28 1043.96 395.43C1044.94 396.3 1045.95 397.15 1046.99 397.95C1047.32 398.2 1047.66 398.44 1047.98 398.68C1048.82 399.3 1049.67 399.9 1050.53 400.48C1061.23 407.66 1074.32 411.91 1088.45 411.91ZM1142.35 404.89L1136.52 399.2C1136.3 399.39 1136.06 399.56 1135.84 399.75C1134.95 400.51 1134.04 401.25 1133.11 401.97C1132.9 402.13 1132.71 402.31 1132.49 402.47L1138.67 408.49C1139.69 409.48 1141.34 409.48 1142.36 408.49C1143.38 407.5 1143.38 405.88 1142.35 404.89Z" />
				<path id="Path" class="shp33" d="M1088.1 394.03C1064.88 394.03 1045.99 376.86 1045.99 355.76C1045.99 354.43 1044.81 353.36 1043.36 353.36C1041.9 353.36 1040.73 354.43 1040.73 355.76C1040.73 379.5 1061.98 398.82 1088.1 398.82C1089.55 398.82 1090.73 397.75 1090.73 396.43C1090.73 395.1 1089.55 394.03 1088.1 394.03Z" />
			</g>
		</g>
		<g id="Swords">
			<g id="Icon">
				<path id="Path" class="shp34" d="M81.41 94.54L76.33 99.62C75.45 100.49 75.45 101.91 76.33 102.78C76.76 103.21 77.33 103.43 77.9 103.43C78.47 103.43 79.04 103.21 79.48 102.78L84.56 97.7C85.43 96.82 85.43 95.41 84.56 94.54C83.69 93.67 82.28 93.67 81.41 94.54Z" />
				<path id="Path" class="shp34" d="M123.94 51.97L88.82 87.09C87.93 87.97 87.93 89.41 88.82 90.29C89.26 90.73 89.84 90.95 90.41 90.95C90.99 90.95 91.57 90.73 92.01 90.29L127.14 55.16C128.02 54.28 128.02 52.85 127.14 51.97C126.25 51.08 124.82 51.08 123.94 51.97Z" />
				<path id="Path" class="shp34" d="M141.6 34.34L131.39 44.54C130.52 45.42 130.52 46.84 131.39 47.71C131.83 48.15 132.4 48.37 132.98 48.37C133.55 48.37 134.12 48.15 134.56 47.71L144.76 37.51C145.64 36.63 145.64 35.21 144.76 34.34C143.89 33.47 142.47 33.47 141.6 34.34Z" />
				<path id="Path" class="shp34" d="M73.54 71.69L48.68 46.82C47.8 45.95 46.37 45.95 45.5 46.82C44.62 47.7 44.62 49.13 45.5 50.01L70.36 74.87C70.8 75.31 71.38 75.53 71.95 75.53C72.53 75.53 73.1 75.31 73.54 74.87C74.42 73.99 74.42 72.57 73.54 71.69Z" />
				<path id="Path" class="shp34" d="M36.15 34.34C35.29 33.47 33.88 33.47 33.01 34.34C32.14 35.21 32.14 36.61 33.01 37.48L38.83 43.31C39.27 43.75 39.84 43.96 40.41 43.96C40.98 43.96 41.55 43.75 41.98 43.31C42.85 42.44 42.85 41.03 41.98 40.16L36.15 34.34Z" />
				<path id="Shape" fill-rule="evenodd" class="shp35" d="M163.04 156.18C163.04 158.53 162.09 160.83 160.43 162.49C158.78 164.15 156.49 165.1 154.15 165.1C151.8 165.1 149.51 164.15 147.85 162.49C146.9 161.53 146.17 160.34 145.73 159.05C144.44 158.62 143.27 157.89 142.29 156.91C141.31 155.92 140.59 154.75 140.15 153.46C138.87 153.03 137.7 152.3 136.72 151.32C135.74 150.34 135.02 149.17 134.59 147.88C133.3 147.45 132.14 146.72 131.16 145.74C130.18 144.76 129.46 143.58 129.02 142.28C127.73 141.84 126.55 141.11 125.59 140.16C125.48 140.05 125.38 139.94 125.28 139.82C121.96 144.5 119.35 149.73 117.62 155.36C117.32 156.34 116.42 156.97 115.46 156.97C115.24 156.97 115.01 156.94 114.79 156.87L103.87 153.5C103.3 153.32 102.82 152.92 102.54 152.39C102.26 151.86 102.2 151.24 102.38 150.66C104.02 145.3 106.28 140.22 109.07 135.51L88.56 116.16L67.98 135.51C70.76 140.22 73.02 145.3 74.66 150.66C74.84 151.24 74.78 151.86 74.5 152.39C74.22 152.92 73.74 153.32 73.17 153.5L62.25 156.87C62.03 156.94 61.8 156.97 61.58 156.97C60.62 156.97 59.72 156.34 59.42 155.36C57.69 149.73 55.08 144.5 51.76 139.82C51.66 139.94 51.56 140.05 51.45 140.16C50.49 141.11 49.31 141.84 48.02 142.28C47.58 143.58 46.86 144.76 45.88 145.74C44.9 146.72 43.74 147.45 42.45 147.88C42.02 149.17 41.3 150.34 40.32 151.32C39.34 152.3 38.17 153.03 36.89 153.46C36.45 154.75 35.73 155.92 34.75 156.91C33.77 157.89 32.6 158.62 31.31 159.05C30.87 160.34 30.14 161.53 29.19 162.49C27.53 164.15 25.24 165.1 22.9 165.1C20.55 165.1 18.26 164.15 16.61 162.49C14.95 160.83 14 158.53 14 156.18C14 153.83 14.95 151.53 16.61 149.87C17.56 148.91 18.74 148.18 20.04 147.74C20.47 146.45 21.19 145.27 22.17 144.29C23.15 143.31 24.32 142.58 25.6 142.14C26.04 140.86 26.76 139.68 27.74 138.7C28.72 137.72 29.88 137 31.17 136.56C31.6 135.27 32.32 134.1 33.3 133.12C34.28 132.14 35.46 131.41 36.75 130.98C37.19 129.68 37.92 128.49 38.87 127.54C38.98 127.43 39.09 127.33 39.2 127.23C34.54 123.89 29.33 121.28 23.71 119.54C23.13 119.36 22.65 118.96 22.37 118.43C22.09 117.9 22.03 117.28 22.21 116.7L25.57 105.75C25.94 104.55 27.2 103.88 28.4 104.25C33.74 105.9 38.8 108.17 43.5 110.96L62.02 91.14L22.57 54.37C22.19 54.01 21.94 53.54 21.87 53.02L17.41 21.59C17.31 20.88 17.55 20.17 18.05 19.67C18.56 19.16 19.27 18.92 19.97 19.02L51.31 23.49C51.82 23.56 52.3 23.81 52.65 24.19L88.45 62.85L127.09 21.48C127.49 21.06 128.03 20.8 128.61 20.77L157.24 19.01C157.89 18.97 158.52 19.21 158.98 19.67C159.44 20.13 159.68 20.76 159.64 21.41L157.89 50.14C157.85 50.72 157.6 51.26 157.18 51.66L115.05 91.25L133.54 110.96C138.24 108.17 143.3 105.9 148.64 104.25C149.84 103.88 151.1 104.55 151.47 105.75L154.83 116.7C155.01 117.28 154.95 117.9 154.67 118.43C154.39 118.97 153.91 119.36 153.33 119.54C147.71 121.28 142.5 123.89 137.84 127.23C137.95 127.33 138.06 127.43 138.17 127.54C139.12 128.49 139.85 129.68 140.29 130.98C141.58 131.41 142.76 132.14 143.74 133.12C144.72 134.1 145.44 135.27 145.87 136.56C147.16 137 148.32 137.72 149.3 138.7C150.28 139.68 151 140.86 151.44 142.14C152.72 142.58 153.89 143.31 154.87 144.29C155.85 145.27 156.57 146.45 157 147.74C158.3 148.18 159.48 148.91 160.43 149.87C162.09 151.53 163.04 153.83 163.04 156.18ZM65.11 87.83L85.34 66.17L49.88 27.87L22.32 23.94L26.24 51.59L65.11 87.83ZM25.99 159.28C26.39 158.88 26.7 158.39 26.92 157.85L21.23 152.14C20.7 152.36 20.21 152.68 19.81 153.08C18.99 153.9 18.53 155.03 18.53 156.18C18.53 157.33 19 158.46 19.81 159.28C20.62 160.09 21.75 160.56 22.9 160.56C24.05 160.56 25.17 160.09 25.99 159.28ZM31.55 153.7C31.96 153.28 32.28 152.8 32.5 152.27L26.79 146.55C26.27 146.77 25.79 147.09 25.37 147.5C24.96 147.91 24.64 148.39 24.43 148.92L30.13 154.64C30.66 154.43 31.14 154.11 31.55 153.7ZM37.12 148.11C37.53 147.7 37.85 147.22 38.06 146.69L32.36 140.97C31.83 141.18 31.35 141.5 30.94 141.92C30.53 142.33 30.21 142.81 29.99 143.34L35.7 149.06C36.23 148.84 36.71 148.52 37.12 148.11ZM42.68 142.53C43.09 142.12 43.41 141.63 43.63 141.1L37.93 135.38C37.4 135.6 36.92 135.92 36.5 136.33C36.09 136.75 35.77 137.23 35.56 137.75L41.26 143.48C41.79 143.26 42.27 142.94 42.68 142.53ZM48.88 136.13C47.04 133.97 45.04 131.96 42.88 130.11C42.59 130.29 42.31 130.51 42.07 130.75C41.67 131.15 41.35 131.64 41.13 132.18L46.82 137.89C47.36 137.67 47.85 137.35 48.25 136.94C48.49 136.7 48.7 136.43 48.88 136.13ZM69.63 149.84C66.36 140.34 61.02 131.87 54.13 124.94C54.11 124.93 54.09 124.92 54.08 124.9C54.06 124.89 54.05 124.87 54.04 124.85C47.13 117.94 38.68 112.58 29.22 109.3L27.19 115.91C43.98 121.81 57.16 135.03 63.04 151.87L69.63 149.84ZM65.5 131.61L153.42 48.96L154.97 23.7L129.78 25.24L47.39 113.44C50.31 115.46 53.08 117.68 55.65 120.11L68.58 107.15C69.46 106.26 70.89 106.26 71.78 107.15C72.66 108.03 72.66 109.47 71.78 110.36L58.86 123.32C61.27 125.9 63.49 128.68 65.5 131.61ZM111.54 131.61C113.55 128.67 115.77 125.9 118.18 123.32L105.26 110.36C104.38 109.47 104.38 108.03 105.26 107.15C106.15 106.26 107.58 106.26 108.46 107.15L121.39 120.11C123.96 117.68 126.72 115.46 129.65 113.45L111.75 94.36L91.87 113.05L111.54 131.61ZM149.85 115.91L147.82 109.3C138.36 112.58 129.91 117.94 123 124.85C122.99 124.87 122.98 124.89 122.96 124.9C122.95 124.92 122.93 124.93 122.91 124.94C116.02 131.87 110.68 140.34 107.41 149.84L114 151.87C119.88 135.03 133.06 121.81 149.85 115.91ZM130.22 137.89L135.91 132.18C135.69 131.64 135.37 131.15 134.97 130.75C134.73 130.51 134.45 130.29 134.16 130.11C132 131.96 130 133.97 128.16 136.13C128.34 136.43 128.55 136.7 128.79 136.94C129.19 137.35 129.68 137.67 130.22 137.89ZM135.78 143.48L141.48 137.75C141.27 137.23 140.95 136.75 140.54 136.33C140.12 135.92 139.64 135.6 139.11 135.38L133.41 141.1C133.63 141.63 133.95 142.12 134.36 142.53C134.77 142.94 135.25 143.26 135.78 143.48ZM141.34 149.06L147.05 143.34C146.83 142.81 146.51 142.33 146.1 141.92C145.69 141.5 145.21 141.18 144.68 140.97L138.98 146.69C139.19 147.22 139.51 147.7 139.92 148.11C140.34 148.52 140.81 148.84 141.34 149.06ZM146.91 154.64L152.61 148.92C152.4 148.39 152.08 147.91 151.67 147.5C151.25 147.09 150.77 146.77 150.25 146.55L144.54 152.27C144.76 152.8 145.08 153.28 145.49 153.7C145.9 154.11 146.38 154.43 146.91 154.64ZM158.51 156.17C158.51 155.03 158.05 153.9 157.23 153.08C156.83 152.68 156.34 152.36 155.81 152.14L150.12 157.85C150.34 158.39 150.66 158.88 151.06 159.28C151.87 160.09 152.99 160.56 154.15 160.56C155.29 160.56 156.42 160.09 157.23 159.28C158.04 158.46 158.51 157.33 158.51 156.17Z" />
			</g>
		</g>
		<g id="Doble Terminated Crystal">
			<path id="Spacing" class="shp0" d="M514 521L664 521L664 671L514 671L514 521Z" />
			<g id="Icon">
				<path id="Shape" fill-rule="evenodd" class="shp36" d="M626.31 555.09L626.31 628.91C626.31 629.69 626 630.44 625.45 630.98L590.23 666.14C589.68 666.69 588.93 667 588.15 667C587.37 667 586.63 666.69 586.08 666.14L550.86 630.98C550.31 630.44 550 629.69 550 628.91L550 555.09C550 553.47 551.31 552.16 552.93 552.16L568.87 552.16L577.85 534.35L573.69 538.51C572.54 539.66 570.68 539.66 569.54 538.51C568.39 537.37 568.39 535.52 569.54 534.37L586.08 517.86C586.63 517.31 587.37 517 588.15 517C588.93 517 589.68 517.31 590.23 517.86L625.45 553.02C626 553.57 626.31 554.31 626.31 555.09ZM620.44 558.02L608.7 558.02L608.7 602.28C608.7 603.89 607.38 605.21 605.76 605.21C604.14 605.21 602.83 603.89 602.83 602.28L602.83 558.02L573.48 558.02L573.48 625.98L620.44 625.98L620.44 558.02ZM560.02 631.84L577.85 649.65L568.87 631.84L560.02 631.84ZM588.15 657.03L600.86 631.84L575.44 631.84L588.15 657.03ZM598.45 649.65L616.29 631.84L607.44 631.84L598.45 649.65ZM616.29 552.16L598.45 534.35L607.43 552.16L616.29 552.16ZM575.44 552.16L600.86 552.16L588.15 526.97L575.44 552.16ZM555.87 558.02L555.87 625.98L567.61 625.98L567.61 558.02L555.87 558.02Z" />
				<path id="Path" class="shp37" d="M562.28 548.88C563.06 548.88 563.84 548.56 564.41 547.94L564.41 547.94C565.48 546.76 565.39 544.95 564.22 543.88C563.04 542.81 561.22 542.9 560.16 544.07C559.09 545.25 559.17 547.07 560.35 548.13C560.9 548.63 561.59 548.88 562.28 548.88Z" />
				<path id="Path" class="shp37" d="M605.66 612.64C604.07 612.64 602.79 613.93 602.79 615.52C602.79 617.11 604.07 618.39 605.66 618.39C607.25 618.39 608.54 617.11 608.54 615.52L608.54 615.52C608.54 613.93 607.25 612.64 605.66 612.64Z" />
			</g>
		</g>
		<g id="Wand">
			<path id="Spacing" class="shp0" d="M264 267L414 267L414 417L264 417L264 267Z" />
			<g id="Icon">
				<path id="Path" class="shp38" d="M395.51 347.21C393.93 347.21 392.65 348.49 392.65 350.07C392.65 351.65 393.93 352.94 395.51 352.94C397.09 352.94 398.38 351.65 398.38 350.07C398.38 348.49 397.09 347.21 395.51 347.21Z" />
				<path id="Path" class="shp38" d="M359.51 285.55C358.4 284.43 356.58 284.43 355.46 285.55C354.35 286.66 354.35 288.48 355.46 289.6C356.58 290.72 358.4 290.72 359.51 289.6C360.63 288.48 360.63 286.67 359.51 285.55Z" />
				<path id="Shape" fill-rule="evenodd" class="shp39" d="M405.11 338.48L383.1 338.49L370.39 356.18C366.19 362.11 356.99 360.63 354.83 353.7L352.23 345.33L284 413.56C279.43 418.15 272.01 418.14 267.43 413.56C262.85 408.99 262.86 401.56 267.44 396.99L335.67 328.77L327.31 326.17C320.35 324.01 318.9 314.81 324.84 310.6L342.51 297.9L342.52 275.89C342.44 268.63 350.73 264.41 356.56 268.76L374.18 281.91L395.01 274.85C401.9 272.51 408.49 279.1 406.15 285.99L399.09 306.82L412.24 324.44C416.59 330.28 412.37 338.57 405.11 338.48ZM350.27 339.01L348.3 332.7L341.99 330.73L271.58 401.14C269.27 403.44 269.31 407.15 271.58 409.42C273.87 411.72 277.57 411.71 279.86 409.42L350.27 339.01ZM407.54 327.94L393.47 309.09C392.9 308.32 392.74 307.31 393.05 306.4L400.6 284.11C401.39 281.8 399.18 279.62 396.89 280.4L374.6 287.95C373.69 288.26 372.68 288.1 371.91 287.53L353.06 273.46C351.1 272 348.31 273.41 348.34 275.84C348.35 275.85 348.35 275.87 348.35 275.88L348.34 299.41C348.34 300.35 347.91 301.23 347.15 301.78L328.24 315.37C326.22 316.8 326.74 319.86 329.04 320.57L351.51 327.56C352.43 327.84 353.16 328.57 353.44 329.49L356.39 338.96L356.4 338.99C356.4 338.99 356.4 339 356.4 339.01L360.43 351.96C361.15 354.28 364.21 354.77 365.62 352.78L379.22 333.85C379.77 333.09 380.65 332.66 381.59 332.66L405.12 332.65C407.69 332.65 408.96 329.84 407.54 327.94Z" />
				<path id="Path" class="shp38" d="M373.21 296.15L368.27 292.58C366.94 291.62 365.07 291.88 364.07 293.17C363.08 294.45 363.36 296.27 364.68 297.23L369.63 300.8C370.96 301.76 372.83 301.49 373.82 300.21C374.81 298.92 374.54 297.11 373.21 296.15Z" />
				<path id="Path" class="shp22" d="M325.11 282.28L322.16 282.28L322.16 279.33C322.16 277.7 320.84 276.38 319.21 276.38C317.58 276.38 316.26 277.7 316.26 279.33L316.26 282.28L313.31 282.28C311.68 282.28 310.35 283.6 310.35 285.23C310.35 286.86 311.68 288.18 313.31 288.18L316.26 288.18L316.26 291.13C316.26 292.76 317.58 294.08 319.21 294.08C320.84 294.08 322.16 292.76 322.16 291.13L322.16 288.18L325.11 288.18C326.74 288.18 328.06 286.86 328.06 285.23C328.06 283.6 326.74 282.28 325.11 282.28Z" />
				<path id="Path" class="shp22" d="M389.69 370.3L386.74 370.3L386.74 367.35C386.74 365.72 385.42 364.4 383.79 364.4C382.16 364.4 380.84 365.72 380.84 367.35L380.84 370.3L377.89 370.3C376.26 370.3 374.94 371.62 374.94 373.25C374.94 374.88 376.26 376.2 377.89 376.2L380.84 376.2L380.84 379.15C380.84 380.78 382.16 382.1 383.79 382.1C385.42 382.1 386.74 380.78 386.74 379.15L386.74 376.2L389.69 376.2C391.32 376.2 392.65 374.88 392.65 373.25C392.65 371.62 391.32 370.3 389.69 370.3Z" />
			</g>
		</g>
		<g id="Castle">
			<path id="Spacing" class="shp0" d="M764 517L914 517L914 667L764 667L764 517Z" />
			<g id="Icon">
				<path id="Path" class="shp3" d="M894 622C892.62 622 891.5 623.12 891.5 624.5L891.5 629.5C891.5 630.88 892.62 632 894 632C895.38 632 896.5 630.88 896.5 629.5L896.5 624.5C896.5 623.12 895.38 622 894 622Z" />
				<path id="Path" class="shp16" d="M825.38 561.74C826.62 562.36 828.12 561.85 828.74 560.62L836.5 545.09L836.5 559.5C836.5 560.88 837.62 562 839 562C840.38 562 841.5 560.88 841.5 559.5L841.5 545.09L849.26 560.62C849.7 561.5 850.58 562 851.5 562C851.88 562 852.26 561.92 852.62 561.74C853.85 561.12 854.36 559.62 853.74 558.38L841.5 533.91L841.5 522L854 522L854 527L846.5 527C845.12 527 844 528.12 844 529.5C844 530.88 845.12 532 846.5 532L856.5 532C857.88 532 859 530.88 859 529.5L859 519.5C859 518.12 857.88 517 856.5 517L839 517C837.62 517 836.5 518.12 836.5 519.5L836.5 533.91L824.26 558.38C823.64 559.62 824.15 561.12 825.38 561.74Z" />
				<path id="Path" class="shp17" d="M851.5 597C852.88 597 854 595.88 854 594.5L854 572L856.5 572C857.88 572 859 570.88 859 569.5C859 568.12 857.88 567 856.5 567L821.5 567C820.12 567 819 568.12 819 569.5C819 570.88 820.12 572 821.5 572L824 572L824 594.5C824 595.88 825.12 597 826.5 597C827.88 597 829 595.88 829 594.5L829 572L849 572L849 594.5C849 595.88 850.12 597 851.5 597Z" />
				<path id="Path" class="shp3" d="M836.5 584.5L836.5 589.5C836.5 590.88 837.62 592 839 592C840.38 592 841.5 590.88 841.5 589.5L841.5 584.5C841.5 583.12 840.38 582 839 582C837.62 582 836.5 583.12 836.5 584.5Z" />
				<path id="Path" class="shp17" d="M876.5 592L879 592L879 594.5C879 595.88 880.12 597 881.5 597C882.88 597 884 595.88 884 594.5L884 592L904 592L904 642C904 643.38 905.12 644.5 906.5 644.5C907.88 644.5 909 643.38 909 642L909 592L911.5 592C912.88 592 914 590.88 914 589.5C914 588.12 912.88 587 911.5 587L876.5 587C875.12 587 874 588.12 874 589.5C874 590.88 875.12 592 876.5 592Z" />
				<path id="Path" class="shp40" d="M884 542C884 543.38 885.12 544.5 886.5 544.5C887.88 544.5 889 543.38 889 542C890.38 542 891.5 540.88 891.5 539.5C891.5 538.12 890.38 537 889 537C889 535.62 887.88 534.5 886.5 534.5C885.12 534.5 884 535.62 884 537C882.62 537 881.5 538.12 881.5 539.5C881.5 540.88 882.62 542 884 542Z" />
				<path id="Path" class="shp16" d="M880.38 581.74C881.62 582.36 883.12 581.85 883.74 580.62L891.5 565.09L891.5 579.5C891.5 580.88 892.62 582 894 582C895.38 582 896.5 580.88 896.5 579.5L896.5 565.09L904.26 580.62C904.7 581.5 905.58 582 906.5 582C906.88 582 907.26 581.92 907.62 581.74C908.85 581.12 909.35 579.62 908.74 578.38L896.24 553.38C896.13 553.17 895.99 552.98 895.82 552.82C895.37 552.32 894.73 552 894 552C893.27 552 892.63 552.32 892.18 552.82C892.01 552.98 891.87 553.17 891.76 553.38L879.26 578.38C878.65 579.62 879.15 581.12 880.38 581.74Z" />
				<path id="Shape" fill-rule="evenodd" class="shp3" d="M854 642L854 664.5C854 665.88 852.88 667 851.5 667L826.5 667C825.12 667 824 665.88 824 664.5L824 642C824 633.73 830.73 627 839 627C847.27 627 854 633.73 854 642ZM849 657L829 657L829 662L849 662L849 657ZM849 647L829 647L829 652L849 652L849 647ZM849 642C849 636.49 844.52 632 839 632C833.49 632 829 636.48 829 642L849 642Z" />
				<path id="Path" class="shp3" d="M896.5 604.5C896.5 603.12 895.38 602 894 602C892.62 602 891.5 603.12 891.5 604.5L891.5 609.5C891.5 610.88 892.62 612 894 612C895.38 612 896.5 610.88 896.5 609.5L896.5 604.5Z" />
				<path id="Path" class="shp40" d="M814 524.5C814 525.88 815.12 527 816.5 527C817.88 527 819 525.88 819 524.5C820.38 524.5 821.5 523.38 821.5 522C821.5 520.62 820.38 519.5 819 519.5C819 518.12 817.88 517 816.5 517C815.12 517 814 518.12 814 519.5C812.62 519.5 811.5 520.62 811.5 522C811.5 523.38 812.62 524.5 814 524.5Z" />
				<path id="Path" class="shp3" d="M784 622C782.62 622 781.5 623.12 781.5 624.5L781.5 629.5C781.5 630.88 782.62 632 784 632C785.38 632 786.5 630.88 786.5 629.5L786.5 624.5C786.5 623.12 785.38 622 784 622Z" />
				<path id="Shape" fill-rule="evenodd" class="shp15" d="M819 654.5L819 664.5C819 665.88 817.88 667 816.5 667L766.5 667C765.12 667 764 665.88 764 664.5L764 654.5C764 651.74 766.24 649.5 769 649.5C769.91 649.5 770.76 649.75 771.5 650.17C772.97 649.32 775.03 649.32 776.5 650.17C777.97 649.32 780.03 649.32 781.5 650.17C782.97 649.32 785.03 649.32 786.5 650.17C787.97 649.32 790.03 649.32 791.5 650.17C792.97 649.32 795.03 649.32 796.5 650.17C797.97 649.32 800.03 649.32 801.5 650.17C802.97 649.32 805.03 649.32 806.5 650.17C807.97 649.32 810.03 649.32 811.5 650.17C812.23 649.75 813.09 649.5 814 649.5C816.76 649.5 819 651.74 819 654.5ZM814 662L814 654.5C814 655.88 812.88 657 811.5 657C810.12 657 809 655.88 809 654.5C809 655.88 807.88 657 806.5 657C805.12 657 804 655.88 804 654.5C804 655.88 802.88 657 801.5 657C800.12 657 799 655.88 799 654.5C799 655.88 797.88 657 796.5 657C795.12 657 794 655.88 794 654.5C794 655.88 792.88 657 791.5 657C790.12 657 789 655.88 789 654.5C789 655.88 787.88 657 786.5 657C785.12 657 784 655.88 784 654.5C784 655.88 782.88 657 781.5 657C780.12 657 779 655.88 779 654.5C779 655.88 777.88 657 776.5 657C775.12 657 774 655.88 774 654.5C774 655.88 772.88 657 771.5 657C770.12 657 769 655.88 769 654.5L769 662L814 662Z" />
				<path id="Shape" fill-rule="evenodd" class="shp15" d="M914 654.5L914 664.5C914 665.88 912.88 667 911.5 667L861.5 667C860.12 667 859 665.88 859 664.5L859 654.5C859 651.74 861.24 649.5 864 649.5C864.91 649.5 865.76 649.75 866.5 650.17C867.97 649.32 870.03 649.32 871.5 650.17C872.97 649.32 875.03 649.32 876.5 650.17C877.97 649.32 880.03 649.32 881.5 650.17C882.97 649.32 885.03 649.32 886.5 650.17C887.97 649.32 890.03 649.32 891.5 650.17C892.97 649.32 895.03 649.32 896.5 650.17C897.97 649.32 900.03 649.32 901.5 650.17C902.97 649.32 905.03 649.32 906.5 650.17C907.23 649.75 908.09 649.5 909 649.5C911.76 649.5 914 651.74 914 654.5ZM909 662L909 654.5C909 655.88 907.88 657 906.5 657C905.12 657 904 655.88 904 654.5C904 655.88 902.88 657 901.5 657C900.12 657 899 655.88 899 654.5C899 655.88 897.88 657 896.5 657C895.12 657 894 655.88 894 654.5C894 655.88 892.88 657 891.5 657C890.12 657 889 655.88 889 654.5C889 655.88 887.88 657 886.5 657C885.12 657 884 655.88 884 654.5C884 655.88 882.88 657 881.5 657C880.12 657 879 655.88 879 654.5C879 655.88 877.88 657 876.5 657C875.12 657 874 655.88 874 654.5C874 655.88 872.88 657 871.5 657C870.12 657 869 655.88 869 654.5C869 655.88 867.88 657 866.5 657C865.12 657 864 655.88 864 654.5L864 662L909 662Z" />
				<path id="Path" class="shp16" d="M770.38 581.74C771.62 582.36 773.12 581.85 773.74 580.62L781.5 565.09L781.5 579.5C781.5 580.88 782.62 582 784 582C785.38 582 786.5 580.88 786.5 579.5L786.5 565.09L794.26 580.62C794.7 581.5 795.58 582 796.5 582C796.88 582 797.26 581.92 797.62 581.74C798.85 581.12 799.36 579.62 798.74 578.38L786.24 553.38C786.13 553.17 785.99 552.98 785.82 552.82C785.37 552.32 784.73 552 784 552C783.27 552 782.63 552.32 782.18 552.82C782.01 552.98 781.87 553.17 781.76 553.38L769.26 578.38C768.65 579.62 769.15 581.12 770.38 581.74Z" />
				<path id="Path" class="shp22" d="M874 614.5L874 607L879 607L879 642C879 643.38 880.12 644.5 881.5 644.5C882.88 644.5 884 643.38 884 642L884 604.5C884 603.12 882.88 602 881.5 602L871.5 602C870.12 602 869 603.12 869 604.5L869 612L859 612L859 604.5C859 603.12 857.88 602 856.5 602L846.5 602C845.12 602 844 603.12 844 604.5L844 612L834 612L834 604.5C834 603.12 832.88 602 831.5 602L821.5 602C820.12 602 819 603.12 819 604.5L819 612L809 612L809 604.5C809 603.12 807.88 602 806.5 602L796.5 602C795.12 602 794 603.12 794 604.5L794 642C794 643.38 795.12 644.5 796.5 644.5C797.88 644.5 799 643.38 799 642L799 607L804 607L804 614.5C804 615.88 805.12 617 806.5 617L821.5 617C822.88 617 824 615.88 824 614.5L824 607L829 607L829 614.5C829 615.88 830.12 617 831.5 617L846.5 617C847.88 617 849 615.88 849 614.5L849 607L854 607L854 614.5C854 615.88 855.12 617 856.5 617L871.5 617C872.88 617 874 615.88 874 614.5Z" />
				<path id="Path" class="shp40" d="M766.5 532L769 532L769 534.5C769 535.88 770.12 537 771.5 537C772.88 537 774 535.88 774 534.5L774 532L776.5 532C777.88 532 779 530.88 779 529.5C779 528.12 777.88 527 776.5 527L774 527L774 524.5C774 523.12 772.88 522 771.5 522C770.12 522 769 523.12 769 524.5L769 527L766.5 527C765.12 527 764 528.12 764 529.5C764 530.88 765.12 532 766.5 532Z" />
				<path id="Path" class="shp17" d="M766.5 592L769 592L769 644.5C769 645.88 770.12 647 771.5 647C772.88 647 774 645.88 774 644.5L774 592L794 592L794 594.5C794 595.88 795.12 597 796.5 597C797.88 597 799 595.88 799 594.5L799 592L801.5 592C802.88 592 804 590.88 804 589.5C804 588.12 802.88 587 801.5 587L766.5 587C765.12 587 764 588.12 764 589.5C764 590.88 765.12 592 766.5 592Z" />
				<path id="Path" class="shp3" d="M786.5 604.5C786.5 603.12 785.38 602 784 602C782.62 602 781.5 603.12 781.5 604.5L781.5 609.5C781.5 610.88 782.62 612 784 612C785.38 612 786.5 610.88 786.5 609.5L786.5 604.5Z" />
			</g>
		</g>
		<g id="Crown">
			<path id="Spacing" class="shp0" d="M1014 517L1164 517L1164 667L1014 667L1014 517Z" />
			<g id="Icon">
				<path id="Shape" fill-rule="evenodd" class="shp41" d="M1157.63 597.06C1161.36 598.49 1164 602.85 1164 608.14C1164 614.64 1160.03 619.72 1154.97 619.72C1154.13 619.72 1153.3 619.58 1152.51 619.3L1151.5 623.67C1153.36 624.26 1154.71 626.01 1154.71 628.06L1154.71 632.04C1154.71 634.58 1152.64 636.65 1150.1 636.65L1126.57 636.65C1125.35 636.65 1124.37 635.66 1124.37 634.45C1124.37 633.23 1125.35 632.25 1126.57 632.25L1150.1 632.25C1150.22 632.25 1150.31 632.15 1150.31 632.04L1150.31 628.06C1150.31 627.95 1150.22 627.85 1150.1 627.85L1027.9 627.85C1027.78 627.85 1027.69 627.95 1027.69 628.06L1027.69 632.04C1027.69 632.15 1027.78 632.25 1027.9 632.25L1117.01 632.25C1118.23 632.25 1119.21 633.23 1119.21 634.45C1119.21 635.66 1118.23 636.65 1117.01 636.65L1027.9 636.65C1025.36 636.65 1023.29 634.58 1023.29 632.04L1023.29 628.06C1023.29 626.01 1024.64 624.26 1026.5 623.67L1025.49 619.3C1024.7 619.58 1023.87 619.72 1023.03 619.72C1017.96 619.72 1014 614.64 1014 608.14C1014 602.85 1016.64 598.49 1020.37 597.06L1017.18 583.24C1016.51 580.32 1019.93 578.19 1022.23 580.12C1024.22 581.79 1027.32 584.02 1030.75 585.16C1033.24 585.98 1035.05 587.8 1035.83 590.29C1036.71 593.05 1036.18 596.42 1034.51 598.66C1033.61 599.88 1033.8 601.5 1034.95 602.36C1036.23 603.31 1037.84 603.8 1039.72 603.8C1042.98 603.8 1044.76 596.65 1045.13 589.46C1042 589.77 1039.43 588.74 1037.94 586.53C1035.88 583.45 1038.91 577.51 1045.82 565.61C1047.59 562.56 1049.27 559.68 1050.25 557.66C1050.72 556.68 1051.64 556.03 1052.71 555.91C1053.79 555.79 1054.83 556.23 1055.5 557.07C1057.95 560.16 1063.65 568.19 1063.65 576.13C1063.65 578.97 1063.95 582.27 1064.5 585.41C1064.7 586.61 1063.9 587.74 1062.71 587.95C1061.51 588.16 1060.37 587.36 1060.17 586.16C1059.58 582.78 1059.25 579.22 1059.25 576.13C1059.25 570.58 1055.52 564.55 1053.26 561.41C1052.26 563.29 1050.97 565.51 1049.62 567.82C1048.06 570.5 1041.57 581.36 1041.69 584.21C1042.65 585.42 1044.69 585.16 1045.85 584.89C1047.79 584.43 1049.63 585.92 1049.59 587.91C1049.45 594.01 1048.21 608.2 1039.72 608.2C1036.87 608.2 1034.38 607.42 1032.33 605.89C1029.25 603.6 1028.65 599.18 1030.98 596.04C1031.7 595.07 1032.16 593.24 1031.64 591.62C1031.28 590.48 1030.52 589.71 1029.37 589.33C1026.71 588.45 1024.26 587.06 1022.25 585.66L1029.09 615.33C1029.09 615.34 1029.09 615.34 1029.09 615.35L1030.96 623.45L1147.04 623.45L1148.91 615.35C1148.91 615.34 1148.91 615.34 1148.91 615.33L1155.75 585.66C1153.74 587.06 1151.29 588.45 1148.63 589.33C1147.48 589.71 1146.72 590.48 1146.36 591.62C1145.84 593.24 1146.3 595.07 1147.02 596.04C1149.35 599.18 1148.75 603.6 1145.67 605.89C1143.62 607.42 1141.13 608.2 1138.28 608.2C1129.79 608.2 1128.55 594.01 1128.42 587.91C1128.37 585.92 1130.21 584.43 1132.15 584.89C1133.31 585.16 1135.35 585.42 1136.32 584.2C1136.34 583.74 1136.14 581.87 1132.91 575.82C1132.33 574.75 1132.74 573.42 1133.81 572.84C1134.88 572.27 1136.21 572.68 1136.78 573.75C1140.61 580.92 1141.5 584.38 1140.06 586.53C1138.57 588.74 1136.01 589.76 1132.87 589.46C1133.24 596.65 1135.02 603.8 1138.28 603.8C1140.16 603.8 1141.77 603.31 1143.05 602.36C1144.2 601.5 1144.39 599.88 1143.49 598.66C1141.83 596.42 1141.29 593.05 1142.17 590.29C1142.95 587.8 1144.76 585.98 1147.25 585.16C1150.68 584.02 1153.78 581.79 1155.77 580.12C1158.07 578.2 1161.49 580.32 1160.82 583.24L1157.63 597.06ZM1023.03 615.32C1023.58 615.32 1024.07 615.16 1024.49 614.94L1021.38 601.46C1019.65 602.51 1018.39 605.15 1018.39 608.14C1018.39 612.04 1020.52 615.32 1023.03 615.32ZM1154.97 615.32C1157.48 615.32 1159.61 612.04 1159.61 608.14C1159.61 605.15 1158.35 602.51 1156.62 601.46L1153.51 614.94C1153.93 615.16 1154.42 615.32 1154.97 615.32Z" />
				<path id="Path" class="shp42" d="M1062.89 595.85C1064.46 599.41 1066.41 601.44 1068.69 601.87C1071.75 602.46 1075.02 600.92 1077.45 598.9C1081.74 595.35 1084.3 589.76 1084.3 583.94L1084.3 579.78C1084.3 577.18 1081.45 575.58 1079.24 576.93C1078.56 577.35 1077.58 577.57 1076.42 577.57C1073.51 577.57 1071.57 576.67 1071.57 572.31C1071.57 572.02 1071.8 570.32 1076.21 565.3C1079.15 561.96 1082.98 558.22 1086.05 555.22C1087.14 554.17 1088.12 553.21 1089 552.33C1089.88 553.21 1090.87 554.17 1091.96 555.23C1095.03 558.23 1098.86 561.96 1101.79 565.3C1106.2 570.32 1106.43 572.02 1106.43 572.31C1106.43 576.67 1104.49 577.57 1101.58 577.57C1100.4 577.57 1099.45 577.35 1098.76 576.93C1096.54 575.58 1093.7 577.18 1093.7 579.78L1093.7 583.94C1093.7 589.76 1096.26 595.35 1100.55 598.9C1103.45 601.3 1106.64 602.39 1109.32 601.87C1116.37 600.52 1118.75 583.62 1118.75 576.13C1118.75 570.58 1122.48 564.55 1124.74 561.41C1125.73 563.27 1127 565.45 1128.32 567.73C1128.93 568.78 1130.28 569.13 1131.33 568.52C1132.38 567.91 1132.73 566.57 1132.12 565.52C1130.38 562.51 1128.73 559.68 1127.75 557.66C1127.28 556.68 1126.36 556.03 1125.29 555.91C1124.21 555.79 1123.17 556.23 1122.5 557.08C1120.05 560.16 1114.35 568.19 1114.35 576.13C1114.35 580.67 1113.6 586.15 1112.38 590.42C1110.85 595.77 1109.16 597.42 1108.49 597.55C1107.49 597.75 1105.54 597.33 1103.35 595.51C1100.06 592.79 1098.1 588.47 1098.1 583.94L1098.1 581.44C1099.14 581.79 1100.3 581.97 1101.58 581.97C1107.54 581.97 1110.82 578.53 1110.82 572.31C1110.82 567.84 1103.97 560.81 1095.02 552.08C1090.96 548.13 1090.93 548.03 1090.56 547.65C1090.15 547.23 1089.59 547 1089 547C1088.42 547 1087.85 547.23 1087.44 547.65C1086.93 548.17 1086.95 548.21 1082.99 552.07C1074.03 560.81 1067.18 567.84 1067.18 572.31C1067.18 578.54 1070.46 581.97 1076.42 581.97C1077.7 581.97 1078.86 581.79 1079.9 581.44L1079.9 583.94C1079.9 588.47 1077.94 592.79 1074.65 595.51C1072.46 597.33 1070.51 597.75 1069.51 597.55C1069.39 597.53 1068.31 597.24 1066.91 594.07C1066.42 592.96 1065.13 592.46 1064.02 592.95C1062.91 593.44 1062.4 594.74 1062.89 595.85L1062.89 595.85Z" />
				<path id="Shape" fill-rule="evenodd" class="shp43" d="M1089 595.27C1094.06 595.27 1098.17 600.47 1098.17 606.85C1098.17 613.24 1094.06 618.43 1089 618.43C1083.94 618.43 1079.83 613.24 1079.83 606.85C1079.83 600.47 1083.94 595.27 1089 595.27ZM1084.23 606.85C1084.23 610.74 1086.41 614.03 1089 614.03C1091.59 614.03 1093.77 610.74 1093.77 606.85C1093.77 602.96 1091.59 599.67 1089 599.67C1086.41 599.67 1084.23 602.96 1084.23 606.85Z" />
				<path id="Shape" fill-rule="evenodd" class="shp27" d="M1089 575.65C1085.16 575.65 1082.16 571.87 1082.16 567.04C1082.16 562.21 1085.16 558.43 1089 558.43C1092.84 558.43 1095.84 562.21 1095.84 567.04C1095.84 571.87 1092.84 575.65 1089 575.65ZM1086.55 567.04C1086.55 569.45 1087.84 571.25 1089 571.25C1090.16 571.25 1091.45 569.45 1091.45 567.04C1091.45 564.63 1090.16 562.83 1089 562.83C1087.84 562.83 1086.55 564.63 1086.55 567.04Z" />
			</g>
		</g>
		<text id="Fantasy Icon Set" style="transform: matrix(1,0,0,1,14,-117)" >
			<tspan x="0" y="0" class="txt44">Fantasy Icon Set</tspan>
		</text>
		<g id="Color Pallet">
			<path id="Oval" class="shp17" d="M954 -135C962.28 -135 969 -141.72 969 -150C969 -158.28 962.28 -165 954 -165C945.72 -165 939 -158.28 939 -150C939 -141.72 945.72 -135 954 -135Z" />
			<path id="Oval" class="shp15" d="M874 -135C882.28 -135 889 -141.72 889 -150C889 -158.28 882.28 -165 874 -165C865.72 -165 859 -158.28 859 -150C859 -141.72 865.72 -135 874 -135Z" />
			<path id="Oval" class="shp13" d="M914 -135C922.28 -135 929 -141.72 929 -150C929 -158.28 922.28 -165 914 -165C905.72 -165 899 -158.28 899 -150C899 -141.72 905.72 -135 914 -135Z" />
			<path id="Oval" class="shp25" d="M1034 -135C1042.28 -135 1049 -141.72 1049 -150C1049 -158.28 1042.28 -165 1034 -165C1025.72 -165 1019 -158.28 1019 -150C1019 -141.72 1025.72 -135 1034 -135Z" />
			<path id="Oval" class="shp16" d="M994 -135C1002.28 -135 1009 -141.72 1009 -150C1009 -158.28 1002.28 -165 994 -165C985.72 -165 979 -158.28 979 -150C979 -141.72 985.72 -135 994 -135Z" />
			<path id="Oval" class="shp22" d="M834 -135C842.28 -135 849 -141.72 849 -150C849 -158.28 842.28 -165 834 -165C825.72 -165 819 -158.28 819 -150C819 -141.72 825.72 -135 834 -135Z" />
			<path id="Oval" class="shp45" d="M1114 -135C1122.28 -135 1129 -141.72 1129 -150C1129 -158.28 1122.28 -165 1114 -165C1105.72 -165 1099 -158.28 1099 -150C1099 -141.72 1105.72 -135 1114 -135Z" />
			<path id="Oval" class="shp27" d="M1074 -135C1082.28 -135 1089 -141.72 1089 -150C1089 -158.28 1082.28 -165 1074 -165C1065.72 -165 1059 -158.28 1059 -150C1059 -141.72 1065.72 -135 1074 -135Z" />
		</g>
	</g>
</svg>