<svg xmlns="http://www.w3.org/2000/svg" viewBox="0 0 175 175" width="175" height="175">
	<defs>
		<clipPath clipPathUnits="userSpaceOnUse" id="cp1">
			<path d="M-963 -873L637 -873L637 327L-963 327Z" />
		</clipPath>
	</defs>
	<style>
		tspan { white-space:pre }
		.shp0 { fill: #f8e71c } 
		.shp1 { fill: #27cedb } 
		.shp2 { fill: #4a90e2 } 
		.shp3 { fill: #ffa7e6 } 
		.shp4 { fill: #bd10e0 } 
		.shp5 { fill: #ff00b6 } 
		.shp6 { fill: #ffffff } 
		.shp7 { fill: #ffcb74 } 
		.shp8 { fill: #fff683 } 
		.shp9 { fill: #ff0082 } 
		.shp10 { fill: #50e38c } 
		.txt11 { font-size: 100px;fill: #ffffff;font-family: "Leckerli One";font-weight: 400 } 
		.shp12 { fill: #9013fe } 
		.shp13 { fill: #50e3c2 } 
		.shp14 { fill: #f8c61c } 
	</style>
	<g id="Dribbble Shot" clip-path="url(#cp1)">
		<g id="Castle">
			<g id="Icon">
				<path id="Path" class="shp0" d="M142 122C140.62 122 139.5 123.12 139.5 124.5L139.5 129.5C139.5 130.88 140.62 132 142 132C143.38 132 144.5 130.88 144.5 129.5L144.5 124.5C144.5 123.12 143.38 122 142 122Z" />
				<path id="Path" class="shp1" d="M73.38 61.74C74.62 62.36 76.12 61.85 76.74 60.62L84.5 45.09L84.5 59.5C84.5 60.88 85.62 62 87 62C88.38 62 89.5 60.88 89.5 59.5L89.5 45.09L97.26 60.62C97.7 61.5 98.58 62 99.5 62C99.88 62 100.26 61.92 100.62 61.74C101.85 61.12 102.36 59.62 101.74 58.38L89.5 33.91L89.5 22L102 22L102 27L94.5 27C93.12 27 92 28.12 92 29.5C92 30.88 93.12 32 94.5 32L104.5 32C105.88 32 107 30.88 107 29.5L107 19.5C107 18.12 105.88 17 104.5 17L87 17C85.62 17 84.5 18.12 84.5 19.5L84.5 33.91L72.26 58.38C71.64 59.62 72.15 61.12 73.38 61.74Z" />
				<path id="Path" class="shp2" d="M99.5 97C100.88 97 102 95.88 102 94.5L102 72L104.5 72C105.88 72 107 70.88 107 69.5C107 68.12 105.88 67 104.5 67L69.5 67C68.12 67 67 68.12 67 69.5C67 70.88 68.12 72 69.5 72L72 72L72 94.5C72 95.88 73.12 97 74.5 97C75.88 97 77 95.88 77 94.5L77 72L97 72L97 94.5C97 95.88 98.12 97 99.5 97Z" />
				<path id="Path" class="shp0" d="M84.5 84.5L84.5 89.5C84.5 90.88 85.62 92 87 92C88.38 92 89.5 90.88 89.5 89.5L89.5 84.5C89.5 83.12 88.38 82 87 82C85.62 82 84.5 83.12 84.5 84.5Z" />
				<path id="Path" class="shp2" d="M124.5 92L127 92L127 94.5C127 95.88 128.12 97 129.5 97C130.88 97 132 95.88 132 94.5L132 92L152 92L152 142C152 143.38 153.12 144.5 154.5 144.5C155.88 144.5 157 143.38 157 142L157 92L159.5 92C160.88 92 162 90.88 162 89.5C162 88.12 160.88 87 159.5 87L124.5 87C123.12 87 122 88.12 122 89.5C122 90.88 123.12 92 124.5 92Z" />
				<path id="Path" class="shp3" d="M132 42C132 43.38 133.12 44.5 134.5 44.5C135.88 44.5 137 43.38 137 42C138.38 42 139.5 40.88 139.5 39.5C139.5 38.12 138.38 37 137 37C137 35.62 135.88 34.5 134.5 34.5C133.12 34.5 132 35.62 132 37C130.62 37 129.5 38.12 129.5 39.5C129.5 40.88 130.62 42 132 42Z" />
				<path id="Path" class="shp1" d="M128.38 81.74C129.62 82.36 131.12 81.85 131.74 80.62L139.5 65.09L139.5 79.5C139.5 80.88 140.62 82 142 82C143.38 82 144.5 80.88 144.5 79.5L144.5 65.09L152.26 80.62C152.7 81.5 153.58 82 154.5 82C154.88 82 155.26 81.92 155.62 81.74C156.85 81.12 157.35 79.62 156.74 78.38L144.24 53.38C144.13 53.17 143.99 52.98 143.82 52.82C143.37 52.32 142.73 52 142 52C141.27 52 140.63 52.32 140.18 52.82C140.01 52.98 139.87 53.17 139.76 53.38L127.26 78.38C126.65 79.62 127.15 81.12 128.38 81.74Z" />
				<path id="Shape" fill-rule="evenodd" class="shp0" d="M102 142L102 164.5C102 165.88 100.88 167 99.5 167L74.5 167C73.12 167 72 165.88 72 164.5L72 142C72 133.73 78.73 127 87 127C95.27 127 102 133.73 102 142ZM97 157L77 157L77 162L97 162L97 157ZM97 147L77 147L77 152L97 152L97 147ZM97 142C97 136.49 92.52 132 87 132C81.49 132 77 136.48 77 142L97 142Z" />
				<path id="Path" class="shp0" d="M144.5 104.5C144.5 103.12 143.38 102 142 102C140.62 102 139.5 103.12 139.5 104.5L139.5 109.5C139.5 110.88 140.62 112 142 112C143.38 112 144.5 110.88 144.5 109.5L144.5 104.5Z" />
				<path id="Path" class="shp3" d="M62 24.5C62 25.88 63.12 27 64.5 27C65.88 27 67 25.88 67 24.5C68.38 24.5 69.5 23.38 69.5 22C69.5 20.62 68.38 19.5 67 19.5C67 18.12 65.88 17 64.5 17C63.12 17 62 18.12 62 19.5C60.62 19.5 59.5 20.62 59.5 22C59.5 23.38 60.62 24.5 62 24.5Z" />
				<path id="Path" class="shp0" d="M32 122C30.62 122 29.5 123.12 29.5 124.5L29.5 129.5C29.5 130.88 30.62 132 32 132C33.38 132 34.5 130.88 34.5 129.5L34.5 124.5C34.5 123.12 33.38 122 32 122Z" />
				<path id="Shape" fill-rule="evenodd" class="shp4" d="M67 154.5L67 164.5C67 165.88 65.88 167 64.5 167L14.5 167C13.12 167 12 165.88 12 164.5L12 154.5C12 151.74 14.24 149.5 17 149.5C17.91 149.5 18.76 149.75 19.5 150.17C20.97 149.32 23.03 149.32 24.5 150.17C25.97 149.32 28.03 149.32 29.5 150.17C30.97 149.32 33.03 149.32 34.5 150.17C35.97 149.32 38.03 149.32 39.5 150.17C40.97 149.32 43.03 149.32 44.5 150.17C45.97 149.32 48.03 149.32 49.5 150.17C50.97 149.32 53.03 149.32 54.5 150.17C55.97 149.32 58.03 149.32 59.5 150.17C60.23 149.75 61.09 149.5 62 149.5C64.76 149.5 67 151.74 67 154.5ZM62 162L62 154.5C62 155.88 60.88 157 59.5 157C58.12 157 57 155.88 57 154.5C57 155.88 55.88 157 54.5 157C53.12 157 52 155.88 52 154.5C52 155.88 50.88 157 49.5 157C48.12 157 47 155.88 47 154.5C47 155.88 45.88 157 44.5 157C43.12 157 42 155.88 42 154.5C42 155.88 40.88 157 39.5 157C38.12 157 37 155.88 37 154.5C37 155.88 35.88 157 34.5 157C33.12 157 32 155.88 32 154.5C32 155.88 30.88 157 29.5 157C28.12 157 27 155.88 27 154.5C27 155.88 25.88 157 24.5 157C23.12 157 22 155.88 22 154.5C22 155.88 20.88 157 19.5 157C18.12 157 17 155.88 17 154.5L17 162L62 162Z" />
				<path id="Shape" fill-rule="evenodd" class="shp4" d="M162 154.5L162 164.5C162 165.88 160.88 167 159.5 167L109.5 167C108.12 167 107 165.88 107 164.5L107 154.5C107 151.74 109.24 149.5 112 149.5C112.91 149.5 113.76 149.75 114.5 150.17C115.97 149.32 118.03 149.32 119.5 150.17C120.97 149.32 123.03 149.32 124.5 150.17C125.97 149.32 128.03 149.32 129.5 150.17C130.97 149.32 133.03 149.32 134.5 150.17C135.97 149.32 138.03 149.32 139.5 150.17C140.97 149.32 143.03 149.32 144.5 150.17C145.97 149.32 148.03 149.32 149.5 150.17C150.97 149.32 153.03 149.32 154.5 150.17C155.23 149.75 156.09 149.5 157 149.5C159.76 149.5 162 151.74 162 154.5ZM157 162L157 154.5C157 155.88 155.88 157 154.5 157C153.12 157 152 155.88 152 154.5C152 155.88 150.88 157 149.5 157C148.12 157 147 155.88 147 154.5C147 155.88 145.88 157 144.5 157C143.12 157 142 155.88 142 154.5C142 155.88 140.88 157 139.5 157C138.12 157 137 155.88 137 154.5C137 155.88 135.88 157 134.5 157C133.12 157 132 155.88 132 154.5C132 155.88 130.88 157 129.5 157C128.12 157 127 155.88 127 154.5C127 155.88 125.88 157 124.5 157C123.12 157 122 155.88 122 154.5C122 155.88 120.88 157 119.5 157C118.12 157 117 155.88 117 154.5C117 155.88 115.88 157 114.5 157C113.12 157 112 155.88 112 154.5L112 162L157 162Z" />
				<path id="Path" class="shp1" d="M18.38 81.74C19.62 82.36 21.12 81.85 21.74 80.62L29.5 65.09L29.5 79.5C29.5 80.88 30.62 82 32 82C33.38 82 34.5 80.88 34.5 79.5L34.5 65.09L42.26 80.62C42.7 81.5 43.58 82 44.5 82C44.88 82 45.26 81.92 45.62 81.74C46.85 81.12 47.36 79.62 46.74 78.38L34.24 53.38C34.13 53.17 33.99 52.98 33.82 52.82C33.37 52.32 32.73 52 32 52C31.27 52 30.63 52.32 30.18 52.82C30.01 52.98 29.87 53.17 29.76 53.38L17.26 78.38C16.65 79.62 17.15 81.12 18.38 81.74Z" />
				<path id="Path" class="shp5" d="M122 114.5L122 107L127 107L127 142C127 143.38 128.12 144.5 129.5 144.5C130.88 144.5 132 143.38 132 142L132 104.5C132 103.12 130.88 102 129.5 102L119.5 102C118.12 102 117 103.12 117 104.5L117 112L107 112L107 104.5C107 103.12 105.88 102 104.5 102L94.5 102C93.12 102 92 103.12 92 104.5L92 112L82 112L82 104.5C82 103.12 80.88 102 79.5 102L69.5 102C68.12 102 67 103.12 67 104.5L67 112L57 112L57 104.5C57 103.12 55.88 102 54.5 102L44.5 102C43.12 102 42 103.12 42 104.5L42 142C42 143.38 43.12 144.5 44.5 144.5C45.88 144.5 47 143.38 47 142L47 107L52 107L52 114.5C52 115.88 53.12 117 54.5 117L69.5 117C70.88 117 72 115.88 72 114.5L72 107L77 107L77 114.5C77 115.88 78.12 117 79.5 117L94.5 117C95.88 117 97 115.88 97 114.5L97 107L102 107L102 114.5C102 115.88 103.12 117 104.5 117L119.5 117C120.88 117 122 115.88 122 114.5Z" />
				<path id="Path" class="shp3" d="M14.5 32L17 32L17 34.5C17 35.88 18.12 37 19.5 37C20.88 37 22 35.88 22 34.5L22 32L24.5 32C25.88 32 27 30.88 27 29.5C27 28.12 25.88 27 24.5 27L22 27L22 24.5C22 23.12 20.88 22 19.5 22C18.12 22 17 23.12 17 24.5L17 27L14.5 27C13.12 27 12 28.12 12 29.5C12 30.88 13.12 32 14.5 32Z" />
				<path id="Path" class="shp2" d="M14.5 92L17 92L17 144.5C17 145.88 18.12 147 19.5 147C20.88 147 22 145.88 22 144.5L22 92L42 92L42 94.5C42 95.88 43.12 97 44.5 97C45.88 97 47 95.88 47 94.5L47 92L49.5 92C50.88 92 52 90.88 52 89.5C52 88.12 50.88 87 49.5 87L14.5 87C13.12 87 12 88.12 12 89.5C12 90.88 13.12 92 14.5 92Z" />
				<path id="Path" class="shp0" d="M34.5 104.5C34.5 103.12 33.38 102 32 102C30.62 102 29.5 103.12 29.5 104.5L29.5 109.5C29.5 110.88 30.62 112 32 112C33.38 112 34.5 110.88 34.5 109.5L34.5 104.5Z" />
			</g>
		</g>
		<g id="Crown">
			<path id="Spacing" class="shp6" d="M262 17L412 17L412 167L262 167L262 17Z" />
			<g id="Icon">
				<path id="Shape" fill-rule="evenodd" class="shp7" d="M405.63 97.06C409.36 98.49 412 102.85 412 108.14C412 114.64 408.03 119.72 402.97 119.72C402.13 119.72 401.3 119.58 400.51 119.3L399.5 123.67C401.36 124.26 402.71 126.01 402.71 128.06L402.71 132.04C402.71 134.58 400.64 136.65 398.1 136.65L374.57 136.65C373.35 136.65 372.37 135.66 372.37 134.45C372.37 133.23 373.35 132.25 374.57 132.25L398.1 132.25C398.22 132.25 398.31 132.15 398.31 132.04L398.31 128.06C398.31 127.95 398.22 127.85 398.1 127.85L275.9 127.85C275.78 127.85 275.69 127.95 275.69 128.06L275.69 132.04C275.69 132.15 275.78 132.25 275.9 132.25L365.01 132.25C366.23 132.25 367.21 133.23 367.21 134.45C367.21 135.66 366.23 136.65 365.01 136.65L275.9 136.65C273.36 136.65 271.29 134.58 271.29 132.04L271.29 128.06C271.29 126.01 272.64 124.26 274.5 123.67L273.49 119.3C272.7 119.58 271.87 119.72 271.03 119.72C265.96 119.72 262 114.64 262 108.14C262 102.85 264.64 98.49 268.37 97.06L265.18 83.24C264.51 80.32 267.93 78.19 270.23 80.12C272.22 81.79 275.32 84.02 278.75 85.16C281.24 85.98 283.05 87.8 283.83 90.29C284.71 93.05 284.18 96.42 282.51 98.66C281.61 99.88 281.8 101.5 282.95 102.36C284.23 103.31 285.84 103.8 287.72 103.8C290.98 103.8 292.76 96.65 293.13 89.46C290 89.77 287.43 88.74 285.94 86.53C283.88 83.45 286.91 77.51 293.82 65.61C295.59 62.56 297.27 59.68 298.25 57.66C298.72 56.68 299.64 56.03 300.71 55.91C301.79 55.79 302.83 56.23 303.5 57.07C305.95 60.16 311.65 68.19 311.65 76.13C311.65 78.97 311.95 82.27 312.5 85.41C312.7 86.61 311.9 87.74 310.71 87.95C309.51 88.16 308.37 87.36 308.17 86.16C307.58 82.78 307.25 79.22 307.25 76.13C307.25 70.58 303.52 64.55 301.26 61.41C300.26 63.29 298.97 65.51 297.62 67.82C296.06 70.5 289.57 81.36 289.69 84.21C290.65 85.42 292.69 85.16 293.85 84.89C295.79 84.43 297.63 85.92 297.59 87.91C297.45 94.01 296.21 108.2 287.72 108.2C284.87 108.2 282.38 107.42 280.33 105.89C277.25 103.6 276.65 99.18 278.98 96.04C279.7 95.07 280.16 93.24 279.64 91.62C279.28 90.48 278.52 89.71 277.37 89.33C274.71 88.45 272.26 87.06 270.25 85.66L277.09 115.33C277.09 115.34 277.09 115.34 277.09 115.35L278.96 123.45L395.04 123.45L396.91 115.35C396.91 115.34 396.91 115.34 396.91 115.33L403.75 85.66C401.74 87.06 399.29 88.45 396.63 89.33C395.48 89.71 394.72 90.48 394.36 91.62C393.84 93.24 394.3 95.07 395.02 96.04C397.35 99.18 396.75 103.6 393.67 105.89C391.62 107.42 389.13 108.2 386.28 108.2C377.79 108.2 376.55 94.01 376.42 87.91C376.37 85.92 378.21 84.43 380.15 84.89C381.31 85.16 383.35 85.42 384.32 84.2C384.34 83.74 384.14 81.87 380.91 75.82C380.33 74.75 380.74 73.42 381.81 72.84C382.88 72.27 384.21 72.68 384.78 73.75C388.61 80.92 389.5 84.38 388.06 86.53C386.57 88.74 384.01 89.76 380.87 89.46C381.24 96.65 383.02 103.8 386.28 103.8C388.16 103.8 389.77 103.31 391.05 102.36C392.2 101.5 392.39 99.88 391.49 98.66C389.83 96.42 389.29 93.05 390.17 90.29C390.95 87.8 392.76 85.98 395.25 85.16C398.68 84.02 401.78 81.79 403.77 80.12C406.07 78.2 409.49 80.32 408.82 83.24L405.63 97.06ZM271.03 115.32C271.58 115.32 272.07 115.16 272.49 114.94L269.38 101.46C267.65 102.51 266.39 105.15 266.39 108.14C266.39 112.04 268.52 115.32 271.03 115.32ZM402.97 115.32C405.48 115.32 407.61 112.04 407.61 108.14C407.61 105.15 406.35 102.51 404.62 101.46L401.51 114.94C401.93 115.16 402.42 115.32 402.97 115.32Z" />
				<path id="Path" class="shp8" d="M310.89 95.85C312.46 99.41 314.41 101.44 316.69 101.87C319.75 102.46 323.02 100.92 325.45 98.9C329.74 95.35 332.3 89.76 332.3 83.94L332.3 79.78C332.3 77.18 329.45 75.58 327.24 76.93C326.56 77.35 325.58 77.57 324.42 77.57C321.51 77.57 319.57 76.67 319.57 72.31C319.57 72.02 319.8 70.32 324.21 65.3C327.15 61.96 330.98 58.22 334.05 55.22C335.14 54.17 336.12 53.21 337 52.33C337.88 53.21 338.87 54.17 339.96 55.23C343.03 58.23 346.86 61.96 349.79 65.3C354.2 70.32 354.43 72.02 354.43 72.31C354.43 76.67 352.49 77.57 349.58 77.57C348.4 77.57 347.45 77.35 346.76 76.93C344.54 75.58 341.7 77.18 341.7 79.78L341.7 83.94C341.7 89.76 344.26 95.35 348.55 98.9C351.45 101.3 354.64 102.39 357.32 101.87C364.37 100.52 366.75 83.62 366.75 76.13C366.75 70.58 370.48 64.55 372.74 61.41C373.73 63.27 375 65.45 376.32 67.73C376.93 68.78 378.28 69.13 379.33 68.52C380.38 67.91 380.73 66.57 380.12 65.52C378.38 62.51 376.73 59.68 375.75 57.66C375.28 56.68 374.36 56.03 373.29 55.91C372.21 55.79 371.17 56.23 370.5 57.08C368.05 60.16 362.35 68.19 362.35 76.13C362.35 80.67 361.6 86.15 360.38 90.42C358.85 95.77 357.16 97.42 356.49 97.55C355.49 97.75 353.54 97.33 351.35 95.51C348.06 92.79 346.1 88.47 346.1 83.94L346.1 81.44C347.14 81.79 348.3 81.97 349.58 81.97C355.54 81.97 358.82 78.53 358.82 72.31C358.82 67.84 351.97 60.81 343.02 52.08C338.96 48.13 338.93 48.03 338.56 47.65C338.15 47.23 337.59 47 337 47C336.42 47 335.85 47.23 335.44 47.65C334.93 48.17 334.95 48.21 330.99 52.07C322.03 60.81 315.18 67.84 315.18 72.31C315.18 78.54 318.46 81.97 324.42 81.97C325.7 81.97 326.86 81.79 327.9 81.44L327.9 83.94C327.9 88.47 325.94 92.79 322.65 95.51C320.46 97.33 318.51 97.75 317.51 97.55C317.39 97.53 316.31 97.24 314.91 94.07C314.42 92.96 313.13 92.46 312.02 92.95C310.91 93.44 310.4 94.74 310.89 95.85L310.89 95.85Z" />
				<path id="Shape" fill-rule="evenodd" class="shp9" d="M337 95.27C342.06 95.27 346.17 100.47 346.17 106.85C346.17 113.24 342.06 118.43 337 118.43C331.94 118.43 327.83 113.24 327.83 106.85C327.83 100.47 331.94 95.27 337 95.27ZM332.23 106.85C332.23 110.74 334.41 114.03 337 114.03C339.59 114.03 341.77 110.74 341.77 106.85C341.77 102.96 339.59 99.67 337 99.67C334.41 99.67 332.23 102.96 332.23 106.85Z" />
				<path id="Shape" fill-rule="evenodd" class="shp10" d="M337 75.65C333.16 75.65 330.16 71.87 330.16 67.04C330.16 62.21 333.16 58.43 337 58.43C340.84 58.43 343.84 62.21 343.84 67.04C343.84 71.87 340.84 75.65 337 75.65ZM334.55 67.04C334.55 69.45 335.84 71.25 337 71.25C338.16 71.25 339.45 69.45 339.45 67.04C339.45 64.63 338.16 62.83 337 62.83C335.84 62.83 334.55 64.63 334.55 67.04Z" />
			</g>
		</g>
		<text id="Fantasy Icon Set" style="transform: matrix(1,0,0,1,-738,-617)" >
			<tspan x="0" y="0" class="txt11">Fantasy Icon Set</tspan>
		</text>
		<g id="Color Pallet">
			<path id="Oval" class="shp2" d="M202 -635C210.28 -635 217 -641.72 217 -650C217 -658.28 210.28 -665 202 -665C193.72 -665 187 -658.28 187 -650C187 -641.72 193.72 -635 202 -635Z" />
			<path id="Oval" class="shp4" d="M122 -635C130.28 -635 137 -641.72 137 -650C137 -658.28 130.28 -665 122 -665C113.72 -665 107 -658.28 107 -650C107 -641.72 113.72 -635 122 -635Z" />
			<path id="Oval" class="shp12" d="M162 -635C170.28 -635 177 -641.72 177 -650C177 -658.28 170.28 -665 162 -665C153.72 -665 147 -658.28 147 -650C147 -641.72 153.72 -635 162 -635Z" />
			<path id="Oval" class="shp13" d="M282 -635C290.28 -635 297 -641.72 297 -650C297 -658.28 290.28 -665 282 -665C273.72 -665 267 -658.28 267 -650C267 -641.72 273.72 -635 282 -635Z" />
			<path id="Oval" class="shp1" d="M242 -635C250.28 -635 257 -641.72 257 -650C257 -658.28 250.28 -665 242 -665C233.72 -665 227 -658.28 227 -650C227 -641.72 233.72 -635 242 -635Z" />
			<path id="Oval" class="shp5" d="M82 -635C90.28 -635 97 -641.72 97 -650C97 -658.28 90.28 -665 82 -665C73.72 -665 67 -658.28 67 -650C67 -641.72 73.72 -635 82 -635Z" />
			<path id="Oval" class="shp14" d="M362 -635C370.28 -635 377 -641.72 377 -650C377 -658.28 370.28 -665 362 -665C353.72 -665 347 -658.28 347 -650C347 -641.72 353.72 -635 362 -635Z" />
			<path id="Oval" class="shp10" d="M322 -635C330.28 -635 337 -641.72 337 -650C337 -658.28 330.28 -665 322 -665C313.72 -665 307 -658.28 307 -650C307 -641.72 313.72 -635 322 -635Z" />
		</g>
	</g>
</svg>