<svg xmlns="http://www.w3.org/2000/svg" viewBox="0 0 175 175" width="175" height="175">
	<defs>
		<clipPath clipPathUnits="userSpaceOnUse" id="cp1">
			<path d="M-961 -374L639 -374L639 826L-961 826Z" />
		</clipPath>
	</defs>
	<style>
		tspan { white-space:pre }
		.shp0 { fill: #ffffff } 
		.shp1 { fill: #ac4eff } 
		.shp2 { fill: #e463ff } 
		.shp3 { fill: #f8e71c } 
		.shp4 { fill: #23f5a5 } 
		.shp5 { fill: #8a64ff } 
		.shp6 { fill: #f831e3 } 
		.shp7 { fill: #c713ef } 
		.shp8 { fill: #5b90ff } 
		.shp9 { fill: #fff35a } 
		.shp10 { fill: #a0fff5 } 
		.shp11 { fill: #ff008b } 
		.shp12 { fill: #ff8edf } 
		.shp13 { fill: #9013fe } 
		.shp14 { fill: #bfdcff } 
		.shp15 { fill: #bd10e0 } 
		.shp16 { fill: #27cedb } 
		.shp17 { fill: #ff00b6 } 
		.shp18 { fill: #bf00ff } 
		.shp19 { fill: #ff0076 } 
		.shp20 { fill: #50e3c2 } 
		.shp21 { fill: #4a90e2 } 
		.shp22 { fill: #ff00f5 } 
		.shp23 { fill: #50e38c } 
		.shp24 { fill: #6fd6d9 } 
		.shp25 { fill: #e800ff } 
		.shp26 { fill: #ff0053 } 
		.shp27 { fill: #3c57ff } 
		.shp28 { fill: #0f7cfa } 
		.shp29 { fill: #00ffc6 } 
		.shp30 { fill: #9210e0 } 
		.shp31 { fill: #ff008f } 
		.shp32 { fill: #f59b23 } 
		.shp33 { fill: #f5c823 } 
		.shp34 { fill: #ffa7e6 } 
		.shp35 { fill: #ffcb74 } 
		.shp36 { fill: #fff683 } 
		.shp37 { fill: #ff0082 } 
		.txt38 { font-size: 100px;fill: #ffffff;font-family: "Leckerli One";font-weight: 400 } 
		.shp39 { fill: #f8c61c } 
	</style>
	<g id="Dribbble Shot" clip-path="url(#cp1)">
		<g id="Wizard Hat">
			<path id="Spacing" class="shp0" d="M14 266L164 266L164 416L14 416L14 266Z" />
			<g id="Icon">
				<path id="Shape" fill-rule="evenodd" class="shp1" d="M163.43 393.81C163.43 398.17 159.92 402.12 153.01 405.52C152.69 405.68 152.36 405.75 152.03 405.75C151.21 405.75 150.43 405.31 150.05 404.53C149.5 403.45 149.95 402.13 151.04 401.59C156.18 399.06 159 396.29 159 393.81C159 390.39 153.45 385.46 138.15 381.45L140 385.91C140.28 386.58 140.2 387.35 139.8 387.96C139.4 388.56 129.49 402.76 88.71 402.76C47.94 402.76 38.03 388.56 37.63 387.96C37.23 387.35 37.15 386.58 37.43 385.91L39.28 381.46C33.21 383.05 28.17 384.94 24.57 386.98C22.27 388.29 18.42 390.9 18.42 393.81C18.42 398.68 28.56 403.21 38.04 405.83C51.55 409.55 69.54 411.61 88.71 411.61C108.51 411.61 127.6 409.33 141.07 405.35C142.24 405 143.47 405.67 143.82 406.83C144.17 407.99 143.5 409.22 142.33 409.56C128.26 413.71 109.22 416 88.71 416C52.49 416 14 408.22 14 393.81C14 389.9 16.82 386.32 22.38 383.17C27.01 380.54 33.4 378.27 41.38 376.41L62.58 325.37C63.04 324.25 64.34 323.72 65.47 324.18C66.6 324.64 67.13 325.93 66.67 327.05L50.38 366.27C57.22 369.43 69.12 372.8 88.71 372.8C108.31 372.8 120.2 369.43 127.05 366.27L123.51 357.74C122.42 355.12 126.51 353.45 127.6 356.06L136.05 376.41C136.07 376.41 136.08 376.41 136.1 376.42C144.27 378.33 150.76 380.67 155.4 383.37C160.73 386.47 163.43 389.99 163.43 393.81ZM135.39 386.35L128.74 370.33C116.43 375.97 100.35 377.2 88.71 377.2C77.08 377.2 61 375.97 48.69 370.33L42.03 386.35C43.16 387.5 45.72 389.7 50.51 391.9C62.17 397.25 77.72 398.37 88.71 398.37C108.99 398.37 120.94 394.73 127.4 391.67C131.91 389.54 134.32 387.46 135.39 386.35Z" />
				<path id="Path" class="shp2" d="M140.01 312.87L115.1 267.15C114.71 266.44 113.96 266 113.15 266L88.76 266C87.86 266 87.05 266.54 86.71 267.36L66.78 315.39C66.32 316.51 66.86 317.8 67.98 318.26C69.11 318.72 70.41 318.19 70.87 317.06L90.24 270.4L111.84 270.4L131.35 306.21L108.75 289.5L110.31 288.02C111.2 287.18 111.23 285.79 110.39 284.91C109.55 284.03 108.15 284 107.26 284.83L100.69 291.2L97.93 284.54C97.46 283.42 96.17 282.88 95.04 283.35C93.91 283.81 93.37 285.1 93.84 286.22L119.39 347.79C120.48 350.4 124.57 348.73 123.48 346.11L102.52 295.6L105.54 292.61L136.75 315.68C137.58 316.3 138.73 316.25 139.51 315.58C140.3 314.9 140.5 313.77 140.01 312.87Z" />
				<path id="Shape" fill-rule="evenodd" class="shp3" d="M103.3 345.54L97.88 350.73L99.16 358.06C99.46 359.8 97.53 361.18 95.94 360.35L89.23 356.9L82.53 360.35C80.93 361.18 79 359.8 79.31 358.06L80.59 350.73L75.16 345.54C73.87 344.3 74.61 342.08 76.39 341.83L83.89 340.76L87.24 334.09C88.04 332.5 90.43 332.5 91.22 334.09L94.58 340.76L102.07 341.83C102.91 341.94 103.6 342.52 103.86 343.31C104.12 344.1 103.91 344.96 103.3 345.54ZM96.98 345.5L92.78 344.9C92.06 344.8 91.43 344.36 91.11 343.71L89.23 339.98L87.35 343.71C87.03 344.36 86.41 344.8 85.68 344.9L81.48 345.5L84.52 348.41C85.05 348.91 85.28 349.63 85.16 350.34L84.44 354.44L88.2 352.5C88.85 352.17 89.62 352.17 90.27 352.5L94.02 354.44L93.3 350.34C93.18 349.63 93.42 348.91 93.94 348.41L96.98 345.5Z" />
			</g>
		</g>
		<g id="Sparkle Smoke">
			<path id="Spacing" class="shp0" d="M-236 266L-86 266L-86 416L-236 416L-236 266Z" />
			<g id="Icon">
				<path id="Path" class="shp4" d="M-122.48 379.02C-123.79 379.02 -124.84 380.02 -124.84 381.26L-124.84 387.2C-124.84 388.43 -123.79 389.44 -122.48 389.44C-121.18 389.44 -120.12 388.43 -120.12 387.2L-120.12 381.26C-120.12 380.02 -121.18 379.02 -122.48 379.02Z" />
				<path id="Path" class="shp4" d="M-122.48 395.17C-123.79 395.17 -124.84 396.17 -124.84 397.41L-124.84 403.34C-124.84 404.58 -123.79 405.58 -122.48 405.58C-121.18 405.58 -120.12 404.58 -120.12 403.34L-120.12 397.41C-120.12 396.17 -121.18 395.17 -122.48 395.17Z" />
				<path id="Path" class="shp4" d="M-111.37 389.96L-117.34 389.96C-118.59 389.96 -119.6 391.01 -119.6 392.3C-119.6 393.6 -118.59 394.65 -117.34 394.65L-111.37 394.65C-110.12 394.65 -109.11 393.6 -109.11 392.3C-109.11 391.01 -110.12 389.96 -111.37 389.96Z" />
				<path id="Path" class="shp4" d="M-127.1 389.96L-133.07 389.96C-134.32 389.96 -135.33 391.01 -135.33 392.3C-135.33 393.6 -134.32 394.65 -133.07 394.65L-127.1 394.65C-125.85 394.65 -124.84 393.6 -124.84 392.3C-124.84 391.01 -125.85 389.96 -127.1 389.96Z" />
				<path id="Path" class="shp5" d="M-131.35 324.82C-132.55 324.57 -133.73 325.35 -133.98 326.55C-134.82 330.58 -137.53 333.64 -142.52 336.2C-144.28 337.09 -146.26 337.89 -148.36 338.6C-147.58 337.19 -146.98 335.56 -146.58 333.65C-145.57 328.74 -146.54 324.81 -149.46 321.97C-153.06 318.47 -159.47 316.93 -168.52 317.4C-174.7 317.72 -179.93 318.87 -180.57 319.01C-187.71 320.28 -193.82 320.81 -199.08 320.81C-220.4 320.81 -227.48 312.03 -229.69 307.56C-231.7 303.51 -232.07 298.8 -230.76 293.95C-229.46 289.15 -226.53 284.48 -222.51 280.81C-221.6 279.98 -221.54 278.57 -222.37 277.66C-223.2 276.75 -224.61 276.69 -225.52 277.52C-230.17 281.76 -233.56 287.18 -235.07 292.79C-236.67 298.7 -236.2 304.49 -233.7 309.53C-230.57 315.86 -224.44 320.53 -215.98 323.04C-206.49 325.86 -194.3 325.98 -179.74 323.39C-179.7 323.38 -179.66 323.37 -179.62 323.37C-173.96 322.06 -158.05 319.83 -152.57 325.16C-150.79 326.89 -150.26 329.38 -150.96 332.75C-152.4 339.75 -157.42 342.48 -169.47 342.8C-170.7 342.83 -171.68 343.85 -171.64 345.08C-171.61 346.29 -170.62 347.25 -169.41 347.25C-169.39 347.25 -169.37 347.25 -169.35 347.25C-165.75 347.15 -162.19 346.87 -158.99 346.07C-145.19 343.01 -131.96 338.85 -129.61 327.45C-129.36 326.24 -130.14 325.07 -131.35 324.82Z" />
				<path id="Path" class="shp6" d="M-127.84 298C-133.76 297.24 -140.37 296.86 -147.49 296.86C-153.93 296.86 -160.36 297.33 -166.58 297.79C-174.88 298.4 -183.4 299.03 -188.12 297.91C-188.25 297.86 -188.38 297.83 -188.53 297.8C-189.77 297.46 -190.72 296.98 -191.27 296.32C-191.51 296.04 -192.22 295.19 -191.56 292.71C-189.45 284.8 -178.98 281.1 -170.57 279.38C-160.99 277.43 -151.81 277.57 -151.72 277.58C-150.65 277.59 -149.7 276.85 -149.48 275.81C-149.26 274.76 -149.83 273.71 -150.82 273.3C-151.21 273.14 -160.4 269.42 -173.13 267.33C-184.97 265.39 -202.19 264.61 -216.93 271.87C-218.04 272.42 -218.49 273.75 -217.94 274.85C-217.39 275.95 -216.04 276.4 -214.93 275.85C-201.3 269.13 -185.12 269.88 -173.96 271.7C-170.26 272.3 -166.85 273.06 -163.89 273.82C-175.83 275.21 -192.63 279.35 -195.9 291.58C-196.33 293.19 -196.43 294.66 -196.19 295.97C-200.18 294.22 -203.44 290.88 -203.44 284.28C-203.44 283.05 -204.45 282.06 -205.68 282.06C-206.92 282.06 -207.92 283.05 -207.92 284.28C-207.92 297.34 -197.75 301.23 -189.18 302.2C-186.84 302.77 -183.99 302.98 -180.75 302.98C-176.51 302.98 -171.6 302.62 -166.24 302.22C-160.11 301.77 -153.77 301.3 -147.49 301.3C-140.56 301.3 -134.14 301.67 -128.42 302.41C-127.2 302.56 -126.07 301.71 -125.91 300.49C-125.75 299.27 -126.62 298.16 -127.84 298Z" />
				<path id="Path" class="shp7" d="M-89.97 317.34C-92.81 312.51 -97.19 308.47 -102.99 305.33C-104.07 304.75 -105.43 305.15 -106.01 306.22C-106.6 307.3 -106.2 308.65 -105.12 309.23C-95.42 314.47 -90.51 322.32 -90.51 332.55C-90.51 343.98 -96.62 353.95 -106.86 359.2C-107.95 359.77 -108.38 361.11 -107.81 362.19C-107.42 362.96 -106.64 363.4 -105.83 363.4C-105.48 363.4 -105.13 363.32 -104.81 363.15C-93.06 357.11 -86.04 345.68 -86.04 332.55C-86.04 326.9 -87.36 321.78 -89.97 317.34Z" />
				<path id="Path" class="shp8" d="M-112.32 363.69C-112.6 362.49 -113.81 361.75 -115.01 362.03C-117.89 362.71 -120.93 363.05 -124.04 363.05C-135.29 363.05 -145.4 363.05 -152.04 366.13C-159.14 368.49 -167.49 373.7 -169.96 381.38C-170.34 382.55 -169.69 383.8 -168.51 384.17C-168.29 384.25 -168.06 384.28 -167.83 384.28C-166.88 384.28 -166 383.68 -165.7 382.73C-164.92 380.33 -162.95 377.44 -159.51 374.86C-160.26 378.12 -159.9 382.05 -158.41 386.77C-156.95 391.42 -157.27 395.63 -159.36 399.27C-162.63 404.96 -169.5 408.28 -173.83 409.88C-172.21 402.86 -173.19 396.43 -176.69 391.47C-181.01 385.36 -188.81 381.99 -198.66 381.99C-203.75 381.99 -208.2 380.66 -211.51 378.14C-214.42 375.93 -216.4 372.8 -217.1 369.33C-217.8 365.79 -217.16 362.05 -215.28 358.8C-213.17 355.14 -209.6 352.19 -204.97 350.29C-201.59 348.9 -197.67 347.99 -192.98 347.52C-191.75 347.4 -190.85 346.31 -190.98 345.08C-191.1 343.86 -192.2 342.97 -193.43 343.09C-198.56 343.61 -202.9 344.62 -206.68 346.17C-219.2 351.32 -223.14 361.95 -221.49 370.19C-220.58 374.73 -218 378.81 -214.23 381.68C-210.13 384.79 -204.75 386.44 -198.66 386.44C-190.31 386.44 -183.81 389.13 -180.36 394.03C-177.04 398.73 -176.65 405.29 -179.28 412.5C-179.55 413.26 -179.39 414.12 -178.84 414.73C-178.41 415.21 -177.8 415.48 -177.17 415.48C-177 415.48 -176.83 415.46 -176.67 415.42C-176.05 415.28 -161.43 411.82 -155.48 401.5C-152.74 396.73 -152.29 391.33 -154.14 385.44C-155.93 379.75 -155.85 375.69 -153.88 373.03C-153.01 371.85 -151.75 370.92 -150.19 370.19C-150.18 370.19 -150.17 370.19 -150.16 370.18C-144.39 367.5 -134.45 367.5 -124.04 367.5C-120.58 367.5 -117.2 367.12 -113.98 366.36C-112.78 366.08 -112.03 364.88 -112.32 363.69Z" />
				<path id="Shape" fill-rule="evenodd" class="shp9" d="M-91.29 290.22C-91.29 292.42 -92.8 294.27 -94.98 294.7L-100.32 295.78C-104.71 296.67 -108.13 300.06 -109.02 304.42L-110.1 309.73C-110.54 311.89 -112.4 313.4 -114.62 313.4C-116.84 313.4 -118.69 311.89 -119.13 309.73L-120.22 304.42C-121.11 300.06 -124.52 296.67 -128.91 295.78L-134.26 294.7C-136.43 294.27 -137.95 292.42 -137.95 290.22C-137.95 288.02 -136.43 286.17 -134.26 285.73L-128.91 284.66C-124.52 283.77 -121.11 280.38 -120.22 276.02L-119.13 270.71C-118.69 268.55 -116.84 267.04 -114.62 267.04C-112.4 267.04 -110.54 268.55 -110.1 270.71L-109.02 276.02C-108.13 280.38 -104.71 283.77 -100.32 284.66L-94.98 285.73C-92.8 286.17 -91.29 288.02 -91.29 290.22ZM-95.8 290.12C-95.8 290.13 -95.82 290.12 -95.87 290.11L-101.21 289.03C-107.38 287.79 -112.17 283.03 -113.42 276.9L-114.5 271.6C-114.51 271.55 -114.53 271.52 -114.53 271.52C-114.56 271.5 -114.67 271.5 -114.71 271.52C-114.71 271.52 -114.72 271.54 -114.73 271.6L-115.82 276.9C-117.06 283.03 -121.86 287.79 -128.02 289.03L-133.37 290.11C-133.41 290.12 -133.44 290.13 -133.45 290.13C-133.47 290.16 -133.47 290.28 -133.44 290.31C-133.44 290.31 -133.44 290.31 -133.44 290.31C-133.43 290.31 -133.41 290.32 -133.37 290.33L-128.02 291.41C-121.86 292.65 -117.07 297.41 -115.82 303.53L-114.73 308.84C-114.72 308.89 -114.71 308.92 -114.71 308.92C-114.67 308.94 -114.56 308.94 -114.52 308.92C-114.52 308.92 -114.51 308.89 -114.5 308.84L-113.42 303.53C-112.17 297.41 -107.38 292.65 -101.21 291.41L-95.87 290.33C-95.82 290.32 -95.79 290.31 -95.79 290.31C-95.77 290.28 -95.77 290.16 -95.8 290.12Z" />
				<path id="Shape" fill-rule="evenodd" class="shp10" d="M-157.88 356.89C-157.88 359.09 -159.39 360.93 -161.57 361.37L-166.91 362.45C-171.3 363.33 -174.72 366.72 -175.61 371.09L-176.69 376.4C-177.13 378.55 -178.99 380.06 -181.21 380.06C-183.43 380.06 -185.28 378.55 -185.72 376.4L-186.81 371.09C-187.7 366.72 -191.11 363.33 -195.5 362.45L-200.85 361.37C-203.02 360.93 -204.54 359.09 -204.54 356.89C-204.54 354.68 -203.02 352.84 -200.85 352.4L-195.5 351.32C-191.11 350.44 -187.7 347.05 -186.81 342.68L-185.72 337.38C-185.28 335.22 -183.43 333.71 -181.21 333.71C-178.99 333.71 -177.13 335.22 -176.69 337.38L-175.61 342.68C-174.72 347.05 -171.3 350.44 -166.91 351.32L-161.57 352.4C-159.39 352.84 -157.88 354.68 -157.88 356.89ZM-162.39 356.79C-162.38 356.79 -162.41 356.78 -162.46 356.77L-167.8 355.69C-173.97 354.45 -178.76 349.69 -180.01 343.57L-181.09 338.26C-181.1 338.21 -181.12 338.19 -181.12 338.18C-181.15 338.16 -181.26 338.16 -181.3 338.19C-181.3 338.19 -181.31 338.21 -181.32 338.26L-182.41 343.57C-183.66 349.69 -188.45 354.45 -194.61 355.69L-199.96 356.77C-200 356.78 -200.03 356.79 -200.04 356.8C-200.06 356.83 -200.06 356.94 -200.03 356.98C-200.03 356.98 -200.03 356.98 -200.03 356.98C-200.02 356.98 -200 356.99 -199.96 357L-194.61 358.07C-188.45 359.32 -183.66 364.08 -182.41 370.2L-181.32 375.51C-181.31 375.56 -181.3 375.58 -181.3 375.59C-181.26 375.61 -181.15 375.61 -181.11 375.58C-181.11 375.58 -181.1 375.56 -181.09 375.51L-180.01 370.2C-178.76 364.08 -173.97 359.32 -167.8 358.07L-162.46 357C-162.41 356.99 -162.38 356.98 -162.38 356.97C-162.36 356.94 -162.36 356.83 -162.39 356.79Z" />
			</g>
		</g>
		<g id="Spell Book">
			<path id="Spacing" class="shp0" d="M264 16L414 16L414 166L264 166L264 16Z" />
			<g id="Icon">
				<path id="Shape" fill-rule="evenodd" class="shp11" d="M411.39 150.5C412.77 150.5 413.89 151.62 413.89 152.99L413.89 162.96C413.89 164.33 412.77 165.45 411.39 165.45L348.94 165.45C347.56 165.45 346.44 164.33 346.44 162.96C346.44 158.83 343.09 155.48 338.95 155.48C334.81 155.48 331.45 158.83 331.45 162.96C331.45 164.33 330.33 165.45 328.95 165.45L266.5 165.45C265.12 165.45 264 164.33 264 162.96L264 152.99C264 151.62 265.12 150.5 266.5 150.5L269 150.5L269 128.08C269 127.38 269.29 126.71 269.81 126.24C270.34 125.77 271.03 125.54 271.73 125.61C317.99 130 333.73 138.39 337.22 140.65C337.8 140.61 338.34 140.54 338.95 140.54C339.56 140.54 340.09 140.61 340.67 140.65C344.16 138.39 359.9 130 406.16 125.61C406.86 125.54 407.56 125.77 408.08 126.24C408.6 126.71 408.9 127.38 408.9 128.08L408.9 150.5L411.39 150.5ZM348.4 142.26C352.4 143.88 355.75 146.78 357.92 150.5L403.9 150.5L403.9 145.52L373.92 145.52L373.92 140.54L403.9 140.54L403.9 130.82C371.94 134.06 355.78 139.12 348.4 142.26ZM273.99 150.5L319.97 150.5C322.13 146.8 325.45 143.91 329.42 142.28C321.94 139.12 305.67 134.02 273.99 130.82L273.99 140.54L303.97 140.54L303.97 145.52L273.99 145.52L273.99 150.5ZM283.99 160.46L283.99 155.48L269 155.48L269 160.46L283.99 160.46ZM351.19 160.46L388.91 160.46L388.91 155.48L356.43 155.48C355.48 155.49 354.61 154.95 354.19 154.11C351.34 148.41 346.21 145.52 338.95 145.52C331.68 145.52 326.55 148.41 323.69 154.11C323.27 154.95 322.41 155.48 321.46 155.48L288.98 155.48L288.98 160.46L326.71 160.46C327.9 154.67 333.01 150.51 338.95 150.5C344.88 150.51 349.99 154.67 351.19 160.46ZM408.9 155.48L393.91 155.48L393.91 160.46L408.9 160.46L408.9 155.48Z" />
				<path id="Path" class="shp12" d="M364.3 140.54L369.31 140.54L369.31 145.52L364.3 145.52L364.3 140.54Z" />
				<path id="Shape" fill-rule="evenodd" class="shp13" d="M321.47 19.83C318.41 28.87 318.4 42.39 345.7 66.86C353.11 73.52 356.54 80.72 355.86 88.25C354.55 102.66 338.54 112.63 337.86 113.05C336.95 113.6 335.8 113.52 334.98 112.85C334.16 112.18 333.85 111.06 334.22 110.07C334.32 109.78 337.68 98.42 314.96 78.02C306.54 70.47 302.15 61.73 301.9 52.06C301.42 33.31 316.7 17.92 317.35 17.28C318.17 16.46 319.44 16.32 320.42 16.93C321.4 17.54 321.84 18.74 321.47 19.83ZM342.35 70.57C324.06 54.15 315.33 40.58 315.17 27.86C311.19 33.67 306.62 42.46 306.87 51.96C307.08 60.2 310.92 67.73 318.28 74.33C334.54 88.93 338.66 99.61 339.36 105.8C343.76 102.17 350.18 95.61 350.88 87.81C351.41 81.92 348.54 76.13 342.35 70.57L342.35 70.57Z" />
				<path id="Shape" fill-rule="evenodd" class="shp13" d="M349.82 41.56C363.88 30.65 363.28 23.7 361.61 19.41C361.19 18.35 361.55 17.15 362.47 16.48C363.39 15.81 364.65 15.84 365.54 16.56C366.04 16.96 377.78 26.58 377.67 37.53C377.5 42.74 374.85 47.56 370.53 50.51C358.31 60 358.88 65.55 358.88 65.6C359.1 66.57 358.71 67.58 357.89 68.14C357.48 68.43 356.99 68.59 356.49 68.58C356 68.58 355.52 68.44 355.1 68.19C354.65 67.92 344.19 61.51 343.68 52.93C343.64 48.34 345.95 44.05 349.82 41.56ZM367.36 25.55C366.58 32.02 361.8 38.61 352.92 45.5C350.4 47.01 348.81 49.69 348.71 52.62C348.91 56.02 351.95 59.38 354.61 61.63C355.9 58.13 359.21 52.95 367.44 46.56C370.54 44.54 372.47 41.16 372.65 37.48C372.25 33.04 370.39 28.84 367.36 25.55L367.36 25.55Z" />
				<path id="Path" class="shp14" d="M339.22 83.53L344.24 83.53L344.24 88.51L339.22 88.51L339.22 83.53Z" />
				<path id="Path" class="shp14" d="M331.42 76.33L336.44 76.33L336.44 81.31L331.42 81.31L331.42 76.33Z" />
				<path id="Shape" fill-rule="evenodd" class="shp15" d="M379.07 81.31C383.22 81.31 386.59 77.97 386.59 73.84C386.59 72.47 387.71 71.35 389.1 71.35C390.48 71.35 391.6 72.47 391.6 73.84C391.6 77.97 394.97 81.31 399.13 81.31C400.51 81.31 401.63 82.43 401.63 83.8C401.63 85.18 400.51 86.3 399.13 86.3C394.97 86.3 391.6 89.64 391.6 93.77C391.6 95.14 390.48 96.26 389.1 96.26C387.71 96.26 386.59 95.14 386.59 93.77C386.59 89.64 383.22 86.3 379.07 86.3C377.68 86.3 376.56 85.18 376.56 83.8C376.56 82.43 377.68 81.31 379.07 81.31ZM389.1 81.24C388.37 82.21 387.49 83.08 386.51 83.8C387.49 84.53 388.37 85.4 389.1 86.37C389.83 85.4 390.7 84.53 391.68 83.8C390.7 83.08 389.83 82.21 389.1 81.24Z" />
				<path id="Shape" fill-rule="evenodd" class="shp15" d="M296.6 105.67C300.75 105.67 304.12 102.32 304.12 98.2C304.12 96.82 305.24 95.7 306.63 95.7C308.01 95.7 309.13 96.82 309.13 98.2C309.13 102.32 312.5 105.67 316.66 105.67C318.04 105.67 319.16 106.78 319.16 108.16C319.16 109.53 318.04 110.65 316.66 110.65C312.5 110.65 309.13 114 309.13 118.12C309.13 119.5 308.01 120.61 306.63 120.61C305.24 120.61 304.12 119.5 304.12 118.12C304.12 114 300.75 110.65 296.6 110.65C295.21 110.65 294.09 109.53 294.09 108.16C294.09 106.78 295.21 105.67 296.6 105.67ZM304.04 108.16C305.03 108.88 305.9 109.75 306.63 110.73C307.36 109.75 308.23 108.88 309.21 108.16C308.23 107.43 307.36 106.57 306.63 105.59C305.9 106.57 305.03 107.43 304.04 108.16Z" />
				<path id="Shape" fill-rule="evenodd" class="shp15" d="M351.48 29.01C351.48 30.38 350.36 31.5 348.98 31.5C344.82 31.5 341.45 34.84 341.45 38.97C341.45 40.35 340.33 41.46 338.95 41.46C337.56 41.46 336.44 40.35 336.44 38.97C336.44 34.84 333.07 31.5 328.92 31.5C327.53 31.5 326.41 30.38 326.41 29.01C326.41 27.63 327.53 26.52 328.92 26.52C333.07 26.52 336.44 23.17 336.44 19.04C336.44 17.67 337.56 16.55 338.95 16.55C340.33 16.55 341.45 17.67 341.45 19.04C341.45 23.17 344.82 26.52 348.98 26.52C350.36 26.52 351.48 27.63 351.48 29.01ZM341.53 29.01C340.55 28.28 339.68 27.42 338.95 26.44C338.22 27.42 337.34 28.28 336.36 29.01C337.34 29.73 338.22 30.6 338.95 31.57C339.68 30.6 340.55 29.73 341.53 29.01Z" />
				<path id="Path" class="shp14" d="M366.53 63.6L371.54 63.6L371.54 68.58L366.53 68.58L366.53 63.6Z" />
				<path id="Path" class="shp14" d="M366.53 96.26L371.54 96.26L371.54 101.24L366.53 101.24L366.53 96.26Z" />
				<path id="Path" class="shp14" d="M301.33 83.53L306.35 83.53L306.35 88.51L301.33 88.51L301.33 83.53Z" />
				<path id="Path" class="shp14" d="M326.41 120.61L331.42 120.61L331.42 125.59L326.41 125.59L326.41 120.61Z" />
				<path id="Path" class="shp14" d="M279.04 108.44L284.06 108.44L284.06 113.42L279.04 113.42L279.04 108.44Z" />
				<path id="Shape" fill-rule="evenodd" class="shp16" d="M356.78 108.44C360.93 108.44 364.3 111.78 364.3 115.91C364.3 120.03 360.93 123.38 356.78 123.38C352.62 123.38 349.25 120.03 349.25 115.91C349.25 111.78 352.62 108.44 356.78 108.44ZM356.78 113.42C355.39 113.42 354.27 114.53 354.27 115.91C354.27 117.28 355.39 118.4 356.78 118.4C358.16 118.4 359.28 117.28 359.28 115.91C359.28 114.53 358.16 113.42 356.78 113.42Z" />
				<path id="Shape" fill-rule="evenodd" class="shp16" d="M296.32 73.84C296.32 77.97 292.95 81.31 288.8 81.31C284.64 81.31 281.27 77.97 281.27 73.84C281.27 69.71 284.64 66.37 288.8 66.37C292.95 66.37 296.32 69.71 296.32 73.84ZM291.3 73.84C291.3 72.47 290.18 71.35 288.8 71.35C287.41 71.35 286.29 72.47 286.29 73.84C286.29 75.22 287.41 76.33 288.8 76.33C290.18 76.33 291.3 75.22 291.3 73.84Z" />
				<path id="Shape" fill-rule="evenodd" class="shp16" d="M384.36 48.93C384.36 44.81 387.73 41.46 391.88 41.46C396.04 41.46 399.4 44.81 399.4 48.93C399.4 53.06 396.04 56.41 391.88 56.41C387.73 56.41 384.36 53.06 384.36 48.93ZM389.37 48.93C389.37 50.31 390.5 51.42 391.88 51.42C393.27 51.42 394.39 50.31 394.39 48.93C394.39 47.56 393.27 46.44 391.88 46.44C390.5 46.44 389.37 47.56 389.37 48.93Z" />
			</g>
		</g>
		<g id="Crystal Cluster">
			<g id="Icon">
				<path id="Shape" fill-rule="evenodd" class="shp17" d="M163.41 113.52C163.39 113.62 163.36 113.7 163.33 113.8C163.26 114.04 163.17 114.26 163.03 114.47C163 114.52 163 114.58 162.96 114.63L128.58 160.46L133.56 160.46L133.56 165.44L23.96 165.44L23.96 160.46L30.35 160.46L14.14 116.49C14.06 116.25 14.06 116.01 14.05 115.77C14.04 115.64 13.99 115.52 14 115.4C14.04 115.03 14.15 114.67 14.35 114.34L36.77 76.98C37.14 76.36 37.77 75.93 38.48 75.81C39.2 75.69 39.93 75.88 40.49 76.35L60.71 93.2L56.34 38.61C56.33 38.47 56.35 38.33 56.37 38.19C56.37 38.15 56.35 38.11 56.36 38.07C56.36 38.06 56.37 38.05 56.38 38.03C56.42 37.73 56.53 37.44 56.69 37.18C56.72 37.12 56.76 37.07 56.79 37.01C56.97 36.76 57.18 36.52 57.45 36.34L87.34 16.42C88.13 15.89 89.15 15.86 89.98 16.34L119.87 33.77C120.17 33.95 120.4 34.19 120.6 34.46C120.65 34.52 120.69 34.58 120.73 34.64C120.9 34.93 121.02 35.23 121.07 35.57C121.07 35.58 121.08 35.59 121.08 35.61C121.09 35.65 121.07 35.68 121.07 35.72C121.09 35.88 121.11 36.05 121.09 36.22L112.24 111.47L118.84 97.15C118.86 97.11 118.91 97.09 118.93 97.05C119.1 96.73 119.31 96.43 119.61 96.2L149.51 73.79C150.17 73.29 151.04 73.16 151.82 73.42C152.6 73.7 153.2 74.34 153.41 75.14L163.37 112.5C163.46 112.84 163.46 113.18 163.41 113.52ZM124.21 98.99L133.26 118.92L145.94 82.69L124.21 98.99ZM62.55 38.93L74.93 53.36L97.66 53.36L114.57 36.45L88.82 21.43L62.55 38.93ZM41.71 83.85L43.63 118.4L64.74 103.05L62.08 100.82C62.08 100.82 62.08 100.82 62.08 100.82L41.71 83.85ZM20.27 114.17L38.71 119.7L36.87 86.51L20.27 114.17ZM52.75 160.46L39.5 125.13L20.55 119.45L35.66 160.46L52.75 160.46ZM66.31 108.07L44.39 124L58.07 160.46L66.31 160.46L66.31 108.07ZM78.58 160.46L71.36 56.85L61.93 45.85L66.07 97.67L70.39 101.26C70.68 101.51 70.9 101.81 71.06 102.14C71.11 102.26 71.1 102.39 71.14 102.51C71.2 102.73 71.29 102.94 71.29 103.18L71.29 160.46L78.58 160.46ZM96.02 58.35L76.45 58.35L83.58 160.46L88.9 160.46L96.02 58.35ZM94.65 149.58L105.51 126.05L115.3 42.76L101.11 56.96L94.65 149.58ZM95.11 160.46L112.14 160.46L130.79 125.51L121.09 104.18L110.2 127.78L110.2 127.79L95.11 160.46ZM153.13 119.44L135.37 127.51L117.79 160.46L122.35 160.46L153.13 119.44ZM158.02 111.75L150.68 84.24L137.84 120.91L158.02 111.75Z" />
				<path id="Shape" fill-rule="evenodd" class="shp18" d="M44 31C44 32.38 42.88 33.5 41.5 33.5C35.98 33.5 31.5 37.98 31.5 43.5C31.5 44.88 30.38 46 29 46C27.62 46 26.5 44.88 26.5 43.5C26.5 37.98 22.01 33.5 16.5 33.5C15.12 33.5 14 32.38 14 31C14 29.62 15.12 28.5 16.5 28.5C22.01 28.5 26.5 24.01 26.5 18.5C26.5 17.12 27.62 16 29 16C30.38 16 31.5 17.12 31.5 18.5C31.5 24.01 35.98 28.5 41.5 28.5C42.88 28.5 44 29.62 44 31ZM33.22 31C31.55 29.89 30.11 28.45 29 26.78C27.89 28.45 26.45 29.89 24.78 31C26.45 32.11 27.89 33.55 29 35.22C30.11 33.55 31.55 32.11 33.22 31Z" />
				<path id="Shape" fill-rule="evenodd" class="shp18" d="M158.44 51C158.44 52.38 157.32 53.5 155.94 53.5C150.43 53.5 145.94 57.98 145.94 63.5C145.94 64.88 144.82 66 143.44 66C142.06 66 140.94 64.88 140.94 63.5C140.94 57.98 136.46 53.5 130.94 53.5C129.56 53.5 128.44 52.38 128.44 51C128.44 49.62 129.56 48.5 130.94 48.5C136.46 48.5 140.94 44.01 140.94 38.5C140.94 37.12 142.06 36 143.44 36C144.82 36 145.94 37.12 145.94 38.5C145.94 44.01 150.43 48.5 155.94 48.5C157.32 48.5 158.44 49.62 158.44 51ZM147.66 51C145.99 49.89 144.55 48.45 143.44 46.78C142.33 48.45 140.9 49.89 139.23 51C140.9 52.11 142.33 53.55 143.44 55.22C144.56 53.55 145.99 52.11 147.66 51Z" />
				<path id="Rectangle" class="shp19" d="M138.44 160.44L143.44 160.44L143.44 165.44L138.44 165.44L138.44 160.44Z" />
				<path id="Rectangle" class="shp19" d="M148.44 160.44L153.44 160.44L153.44 165.44L148.44 165.44L148.44 160.44Z" />
			</g>
		</g>
		<g id="Round Potion">
			<path id="Spacing" class="shp0" d="M-736 516L-586 516L-586 666L-736 666L-736 516Z" />
			<g id="Icon">
				<path id="Shape" fill-rule="evenodd" class="shp20" d="M-679.97 570.21L-679.97 553.5C-684.09 553.5 -687.45 550.14 -687.45 546C-687.45 541.87 -684.09 538.5 -679.97 538.5L-675.59 538.5L-678.56 525.13C-679.05 522.9 -678.52 520.59 -677.09 518.81C-675.66 517.02 -673.53 516 -671.25 516L-648.75 516C-646.47 516 -644.34 517.02 -642.91 518.81C-641.48 520.59 -640.95 522.89 -641.44 525.13L-644.41 538.5L-640.03 538.5C-635.91 538.5 -632.55 541.86 -632.55 546C-632.55 550.13 -635.91 553.5 -640.03 553.5L-640.03 570.21C-621.79 578.18 -610.09 595.97 -610.09 616C-610.09 643.57 -632.48 666 -660 666C-687.52 666 -709.91 643.57 -709.91 616C-709.91 595.97 -698.21 578.18 -679.97 570.21ZM-660 661C-635.23 661 -615.08 640.81 -615.08 616C-615.08 615.07 -615.13 614.14 -615.18 613.22L-618.01 614.71C-624.73 618.25 -632.04 620.02 -639.35 620.02C-647.09 620.02 -654.81 618.04 -661.8 614.1C-673.24 607.65 -687.18 607.13 -699.07 612.69L-704.9 615.41C-704.9 615.61 -704.92 615.8 -704.92 616C-704.92 640.81 -684.77 661 -660 661ZM-615.83 607.91C-615.85 607.79 -615.87 607.67 -615.9 607.54C-617.44 607.28 -619.08 607.17 -621.55 607.03C-628.16 606.65 -634.67 609.13 -639.43 613.85L-640.57 614.98C-633.66 615.19 -626.7 613.64 -620.34 610.29L-615.83 607.91ZM-670.48 538.5L-649.53 538.5L-646.32 524.04C-646.15 523.3 -646.33 522.53 -646.81 521.94C-647.28 521.34 -647.99 521 -648.75 521L-671.25 521C-672.01 521 -672.72 521.34 -673.19 521.94C-673.67 522.53 -673.85 523.3 -673.68 524.04L-670.48 538.5ZM-682.46 546C-682.46 547.38 -681.34 548.5 -679.97 548.5L-640.03 548.5C-638.66 548.5 -637.54 547.38 -637.54 546C-637.54 544.62 -638.66 543.5 -640.03 543.5L-679.97 543.5C-681.34 543.5 -682.46 544.62 -682.46 546ZM-666.94 553.5L-665.44 561L-654.56 561L-653.06 553.5L-666.94 553.5ZM-676.55 574.19C-691.8 580.26 -702.26 593.81 -704.47 609.7L-701.18 608.16C-687.83 601.92 -672.2 602.51 -659.36 609.75C-655.43 611.96 -651.25 613.46 -646.97 614.28L-642.94 610.3C-637.17 604.57 -629.25 601.55 -621.26 602.04C-619.74 602.13 -618.43 602.21 -617.19 602.33C-621.18 589.7 -630.62 579.3 -643.45 574.19C-644.4 573.82 -645.03 572.89 -645.03 571.87L-645.03 553.5L-647.97 553.5L-650.07 563.99C-650.3 565.16 -651.32 566 -652.51 566L-667.49 566C-668.68 566 -669.7 565.16 -669.94 563.99L-672.03 553.5L-674.97 553.5L-674.97 571.87C-674.97 572.89 -675.6 573.82 -676.55 574.19Z" />
				<path id="Shape" fill-rule="evenodd" class="shp15" d="M-617.4 551.02C-611.93 551.02 -607.47 555.47 -607.47 560.95C-607.47 566.42 -611.93 570.88 -617.4 570.88C-622.88 570.88 -627.33 566.42 -627.33 560.95C-627.33 555.47 -622.88 551.02 -617.4 551.02ZM-622.37 560.95C-622.37 563.69 -620.14 565.91 -617.4 565.91C-614.67 565.91 -612.44 563.69 -612.44 560.95C-612.44 558.21 -614.67 555.98 -617.4 555.98C-620.14 555.98 -622.37 558.21 -622.37 560.95Z" />
				<path id="Shape" fill-rule="evenodd" class="shp21" d="M-600.16 516C-593.24 516 -587.61 521.63 -587.61 528.54C-587.61 535.46 -593.24 541.09 -600.16 541.09C-607.07 541.09 -612.7 535.46 -612.7 528.54C-612.7 521.63 -607.07 516 -600.16 516ZM-607.68 528.54C-607.68 532.69 -604.31 536.07 -600.16 536.07C-596.01 536.07 -592.63 532.69 -592.63 528.54C-592.63 524.39 -596.01 521.02 -600.16 521.02C-604.31 521.02 -607.68 524.39 -607.68 528.54Z" />
				<path id="Shape" fill-rule="evenodd" class="shp22" d="M-694.76 548.4C-694.76 553.88 -699.21 558.33 -704.69 558.33C-710.16 558.33 -714.62 553.88 -714.62 548.4C-714.62 542.93 -710.16 538.47 -704.69 538.47C-699.21 538.47 -694.76 542.93 -694.76 548.4ZM-699.72 548.4C-699.72 545.67 -701.95 543.44 -704.69 543.44C-707.42 543.44 -709.65 545.67 -709.65 548.4C-709.65 551.14 -707.42 553.37 -704.69 553.37C-701.95 553.37 -699.72 551.14 -699.72 548.4Z" />
				<path id="Shape" fill-rule="evenodd" class="shp23" d="M-727.42 593.35C-731.6 593.35 -735 589.95 -735 585.77C-735 581.6 -731.6 578.2 -727.42 578.2C-723.24 578.2 -719.84 581.6 -719.84 585.77C-719.84 589.95 -723.24 593.35 -727.42 593.35ZM-727.42 588.3C-726.03 588.3 -724.9 587.17 -724.9 585.77C-724.9 584.38 -726.03 583.25 -727.42 583.25C-728.82 583.25 -729.95 584.38 -729.95 585.77C-729.95 587.17 -728.82 588.3 -727.42 588.3Z" />
				<path id="Path" class="shp3" d="M-691.77 602.24C-687.55 592.51 -679.3 585.31 -669.15 582.49L-670.47 577.67C-682.07 580.9 -691.49 589.12 -696.32 600.23L-691.77 602.24Z" />
			</g>
		</g>
		<g id="Pestle And Morter">
			<path id="Spacing" class="shp0" d="M-736 266L-586 266L-586 416L-736 416L-736 266Z" />
			<g id="Icon">
				<path id="Path" class="shp14" d="M-666.99 386.83C-668.57 386.83 -669.85 388.12 -669.85 389.7C-669.85 391.28 -668.57 392.56 -666.99 392.56C-665.41 392.56 -664.13 391.28 -664.13 389.7C-664.13 388.12 -665.41 386.83 -666.99 386.83Z" />
				<path id="Shape" fill-rule="evenodd" class="shp24" d="M-586.52 343.96C-586.52 348.87 -589.57 353.24 -594.12 354.91C-594.29 376.71 -608.54 395.76 -629.15 402.1L-629.15 407.22C-629.15 412.06 -633.08 416 -637.91 416L-684.62 416C-689.45 416 -693.38 412.06 -693.38 407.22L-693.38 402.1C-713.99 395.76 -728.23 376.71 -728.4 354.91C-732.96 353.24 -736 348.87 -736 343.96C-736 337.51 -730.76 332.25 -724.32 332.25L-667.32 332.25L-619.79 291.91C-621.22 288.68 -620.63 284.76 -617.99 282.12C-614.52 278.65 -609 278.72 -605.61 282.11L-589.09 298.68C-585.67 302.11 -585.67 307.67 -589.09 311.1C-591.76 313.79 -595.68 314.34 -598.86 312.91L-615.17 332.25L-598.2 332.25C-591.76 332.25 -586.52 337.51 -586.52 343.96ZM-613.86 290.4C-613.86 290.4 -613.86 290.4 -613.86 290.4C-613.86 290.4 -597.34 306.96 -597.34 306.96C-597.34 306.96 -597.34 306.96 -597.34 306.97C-596.21 308.11 -594.35 308.11 -593.22 306.97C-592.06 305.8 -592.09 303.95 -593.22 302.82L-609.73 286.26C-610.87 285.12 -612.71 285.1 -613.86 286.26C-615 287.4 -615 289.26 -613.86 290.4ZM-658.28 332.25L-622.82 332.25L-603.37 309.2L-616.09 296.44L-658.28 332.25ZM-634.99 407.22L-634.99 403.51C-637.87 404.02 -640.8 404.29 -643.74 404.29L-678.78 404.29C-681.72 404.29 -684.66 404.02 -687.54 403.51L-687.54 407.22C-687.54 408.83 -686.23 410.14 -684.62 410.14L-637.91 410.14C-636.3 410.14 -634.99 408.83 -634.99 407.22ZM-599.97 355.65L-722.55 355.65C-722.04 375.21 -708.69 392.16 -689.73 397.05C-686.17 397.96 -682.49 398.43 -678.78 398.43L-643.74 398.43C-640.04 398.43 -636.35 397.96 -632.79 397.05C-613.83 392.16 -600.48 375.21 -599.97 355.65ZM-592.36 343.96C-592.36 340.74 -594.98 338.11 -598.2 338.11L-724.32 338.11C-727.54 338.11 -730.16 340.74 -730.16 343.96C-730.16 347.33 -727.39 349.82 -724.32 349.82L-598.2 349.82C-597.52 349.82 -596.93 349.72 -596.31 349.48C-596.28 349.47 -596.26 349.46 -596.23 349.45C-593.92 348.65 -592.36 346.45 -592.36 343.96Z" />
				<path id="Path" class="shp14" d="M-678.52 386.73C-692.16 386.73 -704.38 378.13 -708.95 365.34C-709.49 363.82 -711.16 363.03 -712.69 363.56C-714.22 364.1 -715.02 365.77 -714.48 367.29C-709.09 382.41 -694.64 392.56 -678.52 392.56C-676.9 392.56 -675.58 391.26 -675.58 389.65C-675.58 388.03 -676.9 386.73 -678.52 386.73Z" />
				<path id="Shape" fill-rule="evenodd" class="shp23" d="M-664.98 317.75C-666.12 318.89 -667.97 318.89 -669.11 317.75L-674.1 312.76L-684.58 312.76C-702.31 312.76 -716.73 298.34 -716.73 280.61L-716.73 268.92C-716.73 267.31 -715.42 266 -713.81 266L-702.12 266C-684.39 266 -669.97 280.42 -669.97 298.15L-669.97 308.63L-664.98 313.61C-663.84 314.76 -663.84 316.61 -664.98 317.75ZM-675.81 298.15C-675.81 283.64 -687.61 271.84 -702.12 271.84L-710.88 271.84L-710.88 280.61C-710.88 295.12 -699.09 306.91 -684.58 306.91L-679.95 306.91L-704.18 282.68C-705.32 281.54 -705.32 279.69 -704.18 278.55C-703.04 277.4 -701.19 277.4 -700.05 278.55L-675.81 302.78L-675.81 298.15Z" />
				<path id="Shape" fill-rule="evenodd" class="shp20" d="M-646.42 274.85C-646.42 279.74 -650.39 283.71 -655.27 283.71C-660.15 283.71 -664.13 279.74 -664.13 274.85C-664.13 269.97 -660.15 266 -655.27 266C-650.39 266 -646.42 269.97 -646.42 274.85ZM-652.32 274.85C-652.32 273.23 -653.64 271.9 -655.27 271.9C-656.9 271.9 -658.22 273.23 -658.22 274.85C-658.22 276.48 -656.9 277.81 -655.27 277.81C-653.64 277.81 -652.32 276.48 -652.32 274.85Z" />
			</g>
		</g>
		<g id="Potion Bottle">
			<path id="Spacing" class="shp0" d="M-486 516L-336 516L-336 666L-486 666L-486 516Z" />
			<g id="Icon">
				<path id="Shape" fill-rule="evenodd" class="shp13" d="M-365.54 616.39L-365.54 644.35C-365.54 656.29 -375.23 666 -387.14 666L-434.87 666C-446.79 666 -456.48 656.29 -456.48 644.35L-456.48 616.39C-456.48 610.89 -453.27 605.81 -448.3 603.47C-448.27 603.45 -448.23 603.44 -448.2 603.42L-432.24 596.88C-429.38 595.7 -427.53 592.94 -427.53 589.84L-427.53 585.43C-427.53 584.22 -426.55 583.24 -425.34 583.24C-424.12 583.24 -423.14 584.22 -423.14 585.43L-423.14 589.84C-423.14 594.73 -426.06 599.09 -430.58 600.94L-446.48 607.47C-449.89 609.1 -452.09 612.6 -452.09 616.39L-452.09 644.35C-452.09 653.87 -444.37 661.61 -434.87 661.61L-387.14 661.61C-377.65 661.61 -369.92 653.87 -369.92 644.35L-369.92 616.39C-369.92 612.6 -372.12 609.1 -375.53 607.47L-379.01 606.04C-379.84 605.7 -380.38 604.89 -380.38 604C-380.37 603.1 -379.83 602.3 -379 601.97C-373.49 599.74 -369.92 594.46 -369.92 588.51C-369.92 580.51 -376.42 574.01 -384.4 574.01C-388.16 574.01 -391.79 575.5 -394.49 578.12L-394.49 581.77C-394.49 582.98 -395.47 583.97 -396.68 583.97C-397.89 583.97 -398.87 582.98 -398.87 581.77L-398.87 567.56L-403.4 567.56C-404.62 567.56 -405.6 566.58 -405.6 565.37C-405.6 564.15 -404.62 563.17 -403.4 563.17L-396.97 563.17C-396.95 563.17 -396.94 563.17 -396.92 563.17C-396.9 563.17 -396.88 563.17 -396.86 563.17C-395.88 563.17 -395.07 562.36 -395.07 561.37L-395.07 552.33L-397.97 552.33L-398.27 557.22C-398.27 557.23 -398.27 557.25 -398.27 557.26C-398.42 559.18 -400.04 560.68 -401.96 560.68L-420.64 560.68C-422.56 560.68 -424.18 559.18 -424.33 557.26C-424.33 557.25 -424.33 557.23 -424.33 557.22L-424.63 552.33L-426.94 552.33L-426.94 561.37C-426.94 562.36 -426.14 563.17 -425.15 563.17L-411.01 563.17C-409.8 563.17 -408.81 564.15 -408.81 565.37C-408.81 566.58 -409.8 567.56 -411.01 567.56L-423.14 567.56L-423.14 576.64C-423.14 577.86 -424.12 578.84 -425.34 578.84C-426.55 578.84 -427.53 577.86 -427.53 576.64L-427.53 567.09C-429.76 566.15 -431.33 563.94 -431.33 561.37L-431.33 551.75C-433.23 550.82 -434.55 548.87 -434.55 546.62C-434.55 543.47 -431.99 540.9 -428.85 540.9L-425.48 540.9L-426.11 532.82L-426.92 522.41C-427.04 520.76 -426.48 519.12 -425.35 517.91C-424.23 516.7 -422.65 516 -421 516L-401.6 516C-399.95 516 -398.37 516.7 -397.25 517.91C-396.13 519.12 -395.56 520.76 -395.68 522.41L-396.11 527.96C-396.18 528.75 -396.66 529.45 -397.39 529.79L-399.66 530.83L-397.82 531.7C-397 532.09 -396.5 532.95 -396.57 533.86L-397.12 540.9L-393.76 540.9C-390.61 540.9 -388.05 543.47 -388.05 546.62C-388.05 548.63 -389.11 550.4 -390.68 551.42L-390.68 561.37C-390.68 563.94 -392.26 566.15 -394.49 567.09L-394.49 572.55C-391.49 570.65 -387.99 569.61 -384.4 569.61C-374 569.61 -365.54 578.09 -365.54 588.51C-365.54 594.64 -368.44 600.22 -373.2 603.72C-368.53 606.17 -365.54 611.08 -365.54 616.39ZM-422.54 522.07L-422.47 523.03L-412.76 523.03C-411.55 523.03 -410.57 524.01 -410.57 525.23C-410.57 526.44 -411.55 527.42 -412.76 527.42L-422.13 527.42L-421.72 532.68L-418.61 532.68C-417.4 532.68 -416.42 533.67 -416.42 534.88C-416.42 536.09 -417.4 537.08 -418.61 537.08L-421.38 537.08L-421.08 540.9L-401.52 540.9L-401.06 535.03L-404.61 533.35C-405.6 532.88 -406.23 531.88 -406.22 530.79C-406.21 529.7 -405.57 528.7 -404.58 528.25L-400.39 526.33L-400.06 522.07C-400.02 521.63 -400.17 521.21 -400.47 520.89C-400.76 520.57 -401.17 520.39 -401.6 520.39L-421 520.39C-421.43 520.39 -421.84 520.57 -422.14 520.89C-422.43 521.21 -422.58 521.63 -422.54 522.07ZM-402.37 552.33L-420.24 552.33L-419.99 556.28L-402.61 556.28L-402.37 552.33ZM-393.76 547.93C-393.03 547.93 -392.44 547.34 -392.44 546.62C-392.44 545.89 -393.03 545.3 -393.76 545.3L-428.85 545.3C-429.57 545.3 -430.16 545.89 -430.16 546.62C-430.16 547.34 -429.57 547.93 -428.85 547.93L-393.76 547.93Z" />
				<path id="Shape" fill-rule="evenodd" class="shp15" d="M-373.9 588.39C-373.9 594.29 -378.71 599.1 -384.61 599.1C-390.52 599.1 -395.33 594.29 -395.33 588.39C-395.33 582.48 -390.52 577.67 -384.61 577.67C-378.71 577.67 -373.9 582.48 -373.9 588.39ZM-378.3 588.39C-378.3 584.91 -381.13 582.08 -384.61 582.08C-388.09 582.08 -390.92 584.91 -390.92 588.39C-390.92 591.87 -388.09 594.7 -384.61 594.7C-381.13 594.7 -378.3 591.87 -378.3 588.39Z" />
				<path id="Shape" fill-rule="evenodd" class="shp17" d="M-373.38 642.44L-373.38 644.22C-373.38 651.9 -379.66 658.16 -387.39 658.16L-435.15 658.16C-442.87 658.16 -449.16 651.9 -449.16 644.22L-449.16 629.98C-449.16 628.92 -448.7 627.92 -447.89 627.24C-447.08 626.55 -446.02 626.25 -444.97 626.41L-438.32 627.44C-438.33 627.25 -438.33 627.05 -438.33 626.86C-438.33 621.64 -434.07 617.39 -428.82 617.39C-423.58 617.39 -419.32 621.64 -419.32 626.86C-419.32 628.05 -419.54 629.21 -419.96 630.29L-416.52 630.82C-414.72 631.1 -412.92 631.23 -411.11 631.22C-410.8 624.19 -404.95 618.56 -397.81 618.56C-391.97 618.56 -386.96 622.25 -385.18 627.59L-377.57 626.41C-376.52 626.25 -375.45 626.55 -374.65 627.24C-373.84 627.92 -373.38 628.93 -373.38 629.98L-373.38 633.7C-373.38 634.91 -374.36 635.88 -375.57 635.88C-376.78 635.88 -377.77 634.91 -377.77 633.7L-377.77 630.86L-405.34 635.14C-409.28 635.75 -413.26 635.75 -417.19 635.14L-444.77 630.86L-444.77 644.22C-444.77 649.5 -440.45 653.79 -435.15 653.79L-387.39 653.79C-382.08 653.79 -377.77 649.5 -377.77 644.22L-377.77 642.44C-377.77 641.23 -376.78 640.25 -375.57 640.25C-374.36 640.25 -373.38 641.23 -373.38 642.44ZM-406.69 630.91C-406.47 630.88 -406.24 630.86 -406.02 630.82L-389.61 628.28C-390.99 625.08 -394.16 622.93 -397.81 622.93C-402.43 622.93 -406.24 626.43 -406.69 630.91ZM-433.95 626.86C-433.95 627.3 -433.89 627.73 -433.78 628.15L-424.5 629.58C-423.99 628.78 -423.7 627.84 -423.7 626.86C-423.7 624.05 -426 621.76 -428.83 621.76C-431.65 621.76 -433.95 624.05 -433.95 626.86Z" />
				<path id="Shape" fill-rule="evenodd" class="shp25" d="M-408.92 605.63C-408.92 609.81 -412.32 613.21 -416.49 613.21C-420.67 613.21 -424.07 609.81 -424.07 605.63C-424.07 601.46 -420.67 598.06 -416.49 598.06C-412.32 598.06 -408.92 601.46 -408.92 605.63ZM-413.37 605.63C-413.37 603.91 -414.77 602.51 -416.49 602.51C-418.22 602.51 -419.62 603.91 -419.62 605.63C-419.62 607.35 -418.22 608.75 -416.49 608.75C-414.77 608.75 -413.37 607.35 -413.37 605.63Z" />
				<path id="Shape" fill-rule="evenodd" class="shp26" d="M-416.23 644.31C-416.23 648.49 -419.63 651.89 -423.81 651.89C-427.99 651.89 -431.39 648.49 -431.39 644.31C-431.39 640.13 -427.99 636.73 -423.81 636.73C-419.63 636.73 -416.23 640.13 -416.23 644.31ZM-420.69 644.31C-420.69 642.59 -422.09 641.19 -423.81 641.19C-425.53 641.19 -426.93 642.59 -426.93 644.31C-426.93 646.03 -425.53 647.43 -423.81 647.43C-422.09 647.43 -420.69 646.03 -420.69 644.31Z" />
				<path id="Shape" fill-rule="evenodd" class="shp21" d="M-401.6 579.76C-401.6 584.37 -405.35 588.13 -409.96 588.13C-414.57 588.13 -418.32 584.37 -418.32 579.76C-418.32 575.15 -414.57 571.4 -409.96 571.4C-405.35 571.4 -401.6 575.15 -401.6 579.76ZM-406 579.76C-406 577.58 -407.78 575.8 -409.96 575.8C-412.15 575.8 -413.92 577.58 -413.92 579.76C-413.92 581.95 -412.15 583.72 -409.96 583.72C-407.78 583.72 -406 581.95 -406 579.76Z" />
			</g>
		</g>
		<g id="Cauldren">
			<path id="Spacing" class="shp0" d="M264 266L414 266L414 416L264 416L264 266Z" />
			<g id="Icon">
				<path id="Shape" fill-rule="evenodd" class="shp20" d="M358.91 275.09C358.91 270.08 364.01 266 370.27 266C376.54 266 381.64 270.08 381.64 275.09C381.64 280.1 376.54 284.18 370.27 284.18C364.01 284.18 358.91 280.1 358.91 275.09ZM364.59 275.09C364.59 277.6 367.14 279.64 370.27 279.64C373.41 279.64 375.95 277.6 375.95 275.09C375.95 272.58 373.41 270.55 370.27 270.55C367.14 270.55 364.59 272.58 364.59 275.09Z" />
				<path id="Shape" fill-rule="evenodd" class="shp3" d="M281.64 275.09C281.64 270.08 286.73 266 293 266C299.27 266 304.36 270.08 304.36 275.09C304.36 280.1 299.27 284.18 293 284.18C286.73 284.18 281.64 280.1 281.64 275.09ZM287.32 275.09C287.32 277.6 289.87 279.64 293 279.64C296.13 279.64 298.68 277.6 298.68 275.09C298.68 272.58 296.13 270.55 293 270.55C289.87 270.55 287.32 272.58 287.32 275.09Z" />
				<path id="Shape" fill-rule="evenodd" class="shp27" d="M340.73 288.73C340.73 283.71 344.81 279.64 349.82 279.64C354.83 279.64 358.91 283.71 358.91 288.73C358.91 293.74 354.83 297.82 349.82 297.82C344.81 297.82 340.73 293.74 340.73 288.73ZM345.92 288.73C345.92 290.88 347.67 292.62 349.82 292.62C351.97 292.62 353.71 290.88 353.71 288.73C353.71 286.58 351.97 284.83 349.82 284.83C347.67 284.83 345.92 286.58 345.92 288.73Z" />
				<path id="Shape" fill-rule="evenodd" class="shp16" d="M308.91 279.64C308.91 274.62 312.99 270.55 318 270.55C323.01 270.55 327.09 274.62 327.09 279.64C327.09 284.65 323.01 288.73 318 288.73C312.99 288.73 308.91 284.65 308.91 279.64ZM314.1 279.64C314.1 281.78 315.85 283.53 318 283.53C320.15 283.53 321.9 281.78 321.9 279.64C321.9 277.49 320.15 275.74 318 275.74C315.85 275.74 314.1 277.49 314.1 279.64Z" />
				<path id="Shape" fill-rule="evenodd" class="shp28" d="M396.05 400.29C399.1 403.27 399.1 408.11 396.05 411.09C394.52 412.58 392.52 413.32 390.51 413.32C388.51 413.32 386.5 412.58 384.98 411.09L378.17 404.45C366.85 411.73 353.18 416 338.45 416C324.38 416 311.27 412.09 300.26 405.39L294.41 411.09C292.88 412.58 290.88 413.32 288.88 413.32C286.87 413.32 284.87 412.58 283.34 411.09C280.29 408.11 280.29 403.27 283.34 400.29L287.9 395.85C275.6 383.92 268 367.69 268 349.82C268 339.78 270.37 330.15 274.99 321.15L270.05 313.13C269.23 311.79 269.21 310.11 270 308.75C270.78 307.39 272.27 306.55 273.87 306.55L276.2 306.55C277.37 302.16 281.42 298.91 286.27 298.91C288.38 298.91 290.43 299.55 292.15 300.7C294.58 297.97 298.1 296.36 301.92 296.36C303.42 296.36 304.89 296.61 306.28 297.1C308.91 292.05 314.26 288.73 320.19 288.73C327.2 288.73 333.13 293.2 335.1 299.46C337.81 298.55 340.94 298.82 343.45 300.17C346.05 296.27 350.52 293.82 355.42 293.82C360.31 293.82 364.78 296.27 367.39 300.17C370.73 298.36 375.11 298.59 378.26 300.7C380.69 297.97 384.21 296.36 388.03 296.36C394.34 296.36 399.6 300.74 400.82 306.55L403.04 306.55C404.64 306.55 406.12 307.39 406.91 308.75C407.7 310.11 407.68 311.79 406.86 313.13L401.92 321.15C406.54 330.15 408.91 339.78 408.91 349.82C408.91 367.09 401.82 382.83 390.24 394.63L396.05 400.29ZM380.64 306.55L395.42 306.55C394.34 303.58 391.44 301.45 388.03 301.45C385.05 301.45 382.37 303.1 381.04 305.75L380.64 306.55ZM367.78 306.55L376.91 306.55L376.59 306.12C374.68 303.56 370.6 303.36 368.45 305.78L367.78 306.55ZM346.26 306.55L364.57 306.55L364.01 304.95C362.74 301.33 359.29 298.91 355.42 298.91C351.55 298.91 348.09 301.33 346.82 304.95L346.26 306.55ZM333.62 306.55L343.05 306.55L342.38 305.78C340.49 303.65 337.07 303.45 334.94 305.35L333.62 306.55ZM294.53 306.55L330.7 306.55L330.57 303.59C330.34 298.11 325.78 293.82 320.19 293.82C315.55 293.82 311.44 296.89 310.18 301.29L309.22 304.66L306.23 302.72C304.94 301.89 303.46 301.45 301.92 301.45C298.94 301.45 296.26 303.1 294.93 305.75L294.53 306.55ZM281.75 306.55L290.8 306.55L290.48 306.12C289.47 304.77 287.94 304 286.27 304C284.34 304 282.65 305.02 281.75 306.55ZM275.22 311.64L277.81 315.85L277.81 315.85L279.91 319.27L396.99 319.27L399.1 315.85L399.1 315.85L401.69 311.64L275.22 311.64ZM294.93 401.81C294.15 401.22 293.37 400.63 292.62 400.02C292.32 399.78 292.01 399.56 291.72 399.32L287.03 403.89C286.01 404.88 286.01 406.5 287.03 407.49C288.05 408.48 289.71 408.48 290.72 407.49L295.83 402.5C295.53 402.28 295.24 402.03 294.93 401.81ZM338.45 410.91C353.03 410.91 366.51 406.41 377.38 398.81C378.39 398.11 379.36 397.37 380.32 396.62C380.83 396.22 381.33 395.81 381.83 395.4C382.44 394.89 383.03 394.37 383.61 393.84C395.97 382.72 403.69 367.1 403.69 349.82C403.69 340.93 401.69 332.37 397.75 324.36L279.15 324.36C275.22 332.37 273.22 340.93 273.22 349.82C273.22 367.41 281.21 383.28 293.96 394.43C294.94 395.3 295.95 396.15 296.99 396.95C297.32 397.2 297.66 397.44 297.98 397.68C298.82 398.3 299.67 398.9 300.53 399.48C311.23 406.66 324.32 410.91 338.45 410.91ZM392.35 403.89L386.52 398.2C386.3 398.39 386.06 398.56 385.84 398.75C384.95 399.51 384.04 400.25 383.11 400.97C382.9 401.13 382.71 401.31 382.49 401.47L388.67 407.49C389.69 408.48 391.34 408.48 392.36 407.49C393.38 406.5 393.38 404.88 392.35 403.89Z" />
				<path id="Path" class="shp29" d="M338.1 393.03C314.88 393.03 295.99 375.86 295.99 354.76C295.99 353.43 294.81 352.36 293.36 352.36C291.9 352.36 290.73 353.43 290.73 354.76C290.73 378.5 311.98 397.82 338.1 397.82C339.55 397.82 340.73 396.75 340.73 395.43C340.73 394.1 339.55 393.03 338.1 393.03Z" />
			</g>
		</g>
		<g id="Doble Terminated Crystal">
			<path id="Spacing" class="shp0" d="M-236 520L-86 520L-86 670L-236 670L-236 520Z" />
			<g id="Icon">
				<path id="Shape" fill-rule="evenodd" class="shp30" d="M-123.69 554.09L-123.69 627.91C-123.69 628.69 -124 629.44 -124.55 629.98L-159.77 665.14C-160.32 665.69 -161.07 666 -161.85 666C-162.63 666 -163.37 665.69 -163.92 665.14L-199.14 629.98C-199.69 629.44 -200 628.69 -200 627.91L-200 554.09C-200 552.47 -198.69 551.16 -197.07 551.16L-181.13 551.16L-172.15 533.35L-176.31 537.51C-177.46 538.66 -179.32 538.66 -180.46 537.51C-181.61 536.37 -181.61 534.52 -180.46 533.37L-163.92 516.86C-163.37 516.31 -162.63 516 -161.85 516C-161.07 516 -160.32 516.31 -159.77 516.86L-124.55 552.02C-124 552.57 -123.69 553.31 -123.69 554.09ZM-129.56 557.02L-141.3 557.02L-141.3 601.28C-141.3 602.89 -142.62 604.21 -144.24 604.21C-145.86 604.21 -147.17 602.89 -147.17 601.28L-147.17 557.02L-176.52 557.02L-176.52 624.98L-129.56 624.98L-129.56 557.02ZM-189.98 630.84L-172.15 648.65L-181.13 630.84L-189.98 630.84ZM-161.85 656.03L-149.14 630.84L-174.56 630.84L-161.85 656.03ZM-151.55 648.65L-133.71 630.84L-142.56 630.84L-151.55 648.65ZM-133.71 551.16L-151.55 533.35L-142.57 551.16L-133.71 551.16ZM-174.56 551.16L-149.14 551.16L-161.85 525.97L-174.56 551.16ZM-194.13 557.02L-194.13 624.98L-182.39 624.98L-182.39 557.02L-194.13 557.02Z" />
				<path id="Path" class="shp31" d="M-187.72 547.88C-186.94 547.88 -186.16 547.56 -185.59 546.94L-185.59 546.94C-184.52 545.76 -184.61 543.95 -185.78 542.88C-186.96 541.81 -188.78 541.9 -189.84 543.07C-190.91 544.25 -190.83 546.07 -189.65 547.13C-189.1 547.63 -188.41 547.88 -187.72 547.88Z" />
				<path id="Path" class="shp31" d="M-144.34 611.64C-145.93 611.64 -147.21 612.93 -147.21 614.52C-147.21 616.11 -145.93 617.39 -144.34 617.39C-142.75 617.39 -141.46 616.11 -141.46 614.52L-141.46 614.52C-141.46 612.93 -142.75 611.64 -144.34 611.64Z" />
			</g>
		</g>
		<g id="Wand">
			<path id="Spacing" class="shp0" d="M-486 266L-336 266L-336 416L-486 416L-486 266Z" />
			<g id="Icon">
				<path id="Path" class="shp32" d="M-354.49 346.21C-356.07 346.21 -357.35 347.49 -357.35 349.07C-357.35 350.65 -356.07 351.94 -354.49 351.94C-352.91 351.94 -351.63 350.65 -351.63 349.07C-351.63 347.49 -352.91 346.21 -354.49 346.21Z" />
				<path id="Path" class="shp32" d="M-390.49 284.55C-391.6 283.43 -393.42 283.43 -394.54 284.55C-395.65 285.66 -395.65 287.48 -394.54 288.6C-393.42 289.72 -391.6 289.72 -390.49 288.6C-389.37 287.48 -389.37 285.67 -390.49 284.55Z" />
				<path id="Shape" fill-rule="evenodd" class="shp33" d="M-344.89 337.48L-366.9 337.49L-379.61 355.18C-383.81 361.11 -393.01 359.63 -395.17 352.7L-397.77 344.33L-466 412.56C-470.57 417.15 -477.99 417.14 -482.57 412.56C-487.15 407.99 -487.14 400.56 -482.56 395.99L-414.33 327.77L-422.69 325.17C-429.65 323.01 -431.1 313.81 -425.16 309.6L-407.49 296.9L-407.48 274.89C-407.56 267.63 -399.27 263.41 -393.44 267.76L-375.82 280.91L-354.99 273.85C-348.1 271.51 -341.51 278.1 -343.85 284.99L-350.91 305.82L-337.76 323.44C-333.41 329.28 -337.63 337.57 -344.89 337.48ZM-399.73 338.01L-401.7 331.7L-408.01 329.73L-478.42 400.14C-480.73 402.44 -480.69 406.15 -478.42 408.42C-476.13 410.72 -472.43 410.71 -470.14 408.42L-399.73 338.01ZM-342.46 326.94L-356.53 308.09C-357.1 307.32 -357.26 306.31 -356.95 305.4L-349.4 283.11C-348.61 280.8 -350.82 278.62 -353.11 279.4L-375.4 286.95C-376.31 287.26 -377.32 287.1 -378.09 286.53L-396.94 272.46C-398.9 271 -401.69 272.41 -401.66 274.84C-401.65 274.85 -401.65 274.87 -401.65 274.88L-401.66 298.41C-401.66 299.35 -402.09 300.23 -402.85 300.78L-421.76 314.37C-423.78 315.8 -423.26 318.86 -420.96 319.57L-398.49 326.56C-397.57 326.84 -396.84 327.57 -396.56 328.49L-393.61 337.96L-393.6 337.99C-393.6 337.99 -393.6 338 -393.6 338.01L-389.57 350.96C-388.85 353.28 -385.79 353.77 -384.38 351.78L-370.78 332.85C-370.23 332.09 -369.35 331.66 -368.41 331.66L-344.88 331.65C-342.31 331.65 -341.04 328.84 -342.46 326.94Z" />
				<path id="Path" class="shp32" d="M-376.79 295.15L-381.73 291.58C-383.06 290.62 -384.93 290.88 -385.93 292.17C-386.92 293.45 -386.64 295.27 -385.32 296.23L-380.37 299.8C-379.04 300.76 -377.17 300.49 -376.18 299.21C-375.19 297.92 -375.46 296.11 -376.79 295.15Z" />
				<path id="Path" class="shp17" d="M-424.89 281.28L-427.84 281.28L-427.84 278.33C-427.84 276.7 -429.16 275.38 -430.79 275.38C-432.42 275.38 -433.74 276.7 -433.74 278.33L-433.74 281.28L-436.69 281.28C-438.32 281.28 -439.65 282.6 -439.65 284.23C-439.65 285.86 -438.32 287.18 -436.69 287.18L-433.74 287.18L-433.74 290.13C-433.74 291.76 -432.42 293.08 -430.79 293.08C-429.16 293.08 -427.84 291.76 -427.84 290.13L-427.84 287.18L-424.89 287.18C-423.26 287.18 -421.94 285.86 -421.94 284.23C-421.94 282.6 -423.26 281.28 -424.89 281.28Z" />
				<path id="Path" class="shp17" d="M-360.31 369.3L-363.26 369.3L-363.26 366.35C-363.26 364.72 -364.58 363.4 -366.21 363.4C-367.84 363.4 -369.16 364.72 -369.16 366.35L-369.16 369.3L-372.11 369.3C-373.74 369.3 -375.06 370.62 -375.06 372.25C-375.06 373.88 -373.74 375.2 -372.11 375.2L-369.16 375.2L-369.16 378.15C-369.16 379.78 -367.84 381.1 -366.21 381.1C-364.58 381.1 -363.26 379.78 -363.26 378.15L-363.26 375.2L-360.31 375.2C-358.68 375.2 -357.35 373.88 -357.35 372.25C-357.35 370.62 -358.68 369.3 -360.31 369.3Z" />
			</g>
		</g>
		<g id="Castle">
			<path id="Spacing" class="shp0" d="M14 516L164 516L164 666L14 666L14 516Z" />
			<g id="Icon">
				<path id="Path" class="shp3" d="M144 621C142.62 621 141.5 622.12 141.5 623.5L141.5 628.5C141.5 629.88 142.62 631 144 631C145.38 631 146.5 629.88 146.5 628.5L146.5 623.5C146.5 622.12 145.38 621 144 621Z" />
				<path id="Path" class="shp16" d="M75.38 560.74C76.62 561.36 78.12 560.85 78.74 559.62L86.5 544.09L86.5 558.5C86.5 559.88 87.62 561 89 561C90.38 561 91.5 559.88 91.5 558.5L91.5 544.09L99.26 559.62C99.7 560.5 100.58 561 101.5 561C101.88 561 102.26 560.92 102.62 560.74C103.85 560.12 104.36 558.62 103.74 557.38L91.5 532.91L91.5 521L104 521L104 526L96.5 526C95.12 526 94 527.12 94 528.5C94 529.88 95.12 531 96.5 531L106.5 531C107.88 531 109 529.88 109 528.5L109 518.5C109 517.12 107.88 516 106.5 516L89 516C87.62 516 86.5 517.12 86.5 518.5L86.5 532.91L74.26 557.38C73.64 558.62 74.15 560.12 75.38 560.74Z" />
				<path id="Path" class="shp21" d="M101.5 596C102.88 596 104 594.88 104 593.5L104 571L106.5 571C107.88 571 109 569.88 109 568.5C109 567.12 107.88 566 106.5 566L71.5 566C70.12 566 69 567.12 69 568.5C69 569.88 70.12 571 71.5 571L74 571L74 593.5C74 594.88 75.12 596 76.5 596C77.88 596 79 594.88 79 593.5L79 571L99 571L99 593.5C99 594.88 100.12 596 101.5 596Z" />
				<path id="Path" class="shp3" d="M86.5 583.5L86.5 588.5C86.5 589.88 87.62 591 89 591C90.38 591 91.5 589.88 91.5 588.5L91.5 583.5C91.5 582.12 90.38 581 89 581C87.62 581 86.5 582.12 86.5 583.5Z" />
				<path id="Path" class="shp21" d="M126.5 591L129 591L129 593.5C129 594.88 130.12 596 131.5 596C132.88 596 134 594.88 134 593.5L134 591L154 591L154 641C154 642.38 155.12 643.5 156.5 643.5C157.88 643.5 159 642.38 159 641L159 591L161.5 591C162.88 591 164 589.88 164 588.5C164 587.12 162.88 586 161.5 586L126.5 586C125.12 586 124 587.12 124 588.5C124 589.88 125.12 591 126.5 591Z" />
				<path id="Path" class="shp34" d="M134 541C134 542.38 135.12 543.5 136.5 543.5C137.88 543.5 139 542.38 139 541C140.38 541 141.5 539.88 141.5 538.5C141.5 537.12 140.38 536 139 536C139 534.62 137.88 533.5 136.5 533.5C135.12 533.5 134 534.62 134 536C132.62 536 131.5 537.12 131.5 538.5C131.5 539.88 132.62 541 134 541Z" />
				<path id="Path" class="shp16" d="M130.38 580.74C131.62 581.36 133.12 580.85 133.74 579.62L141.5 564.09L141.5 578.5C141.5 579.88 142.62 581 144 581C145.38 581 146.5 579.88 146.5 578.5L146.5 564.09L154.26 579.62C154.7 580.5 155.58 581 156.5 581C156.88 581 157.26 580.92 157.62 580.74C158.85 580.12 159.35 578.62 158.74 577.38L146.24 552.38C146.13 552.17 145.99 551.98 145.82 551.82C145.37 551.32 144.73 551 144 551C143.27 551 142.63 551.32 142.18 551.82C142.01 551.98 141.87 552.17 141.76 552.38L129.26 577.38C128.65 578.62 129.15 580.12 130.38 580.74Z" />
				<path id="Shape" fill-rule="evenodd" class="shp3" d="M104 641L104 663.5C104 664.88 102.88 666 101.5 666L76.5 666C75.12 666 74 664.88 74 663.5L74 641C74 632.73 80.73 626 89 626C97.27 626 104 632.73 104 641ZM99 656L79 656L79 661L99 661L99 656ZM99 646L79 646L79 651L99 651L99 646ZM99 641C99 635.49 94.52 631 89 631C83.49 631 79 635.48 79 641L99 641Z" />
				<path id="Path" class="shp3" d="M146.5 603.5C146.5 602.12 145.38 601 144 601C142.62 601 141.5 602.12 141.5 603.5L141.5 608.5C141.5 609.88 142.62 611 144 611C145.38 611 146.5 609.88 146.5 608.5L146.5 603.5Z" />
				<path id="Path" class="shp34" d="M64 523.5C64 524.88 65.12 526 66.5 526C67.88 526 69 524.88 69 523.5C70.38 523.5 71.5 522.38 71.5 521C71.5 519.62 70.38 518.5 69 518.5C69 517.12 67.88 516 66.5 516C65.12 516 64 517.12 64 518.5C62.62 518.5 61.5 519.62 61.5 521C61.5 522.38 62.62 523.5 64 523.5Z" />
				<path id="Path" class="shp3" d="M34 621C32.62 621 31.5 622.12 31.5 623.5L31.5 628.5C31.5 629.88 32.62 631 34 631C35.38 631 36.5 629.88 36.5 628.5L36.5 623.5C36.5 622.12 35.38 621 34 621Z" />
				<path id="Shape" fill-rule="evenodd" class="shp15" d="M69 653.5L69 663.5C69 664.88 67.88 666 66.5 666L16.5 666C15.12 666 14 664.88 14 663.5L14 653.5C14 650.74 16.24 648.5 19 648.5C19.91 648.5 20.76 648.75 21.5 649.17C22.97 648.32 25.03 648.32 26.5 649.17C27.97 648.32 30.03 648.32 31.5 649.17C32.97 648.32 35.03 648.32 36.5 649.17C37.97 648.32 40.03 648.32 41.5 649.17C42.97 648.32 45.03 648.32 46.5 649.17C47.97 648.32 50.03 648.32 51.5 649.17C52.97 648.32 55.03 648.32 56.5 649.17C57.97 648.32 60.03 648.32 61.5 649.17C62.23 648.75 63.09 648.5 64 648.5C66.76 648.5 69 650.74 69 653.5ZM64 661L64 653.5C64 654.88 62.88 656 61.5 656C60.12 656 59 654.88 59 653.5C59 654.88 57.88 656 56.5 656C55.12 656 54 654.88 54 653.5C54 654.88 52.88 656 51.5 656C50.12 656 49 654.88 49 653.5C49 654.88 47.88 656 46.5 656C45.12 656 44 654.88 44 653.5C44 654.88 42.88 656 41.5 656C40.12 656 39 654.88 39 653.5C39 654.88 37.88 656 36.5 656C35.12 656 34 654.88 34 653.5C34 654.88 32.88 656 31.5 656C30.12 656 29 654.88 29 653.5C29 654.88 27.88 656 26.5 656C25.12 656 24 654.88 24 653.5C24 654.88 22.88 656 21.5 656C20.12 656 19 654.88 19 653.5L19 661L64 661Z" />
				<path id="Shape" fill-rule="evenodd" class="shp15" d="M164 653.5L164 663.5C164 664.88 162.88 666 161.5 666L111.5 666C110.12 666 109 664.88 109 663.5L109 653.5C109 650.74 111.24 648.5 114 648.5C114.91 648.5 115.76 648.75 116.5 649.17C117.97 648.32 120.03 648.32 121.5 649.17C122.97 648.32 125.03 648.32 126.5 649.17C127.97 648.32 130.03 648.32 131.5 649.17C132.97 648.32 135.03 648.32 136.5 649.17C137.97 648.32 140.03 648.32 141.5 649.17C142.97 648.32 145.03 648.32 146.5 649.17C147.97 648.32 150.03 648.32 151.5 649.17C152.97 648.32 155.03 648.32 156.5 649.17C157.23 648.75 158.09 648.5 159 648.5C161.76 648.5 164 650.74 164 653.5ZM159 661L159 653.5C159 654.88 157.88 656 156.5 656C155.12 656 154 654.88 154 653.5C154 654.88 152.88 656 151.5 656C150.12 656 149 654.88 149 653.5C149 654.88 147.88 656 146.5 656C145.12 656 144 654.88 144 653.5C144 654.88 142.88 656 141.5 656C140.12 656 139 654.88 139 653.5C139 654.88 137.88 656 136.5 656C135.12 656 134 654.88 134 653.5C134 654.88 132.88 656 131.5 656C130.12 656 129 654.88 129 653.5C129 654.88 127.88 656 126.5 656C125.12 656 124 654.88 124 653.5C124 654.88 122.88 656 121.5 656C120.12 656 119 654.88 119 653.5C119 654.88 117.88 656 116.5 656C115.12 656 114 654.88 114 653.5L114 661L159 661Z" />
				<path id="Path" class="shp16" d="M20.38 580.74C21.62 581.36 23.12 580.85 23.74 579.62L31.5 564.09L31.5 578.5C31.5 579.88 32.62 581 34 581C35.38 581 36.5 579.88 36.5 578.5L36.5 564.09L44.26 579.62C44.7 580.5 45.58 581 46.5 581C46.88 581 47.26 580.92 47.62 580.74C48.85 580.12 49.36 578.62 48.74 577.38L36.24 552.38C36.13 552.17 35.99 551.98 35.82 551.82C35.37 551.32 34.73 551 34 551C33.27 551 32.63 551.32 32.18 551.82C32.01 551.98 31.87 552.17 31.76 552.38L19.26 577.38C18.65 578.62 19.15 580.12 20.38 580.74Z" />
				<path id="Path" class="shp17" d="M124 613.5L124 606L129 606L129 641C129 642.38 130.12 643.5 131.5 643.5C132.88 643.5 134 642.38 134 641L134 603.5C134 602.12 132.88 601 131.5 601L121.5 601C120.12 601 119 602.12 119 603.5L119 611L109 611L109 603.5C109 602.12 107.88 601 106.5 601L96.5 601C95.12 601 94 602.12 94 603.5L94 611L84 611L84 603.5C84 602.12 82.88 601 81.5 601L71.5 601C70.12 601 69 602.12 69 603.5L69 611L59 611L59 603.5C59 602.12 57.88 601 56.5 601L46.5 601C45.12 601 44 602.12 44 603.5L44 641C44 642.38 45.12 643.5 46.5 643.5C47.88 643.5 49 642.38 49 641L49 606L54 606L54 613.5C54 614.88 55.12 616 56.5 616L71.5 616C72.88 616 74 614.88 74 613.5L74 606L79 606L79 613.5C79 614.88 80.12 616 81.5 616L96.5 616C97.88 616 99 614.88 99 613.5L99 606L104 606L104 613.5C104 614.88 105.12 616 106.5 616L121.5 616C122.88 616 124 614.88 124 613.5Z" />
				<path id="Path" class="shp34" d="M16.5 531L19 531L19 533.5C19 534.88 20.12 536 21.5 536C22.88 536 24 534.88 24 533.5L24 531L26.5 531C27.88 531 29 529.88 29 528.5C29 527.12 27.88 526 26.5 526L24 526L24 523.5C24 522.12 22.88 521 21.5 521C20.12 521 19 522.12 19 523.5L19 526L16.5 526C15.12 526 14 527.12 14 528.5C14 529.88 15.12 531 16.5 531Z" />
				<path id="Path" class="shp21" d="M16.5 591L19 591L19 643.5C19 644.88 20.12 646 21.5 646C22.88 646 24 644.88 24 643.5L24 591L44 591L44 593.5C44 594.88 45.12 596 46.5 596C47.88 596 49 594.88 49 593.5L49 591L51.5 591C52.88 591 54 589.88 54 588.5C54 587.12 52.88 586 51.5 586L16.5 586C15.12 586 14 587.12 14 588.5C14 589.88 15.12 591 16.5 591Z" />
				<path id="Path" class="shp3" d="M36.5 603.5C36.5 602.12 35.38 601 34 601C32.62 601 31.5 602.12 31.5 603.5L31.5 608.5C31.5 609.88 32.62 611 34 611C35.38 611 36.5 609.88 36.5 608.5L36.5 603.5Z" />
			</g>
		</g>
		<g id="Crown">
			<path id="Spacing" class="shp0" d="M264 516L414 516L414 666L264 666L264 516Z" />
			<g id="Icon">
				<path id="Shape" fill-rule="evenodd" class="shp35" d="M407.63 596.06C411.36 597.49 414 601.85 414 607.14C414 613.64 410.03 618.72 404.97 618.72C404.13 618.72 403.3 618.58 402.51 618.3L401.5 622.67C403.36 623.26 404.71 625.01 404.71 627.06L404.71 631.04C404.71 633.58 402.64 635.65 400.1 635.65L376.57 635.65C375.35 635.65 374.37 634.66 374.37 633.45C374.37 632.23 375.35 631.25 376.57 631.25L400.1 631.25C400.22 631.25 400.31 631.15 400.31 631.04L400.31 627.06C400.31 626.95 400.22 626.85 400.1 626.85L277.9 626.85C277.78 626.85 277.69 626.95 277.69 627.06L277.69 631.04C277.69 631.15 277.78 631.25 277.9 631.25L367.01 631.25C368.23 631.25 369.21 632.23 369.21 633.45C369.21 634.66 368.23 635.65 367.01 635.65L277.9 635.65C275.36 635.65 273.29 633.58 273.29 631.04L273.29 627.06C273.29 625.01 274.64 623.26 276.5 622.67L275.49 618.3C274.7 618.58 273.87 618.72 273.03 618.72C267.96 618.72 264 613.64 264 607.14C264 601.85 266.64 597.49 270.37 596.06L267.18 582.24C266.51 579.32 269.93 577.19 272.23 579.12C274.22 580.79 277.32 583.02 280.75 584.16C283.24 584.98 285.05 586.8 285.83 589.29C286.71 592.05 286.18 595.42 284.51 597.66C283.61 598.88 283.8 600.5 284.95 601.36C286.23 602.31 287.84 602.8 289.72 602.8C292.98 602.8 294.76 595.65 295.13 588.46C292 588.77 289.43 587.74 287.94 585.53C285.88 582.45 288.91 576.51 295.82 564.61C297.59 561.56 299.27 558.68 300.25 556.66C300.72 555.68 301.64 555.03 302.71 554.91C303.79 554.79 304.83 555.23 305.5 556.07C307.95 559.16 313.65 567.19 313.65 575.13C313.65 577.97 313.95 581.27 314.5 584.41C314.7 585.61 313.9 586.74 312.71 586.95C311.51 587.16 310.37 586.36 310.17 585.16C309.58 581.78 309.25 578.22 309.25 575.13C309.25 569.58 305.52 563.55 303.26 560.41C302.26 562.29 300.97 564.51 299.62 566.82C298.06 569.5 291.57 580.36 291.69 583.21C292.65 584.42 294.69 584.16 295.85 583.89C297.79 583.43 299.63 584.92 299.59 586.91C299.45 593.01 298.21 607.2 289.72 607.2C286.87 607.2 284.38 606.42 282.33 604.89C279.25 602.6 278.65 598.18 280.98 595.04C281.7 594.07 282.16 592.24 281.64 590.62C281.28 589.48 280.52 588.71 279.37 588.33C276.71 587.45 274.26 586.06 272.25 584.66L279.09 614.33C279.09 614.34 279.09 614.34 279.09 614.35L280.96 622.45L397.04 622.45L398.91 614.35C398.91 614.34 398.91 614.34 398.91 614.33L405.75 584.66C403.74 586.06 401.29 587.45 398.63 588.33C397.48 588.71 396.72 589.48 396.36 590.62C395.84 592.24 396.3 594.07 397.02 595.04C399.35 598.18 398.75 602.6 395.67 604.89C393.62 606.42 391.13 607.2 388.28 607.2C379.79 607.2 378.55 593.01 378.42 586.91C378.37 584.92 380.21 583.43 382.15 583.89C383.31 584.16 385.35 584.42 386.32 583.2C386.34 582.74 386.14 580.87 382.91 574.82C382.33 573.75 382.74 572.42 383.81 571.84C384.88 571.27 386.21 571.68 386.78 572.75C390.61 579.92 391.5 583.38 390.06 585.53C388.57 587.74 386.01 588.76 382.87 588.46C383.24 595.65 385.02 602.8 388.28 602.8C390.16 602.8 391.77 602.31 393.05 601.36C394.2 600.5 394.39 598.88 393.49 597.66C391.83 595.42 391.29 592.05 392.17 589.29C392.95 586.8 394.76 584.98 397.25 584.16C400.68 583.02 403.78 580.79 405.77 579.12C408.07 577.2 411.49 579.32 410.82 582.24L407.63 596.06ZM273.03 614.32C273.58 614.32 274.07 614.16 274.49 613.94L271.38 600.46C269.65 601.51 268.39 604.15 268.39 607.14C268.39 611.04 270.52 614.32 273.03 614.32ZM404.97 614.32C407.48 614.32 409.61 611.04 409.61 607.14C409.61 604.15 408.35 601.51 406.62 600.46L403.51 613.94C403.93 614.16 404.42 614.32 404.97 614.32Z" />
				<path id="Path" class="shp36" d="M312.89 594.85C314.46 598.41 316.41 600.44 318.69 600.87C321.75 601.46 325.02 599.92 327.45 597.9C331.74 594.35 334.3 588.76 334.3 582.94L334.3 578.78C334.3 576.18 331.45 574.58 329.24 575.93C328.56 576.35 327.58 576.57 326.42 576.57C323.51 576.57 321.57 575.67 321.57 571.31C321.57 571.02 321.8 569.32 326.21 564.3C329.15 560.96 332.98 557.22 336.05 554.22C337.14 553.17 338.12 552.21 339 551.33C339.88 552.21 340.87 553.17 341.96 554.23C345.03 557.23 348.86 560.96 351.79 564.3C356.2 569.32 356.43 571.02 356.43 571.31C356.43 575.67 354.49 576.57 351.58 576.57C350.4 576.57 349.45 576.35 348.76 575.93C346.54 574.58 343.7 576.18 343.7 578.78L343.7 582.94C343.7 588.76 346.26 594.35 350.55 597.9C353.45 600.3 356.64 601.39 359.32 600.87C366.37 599.52 368.75 582.62 368.75 575.13C368.75 569.58 372.48 563.55 374.74 560.41C375.73 562.27 377 564.45 378.32 566.73C378.93 567.78 380.28 568.13 381.33 567.52C382.38 566.91 382.73 565.57 382.12 564.52C380.38 561.51 378.73 558.68 377.75 556.66C377.28 555.68 376.36 555.03 375.29 554.91C374.21 554.79 373.17 555.23 372.5 556.08C370.05 559.16 364.35 567.19 364.35 575.13C364.35 579.67 363.6 585.15 362.38 589.42C360.85 594.77 359.16 596.42 358.49 596.55C357.49 596.75 355.54 596.33 353.35 594.51C350.06 591.79 348.1 587.47 348.1 582.94L348.1 580.44C349.14 580.79 350.3 580.97 351.58 580.97C357.54 580.97 360.82 577.53 360.82 571.31C360.82 566.84 353.97 559.81 345.02 551.08C340.96 547.13 340.93 547.03 340.56 546.65C340.15 546.23 339.59 546 339 546C338.42 546 337.85 546.23 337.44 546.65C336.93 547.17 336.95 547.21 332.99 551.07C324.03 559.81 317.18 566.84 317.18 571.31C317.18 577.54 320.46 580.97 326.42 580.97C327.7 580.97 328.86 580.79 329.9 580.44L329.9 582.94C329.9 587.47 327.94 591.79 324.65 594.51C322.46 596.33 320.51 596.75 319.51 596.55C319.39 596.53 318.31 596.24 316.91 593.07C316.42 591.96 315.13 591.46 314.02 591.95C312.91 592.44 312.4 593.74 312.89 594.85L312.89 594.85Z" />
				<path id="Shape" fill-rule="evenodd" class="shp37" d="M339 594.27C344.06 594.27 348.17 599.47 348.17 605.85C348.17 612.24 344.06 617.43 339 617.43C333.94 617.43 329.83 612.24 329.83 605.85C329.83 599.47 333.94 594.27 339 594.27ZM334.23 605.85C334.23 609.74 336.41 613.03 339 613.03C341.59 613.03 343.77 609.74 343.77 605.85C343.77 601.96 341.59 598.67 339 598.67C336.41 598.67 334.23 601.96 334.23 605.85Z" />
				<path id="Shape" fill-rule="evenodd" class="shp23" d="M339 574.65C335.16 574.65 332.16 570.87 332.16 566.04C332.16 561.21 335.16 557.43 339 557.43C342.84 557.43 345.84 561.21 345.84 566.04C345.84 570.87 342.84 574.65 339 574.65ZM336.55 566.04C336.55 568.45 337.84 570.25 339 570.25C340.16 570.25 341.45 568.45 341.45 566.04C341.45 563.63 340.16 561.83 339 561.83C337.84 561.83 336.55 563.63 336.55 566.04Z" />
			</g>
		</g>
		<text id="Fantasy Icon Set" style="transform: matrix(1,0,0,1,-736,-118)" >
			<tspan x="0" y="0" class="txt38">Fantasy Icon Set</tspan>
		</text>
		<g id="Color Pallet">
			<path id="Oval" class="shp21" d="M204 -136C212.28 -136 219 -142.72 219 -151C219 -159.28 212.28 -166 204 -166C195.72 -166 189 -159.28 189 -151C189 -142.72 195.72 -136 204 -136Z" />
			<path id="Oval" class="shp15" d="M124 -136C132.28 -136 139 -142.72 139 -151C139 -159.28 132.28 -166 124 -166C115.72 -166 109 -159.28 109 -151C109 -142.72 115.72 -136 124 -136Z" />
			<path id="Oval" class="shp13" d="M164 -136C172.28 -136 179 -142.72 179 -151C179 -159.28 172.28 -166 164 -166C155.72 -166 149 -159.28 149 -151C149 -142.72 155.72 -136 164 -136Z" />
			<path id="Oval" class="shp20" d="M284 -136C292.28 -136 299 -142.72 299 -151C299 -159.28 292.28 -166 284 -166C275.72 -166 269 -159.28 269 -151C269 -142.72 275.72 -136 284 -136Z" />
			<path id="Oval" class="shp16" d="M244 -136C252.28 -136 259 -142.72 259 -151C259 -159.28 252.28 -166 244 -166C235.72 -166 229 -159.28 229 -151C229 -142.72 235.72 -136 244 -136Z" />
			<path id="Oval" class="shp17" d="M84 -136C92.28 -136 99 -142.72 99 -151C99 -159.28 92.28 -166 84 -166C75.72 -166 69 -159.28 69 -151C69 -142.72 75.72 -136 84 -136Z" />
			<path id="Oval" class="shp39" d="M364 -136C372.28 -136 379 -142.72 379 -151C379 -159.28 372.28 -166 364 -166C355.72 -166 349 -159.28 349 -151C349 -142.72 355.72 -136 364 -136Z" />
			<path id="Oval" class="shp23" d="M324 -136C332.28 -136 339 -142.72 339 -151C339 -159.28 332.28 -166 324 -166C315.72 -166 309 -159.28 309 -151C309 -142.72 315.72 -136 324 -136Z" />
		</g>
	</g>
</svg>