<svg xmlns="http://www.w3.org/2000/svg" viewBox="0 0 175 175" width="175" height="175">
	<defs>
		<clipPath clipPathUnits="userSpaceOnUse" id="cp1">
			<path d="M-1211 -626L389 -626L389 574L-1211 574Z" />
		</clipPath>
	</defs>
	<style>
		tspan { white-space:pre }
		.shp0 { fill: #ffffff } 
		.shp1 { fill: #50e3c2 } 
		.shp2 { fill: #bd10e0 } 
		.shp3 { fill: #4a90e2 } 
		.shp4 { fill: #ff00f5 } 
		.shp5 { fill: #50e38c } 
		.shp6 { fill: #f8e71c } 
		.shp7 { fill: #9013fe } 
		.shp8 { fill: #ff00b6 } 
		.shp9 { fill: #e800ff } 
		.shp10 { fill: #ff0053 } 
		.shp11 { fill: #3c57ff } 
		.shp12 { fill: #27cedb } 
		.shp13 { fill: #0f7cfa } 
		.shp14 { fill: #00ffc6 } 
		.shp15 { fill: #9210e0 } 
		.shp16 { fill: #ff008f } 
		.shp17 { fill: #ffa7e6 } 
		.shp18 { fill: #ffcb74 } 
		.shp19 { fill: #fff683 } 
		.shp20 { fill: #ff0082 } 
		.txt21 { font-size: 100px;fill: #ffffff;font-family: "Leckerli One";font-weight: 400 } 
		.shp22 { fill: #f8c61c } 
	</style>
	<g id="Dribbble Shot" clip-path="url(#cp1)">
		<g id="Round Potion">
			<path id="Spacing" class="shp0" d="M-986 264L-836 264L-836 414L-986 414L-986 264Z" />
			<g id="Icon">
				<path id="Shape" fill-rule="evenodd" class="shp1" d="M-929.97 318.21L-929.97 301.5C-934.09 301.5 -937.45 298.14 -937.45 294C-937.45 289.87 -934.09 286.5 -929.97 286.5L-925.59 286.5L-928.56 273.13C-929.05 270.9 -928.52 268.59 -927.09 266.81C-925.66 265.02 -923.53 264 -921.25 264L-898.75 264C-896.47 264 -894.34 265.02 -892.91 266.81C-891.48 268.59 -890.95 270.89 -891.44 273.13L-894.41 286.5L-890.03 286.5C-885.91 286.5 -882.55 289.86 -882.55 294C-882.55 298.13 -885.91 301.5 -890.03 301.5L-890.03 318.21C-871.79 326.18 -860.09 343.97 -860.09 364C-860.09 391.57 -882.48 414 -910 414C-937.52 414 -959.91 391.57 -959.91 364C-959.91 343.97 -948.21 326.18 -929.97 318.21ZM-910 409C-885.23 409 -865.08 388.81 -865.08 364C-865.08 363.07 -865.13 362.14 -865.18 361.22L-868.01 362.71C-874.73 366.25 -882.04 368.02 -889.35 368.02C-897.09 368.02 -904.81 366.04 -911.8 362.1C-923.24 355.65 -937.18 355.13 -949.07 360.69L-954.9 363.41C-954.9 363.61 -954.92 363.8 -954.92 364C-954.92 388.81 -934.77 409 -910 409ZM-865.83 355.91C-865.85 355.79 -865.87 355.67 -865.9 355.54C-867.44 355.28 -869.08 355.17 -871.55 355.03C-878.16 354.65 -884.67 357.13 -889.43 361.85L-890.57 362.98C-883.66 363.19 -876.7 361.64 -870.34 358.29L-865.83 355.91ZM-920.48 286.5L-899.53 286.5L-896.32 272.04C-896.15 271.3 -896.33 270.53 -896.81 269.94C-897.28 269.34 -897.99 269 -898.75 269L-921.25 269C-922.01 269 -922.72 269.34 -923.19 269.94C-923.67 270.53 -923.85 271.3 -923.68 272.04L-920.48 286.5ZM-932.46 294C-932.46 295.38 -931.34 296.5 -929.97 296.5L-890.03 296.5C-888.66 296.5 -887.54 295.38 -887.54 294C-887.54 292.62 -888.66 291.5 -890.03 291.5L-929.97 291.5C-931.34 291.5 -932.46 292.62 -932.46 294ZM-916.94 301.5L-915.44 309L-904.56 309L-903.06 301.5L-916.94 301.5ZM-926.55 322.19C-941.8 328.26 -952.26 341.81 -954.47 357.7L-951.18 356.16C-937.83 349.92 -922.2 350.51 -909.36 357.75C-905.43 359.96 -901.25 361.46 -896.97 362.28L-892.94 358.3C-887.17 352.57 -879.25 349.55 -871.26 350.04C-869.74 350.13 -868.43 350.21 -867.19 350.33C-871.18 337.7 -880.62 327.3 -893.45 322.19C-894.4 321.82 -895.03 320.89 -895.03 319.87L-895.03 301.5L-897.97 301.5L-900.07 311.99C-900.3 313.16 -901.32 314 -902.51 314L-917.49 314C-918.68 314 -919.7 313.16 -919.94 311.99L-922.03 301.5L-924.97 301.5L-924.97 319.87C-924.97 320.89 -925.6 321.82 -926.55 322.19Z" />
				<path id="Shape" fill-rule="evenodd" class="shp2" d="M-867.4 299.02C-861.93 299.02 -857.47 303.47 -857.47 308.95C-857.47 314.42 -861.93 318.88 -867.4 318.88C-872.88 318.88 -877.33 314.42 -877.33 308.95C-877.33 303.47 -872.88 299.02 -867.4 299.02ZM-872.37 308.95C-872.37 311.69 -870.14 313.91 -867.4 313.91C-864.67 313.91 -862.44 311.69 -862.44 308.95C-862.44 306.21 -864.67 303.98 -867.4 303.98C-870.14 303.98 -872.37 306.21 -872.37 308.95Z" />
				<path id="Shape" fill-rule="evenodd" class="shp3" d="M-850.16 264C-843.24 264 -837.61 269.63 -837.61 276.54C-837.61 283.46 -843.24 289.09 -850.16 289.09C-857.07 289.09 -862.7 283.46 -862.7 276.54C-862.7 269.63 -857.07 264 -850.16 264ZM-857.68 276.54C-857.68 280.69 -854.31 284.07 -850.16 284.07C-846.01 284.07 -842.63 280.69 -842.63 276.54C-842.63 272.39 -846.01 269.02 -850.16 269.02C-854.31 269.02 -857.68 272.39 -857.68 276.54Z" />
				<path id="Shape" fill-rule="evenodd" class="shp4" d="M-944.76 296.4C-944.76 301.88 -949.21 306.33 -954.69 306.33C-960.16 306.33 -964.62 301.88 -964.62 296.4C-964.62 290.93 -960.16 286.47 -954.69 286.47C-949.21 286.47 -944.76 290.93 -944.76 296.4ZM-949.72 296.4C-949.72 293.67 -951.95 291.44 -954.69 291.44C-957.42 291.44 -959.65 293.67 -959.65 296.4C-959.65 299.14 -957.42 301.37 -954.69 301.37C-951.95 301.37 -949.72 299.14 -949.72 296.4Z" />
				<path id="Shape" fill-rule="evenodd" class="shp5" d="M-977.42 341.35C-981.6 341.35 -985 337.95 -985 333.77C-985 329.6 -981.6 326.2 -977.42 326.2C-973.24 326.2 -969.84 329.6 -969.84 333.77C-969.84 337.95 -973.24 341.35 -977.42 341.35ZM-977.42 336.3C-976.03 336.3 -974.9 335.17 -974.9 333.77C-974.9 332.38 -976.03 331.25 -977.42 331.25C-978.82 331.25 -979.95 332.38 -979.95 333.77C-979.95 335.17 -978.82 336.3 -977.42 336.3Z" />
				<path id="Path" class="shp6" d="M-941.77 350.24C-937.55 340.51 -929.3 333.31 -919.15 330.49L-920.47 325.67C-932.07 328.9 -941.49 337.12 -946.32 348.23L-941.77 350.24Z" />
			</g>
		</g>
		<g id="Potion Bottle">
			<path id="Spacing" class="shp0" d="M-736 264L-586 264L-586 414L-736 414L-736 264Z" />
			<g id="Icon">
				<path id="Shape" fill-rule="evenodd" class="shp7" d="M-615.54 364.39L-615.54 392.35C-615.54 404.29 -625.23 414 -637.14 414L-684.87 414C-696.79 414 -706.48 404.29 -706.48 392.35L-706.48 364.39C-706.48 358.89 -703.27 353.81 -698.3 351.47C-698.27 351.45 -698.23 351.44 -698.2 351.42L-682.24 344.88C-679.38 343.7 -677.53 340.94 -677.53 337.84L-677.53 333.43C-677.53 332.22 -676.55 331.24 -675.34 331.24C-674.12 331.24 -673.14 332.22 -673.14 333.43L-673.14 337.84C-673.14 342.73 -676.06 347.09 -680.58 348.94L-696.48 355.47C-699.89 357.1 -702.09 360.6 -702.09 364.39L-702.09 392.35C-702.09 401.87 -694.37 409.61 -684.87 409.61L-637.14 409.61C-627.65 409.61 -619.92 401.87 -619.92 392.35L-619.92 364.39C-619.92 360.6 -622.12 357.1 -625.53 355.47L-629.01 354.04C-629.84 353.7 -630.38 352.89 -630.38 352C-630.37 351.1 -629.83 350.3 -629 349.97C-623.49 347.74 -619.92 342.46 -619.92 336.51C-619.92 328.51 -626.42 322.01 -634.4 322.01C-638.16 322.01 -641.79 323.5 -644.49 326.12L-644.49 329.77C-644.49 330.98 -645.47 331.97 -646.68 331.97C-647.89 331.97 -648.87 330.98 -648.87 329.77L-648.87 315.56L-653.4 315.56C-654.62 315.56 -655.6 314.58 -655.6 313.37C-655.6 312.15 -654.62 311.17 -653.4 311.17L-646.97 311.17C-646.95 311.17 -646.94 311.17 -646.92 311.17C-646.9 311.17 -646.88 311.17 -646.86 311.17C-645.88 311.17 -645.07 310.36 -645.07 309.37L-645.07 300.33L-647.97 300.33L-648.27 305.22C-648.27 305.23 -648.27 305.25 -648.27 305.26C-648.42 307.18 -650.04 308.68 -651.96 308.68L-670.64 308.68C-672.56 308.68 -674.18 307.18 -674.33 305.26C-674.33 305.25 -674.33 305.23 -674.33 305.22L-674.63 300.33L-676.94 300.33L-676.94 309.37C-676.94 310.36 -676.14 311.17 -675.15 311.17L-661.01 311.17C-659.8 311.17 -658.81 312.15 -658.81 313.37C-658.81 314.58 -659.8 315.56 -661.01 315.56L-673.14 315.56L-673.14 324.64C-673.14 325.86 -674.12 326.84 -675.34 326.84C-676.55 326.84 -677.53 325.86 -677.53 324.64L-677.53 315.09C-679.76 314.15 -681.33 311.94 -681.33 309.37L-681.33 299.75C-683.23 298.82 -684.55 296.87 -684.55 294.62C-684.55 291.47 -681.99 288.9 -678.85 288.9L-675.48 288.9L-676.11 280.82L-676.92 270.41C-677.04 268.76 -676.48 267.12 -675.35 265.91C-674.23 264.7 -672.65 264 -671 264L-651.6 264C-649.95 264 -648.37 264.7 -647.25 265.91C-646.13 267.12 -645.56 268.76 -645.68 270.41L-646.11 275.96C-646.18 276.75 -646.66 277.45 -647.39 277.79L-649.66 278.83L-647.82 279.7C-647 280.09 -646.5 280.95 -646.57 281.86L-647.12 288.9L-643.76 288.9C-640.61 288.9 -638.05 291.47 -638.05 294.62C-638.05 296.63 -639.11 298.4 -640.68 299.42L-640.68 309.37C-640.68 311.94 -642.26 314.15 -644.49 315.09L-644.49 320.55C-641.49 318.65 -637.99 317.61 -634.4 317.61C-624 317.61 -615.54 326.09 -615.54 336.51C-615.54 342.64 -618.44 348.22 -623.2 351.72C-618.53 354.17 -615.54 359.08 -615.54 364.39ZM-672.54 270.07L-672.47 271.03L-662.76 271.03C-661.55 271.03 -660.57 272.01 -660.57 273.23C-660.57 274.44 -661.55 275.42 -662.76 275.42L-672.13 275.42L-671.72 280.68L-668.61 280.68C-667.4 280.68 -666.42 281.67 -666.42 282.88C-666.42 284.09 -667.4 285.08 -668.61 285.08L-671.38 285.08L-671.08 288.9L-651.52 288.9L-651.06 283.03L-654.61 281.35C-655.6 280.88 -656.23 279.88 -656.22 278.79C-656.21 277.7 -655.57 276.7 -654.58 276.25L-650.39 274.33L-650.06 270.07C-650.02 269.63 -650.17 269.21 -650.47 268.89C-650.76 268.57 -651.17 268.39 -651.6 268.39L-671 268.39C-671.43 268.39 -671.84 268.57 -672.14 268.89C-672.43 269.21 -672.58 269.63 -672.54 270.07ZM-652.37 300.33L-670.24 300.33L-669.99 304.28L-652.61 304.28L-652.37 300.33ZM-643.76 295.93C-643.03 295.93 -642.44 295.34 -642.44 294.62C-642.44 293.89 -643.03 293.3 -643.76 293.3L-678.85 293.3C-679.57 293.3 -680.16 293.89 -680.16 294.62C-680.16 295.34 -679.57 295.93 -678.85 295.93L-643.76 295.93Z" />
				<path id="Shape" fill-rule="evenodd" class="shp2" d="M-623.9 336.39C-623.9 342.29 -628.71 347.1 -634.61 347.1C-640.52 347.1 -645.33 342.29 -645.33 336.39C-645.33 330.48 -640.52 325.67 -634.61 325.67C-628.71 325.67 -623.9 330.48 -623.9 336.39ZM-628.3 336.39C-628.3 332.91 -631.13 330.08 -634.61 330.08C-638.09 330.08 -640.92 332.91 -640.92 336.39C-640.92 339.87 -638.09 342.7 -634.61 342.7C-631.13 342.7 -628.3 339.87 -628.3 336.39Z" />
				<path id="Shape" fill-rule="evenodd" class="shp8" d="M-623.38 390.44L-623.38 392.22C-623.38 399.9 -629.66 406.16 -637.39 406.16L-685.15 406.16C-692.87 406.16 -699.16 399.9 -699.16 392.22L-699.16 377.98C-699.16 376.92 -698.7 375.92 -697.89 375.24C-697.08 374.55 -696.02 374.25 -694.97 374.41L-688.32 375.44C-688.33 375.25 -688.33 375.05 -688.33 374.86C-688.33 369.64 -684.07 365.39 -678.82 365.39C-673.58 365.39 -669.32 369.64 -669.32 374.86C-669.32 376.05 -669.54 377.21 -669.96 378.29L-666.52 378.82C-664.72 379.1 -662.92 379.23 -661.11 379.22C-660.8 372.19 -654.95 366.56 -647.81 366.56C-641.97 366.56 -636.96 370.25 -635.18 375.59L-627.57 374.41C-626.52 374.25 -625.45 374.55 -624.65 375.24C-623.84 375.92 -623.38 376.93 -623.38 377.98L-623.38 381.7C-623.38 382.91 -624.36 383.88 -625.57 383.88C-626.78 383.88 -627.77 382.91 -627.77 381.7L-627.77 378.86L-655.34 383.14C-659.28 383.75 -663.26 383.75 -667.19 383.14L-694.77 378.86L-694.77 392.22C-694.77 397.5 -690.45 401.79 -685.15 401.79L-637.39 401.79C-632.08 401.79 -627.77 397.5 -627.77 392.22L-627.77 390.44C-627.77 389.23 -626.78 388.25 -625.57 388.25C-624.36 388.25 -623.38 389.23 -623.38 390.44ZM-656.69 378.91C-656.47 378.88 -656.24 378.86 -656.02 378.82L-639.61 376.28C-640.99 373.08 -644.16 370.93 -647.81 370.93C-652.43 370.93 -656.24 374.43 -656.69 378.91ZM-683.95 374.86C-683.95 375.3 -683.89 375.73 -683.78 376.15L-674.5 377.58C-673.99 376.78 -673.7 375.84 -673.7 374.86C-673.7 372.05 -676 369.76 -678.83 369.76C-681.65 369.76 -683.95 372.05 -683.95 374.86Z" />
				<path id="Shape" fill-rule="evenodd" class="shp9" d="M-658.92 353.63C-658.92 357.81 -662.32 361.21 -666.49 361.21C-670.67 361.21 -674.07 357.81 -674.07 353.63C-674.07 349.46 -670.67 346.06 -666.49 346.06C-662.32 346.06 -658.92 349.46 -658.92 353.63ZM-663.37 353.63C-663.37 351.91 -664.77 350.51 -666.49 350.51C-668.22 350.51 -669.62 351.91 -669.62 353.63C-669.62 355.35 -668.22 356.75 -666.49 356.75C-664.77 356.75 -663.37 355.35 -663.37 353.63Z" />
				<path id="Shape" fill-rule="evenodd" class="shp10" d="M-666.23 392.31C-666.23 396.49 -669.63 399.89 -673.81 399.89C-677.99 399.89 -681.39 396.49 -681.39 392.31C-681.39 388.13 -677.99 384.73 -673.81 384.73C-669.63 384.73 -666.23 388.13 -666.23 392.31ZM-670.69 392.31C-670.69 390.59 -672.09 389.19 -673.81 389.19C-675.53 389.19 -676.93 390.59 -676.93 392.31C-676.93 394.03 -675.53 395.43 -673.81 395.43C-672.09 395.43 -670.69 394.03 -670.69 392.31Z" />
				<path id="Shape" fill-rule="evenodd" class="shp3" d="M-651.6 327.76C-651.6 332.37 -655.35 336.13 -659.96 336.13C-664.57 336.13 -668.32 332.37 -668.32 327.76C-668.32 323.15 -664.57 319.4 -659.96 319.4C-655.35 319.4 -651.6 323.15 -651.6 327.76ZM-656 327.76C-656 325.58 -657.78 323.8 -659.96 323.8C-662.15 323.8 -663.92 325.58 -663.92 327.76C-663.92 329.95 -662.15 331.72 -659.96 331.72C-657.78 331.72 -656 329.95 -656 327.76Z" />
			</g>
		</g>
		<g id="Cauldren">
			<g id="Icon">
				<path id="Shape" fill-rule="evenodd" class="shp1" d="M108.91 23.09C108.91 18.08 114.01 14 120.27 14C126.54 14 131.64 18.08 131.64 23.09C131.64 28.1 126.54 32.18 120.27 32.18C114.01 32.18 108.91 28.1 108.91 23.09ZM114.59 23.09C114.59 25.6 117.14 27.64 120.27 27.64C123.41 27.64 125.95 25.6 125.95 23.09C125.95 20.58 123.41 18.55 120.27 18.55C117.14 18.55 114.59 20.58 114.59 23.09Z" />
				<path id="Shape" fill-rule="evenodd" class="shp6" d="M31.64 23.09C31.64 18.08 36.73 14 43 14C49.27 14 54.36 18.08 54.36 23.09C54.36 28.1 49.27 32.18 43 32.18C36.73 32.18 31.64 28.1 31.64 23.09ZM37.32 23.09C37.32 25.6 39.87 27.64 43 27.64C46.13 27.64 48.68 25.6 48.68 23.09C48.68 20.58 46.13 18.55 43 18.55C39.87 18.55 37.32 20.58 37.32 23.09Z" />
				<path id="Shape" fill-rule="evenodd" class="shp11" d="M90.73 36.73C90.73 31.71 94.81 27.64 99.82 27.64C104.83 27.64 108.91 31.71 108.91 36.73C108.91 41.74 104.83 45.82 99.82 45.82C94.81 45.82 90.73 41.74 90.73 36.73ZM95.92 36.73C95.92 38.88 97.67 40.62 99.82 40.62C101.97 40.62 103.71 38.88 103.71 36.73C103.71 34.58 101.97 32.83 99.82 32.83C97.67 32.83 95.92 34.58 95.92 36.73Z" />
				<path id="Shape" fill-rule="evenodd" class="shp12" d="M58.91 27.64C58.91 22.62 62.99 18.55 68 18.55C73.01 18.55 77.09 22.62 77.09 27.64C77.09 32.65 73.01 36.73 68 36.73C62.99 36.73 58.91 32.65 58.91 27.64ZM64.1 27.64C64.1 29.78 65.85 31.53 68 31.53C70.15 31.53 71.9 29.78 71.9 27.64C71.9 25.49 70.15 23.74 68 23.74C65.85 23.74 64.1 25.49 64.1 27.64Z" />
				<path id="Shape" fill-rule="evenodd" class="shp13" d="M146.05 148.29C149.1 151.27 149.1 156.11 146.05 159.09C144.52 160.58 142.52 161.32 140.51 161.32C138.51 161.32 136.5 160.58 134.98 159.09L128.17 152.45C116.85 159.73 103.18 164 88.45 164C74.38 164 61.27 160.09 50.26 153.39L44.41 159.09C42.88 160.58 40.88 161.32 38.88 161.32C36.87 161.32 34.87 160.58 33.34 159.09C30.29 156.11 30.29 151.27 33.34 148.29L37.9 143.85C25.6 131.92 18 115.69 18 97.82C18 87.78 20.37 78.15 24.99 69.15L20.05 61.13C19.23 59.79 19.21 58.11 20 56.75C20.78 55.39 22.27 54.55 23.87 54.55L26.2 54.55C27.37 50.16 31.42 46.91 36.27 46.91C38.38 46.91 40.43 47.55 42.15 48.7C44.58 45.97 48.1 44.36 51.92 44.36C53.42 44.36 54.89 44.61 56.28 45.1C58.91 40.05 64.26 36.73 70.19 36.73C77.2 36.73 83.13 41.2 85.1 47.46C87.81 46.55 90.94 46.82 93.45 48.17C96.05 44.27 100.52 41.82 105.42 41.82C110.31 41.82 114.78 44.27 117.39 48.17C120.73 46.36 125.11 46.59 128.26 48.7C130.69 45.97 134.21 44.36 138.03 44.36C144.34 44.36 149.6 48.74 150.82 54.55L153.04 54.55C154.64 54.55 156.12 55.39 156.91 56.75C157.7 58.11 157.68 59.79 156.86 61.13L151.92 69.15C156.54 78.15 158.91 87.78 158.91 97.82C158.91 115.09 151.82 130.83 140.24 142.63L146.05 148.29ZM130.64 54.55L145.42 54.55C144.34 51.58 141.44 49.45 138.03 49.45C135.05 49.45 132.37 51.1 131.04 53.75L130.64 54.55ZM117.78 54.55L126.91 54.55L126.59 54.12C124.68 51.56 120.6 51.36 118.45 53.78L117.78 54.55ZM96.26 54.55L114.57 54.55L114.01 52.95C112.74 49.33 109.29 46.91 105.42 46.91C101.55 46.91 98.09 49.33 96.82 52.95L96.26 54.55ZM83.62 54.55L93.05 54.55L92.38 53.78C90.49 51.65 87.07 51.45 84.94 53.35L83.62 54.55ZM44.53 54.55L80.7 54.55L80.57 51.59C80.34 46.11 75.78 41.82 70.19 41.82C65.55 41.82 61.44 44.89 60.18 49.29L59.22 52.66L56.23 50.72C54.94 49.89 53.46 49.45 51.92 49.45C48.94 49.45 46.26 51.1 44.93 53.75L44.53 54.55ZM31.75 54.55L40.8 54.55L40.48 54.12C39.47 52.77 37.94 52 36.27 52C34.34 52 32.65 53.02 31.75 54.55ZM25.22 59.64L27.81 63.85L27.81 63.85L29.91 67.27L146.99 67.27L149.1 63.85L149.1 63.85L151.69 59.64L25.22 59.64ZM44.93 149.81C44.15 149.22 43.37 148.63 42.62 148.02C42.32 147.78 42.01 147.56 41.72 147.32L37.03 151.89C36.01 152.88 36.01 154.5 37.03 155.49C38.05 156.48 39.71 156.48 40.72 155.49L45.83 150.5C45.53 150.28 45.24 150.03 44.93 149.81ZM88.45 158.91C103.03 158.91 116.51 154.41 127.38 146.81C128.39 146.11 129.36 145.37 130.32 144.62C130.83 144.22 131.33 143.81 131.83 143.4C132.44 142.89 133.03 142.37 133.61 141.84C145.97 130.72 153.69 115.1 153.69 97.82C153.69 88.93 151.69 80.37 147.75 72.36L29.15 72.36C25.22 80.37 23.22 88.93 23.22 97.82C23.22 115.41 31.21 131.28 43.96 142.43C44.94 143.3 45.95 144.15 46.99 144.95C47.32 145.2 47.66 145.44 47.98 145.68C48.82 146.3 49.67 146.9 50.53 147.48C61.23 154.66 74.32 158.91 88.45 158.91ZM142.35 151.89L136.52 146.2C136.3 146.39 136.06 146.56 135.84 146.75C134.95 147.51 134.04 148.25 133.11 148.97C132.9 149.13 132.71 149.31 132.49 149.47L138.67 155.49C139.69 156.48 141.34 156.48 142.36 155.49C143.38 154.5 143.38 152.88 142.35 151.89Z" />
				<path id="Path" class="shp14" d="M88.1 141.03C64.88 141.03 45.99 123.86 45.99 102.76C45.99 101.43 44.81 100.36 43.36 100.36C41.9 100.36 40.73 101.43 40.73 102.76C40.73 126.5 61.98 145.82 88.1 145.82C89.55 145.82 90.73 144.75 90.73 143.43C90.73 142.1 89.55 141.03 88.1 141.03Z" />
			</g>
		</g>
		<g id="Doble Terminated Crystal">
			<path id="Spacing" class="shp0" d="M-486 268L-336 268L-336 418L-486 418L-486 268Z" />
			<g id="Icon">
				<path id="Shape" fill-rule="evenodd" class="shp15" d="M-373.69 302.09L-373.69 375.91C-373.69 376.69 -374 377.44 -374.55 377.98L-409.77 413.14C-410.32 413.69 -411.07 414 -411.85 414C-412.63 414 -413.37 413.69 -413.92 413.14L-449.14 377.98C-449.69 377.44 -450 376.69 -450 375.91L-450 302.09C-450 300.47 -448.69 299.16 -447.07 299.16L-431.13 299.16L-422.15 281.35L-426.31 285.51C-427.46 286.66 -429.32 286.66 -430.46 285.51C-431.61 284.37 -431.61 282.52 -430.46 281.37L-413.92 264.86C-413.37 264.31 -412.63 264 -411.85 264C-411.07 264 -410.32 264.31 -409.77 264.86L-374.55 300.02C-374 300.57 -373.69 301.31 -373.69 302.09ZM-379.56 305.02L-391.3 305.02L-391.3 349.28C-391.3 350.89 -392.62 352.21 -394.24 352.21C-395.86 352.21 -397.17 350.89 -397.17 349.28L-397.17 305.02L-426.52 305.02L-426.52 372.98L-379.56 372.98L-379.56 305.02ZM-439.98 378.84L-422.15 396.65L-431.13 378.84L-439.98 378.84ZM-411.85 404.03L-399.14 378.84L-424.56 378.84L-411.85 404.03ZM-401.55 396.65L-383.71 378.84L-392.56 378.84L-401.55 396.65ZM-383.71 299.16L-401.55 281.35L-392.57 299.16L-383.71 299.16ZM-424.56 299.16L-399.14 299.16L-411.85 273.97L-424.56 299.16ZM-444.13 305.02L-444.13 372.98L-432.39 372.98L-432.39 305.02L-444.13 305.02Z" />
				<path id="Path" class="shp16" d="M-437.72 295.88C-436.94 295.88 -436.16 295.56 -435.59 294.94L-435.59 294.94C-434.52 293.76 -434.61 291.95 -435.78 290.88C-436.96 289.81 -438.78 289.9 -439.84 291.07C-440.91 292.25 -440.83 294.07 -439.65 295.13C-439.1 295.63 -438.41 295.88 -437.72 295.88Z" />
				<path id="Path" class="shp16" d="M-394.34 359.64C-395.93 359.64 -397.21 360.93 -397.21 362.52C-397.21 364.11 -395.93 365.39 -394.34 365.39C-392.75 365.39 -391.46 364.11 -391.46 362.52L-391.46 362.52C-391.46 360.93 -392.75 359.64 -394.34 359.64Z" />
			</g>
		</g>
		<g id="Castle">
			<path id="Spacing" class="shp0" d="M-236 264L-86 264L-86 414L-236 414L-236 264Z" />
			<g id="Icon">
				<path id="Path" class="shp6" d="M-106 369C-107.38 369 -108.5 370.12 -108.5 371.5L-108.5 376.5C-108.5 377.88 -107.38 379 -106 379C-104.62 379 -103.5 377.88 -103.5 376.5L-103.5 371.5C-103.5 370.12 -104.62 369 -106 369Z" />
				<path id="Path" class="shp12" d="M-174.62 308.74C-173.38 309.36 -171.88 308.85 -171.26 307.62L-163.5 292.09L-163.5 306.5C-163.5 307.88 -162.38 309 -161 309C-159.62 309 -158.5 307.88 -158.5 306.5L-158.5 292.09L-150.74 307.62C-150.3 308.5 -149.42 309 -148.5 309C-148.12 309 -147.74 308.92 -147.38 308.74C-146.15 308.12 -145.64 306.62 -146.26 305.38L-158.5 280.91L-158.5 269L-146 269L-146 274L-153.5 274C-154.88 274 -156 275.12 -156 276.5C-156 277.88 -154.88 279 -153.5 279L-143.5 279C-142.12 279 -141 277.88 -141 276.5L-141 266.5C-141 265.12 -142.12 264 -143.5 264L-161 264C-162.38 264 -163.5 265.12 -163.5 266.5L-163.5 280.91L-175.74 305.38C-176.36 306.62 -175.85 308.12 -174.62 308.74Z" />
				<path id="Path" class="shp3" d="M-148.5 344C-147.12 344 -146 342.88 -146 341.5L-146 319L-143.5 319C-142.12 319 -141 317.88 -141 316.5C-141 315.12 -142.12 314 -143.5 314L-178.5 314C-179.88 314 -181 315.12 -181 316.5C-181 317.88 -179.88 319 -178.5 319L-176 319L-176 341.5C-176 342.88 -174.88 344 -173.5 344C-172.12 344 -171 342.88 -171 341.5L-171 319L-151 319L-151 341.5C-151 342.88 -149.88 344 -148.5 344Z" />
				<path id="Path" class="shp6" d="M-163.5 331.5L-163.5 336.5C-163.5 337.88 -162.38 339 -161 339C-159.62 339 -158.5 337.88 -158.5 336.5L-158.5 331.5C-158.5 330.12 -159.62 329 -161 329C-162.38 329 -163.5 330.12 -163.5 331.5Z" />
				<path id="Path" class="shp3" d="M-123.5 339L-121 339L-121 341.5C-121 342.88 -119.88 344 -118.5 344C-117.12 344 -116 342.88 -116 341.5L-116 339L-96 339L-96 389C-96 390.38 -94.88 391.5 -93.5 391.5C-92.12 391.5 -91 390.38 -91 389L-91 339L-88.5 339C-87.12 339 -86 337.88 -86 336.5C-86 335.12 -87.12 334 -88.5 334L-123.5 334C-124.88 334 -126 335.12 -126 336.5C-126 337.88 -124.88 339 -123.5 339Z" />
				<path id="Path" class="shp17" d="M-116 289C-116 290.38 -114.88 291.5 -113.5 291.5C-112.12 291.5 -111 290.38 -111 289C-109.62 289 -108.5 287.88 -108.5 286.5C-108.5 285.12 -109.62 284 -111 284C-111 282.62 -112.12 281.5 -113.5 281.5C-114.88 281.5 -116 282.62 -116 284C-117.38 284 -118.5 285.12 -118.5 286.5C-118.5 287.88 -117.38 289 -116 289Z" />
				<path id="Path" class="shp12" d="M-119.62 328.74C-118.38 329.36 -116.88 328.85 -116.26 327.62L-108.5 312.09L-108.5 326.5C-108.5 327.88 -107.38 329 -106 329C-104.62 329 -103.5 327.88 -103.5 326.5L-103.5 312.09L-95.74 327.62C-95.3 328.5 -94.42 329 -93.5 329C-93.12 329 -92.74 328.92 -92.38 328.74C-91.15 328.12 -90.65 326.62 -91.26 325.38L-103.76 300.38C-103.87 300.17 -104.01 299.98 -104.18 299.82C-104.63 299.32 -105.27 299 -106 299C-106.73 299 -107.37 299.32 -107.82 299.82C-107.99 299.98 -108.13 300.17 -108.24 300.38L-120.74 325.38C-121.35 326.62 -120.85 328.12 -119.62 328.74Z" />
				<path id="Shape" fill-rule="evenodd" class="shp6" d="M-146 389L-146 411.5C-146 412.88 -147.12 414 -148.5 414L-173.5 414C-174.88 414 -176 412.88 -176 411.5L-176 389C-176 380.73 -169.27 374 -161 374C-152.73 374 -146 380.73 -146 389ZM-151 404L-171 404L-171 409L-151 409L-151 404ZM-151 394L-171 394L-171 399L-151 399L-151 394ZM-151 389C-151 383.49 -155.48 379 -161 379C-166.51 379 -171 383.48 -171 389L-151 389Z" />
				<path id="Path" class="shp6" d="M-103.5 351.5C-103.5 350.12 -104.62 349 -106 349C-107.38 349 -108.5 350.12 -108.5 351.5L-108.5 356.5C-108.5 357.88 -107.38 359 -106 359C-104.62 359 -103.5 357.88 -103.5 356.5L-103.5 351.5Z" />
				<path id="Path" class="shp17" d="M-186 271.5C-186 272.88 -184.88 274 -183.5 274C-182.12 274 -181 272.88 -181 271.5C-179.62 271.5 -178.5 270.38 -178.5 269C-178.5 267.62 -179.62 266.5 -181 266.5C-181 265.12 -182.12 264 -183.5 264C-184.88 264 -186 265.12 -186 266.5C-187.38 266.5 -188.5 267.62 -188.5 269C-188.5 270.38 -187.38 271.5 -186 271.5Z" />
				<path id="Path" class="shp6" d="M-216 369C-217.38 369 -218.5 370.12 -218.5 371.5L-218.5 376.5C-218.5 377.88 -217.38 379 -216 379C-214.62 379 -213.5 377.88 -213.5 376.5L-213.5 371.5C-213.5 370.12 -214.62 369 -216 369Z" />
				<path id="Shape" fill-rule="evenodd" class="shp2" d="M-181 401.5L-181 411.5C-181 412.88 -182.12 414 -183.5 414L-233.5 414C-234.88 414 -236 412.88 -236 411.5L-236 401.5C-236 398.74 -233.76 396.5 -231 396.5C-230.09 396.5 -229.24 396.75 -228.5 397.17C-227.03 396.32 -224.97 396.32 -223.5 397.17C-222.03 396.32 -219.97 396.32 -218.5 397.17C-217.03 396.32 -214.97 396.32 -213.5 397.17C-212.03 396.32 -209.97 396.32 -208.5 397.17C-207.03 396.32 -204.97 396.32 -203.5 397.17C-202.03 396.32 -199.97 396.32 -198.5 397.17C-197.03 396.32 -194.97 396.32 -193.5 397.17C-192.03 396.32 -189.97 396.32 -188.5 397.17C-187.77 396.75 -186.91 396.5 -186 396.5C-183.24 396.5 -181 398.74 -181 401.5ZM-186 409L-186 401.5C-186 402.88 -187.12 404 -188.5 404C-189.88 404 -191 402.88 -191 401.5C-191 402.88 -192.12 404 -193.5 404C-194.88 404 -196 402.88 -196 401.5C-196 402.88 -197.12 404 -198.5 404C-199.88 404 -201 402.88 -201 401.5C-201 402.88 -202.12 404 -203.5 404C-204.88 404 -206 402.88 -206 401.5C-206 402.88 -207.12 404 -208.5 404C-209.88 404 -211 402.88 -211 401.5C-211 402.88 -212.12 404 -213.5 404C-214.88 404 -216 402.88 -216 401.5C-216 402.88 -217.12 404 -218.5 404C-219.88 404 -221 402.88 -221 401.5C-221 402.88 -222.12 404 -223.5 404C-224.88 404 -226 402.88 -226 401.5C-226 402.88 -227.12 404 -228.5 404C-229.88 404 -231 402.88 -231 401.5L-231 409L-186 409Z" />
				<path id="Shape" fill-rule="evenodd" class="shp2" d="M-86 401.5L-86 411.5C-86 412.88 -87.12 414 -88.5 414L-138.5 414C-139.88 414 -141 412.88 -141 411.5L-141 401.5C-141 398.74 -138.76 396.5 -136 396.5C-135.09 396.5 -134.24 396.75 -133.5 397.17C-132.03 396.32 -129.97 396.32 -128.5 397.17C-127.03 396.32 -124.97 396.32 -123.5 397.17C-122.03 396.32 -119.97 396.32 -118.5 397.17C-117.03 396.32 -114.97 396.32 -113.5 397.17C-112.03 396.32 -109.97 396.32 -108.5 397.17C-107.03 396.32 -104.97 396.32 -103.5 397.17C-102.03 396.32 -99.97 396.32 -98.5 397.17C-97.03 396.32 -94.97 396.32 -93.5 397.17C-92.77 396.75 -91.91 396.5 -91 396.5C-88.24 396.5 -86 398.74 -86 401.5ZM-91 409L-91 401.5C-91 402.88 -92.12 404 -93.5 404C-94.88 404 -96 402.88 -96 401.5C-96 402.88 -97.12 404 -98.5 404C-99.88 404 -101 402.88 -101 401.5C-101 402.88 -102.12 404 -103.5 404C-104.88 404 -106 402.88 -106 401.5C-106 402.88 -107.12 404 -108.5 404C-109.88 404 -111 402.88 -111 401.5C-111 402.88 -112.12 404 -113.5 404C-114.88 404 -116 402.88 -116 401.5C-116 402.88 -117.12 404 -118.5 404C-119.88 404 -121 402.88 -121 401.5C-121 402.88 -122.12 404 -123.5 404C-124.88 404 -126 402.88 -126 401.5C-126 402.88 -127.12 404 -128.5 404C-129.88 404 -131 402.88 -131 401.5C-131 402.88 -132.12 404 -133.5 404C-134.88 404 -136 402.88 -136 401.5L-136 409L-91 409Z" />
				<path id="Path" class="shp12" d="M-229.62 328.74C-228.38 329.36 -226.88 328.85 -226.26 327.62L-218.5 312.09L-218.5 326.5C-218.5 327.88 -217.38 329 -216 329C-214.62 329 -213.5 327.88 -213.5 326.5L-213.5 312.09L-205.74 327.62C-205.3 328.5 -204.42 329 -203.5 329C-203.12 329 -202.74 328.92 -202.38 328.74C-201.15 328.12 -200.64 326.62 -201.26 325.38L-213.76 300.38C-213.87 300.17 -214.01 299.98 -214.18 299.82C-214.63 299.32 -215.27 299 -216 299C-216.73 299 -217.37 299.32 -217.82 299.82C-217.99 299.98 -218.13 300.17 -218.24 300.38L-230.74 325.38C-231.35 326.62 -230.85 328.12 -229.62 328.74Z" />
				<path id="Path" class="shp8" d="M-126 361.5L-126 354L-121 354L-121 389C-121 390.38 -119.88 391.5 -118.5 391.5C-117.12 391.5 -116 390.38 -116 389L-116 351.5C-116 350.12 -117.12 349 -118.5 349L-128.5 349C-129.88 349 -131 350.12 -131 351.5L-131 359L-141 359L-141 351.5C-141 350.12 -142.12 349 -143.5 349L-153.5 349C-154.88 349 -156 350.12 -156 351.5L-156 359L-166 359L-166 351.5C-166 350.12 -167.12 349 -168.5 349L-178.5 349C-179.88 349 -181 350.12 -181 351.5L-181 359L-191 359L-191 351.5C-191 350.12 -192.12 349 -193.5 349L-203.5 349C-204.88 349 -206 350.12 -206 351.5L-206 389C-206 390.38 -204.88 391.5 -203.5 391.5C-202.12 391.5 -201 390.38 -201 389L-201 354L-196 354L-196 361.5C-196 362.88 -194.88 364 -193.5 364L-178.5 364C-177.12 364 -176 362.88 -176 361.5L-176 354L-171 354L-171 361.5C-171 362.88 -169.88 364 -168.5 364L-153.5 364C-152.12 364 -151 362.88 -151 361.5L-151 354L-146 354L-146 361.5C-146 362.88 -144.88 364 -143.5 364L-128.5 364C-127.12 364 -126 362.88 -126 361.5Z" />
				<path id="Path" class="shp17" d="M-233.5 279L-231 279L-231 281.5C-231 282.88 -229.88 284 -228.5 284C-227.12 284 -226 282.88 -226 281.5L-226 279L-223.5 279C-222.12 279 -221 277.88 -221 276.5C-221 275.12 -222.12 274 -223.5 274L-226 274L-226 271.5C-226 270.12 -227.12 269 -228.5 269C-229.88 269 -231 270.12 -231 271.5L-231 274L-233.5 274C-234.88 274 -236 275.12 -236 276.5C-236 277.88 -234.88 279 -233.5 279Z" />
				<path id="Path" class="shp3" d="M-233.5 339L-231 339L-231 391.5C-231 392.88 -229.88 394 -228.5 394C-227.12 394 -226 392.88 -226 391.5L-226 339L-206 339L-206 341.5C-206 342.88 -204.88 344 -203.5 344C-202.12 344 -201 342.88 -201 341.5L-201 339L-198.5 339C-197.12 339 -196 337.88 -196 336.5C-196 335.12 -197.12 334 -198.5 334L-233.5 334C-234.88 334 -236 335.12 -236 336.5C-236 337.88 -234.88 339 -233.5 339Z" />
				<path id="Path" class="shp6" d="M-213.5 351.5C-213.5 350.12 -214.62 349 -216 349C-217.38 349 -218.5 350.12 -218.5 351.5L-218.5 356.5C-218.5 357.88 -217.38 359 -216 359C-214.62 359 -213.5 357.88 -213.5 356.5L-213.5 351.5Z" />
			</g>
		</g>
		<g id="Crown">
			<path id="Spacing" class="shp0" d="M14 264L164 264L164 414L14 414L14 264Z" />
			<g id="Icon">
				<path id="Shape" fill-rule="evenodd" class="shp18" d="M157.63 344.06C161.36 345.49 164 349.85 164 355.14C164 361.64 160.03 366.72 154.97 366.72C154.13 366.72 153.3 366.58 152.51 366.3L151.5 370.67C153.36 371.26 154.71 373.01 154.71 375.06L154.71 379.04C154.71 381.58 152.64 383.65 150.1 383.65L126.57 383.65C125.35 383.65 124.37 382.66 124.37 381.45C124.37 380.23 125.35 379.25 126.57 379.25L150.1 379.25C150.22 379.25 150.31 379.15 150.31 379.04L150.31 375.06C150.31 374.95 150.22 374.85 150.1 374.85L27.9 374.85C27.78 374.85 27.69 374.95 27.69 375.06L27.69 379.04C27.69 379.15 27.78 379.25 27.9 379.25L117.01 379.25C118.23 379.25 119.21 380.23 119.21 381.45C119.21 382.66 118.23 383.65 117.01 383.65L27.9 383.65C25.36 383.65 23.29 381.58 23.29 379.04L23.29 375.06C23.29 373.01 24.64 371.26 26.5 370.67L25.49 366.3C24.7 366.58 23.87 366.72 23.03 366.72C17.96 366.72 14 361.64 14 355.14C14 349.85 16.64 345.49 20.37 344.06L17.18 330.24C16.51 327.32 19.93 325.19 22.23 327.12C24.22 328.79 27.32 331.02 30.75 332.16C33.24 332.98 35.05 334.8 35.83 337.29C36.71 340.05 36.18 343.42 34.51 345.66C33.61 346.88 33.8 348.5 34.95 349.36C36.23 350.31 37.84 350.8 39.72 350.8C42.98 350.8 44.76 343.65 45.13 336.46C42 336.77 39.43 335.74 37.94 333.53C35.88 330.45 38.91 324.51 45.82 312.61C47.59 309.56 49.27 306.68 50.25 304.66C50.72 303.68 51.64 303.03 52.71 302.91C53.79 302.79 54.83 303.23 55.5 304.07C57.95 307.16 63.65 315.19 63.65 323.13C63.65 325.97 63.95 329.27 64.5 332.41C64.7 333.61 63.9 334.74 62.71 334.95C61.51 335.16 60.37 334.36 60.17 333.16C59.58 329.78 59.25 326.22 59.25 323.13C59.25 317.58 55.52 311.55 53.26 308.41C52.26 310.29 50.97 312.51 49.62 314.82C48.06 317.5 41.57 328.36 41.69 331.21C42.65 332.42 44.69 332.16 45.85 331.89C47.79 331.43 49.63 332.92 49.59 334.91C49.45 341.01 48.21 355.2 39.72 355.2C36.87 355.2 34.38 354.42 32.33 352.89C29.25 350.6 28.65 346.18 30.98 343.04C31.7 342.07 32.16 340.24 31.64 338.62C31.28 337.48 30.52 336.71 29.37 336.33C26.71 335.45 24.26 334.06 22.25 332.66L29.09 362.33C29.09 362.34 29.09 362.34 29.09 362.35L30.96 370.45L147.04 370.45L148.91 362.35C148.91 362.34 148.91 362.34 148.91 362.33L155.75 332.66C153.74 334.06 151.29 335.45 148.63 336.33C147.48 336.71 146.72 337.48 146.36 338.62C145.84 340.24 146.3 342.07 147.02 343.04C149.35 346.18 148.75 350.6 145.67 352.89C143.62 354.42 141.13 355.2 138.28 355.2C129.79 355.2 128.55 341.01 128.42 334.91C128.37 332.92 130.21 331.43 132.15 331.89C133.31 332.16 135.35 332.42 136.32 331.2C136.34 330.74 136.14 328.87 132.91 322.82C132.33 321.75 132.74 320.42 133.81 319.84C134.88 319.27 136.21 319.68 136.78 320.75C140.61 327.92 141.5 331.38 140.06 333.53C138.57 335.74 136.01 336.76 132.87 336.46C133.24 343.65 135.02 350.8 138.28 350.8C140.16 350.8 141.77 350.31 143.05 349.36C144.2 348.5 144.39 346.88 143.49 345.66C141.83 343.42 141.29 340.05 142.17 337.29C142.95 334.8 144.76 332.98 147.25 332.16C150.68 331.02 153.78 328.79 155.77 327.12C158.07 325.2 161.49 327.32 160.82 330.24L157.63 344.06ZM23.03 362.32C23.58 362.32 24.07 362.16 24.49 361.94L21.38 348.46C19.65 349.51 18.39 352.15 18.39 355.14C18.39 359.04 20.52 362.32 23.03 362.32ZM154.97 362.32C157.48 362.32 159.61 359.04 159.61 355.14C159.61 352.15 158.35 349.51 156.62 348.46L153.51 361.94C153.93 362.16 154.42 362.32 154.97 362.32Z" />
				<path id="Path" class="shp19" d="M62.89 342.85C64.46 346.41 66.41 348.44 68.69 348.87C71.75 349.46 75.02 347.92 77.45 345.9C81.74 342.35 84.3 336.76 84.3 330.94L84.3 326.78C84.3 324.18 81.45 322.58 79.24 323.93C78.56 324.35 77.58 324.57 76.42 324.57C73.51 324.57 71.57 323.67 71.57 319.31C71.57 319.02 71.8 317.32 76.21 312.3C79.15 308.96 82.98 305.22 86.05 302.22C87.14 301.17 88.12 300.21 89 299.33C89.88 300.21 90.87 301.17 91.96 302.23C95.03 305.23 98.86 308.96 101.79 312.3C106.2 317.32 106.43 319.02 106.43 319.31C106.43 323.67 104.49 324.57 101.58 324.57C100.4 324.57 99.45 324.35 98.76 323.93C96.54 322.58 93.7 324.18 93.7 326.78L93.7 330.94C93.7 336.76 96.26 342.35 100.55 345.9C103.45 348.3 106.64 349.39 109.32 348.87C116.37 347.52 118.75 330.62 118.75 323.13C118.75 317.58 122.48 311.55 124.74 308.41C125.73 310.27 127 312.45 128.32 314.73C128.93 315.78 130.28 316.13 131.33 315.52C132.38 314.91 132.73 313.57 132.12 312.52C130.38 309.51 128.73 306.68 127.75 304.66C127.28 303.68 126.36 303.03 125.29 302.91C124.21 302.79 123.17 303.23 122.5 304.08C120.05 307.16 114.35 315.19 114.35 323.13C114.35 327.67 113.6 333.15 112.38 337.42C110.85 342.77 109.16 344.42 108.49 344.55C107.49 344.75 105.54 344.33 103.35 342.51C100.06 339.79 98.1 335.47 98.1 330.94L98.1 328.44C99.14 328.79 100.3 328.97 101.58 328.97C107.54 328.97 110.82 325.53 110.82 319.31C110.82 314.84 103.97 307.81 95.02 299.08C90.96 295.13 90.93 295.03 90.56 294.65C90.15 294.23 89.59 294 89 294C88.42 294 87.85 294.23 87.44 294.65C86.93 295.17 86.95 295.21 82.99 299.07C74.03 307.81 67.18 314.84 67.18 319.31C67.18 325.54 70.46 328.97 76.42 328.97C77.7 328.97 78.86 328.79 79.9 328.44L79.9 330.94C79.9 335.47 77.94 339.79 74.65 342.51C72.46 344.33 70.51 344.75 69.51 344.55C69.39 344.53 68.31 344.24 66.91 341.07C66.42 339.96 65.13 339.46 64.02 339.95C62.91 340.44 62.4 341.74 62.89 342.85L62.89 342.85Z" />
				<path id="Shape" fill-rule="evenodd" class="shp20" d="M89 342.27C94.06 342.27 98.17 347.47 98.17 353.85C98.17 360.24 94.06 365.43 89 365.43C83.94 365.43 79.83 360.24 79.83 353.85C79.83 347.47 83.94 342.27 89 342.27ZM84.23 353.85C84.23 357.74 86.41 361.03 89 361.03C91.59 361.03 93.77 357.74 93.77 353.85C93.77 349.96 91.59 346.67 89 346.67C86.41 346.67 84.23 349.96 84.23 353.85Z" />
				<path id="Shape" fill-rule="evenodd" class="shp5" d="M89 322.65C85.16 322.65 82.16 318.87 82.16 314.04C82.16 309.21 85.16 305.43 89 305.43C92.84 305.43 95.84 309.21 95.84 314.04C95.84 318.87 92.84 322.65 89 322.65ZM86.55 314.04C86.55 316.45 87.84 318.25 89 318.25C90.16 318.25 91.45 316.45 91.45 314.04C91.45 311.63 90.16 309.83 89 309.83C87.84 309.83 86.55 311.63 86.55 314.04Z" />
			</g>
		</g>
		<text id="Fantasy Icon Set" style="transform: matrix(1,0,0,1,-986,-370)" >
			<tspan x="0" y="0" class="txt21">Fantasy Icon Set</tspan>
		</text>
		<g id="Color Pallet">
			<path id="Oval" class="shp3" d="M-46 -388C-37.72 -388 -31 -394.72 -31 -403C-31 -411.28 -37.72 -418 -46 -418C-54.28 -418 -61 -411.28 -61 -403C-61 -394.72 -54.28 -388 -46 -388Z" />
			<path id="Oval" class="shp2" d="M-126 -388C-117.72 -388 -111 -394.72 -111 -403C-111 -411.28 -117.72 -418 -126 -418C-134.28 -418 -141 -411.28 -141 -403C-141 -394.72 -134.28 -388 -126 -388Z" />
			<path id="Oval" class="shp7" d="M-86 -388C-77.72 -388 -71 -394.72 -71 -403C-71 -411.28 -77.72 -418 -86 -418C-94.28 -418 -101 -411.28 -101 -403C-101 -394.72 -94.28 -388 -86 -388Z" />
			<path id="Oval" class="shp1" d="M34 -388C42.28 -388 49 -394.72 49 -403C49 -411.28 42.28 -418 34 -418C25.72 -418 19 -411.28 19 -403C19 -394.72 25.72 -388 34 -388Z" />
			<path id="Oval" class="shp12" d="M-6 -388C2.28 -388 9 -394.72 9 -403C9 -411.28 2.28 -418 -6 -418C-14.28 -418 -21 -411.28 -21 -403C-21 -394.72 -14.28 -388 -6 -388Z" />
			<path id="Oval" class="shp8" d="M-166 -388C-157.72 -388 -151 -394.72 -151 -403C-151 -411.28 -157.72 -418 -166 -418C-174.28 -418 -181 -411.28 -181 -403C-181 -394.72 -174.28 -388 -166 -388Z" />
			<path id="Oval" class="shp22" d="M114 -388C122.28 -388 129 -394.72 129 -403C129 -411.28 122.28 -418 114 -418C105.72 -418 99 -411.28 99 -403C99 -394.72 105.72 -388 114 -388Z" />
			<path id="Oval" class="shp5" d="M74 -388C82.28 -388 89 -394.72 89 -403C89 -411.28 82.28 -418 74 -418C65.72 -418 59 -411.28 59 -403C59 -394.72 65.72 -388 74 -388Z" />
		</g>
	</g>
</svg>