<svg xmlns="http://www.w3.org/2000/svg" viewBox="0 0 175 175" width="175" height="175">
	<defs>
		<clipPath clipPathUnits="userSpaceOnUse" id="cp1">
			<path d="M-713 -877L887 -877L887 323L-713 323Z" />
		</clipPath>
	</defs>
	<style>
		tspan { white-space:pre }
		.shp0 { fill: #9210e0 } 
		.shp1 { fill: #ff008f } 
		.shp2 { fill: #ffffff } 
		.shp3 { fill: #f8e71c } 
		.shp4 { fill: #27cedb } 
		.shp5 { fill: #4a90e2 } 
		.shp6 { fill: #ffa7e6 } 
		.shp7 { fill: #bd10e0 } 
		.shp8 { fill: #ff00b6 } 
		.shp9 { fill: #ffcb74 } 
		.shp10 { fill: #fff683 } 
		.shp11 { fill: #ff0082 } 
		.shp12 { fill: #50e38c } 
		.txt13 { font-size: 100px;fill: #ffffff;font-family: "Leckerli One";font-weight: 400 } 
		.shp14 { fill: #9013fe } 
		.shp15 { fill: #50e3c2 } 
		.shp16 { fill: #f8c61c } 
	</style>
	<g id="Dribbble Shot" clip-path="url(#cp1)">
		<g id="Doble Terminated Crystal">
			<g id="Icon">
				<path id="Shape" fill-rule="evenodd" class="shp0" d="M124.31 51.09L124.31 124.91C124.31 125.69 124 126.44 123.45 126.98L88.23 162.14C87.68 162.69 86.93 163 86.15 163C85.37 163 84.63 162.69 84.08 162.14L48.86 126.98C48.31 126.44 48 125.69 48 124.91L48 51.09C48 49.47 49.31 48.16 50.93 48.16L66.87 48.16L75.85 30.35L71.69 34.51C70.54 35.66 68.68 35.66 67.54 34.51C66.39 33.37 66.39 31.52 67.54 30.37L84.08 13.86C84.63 13.31 85.37 13 86.15 13C86.93 13 87.68 13.31 88.23 13.86L123.45 49.02C124 49.57 124.31 50.31 124.31 51.09ZM118.44 54.02L106.7 54.02L106.7 98.28C106.7 99.89 105.38 101.21 103.76 101.21C102.14 101.21 100.83 99.89 100.83 98.28L100.83 54.02L71.48 54.02L71.48 121.98L118.44 121.98L118.44 54.02ZM58.02 127.84L75.85 145.65L66.87 127.84L58.02 127.84ZM86.15 153.03L98.86 127.84L73.44 127.84L86.15 153.03ZM96.45 145.65L114.29 127.84L105.44 127.84L96.45 145.65ZM114.29 48.16L96.45 30.35L105.43 48.16L114.29 48.16ZM73.44 48.16L98.86 48.16L86.15 22.97L73.44 48.16ZM53.87 54.02L53.87 121.98L65.61 121.98L65.61 54.02L53.87 54.02Z" />
				<path id="Path" class="shp1" d="M60.28 44.88C61.06 44.88 61.84 44.56 62.41 43.94L62.41 43.94C63.48 42.76 63.39 40.95 62.22 39.88C61.04 38.81 59.22 38.9 58.16 40.07C57.09 41.25 57.17 43.07 58.35 44.13C58.9 44.63 59.59 44.88 60.28 44.88Z" />
				<path id="Path" class="shp1" d="M103.66 108.64C102.07 108.64 100.79 109.93 100.79 111.52C100.79 113.11 102.07 114.39 103.66 114.39C105.25 114.39 106.54 113.11 106.54 111.52L106.54 111.52C106.54 109.93 105.25 108.64 103.66 108.64Z" />
			</g>
		</g>
		<g id="Castle">
			<path id="Spacing" class="shp2" d="M262 13L412 13L412 163L262 163L262 13Z" />
			<g id="Icon">
				<path id="Path" class="shp3" d="M392 118C390.62 118 389.5 119.12 389.5 120.5L389.5 125.5C389.5 126.88 390.62 128 392 128C393.38 128 394.5 126.88 394.5 125.5L394.5 120.5C394.5 119.12 393.38 118 392 118Z" />
				<path id="Path" class="shp4" d="M323.38 57.74C324.62 58.36 326.12 57.85 326.74 56.62L334.5 41.09L334.5 55.5C334.5 56.88 335.62 58 337 58C338.38 58 339.5 56.88 339.5 55.5L339.5 41.09L347.26 56.62C347.7 57.5 348.58 58 349.5 58C349.88 58 350.26 57.92 350.62 57.74C351.85 57.12 352.36 55.62 351.74 54.38L339.5 29.91L339.5 18L352 18L352 23L344.5 23C343.12 23 342 24.12 342 25.5C342 26.88 343.12 28 344.5 28L354.5 28C355.88 28 357 26.88 357 25.5L357 15.5C357 14.12 355.88 13 354.5 13L337 13C335.62 13 334.5 14.12 334.5 15.5L334.5 29.91L322.26 54.38C321.64 55.62 322.15 57.12 323.38 57.74Z" />
				<path id="Path" class="shp5" d="M349.5 93C350.88 93 352 91.88 352 90.5L352 68L354.5 68C355.88 68 357 66.88 357 65.5C357 64.12 355.88 63 354.5 63L319.5 63C318.12 63 317 64.12 317 65.5C317 66.88 318.12 68 319.5 68L322 68L322 90.5C322 91.88 323.12 93 324.5 93C325.88 93 327 91.88 327 90.5L327 68L347 68L347 90.5C347 91.88 348.12 93 349.5 93Z" />
				<path id="Path" class="shp3" d="M334.5 80.5L334.5 85.5C334.5 86.88 335.62 88 337 88C338.38 88 339.5 86.88 339.5 85.5L339.5 80.5C339.5 79.12 338.38 78 337 78C335.62 78 334.5 79.12 334.5 80.5Z" />
				<path id="Path" class="shp5" d="M374.5 88L377 88L377 90.5C377 91.88 378.12 93 379.5 93C380.88 93 382 91.88 382 90.5L382 88L402 88L402 138C402 139.38 403.12 140.5 404.5 140.5C405.88 140.5 407 139.38 407 138L407 88L409.5 88C410.88 88 412 86.88 412 85.5C412 84.12 410.88 83 409.5 83L374.5 83C373.12 83 372 84.12 372 85.5C372 86.88 373.12 88 374.5 88Z" />
				<path id="Path" class="shp6" d="M382 38C382 39.38 383.12 40.5 384.5 40.5C385.88 40.5 387 39.38 387 38C388.38 38 389.5 36.88 389.5 35.5C389.5 34.12 388.38 33 387 33C387 31.62 385.88 30.5 384.5 30.5C383.12 30.5 382 31.62 382 33C380.62 33 379.5 34.12 379.5 35.5C379.5 36.88 380.62 38 382 38Z" />
				<path id="Path" class="shp4" d="M378.38 77.74C379.62 78.36 381.12 77.85 381.74 76.62L389.5 61.09L389.5 75.5C389.5 76.88 390.62 78 392 78C393.38 78 394.5 76.88 394.5 75.5L394.5 61.09L402.26 76.62C402.7 77.5 403.58 78 404.5 78C404.88 78 405.26 77.92 405.62 77.74C406.85 77.12 407.35 75.62 406.74 74.38L394.24 49.38C394.13 49.17 393.99 48.98 393.82 48.82C393.37 48.32 392.73 48 392 48C391.27 48 390.63 48.32 390.18 48.82C390.01 48.98 389.87 49.17 389.76 49.38L377.26 74.38C376.65 75.62 377.15 77.12 378.38 77.74Z" />
				<path id="Shape" fill-rule="evenodd" class="shp3" d="M352 138L352 160.5C352 161.88 350.88 163 349.5 163L324.5 163C323.12 163 322 161.88 322 160.5L322 138C322 129.73 328.73 123 337 123C345.27 123 352 129.73 352 138ZM347 153L327 153L327 158L347 158L347 153ZM347 143L327 143L327 148L347 148L347 143ZM347 138C347 132.49 342.52 128 337 128C331.49 128 327 132.48 327 138L347 138Z" />
				<path id="Path" class="shp3" d="M394.5 100.5C394.5 99.12 393.38 98 392 98C390.62 98 389.5 99.12 389.5 100.5L389.5 105.5C389.5 106.88 390.62 108 392 108C393.38 108 394.5 106.88 394.5 105.5L394.5 100.5Z" />
				<path id="Path" class="shp6" d="M312 20.5C312 21.88 313.12 23 314.5 23C315.88 23 317 21.88 317 20.5C318.38 20.5 319.5 19.38 319.5 18C319.5 16.62 318.38 15.5 317 15.5C317 14.12 315.88 13 314.5 13C313.12 13 312 14.12 312 15.5C310.62 15.5 309.5 16.62 309.5 18C309.5 19.38 310.62 20.5 312 20.5Z" />
				<path id="Path" class="shp3" d="M282 118C280.62 118 279.5 119.12 279.5 120.5L279.5 125.5C279.5 126.88 280.62 128 282 128C283.38 128 284.5 126.88 284.5 125.5L284.5 120.5C284.5 119.12 283.38 118 282 118Z" />
				<path id="Shape" fill-rule="evenodd" class="shp7" d="M317 150.5L317 160.5C317 161.88 315.88 163 314.5 163L264.5 163C263.12 163 262 161.88 262 160.5L262 150.5C262 147.74 264.24 145.5 267 145.5C267.91 145.5 268.76 145.75 269.5 146.17C270.97 145.32 273.03 145.32 274.5 146.17C275.97 145.32 278.03 145.32 279.5 146.17C280.97 145.32 283.03 145.32 284.5 146.17C285.97 145.32 288.03 145.32 289.5 146.17C290.97 145.32 293.03 145.32 294.5 146.17C295.97 145.32 298.03 145.32 299.5 146.17C300.97 145.32 303.03 145.32 304.5 146.17C305.97 145.32 308.03 145.32 309.5 146.17C310.23 145.75 311.09 145.5 312 145.5C314.76 145.5 317 147.74 317 150.5ZM312 158L312 150.5C312 151.88 310.88 153 309.5 153C308.12 153 307 151.88 307 150.5C307 151.88 305.88 153 304.5 153C303.12 153 302 151.88 302 150.5C302 151.88 300.88 153 299.5 153C298.12 153 297 151.88 297 150.5C297 151.88 295.88 153 294.5 153C293.12 153 292 151.88 292 150.5C292 151.88 290.88 153 289.5 153C288.12 153 287 151.88 287 150.5C287 151.88 285.88 153 284.5 153C283.12 153 282 151.88 282 150.5C282 151.88 280.88 153 279.5 153C278.12 153 277 151.88 277 150.5C277 151.88 275.88 153 274.5 153C273.12 153 272 151.88 272 150.5C272 151.88 270.88 153 269.5 153C268.12 153 267 151.88 267 150.5L267 158L312 158Z" />
				<path id="Shape" fill-rule="evenodd" class="shp7" d="M412 150.5L412 160.5C412 161.88 410.88 163 409.5 163L359.5 163C358.12 163 357 161.88 357 160.5L357 150.5C357 147.74 359.24 145.5 362 145.5C362.91 145.5 363.76 145.75 364.5 146.17C365.97 145.32 368.03 145.32 369.5 146.17C370.97 145.32 373.03 145.32 374.5 146.17C375.97 145.32 378.03 145.32 379.5 146.17C380.97 145.32 383.03 145.32 384.5 146.17C385.97 145.32 388.03 145.32 389.5 146.17C390.97 145.32 393.03 145.32 394.5 146.17C395.97 145.32 398.03 145.32 399.5 146.17C400.97 145.32 403.03 145.32 404.5 146.17C405.23 145.75 406.09 145.5 407 145.5C409.76 145.5 412 147.74 412 150.5ZM407 158L407 150.5C407 151.88 405.88 153 404.5 153C403.12 153 402 151.88 402 150.5C402 151.88 400.88 153 399.5 153C398.12 153 397 151.88 397 150.5C397 151.88 395.88 153 394.5 153C393.12 153 392 151.88 392 150.5C392 151.88 390.88 153 389.5 153C388.12 153 387 151.88 387 150.5C387 151.88 385.88 153 384.5 153C383.12 153 382 151.88 382 150.5C382 151.88 380.88 153 379.5 153C378.12 153 377 151.88 377 150.5C377 151.88 375.88 153 374.5 153C373.12 153 372 151.88 372 150.5C372 151.88 370.88 153 369.5 153C368.12 153 367 151.88 367 150.5C367 151.88 365.88 153 364.5 153C363.12 153 362 151.88 362 150.5L362 158L407 158Z" />
				<path id="Path" class="shp4" d="M268.38 77.74C269.62 78.36 271.12 77.85 271.74 76.62L279.5 61.09L279.5 75.5C279.5 76.88 280.62 78 282 78C283.38 78 284.5 76.88 284.5 75.5L284.5 61.09L292.26 76.62C292.7 77.5 293.58 78 294.5 78C294.88 78 295.26 77.92 295.62 77.74C296.85 77.12 297.36 75.62 296.74 74.38L284.24 49.38C284.13 49.17 283.99 48.98 283.82 48.82C283.37 48.32 282.73 48 282 48C281.27 48 280.63 48.32 280.18 48.82C280.01 48.98 279.87 49.17 279.76 49.38L267.26 74.38C266.65 75.62 267.15 77.12 268.38 77.74Z" />
				<path id="Path" class="shp8" d="M372 110.5L372 103L377 103L377 138C377 139.38 378.12 140.5 379.5 140.5C380.88 140.5 382 139.38 382 138L382 100.5C382 99.12 380.88 98 379.5 98L369.5 98C368.12 98 367 99.12 367 100.5L367 108L357 108L357 100.5C357 99.12 355.88 98 354.5 98L344.5 98C343.12 98 342 99.12 342 100.5L342 108L332 108L332 100.5C332 99.12 330.88 98 329.5 98L319.5 98C318.12 98 317 99.12 317 100.5L317 108L307 108L307 100.5C307 99.12 305.88 98 304.5 98L294.5 98C293.12 98 292 99.12 292 100.5L292 138C292 139.38 293.12 140.5 294.5 140.5C295.88 140.5 297 139.38 297 138L297 103L302 103L302 110.5C302 111.88 303.12 113 304.5 113L319.5 113C320.88 113 322 111.88 322 110.5L322 103L327 103L327 110.5C327 111.88 328.12 113 329.5 113L344.5 113C345.88 113 347 111.88 347 110.5L347 103L352 103L352 110.5C352 111.88 353.12 113 354.5 113L369.5 113C370.88 113 372 111.88 372 110.5Z" />
				<path id="Path" class="shp6" d="M264.5 28L267 28L267 30.5C267 31.88 268.12 33 269.5 33C270.88 33 272 31.88 272 30.5L272 28L274.5 28C275.88 28 277 26.88 277 25.5C277 24.12 275.88 23 274.5 23L272 23L272 20.5C272 19.12 270.88 18 269.5 18C268.12 18 267 19.12 267 20.5L267 23L264.5 23C263.12 23 262 24.12 262 25.5C262 26.88 263.12 28 264.5 28Z" />
				<path id="Path" class="shp5" d="M264.5 88L267 88L267 140.5C267 141.88 268.12 143 269.5 143C270.88 143 272 141.88 272 140.5L272 88L292 88L292 90.5C292 91.88 293.12 93 294.5 93C295.88 93 297 91.88 297 90.5L297 88L299.5 88C300.88 88 302 86.88 302 85.5C302 84.12 300.88 83 299.5 83L264.5 83C263.12 83 262 84.12 262 85.5C262 86.88 263.12 88 264.5 88Z" />
				<path id="Path" class="shp3" d="M284.5 100.5C284.5 99.12 283.38 98 282 98C280.62 98 279.5 99.12 279.5 100.5L279.5 105.5C279.5 106.88 280.62 108 282 108C283.38 108 284.5 106.88 284.5 105.5L284.5 100.5Z" />
			</g>
		</g>
		<g id="Crown">
			<path id="Spacing" class="shp2" d="M512 13L662 13L662 163L512 163L512 13Z" />
			<g id="Icon">
				<path id="Shape" fill-rule="evenodd" class="shp9" d="M655.63 93.06C659.36 94.49 662 98.85 662 104.14C662 110.64 658.03 115.72 652.97 115.72C652.13 115.72 651.3 115.58 650.51 115.3L649.5 119.67C651.36 120.26 652.71 122.01 652.71 124.06L652.71 128.04C652.71 130.58 650.64 132.65 648.1 132.65L624.57 132.65C623.35 132.65 622.37 131.66 622.37 130.45C622.37 129.23 623.35 128.25 624.57 128.25L648.1 128.25C648.22 128.25 648.31 128.15 648.31 128.04L648.31 124.06C648.31 123.95 648.22 123.85 648.1 123.85L525.9 123.85C525.78 123.85 525.69 123.95 525.69 124.06L525.69 128.04C525.69 128.15 525.78 128.25 525.9 128.25L615.01 128.25C616.23 128.25 617.21 129.23 617.21 130.45C617.21 131.66 616.23 132.65 615.01 132.65L525.9 132.65C523.36 132.65 521.29 130.58 521.29 128.04L521.29 124.06C521.29 122.01 522.64 120.26 524.5 119.67L523.49 115.3C522.7 115.58 521.87 115.72 521.03 115.72C515.96 115.72 512 110.64 512 104.14C512 98.85 514.64 94.49 518.37 93.06L515.18 79.24C514.51 76.32 517.93 74.19 520.23 76.12C522.22 77.79 525.32 80.02 528.75 81.16C531.24 81.98 533.05 83.8 533.83 86.29C534.71 89.05 534.18 92.42 532.51 94.66C531.61 95.88 531.8 97.5 532.95 98.36C534.23 99.31 535.84 99.8 537.72 99.8C540.98 99.8 542.76 92.65 543.13 85.46C540 85.77 537.43 84.74 535.94 82.53C533.88 79.45 536.91 73.51 543.82 61.61C545.59 58.56 547.27 55.68 548.25 53.66C548.72 52.68 549.64 52.03 550.71 51.91C551.79 51.79 552.83 52.23 553.5 53.07C555.95 56.16 561.65 64.19 561.65 72.13C561.65 74.97 561.95 78.27 562.5 81.41C562.7 82.61 561.9 83.74 560.71 83.95C559.51 84.16 558.37 83.36 558.17 82.16C557.58 78.78 557.25 75.22 557.25 72.13C557.25 66.58 553.52 60.55 551.26 57.41C550.26 59.29 548.97 61.51 547.62 63.82C546.06 66.5 539.57 77.36 539.69 80.21C540.65 81.42 542.69 81.16 543.85 80.89C545.79 80.43 547.63 81.92 547.59 83.91C547.45 90.01 546.21 104.2 537.72 104.2C534.87 104.2 532.38 103.42 530.33 101.89C527.25 99.6 526.65 95.18 528.98 92.04C529.7 91.07 530.16 89.24 529.64 87.62C529.28 86.48 528.52 85.71 527.37 85.33C524.71 84.45 522.26 83.06 520.25 81.66L527.09 111.33C527.09 111.34 527.09 111.34 527.09 111.35L528.96 119.45L645.04 119.45L646.91 111.35C646.91 111.34 646.91 111.34 646.91 111.33L653.75 81.66C651.74 83.06 649.29 84.45 646.63 85.33C645.48 85.71 644.72 86.48 644.36 87.62C643.84 89.24 644.3 91.07 645.02 92.04C647.35 95.18 646.75 99.6 643.67 101.89C641.62 103.42 639.13 104.2 636.28 104.2C627.79 104.2 626.55 90.01 626.42 83.91C626.37 81.92 628.21 80.43 630.15 80.89C631.31 81.16 633.35 81.42 634.32 80.2C634.34 79.74 634.14 77.87 630.91 71.82C630.33 70.75 630.74 69.42 631.81 68.84C632.88 68.27 634.21 68.68 634.78 69.75C638.61 76.92 639.5 80.38 638.06 82.53C636.57 84.74 634.01 85.76 630.87 85.46C631.24 92.65 633.02 99.8 636.28 99.8C638.16 99.8 639.77 99.31 641.05 98.36C642.2 97.5 642.39 95.88 641.49 94.66C639.83 92.42 639.29 89.05 640.17 86.29C640.95 83.8 642.76 81.98 645.25 81.16C648.68 80.02 651.78 77.79 653.77 76.12C656.07 74.2 659.49 76.32 658.82 79.24L655.63 93.06ZM521.03 111.32C521.58 111.32 522.07 111.16 522.49 110.94L519.38 97.46C517.65 98.51 516.39 101.15 516.39 104.14C516.39 108.04 518.52 111.32 521.03 111.32ZM652.97 111.32C655.48 111.32 657.61 108.04 657.61 104.14C657.61 101.15 656.35 98.51 654.62 97.46L651.51 110.94C651.93 111.16 652.42 111.32 652.97 111.32Z" />
				<path id="Path" class="shp10" d="M560.89 91.85C562.46 95.41 564.41 97.44 566.69 97.87C569.75 98.46 573.02 96.92 575.45 94.9C579.74 91.35 582.3 85.76 582.3 79.94L582.3 75.78C582.3 73.18 579.45 71.58 577.24 72.93C576.56 73.35 575.58 73.57 574.42 73.57C571.51 73.57 569.57 72.67 569.57 68.31C569.57 68.02 569.8 66.32 574.21 61.3C577.15 57.96 580.98 54.22 584.05 51.22C585.14 50.17 586.12 49.21 587 48.33C587.88 49.21 588.87 50.17 589.96 51.23C593.03 54.23 596.86 57.96 599.79 61.3C604.2 66.32 604.43 68.02 604.43 68.31C604.43 72.67 602.49 73.57 599.58 73.57C598.4 73.57 597.45 73.35 596.76 72.93C594.54 71.58 591.7 73.18 591.7 75.78L591.7 79.94C591.7 85.76 594.26 91.35 598.55 94.9C601.45 97.3 604.64 98.39 607.32 97.87C614.37 96.52 616.75 79.62 616.75 72.13C616.75 66.58 620.48 60.55 622.74 57.41C623.73 59.27 625 61.45 626.32 63.73C626.93 64.78 628.28 65.13 629.33 64.52C630.38 63.91 630.73 62.57 630.12 61.52C628.38 58.51 626.73 55.68 625.75 53.66C625.28 52.68 624.36 52.03 623.29 51.91C622.21 51.79 621.17 52.23 620.5 53.08C618.05 56.16 612.35 64.19 612.35 72.13C612.35 76.67 611.6 82.15 610.38 86.42C608.85 91.77 607.16 93.42 606.49 93.55C605.49 93.75 603.54 93.33 601.35 91.51C598.06 88.79 596.1 84.47 596.1 79.94L596.1 77.44C597.14 77.79 598.3 77.97 599.58 77.97C605.54 77.97 608.82 74.53 608.82 68.31C608.82 63.84 601.97 56.81 593.02 48.08C588.96 44.13 588.93 44.03 588.56 43.65C588.15 43.23 587.59 43 587 43C586.42 43 585.85 43.23 585.44 43.65C584.93 44.17 584.95 44.21 580.99 48.07C572.03 56.81 565.18 63.84 565.18 68.31C565.18 74.54 568.46 77.97 574.42 77.97C575.7 77.97 576.86 77.79 577.9 77.44L577.9 79.94C577.9 84.47 575.94 88.79 572.65 91.51C570.46 93.33 568.51 93.75 567.51 93.55C567.39 93.53 566.31 93.24 564.91 90.07C564.42 88.96 563.13 88.46 562.02 88.95C560.91 89.44 560.4 90.74 560.89 91.85L560.89 91.85Z" />
				<path id="Shape" fill-rule="evenodd" class="shp11" d="M587 91.27C592.06 91.27 596.17 96.47 596.17 102.85C596.17 109.24 592.06 114.43 587 114.43C581.94 114.43 577.83 109.24 577.83 102.85C577.83 96.47 581.94 91.27 587 91.27ZM582.23 102.85C582.23 106.74 584.41 110.03 587 110.03C589.59 110.03 591.77 106.74 591.77 102.85C591.77 98.96 589.59 95.67 587 95.67C584.41 95.67 582.23 98.96 582.23 102.85Z" />
				<path id="Shape" fill-rule="evenodd" class="shp12" d="M587 71.65C583.16 71.65 580.16 67.87 580.16 63.04C580.16 58.21 583.16 54.43 587 54.43C590.84 54.43 593.84 58.21 593.84 63.04C593.84 67.87 590.84 71.65 587 71.65ZM584.55 63.04C584.55 65.45 585.84 67.25 587 67.25C588.16 67.25 589.45 65.45 589.45 63.04C589.45 60.63 588.16 58.83 587 58.83C585.84 58.83 584.55 60.63 584.55 63.04Z" />
			</g>
		</g>
		<text id="Fantasy Icon Set" style="transform: matrix(1,0,0,1,-488,-621)" >
			<tspan x="0" y="0" class="txt13">Fantasy Icon Set</tspan>
		</text>
		<g id="Color Pallet">
			<path id="Oval" class="shp5" d="M452 -639C460.28 -639 467 -645.72 467 -654C467 -662.28 460.28 -669 452 -669C443.72 -669 437 -662.28 437 -654C437 -645.72 443.72 -639 452 -639Z" />
			<path id="Oval" class="shp7" d="M372 -639C380.28 -639 387 -645.72 387 -654C387 -662.28 380.28 -669 372 -669C363.72 -669 357 -662.28 357 -654C357 -645.72 363.72 -639 372 -639Z" />
			<path id="Oval" class="shp14" d="M412 -639C420.28 -639 427 -645.72 427 -654C427 -662.28 420.28 -669 412 -669C403.72 -669 397 -662.28 397 -654C397 -645.72 403.72 -639 412 -639Z" />
			<path id="Oval" class="shp15" d="M532 -639C540.28 -639 547 -645.72 547 -654C547 -662.28 540.28 -669 532 -669C523.72 -669 517 -662.28 517 -654C517 -645.72 523.72 -639 532 -639Z" />
			<path id="Oval" class="shp4" d="M492 -639C500.28 -639 507 -645.72 507 -654C507 -662.28 500.28 -669 492 -669C483.72 -669 477 -662.28 477 -654C477 -645.72 483.72 -639 492 -639Z" />
			<path id="Oval" class="shp8" d="M332 -639C340.28 -639 347 -645.72 347 -654C347 -662.28 340.28 -669 332 -669C323.72 -669 317 -662.28 317 -654C317 -645.72 323.72 -639 332 -639Z" />
			<path id="Oval" class="shp16" d="M612 -639C620.28 -639 627 -645.72 627 -654C627 -662.28 620.28 -669 612 -669C603.72 -669 597 -662.28 597 -654C597 -645.72 603.72 -639 612 -639Z" />
			<path id="Oval" class="shp12" d="M572 -639C580.28 -639 587 -645.72 587 -654C587 -662.28 580.28 -669 572 -669C563.72 -669 557 -662.28 557 -654C557 -645.72 563.72 -639 572 -639Z" />
		</g>
	</g>
</svg>