<svg xmlns="http://www.w3.org/2000/svg" viewBox="0 0 175 175" width="175" height="175">
	<defs>
		<clipPath clipPathUnits="userSpaceOnUse" id="cp1">
			<path d="M-1211 -877L389 -877L389 323L-1211 323Z" />
		</clipPath>
	</defs>
	<style>
		tspan { white-space:pre }
		.shp0 { fill: #ffcb74 } 
		.shp1 { fill: #fff683 } 
		.shp2 { fill: #ff0082 } 
		.shp3 { fill: #50e38c } 
		.txt4 { font-size: 100px;fill: #ffffff;font-family: "Leckerli One";font-weight: 400 } 
		.shp5 { fill: #4a90e2 } 
		.shp6 { fill: #bd10e0 } 
		.shp7 { fill: #9013fe } 
		.shp8 { fill: #50e3c2 } 
		.shp9 { fill: #27cedb } 
		.shp10 { fill: #ff00b6 } 
		.shp11 { fill: #f8c61c } 
	</style>
	<g id="Dribbble Shot" clip-path="url(#cp1)">
		<g id="Crown">
			<g id="Icon">
				<path id="Shape" fill-rule="evenodd" class="shp0" d="M157.63 93.06C161.36 94.49 164 98.85 164 104.14C164 110.64 160.03 115.72 154.97 115.72C154.13 115.72 153.3 115.58 152.51 115.3L151.5 119.67C153.36 120.26 154.71 122.01 154.71 124.06L154.71 128.04C154.71 130.58 152.64 132.65 150.1 132.65L126.57 132.65C125.35 132.65 124.37 131.66 124.37 130.45C124.37 129.23 125.35 128.25 126.57 128.25L150.1 128.25C150.22 128.25 150.31 128.15 150.31 128.04L150.31 124.06C150.31 123.95 150.22 123.85 150.1 123.85L27.9 123.85C27.78 123.85 27.69 123.95 27.69 124.06L27.69 128.04C27.69 128.15 27.78 128.25 27.9 128.25L117.01 128.25C118.23 128.25 119.21 129.23 119.21 130.45C119.21 131.66 118.23 132.65 117.01 132.65L27.9 132.65C25.36 132.65 23.29 130.58 23.29 128.04L23.29 124.06C23.29 122.01 24.64 120.26 26.5 119.67L25.49 115.3C24.7 115.58 23.87 115.72 23.03 115.72C17.96 115.72 14 110.64 14 104.14C14 98.85 16.64 94.49 20.37 93.06L17.18 79.24C16.51 76.32 19.93 74.19 22.23 76.12C24.22 77.79 27.32 80.02 30.75 81.16C33.24 81.98 35.05 83.8 35.83 86.29C36.71 89.05 36.18 92.42 34.51 94.66C33.61 95.88 33.8 97.5 34.95 98.36C36.23 99.31 37.84 99.8 39.72 99.8C42.98 99.8 44.76 92.65 45.13 85.46C42 85.77 39.43 84.74 37.94 82.53C35.88 79.45 38.91 73.51 45.82 61.61C47.59 58.56 49.27 55.68 50.25 53.66C50.72 52.68 51.64 52.03 52.71 51.91C53.79 51.79 54.83 52.23 55.5 53.07C57.95 56.16 63.65 64.19 63.65 72.13C63.65 74.97 63.95 78.27 64.5 81.41C64.7 82.61 63.9 83.74 62.71 83.95C61.51 84.16 60.37 83.36 60.17 82.16C59.58 78.78 59.25 75.22 59.25 72.13C59.25 66.58 55.52 60.55 53.26 57.41C52.26 59.29 50.97 61.51 49.62 63.82C48.06 66.5 41.57 77.36 41.69 80.21C42.65 81.42 44.69 81.16 45.85 80.89C47.79 80.43 49.63 81.92 49.59 83.91C49.45 90.01 48.21 104.2 39.72 104.2C36.87 104.2 34.38 103.42 32.33 101.89C29.25 99.6 28.65 95.18 30.98 92.04C31.7 91.07 32.16 89.24 31.64 87.62C31.28 86.48 30.52 85.71 29.37 85.33C26.71 84.45 24.26 83.06 22.25 81.66L29.09 111.33C29.09 111.34 29.09 111.34 29.09 111.35L30.96 119.45L147.04 119.45L148.91 111.35C148.91 111.34 148.91 111.34 148.91 111.33L155.75 81.66C153.74 83.06 151.29 84.45 148.63 85.33C147.48 85.71 146.72 86.48 146.36 87.62C145.84 89.24 146.3 91.07 147.02 92.04C149.35 95.18 148.75 99.6 145.67 101.89C143.62 103.42 141.13 104.2 138.28 104.2C129.79 104.2 128.55 90.01 128.42 83.91C128.37 81.92 130.21 80.43 132.15 80.89C133.31 81.16 135.35 81.42 136.32 80.2C136.34 79.74 136.14 77.87 132.91 71.82C132.33 70.75 132.74 69.42 133.81 68.84C134.88 68.27 136.21 68.68 136.78 69.75C140.61 76.92 141.5 80.38 140.06 82.53C138.57 84.74 136.01 85.76 132.87 85.46C133.24 92.65 135.02 99.8 138.28 99.8C140.16 99.8 141.77 99.31 143.05 98.36C144.2 97.5 144.39 95.88 143.49 94.66C141.83 92.42 141.29 89.05 142.17 86.29C142.95 83.8 144.76 81.98 147.25 81.16C150.68 80.02 153.78 77.79 155.77 76.12C158.07 74.2 161.49 76.32 160.82 79.24L157.63 93.06ZM23.03 111.32C23.58 111.32 24.07 111.16 24.49 110.94L21.38 97.46C19.65 98.51 18.39 101.15 18.39 104.14C18.39 108.04 20.52 111.32 23.03 111.32ZM154.97 111.32C157.48 111.32 159.61 108.04 159.61 104.14C159.61 101.15 158.35 98.51 156.62 97.46L153.51 110.94C153.93 111.16 154.42 111.32 154.97 111.32Z" />
				<path id="Path" class="shp1" d="M62.89 91.85C64.46 95.41 66.41 97.44 68.69 97.87C71.75 98.46 75.02 96.92 77.45 94.9C81.74 91.35 84.3 85.76 84.3 79.94L84.3 75.78C84.3 73.18 81.45 71.58 79.24 72.93C78.56 73.35 77.58 73.57 76.42 73.57C73.51 73.57 71.57 72.67 71.57 68.31C71.57 68.02 71.8 66.32 76.21 61.3C79.15 57.96 82.98 54.22 86.05 51.22C87.14 50.17 88.12 49.21 89 48.33C89.88 49.21 90.87 50.17 91.96 51.23C95.03 54.23 98.86 57.96 101.79 61.3C106.2 66.32 106.43 68.02 106.43 68.31C106.43 72.67 104.49 73.57 101.58 73.57C100.4 73.57 99.45 73.35 98.76 72.93C96.54 71.58 93.7 73.18 93.7 75.78L93.7 79.94C93.7 85.76 96.26 91.35 100.55 94.9C103.45 97.3 106.64 98.39 109.32 97.87C116.37 96.52 118.75 79.62 118.75 72.13C118.75 66.58 122.48 60.55 124.74 57.41C125.73 59.27 127 61.45 128.32 63.73C128.93 64.78 130.28 65.13 131.33 64.52C132.38 63.91 132.73 62.57 132.12 61.52C130.38 58.51 128.73 55.68 127.75 53.66C127.28 52.68 126.36 52.03 125.29 51.91C124.21 51.79 123.17 52.23 122.5 53.08C120.05 56.16 114.35 64.19 114.35 72.13C114.35 76.67 113.6 82.15 112.38 86.42C110.85 91.77 109.16 93.42 108.49 93.55C107.49 93.75 105.54 93.33 103.35 91.51C100.06 88.79 98.1 84.47 98.1 79.94L98.1 77.44C99.14 77.79 100.3 77.97 101.58 77.97C107.54 77.97 110.82 74.53 110.82 68.31C110.82 63.84 103.97 56.81 95.02 48.08C90.96 44.13 90.93 44.03 90.56 43.65C90.15 43.23 89.59 43 89 43C88.42 43 87.85 43.23 87.44 43.65C86.93 44.17 86.95 44.21 82.99 48.07C74.03 56.81 67.18 63.84 67.18 68.31C67.18 74.54 70.46 77.97 76.42 77.97C77.7 77.97 78.86 77.79 79.9 77.44L79.9 79.94C79.9 84.47 77.94 88.79 74.65 91.51C72.46 93.33 70.51 93.75 69.51 93.55C69.39 93.53 68.31 93.24 66.91 90.07C66.42 88.96 65.13 88.46 64.02 88.95C62.91 89.44 62.4 90.74 62.89 91.85L62.89 91.85Z" />
				<path id="Shape" fill-rule="evenodd" class="shp2" d="M89 91.27C94.06 91.27 98.17 96.47 98.17 102.85C98.17 109.24 94.06 114.43 89 114.43C83.94 114.43 79.83 109.24 79.83 102.85C79.83 96.47 83.94 91.27 89 91.27ZM84.23 102.85C84.23 106.74 86.41 110.03 89 110.03C91.59 110.03 93.77 106.74 93.77 102.85C93.77 98.96 91.59 95.67 89 95.67C86.41 95.67 84.23 98.96 84.23 102.85Z" />
				<path id="Shape" fill-rule="evenodd" class="shp3" d="M89 71.65C85.16 71.65 82.16 67.87 82.16 63.04C82.16 58.21 85.16 54.43 89 54.43C92.84 54.43 95.84 58.21 95.84 63.04C95.84 67.87 92.84 71.65 89 71.65ZM86.55 63.04C86.55 65.45 87.84 67.25 89 67.25C90.16 67.25 91.45 65.45 91.45 63.04C91.45 60.63 90.16 58.83 89 58.83C87.84 58.83 86.55 60.63 86.55 63.04Z" />
			</g>
		</g>
		<text id="Fantasy Icon Set" style="transform: matrix(1,0,0,1,-986,-621)" >
			<tspan x="0" y="0" class="txt4">Fantasy Icon Set</tspan>
		</text>
		<g id="Color Pallet">
			<path id="Oval" class="shp5" d="M-46 -639C-37.72 -639 -31 -645.72 -31 -654C-31 -662.28 -37.72 -669 -46 -669C-54.28 -669 -61 -662.28 -61 -654C-61 -645.72 -54.28 -639 -46 -639Z" />
			<path id="Oval" class="shp6" d="M-126 -639C-117.72 -639 -111 -645.72 -111 -654C-111 -662.28 -117.72 -669 -126 -669C-134.28 -669 -141 -662.28 -141 -654C-141 -645.72 -134.28 -639 -126 -639Z" />
			<path id="Oval" class="shp7" d="M-86 -639C-77.72 -639 -71 -645.72 -71 -654C-71 -662.28 -77.72 -669 -86 -669C-94.28 -669 -101 -662.28 -101 -654C-101 -645.72 -94.28 -639 -86 -639Z" />
			<path id="Oval" class="shp8" d="M34 -639C42.28 -639 49 -645.72 49 -654C49 -662.28 42.28 -669 34 -669C25.72 -669 19 -662.28 19 -654C19 -645.72 25.72 -639 34 -639Z" />
			<path id="Oval" class="shp9" d="M-6 -639C2.28 -639 9 -645.72 9 -654C9 -662.28 2.28 -669 -6 -669C-14.28 -669 -21 -662.28 -21 -654C-21 -645.72 -14.28 -639 -6 -639Z" />
			<path id="Oval" class="shp10" d="M-166 -639C-157.72 -639 -151 -645.72 -151 -654C-151 -662.28 -157.72 -669 -166 -669C-174.28 -669 -181 -662.28 -181 -654C-181 -645.72 -174.28 -639 -166 -639Z" />
			<path id="Oval" class="shp11" d="M114 -639C122.28 -639 129 -645.72 129 -654C129 -662.28 122.28 -669 114 -669C105.72 -669 99 -662.28 99 -654C99 -645.72 105.72 -639 114 -639Z" />
			<path id="Oval" class="shp3" d="M74 -639C82.28 -639 89 -645.72 89 -654C89 -662.28 82.28 -669 74 -669C65.72 -669 59 -662.28 59 -654C59 -645.72 65.72 -639 74 -639Z" />
		</g>
	</g>
</svg>