<svg xmlns="http://www.w3.org/2000/svg" viewBox="0 0 175 175" width="175" height="175">
	<defs>
		<clipPath clipPathUnits="userSpaceOnUse" id="cp1">
			<path d="M-711 -377L889 -377L889 823L-711 823Z" />
		</clipPath>
	</defs>
	<style>
		tspan { white-space:pre }
		.shp0 { fill: #ffffff } 
		.shp1 { fill: #ac4eff } 
		.shp2 { fill: #e463ff } 
		.shp3 { fill: #f8e71c } 
		.shp4 { fill: #23f5a5 } 
		.shp5 { fill: #8a64ff } 
		.shp6 { fill: #f831e3 } 
		.shp7 { fill: #c713ef } 
		.shp8 { fill: #5b90ff } 
		.shp9 { fill: #fff35a } 
		.shp10 { fill: #a0fff5 } 
		.shp11 { fill: #ff008b } 
		.shp12 { fill: #ff8edf } 
		.shp13 { fill: #9013fe } 
		.shp14 { fill: #bfdcff } 
		.shp15 { fill: #bd10e0 } 
		.shp16 { fill: #27cedb } 
		.shp17 { fill: #4a90e2 } 
		.shp18 { fill: #6c66ff } 
		.shp19 { fill: #a254ff } 
		.shp20 { fill: #e64ad1 } 
		.shp21 { fill: #ff68f0 } 
		.shp22 { fill: #ff00b6 } 
		.shp23 { fill: #bf00ff } 
		.shp24 { fill: #ff0076 } 
		.shp25 { fill: #50e3c2 } 
		.shp26 { fill: #ff00f5 } 
		.shp27 { fill: #50e38c } 
		.shp28 { fill: #6fd6d9 } 
		.shp29 { fill: #e800ff } 
		.shp30 { fill: #ff0053 } 
		.shp31 { fill: #3c57ff } 
		.shp32 { fill: #0f7cfa } 
		.shp33 { fill: #00ffc6 } 
		.shp34 { fill: #9210e0 } 
		.shp35 { fill: #ff008f } 
		.shp36 { fill: #f59b23 } 
		.shp37 { fill: #f5c823 } 
		.shp38 { fill: #ffa7e6 } 
		.shp39 { fill: #ffcb74 } 
		.shp40 { fill: #fff683 } 
		.shp41 { fill: #ff0082 } 
		.txt42 { font-size: 100px;fill: #ffffff;font-family: "Leckerli One";font-weight: 400 } 
		.shp43 { fill: #f8c61c } 
	</style>
	<g id="Dribbble Shot" clip-path="url(#cp1)">
		<g id="Wizard Hat">
			<path id="Spacing" class="shp0" d="M264 263L414 263L414 413L264 413L264 263Z" />
			<g id="Icon">
				<path id="Shape" fill-rule="evenodd" class="shp1" d="M413.43 390.81C413.43 395.17 409.92 399.12 403.01 402.52C402.69 402.68 402.36 402.75 402.03 402.75C401.21 402.75 400.43 402.31 400.05 401.53C399.5 400.45 399.95 399.13 401.04 398.59C406.18 396.06 409 393.29 409 390.81C409 387.39 403.45 382.46 388.15 378.45L390 382.91C390.28 383.58 390.2 384.35 389.8 384.96C389.4 385.56 379.49 399.76 338.71 399.76C297.94 399.76 288.03 385.56 287.63 384.96C287.23 384.35 287.15 383.58 287.43 382.91L289.28 378.46C283.21 380.05 278.17 381.94 274.57 383.98C272.27 385.29 268.42 387.9 268.42 390.81C268.42 395.68 278.56 400.21 288.04 402.83C301.55 406.55 319.54 408.61 338.71 408.61C358.51 408.61 377.6 406.33 391.07 402.35C392.24 402 393.47 402.67 393.82 403.83C394.17 404.99 393.5 406.22 392.33 406.56C378.26 410.71 359.22 413 338.71 413C302.49 413 264 405.22 264 390.81C264 386.9 266.82 383.32 272.38 380.17C277.01 377.54 283.4 375.27 291.38 373.41L312.58 322.37C313.04 321.25 314.34 320.72 315.47 321.18C316.6 321.64 317.13 322.93 316.67 324.05L300.38 363.27C307.22 366.43 319.12 369.8 338.71 369.8C358.31 369.8 370.2 366.43 377.05 363.27L373.51 354.74C372.42 352.12 376.51 350.45 377.6 353.06L386.05 373.41C386.07 373.41 386.08 373.41 386.1 373.42C394.27 375.33 400.76 377.67 405.4 380.37C410.73 383.47 413.43 386.99 413.43 390.81ZM385.39 383.35L378.74 367.33C366.43 372.97 350.35 374.2 338.71 374.2C327.08 374.2 311 372.97 298.69 367.33L292.03 383.35C293.16 384.5 295.72 386.7 300.51 388.9C312.17 394.25 327.72 395.37 338.71 395.37C358.99 395.37 370.94 391.73 377.4 388.67C381.91 386.54 384.32 384.46 385.39 383.35Z" />
				<path id="Path" class="shp2" d="M390.01 309.87L365.1 264.15C364.71 263.44 363.96 263 363.15 263L338.76 263C337.86 263 337.05 263.54 336.71 264.36L316.78 312.39C316.32 313.51 316.86 314.8 317.98 315.26C319.11 315.72 320.41 315.19 320.87 314.06L340.24 267.4L361.84 267.4L381.35 303.21L358.75 286.5L360.31 285.02C361.2 284.18 361.23 282.79 360.39 281.91C359.55 281.03 358.15 281 357.26 281.83L350.69 288.2L347.93 281.54C347.46 280.42 346.17 279.88 345.04 280.35C343.91 280.81 343.37 282.1 343.84 283.22L369.39 344.79C370.48 347.4 374.57 345.73 373.48 343.11L352.52 292.6L355.54 289.61L386.75 312.68C387.58 313.3 388.73 313.25 389.51 312.58C390.3 311.9 390.5 310.77 390.01 309.87Z" />
				<path id="Shape" fill-rule="evenodd" class="shp3" d="M353.3 342.54L347.88 347.73L349.16 355.06C349.46 356.8 347.53 358.18 345.94 357.35L339.23 353.9L332.53 357.35C330.93 358.18 329 356.8 329.31 355.06L330.59 347.73L325.16 342.54C323.87 341.3 324.61 339.08 326.39 338.83L333.89 337.76L337.24 331.09C338.04 329.5 340.43 329.5 341.22 331.09L344.58 337.76L352.07 338.83C352.91 338.94 353.6 339.52 353.86 340.31C354.12 341.1 353.91 341.96 353.3 342.54ZM346.98 342.5L342.78 341.9C342.06 341.8 341.43 341.36 341.11 340.71L339.23 336.98L337.35 340.71C337.03 341.36 336.41 341.8 335.68 341.9L331.48 342.5L334.52 345.41C335.05 345.91 335.28 346.63 335.16 347.34L334.44 351.44L338.2 349.5C338.85 349.17 339.62 349.17 340.27 349.5L344.02 351.44L343.3 347.34C343.18 346.63 343.42 345.91 343.94 345.41L346.98 342.5Z" />
			</g>
		</g>
		<g id="Sparkle Smoke">
			<path id="Spacing" class="shp0" d="M14 263L164 263L164 413L14 413L14 263Z" />
			<g id="Icon">
				<path id="Path" class="shp4" d="M127.52 376.02C126.21 376.02 125.16 377.02 125.16 378.26L125.16 384.2C125.16 385.43 126.21 386.44 127.52 386.44C128.82 386.44 129.88 385.43 129.88 384.2L129.88 378.26C129.88 377.02 128.82 376.02 127.52 376.02Z" />
				<path id="Path" class="shp4" d="M127.52 392.17C126.21 392.17 125.16 393.17 125.16 394.41L125.16 400.34C125.16 401.58 126.21 402.58 127.52 402.58C128.82 402.58 129.88 401.58 129.88 400.34L129.88 394.41C129.88 393.17 128.82 392.17 127.52 392.17Z" />
				<path id="Path" class="shp4" d="M138.63 386.96L132.66 386.96C131.41 386.96 130.4 388.01 130.4 389.3C130.4 390.6 131.41 391.65 132.66 391.65L138.63 391.65C139.88 391.65 140.89 390.6 140.89 389.3C140.89 388.01 139.88 386.96 138.63 386.96Z" />
				<path id="Path" class="shp4" d="M122.9 386.96L116.93 386.96C115.68 386.96 114.67 388.01 114.67 389.3C114.67 390.6 115.68 391.65 116.93 391.65L122.9 391.65C124.15 391.65 125.16 390.6 125.16 389.3C125.16 388.01 124.15 386.96 122.9 386.96Z" />
				<path id="Path" class="shp5" d="M118.65 321.82C117.45 321.57 116.27 322.35 116.02 323.55C115.18 327.58 112.47 330.64 107.48 333.2C105.72 334.09 103.74 334.89 101.64 335.6C102.42 334.19 103.02 332.56 103.42 330.65C104.43 325.74 103.46 321.81 100.54 318.97C96.94 315.47 90.53 313.93 81.48 314.4C75.3 314.72 70.07 315.87 69.43 316.01C62.29 317.28 56.18 317.81 50.92 317.81C29.6 317.81 22.52 309.03 20.31 304.56C18.3 300.51 17.93 295.8 19.24 290.95C20.54 286.15 23.47 281.48 27.49 277.81C28.4 276.98 28.46 275.57 27.63 274.66C26.8 273.75 25.39 273.69 24.48 274.52C19.83 278.76 16.44 284.18 14.93 289.79C13.33 295.7 13.8 301.49 16.3 306.53C19.43 312.86 25.56 317.53 34.02 320.04C43.51 322.86 55.7 322.98 70.26 320.39C70.3 320.38 70.34 320.37 70.38 320.37C76.04 319.06 91.95 316.83 97.43 322.16C99.21 323.89 99.74 326.38 99.04 329.75C97.6 336.75 92.58 339.48 80.53 339.8C79.3 339.83 78.32 340.85 78.36 342.08C78.39 343.29 79.38 344.25 80.59 344.25C80.61 344.25 80.63 344.25 80.65 344.25C84.25 344.15 87.81 343.87 91.01 343.07C104.81 340.01 118.04 335.85 120.39 324.45C120.64 323.24 119.86 322.07 118.65 321.82Z" />
				<path id="Path" class="shp6" d="M122.16 295C116.24 294.24 109.63 293.86 102.51 293.86C96.07 293.86 89.64 294.33 83.42 294.79C75.12 295.4 66.6 296.03 61.88 294.91C61.75 294.86 61.62 294.83 61.47 294.8C60.23 294.46 59.28 293.98 58.73 293.32C58.49 293.04 57.78 292.19 58.44 289.71C60.55 281.8 71.02 278.1 79.43 276.38C89.01 274.43 98.19 274.57 98.28 274.58C99.35 274.59 100.3 273.85 100.52 272.81C100.74 271.76 100.17 270.71 99.18 270.3C98.79 270.14 89.6 266.42 76.87 264.33C65.03 262.39 47.81 261.61 33.07 268.87C31.96 269.42 31.51 270.75 32.06 271.85C32.61 272.95 33.96 273.4 35.07 272.85C48.7 266.13 64.88 266.88 76.04 268.7C79.74 269.3 83.15 270.06 86.11 270.82C74.17 272.21 57.37 276.35 54.1 288.58C53.67 290.19 53.57 291.66 53.81 292.97C49.82 291.22 46.56 287.88 46.56 281.28C46.56 280.05 45.55 279.06 44.32 279.06C43.08 279.06 42.08 280.05 42.08 281.28C42.08 294.34 52.25 298.23 60.82 299.2C63.16 299.77 66.01 299.98 69.25 299.98C73.49 299.98 78.4 299.62 83.76 299.22C89.89 298.77 96.23 298.3 102.51 298.3C109.44 298.3 115.86 298.67 121.58 299.41C122.8 299.56 123.93 298.71 124.09 297.49C124.25 296.27 123.38 295.16 122.16 295Z" />
				<path id="Path" class="shp7" d="M160.03 314.34C157.19 309.51 152.81 305.47 147.01 302.33C145.93 301.75 144.57 302.15 143.99 303.22C143.4 304.3 143.8 305.65 144.88 306.23C154.58 311.47 159.49 319.32 159.49 329.55C159.49 340.98 153.38 350.95 143.14 356.2C142.05 356.77 141.62 358.11 142.19 359.19C142.58 359.96 143.36 360.4 144.17 360.4C144.52 360.4 144.87 360.32 145.19 360.15C156.94 354.11 163.96 342.68 163.96 329.55C163.96 323.9 162.64 318.78 160.03 314.34Z" />
				<path id="Path" class="shp8" d="M137.68 360.69C137.4 359.49 136.19 358.75 134.99 359.03C132.11 359.71 129.07 360.05 125.96 360.05C114.71 360.05 104.6 360.05 97.96 363.13C90.86 365.49 82.51 370.7 80.04 378.38C79.66 379.55 80.31 380.8 81.49 381.17C81.71 381.25 81.94 381.28 82.17 381.28C83.12 381.28 84 380.68 84.3 379.73C85.08 377.33 87.05 374.44 90.49 371.86C89.74 375.12 90.1 379.05 91.59 383.77C93.05 388.42 92.73 392.63 90.64 396.27C87.37 401.96 80.5 405.28 76.17 406.88C77.79 399.86 76.81 393.43 73.31 388.47C68.99 382.36 61.19 378.99 51.34 378.99C46.25 378.99 41.8 377.66 38.49 375.14C35.58 372.93 33.6 369.8 32.9 366.33C32.2 362.79 32.84 359.05 34.72 355.8C36.83 352.14 40.4 349.19 45.03 347.29C48.41 345.9 52.33 344.99 57.02 344.52C58.25 344.4 59.15 343.31 59.02 342.08C58.9 340.86 57.8 339.97 56.57 340.09C51.44 340.61 47.1 341.62 43.32 343.17C30.8 348.32 26.86 358.95 28.51 367.19C29.42 371.73 32 375.81 35.77 378.68C39.87 381.79 45.25 383.44 51.34 383.44C59.69 383.44 66.19 386.13 69.64 391.03C72.96 395.73 73.35 402.29 70.72 409.5C70.45 410.26 70.61 411.12 71.16 411.73C71.59 412.21 72.2 412.48 72.83 412.48C73 412.48 73.17 412.46 73.33 412.42C73.95 412.28 88.57 408.82 94.52 398.5C97.26 393.73 97.71 388.33 95.86 382.44C94.07 376.75 94.15 372.69 96.12 370.03C96.99 368.85 98.25 367.92 99.81 367.19C99.82 367.19 99.83 367.19 99.84 367.18C105.61 364.5 115.55 364.5 125.96 364.5C129.42 364.5 132.8 364.12 136.02 363.36C137.22 363.08 137.97 361.88 137.68 360.69Z" />
				<path id="Shape" fill-rule="evenodd" class="shp9" d="M158.71 287.22C158.71 289.42 157.2 291.27 155.02 291.7L149.68 292.78C145.29 293.67 141.87 297.06 140.98 301.42L139.9 306.73C139.46 308.89 137.6 310.4 135.38 310.4C133.16 310.4 131.31 308.89 130.87 306.73L129.78 301.42C128.89 297.06 125.48 293.67 121.09 292.78L115.74 291.7C113.57 291.27 112.05 289.42 112.05 287.22C112.05 285.02 113.57 283.17 115.74 282.73L121.09 281.66C125.48 280.77 128.89 277.38 129.78 273.02L130.87 267.71C131.31 265.55 133.16 264.04 135.38 264.04C137.6 264.04 139.46 265.55 139.9 267.71L140.98 273.02C141.87 277.38 145.29 280.77 149.68 281.66L155.02 282.73C157.2 283.17 158.71 285.02 158.71 287.22ZM154.2 287.12C154.2 287.13 154.18 287.12 154.13 287.11L148.79 286.03C142.62 284.79 137.83 280.03 136.58 273.9L135.5 268.6C135.49 268.55 135.47 268.52 135.47 268.52C135.44 268.5 135.33 268.5 135.29 268.52C135.29 268.52 135.28 268.54 135.27 268.6L134.18 273.9C132.94 280.03 128.14 284.79 121.98 286.03L116.63 287.11C116.59 287.12 116.56 287.13 116.55 287.13C116.53 287.16 116.53 287.28 116.56 287.31C116.56 287.31 116.56 287.31 116.56 287.31C116.57 287.31 116.59 287.32 116.63 287.33L121.98 288.41C128.14 289.65 132.93 294.41 134.18 300.53L135.27 305.84C135.28 305.89 135.29 305.92 135.29 305.92C135.33 305.94 135.44 305.94 135.48 305.92C135.48 305.92 135.49 305.89 135.5 305.84L136.58 300.53C137.83 294.41 142.62 289.65 148.79 288.41L154.13 287.33C154.18 287.32 154.21 287.31 154.21 287.31C154.23 287.28 154.23 287.16 154.2 287.12Z" />
				<path id="Shape" fill-rule="evenodd" class="shp10" d="M92.13 353.89C92.13 356.09 90.61 357.93 88.43 358.37L83.09 359.45C78.7 360.33 75.28 363.72 74.39 368.09L73.31 373.4C72.87 375.55 71.01 377.06 68.79 377.06C66.57 377.06 64.72 375.55 64.28 373.4L63.19 368.09C62.3 363.72 58.89 360.33 54.5 359.45L49.15 358.37C46.98 357.93 45.46 356.09 45.46 353.89C45.46 351.68 46.98 349.84 49.15 349.4L54.5 348.32C58.89 347.44 62.3 344.05 63.19 339.68L64.28 334.38C64.72 332.22 66.57 330.71 68.79 330.71C71.01 330.71 72.87 332.22 73.31 334.38L74.39 339.68C75.28 344.05 78.7 347.44 83.09 348.32L88.43 349.4C90.61 349.84 92.13 351.68 92.13 353.89ZM87.61 353.79C87.62 353.79 87.59 353.78 87.54 353.77L82.2 352.69C76.03 351.45 71.24 346.69 69.99 340.57L68.91 335.26C68.9 335.21 68.88 335.19 68.88 335.18C68.85 335.16 68.74 335.16 68.7 335.19C68.7 335.19 68.69 335.21 68.68 335.26L67.59 340.57C66.34 346.69 61.55 351.45 55.39 352.69L50.04 353.77C50 353.78 49.97 353.79 49.96 353.8C49.94 353.83 49.94 353.94 49.97 353.98C49.97 353.98 49.97 353.98 49.97 353.98C49.98 353.98 50 353.99 50.04 354L55.39 355.07C61.55 356.32 66.34 361.08 67.59 367.2L68.68 372.51C68.69 372.56 68.7 372.58 68.7 372.59C68.74 372.61 68.85 372.61 68.89 372.58C68.89 372.58 68.9 372.56 68.91 372.51L69.99 367.2C71.24 361.08 76.03 356.32 82.2 355.07L87.54 354C87.59 353.99 87.62 353.98 87.62 353.97C87.64 353.94 87.64 353.83 87.61 353.79Z" />
			</g>
		</g>
		<g id="Spell Book">
			<path id="Spacing" class="shp0" d="M514 13L664 13L664 163L514 163L514 13Z" />
			<g id="Icon">
				<path id="Shape" fill-rule="evenodd" class="shp11" d="M661.39 147.5C662.77 147.5 663.89 148.62 663.89 149.99L663.89 159.96C663.89 161.33 662.77 162.45 661.39 162.45L598.94 162.45C597.56 162.45 596.44 161.33 596.44 159.96C596.44 155.83 593.09 152.48 588.95 152.48C584.81 152.48 581.45 155.83 581.45 159.96C581.45 161.33 580.33 162.45 578.95 162.45L516.5 162.45C515.12 162.45 514 161.33 514 159.96L514 149.99C514 148.62 515.12 147.5 516.5 147.5L519 147.5L519 125.08C519 124.38 519.29 123.71 519.81 123.24C520.34 122.77 521.03 122.54 521.73 122.61C567.99 127 583.73 135.39 587.22 137.65C587.8 137.61 588.34 137.54 588.95 137.54C589.56 137.54 590.09 137.61 590.67 137.65C594.16 135.39 609.9 127 656.16 122.61C656.86 122.54 657.56 122.77 658.08 123.24C658.6 123.71 658.9 124.38 658.9 125.08L658.9 147.5L661.39 147.5ZM598.4 139.26C602.4 140.88 605.75 143.78 607.92 147.5L653.9 147.5L653.9 142.52L623.92 142.52L623.92 137.54L653.9 137.54L653.9 127.82C621.94 131.06 605.78 136.12 598.4 139.26ZM523.99 147.5L569.97 147.5C572.13 143.8 575.45 140.91 579.42 139.28C571.94 136.12 555.67 131.02 523.99 127.82L523.99 137.54L553.97 137.54L553.97 142.52L523.99 142.52L523.99 147.5ZM533.99 157.46L533.99 152.48L519 152.48L519 157.46L533.99 157.46ZM601.19 157.46L638.91 157.46L638.91 152.48L606.43 152.48C605.48 152.49 604.61 151.95 604.19 151.11C601.34 145.41 596.21 142.52 588.95 142.52C581.68 142.52 576.55 145.41 573.69 151.11C573.27 151.95 572.41 152.48 571.46 152.48L538.98 152.48L538.98 157.46L576.71 157.46C577.9 151.67 583.01 147.51 588.95 147.5C594.88 147.51 599.99 151.67 601.19 157.46ZM658.9 152.48L643.91 152.48L643.91 157.46L658.9 157.46L658.9 152.48Z" />
				<path id="Path" class="shp12" d="M614.3 137.54L619.31 137.54L619.31 142.52L614.3 142.52L614.3 137.54Z" />
				<path id="Shape" fill-rule="evenodd" class="shp13" d="M571.47 16.83C568.41 25.87 568.4 39.39 595.7 63.86C603.11 70.52 606.54 77.72 605.86 85.25C604.55 99.66 588.54 109.63 587.86 110.05C586.95 110.6 585.8 110.52 584.98 109.85C584.16 109.18 583.85 108.06 584.22 107.07C584.32 106.78 587.68 95.42 564.96 75.02C556.54 67.47 552.15 58.73 551.9 49.06C551.42 30.31 566.7 14.92 567.35 14.28C568.17 13.46 569.44 13.32 570.42 13.93C571.4 14.54 571.84 15.74 571.47 16.83ZM592.35 67.57C574.06 51.15 565.33 37.58 565.17 24.86C561.19 30.67 556.62 39.46 556.87 48.96C557.08 57.2 560.92 64.73 568.28 71.33C584.54 85.93 588.66 96.61 589.36 102.8C593.76 99.17 600.18 92.61 600.88 84.81C601.41 78.92 598.54 73.13 592.35 67.57L592.35 67.57Z" />
				<path id="Shape" fill-rule="evenodd" class="shp13" d="M599.82 38.56C613.88 27.65 613.28 20.7 611.61 16.41C611.19 15.35 611.55 14.15 612.47 13.48C613.39 12.81 614.65 12.84 615.54 13.56C616.04 13.96 627.78 23.58 627.67 34.53C627.5 39.74 624.85 44.56 620.53 47.51C608.31 57 608.88 62.55 608.88 62.6C609.1 63.57 608.71 64.58 607.89 65.14C607.48 65.43 606.99 65.59 606.49 65.58C606 65.58 605.52 65.44 605.1 65.19C604.65 64.92 594.19 58.51 593.68 49.93C593.64 45.34 595.95 41.05 599.82 38.56ZM617.36 22.55C616.58 29.02 611.8 35.61 602.92 42.5C600.4 44.01 598.81 46.69 598.71 49.62C598.91 53.02 601.95 56.38 604.61 58.63C605.9 55.13 609.21 49.95 617.44 43.56C620.54 41.54 622.47 38.16 622.65 34.48C622.25 30.04 620.39 25.84 617.36 22.55L617.36 22.55Z" />
				<path id="Path" class="shp14" d="M589.22 80.53L594.24 80.53L594.24 85.51L589.22 85.51L589.22 80.53Z" />
				<path id="Path" class="shp14" d="M581.42 73.33L586.44 73.33L586.44 78.31L581.42 78.31L581.42 73.33Z" />
				<path id="Shape" fill-rule="evenodd" class="shp15" d="M629.07 78.31C633.22 78.31 636.59 74.97 636.59 70.84C636.59 69.47 637.71 68.35 639.1 68.35C640.48 68.35 641.6 69.47 641.6 70.84C641.6 74.97 644.97 78.31 649.13 78.31C650.51 78.31 651.63 79.43 651.63 80.8C651.63 82.18 650.51 83.3 649.13 83.3C644.97 83.3 641.6 86.64 641.6 90.77C641.6 92.14 640.48 93.26 639.1 93.26C637.71 93.26 636.59 92.14 636.59 90.77C636.59 86.64 633.22 83.3 629.07 83.3C627.68 83.3 626.56 82.18 626.56 80.8C626.56 79.43 627.68 78.31 629.07 78.31ZM639.1 78.24C638.37 79.21 637.49 80.08 636.51 80.8C637.49 81.53 638.37 82.4 639.1 83.37C639.83 82.4 640.7 81.53 641.68 80.8C640.7 80.08 639.83 79.21 639.1 78.24Z" />
				<path id="Shape" fill-rule="evenodd" class="shp15" d="M546.6 102.67C550.75 102.67 554.12 99.32 554.12 95.2C554.12 93.82 555.24 92.7 556.63 92.7C558.01 92.7 559.13 93.82 559.13 95.2C559.13 99.32 562.5 102.67 566.66 102.67C568.04 102.67 569.16 103.78 569.16 105.16C569.16 106.53 568.04 107.65 566.66 107.65C562.5 107.65 559.13 111 559.13 115.12C559.13 116.5 558.01 117.61 556.63 117.61C555.24 117.61 554.12 116.5 554.12 115.12C554.12 111 550.75 107.65 546.6 107.65C545.21 107.65 544.09 106.53 544.09 105.16C544.09 103.78 545.21 102.67 546.6 102.67ZM554.04 105.16C555.03 105.88 555.9 106.75 556.63 107.73C557.36 106.75 558.23 105.88 559.21 105.16C558.23 104.43 557.36 103.57 556.63 102.59C555.9 103.57 555.03 104.43 554.04 105.16Z" />
				<path id="Shape" fill-rule="evenodd" class="shp15" d="M601.48 26.01C601.48 27.38 600.36 28.5 598.98 28.5C594.82 28.5 591.45 31.84 591.45 35.97C591.45 37.35 590.33 38.46 588.95 38.46C587.56 38.46 586.44 37.35 586.44 35.97C586.44 31.84 583.07 28.5 578.92 28.5C577.53 28.5 576.41 27.38 576.41 26.01C576.41 24.63 577.53 23.52 578.92 23.52C583.07 23.52 586.44 20.17 586.44 16.04C586.44 14.67 587.56 13.55 588.95 13.55C590.33 13.55 591.45 14.67 591.45 16.04C591.45 20.17 594.82 23.52 598.98 23.52C600.36 23.52 601.48 24.63 601.48 26.01ZM591.53 26.01C590.55 25.28 589.68 24.42 588.95 23.44C588.22 24.42 587.34 25.28 586.36 26.01C587.34 26.73 588.22 27.6 588.95 28.57C589.68 27.6 590.55 26.73 591.53 26.01Z" />
				<path id="Path" class="shp14" d="M616.53 60.6L621.54 60.6L621.54 65.58L616.53 65.58L616.53 60.6Z" />
				<path id="Path" class="shp14" d="M616.53 93.26L621.54 93.26L621.54 98.24L616.53 98.24L616.53 93.26Z" />
				<path id="Path" class="shp14" d="M551.33 80.53L556.35 80.53L556.35 85.51L551.33 85.51L551.33 80.53Z" />
				<path id="Path" class="shp14" d="M576.41 117.61L581.42 117.61L581.42 122.59L576.41 122.59L576.41 117.61Z" />
				<path id="Path" class="shp14" d="M529.04 105.44L534.06 105.44L534.06 110.42L529.04 110.42L529.04 105.44Z" />
				<path id="Shape" fill-rule="evenodd" class="shp16" d="M606.78 105.44C610.93 105.44 614.3 108.78 614.3 112.91C614.3 117.03 610.93 120.38 606.78 120.38C602.62 120.38 599.25 117.03 599.25 112.91C599.25 108.78 602.62 105.44 606.78 105.44ZM606.78 110.42C605.39 110.42 604.27 111.53 604.27 112.91C604.27 114.28 605.39 115.4 606.78 115.4C608.16 115.4 609.28 114.28 609.28 112.91C609.28 111.53 608.16 110.42 606.78 110.42Z" />
				<path id="Shape" fill-rule="evenodd" class="shp16" d="M546.32 70.84C546.32 74.97 542.95 78.31 538.8 78.31C534.64 78.31 531.27 74.97 531.27 70.84C531.27 66.71 534.64 63.37 538.8 63.37C542.95 63.37 546.32 66.71 546.32 70.84ZM541.3 70.84C541.3 69.47 540.18 68.35 538.8 68.35C537.41 68.35 536.29 69.47 536.29 70.84C536.29 72.22 537.41 73.33 538.8 73.33C540.18 73.33 541.3 72.22 541.3 70.84Z" />
				<path id="Shape" fill-rule="evenodd" class="shp16" d="M634.36 45.93C634.36 41.81 637.73 38.46 641.88 38.46C646.04 38.46 649.4 41.81 649.4 45.93C649.4 50.06 646.04 53.41 641.88 53.41C637.73 53.41 634.36 50.06 634.36 45.93ZM639.37 45.93C639.37 47.31 640.5 48.42 641.88 48.42C643.27 48.42 644.39 47.31 644.39 45.93C644.39 44.56 643.27 43.44 641.88 43.44C640.5 43.44 639.37 44.56 639.37 45.93Z" />
			</g>
		</g>
		<g id="Crystal Ball">
			<g id="Icon">
				<path id="Shape" fill-rule="evenodd" class="shp17" d="M122.61 133.21L54.75 133.21C54.27 133.21 53.8 133.07 53.39 132.81C34.74 120.74 23.61 100.29 23.61 78.11C23.61 42.21 52.8 13 88.68 13C124.56 13 153.75 42.21 153.75 78.11C153.75 100.29 142.62 120.74 123.97 132.81C123.56 133.07 123.1 133.21 122.61 133.21ZM55.5 128.2L121.86 128.2C138.71 117.01 148.75 98.34 148.75 78.11C148.75 44.97 121.8 18.01 88.68 18.01C55.56 18.01 28.62 44.97 28.62 78.11C28.62 98.34 38.65 117.01 55.5 128.2Z" />
				<path id="Shape" fill-rule="evenodd" class="shp18" d="M45.98 143.14C44.6 143.14 43.47 142.01 43.47 140.61L43.47 130.51C43.47 129.11 44.6 127.98 45.98 127.98L131.38 127.98C132.77 127.98 133.89 129.11 133.89 130.51L133.89 140.61C133.89 142.01 132.77 143.14 131.38 143.14L45.98 143.14ZM48.5 138.09L128.87 138.09L128.87 133.03L48.5 133.03L48.5 138.09Z" />
				<path id="Shape" fill-rule="evenodd" class="shp19" d="M143.92 153.07L33.44 153.07C32.06 153.07 30.93 151.94 30.93 150.54L30.93 145.52C30.93 141.33 34.32 137.91 38.49 137.91L138.9 137.91C143.05 137.91 146.44 141.31 146.44 145.5L146.44 150.54C146.44 151.94 145.31 153.07 143.92 153.07ZM35.95 148.02L141.41 148.02L141.41 145.5C141.41 144.1 140.29 142.97 138.9 142.97L38.49 142.97C37.09 142.97 35.95 144.11 35.95 145.52L35.95 148.02Z" />
				<path id="Shape" fill-rule="evenodd" class="shp20" d="M153.86 163L23.51 163C22.12 163 21 161.87 21 160.47L21 150.37C21 148.97 22.12 147.84 23.51 147.84L153.86 147.84C155.24 147.84 156.37 148.97 156.37 150.37L156.37 160.47C156.37 161.87 155.24 163 153.86 163ZM26.01 157.95L151.35 157.95L151.35 152.9L26.01 152.9L26.01 157.95Z" />
				<path id="Path" class="shp21" d="M61.13 40.7C60.34 40.7 59.56 40.33 59.08 39.62C58.29 38.49 58.57 36.92 59.7 36.13C67.27 30.82 76.99 28.22 88.55 28.16C89.92 28.16 91.04 29.28 91.03 30.67C91.03 32.06 89.92 33.17 88.54 33.17C88.51 33.17 88.47 33.17 88.43 33.17C77.95 33.17 69.25 35.55 62.55 40.25C62.11 40.55 61.62 40.7 61.13 40.7Z" />
				<path id="Path" class="shp21" d="M41.28 80.42C39.89 80.42 38.77 79.31 38.77 77.94C38.77 67.89 41.22 59.8 46.72 51.72C47.5 50.59 49.06 50.29 50.21 51.05C51.36 51.82 51.66 53.36 50.88 54.5C45.97 61.71 43.78 68.94 43.79 77.94C43.79 79.31 42.66 80.42 41.28 80.42Z" />
				<g id="Sparkles">
					<path id="Shape" fill-rule="evenodd" class="shp16" d="M121.35 73.15L110.37 62.17L121.35 51.2L132.32 62.17L121.35 73.15ZM117.4 62.17L121.35 66.12L125.29 62.17L121.35 58.23L117.4 62.17Z" />
					<path id="Path" class="shp16" d="M121.35 56.95C119.91 56.95 118.74 55.84 118.74 54.46L118.74 49.5C118.74 48.13 119.91 47.02 121.35 47.02C122.79 47.02 123.96 48.13 123.96 49.5L123.96 54.46C123.96 55.84 122.79 56.95 121.35 56.95Z" />
					<path id="Path" class="shp16" d="M133.5 64.79L128.54 64.79C127.16 64.79 126.05 63.62 126.05 62.17C126.05 60.73 127.16 59.56 128.54 59.56L133.5 59.56C134.87 59.56 135.98 60.73 135.98 62.17C135.98 63.62 134.87 64.79 133.5 64.79Z" />
					<path id="Path" class="shp16" d="M121.35 76.81C119.91 76.81 118.74 75.7 118.74 74.33L118.74 69.36C118.74 67.99 119.91 66.88 121.35 66.88C122.79 66.88 123.96 67.99 123.96 69.36L123.96 74.33C123.96 75.7 122.79 76.81 121.35 76.81Z" />
					<path id="Path" class="shp16" d="M113.64 64.79L108.67 64.79C107.3 64.79 106.19 63.62 106.19 62.17C106.19 60.73 107.3 59.56 108.67 59.56L113.64 59.56C115.01 59.56 116.12 60.73 116.12 62.17C116.12 63.62 115.01 64.79 113.64 64.79Z" />
					<path id="Shape" fill-rule="evenodd" class="shp16" d="M88.42 112.87L77.45 101.89L88.42 90.92L99.4 101.89L88.42 112.87ZM84.48 101.89L88.42 105.84L92.37 101.89L88.42 97.95L84.48 101.89Z" />
					<path id="Path" class="shp16" d="M88.42 97.19C86.98 97.19 85.81 96.08 85.81 94.71L85.81 89.74C85.81 88.37 86.98 87.26 88.42 87.26C89.86 87.26 91.03 88.37 91.03 89.74L91.03 94.71C91.03 96.08 89.86 97.19 88.42 97.19L88.42 97.19Z" />
					<path id="Path" class="shp16" d="M101.1 104.51L96.13 104.51C94.76 104.51 93.65 103.34 93.65 101.89C93.65 100.45 94.76 99.28 96.13 99.28L101.1 99.28C102.47 99.28 103.58 100.45 103.58 101.89C103.58 103.34 102.47 104.51 101.1 104.51L101.1 104.51Z" />
					<path id="Path" class="shp16" d="M88.42 117.05C86.98 117.05 85.81 115.94 85.81 114.57L85.81 109.61C85.81 108.23 86.98 107.12 88.42 107.12C89.86 107.12 91.03 108.23 91.03 109.61L91.03 114.57C91.03 115.94 89.86 117.05 88.42 117.05L88.42 117.05Z" />
					<path id="Path" class="shp16" d="M81.24 104.51L76.27 104.51C74.9 104.51 73.79 103.34 73.79 101.89C73.79 100.45 74.9 99.28 76.27 99.28L81.24 99.28C82.61 99.28 83.72 100.45 83.72 101.89C83.72 103.34 82.61 104.51 81.24 104.51Z" />
				</g>
			</g>
		</g>
		<g id="Crystal Cluster">
			<path id="Spacing" class="shp0" d="M264 13L414 13L414 163L264 163L264 13Z" />
			<g id="Icon">
				<path id="Shape" fill-rule="evenodd" class="shp22" d="M413.41 110.52C413.39 110.62 413.36 110.7 413.33 110.8C413.26 111.04 413.17 111.26 413.03 111.47C413 111.52 413 111.58 412.96 111.63L378.58 157.46L383.56 157.46L383.56 162.44L273.96 162.44L273.96 157.46L280.35 157.46L264.14 113.49C264.06 113.25 264.06 113.01 264.05 112.77C264.04 112.64 263.99 112.52 264 112.4C264.04 112.03 264.15 111.67 264.35 111.34L286.77 73.98C287.14 73.36 287.77 72.93 288.48 72.81C289.2 72.69 289.93 72.88 290.49 73.35L310.71 90.2L306.34 35.61C306.33 35.47 306.35 35.33 306.37 35.19C306.37 35.15 306.35 35.11 306.36 35.07C306.36 35.06 306.37 35.05 306.38 35.03C306.42 34.73 306.53 34.44 306.69 34.18C306.72 34.12 306.76 34.07 306.79 34.01C306.97 33.76 307.18 33.52 307.45 33.34L337.34 13.42C338.13 12.89 339.15 12.86 339.98 13.34L369.87 30.77C370.17 30.95 370.4 31.19 370.6 31.46C370.65 31.52 370.69 31.58 370.73 31.64C370.9 31.93 371.02 32.23 371.07 32.57C371.07 32.58 371.08 32.59 371.08 32.61C371.09 32.65 371.07 32.68 371.07 32.72C371.09 32.88 371.11 33.05 371.09 33.22L362.24 108.47L368.84 94.15C368.86 94.11 368.91 94.09 368.93 94.05C369.1 93.73 369.31 93.43 369.61 93.2L399.51 70.79C400.17 70.29 401.04 70.16 401.82 70.42C402.6 70.7 403.2 71.34 403.41 72.14L413.37 109.5C413.46 109.84 413.46 110.18 413.41 110.52ZM374.21 95.99L383.26 115.92L395.94 79.69L374.21 95.99ZM312.55 35.93L324.93 50.36L347.66 50.36L364.57 33.45L338.82 18.43L312.55 35.93ZM291.71 80.85L293.63 115.4L314.74 100.05L312.08 97.82C312.08 97.82 312.08 97.82 312.08 97.82L291.71 80.85ZM270.27 111.17L288.71 116.7L286.87 83.51L270.27 111.17ZM302.75 157.46L289.5 122.13L270.55 116.45L285.66 157.46L302.75 157.46ZM316.31 105.07L294.39 121L308.07 157.46L316.31 157.46L316.31 105.07ZM328.58 157.46L321.36 53.85L311.93 42.85L316.07 94.67L320.39 98.26C320.68 98.51 320.9 98.81 321.06 99.14C321.11 99.26 321.1 99.39 321.14 99.51C321.2 99.73 321.29 99.94 321.29 100.18L321.29 157.46L328.58 157.46ZM346.02 55.35L326.45 55.35L333.58 157.46L338.9 157.46L346.02 55.35ZM344.65 146.58L355.51 123.05L365.3 39.76L351.11 53.96L344.65 146.58ZM345.11 157.46L362.14 157.46L380.79 122.51L371.09 101.18L360.2 124.78L360.2 124.79L345.11 157.46ZM403.13 116.44L385.37 124.51L367.79 157.46L372.35 157.46L403.13 116.44ZM408.02 108.75L400.68 81.24L387.84 117.91L408.02 108.75Z" />
				<path id="Shape" fill-rule="evenodd" class="shp23" d="M294 28C294 29.38 292.88 30.5 291.5 30.5C285.98 30.5 281.5 34.98 281.5 40.5C281.5 41.88 280.38 43 279 43C277.62 43 276.5 41.88 276.5 40.5C276.5 34.98 272.01 30.5 266.5 30.5C265.12 30.5 264 29.38 264 28C264 26.62 265.12 25.5 266.5 25.5C272.01 25.5 276.5 21.01 276.5 15.5C276.5 14.12 277.62 13 279 13C280.38 13 281.5 14.12 281.5 15.5C281.5 21.01 285.98 25.5 291.5 25.5C292.88 25.5 294 26.62 294 28ZM283.22 28C281.55 26.89 280.11 25.45 279 23.78C277.89 25.45 276.45 26.89 274.78 28C276.45 29.11 277.89 30.55 279 32.22C280.11 30.55 281.55 29.11 283.22 28Z" />
				<path id="Shape" fill-rule="evenodd" class="shp23" d="M408.44 48C408.44 49.38 407.32 50.5 405.94 50.5C400.43 50.5 395.94 54.98 395.94 60.5C395.94 61.88 394.82 63 393.44 63C392.06 63 390.94 61.88 390.94 60.5C390.94 54.98 386.46 50.5 380.94 50.5C379.56 50.5 378.44 49.38 378.44 48C378.44 46.62 379.56 45.5 380.94 45.5C386.46 45.5 390.94 41.01 390.94 35.5C390.94 34.12 392.06 33 393.44 33C394.82 33 395.94 34.12 395.94 35.5C395.94 41.01 400.43 45.5 405.94 45.5C407.32 45.5 408.44 46.62 408.44 48ZM397.66 48C395.99 46.89 394.55 45.45 393.44 43.78C392.33 45.45 390.9 46.89 389.23 48C390.9 49.11 392.33 50.55 393.44 52.22C394.56 50.55 395.99 49.11 397.66 48Z" />
				<path id="Rectangle" class="shp24" d="M388.44 157.44L393.44 157.44L393.44 162.44L388.44 162.44L388.44 157.44Z" />
				<path id="Rectangle" class="shp24" d="M398.44 157.44L403.44 157.44L403.44 162.44L398.44 162.44L398.44 157.44Z" />
			</g>
		</g>
		<g id="Round Potion">
			<path id="Spacing" class="shp0" d="M-486 513L-336 513L-336 663L-486 663L-486 513Z" />
			<g id="Icon">
				<path id="Shape" fill-rule="evenodd" class="shp25" d="M-429.97 567.21L-429.97 550.5C-434.09 550.5 -437.45 547.14 -437.45 543C-437.45 538.87 -434.09 535.5 -429.97 535.5L-425.59 535.5L-428.56 522.13C-429.05 519.9 -428.52 517.59 -427.09 515.81C-425.66 514.02 -423.53 513 -421.25 513L-398.75 513C-396.47 513 -394.34 514.02 -392.91 515.81C-391.48 517.59 -390.95 519.89 -391.44 522.13L-394.41 535.5L-390.03 535.5C-385.91 535.5 -382.55 538.86 -382.55 543C-382.55 547.13 -385.91 550.5 -390.03 550.5L-390.03 567.21C-371.79 575.18 -360.09 592.97 -360.09 613C-360.09 640.57 -382.48 663 -410 663C-437.52 663 -459.91 640.57 -459.91 613C-459.91 592.97 -448.21 575.18 -429.97 567.21ZM-410 658C-385.23 658 -365.08 637.81 -365.08 613C-365.08 612.07 -365.13 611.14 -365.18 610.22L-368.01 611.71C-374.73 615.25 -382.04 617.02 -389.35 617.02C-397.09 617.02 -404.81 615.04 -411.8 611.1C-423.24 604.65 -437.18 604.13 -449.07 609.69L-454.9 612.41C-454.9 612.61 -454.92 612.8 -454.92 613C-454.92 637.81 -434.77 658 -410 658ZM-365.83 604.91C-365.85 604.79 -365.87 604.67 -365.9 604.54C-367.44 604.28 -369.08 604.17 -371.55 604.03C-378.16 603.65 -384.67 606.13 -389.43 610.85L-390.57 611.98C-383.66 612.19 -376.7 610.64 -370.34 607.29L-365.83 604.91ZM-420.48 535.5L-399.53 535.5L-396.32 521.04C-396.15 520.3 -396.33 519.53 -396.81 518.94C-397.28 518.34 -397.99 518 -398.75 518L-421.25 518C-422.01 518 -422.72 518.34 -423.19 518.94C-423.67 519.53 -423.85 520.3 -423.68 521.04L-420.48 535.5ZM-432.46 543C-432.46 544.38 -431.34 545.5 -429.97 545.5L-390.03 545.5C-388.66 545.5 -387.54 544.38 -387.54 543C-387.54 541.62 -388.66 540.5 -390.03 540.5L-429.97 540.5C-431.34 540.5 -432.46 541.62 -432.46 543ZM-416.94 550.5L-415.44 558L-404.56 558L-403.06 550.5L-416.94 550.5ZM-426.55 571.19C-441.8 577.26 -452.26 590.81 -454.47 606.7L-451.18 605.16C-437.83 598.92 -422.2 599.51 -409.36 606.75C-405.43 608.96 -401.25 610.46 -396.97 611.28L-392.94 607.3C-387.17 601.57 -379.25 598.55 -371.26 599.04C-369.74 599.13 -368.43 599.21 -367.19 599.33C-371.18 586.7 -380.62 576.3 -393.45 571.19C-394.4 570.82 -395.03 569.89 -395.03 568.87L-395.03 550.5L-397.97 550.5L-400.07 560.99C-400.3 562.16 -401.32 563 -402.51 563L-417.49 563C-418.68 563 -419.7 562.16 -419.94 560.99L-422.03 550.5L-424.97 550.5L-424.97 568.87C-424.97 569.89 -425.6 570.82 -426.55 571.19Z" />
				<path id="Shape" fill-rule="evenodd" class="shp15" d="M-367.4 548.02C-361.93 548.02 -357.47 552.47 -357.47 557.95C-357.47 563.42 -361.93 567.88 -367.4 567.88C-372.88 567.88 -377.33 563.42 -377.33 557.95C-377.33 552.47 -372.88 548.02 -367.4 548.02ZM-372.37 557.95C-372.37 560.69 -370.14 562.91 -367.4 562.91C-364.67 562.91 -362.44 560.69 -362.44 557.95C-362.44 555.21 -364.67 552.98 -367.4 552.98C-370.14 552.98 -372.37 555.21 -372.37 557.95Z" />
				<path id="Shape" fill-rule="evenodd" class="shp17" d="M-350.16 513C-343.24 513 -337.61 518.63 -337.61 525.54C-337.61 532.46 -343.24 538.09 -350.16 538.09C-357.07 538.09 -362.7 532.46 -362.7 525.54C-362.7 518.63 -357.07 513 -350.16 513ZM-357.68 525.54C-357.68 529.69 -354.31 533.07 -350.16 533.07C-346.01 533.07 -342.63 529.69 -342.63 525.54C-342.63 521.39 -346.01 518.02 -350.16 518.02C-354.31 518.02 -357.68 521.39 -357.68 525.54Z" />
				<path id="Shape" fill-rule="evenodd" class="shp26" d="M-444.76 545.4C-444.76 550.88 -449.21 555.33 -454.69 555.33C-460.16 555.33 -464.62 550.88 -464.62 545.4C-464.62 539.93 -460.16 535.47 -454.69 535.47C-449.21 535.47 -444.76 539.93 -444.76 545.4ZM-449.72 545.4C-449.72 542.67 -451.95 540.44 -454.69 540.44C-457.42 540.44 -459.65 542.67 -459.65 545.4C-459.65 548.14 -457.42 550.37 -454.69 550.37C-451.95 550.37 -449.72 548.14 -449.72 545.4Z" />
				<path id="Shape" fill-rule="evenodd" class="shp27" d="M-477.42 590.35C-481.6 590.35 -485 586.95 -485 582.77C-485 578.6 -481.6 575.2 -477.42 575.2C-473.24 575.2 -469.84 578.6 -469.84 582.77C-469.84 586.95 -473.24 590.35 -477.42 590.35ZM-477.42 585.3C-476.03 585.3 -474.9 584.17 -474.9 582.77C-474.9 581.38 -476.03 580.25 -477.42 580.25C-478.82 580.25 -479.95 581.38 -479.95 582.77C-479.95 584.17 -478.82 585.3 -477.42 585.3Z" />
				<path id="Path" class="shp3" d="M-441.77 599.24C-437.55 589.51 -429.3 582.31 -419.15 579.49L-420.47 574.67C-432.07 577.9 -441.49 586.12 -446.32 597.23L-441.77 599.24Z" />
			</g>
		</g>
		<g id="Pestle And Morter">
			<path id="Spacing" class="shp0" d="M-486 263L-336 263L-336 413L-486 413L-486 263Z" />
			<g id="Icon">
				<path id="Path" class="shp14" d="M-416.99 383.83C-418.57 383.83 -419.85 385.12 -419.85 386.7C-419.85 388.28 -418.57 389.56 -416.99 389.56C-415.41 389.56 -414.13 388.28 -414.13 386.7C-414.13 385.12 -415.41 383.83 -416.99 383.83Z" />
				<path id="Shape" fill-rule="evenodd" class="shp28" d="M-336.52 340.96C-336.52 345.87 -339.57 350.24 -344.12 351.91C-344.29 373.71 -358.54 392.76 -379.15 399.1L-379.15 404.22C-379.15 409.06 -383.08 413 -387.91 413L-434.62 413C-439.45 413 -443.38 409.06 -443.38 404.22L-443.38 399.1C-463.99 392.76 -478.23 373.71 -478.4 351.91C-482.96 350.24 -486 345.87 -486 340.96C-486 334.51 -480.76 329.25 -474.32 329.25L-417.32 329.25L-369.79 288.91C-371.22 285.68 -370.63 281.76 -367.99 279.12C-364.52 275.65 -359 275.72 -355.61 279.11L-339.09 295.68C-335.67 299.11 -335.67 304.67 -339.09 308.1C-341.76 310.79 -345.68 311.34 -348.86 309.91L-365.17 329.25L-348.2 329.25C-341.76 329.25 -336.52 334.51 -336.52 340.96ZM-363.86 287.4C-363.86 287.4 -363.86 287.4 -363.86 287.4C-363.86 287.4 -347.34 303.96 -347.34 303.96C-347.34 303.96 -347.34 303.96 -347.34 303.97C-346.21 305.11 -344.35 305.11 -343.22 303.97C-342.06 302.8 -342.09 300.95 -343.22 299.82L-359.73 283.26C-360.87 282.12 -362.71 282.1 -363.86 283.26C-365 284.4 -365 286.26 -363.86 287.4ZM-408.28 329.25L-372.82 329.25L-353.37 306.2L-366.09 293.44L-408.28 329.25ZM-384.99 404.22L-384.99 400.51C-387.87 401.02 -390.8 401.29 -393.74 401.29L-428.78 401.29C-431.72 401.29 -434.66 401.02 -437.54 400.51L-437.54 404.22C-437.54 405.83 -436.23 407.14 -434.62 407.14L-387.91 407.14C-386.3 407.14 -384.99 405.83 -384.99 404.22ZM-349.97 352.65L-472.55 352.65C-472.04 372.21 -458.69 389.16 -439.73 394.05C-436.17 394.96 -432.49 395.43 -428.78 395.43L-393.74 395.43C-390.04 395.43 -386.35 394.96 -382.79 394.05C-363.83 389.16 -350.48 372.21 -349.97 352.65ZM-342.36 340.96C-342.36 337.74 -344.98 335.11 -348.2 335.11L-474.32 335.11C-477.54 335.11 -480.16 337.74 -480.16 340.96C-480.16 344.33 -477.39 346.82 -474.32 346.82L-348.2 346.82C-347.52 346.82 -346.93 346.72 -346.31 346.48C-346.28 346.47 -346.26 346.46 -346.23 346.45C-343.92 345.65 -342.36 343.45 -342.36 340.96Z" />
				<path id="Path" class="shp14" d="M-428.52 383.73C-442.16 383.73 -454.38 375.13 -458.95 362.34C-459.49 360.82 -461.16 360.03 -462.69 360.56C-464.22 361.1 -465.02 362.77 -464.48 364.29C-459.09 379.41 -444.64 389.56 -428.52 389.56C-426.9 389.56 -425.58 388.26 -425.58 386.65C-425.58 385.03 -426.9 383.73 -428.52 383.73Z" />
				<path id="Shape" fill-rule="evenodd" class="shp27" d="M-414.98 314.75C-416.12 315.89 -417.97 315.89 -419.11 314.75L-424.1 309.76L-434.58 309.76C-452.31 309.76 -466.73 295.34 -466.73 277.61L-466.73 265.92C-466.73 264.31 -465.42 263 -463.81 263L-452.12 263C-434.39 263 -419.97 277.42 -419.97 295.15L-419.97 305.63L-414.98 310.61C-413.84 311.76 -413.84 313.61 -414.98 314.75ZM-425.81 295.15C-425.81 280.64 -437.61 268.84 -452.12 268.84L-460.88 268.84L-460.88 277.61C-460.88 292.12 -449.09 303.91 -434.58 303.91L-429.95 303.91L-454.18 279.68C-455.32 278.54 -455.32 276.69 -454.18 275.55C-453.04 274.4 -451.19 274.4 -450.05 275.55L-425.81 299.78L-425.81 295.15Z" />
				<path id="Shape" fill-rule="evenodd" class="shp25" d="M-396.42 271.85C-396.42 276.74 -400.39 280.71 -405.27 280.71C-410.15 280.71 -414.13 276.74 -414.13 271.85C-414.13 266.97 -410.15 263 -405.27 263C-400.39 263 -396.42 266.97 -396.42 271.85ZM-402.32 271.85C-402.32 270.23 -403.64 268.9 -405.27 268.9C-406.9 268.9 -408.22 270.23 -408.22 271.85C-408.22 273.48 -406.9 274.81 -405.27 274.81C-403.64 274.81 -402.32 273.48 -402.32 271.85Z" />
			</g>
		</g>
		<g id="Potion Bottle">
			<path id="Spacing" class="shp0" d="M-236 513L-86 513L-86 663L-236 663L-236 513Z" />
			<g id="Icon">
				<path id="Shape" fill-rule="evenodd" class="shp13" d="M-115.54 613.39L-115.54 641.35C-115.54 653.29 -125.23 663 -137.14 663L-184.87 663C-196.79 663 -206.48 653.29 -206.48 641.35L-206.48 613.39C-206.48 607.89 -203.27 602.81 -198.3 600.47C-198.27 600.45 -198.23 600.44 -198.2 600.42L-182.24 593.88C-179.38 592.7 -177.53 589.94 -177.53 586.84L-177.53 582.43C-177.53 581.22 -176.55 580.24 -175.34 580.24C-174.12 580.24 -173.14 581.22 -173.14 582.43L-173.14 586.84C-173.14 591.73 -176.06 596.09 -180.58 597.94L-196.48 604.47C-199.89 606.1 -202.09 609.6 -202.09 613.39L-202.09 641.35C-202.09 650.87 -194.37 658.61 -184.87 658.61L-137.14 658.61C-127.65 658.61 -119.92 650.87 -119.92 641.35L-119.92 613.39C-119.92 609.6 -122.12 606.1 -125.53 604.47L-129.01 603.04C-129.84 602.7 -130.38 601.89 -130.38 601C-130.37 600.1 -129.83 599.3 -129 598.97C-123.49 596.74 -119.92 591.46 -119.92 585.51C-119.92 577.51 -126.42 571.01 -134.4 571.01C-138.16 571.01 -141.79 572.5 -144.49 575.12L-144.49 578.77C-144.49 579.98 -145.47 580.97 -146.68 580.97C-147.89 580.97 -148.87 579.98 -148.87 578.77L-148.87 564.56L-153.4 564.56C-154.62 564.56 -155.6 563.58 -155.6 562.37C-155.6 561.15 -154.62 560.17 -153.4 560.17L-146.97 560.17C-146.95 560.17 -146.94 560.17 -146.92 560.17C-146.9 560.17 -146.88 560.17 -146.86 560.17C-145.88 560.17 -145.07 559.36 -145.07 558.37L-145.07 549.33L-147.97 549.33L-148.27 554.22C-148.27 554.23 -148.27 554.25 -148.27 554.26C-148.42 556.18 -150.04 557.68 -151.96 557.68L-170.64 557.68C-172.56 557.68 -174.18 556.18 -174.33 554.26C-174.33 554.25 -174.33 554.23 -174.33 554.22L-174.63 549.33L-176.94 549.33L-176.94 558.37C-176.94 559.36 -176.14 560.17 -175.15 560.17L-161.01 560.17C-159.8 560.17 -158.81 561.15 -158.81 562.37C-158.81 563.58 -159.8 564.56 -161.01 564.56L-173.14 564.56L-173.14 573.64C-173.14 574.86 -174.12 575.84 -175.34 575.84C-176.55 575.84 -177.53 574.86 -177.53 573.64L-177.53 564.09C-179.76 563.15 -181.33 560.94 -181.33 558.37L-181.33 548.75C-183.23 547.82 -184.55 545.87 -184.55 543.62C-184.55 540.47 -181.99 537.9 -178.85 537.9L-175.48 537.9L-176.11 529.82L-176.92 519.41C-177.04 517.76 -176.48 516.12 -175.35 514.91C-174.23 513.7 -172.65 513 -171 513L-151.6 513C-149.95 513 -148.37 513.7 -147.25 514.91C-146.13 516.12 -145.56 517.76 -145.68 519.41L-146.11 524.96C-146.18 525.75 -146.66 526.45 -147.39 526.79L-149.66 527.83L-147.82 528.7C-147 529.09 -146.5 529.95 -146.57 530.86L-147.12 537.9L-143.76 537.9C-140.61 537.9 -138.05 540.47 -138.05 543.62C-138.05 545.63 -139.11 547.4 -140.68 548.42L-140.68 558.37C-140.68 560.94 -142.26 563.15 -144.49 564.09L-144.49 569.55C-141.49 567.65 -137.99 566.61 -134.4 566.61C-124 566.61 -115.54 575.09 -115.54 585.51C-115.54 591.64 -118.44 597.22 -123.2 600.72C-118.53 603.17 -115.54 608.08 -115.54 613.39ZM-172.54 519.07L-172.47 520.03L-162.76 520.03C-161.55 520.03 -160.57 521.01 -160.57 522.23C-160.57 523.44 -161.55 524.42 -162.76 524.42L-172.13 524.42L-171.72 529.68L-168.61 529.68C-167.4 529.68 -166.42 530.67 -166.42 531.88C-166.42 533.09 -167.4 534.08 -168.61 534.08L-171.38 534.08L-171.08 537.9L-151.52 537.9L-151.06 532.03L-154.61 530.35C-155.6 529.88 -156.23 528.88 -156.22 527.79C-156.21 526.7 -155.57 525.7 -154.58 525.25L-150.39 523.33L-150.06 519.07C-150.02 518.63 -150.17 518.21 -150.47 517.89C-150.76 517.57 -151.17 517.39 -151.6 517.39L-171 517.39C-171.43 517.39 -171.84 517.57 -172.14 517.89C-172.43 518.21 -172.58 518.63 -172.54 519.07ZM-152.37 549.33L-170.24 549.33L-169.99 553.28L-152.61 553.28L-152.37 549.33ZM-143.76 544.93C-143.03 544.93 -142.44 544.34 -142.44 543.62C-142.44 542.89 -143.03 542.3 -143.76 542.3L-178.85 542.3C-179.57 542.3 -180.16 542.89 -180.16 543.62C-180.16 544.34 -179.57 544.93 -178.85 544.93L-143.76 544.93Z" />
				<path id="Shape" fill-rule="evenodd" class="shp15" d="M-123.9 585.39C-123.9 591.29 -128.71 596.1 -134.61 596.1C-140.52 596.1 -145.33 591.29 -145.33 585.39C-145.33 579.48 -140.52 574.67 -134.61 574.67C-128.71 574.67 -123.9 579.48 -123.9 585.39ZM-128.3 585.39C-128.3 581.91 -131.13 579.08 -134.61 579.08C-138.09 579.08 -140.92 581.91 -140.92 585.39C-140.92 588.87 -138.09 591.7 -134.61 591.7C-131.13 591.7 -128.3 588.87 -128.3 585.39Z" />
				<path id="Shape" fill-rule="evenodd" class="shp22" d="M-123.38 639.44L-123.38 641.22C-123.38 648.9 -129.66 655.16 -137.39 655.16L-185.15 655.16C-192.87 655.16 -199.16 648.9 -199.16 641.22L-199.16 626.98C-199.16 625.92 -198.7 624.92 -197.89 624.24C-197.08 623.55 -196.02 623.25 -194.97 623.41L-188.32 624.44C-188.33 624.25 -188.33 624.05 -188.33 623.86C-188.33 618.64 -184.07 614.39 -178.82 614.39C-173.58 614.39 -169.32 618.64 -169.32 623.86C-169.32 625.05 -169.54 626.21 -169.96 627.29L-166.52 627.82C-164.72 628.1 -162.92 628.23 -161.11 628.22C-160.8 621.19 -154.95 615.56 -147.81 615.56C-141.97 615.56 -136.96 619.25 -135.18 624.59L-127.57 623.41C-126.52 623.25 -125.45 623.55 -124.65 624.24C-123.84 624.92 -123.38 625.93 -123.38 626.98L-123.38 630.7C-123.38 631.91 -124.36 632.88 -125.57 632.88C-126.78 632.88 -127.77 631.91 -127.77 630.7L-127.77 627.86L-155.34 632.14C-159.28 632.75 -163.26 632.75 -167.19 632.14L-194.77 627.86L-194.77 641.22C-194.77 646.5 -190.45 650.79 -185.15 650.79L-137.39 650.79C-132.08 650.79 -127.77 646.5 -127.77 641.22L-127.77 639.44C-127.77 638.23 -126.78 637.25 -125.57 637.25C-124.36 637.25 -123.38 638.23 -123.38 639.44ZM-156.69 627.91C-156.47 627.88 -156.24 627.86 -156.02 627.82L-139.61 625.28C-140.99 622.08 -144.16 619.93 -147.81 619.93C-152.43 619.93 -156.24 623.43 -156.69 627.91ZM-183.95 623.86C-183.95 624.3 -183.89 624.73 -183.78 625.15L-174.5 626.58C-173.99 625.78 -173.7 624.84 -173.7 623.86C-173.7 621.05 -176 618.76 -178.83 618.76C-181.65 618.76 -183.95 621.05 -183.95 623.86Z" />
				<path id="Shape" fill-rule="evenodd" class="shp29" d="M-158.92 602.63C-158.92 606.81 -162.32 610.21 -166.49 610.21C-170.67 610.21 -174.07 606.81 -174.07 602.63C-174.07 598.46 -170.67 595.06 -166.49 595.06C-162.32 595.06 -158.92 598.46 -158.92 602.63ZM-163.37 602.63C-163.37 600.91 -164.77 599.51 -166.49 599.51C-168.22 599.51 -169.62 600.91 -169.62 602.63C-169.62 604.35 -168.22 605.75 -166.49 605.75C-164.77 605.75 -163.37 604.35 -163.37 602.63Z" />
				<path id="Shape" fill-rule="evenodd" class="shp30" d="M-166.23 641.31C-166.23 645.49 -169.63 648.89 -173.81 648.89C-177.99 648.89 -181.39 645.49 -181.39 641.31C-181.39 637.13 -177.99 633.73 -173.81 633.73C-169.63 633.73 -166.23 637.13 -166.23 641.31ZM-170.69 641.31C-170.69 639.59 -172.09 638.19 -173.81 638.19C-175.53 638.19 -176.93 639.59 -176.93 641.31C-176.93 643.03 -175.53 644.43 -173.81 644.43C-172.09 644.43 -170.69 643.03 -170.69 641.31Z" />
				<path id="Shape" fill-rule="evenodd" class="shp17" d="M-151.6 576.76C-151.6 581.37 -155.35 585.13 -159.96 585.13C-164.57 585.13 -168.32 581.37 -168.32 576.76C-168.32 572.15 -164.57 568.4 -159.96 568.4C-155.35 568.4 -151.6 572.15 -151.6 576.76ZM-156 576.76C-156 574.58 -157.78 572.8 -159.96 572.8C-162.15 572.8 -163.92 574.58 -163.92 576.76C-163.92 578.95 -162.15 580.72 -159.96 580.72C-157.78 580.72 -156 578.95 -156 576.76Z" />
			</g>
		</g>
		<g id="Cauldren">
			<path id="Spacing" class="shp0" d="M514 263L664 263L664 413L514 413L514 263Z" />
			<g id="Icon">
				<path id="Shape" fill-rule="evenodd" class="shp25" d="M608.91 272.09C608.91 267.08 614.01 263 620.27 263C626.54 263 631.64 267.08 631.64 272.09C631.64 277.1 626.54 281.18 620.27 281.18C614.01 281.18 608.91 277.1 608.91 272.09ZM614.59 272.09C614.59 274.6 617.14 276.64 620.27 276.64C623.41 276.64 625.95 274.6 625.95 272.09C625.95 269.58 623.41 267.55 620.27 267.55C617.14 267.55 614.59 269.58 614.59 272.09Z" />
				<path id="Shape" fill-rule="evenodd" class="shp3" d="M531.64 272.09C531.64 267.08 536.73 263 543 263C549.27 263 554.36 267.08 554.36 272.09C554.36 277.1 549.27 281.18 543 281.18C536.73 281.18 531.64 277.1 531.64 272.09ZM537.32 272.09C537.32 274.6 539.87 276.64 543 276.64C546.13 276.64 548.68 274.6 548.68 272.09C548.68 269.58 546.13 267.55 543 267.55C539.87 267.55 537.32 269.58 537.32 272.09Z" />
				<path id="Shape" fill-rule="evenodd" class="shp31" d="M590.73 285.73C590.73 280.71 594.81 276.64 599.82 276.64C604.83 276.64 608.91 280.71 608.91 285.73C608.91 290.74 604.83 294.82 599.82 294.82C594.81 294.82 590.73 290.74 590.73 285.73ZM595.92 285.73C595.92 287.88 597.67 289.62 599.82 289.62C601.97 289.62 603.71 287.88 603.71 285.73C603.71 283.58 601.97 281.83 599.82 281.83C597.67 281.83 595.92 283.58 595.92 285.73Z" />
				<path id="Shape" fill-rule="evenodd" class="shp16" d="M558.91 276.64C558.91 271.62 562.99 267.55 568 267.55C573.01 267.55 577.09 271.62 577.09 276.64C577.09 281.65 573.01 285.73 568 285.73C562.99 285.73 558.91 281.65 558.91 276.64ZM564.1 276.64C564.1 278.78 565.85 280.53 568 280.53C570.15 280.53 571.9 278.78 571.9 276.64C571.9 274.49 570.15 272.74 568 272.74C565.85 272.74 564.1 274.49 564.1 276.64Z" />
				<path id="Shape" fill-rule="evenodd" class="shp32" d="M646.05 397.29C649.1 400.27 649.1 405.11 646.05 408.09C644.52 409.58 642.52 410.32 640.51 410.32C638.51 410.32 636.5 409.58 634.98 408.09L628.17 401.45C616.85 408.73 603.18 413 588.45 413C574.38 413 561.27 409.09 550.26 402.39L544.41 408.09C542.88 409.58 540.88 410.32 538.88 410.32C536.87 410.32 534.87 409.58 533.34 408.09C530.29 405.11 530.29 400.27 533.34 397.29L537.9 392.85C525.6 380.92 518 364.69 518 346.82C518 336.78 520.37 327.15 524.99 318.15L520.05 310.13C519.23 308.79 519.21 307.11 520 305.75C520.78 304.39 522.27 303.55 523.87 303.55L526.2 303.55C527.37 299.16 531.42 295.91 536.27 295.91C538.38 295.91 540.43 296.55 542.15 297.7C544.58 294.97 548.1 293.36 551.92 293.36C553.42 293.36 554.89 293.61 556.28 294.1C558.91 289.05 564.26 285.73 570.19 285.73C577.2 285.73 583.13 290.2 585.1 296.46C587.81 295.55 590.94 295.82 593.45 297.17C596.05 293.27 600.52 290.82 605.42 290.82C610.31 290.82 614.78 293.27 617.39 297.17C620.73 295.36 625.11 295.59 628.26 297.7C630.69 294.97 634.21 293.36 638.03 293.36C644.34 293.36 649.6 297.74 650.82 303.55L653.04 303.55C654.64 303.55 656.12 304.39 656.91 305.75C657.7 307.11 657.68 308.79 656.86 310.13L651.92 318.15C656.54 327.15 658.91 336.78 658.91 346.82C658.91 364.09 651.82 379.83 640.24 391.63L646.05 397.29ZM630.64 303.55L645.42 303.55C644.34 300.58 641.44 298.45 638.03 298.45C635.05 298.45 632.37 300.1 631.04 302.75L630.64 303.55ZM617.78 303.55L626.91 303.55L626.59 303.12C624.68 300.56 620.6 300.36 618.45 302.78L617.78 303.55ZM596.26 303.55L614.57 303.55L614.01 301.95C612.74 298.33 609.29 295.91 605.42 295.91C601.55 295.91 598.09 298.33 596.82 301.95L596.26 303.55ZM583.62 303.55L593.05 303.55L592.38 302.78C590.49 300.65 587.07 300.45 584.94 302.35L583.62 303.55ZM544.53 303.55L580.7 303.55L580.57 300.59C580.34 295.11 575.78 290.82 570.19 290.82C565.55 290.82 561.44 293.89 560.18 298.29L559.22 301.66L556.23 299.72C554.94 298.89 553.46 298.45 551.92 298.45C548.94 298.45 546.26 300.1 544.93 302.75L544.53 303.55ZM531.75 303.55L540.8 303.55L540.48 303.12C539.47 301.77 537.94 301 536.27 301C534.34 301 532.65 302.02 531.75 303.55ZM525.22 308.64L527.81 312.85L527.81 312.85L529.91 316.27L646.99 316.27L649.1 312.85L649.1 312.85L651.69 308.64L525.22 308.64ZM544.93 398.81C544.15 398.22 543.37 397.63 542.62 397.02C542.32 396.78 542.01 396.56 541.72 396.32L537.03 400.89C536.01 401.88 536.01 403.5 537.03 404.49C538.05 405.48 539.71 405.48 540.72 404.49L545.83 399.5C545.53 399.28 545.24 399.03 544.93 398.81ZM588.45 407.91C603.03 407.91 616.51 403.41 627.38 395.81C628.39 395.11 629.36 394.37 630.32 393.62C630.83 393.22 631.33 392.81 631.83 392.4C632.44 391.89 633.03 391.37 633.61 390.84C645.97 379.72 653.69 364.1 653.69 346.82C653.69 337.93 651.69 329.37 647.75 321.36L529.15 321.36C525.22 329.37 523.22 337.93 523.22 346.82C523.22 364.41 531.21 380.28 543.96 391.43C544.94 392.3 545.95 393.15 546.99 393.95C547.32 394.2 547.66 394.44 547.98 394.68C548.82 395.3 549.67 395.9 550.53 396.48C561.23 403.66 574.32 407.91 588.45 407.91ZM642.35 400.89L636.52 395.2C636.3 395.39 636.06 395.56 635.84 395.75C634.95 396.51 634.04 397.25 633.11 397.97C632.9 398.13 632.71 398.31 632.49 398.47L638.67 404.49C639.69 405.48 641.34 405.48 642.36 404.49C643.38 403.5 643.38 401.88 642.35 400.89Z" />
				<path id="Path" class="shp33" d="M588.1 390.03C564.88 390.03 545.99 372.86 545.99 351.76C545.99 350.43 544.81 349.36 543.36 349.36C541.9 349.36 540.73 350.43 540.73 351.76C540.73 375.5 561.98 394.82 588.1 394.82C589.55 394.82 590.73 393.75 590.73 392.43C590.73 391.1 589.55 390.03 588.1 390.03Z" />
			</g>
		</g>
		<g id="Doble Terminated Crystal">
			<path id="Spacing" class="shp0" d="M14 517L164 517L164 667L14 667L14 517Z" />
			<g id="Icon">
				<path id="Shape" fill-rule="evenodd" class="shp34" d="M126.31 551.09L126.31 624.91C126.31 625.69 126 626.44 125.45 626.98L90.23 662.14C89.68 662.69 88.93 663 88.15 663C87.37 663 86.63 662.69 86.08 662.14L50.86 626.98C50.31 626.44 50 625.69 50 624.91L50 551.09C50 549.47 51.31 548.16 52.93 548.16L68.87 548.16L77.85 530.35L73.69 534.51C72.54 535.66 70.68 535.66 69.54 534.51C68.39 533.37 68.39 531.52 69.54 530.37L86.08 513.86C86.63 513.31 87.37 513 88.15 513C88.93 513 89.68 513.31 90.23 513.86L125.45 549.02C126 549.57 126.31 550.31 126.31 551.09ZM120.44 554.02L108.7 554.02L108.7 598.28C108.7 599.89 107.38 601.21 105.76 601.21C104.14 601.21 102.83 599.89 102.83 598.28L102.83 554.02L73.48 554.02L73.48 621.98L120.44 621.98L120.44 554.02ZM60.02 627.84L77.85 645.65L68.87 627.84L60.02 627.84ZM88.15 653.03L100.86 627.84L75.44 627.84L88.15 653.03ZM98.45 645.65L116.29 627.84L107.44 627.84L98.45 645.65ZM116.29 548.16L98.45 530.35L107.43 548.16L116.29 548.16ZM75.44 548.16L100.86 548.16L88.15 522.97L75.44 548.16ZM55.87 554.02L55.87 621.98L67.61 621.98L67.61 554.02L55.87 554.02Z" />
				<path id="Path" class="shp35" d="M62.28 544.88C63.06 544.88 63.84 544.56 64.41 543.94L64.41 543.94C65.48 542.76 65.39 540.95 64.22 539.88C63.04 538.81 61.22 538.9 60.16 540.07C59.09 541.25 59.17 543.07 60.35 544.13C60.9 544.63 61.59 544.88 62.28 544.88Z" />
				<path id="Path" class="shp35" d="M105.66 608.64C104.07 608.64 102.79 609.93 102.79 611.52C102.79 613.11 104.07 614.39 105.66 614.39C107.25 614.39 108.54 613.11 108.54 611.52L108.54 611.52C108.54 609.93 107.25 608.64 105.66 608.64Z" />
			</g>
		</g>
		<g id="Wand">
			<path id="Spacing" class="shp0" d="M-236 263L-86 263L-86 413L-236 413L-236 263Z" />
			<g id="Icon">
				<path id="Path" class="shp36" d="M-104.49 343.21C-106.07 343.21 -107.35 344.49 -107.35 346.07C-107.35 347.65 -106.07 348.94 -104.49 348.94C-102.91 348.94 -101.63 347.65 -101.63 346.07C-101.63 344.49 -102.91 343.21 -104.49 343.21Z" />
				<path id="Path" class="shp36" d="M-140.49 281.55C-141.6 280.43 -143.42 280.43 -144.54 281.55C-145.65 282.66 -145.65 284.48 -144.54 285.6C-143.42 286.72 -141.6 286.72 -140.49 285.6C-139.37 284.48 -139.37 282.67 -140.49 281.55Z" />
				<path id="Shape" fill-rule="evenodd" class="shp37" d="M-94.89 334.48L-116.9 334.49L-129.61 352.18C-133.81 358.11 -143.01 356.63 -145.17 349.7L-147.77 341.33L-216 409.56C-220.57 414.15 -227.99 414.14 -232.57 409.56C-237.15 404.99 -237.14 397.56 -232.56 392.99L-164.33 324.77L-172.69 322.17C-179.65 320.01 -181.1 310.81 -175.16 306.6L-157.49 293.9L-157.48 271.89C-157.56 264.63 -149.27 260.41 -143.44 264.76L-125.82 277.91L-104.99 270.85C-98.1 268.51 -91.51 275.1 -93.85 281.99L-100.91 302.82L-87.76 320.44C-83.41 326.28 -87.63 334.57 -94.89 334.48ZM-149.73 335.01L-151.7 328.7L-158.01 326.73L-228.42 397.14C-230.73 399.44 -230.69 403.15 -228.42 405.42C-226.13 407.72 -222.43 407.71 -220.14 405.42L-149.73 335.01ZM-92.46 323.94L-106.53 305.09C-107.1 304.32 -107.26 303.31 -106.95 302.4L-99.4 280.11C-98.61 277.8 -100.82 275.62 -103.11 276.4L-125.4 283.95C-126.31 284.26 -127.32 284.1 -128.09 283.53L-146.94 269.46C-148.9 268 -151.69 269.41 -151.66 271.84C-151.65 271.85 -151.65 271.87 -151.65 271.88L-151.66 295.41C-151.66 296.35 -152.09 297.23 -152.85 297.78L-171.76 311.37C-173.78 312.8 -173.26 315.86 -170.96 316.57L-148.49 323.56C-147.57 323.84 -146.84 324.57 -146.56 325.49L-143.61 334.96L-143.6 334.99C-143.6 334.99 -143.6 335 -143.6 335.01L-139.57 347.96C-138.85 350.28 -135.79 350.77 -134.38 348.78L-120.78 329.85C-120.23 329.09 -119.35 328.66 -118.41 328.66L-94.88 328.65C-92.31 328.65 -91.04 325.84 -92.46 323.94Z" />
				<path id="Path" class="shp36" d="M-126.79 292.15L-131.73 288.58C-133.06 287.62 -134.93 287.88 -135.93 289.17C-136.92 290.45 -136.64 292.27 -135.32 293.23L-130.37 296.8C-129.04 297.76 -127.17 297.49 -126.18 296.21C-125.19 294.92 -125.46 293.11 -126.79 292.15Z" />
				<path id="Path" class="shp22" d="M-174.89 278.28L-177.84 278.28L-177.84 275.33C-177.84 273.7 -179.16 272.38 -180.79 272.38C-182.42 272.38 -183.74 273.7 -183.74 275.33L-183.74 278.28L-186.69 278.28C-188.32 278.28 -189.65 279.6 -189.65 281.23C-189.65 282.86 -188.32 284.18 -186.69 284.18L-183.74 284.18L-183.74 287.13C-183.74 288.76 -182.42 290.08 -180.79 290.08C-179.16 290.08 -177.84 288.76 -177.84 287.13L-177.84 284.18L-174.89 284.18C-173.26 284.18 -171.94 282.86 -171.94 281.23C-171.94 279.6 -173.26 278.28 -174.89 278.28Z" />
				<path id="Path" class="shp22" d="M-110.31 366.3L-113.26 366.3L-113.26 363.35C-113.26 361.72 -114.58 360.4 -116.21 360.4C-117.84 360.4 -119.16 361.72 -119.16 363.35L-119.16 366.3L-122.11 366.3C-123.74 366.3 -125.06 367.62 -125.06 369.25C-125.06 370.88 -123.74 372.2 -122.11 372.2L-119.16 372.2L-119.16 375.15C-119.16 376.78 -117.84 378.1 -116.21 378.1C-114.58 378.1 -113.26 376.78 -113.26 375.15L-113.26 372.2L-110.31 372.2C-108.68 372.2 -107.35 370.88 -107.35 369.25C-107.35 367.62 -108.68 366.3 -110.31 366.3Z" />
			</g>
		</g>
		<g id="Castle">
			<path id="Spacing" class="shp0" d="M264 513L414 513L414 663L264 663L264 513Z" />
			<g id="Icon">
				<path id="Path" class="shp3" d="M394 618C392.62 618 391.5 619.12 391.5 620.5L391.5 625.5C391.5 626.88 392.62 628 394 628C395.38 628 396.5 626.88 396.5 625.5L396.5 620.5C396.5 619.12 395.38 618 394 618Z" />
				<path id="Path" class="shp16" d="M325.38 557.74C326.62 558.36 328.12 557.85 328.74 556.62L336.5 541.09L336.5 555.5C336.5 556.88 337.62 558 339 558C340.38 558 341.5 556.88 341.5 555.5L341.5 541.09L349.26 556.62C349.7 557.5 350.58 558 351.5 558C351.88 558 352.26 557.92 352.62 557.74C353.85 557.12 354.36 555.62 353.74 554.38L341.5 529.91L341.5 518L354 518L354 523L346.5 523C345.12 523 344 524.12 344 525.5C344 526.88 345.12 528 346.5 528L356.5 528C357.88 528 359 526.88 359 525.5L359 515.5C359 514.12 357.88 513 356.5 513L339 513C337.62 513 336.5 514.12 336.5 515.5L336.5 529.91L324.26 554.38C323.64 555.62 324.15 557.12 325.38 557.74Z" />
				<path id="Path" class="shp17" d="M351.5 593C352.88 593 354 591.88 354 590.5L354 568L356.5 568C357.88 568 359 566.88 359 565.5C359 564.12 357.88 563 356.5 563L321.5 563C320.12 563 319 564.12 319 565.5C319 566.88 320.12 568 321.5 568L324 568L324 590.5C324 591.88 325.12 593 326.5 593C327.88 593 329 591.88 329 590.5L329 568L349 568L349 590.5C349 591.88 350.12 593 351.5 593Z" />
				<path id="Path" class="shp3" d="M336.5 580.5L336.5 585.5C336.5 586.88 337.62 588 339 588C340.38 588 341.5 586.88 341.5 585.5L341.5 580.5C341.5 579.12 340.38 578 339 578C337.62 578 336.5 579.12 336.5 580.5Z" />
				<path id="Path" class="shp17" d="M376.5 588L379 588L379 590.5C379 591.88 380.12 593 381.5 593C382.88 593 384 591.88 384 590.5L384 588L404 588L404 638C404 639.38 405.12 640.5 406.5 640.5C407.88 640.5 409 639.38 409 638L409 588L411.5 588C412.88 588 414 586.88 414 585.5C414 584.12 412.88 583 411.5 583L376.5 583C375.12 583 374 584.12 374 585.5C374 586.88 375.12 588 376.5 588Z" />
				<path id="Path" class="shp38" d="M384 538C384 539.38 385.12 540.5 386.5 540.5C387.88 540.5 389 539.38 389 538C390.38 538 391.5 536.88 391.5 535.5C391.5 534.12 390.38 533 389 533C389 531.62 387.88 530.5 386.5 530.5C385.12 530.5 384 531.62 384 533C382.62 533 381.5 534.12 381.5 535.5C381.5 536.88 382.62 538 384 538Z" />
				<path id="Path" class="shp16" d="M380.38 577.74C381.62 578.36 383.12 577.85 383.74 576.62L391.5 561.09L391.5 575.5C391.5 576.88 392.62 578 394 578C395.38 578 396.5 576.88 396.5 575.5L396.5 561.09L404.26 576.62C404.7 577.5 405.58 578 406.5 578C406.88 578 407.26 577.92 407.62 577.74C408.85 577.12 409.35 575.62 408.74 574.38L396.24 549.38C396.13 549.17 395.99 548.98 395.82 548.82C395.37 548.32 394.73 548 394 548C393.27 548 392.63 548.32 392.18 548.82C392.01 548.98 391.87 549.17 391.76 549.38L379.26 574.38C378.65 575.62 379.15 577.12 380.38 577.74Z" />
				<path id="Shape" fill-rule="evenodd" class="shp3" d="M354 638L354 660.5C354 661.88 352.88 663 351.5 663L326.5 663C325.12 663 324 661.88 324 660.5L324 638C324 629.73 330.73 623 339 623C347.27 623 354 629.73 354 638ZM349 653L329 653L329 658L349 658L349 653ZM349 643L329 643L329 648L349 648L349 643ZM349 638C349 632.49 344.52 628 339 628C333.49 628 329 632.48 329 638L349 638Z" />
				<path id="Path" class="shp3" d="M396.5 600.5C396.5 599.12 395.38 598 394 598C392.62 598 391.5 599.12 391.5 600.5L391.5 605.5C391.5 606.88 392.62 608 394 608C395.38 608 396.5 606.88 396.5 605.5L396.5 600.5Z" />
				<path id="Path" class="shp38" d="M314 520.5C314 521.88 315.12 523 316.5 523C317.88 523 319 521.88 319 520.5C320.38 520.5 321.5 519.38 321.5 518C321.5 516.62 320.38 515.5 319 515.5C319 514.12 317.88 513 316.5 513C315.12 513 314 514.12 314 515.5C312.62 515.5 311.5 516.62 311.5 518C311.5 519.38 312.62 520.5 314 520.5Z" />
				<path id="Path" class="shp3" d="M284 618C282.62 618 281.5 619.12 281.5 620.5L281.5 625.5C281.5 626.88 282.62 628 284 628C285.38 628 286.5 626.88 286.5 625.5L286.5 620.5C286.5 619.12 285.38 618 284 618Z" />
				<path id="Shape" fill-rule="evenodd" class="shp15" d="M319 650.5L319 660.5C319 661.88 317.88 663 316.5 663L266.5 663C265.12 663 264 661.88 264 660.5L264 650.5C264 647.74 266.24 645.5 269 645.5C269.91 645.5 270.76 645.75 271.5 646.17C272.97 645.32 275.03 645.32 276.5 646.17C277.97 645.32 280.03 645.32 281.5 646.17C282.97 645.32 285.03 645.32 286.5 646.17C287.97 645.32 290.03 645.32 291.5 646.17C292.97 645.32 295.03 645.32 296.5 646.17C297.97 645.32 300.03 645.32 301.5 646.17C302.97 645.32 305.03 645.32 306.5 646.17C307.97 645.32 310.03 645.32 311.5 646.17C312.23 645.75 313.09 645.5 314 645.5C316.76 645.5 319 647.74 319 650.5ZM314 658L314 650.5C314 651.88 312.88 653 311.5 653C310.12 653 309 651.88 309 650.5C309 651.88 307.88 653 306.5 653C305.12 653 304 651.88 304 650.5C304 651.88 302.88 653 301.5 653C300.12 653 299 651.88 299 650.5C299 651.88 297.88 653 296.5 653C295.12 653 294 651.88 294 650.5C294 651.88 292.88 653 291.5 653C290.12 653 289 651.88 289 650.5C289 651.88 287.88 653 286.5 653C285.12 653 284 651.88 284 650.5C284 651.88 282.88 653 281.5 653C280.12 653 279 651.88 279 650.5C279 651.88 277.88 653 276.5 653C275.12 653 274 651.88 274 650.5C274 651.88 272.88 653 271.5 653C270.12 653 269 651.88 269 650.5L269 658L314 658Z" />
				<path id="Shape" fill-rule="evenodd" class="shp15" d="M414 650.5L414 660.5C414 661.88 412.88 663 411.5 663L361.5 663C360.12 663 359 661.88 359 660.5L359 650.5C359 647.74 361.24 645.5 364 645.5C364.91 645.5 365.76 645.75 366.5 646.17C367.97 645.32 370.03 645.32 371.5 646.17C372.97 645.32 375.03 645.32 376.5 646.17C377.97 645.32 380.03 645.32 381.5 646.17C382.97 645.32 385.03 645.32 386.5 646.17C387.97 645.32 390.03 645.32 391.5 646.17C392.97 645.32 395.03 645.32 396.5 646.17C397.97 645.32 400.03 645.32 401.5 646.17C402.97 645.32 405.03 645.32 406.5 646.17C407.23 645.75 408.09 645.5 409 645.5C411.76 645.5 414 647.74 414 650.5ZM409 658L409 650.5C409 651.88 407.88 653 406.5 653C405.12 653 404 651.88 404 650.5C404 651.88 402.88 653 401.5 653C400.12 653 399 651.88 399 650.5C399 651.88 397.88 653 396.5 653C395.12 653 394 651.88 394 650.5C394 651.88 392.88 653 391.5 653C390.12 653 389 651.88 389 650.5C389 651.88 387.88 653 386.5 653C385.12 653 384 651.88 384 650.5C384 651.88 382.88 653 381.5 653C380.12 653 379 651.88 379 650.5C379 651.88 377.88 653 376.5 653C375.12 653 374 651.88 374 650.5C374 651.88 372.88 653 371.5 653C370.12 653 369 651.88 369 650.5C369 651.88 367.88 653 366.5 653C365.12 653 364 651.88 364 650.5L364 658L409 658Z" />
				<path id="Path" class="shp16" d="M270.38 577.74C271.62 578.36 273.12 577.85 273.74 576.62L281.5 561.09L281.5 575.5C281.5 576.88 282.62 578 284 578C285.38 578 286.5 576.88 286.5 575.5L286.5 561.09L294.26 576.62C294.7 577.5 295.58 578 296.5 578C296.88 578 297.26 577.92 297.62 577.74C298.85 577.12 299.36 575.62 298.74 574.38L286.24 549.38C286.13 549.17 285.99 548.98 285.82 548.82C285.37 548.32 284.73 548 284 548C283.27 548 282.63 548.32 282.18 548.82C282.01 548.98 281.87 549.17 281.76 549.38L269.26 574.38C268.65 575.62 269.15 577.12 270.38 577.74Z" />
				<path id="Path" class="shp22" d="M374 610.5L374 603L379 603L379 638C379 639.38 380.12 640.5 381.5 640.5C382.88 640.5 384 639.38 384 638L384 600.5C384 599.12 382.88 598 381.5 598L371.5 598C370.12 598 369 599.12 369 600.5L369 608L359 608L359 600.5C359 599.12 357.88 598 356.5 598L346.5 598C345.12 598 344 599.12 344 600.5L344 608L334 608L334 600.5C334 599.12 332.88 598 331.5 598L321.5 598C320.12 598 319 599.12 319 600.5L319 608L309 608L309 600.5C309 599.12 307.88 598 306.5 598L296.5 598C295.12 598 294 599.12 294 600.5L294 638C294 639.38 295.12 640.5 296.5 640.5C297.88 640.5 299 639.38 299 638L299 603L304 603L304 610.5C304 611.88 305.12 613 306.5 613L321.5 613C322.88 613 324 611.88 324 610.5L324 603L329 603L329 610.5C329 611.88 330.12 613 331.5 613L346.5 613C347.88 613 349 611.88 349 610.5L349 603L354 603L354 610.5C354 611.88 355.12 613 356.5 613L371.5 613C372.88 613 374 611.88 374 610.5Z" />
				<path id="Path" class="shp38" d="M266.5 528L269 528L269 530.5C269 531.88 270.12 533 271.5 533C272.88 533 274 531.88 274 530.5L274 528L276.5 528C277.88 528 279 526.88 279 525.5C279 524.12 277.88 523 276.5 523L274 523L274 520.5C274 519.12 272.88 518 271.5 518C270.12 518 269 519.12 269 520.5L269 523L266.5 523C265.12 523 264 524.12 264 525.5C264 526.88 265.12 528 266.5 528Z" />
				<path id="Path" class="shp17" d="M266.5 588L269 588L269 640.5C269 641.88 270.12 643 271.5 643C272.88 643 274 641.88 274 640.5L274 588L294 588L294 590.5C294 591.88 295.12 593 296.5 593C297.88 593 299 591.88 299 590.5L299 588L301.5 588C302.88 588 304 586.88 304 585.5C304 584.12 302.88 583 301.5 583L266.5 583C265.12 583 264 584.12 264 585.5C264 586.88 265.12 588 266.5 588Z" />
				<path id="Path" class="shp3" d="M286.5 600.5C286.5 599.12 285.38 598 284 598C282.62 598 281.5 599.12 281.5 600.5L281.5 605.5C281.5 606.88 282.62 608 284 608C285.38 608 286.5 606.88 286.5 605.5L286.5 600.5Z" />
			</g>
		</g>
		<g id="Crown">
			<path id="Spacing" class="shp0" d="M514 513L664 513L664 663L514 663L514 513Z" />
			<g id="Icon">
				<path id="Shape" fill-rule="evenodd" class="shp39" d="M657.63 593.06C661.36 594.49 664 598.85 664 604.14C664 610.64 660.03 615.72 654.97 615.72C654.13 615.72 653.3 615.58 652.51 615.3L651.5 619.67C653.36 620.26 654.71 622.01 654.71 624.06L654.71 628.04C654.71 630.58 652.64 632.65 650.1 632.65L626.57 632.65C625.35 632.65 624.37 631.66 624.37 630.45C624.37 629.23 625.35 628.25 626.57 628.25L650.1 628.25C650.22 628.25 650.31 628.15 650.31 628.04L650.31 624.06C650.31 623.95 650.22 623.85 650.1 623.85L527.9 623.85C527.78 623.85 527.69 623.95 527.69 624.06L527.69 628.04C527.69 628.15 527.78 628.25 527.9 628.25L617.01 628.25C618.23 628.25 619.21 629.23 619.21 630.45C619.21 631.66 618.23 632.65 617.01 632.65L527.9 632.65C525.36 632.65 523.29 630.58 523.29 628.04L523.29 624.06C523.29 622.01 524.64 620.26 526.5 619.67L525.49 615.3C524.7 615.58 523.87 615.72 523.03 615.72C517.96 615.72 514 610.64 514 604.14C514 598.85 516.64 594.49 520.37 593.06L517.18 579.24C516.51 576.32 519.93 574.19 522.23 576.12C524.22 577.79 527.32 580.02 530.75 581.16C533.24 581.98 535.05 583.8 535.83 586.29C536.71 589.05 536.18 592.42 534.51 594.66C533.61 595.88 533.8 597.5 534.95 598.36C536.23 599.31 537.84 599.8 539.72 599.8C542.98 599.8 544.76 592.65 545.13 585.46C542 585.77 539.43 584.74 537.94 582.53C535.88 579.45 538.91 573.51 545.82 561.61C547.59 558.56 549.27 555.68 550.25 553.66C550.72 552.68 551.64 552.03 552.71 551.91C553.79 551.79 554.83 552.23 555.5 553.07C557.95 556.16 563.65 564.19 563.65 572.13C563.65 574.97 563.95 578.27 564.5 581.41C564.7 582.61 563.9 583.74 562.71 583.95C561.51 584.16 560.37 583.36 560.17 582.16C559.58 578.78 559.25 575.22 559.25 572.13C559.25 566.58 555.52 560.55 553.26 557.41C552.26 559.29 550.97 561.51 549.62 563.82C548.06 566.5 541.57 577.36 541.69 580.21C542.65 581.42 544.69 581.16 545.85 580.89C547.79 580.43 549.63 581.92 549.59 583.91C549.45 590.01 548.21 604.2 539.72 604.2C536.87 604.2 534.38 603.42 532.33 601.89C529.25 599.6 528.65 595.18 530.98 592.04C531.7 591.07 532.16 589.24 531.64 587.62C531.28 586.48 530.52 585.71 529.37 585.33C526.71 584.45 524.26 583.06 522.25 581.66L529.09 611.33C529.09 611.34 529.09 611.34 529.09 611.35L530.96 619.45L647.04 619.45L648.91 611.35C648.91 611.34 648.91 611.34 648.91 611.33L655.75 581.66C653.74 583.06 651.29 584.45 648.63 585.33C647.48 585.71 646.72 586.48 646.36 587.62C645.84 589.24 646.3 591.07 647.02 592.04C649.35 595.18 648.75 599.6 645.67 601.89C643.62 603.42 641.13 604.2 638.28 604.2C629.79 604.2 628.55 590.01 628.42 583.91C628.37 581.92 630.21 580.43 632.15 580.89C633.31 581.16 635.35 581.42 636.32 580.2C636.34 579.74 636.14 577.87 632.91 571.82C632.33 570.75 632.74 569.42 633.81 568.84C634.88 568.27 636.21 568.68 636.78 569.75C640.61 576.92 641.5 580.38 640.06 582.53C638.57 584.74 636.01 585.76 632.87 585.46C633.24 592.65 635.02 599.8 638.28 599.8C640.16 599.8 641.77 599.31 643.05 598.36C644.2 597.5 644.39 595.88 643.49 594.66C641.83 592.42 641.29 589.05 642.17 586.29C642.95 583.8 644.76 581.98 647.25 581.16C650.68 580.02 653.78 577.79 655.77 576.12C658.07 574.2 661.49 576.32 660.82 579.24L657.63 593.06ZM523.03 611.32C523.58 611.32 524.07 611.16 524.49 610.94L521.38 597.46C519.65 598.51 518.39 601.15 518.39 604.14C518.39 608.04 520.52 611.32 523.03 611.32ZM654.97 611.32C657.48 611.32 659.61 608.04 659.61 604.14C659.61 601.15 658.35 598.51 656.62 597.46L653.51 610.94C653.93 611.16 654.42 611.32 654.97 611.32Z" />
				<path id="Path" class="shp40" d="M562.89 591.85C564.46 595.41 566.41 597.44 568.69 597.87C571.75 598.46 575.02 596.92 577.45 594.9C581.74 591.35 584.3 585.76 584.3 579.94L584.3 575.78C584.3 573.18 581.45 571.58 579.24 572.93C578.56 573.35 577.58 573.57 576.42 573.57C573.51 573.57 571.57 572.67 571.57 568.31C571.57 568.02 571.8 566.32 576.21 561.3C579.15 557.96 582.98 554.22 586.05 551.22C587.14 550.17 588.12 549.21 589 548.33C589.88 549.21 590.87 550.17 591.96 551.23C595.03 554.23 598.86 557.96 601.79 561.3C606.2 566.32 606.43 568.02 606.43 568.31C606.43 572.67 604.49 573.57 601.58 573.57C600.4 573.57 599.45 573.35 598.76 572.93C596.54 571.58 593.7 573.18 593.7 575.78L593.7 579.94C593.7 585.76 596.26 591.35 600.55 594.9C603.45 597.3 606.64 598.39 609.32 597.87C616.37 596.52 618.75 579.62 618.75 572.13C618.75 566.58 622.48 560.55 624.74 557.41C625.73 559.27 627 561.45 628.32 563.73C628.93 564.78 630.28 565.13 631.33 564.52C632.38 563.91 632.73 562.57 632.12 561.52C630.38 558.51 628.73 555.68 627.75 553.66C627.28 552.68 626.36 552.03 625.29 551.91C624.21 551.79 623.17 552.23 622.5 553.08C620.05 556.16 614.35 564.19 614.35 572.13C614.35 576.67 613.6 582.15 612.38 586.42C610.85 591.77 609.16 593.42 608.49 593.55C607.49 593.75 605.54 593.33 603.35 591.51C600.06 588.79 598.1 584.47 598.1 579.94L598.1 577.44C599.14 577.79 600.3 577.97 601.58 577.97C607.54 577.97 610.82 574.53 610.82 568.31C610.82 563.84 603.97 556.81 595.02 548.08C590.96 544.13 590.93 544.03 590.56 543.65C590.15 543.23 589.59 543 589 543C588.42 543 587.85 543.23 587.44 543.65C586.93 544.17 586.95 544.21 582.99 548.07C574.03 556.81 567.18 563.84 567.18 568.31C567.18 574.54 570.46 577.97 576.42 577.97C577.7 577.97 578.86 577.79 579.9 577.44L579.9 579.94C579.9 584.47 577.94 588.79 574.65 591.51C572.46 593.33 570.51 593.75 569.51 593.55C569.39 593.53 568.31 593.24 566.91 590.07C566.42 588.96 565.13 588.46 564.02 588.95C562.91 589.44 562.4 590.74 562.89 591.85L562.89 591.85Z" />
				<path id="Shape" fill-rule="evenodd" class="shp41" d="M589 591.27C594.06 591.27 598.17 596.47 598.17 602.85C598.17 609.24 594.06 614.43 589 614.43C583.94 614.43 579.83 609.24 579.83 602.85C579.83 596.47 583.94 591.27 589 591.27ZM584.23 602.85C584.23 606.74 586.41 610.03 589 610.03C591.59 610.03 593.77 606.74 593.77 602.85C593.77 598.96 591.59 595.67 589 595.67C586.41 595.67 584.23 598.96 584.23 602.85Z" />
				<path id="Shape" fill-rule="evenodd" class="shp27" d="M589 571.65C585.16 571.65 582.16 567.87 582.16 563.04C582.16 558.21 585.16 554.43 589 554.43C592.84 554.43 595.84 558.21 595.84 563.04C595.84 567.87 592.84 571.65 589 571.65ZM586.55 563.04C586.55 565.45 587.84 567.25 589 567.25C590.16 567.25 591.45 565.45 591.45 563.04C591.45 560.63 590.16 558.83 589 558.83C587.84 558.83 586.55 560.63 586.55 563.04Z" />
			</g>
		</g>
		<text id="Fantasy Icon Set" style="transform: matrix(1,0,0,1,-486,-121)" >
			<tspan x="0" y="0" class="txt42">Fantasy Icon Set</tspan>
		</text>
		<g id="Color Pallet">
			<path id="Oval" class="shp17" d="M454 -139C462.28 -139 469 -145.72 469 -154C469 -162.28 462.28 -169 454 -169C445.72 -169 439 -162.28 439 -154C439 -145.72 445.72 -139 454 -139Z" />
			<path id="Oval" class="shp15" d="M374 -139C382.28 -139 389 -145.72 389 -154C389 -162.28 382.28 -169 374 -169C365.72 -169 359 -162.28 359 -154C359 -145.72 365.72 -139 374 -139Z" />
			<path id="Oval" class="shp13" d="M414 -139C422.28 -139 429 -145.72 429 -154C429 -162.28 422.28 -169 414 -169C405.72 -169 399 -162.28 399 -154C399 -145.72 405.72 -139 414 -139Z" />
			<path id="Oval" class="shp25" d="M534 -139C542.28 -139 549 -145.72 549 -154C549 -162.28 542.28 -169 534 -169C525.72 -169 519 -162.28 519 -154C519 -145.72 525.72 -139 534 -139Z" />
			<path id="Oval" class="shp16" d="M494 -139C502.28 -139 509 -145.72 509 -154C509 -162.28 502.28 -169 494 -169C485.72 -169 479 -162.28 479 -154C479 -145.72 485.72 -139 494 -139Z" />
			<path id="Oval" class="shp22" d="M334 -139C342.28 -139 349 -145.72 349 -154C349 -162.28 342.28 -169 334 -169C325.72 -169 319 -162.28 319 -154C319 -145.72 325.72 -139 334 -139Z" />
			<path id="Oval" class="shp43" d="M614 -139C622.28 -139 629 -145.72 629 -154C629 -162.28 622.28 -169 614 -169C605.72 -169 599 -162.28 599 -154C599 -145.72 605.72 -139 614 -139Z" />
			<path id="Oval" class="shp27" d="M574 -139C582.28 -139 589 -145.72 589 -154C589 -162.28 582.28 -169 574 -169C565.72 -169 559 -162.28 559 -154C559 -145.72 565.72 -139 574 -139Z" />
		</g>
	</g>
</svg>