<svg xmlns="http://www.w3.org/2000/svg" viewBox="0 0 175 175" width="175" height="175">
	<defs>
		<clipPath clipPathUnits="userSpaceOnUse" id="cp1">
			<path d="M-461 -377L1139 -377L1139 823L-461 823Z" />
		</clipPath>
	</defs>
	<style>
		tspan { white-space:pre }
		.shp0 { fill: #ffffff } 
		.shp1 { fill: #ac4eff } 
		.shp2 { fill: #e463ff } 
		.shp3 { fill: #f8e71c } 
		.shp4 { fill: #23f5a5 } 
		.shp5 { fill: #8a64ff } 
		.shp6 { fill: #f831e3 } 
		.shp7 { fill: #c713ef } 
		.shp8 { fill: #5b90ff } 
		.shp9 { fill: #fff35a } 
		.shp10 { fill: #a0fff5 } 
		.shp11 { fill: #ff008b } 
		.shp12 { fill: #ff8edf } 
		.shp13 { fill: #9013fe } 
		.shp14 { fill: #bfdcff } 
		.shp15 { fill: #bd10e0 } 
		.shp16 { fill: #27cedb } 
		.shp17 { fill: #4a90e2 } 
		.shp18 { fill: #6c66ff } 
		.shp19 { fill: #a254ff } 
		.shp20 { fill: #e64ad1 } 
		.shp21 { fill: #ff68f0 } 
		.shp22 { fill: #ff00b6 } 
		.shp23 { fill: #bf00ff } 
		.shp24 { fill: #ff0076 } 
		.shp25 { fill: #50e3c2 } 
		.shp26 { fill: #ff00f5 } 
		.shp27 { fill: #50e38c } 
		.shp28 { fill: #6fd6d9 } 
		.shp29 { fill: #e800ff } 
		.shp30 { fill: #ff0053 } 
		.shp31 { fill: #3c57ff } 
		.shp32 { fill: #0f7cfa } 
		.shp33 { fill: #00ffc6 } 
		.shp34 { fill: #4ef5ff } 
		.shp35 { fill: #2aa7ff } 
		.shp36 { fill: #9210e0 } 
		.shp37 { fill: #ff008f } 
		.shp38 { fill: #f59b23 } 
		.shp39 { fill: #f5c823 } 
		.shp40 { fill: #ffa7e6 } 
		.shp41 { fill: #ffcb74 } 
		.shp42 { fill: #fff683 } 
		.shp43 { fill: #ff0082 } 
		.txt44 { font-size: 100px;fill: #ffffff;font-family: "Leckerli One";font-weight: 400 } 
		.shp45 { fill: #f8c61c } 
	</style>
	<g id="Dribbble Shot" clip-path="url(#cp1)">
		<g id="Wizard Hat">
			<path id="Spacing" class="shp0" d="M514 263L664 263L664 413L514 413L514 263Z" />
			<g id="Icon">
				<path id="Shape" fill-rule="evenodd" class="shp1" d="M663.43 390.81C663.43 395.17 659.92 399.12 653.01 402.52C652.69 402.68 652.36 402.75 652.03 402.75C651.21 402.75 650.43 402.31 650.05 401.53C649.5 400.45 649.95 399.13 651.04 398.59C656.18 396.06 659 393.29 659 390.81C659 387.39 653.45 382.46 638.15 378.45L640 382.91C640.28 383.58 640.2 384.35 639.8 384.96C639.4 385.56 629.49 399.76 588.71 399.76C547.94 399.76 538.03 385.56 537.63 384.96C537.23 384.35 537.15 383.58 537.43 382.91L539.28 378.46C533.21 380.05 528.17 381.94 524.57 383.98C522.27 385.29 518.42 387.9 518.42 390.81C518.42 395.68 528.56 400.21 538.04 402.83C551.55 406.55 569.54 408.61 588.71 408.61C608.51 408.61 627.6 406.33 641.07 402.35C642.24 402 643.47 402.67 643.82 403.83C644.17 404.99 643.5 406.22 642.33 406.56C628.26 410.71 609.22 413 588.71 413C552.49 413 514 405.22 514 390.81C514 386.9 516.82 383.32 522.38 380.17C527.01 377.54 533.4 375.27 541.38 373.41L562.58 322.37C563.04 321.25 564.34 320.72 565.47 321.18C566.6 321.64 567.13 322.93 566.67 324.05L550.38 363.27C557.22 366.43 569.12 369.8 588.71 369.8C608.31 369.8 620.2 366.43 627.05 363.27L623.51 354.74C622.42 352.12 626.51 350.45 627.6 353.06L636.05 373.41C636.07 373.41 636.08 373.41 636.1 373.42C644.27 375.33 650.76 377.67 655.4 380.37C660.73 383.47 663.43 386.99 663.43 390.81ZM635.39 383.35L628.74 367.33C616.43 372.97 600.35 374.2 588.71 374.2C577.08 374.2 561 372.97 548.69 367.33L542.03 383.35C543.16 384.5 545.72 386.7 550.51 388.9C562.17 394.25 577.72 395.37 588.71 395.37C608.99 395.37 620.94 391.73 627.4 388.67C631.91 386.54 634.32 384.46 635.39 383.35Z" />
				<path id="Path" class="shp2" d="M640.01 309.87L615.1 264.15C614.71 263.44 613.96 263 613.15 263L588.76 263C587.86 263 587.05 263.54 586.71 264.36L566.78 312.39C566.32 313.51 566.86 314.8 567.98 315.26C569.11 315.72 570.41 315.19 570.87 314.06L590.24 267.4L611.84 267.4L631.35 303.21L608.75 286.5L610.31 285.02C611.2 284.18 611.23 282.79 610.39 281.91C609.55 281.03 608.15 281 607.26 281.83L600.69 288.2L597.93 281.54C597.46 280.42 596.17 279.88 595.04 280.35C593.91 280.81 593.37 282.1 593.84 283.22L619.39 344.79C620.48 347.4 624.57 345.73 623.48 343.11L602.52 292.6L605.54 289.61L636.75 312.68C637.58 313.3 638.73 313.25 639.51 312.58C640.3 311.9 640.5 310.77 640.01 309.87Z" />
				<path id="Shape" fill-rule="evenodd" class="shp3" d="M603.3 342.54L597.88 347.73L599.16 355.06C599.46 356.8 597.53 358.18 595.94 357.35L589.23 353.9L582.53 357.35C580.93 358.18 579 356.8 579.31 355.06L580.59 347.73L575.16 342.54C573.87 341.3 574.61 339.08 576.39 338.83L583.89 337.76L587.24 331.09C588.04 329.5 590.43 329.5 591.22 331.09L594.58 337.76L602.07 338.83C602.91 338.94 603.6 339.52 603.86 340.31C604.12 341.1 603.91 341.96 603.3 342.54ZM596.98 342.5L592.78 341.9C592.06 341.8 591.43 341.36 591.11 340.71L589.23 336.98L587.35 340.71C587.03 341.36 586.41 341.8 585.68 341.9L581.48 342.5L584.52 345.41C585.05 345.91 585.28 346.63 585.16 347.34L584.44 351.44L588.2 349.5C588.85 349.17 589.62 349.17 590.27 349.5L594.02 351.44L593.3 347.34C593.18 346.63 593.42 345.91 593.94 345.41L596.98 342.5Z" />
			</g>
		</g>
		<g id="Sparkle Smoke">
			<path id="Spacing" class="shp0" d="M264 263L414 263L414 413L264 413L264 263Z" />
			<g id="Icon">
				<path id="Path" class="shp4" d="M377.52 376.02C376.21 376.02 375.16 377.02 375.16 378.26L375.16 384.2C375.16 385.43 376.21 386.44 377.52 386.44C378.82 386.44 379.88 385.43 379.88 384.2L379.88 378.26C379.88 377.02 378.82 376.02 377.52 376.02Z" />
				<path id="Path" class="shp4" d="M377.52 392.17C376.21 392.17 375.16 393.17 375.16 394.41L375.16 400.34C375.16 401.58 376.21 402.58 377.52 402.58C378.82 402.58 379.88 401.58 379.88 400.34L379.88 394.41C379.88 393.17 378.82 392.17 377.52 392.17Z" />
				<path id="Path" class="shp4" d="M388.63 386.96L382.66 386.96C381.41 386.96 380.4 388.01 380.4 389.3C380.4 390.6 381.41 391.65 382.66 391.65L388.63 391.65C389.88 391.65 390.89 390.6 390.89 389.3C390.89 388.01 389.88 386.96 388.63 386.96Z" />
				<path id="Path" class="shp4" d="M372.9 386.96L366.93 386.96C365.68 386.96 364.67 388.01 364.67 389.3C364.67 390.6 365.68 391.65 366.93 391.65L372.9 391.65C374.15 391.65 375.16 390.6 375.16 389.3C375.16 388.01 374.15 386.96 372.9 386.96Z" />
				<path id="Path" class="shp5" d="M368.65 321.82C367.45 321.57 366.27 322.35 366.02 323.55C365.18 327.58 362.47 330.64 357.48 333.2C355.72 334.09 353.74 334.89 351.64 335.6C352.42 334.19 353.02 332.56 353.42 330.65C354.43 325.74 353.46 321.81 350.54 318.97C346.94 315.47 340.53 313.93 331.48 314.4C325.3 314.72 320.07 315.87 319.43 316.01C312.29 317.28 306.18 317.81 300.92 317.81C279.6 317.81 272.52 309.03 270.31 304.56C268.3 300.51 267.93 295.8 269.24 290.95C270.54 286.15 273.47 281.48 277.49 277.81C278.4 276.98 278.46 275.57 277.63 274.66C276.8 273.75 275.39 273.69 274.48 274.52C269.83 278.76 266.44 284.18 264.93 289.79C263.33 295.7 263.8 301.49 266.3 306.53C269.43 312.86 275.56 317.53 284.02 320.04C293.51 322.86 305.7 322.98 320.26 320.39C320.3 320.38 320.34 320.37 320.38 320.37C326.04 319.06 341.95 316.83 347.43 322.16C349.21 323.89 349.74 326.38 349.04 329.75C347.6 336.75 342.58 339.48 330.53 339.8C329.3 339.83 328.32 340.85 328.36 342.08C328.39 343.29 329.38 344.25 330.59 344.25C330.61 344.25 330.63 344.25 330.65 344.25C334.25 344.15 337.81 343.87 341.01 343.07C354.81 340.01 368.04 335.85 370.39 324.45C370.64 323.24 369.86 322.07 368.65 321.82Z" />
				<path id="Path" class="shp6" d="M372.16 295C366.24 294.24 359.63 293.86 352.51 293.86C346.07 293.86 339.64 294.33 333.42 294.79C325.12 295.4 316.6 296.03 311.88 294.91C311.75 294.86 311.62 294.83 311.47 294.8C310.23 294.46 309.28 293.98 308.73 293.32C308.49 293.04 307.78 292.19 308.44 289.71C310.55 281.8 321.02 278.1 329.43 276.38C339.01 274.43 348.19 274.57 348.28 274.58C349.35 274.59 350.3 273.85 350.52 272.81C350.74 271.76 350.17 270.71 349.18 270.3C348.79 270.14 339.6 266.42 326.87 264.33C315.03 262.39 297.81 261.61 283.07 268.87C281.96 269.42 281.51 270.75 282.06 271.85C282.61 272.95 283.96 273.4 285.07 272.85C298.7 266.13 314.88 266.88 326.04 268.7C329.74 269.3 333.15 270.06 336.11 270.82C324.17 272.21 307.37 276.35 304.1 288.58C303.67 290.19 303.57 291.66 303.81 292.97C299.82 291.22 296.56 287.88 296.56 281.28C296.56 280.05 295.55 279.06 294.32 279.06C293.08 279.06 292.08 280.05 292.08 281.28C292.08 294.34 302.25 298.23 310.82 299.2C313.16 299.77 316.01 299.98 319.25 299.98C323.49 299.98 328.4 299.62 333.76 299.22C339.89 298.77 346.23 298.3 352.51 298.3C359.44 298.3 365.86 298.67 371.58 299.41C372.8 299.56 373.93 298.71 374.09 297.49C374.25 296.27 373.38 295.16 372.16 295Z" />
				<path id="Path" class="shp7" d="M410.03 314.34C407.19 309.51 402.81 305.47 397.01 302.33C395.93 301.75 394.57 302.15 393.99 303.22C393.4 304.3 393.8 305.65 394.88 306.23C404.58 311.47 409.49 319.32 409.49 329.55C409.49 340.98 403.38 350.95 393.14 356.2C392.05 356.77 391.62 358.11 392.19 359.19C392.58 359.96 393.36 360.4 394.17 360.4C394.52 360.4 394.87 360.32 395.19 360.15C406.94 354.11 413.96 342.68 413.96 329.55C413.96 323.9 412.64 318.78 410.03 314.34Z" />
				<path id="Path" class="shp8" d="M387.68 360.69C387.4 359.49 386.19 358.75 384.99 359.03C382.11 359.71 379.07 360.05 375.96 360.05C364.71 360.05 354.6 360.05 347.96 363.13C340.86 365.49 332.51 370.7 330.04 378.38C329.66 379.55 330.31 380.8 331.49 381.17C331.71 381.25 331.94 381.28 332.17 381.28C333.12 381.28 334 380.68 334.3 379.73C335.08 377.33 337.05 374.44 340.49 371.86C339.74 375.12 340.1 379.05 341.59 383.77C343.05 388.42 342.73 392.63 340.64 396.27C337.37 401.96 330.5 405.28 326.17 406.88C327.79 399.86 326.81 393.43 323.31 388.47C318.99 382.36 311.19 378.99 301.34 378.99C296.25 378.99 291.8 377.66 288.49 375.14C285.58 372.93 283.6 369.8 282.9 366.33C282.2 362.79 282.84 359.05 284.72 355.8C286.83 352.14 290.4 349.19 295.03 347.29C298.41 345.9 302.33 344.99 307.02 344.52C308.25 344.4 309.15 343.31 309.02 342.08C308.9 340.86 307.8 339.97 306.57 340.09C301.44 340.61 297.1 341.62 293.32 343.17C280.8 348.32 276.86 358.95 278.51 367.19C279.42 371.73 282 375.81 285.77 378.68C289.87 381.79 295.25 383.44 301.34 383.44C309.69 383.44 316.19 386.13 319.64 391.03C322.96 395.73 323.35 402.29 320.72 409.5C320.45 410.26 320.61 411.12 321.16 411.73C321.59 412.21 322.2 412.48 322.83 412.48C323 412.48 323.17 412.46 323.33 412.42C323.95 412.28 338.57 408.82 344.52 398.5C347.26 393.73 347.71 388.33 345.86 382.44C344.07 376.75 344.15 372.69 346.12 370.03C346.99 368.85 348.25 367.92 349.81 367.19C349.82 367.19 349.83 367.19 349.84 367.18C355.61 364.5 365.55 364.5 375.96 364.5C379.42 364.5 382.8 364.12 386.02 363.36C387.22 363.08 387.97 361.88 387.68 360.69Z" />
				<path id="Shape" fill-rule="evenodd" class="shp9" d="M408.71 287.22C408.71 289.42 407.2 291.27 405.02 291.7L399.68 292.78C395.29 293.67 391.87 297.06 390.98 301.42L389.9 306.73C389.46 308.89 387.6 310.4 385.38 310.4C383.16 310.4 381.31 308.89 380.87 306.73L379.78 301.42C378.89 297.06 375.48 293.67 371.09 292.78L365.74 291.7C363.57 291.27 362.05 289.42 362.05 287.22C362.05 285.02 363.57 283.17 365.74 282.73L371.09 281.66C375.48 280.77 378.89 277.38 379.78 273.02L380.87 267.71C381.31 265.55 383.16 264.04 385.38 264.04C387.6 264.04 389.46 265.55 389.9 267.71L390.98 273.02C391.87 277.38 395.29 280.77 399.68 281.66L405.02 282.73C407.2 283.17 408.71 285.02 408.71 287.22ZM404.2 287.12C404.2 287.13 404.18 287.12 404.13 287.11L398.79 286.03C392.62 284.79 387.83 280.03 386.58 273.9L385.5 268.6C385.49 268.55 385.47 268.52 385.47 268.52C385.44 268.5 385.33 268.5 385.29 268.52C385.29 268.52 385.28 268.54 385.27 268.6L384.18 273.9C382.94 280.03 378.14 284.79 371.98 286.03L366.63 287.11C366.59 287.12 366.56 287.13 366.55 287.13C366.53 287.16 366.53 287.28 366.56 287.31C366.56 287.31 366.56 287.31 366.56 287.31C366.57 287.31 366.59 287.32 366.63 287.33L371.98 288.41C378.14 289.65 382.93 294.41 384.18 300.53L385.27 305.84C385.28 305.89 385.29 305.92 385.29 305.92C385.33 305.94 385.44 305.94 385.48 305.92C385.48 305.92 385.49 305.89 385.5 305.84L386.58 300.53C387.83 294.41 392.62 289.65 398.79 288.41L404.13 287.33C404.18 287.32 404.21 287.31 404.21 287.31C404.23 287.28 404.23 287.16 404.2 287.12Z" />
				<path id="Shape" fill-rule="evenodd" class="shp10" d="M342.13 353.89C342.13 356.09 340.61 357.93 338.43 358.37L333.09 359.45C328.7 360.33 325.28 363.72 324.39 368.09L323.31 373.4C322.87 375.55 321.01 377.06 318.79 377.06C316.57 377.06 314.72 375.55 314.28 373.4L313.19 368.09C312.3 363.72 308.89 360.33 304.5 359.45L299.15 358.37C296.98 357.93 295.46 356.09 295.46 353.89C295.46 351.68 296.98 349.84 299.15 349.4L304.5 348.32C308.89 347.44 312.3 344.05 313.19 339.68L314.28 334.38C314.72 332.22 316.57 330.71 318.79 330.71C321.01 330.71 322.87 332.22 323.31 334.38L324.39 339.68C325.28 344.05 328.7 347.44 333.09 348.32L338.43 349.4C340.61 349.84 342.13 351.68 342.13 353.89ZM337.61 353.79C337.62 353.79 337.59 353.78 337.54 353.77L332.2 352.69C326.03 351.45 321.24 346.69 319.99 340.57L318.91 335.26C318.9 335.21 318.88 335.19 318.88 335.18C318.85 335.16 318.74 335.16 318.7 335.19C318.7 335.19 318.69 335.21 318.68 335.26L317.59 340.57C316.34 346.69 311.55 351.45 305.39 352.69L300.04 353.77C300 353.78 299.97 353.79 299.96 353.8C299.94 353.83 299.94 353.94 299.97 353.98C299.97 353.98 299.97 353.98 299.97 353.98C299.98 353.98 300 353.99 300.04 354L305.39 355.07C311.55 356.32 316.34 361.08 317.59 367.2L318.68 372.51C318.69 372.56 318.7 372.58 318.7 372.59C318.74 372.61 318.85 372.61 318.89 372.58C318.89 372.58 318.9 372.56 318.91 372.51L319.99 367.2C321.24 361.08 326.03 356.32 332.2 355.07L337.54 354C337.59 353.99 337.62 353.98 337.62 353.97C337.64 353.94 337.64 353.83 337.61 353.79Z" />
			</g>
		</g>
		<g id="Spell Book">
			<path id="Spacing" class="shp0" d="M764 13L914 13L914 163L764 163L764 13Z" />
			<g id="Icon">
				<path id="Shape" fill-rule="evenodd" class="shp11" d="M911.39 147.5C912.77 147.5 913.89 148.62 913.89 149.99L913.89 159.96C913.89 161.33 912.77 162.45 911.39 162.45L848.94 162.45C847.56 162.45 846.44 161.33 846.44 159.96C846.44 155.83 843.09 152.48 838.95 152.48C834.81 152.48 831.45 155.83 831.45 159.96C831.45 161.33 830.33 162.45 828.95 162.45L766.5 162.45C765.12 162.45 764 161.33 764 159.96L764 149.99C764 148.62 765.12 147.5 766.5 147.5L769 147.5L769 125.08C769 124.38 769.29 123.71 769.81 123.24C770.34 122.77 771.03 122.54 771.73 122.61C817.99 127 833.73 135.39 837.22 137.65C837.8 137.61 838.34 137.54 838.95 137.54C839.56 137.54 840.09 137.61 840.67 137.65C844.16 135.39 859.9 127 906.16 122.61C906.86 122.54 907.56 122.77 908.08 123.24C908.6 123.71 908.9 124.38 908.9 125.08L908.9 147.5L911.39 147.5ZM848.4 139.26C852.4 140.88 855.75 143.78 857.92 147.5L903.9 147.5L903.9 142.52L873.92 142.52L873.92 137.54L903.9 137.54L903.9 127.82C871.94 131.06 855.78 136.12 848.4 139.26ZM773.99 147.5L819.97 147.5C822.13 143.8 825.45 140.91 829.42 139.28C821.94 136.12 805.67 131.02 773.99 127.82L773.99 137.54L803.97 137.54L803.97 142.52L773.99 142.52L773.99 147.5ZM783.99 157.46L783.99 152.48L769 152.48L769 157.46L783.99 157.46ZM851.19 157.46L888.91 157.46L888.91 152.48L856.43 152.48C855.48 152.49 854.61 151.95 854.19 151.11C851.34 145.41 846.21 142.52 838.95 142.52C831.68 142.52 826.55 145.41 823.69 151.11C823.27 151.95 822.41 152.48 821.46 152.48L788.98 152.48L788.98 157.46L826.71 157.46C827.9 151.67 833.01 147.51 838.95 147.5C844.88 147.51 849.99 151.67 851.19 157.46ZM908.9 152.48L893.91 152.48L893.91 157.46L908.9 157.46L908.9 152.48Z" />
				<path id="Path" class="shp12" d="M864.3 137.54L869.31 137.54L869.31 142.52L864.3 142.52L864.3 137.54Z" />
				<path id="Shape" fill-rule="evenodd" class="shp13" d="M821.47 16.83C818.41 25.87 818.4 39.39 845.7 63.86C853.11 70.52 856.54 77.72 855.86 85.25C854.55 99.66 838.54 109.63 837.86 110.05C836.95 110.6 835.8 110.52 834.98 109.85C834.16 109.18 833.85 108.06 834.22 107.07C834.32 106.78 837.68 95.42 814.96 75.02C806.54 67.47 802.15 58.73 801.9 49.06C801.42 30.31 816.7 14.92 817.35 14.28C818.17 13.46 819.44 13.32 820.42 13.93C821.4 14.54 821.84 15.74 821.47 16.83ZM842.35 67.57C824.06 51.15 815.33 37.58 815.17 24.86C811.19 30.67 806.62 39.46 806.87 48.96C807.08 57.2 810.92 64.73 818.28 71.33C834.54 85.93 838.66 96.61 839.36 102.8C843.76 99.17 850.18 92.61 850.88 84.81C851.41 78.92 848.54 73.13 842.35 67.57L842.35 67.57Z" />
				<path id="Shape" fill-rule="evenodd" class="shp13" d="M849.82 38.56C863.88 27.65 863.28 20.7 861.61 16.41C861.19 15.35 861.55 14.15 862.47 13.48C863.39 12.81 864.65 12.84 865.54 13.56C866.04 13.96 877.78 23.58 877.67 34.53C877.5 39.74 874.85 44.56 870.53 47.51C858.31 57 858.88 62.55 858.88 62.6C859.1 63.57 858.71 64.58 857.89 65.14C857.48 65.43 856.99 65.59 856.49 65.58C856 65.58 855.52 65.44 855.1 65.19C854.65 64.92 844.19 58.51 843.68 49.93C843.64 45.34 845.95 41.05 849.82 38.56ZM867.36 22.55C866.58 29.02 861.8 35.61 852.92 42.5C850.4 44.01 848.81 46.69 848.71 49.62C848.91 53.02 851.95 56.38 854.61 58.63C855.9 55.13 859.21 49.95 867.44 43.56C870.54 41.54 872.47 38.16 872.65 34.48C872.25 30.04 870.39 25.84 867.36 22.55L867.36 22.55Z" />
				<path id="Path" class="shp14" d="M839.22 80.53L844.24 80.53L844.24 85.51L839.22 85.51L839.22 80.53Z" />
				<path id="Path" class="shp14" d="M831.42 73.33L836.44 73.33L836.44 78.31L831.42 78.31L831.42 73.33Z" />
				<path id="Shape" fill-rule="evenodd" class="shp15" d="M879.07 78.31C883.22 78.31 886.59 74.97 886.59 70.84C886.59 69.47 887.71 68.35 889.1 68.35C890.48 68.35 891.6 69.47 891.6 70.84C891.6 74.97 894.97 78.31 899.13 78.31C900.51 78.31 901.63 79.43 901.63 80.8C901.63 82.18 900.51 83.3 899.13 83.3C894.97 83.3 891.6 86.64 891.6 90.77C891.6 92.14 890.48 93.26 889.1 93.26C887.71 93.26 886.59 92.14 886.59 90.77C886.59 86.64 883.22 83.3 879.07 83.3C877.68 83.3 876.56 82.18 876.56 80.8C876.56 79.43 877.68 78.31 879.07 78.31ZM889.1 78.24C888.37 79.21 887.49 80.08 886.51 80.8C887.49 81.53 888.37 82.4 889.1 83.37C889.83 82.4 890.7 81.53 891.68 80.8C890.7 80.08 889.83 79.21 889.1 78.24Z" />
				<path id="Shape" fill-rule="evenodd" class="shp15" d="M796.6 102.67C800.75 102.67 804.12 99.32 804.12 95.2C804.12 93.82 805.24 92.7 806.63 92.7C808.01 92.7 809.13 93.82 809.13 95.2C809.13 99.32 812.5 102.67 816.66 102.67C818.04 102.67 819.16 103.78 819.16 105.16C819.16 106.53 818.04 107.65 816.66 107.65C812.5 107.65 809.13 111 809.13 115.12C809.13 116.5 808.01 117.61 806.63 117.61C805.24 117.61 804.12 116.5 804.12 115.12C804.12 111 800.75 107.65 796.6 107.65C795.21 107.65 794.09 106.53 794.09 105.16C794.09 103.78 795.21 102.67 796.6 102.67ZM804.04 105.16C805.03 105.88 805.9 106.75 806.63 107.73C807.36 106.75 808.23 105.88 809.21 105.16C808.23 104.43 807.36 103.57 806.63 102.59C805.9 103.57 805.03 104.43 804.04 105.16Z" />
				<path id="Shape" fill-rule="evenodd" class="shp15" d="M851.48 26.01C851.48 27.38 850.36 28.5 848.98 28.5C844.82 28.5 841.45 31.84 841.45 35.97C841.45 37.35 840.33 38.46 838.95 38.46C837.56 38.46 836.44 37.35 836.44 35.97C836.44 31.84 833.07 28.5 828.92 28.5C827.53 28.5 826.41 27.38 826.41 26.01C826.41 24.63 827.53 23.52 828.92 23.52C833.07 23.52 836.44 20.17 836.44 16.04C836.44 14.67 837.56 13.55 838.95 13.55C840.33 13.55 841.45 14.67 841.45 16.04C841.45 20.17 844.82 23.52 848.98 23.52C850.36 23.52 851.48 24.63 851.48 26.01ZM841.53 26.01C840.55 25.28 839.68 24.42 838.95 23.44C838.22 24.42 837.34 25.28 836.36 26.01C837.34 26.73 838.22 27.6 838.95 28.57C839.68 27.6 840.55 26.73 841.53 26.01Z" />
				<path id="Path" class="shp14" d="M866.53 60.6L871.54 60.6L871.54 65.58L866.53 65.58L866.53 60.6Z" />
				<path id="Path" class="shp14" d="M866.53 93.26L871.54 93.26L871.54 98.24L866.53 98.24L866.53 93.26Z" />
				<path id="Path" class="shp14" d="M801.33 80.53L806.35 80.53L806.35 85.51L801.33 85.51L801.33 80.53Z" />
				<path id="Path" class="shp14" d="M826.41 117.61L831.42 117.61L831.42 122.59L826.41 122.59L826.41 117.61Z" />
				<path id="Path" class="shp14" d="M779.04 105.44L784.06 105.44L784.06 110.42L779.04 110.42L779.04 105.44Z" />
				<path id="Shape" fill-rule="evenodd" class="shp16" d="M856.78 105.44C860.93 105.44 864.3 108.78 864.3 112.91C864.3 117.03 860.93 120.38 856.78 120.38C852.62 120.38 849.25 117.03 849.25 112.91C849.25 108.78 852.62 105.44 856.78 105.44ZM856.78 110.42C855.39 110.42 854.27 111.53 854.27 112.91C854.27 114.28 855.39 115.4 856.78 115.4C858.16 115.4 859.28 114.28 859.28 112.91C859.28 111.53 858.16 110.42 856.78 110.42Z" />
				<path id="Shape" fill-rule="evenodd" class="shp16" d="M796.32 70.84C796.32 74.97 792.95 78.31 788.8 78.31C784.64 78.31 781.27 74.97 781.27 70.84C781.27 66.71 784.64 63.37 788.8 63.37C792.95 63.37 796.32 66.71 796.32 70.84ZM791.3 70.84C791.3 69.47 790.18 68.35 788.8 68.35C787.41 68.35 786.29 69.47 786.29 70.84C786.29 72.22 787.41 73.33 788.8 73.33C790.18 73.33 791.3 72.22 791.3 70.84Z" />
				<path id="Shape" fill-rule="evenodd" class="shp16" d="M884.36 45.93C884.36 41.81 887.73 38.46 891.88 38.46C896.04 38.46 899.4 41.81 899.4 45.93C899.4 50.06 896.04 53.41 891.88 53.41C887.73 53.41 884.36 50.06 884.36 45.93ZM889.37 45.93C889.37 47.31 890.5 48.42 891.88 48.42C893.27 48.42 894.39 47.31 894.39 45.93C894.39 44.56 893.27 43.44 891.88 43.44C890.5 43.44 889.37 44.56 889.37 45.93Z" />
			</g>
		</g>
		<g id="Crystal Ball">
			<path id="Spacing" class="shp0" d="M264 13L414 13L414 163L264 163L264 13Z" />
			<g id="Icon">
				<path id="Shape" fill-rule="evenodd" class="shp17" d="M372.61 133.21L304.75 133.21C304.27 133.21 303.8 133.07 303.39 132.81C284.74 120.74 273.61 100.29 273.61 78.11C273.61 42.21 302.8 13 338.68 13C374.56 13 403.75 42.21 403.75 78.11C403.75 100.29 392.62 120.74 373.97 132.81C373.56 133.07 373.1 133.21 372.61 133.21ZM305.5 128.2L371.86 128.2C388.71 117.01 398.75 98.34 398.75 78.11C398.75 44.97 371.8 18.01 338.68 18.01C305.56 18.01 278.62 44.97 278.62 78.11C278.62 98.34 288.65 117.01 305.5 128.2Z" />
				<path id="Shape" fill-rule="evenodd" class="shp18" d="M295.98 143.14C294.6 143.14 293.47 142.01 293.47 140.61L293.47 130.51C293.47 129.11 294.6 127.98 295.98 127.98L381.38 127.98C382.77 127.98 383.89 129.11 383.89 130.51L383.89 140.61C383.89 142.01 382.77 143.14 381.38 143.14L295.98 143.14ZM298.5 138.09L378.87 138.09L378.87 133.03L298.5 133.03L298.5 138.09Z" />
				<path id="Shape" fill-rule="evenodd" class="shp19" d="M393.92 153.07L283.44 153.07C282.06 153.07 280.93 151.94 280.93 150.54L280.93 145.52C280.93 141.33 284.32 137.91 288.49 137.91L388.9 137.91C393.05 137.91 396.44 141.31 396.44 145.5L396.44 150.54C396.44 151.94 395.31 153.07 393.92 153.07ZM285.95 148.02L391.41 148.02L391.41 145.5C391.41 144.1 390.29 142.97 388.9 142.97L288.49 142.97C287.09 142.97 285.95 144.11 285.95 145.52L285.95 148.02Z" />
				<path id="Shape" fill-rule="evenodd" class="shp20" d="M403.86 163L273.51 163C272.12 163 271 161.87 271 160.47L271 150.37C271 148.97 272.12 147.84 273.51 147.84L403.86 147.84C405.24 147.84 406.37 148.97 406.37 150.37L406.37 160.47C406.37 161.87 405.24 163 403.86 163ZM276.01 157.95L401.35 157.95L401.35 152.9L276.01 152.9L276.01 157.95Z" />
				<path id="Path" class="shp21" d="M311.13 40.7C310.34 40.7 309.56 40.33 309.08 39.62C308.29 38.49 308.57 36.92 309.7 36.13C317.27 30.82 326.99 28.22 338.55 28.16C339.92 28.16 341.04 29.28 341.03 30.67C341.03 32.06 339.92 33.17 338.54 33.17C338.51 33.17 338.47 33.17 338.43 33.17C327.95 33.17 319.25 35.55 312.55 40.25C312.11 40.55 311.62 40.7 311.13 40.7Z" />
				<path id="Path" class="shp21" d="M291.28 80.42C289.89 80.42 288.77 79.31 288.77 77.94C288.77 67.89 291.22 59.8 296.72 51.72C297.5 50.59 299.06 50.29 300.21 51.05C301.36 51.82 301.66 53.36 300.88 54.5C295.97 61.71 293.78 68.94 293.79 77.94C293.79 79.31 292.66 80.42 291.28 80.42Z" />
				<g id="Sparkles">
					<path id="Shape" fill-rule="evenodd" class="shp16" d="M371.35 73.15L360.37 62.17L371.35 51.2L382.32 62.17L371.35 73.15ZM367.4 62.17L371.35 66.12L375.29 62.17L371.35 58.23L367.4 62.17Z" />
					<path id="Path" class="shp16" d="M371.35 56.95C369.91 56.95 368.74 55.84 368.74 54.46L368.74 49.5C368.74 48.13 369.91 47.02 371.35 47.02C372.79 47.02 373.96 48.13 373.96 49.5L373.96 54.46C373.96 55.84 372.79 56.95 371.35 56.95Z" />
					<path id="Path" class="shp16" d="M383.5 64.79L378.54 64.79C377.16 64.79 376.05 63.62 376.05 62.17C376.05 60.73 377.16 59.56 378.54 59.56L383.5 59.56C384.87 59.56 385.98 60.73 385.98 62.17C385.98 63.62 384.87 64.79 383.5 64.79Z" />
					<path id="Path" class="shp16" d="M371.35 76.81C369.91 76.81 368.74 75.7 368.74 74.33L368.74 69.36C368.74 67.99 369.91 66.88 371.35 66.88C372.79 66.88 373.96 67.99 373.96 69.36L373.96 74.33C373.96 75.7 372.79 76.81 371.35 76.81Z" />
					<path id="Path" class="shp16" d="M363.64 64.79L358.67 64.79C357.3 64.79 356.19 63.62 356.19 62.17C356.19 60.73 357.3 59.56 358.67 59.56L363.64 59.56C365.01 59.56 366.12 60.73 366.12 62.17C366.12 63.62 365.01 64.79 363.64 64.79Z" />
					<path id="Shape" fill-rule="evenodd" class="shp16" d="M338.42 112.87L327.45 101.89L338.42 90.92L349.4 101.89L338.42 112.87ZM334.48 101.89L338.42 105.84L342.37 101.89L338.42 97.95L334.48 101.89Z" />
					<path id="Path" class="shp16" d="M338.42 97.19C336.98 97.19 335.81 96.08 335.81 94.71L335.81 89.74C335.81 88.37 336.98 87.26 338.42 87.26C339.86 87.26 341.03 88.37 341.03 89.74L341.03 94.71C341.03 96.08 339.86 97.19 338.42 97.19L338.42 97.19Z" />
					<path id="Path" class="shp16" d="M351.1 104.51L346.13 104.51C344.76 104.51 343.65 103.34 343.65 101.89C343.65 100.45 344.76 99.28 346.13 99.28L351.1 99.28C352.47 99.28 353.58 100.45 353.58 101.89C353.58 103.34 352.47 104.51 351.1 104.51L351.1 104.51Z" />
					<path id="Path" class="shp16" d="M338.42 117.05C336.98 117.05 335.81 115.94 335.81 114.57L335.81 109.61C335.81 108.23 336.98 107.12 338.42 107.12C339.86 107.12 341.03 108.23 341.03 109.61L341.03 114.57C341.03 115.94 339.86 117.05 338.42 117.05L338.42 117.05Z" />
					<path id="Path" class="shp16" d="M331.24 104.51L326.27 104.51C324.9 104.51 323.79 103.34 323.79 101.89C323.79 100.45 324.9 99.28 326.27 99.28L331.24 99.28C332.61 99.28 333.72 100.45 333.72 101.89C333.72 103.34 332.61 104.51 331.24 104.51Z" />
				</g>
			</g>
		</g>
		<g id="Crystal Cluster">
			<path id="Spacing" class="shp0" d="M514 13L664 13L664 163L514 163L514 13Z" />
			<g id="Icon">
				<path id="Shape" fill-rule="evenodd" class="shp22" d="M663.41 110.52C663.39 110.62 663.36 110.7 663.33 110.8C663.26 111.04 663.17 111.26 663.03 111.47C663 111.52 663 111.58 662.96 111.63L628.58 157.46L633.56 157.46L633.56 162.44L523.96 162.44L523.96 157.46L530.35 157.46L514.14 113.49C514.06 113.25 514.06 113.01 514.05 112.77C514.04 112.64 513.99 112.52 514 112.4C514.04 112.03 514.15 111.67 514.35 111.34L536.77 73.98C537.14 73.36 537.77 72.93 538.48 72.81C539.2 72.69 539.93 72.88 540.49 73.35L560.71 90.2L556.34 35.61C556.33 35.47 556.35 35.33 556.37 35.19C556.37 35.15 556.35 35.11 556.36 35.07C556.36 35.06 556.37 35.05 556.38 35.03C556.42 34.73 556.53 34.44 556.69 34.18C556.72 34.12 556.76 34.07 556.79 34.01C556.97 33.76 557.18 33.52 557.45 33.34L587.34 13.42C588.13 12.89 589.15 12.86 589.98 13.34L619.87 30.77C620.17 30.95 620.4 31.19 620.6 31.46C620.65 31.52 620.69 31.58 620.73 31.64C620.9 31.93 621.02 32.23 621.07 32.57C621.07 32.58 621.08 32.59 621.08 32.61C621.09 32.65 621.07 32.68 621.07 32.72C621.09 32.88 621.11 33.05 621.09 33.22L612.24 108.47L618.84 94.15C618.86 94.11 618.91 94.09 618.93 94.05C619.1 93.73 619.31 93.43 619.61 93.2L649.51 70.79C650.17 70.29 651.04 70.16 651.82 70.42C652.6 70.7 653.2 71.34 653.41 72.14L663.37 109.5C663.46 109.84 663.46 110.18 663.41 110.52ZM624.21 95.99L633.26 115.92L645.94 79.69L624.21 95.99ZM562.55 35.93L574.93 50.36L597.66 50.36L614.57 33.45L588.82 18.43L562.55 35.93ZM541.71 80.85L543.63 115.4L564.74 100.05L562.08 97.82C562.08 97.82 562.08 97.82 562.08 97.82L541.71 80.85ZM520.27 111.17L538.71 116.7L536.87 83.51L520.27 111.17ZM552.75 157.46L539.5 122.13L520.55 116.45L535.66 157.46L552.75 157.46ZM566.31 105.07L544.39 121L558.07 157.46L566.31 157.46L566.31 105.07ZM578.58 157.46L571.36 53.85L561.93 42.85L566.07 94.67L570.39 98.26C570.68 98.51 570.9 98.81 571.06 99.14C571.11 99.26 571.1 99.39 571.14 99.51C571.2 99.73 571.29 99.94 571.29 100.18L571.29 157.46L578.58 157.46ZM596.02 55.35L576.45 55.35L583.58 157.46L588.9 157.46L596.02 55.35ZM594.65 146.58L605.51 123.05L615.3 39.76L601.11 53.96L594.65 146.58ZM595.11 157.46L612.14 157.46L630.79 122.51L621.09 101.18L610.2 124.78L610.2 124.79L595.11 157.46ZM653.13 116.44L635.37 124.51L617.79 157.46L622.35 157.46L653.13 116.44ZM658.02 108.75L650.68 81.24L637.84 117.91L658.02 108.75Z" />
				<path id="Shape" fill-rule="evenodd" class="shp23" d="M544 28C544 29.38 542.88 30.5 541.5 30.5C535.98 30.5 531.5 34.98 531.5 40.5C531.5 41.88 530.38 43 529 43C527.62 43 526.5 41.88 526.5 40.5C526.5 34.98 522.01 30.5 516.5 30.5C515.12 30.5 514 29.38 514 28C514 26.62 515.12 25.5 516.5 25.5C522.01 25.5 526.5 21.01 526.5 15.5C526.5 14.12 527.62 13 529 13C530.38 13 531.5 14.12 531.5 15.5C531.5 21.01 535.98 25.5 541.5 25.5C542.88 25.5 544 26.62 544 28ZM533.22 28C531.55 26.89 530.11 25.45 529 23.78C527.89 25.45 526.45 26.89 524.78 28C526.45 29.11 527.89 30.55 529 32.22C530.11 30.55 531.55 29.11 533.22 28Z" />
				<path id="Shape" fill-rule="evenodd" class="shp23" d="M658.44 48C658.44 49.38 657.32 50.5 655.94 50.5C650.43 50.5 645.94 54.98 645.94 60.5C645.94 61.88 644.82 63 643.44 63C642.06 63 640.94 61.88 640.94 60.5C640.94 54.98 636.46 50.5 630.94 50.5C629.56 50.5 628.44 49.38 628.44 48C628.44 46.62 629.56 45.5 630.94 45.5C636.46 45.5 640.94 41.01 640.94 35.5C640.94 34.12 642.06 33 643.44 33C644.82 33 645.94 34.12 645.94 35.5C645.94 41.01 650.43 45.5 655.94 45.5C657.32 45.5 658.44 46.62 658.44 48ZM647.66 48C645.99 46.89 644.55 45.45 643.44 43.78C642.33 45.45 640.9 46.89 639.23 48C640.9 49.11 642.33 50.55 643.44 52.22C644.56 50.55 645.99 49.11 647.66 48Z" />
				<path id="Rectangle" class="shp24" d="M638.44 157.44L643.44 157.44L643.44 162.44L638.44 162.44L638.44 157.44Z" />
				<path id="Rectangle" class="shp24" d="M648.44 157.44L653.44 157.44L653.44 162.44L648.44 162.44L648.44 157.44Z" />
			</g>
		</g>
		<g id="Round Potion">
			<path id="Spacing" class="shp0" d="M-236 513L-86 513L-86 663L-236 663L-236 513Z" />
			<g id="Icon">
				<path id="Shape" fill-rule="evenodd" class="shp25" d="M-179.97 567.21L-179.97 550.5C-184.09 550.5 -187.45 547.14 -187.45 543C-187.45 538.87 -184.09 535.5 -179.97 535.5L-175.59 535.5L-178.56 522.13C-179.05 519.9 -178.52 517.59 -177.09 515.81C-175.66 514.02 -173.53 513 -171.25 513L-148.75 513C-146.47 513 -144.34 514.02 -142.91 515.81C-141.48 517.59 -140.95 519.89 -141.44 522.13L-144.41 535.5L-140.03 535.5C-135.91 535.5 -132.55 538.86 -132.55 543C-132.55 547.13 -135.91 550.5 -140.03 550.5L-140.03 567.21C-121.79 575.18 -110.09 592.97 -110.09 613C-110.09 640.57 -132.48 663 -160 663C-187.52 663 -209.91 640.57 -209.91 613C-209.91 592.97 -198.21 575.18 -179.97 567.21ZM-160 658C-135.23 658 -115.08 637.81 -115.08 613C-115.08 612.07 -115.13 611.14 -115.18 610.22L-118.01 611.71C-124.73 615.25 -132.04 617.02 -139.35 617.02C-147.09 617.02 -154.81 615.04 -161.8 611.1C-173.24 604.65 -187.18 604.13 -199.07 609.69L-204.9 612.41C-204.9 612.61 -204.92 612.8 -204.92 613C-204.92 637.81 -184.77 658 -160 658ZM-115.83 604.91C-115.85 604.79 -115.87 604.67 -115.9 604.54C-117.44 604.28 -119.08 604.17 -121.55 604.03C-128.16 603.65 -134.67 606.13 -139.43 610.85L-140.57 611.98C-133.66 612.19 -126.7 610.64 -120.34 607.29L-115.83 604.91ZM-170.48 535.5L-149.53 535.5L-146.32 521.04C-146.15 520.3 -146.33 519.53 -146.81 518.94C-147.28 518.34 -147.99 518 -148.75 518L-171.25 518C-172.01 518 -172.72 518.34 -173.19 518.94C-173.67 519.53 -173.85 520.3 -173.68 521.04L-170.48 535.5ZM-182.46 543C-182.46 544.38 -181.34 545.5 -179.97 545.5L-140.03 545.5C-138.66 545.5 -137.54 544.38 -137.54 543C-137.54 541.62 -138.66 540.5 -140.03 540.5L-179.97 540.5C-181.34 540.5 -182.46 541.62 -182.46 543ZM-166.94 550.5L-165.44 558L-154.56 558L-153.06 550.5L-166.94 550.5ZM-176.55 571.19C-191.8 577.26 -202.26 590.81 -204.47 606.7L-201.18 605.16C-187.83 598.92 -172.2 599.51 -159.36 606.75C-155.43 608.96 -151.25 610.46 -146.97 611.28L-142.94 607.3C-137.17 601.57 -129.25 598.55 -121.26 599.04C-119.74 599.13 -118.43 599.21 -117.19 599.33C-121.18 586.7 -130.62 576.3 -143.45 571.19C-144.4 570.82 -145.03 569.89 -145.03 568.87L-145.03 550.5L-147.97 550.5L-150.07 560.99C-150.3 562.16 -151.32 563 -152.51 563L-167.49 563C-168.68 563 -169.7 562.16 -169.94 560.99L-172.03 550.5L-174.97 550.5L-174.97 568.87C-174.97 569.89 -175.6 570.82 -176.55 571.19Z" />
				<path id="Shape" fill-rule="evenodd" class="shp15" d="M-117.4 548.02C-111.93 548.02 -107.47 552.47 -107.47 557.95C-107.47 563.42 -111.93 567.88 -117.4 567.88C-122.88 567.88 -127.33 563.42 -127.33 557.95C-127.33 552.47 -122.88 548.02 -117.4 548.02ZM-122.37 557.95C-122.37 560.69 -120.14 562.91 -117.4 562.91C-114.67 562.91 -112.44 560.69 -112.44 557.95C-112.44 555.21 -114.67 552.98 -117.4 552.98C-120.14 552.98 -122.37 555.21 -122.37 557.95Z" />
				<path id="Shape" fill-rule="evenodd" class="shp17" d="M-100.16 513C-93.24 513 -87.61 518.63 -87.61 525.54C-87.61 532.46 -93.24 538.09 -100.16 538.09C-107.07 538.09 -112.7 532.46 -112.7 525.54C-112.7 518.63 -107.07 513 -100.16 513ZM-107.68 525.54C-107.68 529.69 -104.31 533.07 -100.16 533.07C-96.01 533.07 -92.63 529.69 -92.63 525.54C-92.63 521.39 -96.01 518.02 -100.16 518.02C-104.31 518.02 -107.68 521.39 -107.68 525.54Z" />
				<path id="Shape" fill-rule="evenodd" class="shp26" d="M-194.76 545.4C-194.76 550.88 -199.21 555.33 -204.69 555.33C-210.16 555.33 -214.62 550.88 -214.62 545.4C-214.62 539.93 -210.16 535.47 -204.69 535.47C-199.21 535.47 -194.76 539.93 -194.76 545.4ZM-199.72 545.4C-199.72 542.67 -201.95 540.44 -204.69 540.44C-207.42 540.44 -209.65 542.67 -209.65 545.4C-209.65 548.14 -207.42 550.37 -204.69 550.37C-201.95 550.37 -199.72 548.14 -199.72 545.4Z" />
				<path id="Shape" fill-rule="evenodd" class="shp27" d="M-227.42 590.35C-231.6 590.35 -235 586.95 -235 582.77C-235 578.6 -231.6 575.2 -227.42 575.2C-223.24 575.2 -219.84 578.6 -219.84 582.77C-219.84 586.95 -223.24 590.35 -227.42 590.35ZM-227.42 585.3C-226.03 585.3 -224.9 584.17 -224.9 582.77C-224.9 581.38 -226.03 580.25 -227.42 580.25C-228.82 580.25 -229.95 581.38 -229.95 582.77C-229.95 584.17 -228.82 585.3 -227.42 585.3Z" />
				<path id="Path" class="shp3" d="M-191.77 599.24C-187.55 589.51 -179.3 582.31 -169.15 579.49L-170.47 574.67C-182.07 577.9 -191.49 586.12 -196.32 597.23L-191.77 599.24Z" />
			</g>
		</g>
		<g id="Jem">
			<g id="Icon">
				<path id="Shape" fill-rule="evenodd" class="shp15" d="M163.75 15.02C163.92 15.41 164 15.84 164 16.26L164 68.43C164 68.87 163.91 69.3 163.75 69.69C163.58 70.09 163.34 70.44 163.04 70.74L71.74 162.04C71.45 162.34 71.09 162.58 70.69 162.75C70.3 162.91 69.87 163 69.43 163L17.26 163C16.84 163 16.41 162.92 16.02 162.75C15.22 162.42 14.58 161.78 14.25 160.98C14.08 160.59 14 160.16 14 159.74L14 107.57C14 107.13 14.09 106.7 14.25 106.31C14.42 105.91 14.66 105.56 14.96 105.26L106.26 13.96C106.55 13.66 106.91 13.42 107.31 13.25C107.7 13.09 108.13 13 108.57 13L160.74 13C161.16 13 161.59 13.08 161.98 13.25C162.78 13.58 163.42 14.22 163.75 15.02ZM157.48 24.13L144.43 37.18L144.43 61.91C144.43 62.78 144.09 63.61 143.48 64.22L142.52 65.17L157.48 65.17L157.48 24.13ZM20.52 151.87L33.57 138.82L33.57 114.09C33.57 113.22 33.91 112.39 34.52 111.78L35.48 110.83L20.52 110.83L20.52 151.87ZM132.34 66.14C132.34 66.13 137.91 60.57 137.91 60.56L137.91 39.09L116.44 39.09L40.09 115.44L40.09 136.91L61.56 136.91C61.57 136.91 132.34 66.14 132.34 66.14ZM152.87 19.52L111.83 19.52L111.83 34.48L112.78 33.52C113.39 32.91 114.22 32.57 115.09 32.57L139.82 32.57L152.87 19.52ZM105.3 24.13L25.13 104.3L42 104.3L105.3 41L105.3 24.13ZM25.13 156.48L66.17 156.48L66.17 141.52L65.22 142.48C64.61 143.09 63.78 143.43 62.91 143.43L38.18 143.43L25.13 156.48ZM72.7 151.87L152.87 71.7L136 71.7L72.7 135L72.7 151.87Z" />
			</g>
		</g>
		<g id="Pestle And Morter">
			<path id="Spacing" class="shp0" d="M-236 263L-86 263L-86 413L-236 413L-236 263Z" />
			<g id="Icon">
				<path id="Path" class="shp14" d="M-166.99 383.83C-168.57 383.83 -169.85 385.12 -169.85 386.7C-169.85 388.28 -168.57 389.56 -166.99 389.56C-165.41 389.56 -164.13 388.28 -164.13 386.7C-164.13 385.12 -165.41 383.83 -166.99 383.83Z" />
				<path id="Shape" fill-rule="evenodd" class="shp28" d="M-86.52 340.96C-86.52 345.87 -89.57 350.24 -94.12 351.91C-94.29 373.71 -108.54 392.76 -129.15 399.1L-129.15 404.22C-129.15 409.06 -133.08 413 -137.91 413L-184.62 413C-189.45 413 -193.38 409.06 -193.38 404.22L-193.38 399.1C-213.99 392.76 -228.23 373.71 -228.4 351.91C-232.96 350.24 -236 345.87 -236 340.96C-236 334.51 -230.76 329.25 -224.32 329.25L-167.32 329.25L-119.79 288.91C-121.22 285.68 -120.63 281.76 -117.99 279.12C-114.52 275.65 -109 275.72 -105.61 279.11L-89.09 295.68C-85.67 299.11 -85.67 304.67 -89.09 308.1C-91.76 310.79 -95.68 311.34 -98.86 309.91L-115.17 329.25L-98.2 329.25C-91.76 329.25 -86.52 334.51 -86.52 340.96ZM-113.86 287.4C-113.86 287.4 -113.86 287.4 -113.86 287.4C-113.86 287.4 -97.34 303.96 -97.34 303.96C-97.34 303.96 -97.34 303.96 -97.34 303.97C-96.21 305.11 -94.35 305.11 -93.22 303.97C-92.06 302.8 -92.09 300.95 -93.22 299.82L-109.73 283.26C-110.87 282.12 -112.71 282.1 -113.86 283.26C-115 284.4 -115 286.26 -113.86 287.4ZM-158.28 329.25L-122.82 329.25L-103.37 306.2L-116.09 293.44L-158.28 329.25ZM-134.99 404.22L-134.99 400.51C-137.87 401.02 -140.8 401.29 -143.74 401.29L-178.78 401.29C-181.72 401.29 -184.66 401.02 -187.54 400.51L-187.54 404.22C-187.54 405.83 -186.23 407.14 -184.62 407.14L-137.91 407.14C-136.3 407.14 -134.99 405.83 -134.99 404.22ZM-99.97 352.65L-222.55 352.65C-222.04 372.21 -208.69 389.16 -189.73 394.05C-186.17 394.96 -182.49 395.43 -178.78 395.43L-143.74 395.43C-140.04 395.43 -136.35 394.96 -132.79 394.05C-113.83 389.16 -100.48 372.21 -99.97 352.65ZM-92.36 340.96C-92.36 337.74 -94.98 335.11 -98.2 335.11L-224.32 335.11C-227.54 335.11 -230.16 337.74 -230.16 340.96C-230.16 344.33 -227.39 346.82 -224.32 346.82L-98.2 346.82C-97.52 346.82 -96.93 346.72 -96.31 346.48C-96.28 346.47 -96.26 346.46 -96.23 346.45C-93.92 345.65 -92.36 343.45 -92.36 340.96Z" />
				<path id="Path" class="shp14" d="M-178.52 383.73C-192.16 383.73 -204.38 375.13 -208.95 362.34C-209.49 360.82 -211.16 360.03 -212.69 360.56C-214.22 361.1 -215.02 362.77 -214.48 364.29C-209.09 379.41 -194.64 389.56 -178.52 389.56C-176.9 389.56 -175.58 388.26 -175.58 386.65C-175.58 385.03 -176.9 383.73 -178.52 383.73Z" />
				<path id="Shape" fill-rule="evenodd" class="shp27" d="M-164.98 314.75C-166.12 315.89 -167.97 315.89 -169.11 314.75L-174.1 309.76L-184.58 309.76C-202.31 309.76 -216.73 295.34 -216.73 277.61L-216.73 265.92C-216.73 264.31 -215.42 263 -213.81 263L-202.12 263C-184.39 263 -169.97 277.42 -169.97 295.15L-169.97 305.63L-164.98 310.61C-163.84 311.76 -163.84 313.61 -164.98 314.75ZM-175.81 295.15C-175.81 280.64 -187.61 268.84 -202.12 268.84L-210.88 268.84L-210.88 277.61C-210.88 292.12 -199.09 303.91 -184.58 303.91L-179.95 303.91L-204.18 279.68C-205.32 278.54 -205.32 276.69 -204.18 275.55C-203.04 274.4 -201.19 274.4 -200.05 275.55L-175.81 299.78L-175.81 295.15Z" />
				<path id="Shape" fill-rule="evenodd" class="shp25" d="M-146.42 271.85C-146.42 276.74 -150.39 280.71 -155.27 280.71C-160.15 280.71 -164.13 276.74 -164.13 271.85C-164.13 266.97 -160.15 263 -155.27 263C-150.39 263 -146.42 266.97 -146.42 271.85ZM-152.32 271.85C-152.32 270.23 -153.64 268.9 -155.27 268.9C-156.9 268.9 -158.22 270.23 -158.22 271.85C-158.22 273.48 -156.9 274.81 -155.27 274.81C-153.64 274.81 -152.32 273.48 -152.32 271.85Z" />
			</g>
		</g>
		<g id="Potion Bottle">
			<path id="Spacing" class="shp0" d="M14 513L164 513L164 663L14 663L14 513Z" />
			<g id="Icon">
				<path id="Shape" fill-rule="evenodd" class="shp13" d="M134.46 613.39L134.46 641.35C134.46 653.29 124.77 663 112.86 663L65.13 663C53.21 663 43.52 653.29 43.52 641.35L43.52 613.39C43.52 607.89 46.73 602.81 51.7 600.47C51.73 600.45 51.77 600.44 51.8 600.42L67.76 593.88C70.62 592.7 72.47 589.94 72.47 586.84L72.47 582.43C72.47 581.22 73.45 580.24 74.66 580.24C75.88 580.24 76.86 581.22 76.86 582.43L76.86 586.84C76.86 591.73 73.94 596.09 69.42 597.94L53.52 604.47C50.11 606.1 47.91 609.6 47.91 613.39L47.91 641.35C47.91 650.87 55.63 658.61 65.13 658.61L112.86 658.61C122.35 658.61 130.08 650.87 130.08 641.35L130.08 613.39C130.08 609.6 127.88 606.1 124.47 604.47L120.99 603.04C120.16 602.7 119.62 601.89 119.62 601C119.63 600.1 120.17 599.3 121 598.97C126.51 596.74 130.08 591.46 130.08 585.51C130.08 577.51 123.58 571.01 115.6 571.01C111.84 571.01 108.21 572.5 105.51 575.12L105.51 578.77C105.51 579.98 104.53 580.97 103.32 580.97C102.11 580.97 101.13 579.98 101.13 578.77L101.13 564.56L96.6 564.56C95.38 564.56 94.4 563.58 94.4 562.37C94.4 561.15 95.38 560.17 96.6 560.17L103.03 560.17C103.05 560.17 103.06 560.17 103.08 560.17C103.1 560.17 103.12 560.17 103.14 560.17C104.12 560.17 104.93 559.36 104.93 558.37L104.93 549.33L102.03 549.33L101.73 554.22C101.73 554.23 101.73 554.25 101.73 554.26C101.58 556.18 99.96 557.68 98.04 557.68L79.36 557.68C77.44 557.68 75.82 556.18 75.67 554.26C75.67 554.25 75.67 554.23 75.67 554.22L75.37 549.33L73.06 549.33L73.06 558.37C73.06 559.36 73.86 560.17 74.85 560.17L88.99 560.17C90.2 560.17 91.19 561.15 91.19 562.37C91.19 563.58 90.2 564.56 88.99 564.56L76.86 564.56L76.86 573.64C76.86 574.86 75.88 575.84 74.66 575.84C73.45 575.84 72.47 574.86 72.47 573.64L72.47 564.09C70.24 563.15 68.67 560.94 68.67 558.37L68.67 548.75C66.77 547.82 65.45 545.87 65.45 543.62C65.45 540.47 68.01 537.9 71.15 537.9L74.52 537.9L73.89 529.82L73.08 519.41C72.96 517.76 73.52 516.12 74.65 514.91C75.77 513.7 77.35 513 79 513L98.4 513C100.05 513 101.63 513.7 102.75 514.91C103.87 516.12 104.44 517.76 104.32 519.41L103.89 524.96C103.82 525.75 103.34 526.45 102.61 526.79L100.34 527.83L102.18 528.7C103 529.09 103.5 529.95 103.43 530.86L102.88 537.9L106.24 537.9C109.39 537.9 111.95 540.47 111.95 543.62C111.95 545.63 110.89 547.4 109.32 548.42L109.32 558.37C109.32 560.94 107.74 563.15 105.51 564.09L105.51 569.55C108.51 567.65 112.01 566.61 115.6 566.61C126 566.61 134.46 575.09 134.46 585.51C134.46 591.64 131.56 597.22 126.8 600.72C131.47 603.17 134.46 608.08 134.46 613.39ZM77.46 519.07L77.53 520.03L87.24 520.03C88.45 520.03 89.43 521.01 89.43 522.23C89.43 523.44 88.45 524.42 87.24 524.42L77.87 524.42L78.28 529.68L81.39 529.68C82.6 529.68 83.58 530.67 83.58 531.88C83.58 533.09 82.6 534.08 81.39 534.08L78.62 534.08L78.92 537.9L98.48 537.9L98.94 532.03L95.39 530.35C94.4 529.88 93.77 528.88 93.78 527.79C93.79 526.7 94.43 525.7 95.42 525.25L99.61 523.33L99.94 519.07C99.98 518.63 99.83 518.21 99.53 517.89C99.24 517.57 98.83 517.39 98.4 517.39L79 517.39C78.57 517.39 78.16 517.57 77.86 517.89C77.57 518.21 77.42 518.63 77.46 519.07ZM97.63 549.33L79.76 549.33L80.01 553.28L97.39 553.28L97.63 549.33ZM106.24 544.93C106.97 544.93 107.56 544.34 107.56 543.62C107.56 542.89 106.97 542.3 106.24 542.3L71.15 542.3C70.43 542.3 69.84 542.89 69.84 543.62C69.84 544.34 70.43 544.93 71.15 544.93L106.24 544.93Z" />
				<path id="Shape" fill-rule="evenodd" class="shp15" d="M126.1 585.39C126.1 591.29 121.29 596.1 115.39 596.1C109.48 596.1 104.67 591.29 104.67 585.39C104.67 579.48 109.48 574.67 115.39 574.67C121.29 574.67 126.1 579.48 126.1 585.39ZM121.7 585.39C121.7 581.91 118.87 579.08 115.39 579.08C111.91 579.08 109.08 581.91 109.08 585.39C109.08 588.87 111.91 591.7 115.39 591.7C118.87 591.7 121.7 588.87 121.7 585.39Z" />
				<path id="Shape" fill-rule="evenodd" class="shp22" d="M126.62 639.44L126.62 641.22C126.62 648.9 120.34 655.16 112.61 655.16L64.85 655.16C57.13 655.16 50.84 648.9 50.84 641.22L50.84 626.98C50.84 625.92 51.3 624.92 52.11 624.24C52.92 623.55 53.98 623.25 55.03 623.41L61.68 624.44C61.67 624.25 61.67 624.05 61.67 623.86C61.67 618.64 65.93 614.39 71.18 614.39C76.42 614.39 80.68 618.64 80.68 623.86C80.68 625.05 80.46 626.21 80.04 627.29L83.48 627.82C85.28 628.1 87.08 628.23 88.89 628.22C89.2 621.19 95.05 615.56 102.19 615.56C108.03 615.56 113.04 619.25 114.82 624.59L122.43 623.41C123.48 623.25 124.55 623.55 125.35 624.24C126.16 624.92 126.62 625.93 126.62 626.98L126.62 630.7C126.62 631.91 125.64 632.88 124.43 632.88C123.22 632.88 122.23 631.91 122.23 630.7L122.23 627.86L94.66 632.14C90.72 632.75 86.74 632.75 82.81 632.14L55.23 627.86L55.23 641.22C55.23 646.5 59.55 650.79 64.85 650.79L112.61 650.79C117.92 650.79 122.23 646.5 122.23 641.22L122.23 639.44C122.23 638.23 123.22 637.25 124.43 637.25C125.64 637.25 126.62 638.23 126.62 639.44ZM93.31 627.91C93.53 627.88 93.76 627.86 93.98 627.82L110.39 625.28C109.01 622.08 105.84 619.93 102.19 619.93C97.57 619.93 93.76 623.43 93.31 627.91ZM66.05 623.86C66.05 624.3 66.11 624.73 66.22 625.15L75.5 626.58C76.01 625.78 76.3 624.84 76.3 623.86C76.3 621.05 74 618.76 71.17 618.76C68.35 618.76 66.05 621.05 66.05 623.86Z" />
				<path id="Shape" fill-rule="evenodd" class="shp29" d="M91.08 602.63C91.08 606.81 87.68 610.21 83.51 610.21C79.33 610.21 75.93 606.81 75.93 602.63C75.93 598.46 79.33 595.06 83.51 595.06C87.68 595.06 91.08 598.46 91.08 602.63ZM86.63 602.63C86.63 600.91 85.23 599.51 83.51 599.51C81.78 599.51 80.38 600.91 80.38 602.63C80.38 604.35 81.78 605.75 83.51 605.75C85.23 605.75 86.63 604.35 86.63 602.63Z" />
				<path id="Shape" fill-rule="evenodd" class="shp30" d="M83.77 641.31C83.77 645.49 80.37 648.89 76.19 648.89C72.01 648.89 68.61 645.49 68.61 641.31C68.61 637.13 72.01 633.73 76.19 633.73C80.37 633.73 83.77 637.13 83.77 641.31ZM79.31 641.31C79.31 639.59 77.91 638.19 76.19 638.19C74.47 638.19 73.07 639.59 73.07 641.31C73.07 643.03 74.47 644.43 76.19 644.43C77.91 644.43 79.31 643.03 79.31 641.31Z" />
				<path id="Shape" fill-rule="evenodd" class="shp17" d="M98.4 576.76C98.4 581.37 94.65 585.13 90.04 585.13C85.43 585.13 81.68 581.37 81.68 576.76C81.68 572.15 85.43 568.4 90.04 568.4C94.65 568.4 98.4 572.15 98.4 576.76ZM94 576.76C94 574.58 92.22 572.8 90.04 572.8C87.85 572.8 86.08 574.58 86.08 576.76C86.08 578.95 87.85 580.72 90.04 580.72C92.22 580.72 94 578.95 94 576.76Z" />
			</g>
		</g>
		<g id="Cauldren">
			<path id="Spacing" class="shp0" d="M764 263L914 263L914 413L764 413L764 263Z" />
			<g id="Icon">
				<path id="Shape" fill-rule="evenodd" class="shp25" d="M858.91 272.09C858.91 267.08 864.01 263 870.27 263C876.54 263 881.64 267.08 881.64 272.09C881.64 277.1 876.54 281.18 870.27 281.18C864.01 281.18 858.91 277.1 858.91 272.09ZM864.59 272.09C864.59 274.6 867.14 276.64 870.27 276.64C873.41 276.64 875.95 274.6 875.95 272.09C875.95 269.58 873.41 267.55 870.27 267.55C867.14 267.55 864.59 269.58 864.59 272.09Z" />
				<path id="Shape" fill-rule="evenodd" class="shp3" d="M781.64 272.09C781.64 267.08 786.73 263 793 263C799.27 263 804.36 267.08 804.36 272.09C804.36 277.1 799.27 281.18 793 281.18C786.73 281.18 781.64 277.1 781.64 272.09ZM787.32 272.09C787.32 274.6 789.87 276.64 793 276.64C796.13 276.64 798.68 274.6 798.68 272.09C798.68 269.58 796.13 267.55 793 267.55C789.87 267.55 787.32 269.58 787.32 272.09Z" />
				<path id="Shape" fill-rule="evenodd" class="shp31" d="M840.73 285.73C840.73 280.71 844.81 276.64 849.82 276.64C854.83 276.64 858.91 280.71 858.91 285.73C858.91 290.74 854.83 294.82 849.82 294.82C844.81 294.82 840.73 290.74 840.73 285.73ZM845.92 285.73C845.92 287.88 847.67 289.62 849.82 289.62C851.97 289.62 853.71 287.88 853.71 285.73C853.71 283.58 851.97 281.83 849.82 281.83C847.67 281.83 845.92 283.58 845.92 285.73Z" />
				<path id="Shape" fill-rule="evenodd" class="shp16" d="M808.91 276.64C808.91 271.62 812.99 267.55 818 267.55C823.01 267.55 827.09 271.62 827.09 276.64C827.09 281.65 823.01 285.73 818 285.73C812.99 285.73 808.91 281.65 808.91 276.64ZM814.1 276.64C814.1 278.78 815.85 280.53 818 280.53C820.15 280.53 821.9 278.78 821.9 276.64C821.9 274.49 820.15 272.74 818 272.74C815.85 272.74 814.1 274.49 814.1 276.64Z" />
				<path id="Shape" fill-rule="evenodd" class="shp32" d="M896.05 397.29C899.1 400.27 899.1 405.11 896.05 408.09C894.52 409.58 892.52 410.32 890.51 410.32C888.51 410.32 886.5 409.58 884.98 408.09L878.17 401.45C866.85 408.73 853.18 413 838.45 413C824.38 413 811.27 409.09 800.26 402.39L794.41 408.09C792.88 409.58 790.88 410.32 788.88 410.32C786.87 410.32 784.87 409.58 783.34 408.09C780.29 405.11 780.29 400.27 783.34 397.29L787.9 392.85C775.6 380.92 768 364.69 768 346.82C768 336.78 770.37 327.15 774.99 318.15L770.05 310.13C769.23 308.79 769.21 307.11 770 305.75C770.78 304.39 772.27 303.55 773.87 303.55L776.2 303.55C777.37 299.16 781.42 295.91 786.27 295.91C788.38 295.91 790.43 296.55 792.15 297.7C794.58 294.97 798.1 293.36 801.92 293.36C803.42 293.36 804.89 293.61 806.28 294.1C808.91 289.05 814.26 285.73 820.19 285.73C827.2 285.73 833.13 290.2 835.1 296.46C837.81 295.55 840.94 295.82 843.45 297.17C846.05 293.27 850.52 290.82 855.42 290.82C860.31 290.82 864.78 293.27 867.39 297.17C870.73 295.36 875.11 295.59 878.26 297.7C880.69 294.97 884.21 293.36 888.03 293.36C894.34 293.36 899.6 297.74 900.82 303.55L903.04 303.55C904.64 303.55 906.12 304.39 906.91 305.75C907.7 307.11 907.68 308.79 906.86 310.13L901.92 318.15C906.54 327.15 908.91 336.78 908.91 346.82C908.91 364.09 901.82 379.83 890.24 391.63L896.05 397.29ZM880.64 303.55L895.42 303.55C894.34 300.58 891.44 298.45 888.03 298.45C885.05 298.45 882.37 300.1 881.04 302.75L880.64 303.55ZM867.78 303.55L876.91 303.55L876.59 303.12C874.68 300.56 870.6 300.36 868.45 302.78L867.78 303.55ZM846.26 303.55L864.57 303.55L864.01 301.95C862.74 298.33 859.29 295.91 855.42 295.91C851.55 295.91 848.09 298.33 846.82 301.95L846.26 303.55ZM833.62 303.55L843.05 303.55L842.38 302.78C840.49 300.65 837.07 300.45 834.94 302.35L833.62 303.55ZM794.53 303.55L830.7 303.55L830.57 300.59C830.34 295.11 825.78 290.82 820.19 290.82C815.55 290.82 811.44 293.89 810.18 298.29L809.22 301.66L806.23 299.72C804.94 298.89 803.46 298.45 801.92 298.45C798.94 298.45 796.26 300.1 794.93 302.75L794.53 303.55ZM781.75 303.55L790.8 303.55L790.48 303.12C789.47 301.77 787.94 301 786.27 301C784.34 301 782.65 302.02 781.75 303.55ZM775.22 308.64L777.81 312.85L777.81 312.85L779.91 316.27L896.99 316.27L899.1 312.85L899.1 312.85L901.69 308.64L775.22 308.64ZM794.93 398.81C794.15 398.22 793.37 397.63 792.62 397.02C792.32 396.78 792.01 396.56 791.72 396.32L787.03 400.89C786.01 401.88 786.01 403.5 787.03 404.49C788.05 405.48 789.71 405.48 790.72 404.49L795.83 399.5C795.53 399.28 795.24 399.03 794.93 398.81ZM838.45 407.91C853.03 407.91 866.51 403.41 877.38 395.81C878.39 395.11 879.36 394.37 880.32 393.62C880.83 393.22 881.33 392.81 881.83 392.4C882.44 391.89 883.03 391.37 883.61 390.84C895.97 379.72 903.69 364.1 903.69 346.82C903.69 337.93 901.69 329.37 897.75 321.36L779.15 321.36C775.22 329.37 773.22 337.93 773.22 346.82C773.22 364.41 781.21 380.28 793.96 391.43C794.94 392.3 795.95 393.15 796.99 393.95C797.32 394.2 797.66 394.44 797.98 394.68C798.82 395.3 799.67 395.9 800.53 396.48C811.23 403.66 824.32 407.91 838.45 407.91ZM892.35 400.89L886.52 395.2C886.3 395.39 886.06 395.56 885.84 395.75C884.95 396.51 884.04 397.25 883.11 397.97C882.9 398.13 882.71 398.31 882.49 398.47L888.67 404.49C889.69 405.48 891.34 405.48 892.36 404.49C893.38 403.5 893.38 401.88 892.35 400.89Z" />
				<path id="Path" class="shp33" d="M838.1 390.03C814.88 390.03 795.99 372.86 795.99 351.76C795.99 350.43 794.81 349.36 793.36 349.36C791.9 349.36 790.73 350.43 790.73 351.76C790.73 375.5 811.98 394.82 838.1 394.82C839.55 394.82 840.73 393.75 840.73 392.43C840.73 391.1 839.55 390.03 838.1 390.03Z" />
			</g>
		</g>
		<g id="Swords">
			<path id="Spacing" class="shp0" d="M-236 13L-86 13L-86 163L-236 163L-236 13Z" />
			<g id="Icon">
				<path id="Path" class="shp34" d="M-168.59 90.54L-173.67 95.62C-174.55 96.49 -174.55 97.91 -173.67 98.78C-173.24 99.21 -172.67 99.43 -172.1 99.43C-171.53 99.43 -170.96 99.21 -170.52 98.78L-165.44 93.7C-164.57 92.82 -164.57 91.41 -165.44 90.54C-166.31 89.67 -167.72 89.67 -168.59 90.54Z" />
				<path id="Path" class="shp34" d="M-126.06 47.97L-161.18 83.09C-162.07 83.97 -162.07 85.41 -161.18 86.29C-160.74 86.73 -160.16 86.95 -159.59 86.95C-159.01 86.95 -158.43 86.73 -157.99 86.29L-122.86 51.16C-121.98 50.28 -121.98 48.85 -122.86 47.97C-123.75 47.08 -125.18 47.08 -126.06 47.97Z" />
				<path id="Path" class="shp34" d="M-108.4 30.34L-118.61 40.54C-119.48 41.42 -119.48 42.84 -118.61 43.71C-118.17 44.15 -117.6 44.37 -117.02 44.37C-116.45 44.37 -115.88 44.15 -115.44 43.71L-105.24 33.51C-104.36 32.63 -104.36 31.21 -105.24 30.34C-106.11 29.47 -107.53 29.47 -108.4 30.34Z" />
				<path id="Path" class="shp34" d="M-176.46 67.69L-201.32 42.82C-202.2 41.95 -203.63 41.95 -204.5 42.82C-205.38 43.7 -205.38 45.13 -204.5 46.01L-179.64 70.87C-179.2 71.31 -178.62 71.53 -178.05 71.53C-177.47 71.53 -176.9 71.31 -176.46 70.87C-175.58 69.99 -175.58 68.57 -176.46 67.69Z" />
				<path id="Path" class="shp34" d="M-213.85 30.34C-214.71 29.47 -216.12 29.47 -216.99 30.34C-217.86 31.21 -217.86 32.61 -216.99 33.48L-211.17 39.31C-210.73 39.75 -210.16 39.96 -209.59 39.96C-209.02 39.96 -208.45 39.75 -208.02 39.31C-207.15 38.44 -207.15 37.03 -208.02 36.16L-213.85 30.34Z" />
				<path id="Shape" fill-rule="evenodd" class="shp35" d="M-86.96 152.18C-86.96 154.53 -87.91 156.83 -89.57 158.49C-91.22 160.15 -93.51 161.1 -95.85 161.1C-98.2 161.1 -100.49 160.15 -102.15 158.49C-103.1 157.53 -103.83 156.34 -104.27 155.05C-105.56 154.62 -106.73 153.89 -107.71 152.91C-108.69 151.92 -109.41 150.75 -109.85 149.46C-111.13 149.03 -112.3 148.3 -113.28 147.32C-114.26 146.34 -114.98 145.17 -115.41 143.88C-116.7 143.45 -117.86 142.72 -118.84 141.74C-119.82 140.76 -120.54 139.58 -120.98 138.28C-122.27 137.84 -123.45 137.11 -124.41 136.16C-124.52 136.05 -124.62 135.94 -124.72 135.82C-128.04 140.5 -130.65 145.73 -132.38 151.36C-132.68 152.34 -133.58 152.97 -134.54 152.97C-134.76 152.97 -134.99 152.94 -135.21 152.87L-146.13 149.5C-146.7 149.32 -147.18 148.92 -147.46 148.39C-147.74 147.86 -147.8 147.24 -147.62 146.66C-145.98 141.3 -143.72 136.22 -140.93 131.51L-161.44 112.16L-182.02 131.51C-179.24 136.22 -176.98 141.3 -175.34 146.66C-175.16 147.24 -175.22 147.86 -175.5 148.39C-175.78 148.92 -176.26 149.32 -176.83 149.5L-187.75 152.87C-187.97 152.94 -188.2 152.97 -188.42 152.97C-189.38 152.97 -190.28 152.34 -190.58 151.36C-192.31 145.73 -194.92 140.5 -198.24 135.82C-198.34 135.94 -198.44 136.05 -198.55 136.16C-199.51 137.11 -200.69 137.84 -201.98 138.28C-202.42 139.58 -203.14 140.76 -204.12 141.74C-205.1 142.72 -206.26 143.45 -207.55 143.88C-207.98 145.17 -208.7 146.34 -209.68 147.32C-210.66 148.3 -211.83 149.03 -213.11 149.46C-213.55 150.75 -214.27 151.92 -215.25 152.91C-216.23 153.89 -217.4 154.62 -218.69 155.05C-219.13 156.34 -219.86 157.53 -220.81 158.49C-222.47 160.15 -224.76 161.1 -227.1 161.1C-229.45 161.1 -231.74 160.15 -233.39 158.49C-235.05 156.83 -236 154.53 -236 152.18C-236 149.83 -235.05 147.53 -233.39 145.87C-232.44 144.91 -231.26 144.18 -229.96 143.74C-229.53 142.45 -228.81 141.27 -227.83 140.29C-226.85 139.31 -225.68 138.58 -224.4 138.14C-223.96 136.86 -223.24 135.68 -222.26 134.7C-221.28 133.72 -220.12 133 -218.83 132.56C-218.4 131.27 -217.68 130.1 -216.7 129.12C-215.72 128.14 -214.54 127.41 -213.25 126.98C-212.81 125.68 -212.08 124.49 -211.13 123.54C-211.02 123.43 -210.91 123.33 -210.8 123.23C-215.46 119.89 -220.67 117.28 -226.29 115.54C-226.87 115.36 -227.35 114.96 -227.63 114.43C-227.91 113.9 -227.97 113.28 -227.79 112.7L-224.43 101.75C-224.06 100.55 -222.8 99.88 -221.6 100.25C-216.26 101.9 -211.2 104.17 -206.5 106.96L-187.98 87.14L-227.43 50.37C-227.81 50.01 -228.06 49.54 -228.13 49.02L-232.59 17.59C-232.69 16.88 -232.45 16.17 -231.95 15.67C-231.44 15.16 -230.73 14.92 -230.03 15.02L-198.69 19.49C-198.18 19.56 -197.7 19.81 -197.35 20.19L-161.55 58.85L-122.91 17.48C-122.51 17.06 -121.97 16.8 -121.39 16.77L-92.76 15.01C-92.11 14.97 -91.48 15.21 -91.02 15.67C-90.56 16.13 -90.32 16.76 -90.36 17.41L-92.11 46.14C-92.15 46.72 -92.4 47.26 -92.82 47.66L-134.95 87.25L-116.46 106.96C-111.76 104.17 -106.7 101.9 -101.36 100.25C-100.16 99.88 -98.9 100.55 -98.53 101.75L-95.17 112.7C-94.99 113.28 -95.05 113.9 -95.33 114.43C-95.61 114.97 -96.09 115.36 -96.67 115.54C-102.29 117.28 -107.5 119.89 -112.16 123.23C-112.05 123.33 -111.94 123.43 -111.83 123.54C-110.88 124.49 -110.15 125.68 -109.71 126.98C-108.42 127.41 -107.24 128.14 -106.26 129.12C-105.28 130.1 -104.56 131.27 -104.13 132.56C-102.84 133 -101.68 133.72 -100.7 134.7C-99.72 135.68 -99 136.86 -98.56 138.14C-97.28 138.58 -96.11 139.31 -95.13 140.29C-94.15 141.27 -93.43 142.45 -93 143.74C-91.7 144.18 -90.52 144.91 -89.57 145.87C-87.91 147.53 -86.96 149.83 -86.96 152.18ZM-184.89 83.83L-164.66 62.17L-200.12 23.87L-227.68 19.94L-223.76 47.59L-184.89 83.83ZM-224.01 155.28C-223.61 154.88 -223.3 154.39 -223.08 153.85L-228.77 148.14C-229.3 148.36 -229.79 148.68 -230.19 149.08C-231.01 149.9 -231.47 151.03 -231.47 152.18C-231.47 153.33 -231 154.46 -230.19 155.28C-229.38 156.09 -228.25 156.56 -227.1 156.56C-225.95 156.56 -224.83 156.09 -224.01 155.28ZM-218.45 149.7C-218.04 149.28 -217.72 148.8 -217.5 148.27L-223.21 142.55C-223.73 142.77 -224.21 143.09 -224.63 143.5C-225.04 143.91 -225.36 144.39 -225.57 144.92L-219.87 150.64C-219.34 150.43 -218.86 150.11 -218.45 149.7ZM-212.88 144.11C-212.47 143.7 -212.15 143.22 -211.94 142.69L-217.64 136.97C-218.17 137.18 -218.65 137.5 -219.06 137.92C-219.47 138.33 -219.79 138.81 -220.01 139.34L-214.3 145.06C-213.77 144.84 -213.29 144.52 -212.88 144.11ZM-207.32 138.53C-206.91 138.12 -206.59 137.63 -206.37 137.1L-212.07 131.38C-212.6 131.6 -213.08 131.92 -213.5 132.33C-213.91 132.75 -214.23 133.23 -214.44 133.75L-208.74 139.48C-208.21 139.26 -207.73 138.94 -207.32 138.53ZM-201.12 132.13C-202.96 129.97 -204.96 127.96 -207.12 126.11C-207.41 126.29 -207.69 126.51 -207.93 126.75C-208.33 127.15 -208.65 127.64 -208.87 128.18L-203.18 133.89C-202.64 133.67 -202.15 133.35 -201.75 132.94C-201.51 132.7 -201.3 132.43 -201.12 132.13ZM-180.37 145.84C-183.64 136.34 -188.98 127.87 -195.87 120.94C-195.89 120.93 -195.91 120.92 -195.92 120.9C-195.94 120.89 -195.95 120.87 -195.96 120.85C-202.87 113.94 -211.32 108.58 -220.78 105.3L-222.81 111.91C-206.02 117.81 -192.84 131.03 -186.96 147.87L-180.37 145.84ZM-184.5 127.61L-96.58 44.96L-95.03 19.7L-120.22 21.24L-202.61 109.44C-199.69 111.46 -196.92 113.68 -194.35 116.11L-181.42 103.15C-180.54 102.26 -179.11 102.26 -178.22 103.15C-177.34 104.03 -177.34 105.47 -178.22 106.36L-191.14 119.32C-188.73 121.9 -186.51 124.68 -184.5 127.61ZM-138.46 127.61C-136.45 124.67 -134.23 121.9 -131.82 119.32L-144.74 106.36C-145.62 105.47 -145.62 104.03 -144.74 103.15C-143.85 102.26 -142.42 102.26 -141.54 103.15L-128.61 116.11C-126.04 113.68 -123.28 111.46 -120.35 109.45L-138.25 90.36L-158.13 109.05L-138.46 127.61ZM-100.15 111.91L-102.18 105.3C-111.64 108.58 -120.09 113.94 -127 120.85C-127.01 120.87 -127.02 120.89 -127.04 120.9C-127.05 120.92 -127.07 120.93 -127.09 120.94C-133.98 127.87 -139.32 136.34 -142.59 145.84L-136 147.87C-130.12 131.03 -116.94 117.81 -100.15 111.91ZM-119.78 133.89L-114.09 128.18C-114.31 127.64 -114.63 127.15 -115.03 126.75C-115.27 126.51 -115.55 126.29 -115.84 126.11C-118 127.96 -120 129.97 -121.84 132.13C-121.66 132.43 -121.45 132.7 -121.21 132.94C-120.81 133.35 -120.32 133.67 -119.78 133.89ZM-114.22 139.48L-108.52 133.75C-108.73 133.23 -109.05 132.75 -109.46 132.33C-109.88 131.92 -110.36 131.6 -110.89 131.38L-116.59 137.1C-116.37 137.63 -116.05 138.12 -115.64 138.53C-115.23 138.94 -114.75 139.26 -114.22 139.48ZM-108.66 145.06L-102.95 139.34C-103.17 138.81 -103.49 138.33 -103.9 137.92C-104.31 137.5 -104.79 137.18 -105.32 136.97L-111.02 142.69C-110.81 143.22 -110.49 143.7 -110.08 144.11C-109.66 144.52 -109.19 144.84 -108.66 145.06ZM-103.09 150.64L-97.39 144.92C-97.6 144.39 -97.92 143.91 -98.33 143.5C-98.75 143.09 -99.23 142.77 -99.75 142.55L-105.46 148.27C-105.24 148.8 -104.92 149.28 -104.51 149.7C-104.1 150.11 -103.62 150.43 -103.09 150.64ZM-91.49 152.17C-91.49 151.03 -91.95 149.9 -92.77 149.08C-93.17 148.68 -93.66 148.36 -94.19 148.14L-99.88 153.85C-99.66 154.39 -99.34 154.88 -98.94 155.28C-98.13 156.09 -97.01 156.56 -95.85 156.56C-94.71 156.56 -93.58 156.09 -92.77 155.28C-91.96 154.46 -91.49 153.33 -91.49 152.17Z" />
			</g>
		</g>
		<g id="Doble Terminated Crystal">
			<path id="Spacing" class="shp0" d="M264 517L414 517L414 667L264 667L264 517Z" />
			<g id="Icon">
				<path id="Shape" fill-rule="evenodd" class="shp36" d="M376.31 551.09L376.31 624.91C376.31 625.69 376 626.44 375.45 626.98L340.23 662.14C339.68 662.69 338.93 663 338.15 663C337.37 663 336.63 662.69 336.08 662.14L300.86 626.98C300.31 626.44 300 625.69 300 624.91L300 551.09C300 549.47 301.31 548.16 302.93 548.16L318.87 548.16L327.85 530.35L323.69 534.51C322.54 535.66 320.68 535.66 319.54 534.51C318.39 533.37 318.39 531.52 319.54 530.37L336.08 513.86C336.63 513.31 337.37 513 338.15 513C338.93 513 339.68 513.31 340.23 513.86L375.45 549.02C376 549.57 376.31 550.31 376.31 551.09ZM370.44 554.02L358.7 554.02L358.7 598.28C358.7 599.89 357.38 601.21 355.76 601.21C354.14 601.21 352.83 599.89 352.83 598.28L352.83 554.02L323.48 554.02L323.48 621.98L370.44 621.98L370.44 554.02ZM310.02 627.84L327.85 645.65L318.87 627.84L310.02 627.84ZM338.15 653.03L350.86 627.84L325.44 627.84L338.15 653.03ZM348.45 645.65L366.29 627.84L357.44 627.84L348.45 645.65ZM366.29 548.16L348.45 530.35L357.43 548.16L366.29 548.16ZM325.44 548.16L350.86 548.16L338.15 522.97L325.44 548.16ZM305.87 554.02L305.87 621.98L317.61 621.98L317.61 554.02L305.87 554.02Z" />
				<path id="Path" class="shp37" d="M312.28 544.88C313.06 544.88 313.84 544.56 314.41 543.94L314.41 543.94C315.48 542.76 315.39 540.95 314.22 539.88C313.04 538.81 311.22 538.9 310.16 540.07C309.09 541.25 309.17 543.07 310.35 544.13C310.9 544.63 311.59 544.88 312.28 544.88Z" />
				<path id="Path" class="shp37" d="M355.66 608.64C354.07 608.64 352.79 609.93 352.79 611.52C352.79 613.11 354.07 614.39 355.66 614.39C357.25 614.39 358.54 613.11 358.54 611.52L358.54 611.52C358.54 609.93 357.25 608.64 355.66 608.64Z" />
			</g>
		</g>
		<g id="Wand">
			<path id="Spacing" class="shp0" d="M14 263L164 263L164 413L14 413L14 263Z" />
			<g id="Icon">
				<path id="Path" class="shp38" d="M145.51 343.21C143.93 343.21 142.65 344.49 142.65 346.07C142.65 347.65 143.93 348.94 145.51 348.94C147.09 348.94 148.38 347.65 148.38 346.07C148.38 344.49 147.09 343.21 145.51 343.21Z" />
				<path id="Path" class="shp38" d="M109.51 281.55C108.4 280.43 106.58 280.43 105.46 281.55C104.35 282.66 104.35 284.48 105.46 285.6C106.58 286.72 108.4 286.72 109.51 285.6C110.63 284.48 110.63 282.67 109.51 281.55Z" />
				<path id="Shape" fill-rule="evenodd" class="shp39" d="M155.11 334.48L133.1 334.49L120.39 352.18C116.19 358.11 106.99 356.63 104.83 349.7L102.23 341.33L34 409.56C29.43 414.15 22.01 414.14 17.43 409.56C12.85 404.99 12.86 397.56 17.44 392.99L85.67 324.77L77.31 322.17C70.35 320.01 68.9 310.81 74.84 306.6L92.51 293.9L92.52 271.89C92.44 264.63 100.73 260.41 106.56 264.76L124.18 277.91L145.01 270.85C151.9 268.51 158.49 275.1 156.15 281.99L149.09 302.82L162.24 320.44C166.59 326.28 162.37 334.57 155.11 334.48ZM100.27 335.01L98.3 328.7L91.99 326.73L21.58 397.14C19.27 399.44 19.31 403.15 21.58 405.42C23.87 407.72 27.57 407.71 29.86 405.42L100.27 335.01ZM157.54 323.94L143.47 305.09C142.9 304.32 142.74 303.31 143.05 302.4L150.6 280.11C151.39 277.8 149.18 275.62 146.89 276.4L124.6 283.95C123.69 284.26 122.68 284.1 121.91 283.53L103.06 269.46C101.1 268 98.31 269.41 98.34 271.84C98.35 271.85 98.35 271.87 98.35 271.88L98.34 295.41C98.34 296.35 97.91 297.23 97.15 297.78L78.24 311.37C76.22 312.8 76.74 315.86 79.04 316.57L101.51 323.56C102.43 323.84 103.16 324.57 103.44 325.49L106.39 334.96L106.4 334.99C106.4 334.99 106.4 335 106.4 335.01L110.43 347.96C111.15 350.28 114.21 350.77 115.62 348.78L129.22 329.85C129.77 329.09 130.65 328.66 131.59 328.66L155.12 328.65C157.69 328.65 158.96 325.84 157.54 323.94Z" />
				<path id="Path" class="shp38" d="M123.21 292.15L118.27 288.58C116.94 287.62 115.07 287.88 114.07 289.17C113.08 290.45 113.36 292.27 114.68 293.23L119.63 296.8C120.96 297.76 122.83 297.49 123.82 296.21C124.81 294.92 124.54 293.11 123.21 292.15Z" />
				<path id="Path" class="shp22" d="M75.11 278.28L72.16 278.28L72.16 275.33C72.16 273.7 70.84 272.38 69.21 272.38C67.58 272.38 66.26 273.7 66.26 275.33L66.26 278.28L63.31 278.28C61.68 278.28 60.35 279.6 60.35 281.23C60.35 282.86 61.68 284.18 63.31 284.18L66.26 284.18L66.26 287.13C66.26 288.76 67.58 290.08 69.21 290.08C70.84 290.08 72.16 288.76 72.16 287.13L72.16 284.18L75.11 284.18C76.74 284.18 78.06 282.86 78.06 281.23C78.06 279.6 76.74 278.28 75.11 278.28Z" />
				<path id="Path" class="shp22" d="M139.69 366.3L136.74 366.3L136.74 363.35C136.74 361.72 135.42 360.4 133.79 360.4C132.16 360.4 130.84 361.72 130.84 363.35L130.84 366.3L127.89 366.3C126.26 366.3 124.94 367.62 124.94 369.25C124.94 370.88 126.26 372.2 127.89 372.2L130.84 372.2L130.84 375.15C130.84 376.78 132.16 378.1 133.79 378.1C135.42 378.1 136.74 376.78 136.74 375.15L136.74 372.2L139.69 372.2C141.32 372.2 142.65 370.88 142.65 369.25C142.65 367.62 141.32 366.3 139.69 366.3Z" />
			</g>
		</g>
		<g id="Castle">
			<path id="Spacing" class="shp0" d="M514 513L664 513L664 663L514 663L514 513Z" />
			<g id="Icon">
				<path id="Path" class="shp3" d="M644 618C642.62 618 641.5 619.12 641.5 620.5L641.5 625.5C641.5 626.88 642.62 628 644 628C645.38 628 646.5 626.88 646.5 625.5L646.5 620.5C646.5 619.12 645.38 618 644 618Z" />
				<path id="Path" class="shp16" d="M575.38 557.74C576.62 558.36 578.12 557.85 578.74 556.62L586.5 541.09L586.5 555.5C586.5 556.88 587.62 558 589 558C590.38 558 591.5 556.88 591.5 555.5L591.5 541.09L599.26 556.62C599.7 557.5 600.58 558 601.5 558C601.88 558 602.26 557.92 602.62 557.74C603.85 557.12 604.36 555.62 603.74 554.38L591.5 529.91L591.5 518L604 518L604 523L596.5 523C595.12 523 594 524.12 594 525.5C594 526.88 595.12 528 596.5 528L606.5 528C607.88 528 609 526.88 609 525.5L609 515.5C609 514.12 607.88 513 606.5 513L589 513C587.62 513 586.5 514.12 586.5 515.5L586.5 529.91L574.26 554.38C573.64 555.62 574.15 557.12 575.38 557.74Z" />
				<path id="Path" class="shp17" d="M601.5 593C602.88 593 604 591.88 604 590.5L604 568L606.5 568C607.88 568 609 566.88 609 565.5C609 564.12 607.88 563 606.5 563L571.5 563C570.12 563 569 564.12 569 565.5C569 566.88 570.12 568 571.5 568L574 568L574 590.5C574 591.88 575.12 593 576.5 593C577.88 593 579 591.88 579 590.5L579 568L599 568L599 590.5C599 591.88 600.12 593 601.5 593Z" />
				<path id="Path" class="shp3" d="M586.5 580.5L586.5 585.5C586.5 586.88 587.62 588 589 588C590.38 588 591.5 586.88 591.5 585.5L591.5 580.5C591.5 579.12 590.38 578 589 578C587.62 578 586.5 579.12 586.5 580.5Z" />
				<path id="Path" class="shp17" d="M626.5 588L629 588L629 590.5C629 591.88 630.12 593 631.5 593C632.88 593 634 591.88 634 590.5L634 588L654 588L654 638C654 639.38 655.12 640.5 656.5 640.5C657.88 640.5 659 639.38 659 638L659 588L661.5 588C662.88 588 664 586.88 664 585.5C664 584.12 662.88 583 661.5 583L626.5 583C625.12 583 624 584.12 624 585.5C624 586.88 625.12 588 626.5 588Z" />
				<path id="Path" class="shp40" d="M634 538C634 539.38 635.12 540.5 636.5 540.5C637.88 540.5 639 539.38 639 538C640.38 538 641.5 536.88 641.5 535.5C641.5 534.12 640.38 533 639 533C639 531.62 637.88 530.5 636.5 530.5C635.12 530.5 634 531.62 634 533C632.62 533 631.5 534.12 631.5 535.5C631.5 536.88 632.62 538 634 538Z" />
				<path id="Path" class="shp16" d="M630.38 577.74C631.62 578.36 633.12 577.85 633.74 576.62L641.5 561.09L641.5 575.5C641.5 576.88 642.62 578 644 578C645.38 578 646.5 576.88 646.5 575.5L646.5 561.09L654.26 576.62C654.7 577.5 655.58 578 656.5 578C656.88 578 657.26 577.92 657.62 577.74C658.85 577.12 659.35 575.62 658.74 574.38L646.24 549.38C646.13 549.17 645.99 548.98 645.82 548.82C645.37 548.32 644.73 548 644 548C643.27 548 642.63 548.32 642.18 548.82C642.01 548.98 641.87 549.17 641.76 549.38L629.26 574.38C628.65 575.62 629.15 577.12 630.38 577.74Z" />
				<path id="Shape" fill-rule="evenodd" class="shp3" d="M604 638L604 660.5C604 661.88 602.88 663 601.5 663L576.5 663C575.12 663 574 661.88 574 660.5L574 638C574 629.73 580.73 623 589 623C597.27 623 604 629.73 604 638ZM599 653L579 653L579 658L599 658L599 653ZM599 643L579 643L579 648L599 648L599 643ZM599 638C599 632.49 594.52 628 589 628C583.49 628 579 632.48 579 638L599 638Z" />
				<path id="Path" class="shp3" d="M646.5 600.5C646.5 599.12 645.38 598 644 598C642.62 598 641.5 599.12 641.5 600.5L641.5 605.5C641.5 606.88 642.62 608 644 608C645.38 608 646.5 606.88 646.5 605.5L646.5 600.5Z" />
				<path id="Path" class="shp40" d="M564 520.5C564 521.88 565.12 523 566.5 523C567.88 523 569 521.88 569 520.5C570.38 520.5 571.5 519.38 571.5 518C571.5 516.62 570.38 515.5 569 515.5C569 514.12 567.88 513 566.5 513C565.12 513 564 514.12 564 515.5C562.62 515.5 561.5 516.62 561.5 518C561.5 519.38 562.62 520.5 564 520.5Z" />
				<path id="Path" class="shp3" d="M534 618C532.62 618 531.5 619.12 531.5 620.5L531.5 625.5C531.5 626.88 532.62 628 534 628C535.38 628 536.5 626.88 536.5 625.5L536.5 620.5C536.5 619.12 535.38 618 534 618Z" />
				<path id="Shape" fill-rule="evenodd" class="shp15" d="M569 650.5L569 660.5C569 661.88 567.88 663 566.5 663L516.5 663C515.12 663 514 661.88 514 660.5L514 650.5C514 647.74 516.24 645.5 519 645.5C519.91 645.5 520.76 645.75 521.5 646.17C522.97 645.32 525.03 645.32 526.5 646.17C527.97 645.32 530.03 645.32 531.5 646.17C532.97 645.32 535.03 645.32 536.5 646.17C537.97 645.32 540.03 645.32 541.5 646.17C542.97 645.32 545.03 645.32 546.5 646.17C547.97 645.32 550.03 645.32 551.5 646.17C552.97 645.32 555.03 645.32 556.5 646.17C557.97 645.32 560.03 645.32 561.5 646.17C562.23 645.75 563.09 645.5 564 645.5C566.76 645.5 569 647.74 569 650.5ZM564 658L564 650.5C564 651.88 562.88 653 561.5 653C560.12 653 559 651.88 559 650.5C559 651.88 557.88 653 556.5 653C555.12 653 554 651.88 554 650.5C554 651.88 552.88 653 551.5 653C550.12 653 549 651.88 549 650.5C549 651.88 547.88 653 546.5 653C545.12 653 544 651.88 544 650.5C544 651.88 542.88 653 541.5 653C540.12 653 539 651.88 539 650.5C539 651.88 537.88 653 536.5 653C535.12 653 534 651.88 534 650.5C534 651.88 532.88 653 531.5 653C530.12 653 529 651.88 529 650.5C529 651.88 527.88 653 526.5 653C525.12 653 524 651.88 524 650.5C524 651.88 522.88 653 521.5 653C520.12 653 519 651.88 519 650.5L519 658L564 658Z" />
				<path id="Shape" fill-rule="evenodd" class="shp15" d="M664 650.5L664 660.5C664 661.88 662.88 663 661.5 663L611.5 663C610.12 663 609 661.88 609 660.5L609 650.5C609 647.74 611.24 645.5 614 645.5C614.91 645.5 615.76 645.75 616.5 646.17C617.97 645.32 620.03 645.32 621.5 646.17C622.97 645.32 625.03 645.32 626.5 646.17C627.97 645.32 630.03 645.32 631.5 646.17C632.97 645.32 635.03 645.32 636.5 646.17C637.97 645.32 640.03 645.32 641.5 646.17C642.97 645.32 645.03 645.32 646.5 646.17C647.97 645.32 650.03 645.32 651.5 646.17C652.97 645.32 655.03 645.32 656.5 646.17C657.23 645.75 658.09 645.5 659 645.5C661.76 645.5 664 647.74 664 650.5ZM659 658L659 650.5C659 651.88 657.88 653 656.5 653C655.12 653 654 651.88 654 650.5C654 651.88 652.88 653 651.5 653C650.12 653 649 651.88 649 650.5C649 651.88 647.88 653 646.5 653C645.12 653 644 651.88 644 650.5C644 651.88 642.88 653 641.5 653C640.12 653 639 651.88 639 650.5C639 651.88 637.88 653 636.5 653C635.12 653 634 651.88 634 650.5C634 651.88 632.88 653 631.5 653C630.12 653 629 651.88 629 650.5C629 651.88 627.88 653 626.5 653C625.12 653 624 651.88 624 650.5C624 651.88 622.88 653 621.5 653C620.12 653 619 651.88 619 650.5C619 651.88 617.88 653 616.5 653C615.12 653 614 651.88 614 650.5L614 658L659 658Z" />
				<path id="Path" class="shp16" d="M520.38 577.74C521.62 578.36 523.12 577.85 523.74 576.62L531.5 561.09L531.5 575.5C531.5 576.88 532.62 578 534 578C535.38 578 536.5 576.88 536.5 575.5L536.5 561.09L544.26 576.62C544.7 577.5 545.58 578 546.5 578C546.88 578 547.26 577.92 547.62 577.74C548.85 577.12 549.36 575.62 548.74 574.38L536.24 549.38C536.13 549.17 535.99 548.98 535.82 548.82C535.37 548.32 534.73 548 534 548C533.27 548 532.63 548.32 532.18 548.82C532.01 548.98 531.87 549.17 531.76 549.38L519.26 574.38C518.65 575.62 519.15 577.12 520.38 577.74Z" />
				<path id="Path" class="shp22" d="M624 610.5L624 603L629 603L629 638C629 639.38 630.12 640.5 631.5 640.5C632.88 640.5 634 639.38 634 638L634 600.5C634 599.12 632.88 598 631.5 598L621.5 598C620.12 598 619 599.12 619 600.5L619 608L609 608L609 600.5C609 599.12 607.88 598 606.5 598L596.5 598C595.12 598 594 599.12 594 600.5L594 608L584 608L584 600.5C584 599.12 582.88 598 581.5 598L571.5 598C570.12 598 569 599.12 569 600.5L569 608L559 608L559 600.5C559 599.12 557.88 598 556.5 598L546.5 598C545.12 598 544 599.12 544 600.5L544 638C544 639.38 545.12 640.5 546.5 640.5C547.88 640.5 549 639.38 549 638L549 603L554 603L554 610.5C554 611.88 555.12 613 556.5 613L571.5 613C572.88 613 574 611.88 574 610.5L574 603L579 603L579 610.5C579 611.88 580.12 613 581.5 613L596.5 613C597.88 613 599 611.88 599 610.5L599 603L604 603L604 610.5C604 611.88 605.12 613 606.5 613L621.5 613C622.88 613 624 611.88 624 610.5Z" />
				<path id="Path" class="shp40" d="M516.5 528L519 528L519 530.5C519 531.88 520.12 533 521.5 533C522.88 533 524 531.88 524 530.5L524 528L526.5 528C527.88 528 529 526.88 529 525.5C529 524.12 527.88 523 526.5 523L524 523L524 520.5C524 519.12 522.88 518 521.5 518C520.12 518 519 519.12 519 520.5L519 523L516.5 523C515.12 523 514 524.12 514 525.5C514 526.88 515.12 528 516.5 528Z" />
				<path id="Path" class="shp17" d="M516.5 588L519 588L519 640.5C519 641.88 520.12 643 521.5 643C522.88 643 524 641.88 524 640.5L524 588L544 588L544 590.5C544 591.88 545.12 593 546.5 593C547.88 593 549 591.88 549 590.5L549 588L551.5 588C552.88 588 554 586.88 554 585.5C554 584.12 552.88 583 551.5 583L516.5 583C515.12 583 514 584.12 514 585.5C514 586.88 515.12 588 516.5 588Z" />
				<path id="Path" class="shp3" d="M536.5 600.5C536.5 599.12 535.38 598 534 598C532.62 598 531.5 599.12 531.5 600.5L531.5 605.5C531.5 606.88 532.62 608 534 608C535.38 608 536.5 606.88 536.5 605.5L536.5 600.5Z" />
			</g>
		</g>
		<g id="Crown">
			<path id="Spacing" class="shp0" d="M764 513L914 513L914 663L764 663L764 513Z" />
			<g id="Icon">
				<path id="Shape" fill-rule="evenodd" class="shp41" d="M907.63 593.06C911.36 594.49 914 598.85 914 604.14C914 610.64 910.03 615.72 904.97 615.72C904.13 615.72 903.3 615.58 902.51 615.3L901.5 619.67C903.36 620.26 904.71 622.01 904.71 624.06L904.71 628.04C904.71 630.58 902.64 632.65 900.1 632.65L876.57 632.65C875.35 632.65 874.37 631.66 874.37 630.45C874.37 629.23 875.35 628.25 876.57 628.25L900.1 628.25C900.22 628.25 900.31 628.15 900.31 628.04L900.31 624.06C900.31 623.95 900.22 623.85 900.1 623.85L777.9 623.85C777.78 623.85 777.69 623.95 777.69 624.06L777.69 628.04C777.69 628.15 777.78 628.25 777.9 628.25L867.01 628.25C868.23 628.25 869.21 629.23 869.21 630.45C869.21 631.66 868.23 632.65 867.01 632.65L777.9 632.65C775.36 632.65 773.29 630.58 773.29 628.04L773.29 624.06C773.29 622.01 774.64 620.26 776.5 619.67L775.49 615.3C774.7 615.58 773.87 615.72 773.03 615.72C767.96 615.72 764 610.64 764 604.14C764 598.85 766.64 594.49 770.37 593.06L767.18 579.24C766.51 576.32 769.93 574.19 772.23 576.12C774.22 577.79 777.32 580.02 780.75 581.16C783.24 581.98 785.05 583.8 785.83 586.29C786.71 589.05 786.18 592.42 784.51 594.66C783.61 595.88 783.8 597.5 784.95 598.36C786.23 599.31 787.84 599.8 789.72 599.8C792.98 599.8 794.76 592.65 795.13 585.46C792 585.77 789.43 584.74 787.94 582.53C785.88 579.45 788.91 573.51 795.82 561.61C797.59 558.56 799.27 555.68 800.25 553.66C800.72 552.68 801.64 552.03 802.71 551.91C803.79 551.79 804.83 552.23 805.5 553.07C807.95 556.16 813.65 564.19 813.65 572.13C813.65 574.97 813.95 578.27 814.5 581.41C814.7 582.61 813.9 583.74 812.71 583.95C811.51 584.16 810.37 583.36 810.17 582.16C809.58 578.78 809.25 575.22 809.25 572.13C809.25 566.58 805.52 560.55 803.26 557.41C802.26 559.29 800.97 561.51 799.62 563.82C798.06 566.5 791.57 577.36 791.69 580.21C792.65 581.42 794.69 581.16 795.85 580.89C797.79 580.43 799.63 581.92 799.59 583.91C799.45 590.01 798.21 604.2 789.72 604.2C786.87 604.2 784.38 603.42 782.33 601.89C779.25 599.6 778.65 595.18 780.98 592.04C781.7 591.07 782.16 589.24 781.64 587.62C781.28 586.48 780.52 585.71 779.37 585.33C776.71 584.45 774.26 583.06 772.25 581.66L779.09 611.33C779.09 611.34 779.09 611.34 779.09 611.35L780.96 619.45L897.04 619.45L898.91 611.35C898.91 611.34 898.91 611.34 898.91 611.33L905.75 581.66C903.74 583.06 901.29 584.45 898.63 585.33C897.48 585.71 896.72 586.48 896.36 587.62C895.84 589.24 896.3 591.07 897.02 592.04C899.35 595.18 898.75 599.6 895.67 601.89C893.62 603.42 891.13 604.2 888.28 604.2C879.79 604.2 878.55 590.01 878.42 583.91C878.37 581.92 880.21 580.43 882.15 580.89C883.31 581.16 885.35 581.42 886.32 580.2C886.34 579.74 886.14 577.87 882.91 571.82C882.33 570.75 882.74 569.42 883.81 568.84C884.88 568.27 886.21 568.68 886.78 569.75C890.61 576.92 891.5 580.38 890.06 582.53C888.57 584.74 886.01 585.76 882.87 585.46C883.24 592.65 885.02 599.8 888.28 599.8C890.16 599.8 891.77 599.31 893.05 598.36C894.2 597.5 894.39 595.88 893.49 594.66C891.83 592.42 891.29 589.05 892.17 586.29C892.95 583.8 894.76 581.98 897.25 581.16C900.68 580.02 903.78 577.79 905.77 576.12C908.07 574.2 911.49 576.32 910.82 579.24L907.63 593.06ZM773.03 611.32C773.58 611.32 774.07 611.16 774.49 610.94L771.38 597.46C769.65 598.51 768.39 601.15 768.39 604.14C768.39 608.04 770.52 611.32 773.03 611.32ZM904.97 611.32C907.48 611.32 909.61 608.04 909.61 604.14C909.61 601.15 908.35 598.51 906.62 597.46L903.51 610.94C903.93 611.16 904.42 611.32 904.97 611.32Z" />
				<path id="Path" class="shp42" d="M812.89 591.85C814.46 595.41 816.41 597.44 818.69 597.87C821.75 598.46 825.02 596.92 827.45 594.9C831.74 591.35 834.3 585.76 834.3 579.94L834.3 575.78C834.3 573.18 831.45 571.58 829.24 572.93C828.56 573.35 827.58 573.57 826.42 573.57C823.51 573.57 821.57 572.67 821.57 568.31C821.57 568.02 821.8 566.32 826.21 561.3C829.15 557.96 832.98 554.22 836.05 551.22C837.14 550.17 838.12 549.21 839 548.33C839.88 549.21 840.87 550.17 841.96 551.23C845.03 554.23 848.86 557.96 851.79 561.3C856.2 566.32 856.43 568.02 856.43 568.31C856.43 572.67 854.49 573.57 851.58 573.57C850.4 573.57 849.45 573.35 848.76 572.93C846.54 571.58 843.7 573.18 843.7 575.78L843.7 579.94C843.7 585.76 846.26 591.35 850.55 594.9C853.45 597.3 856.64 598.39 859.32 597.87C866.37 596.52 868.75 579.62 868.75 572.13C868.75 566.58 872.48 560.55 874.74 557.41C875.73 559.27 877 561.45 878.32 563.73C878.93 564.78 880.28 565.13 881.33 564.52C882.38 563.91 882.73 562.57 882.12 561.52C880.38 558.51 878.73 555.68 877.75 553.66C877.28 552.68 876.36 552.03 875.29 551.91C874.21 551.79 873.17 552.23 872.5 553.08C870.05 556.16 864.35 564.19 864.35 572.13C864.35 576.67 863.6 582.15 862.38 586.42C860.85 591.77 859.16 593.42 858.49 593.55C857.49 593.75 855.54 593.33 853.35 591.51C850.06 588.79 848.1 584.47 848.1 579.94L848.1 577.44C849.14 577.79 850.3 577.97 851.58 577.97C857.54 577.97 860.82 574.53 860.82 568.31C860.82 563.84 853.97 556.81 845.02 548.08C840.96 544.13 840.93 544.03 840.56 543.65C840.15 543.23 839.59 543 839 543C838.42 543 837.85 543.23 837.44 543.65C836.93 544.17 836.95 544.21 832.99 548.07C824.03 556.81 817.18 563.84 817.18 568.31C817.18 574.54 820.46 577.97 826.42 577.97C827.7 577.97 828.86 577.79 829.9 577.44L829.9 579.94C829.9 584.47 827.94 588.79 824.65 591.51C822.46 593.33 820.51 593.75 819.51 593.55C819.39 593.53 818.31 593.24 816.91 590.07C816.42 588.96 815.13 588.46 814.02 588.95C812.91 589.44 812.4 590.74 812.89 591.85L812.89 591.85Z" />
				<path id="Shape" fill-rule="evenodd" class="shp43" d="M839 591.27C844.06 591.27 848.17 596.47 848.17 602.85C848.17 609.24 844.06 614.43 839 614.43C833.94 614.43 829.83 609.24 829.83 602.85C829.83 596.47 833.94 591.27 839 591.27ZM834.23 602.85C834.23 606.74 836.41 610.03 839 610.03C841.59 610.03 843.77 606.74 843.77 602.85C843.77 598.96 841.59 595.67 839 595.67C836.41 595.67 834.23 598.96 834.23 602.85Z" />
				<path id="Shape" fill-rule="evenodd" class="shp27" d="M839 571.65C835.16 571.65 832.16 567.87 832.16 563.04C832.16 558.21 835.16 554.43 839 554.43C842.84 554.43 845.84 558.21 845.84 563.04C845.84 567.87 842.84 571.65 839 571.65ZM836.55 563.04C836.55 565.45 837.84 567.25 839 567.25C840.16 567.25 841.45 565.45 841.45 563.04C841.45 560.63 840.16 558.83 839 558.83C837.84 558.83 836.55 560.63 836.55 563.04Z" />
			</g>
		</g>
		<text id="Fantasy Icon Set" style="transform: matrix(1,0,0,1,-236,-121)" >
			<tspan x="0" y="0" class="txt44">Fantasy Icon Set</tspan>
		</text>
		<g id="Color Pallet">
			<path id="Oval" class="shp17" d="M704 -139C712.28 -139 719 -145.72 719 -154C719 -162.28 712.28 -169 704 -169C695.72 -169 689 -162.28 689 -154C689 -145.72 695.72 -139 704 -139Z" />
			<path id="Oval" class="shp15" d="M624 -139C632.28 -139 639 -145.72 639 -154C639 -162.28 632.28 -169 624 -169C615.72 -169 609 -162.28 609 -154C609 -145.72 615.72 -139 624 -139Z" />
			<path id="Oval" class="shp13" d="M664 -139C672.28 -139 679 -145.72 679 -154C679 -162.28 672.28 -169 664 -169C655.72 -169 649 -162.28 649 -154C649 -145.72 655.72 -139 664 -139Z" />
			<path id="Oval" class="shp25" d="M784 -139C792.28 -139 799 -145.72 799 -154C799 -162.28 792.28 -169 784 -169C775.72 -169 769 -162.28 769 -154C769 -145.72 775.72 -139 784 -139Z" />
			<path id="Oval" class="shp16" d="M744 -139C752.28 -139 759 -145.72 759 -154C759 -162.28 752.28 -169 744 -169C735.72 -169 729 -162.28 729 -154C729 -145.72 735.72 -139 744 -139Z" />
			<path id="Oval" class="shp22" d="M584 -139C592.28 -139 599 -145.72 599 -154C599 -162.28 592.28 -169 584 -169C575.72 -169 569 -162.28 569 -154C569 -145.72 575.72 -139 584 -139Z" />
			<path id="Oval" class="shp45" d="M864 -139C872.28 -139 879 -145.72 879 -154C879 -162.28 872.28 -169 864 -169C855.72 -169 849 -162.28 849 -154C849 -145.72 855.72 -139 864 -139Z" />
			<path id="Oval" class="shp27" d="M824 -139C832.28 -139 839 -145.72 839 -154C839 -162.28 832.28 -169 824 -169C815.72 -169 809 -162.28 809 -154C809 -145.72 815.72 -139 824 -139Z" />
		</g>
	</g>
</svg>