<svg xmlns="http://www.w3.org/2000/svg" viewBox="0 0 175 175" width="175" height="175">
	<defs>
		<clipPath clipPathUnits="userSpaceOnUse" id="cp1">
			<path d="M-468 -871L1132 -871L1132 329L-468 329Z" />
		</clipPath>
	</defs>
	<style>
		tspan { white-space:pre }
		.shp0 { fill: #9013fe } 
		.shp1 { fill: #bd10e0 } 
		.shp2 { fill: #ff00b6 } 
		.shp3 { fill: #e800ff } 
		.shp4 { fill: #ff0053 } 
		.shp5 { fill: #4a90e2 } 
		.shp6 { fill: #ffffff } 
		.shp7 { fill: #9210e0 } 
		.shp8 { fill: #ff008f } 
		.shp9 { fill: #f8e71c } 
		.shp10 { fill: #27cedb } 
		.shp11 { fill: #ffa7e6 } 
		.shp12 { fill: #ffcb74 } 
		.shp13 { fill: #fff683 } 
		.shp14 { fill: #ff0082 } 
		.shp15 { fill: #50e38c } 
		.txt16 { font-size: 100px;fill: #ffffff;font-family: "Leckerli One";font-weight: 400 } 
		.shp17 { fill: #50e3c2 } 
		.shp18 { fill: #f8c61c } 
	</style>
	<g id="Dribbble Shot" clip-path="url(#cp1)">
		<g id="Potion Bottle">
			<g id="Icon">
				<path id="Shape" fill-rule="evenodd" class="shp0" d="M127.46 119.39L127.46 147.35C127.46 159.29 117.77 169 105.86 169L58.13 169C46.21 169 36.52 159.29 36.52 147.35L36.52 119.39C36.52 113.89 39.73 108.81 44.7 106.47C44.73 106.45 44.77 106.44 44.8 106.42L60.76 99.88C63.62 98.7 65.47 95.94 65.47 92.84L65.47 88.43C65.47 87.22 66.45 86.24 67.66 86.24C68.88 86.24 69.86 87.22 69.86 88.43L69.86 92.84C69.86 97.73 66.94 102.09 62.42 103.94L46.52 110.47C43.11 112.1 40.91 115.6 40.91 119.39L40.91 147.35C40.91 156.87 48.63 164.61 58.13 164.61L105.86 164.61C115.35 164.61 123.08 156.87 123.08 147.35L123.08 119.39C123.08 115.6 120.88 112.1 117.47 110.47L113.99 109.04C113.16 108.7 112.62 107.89 112.62 107C112.63 106.1 113.17 105.3 114 104.97C119.51 102.74 123.08 97.46 123.08 91.51C123.08 83.51 116.58 77.01 108.6 77.01C104.84 77.01 101.21 78.5 98.51 81.12L98.51 84.77C98.51 85.98 97.53 86.97 96.32 86.97C95.11 86.97 94.13 85.98 94.13 84.77L94.13 70.56L89.6 70.56C88.38 70.56 87.4 69.58 87.4 68.37C87.4 67.15 88.38 66.17 89.6 66.17L96.03 66.17C96.05 66.17 96.06 66.17 96.08 66.17C96.1 66.17 96.12 66.17 96.14 66.17C97.12 66.17 97.93 65.36 97.93 64.37L97.93 55.33L95.03 55.33L94.73 60.22C94.73 60.23 94.73 60.25 94.73 60.26C94.58 62.18 92.96 63.68 91.04 63.68L72.36 63.68C70.44 63.68 68.82 62.18 68.67 60.26C68.67 60.25 68.67 60.23 68.67 60.22L68.37 55.33L66.06 55.33L66.06 64.37C66.06 65.36 66.86 66.17 67.85 66.17L81.99 66.17C83.2 66.17 84.19 67.15 84.19 68.37C84.19 69.58 83.2 70.56 81.99 70.56L69.86 70.56L69.86 79.64C69.86 80.86 68.88 81.84 67.66 81.84C66.45 81.84 65.47 80.86 65.47 79.64L65.47 70.09C63.24 69.15 61.67 66.94 61.67 64.37L61.67 54.75C59.77 53.82 58.45 51.87 58.45 49.62C58.45 46.47 61.01 43.9 64.15 43.9L67.52 43.9L66.89 35.82L66.08 25.41C65.96 23.76 66.52 22.12 67.65 20.91C68.77 19.7 70.35 19 72 19L91.4 19C93.05 19 94.63 19.7 95.75 20.91C96.87 22.12 97.44 23.76 97.32 25.41L96.89 30.96C96.82 31.75 96.34 32.45 95.61 32.79L93.34 33.83L95.18 34.7C96 35.09 96.5 35.95 96.43 36.86L95.88 43.9L99.24 43.9C102.39 43.9 104.95 46.47 104.95 49.62C104.95 51.63 103.89 53.4 102.32 54.42L102.32 64.37C102.32 66.94 100.74 69.15 98.51 70.09L98.51 75.55C101.51 73.65 105.01 72.61 108.6 72.61C119 72.61 127.46 81.09 127.46 91.51C127.46 97.64 124.56 103.22 119.8 106.72C124.47 109.17 127.46 114.08 127.46 119.39ZM70.46 25.07L70.53 26.03L80.24 26.03C81.45 26.03 82.43 27.01 82.43 28.23C82.43 29.44 81.45 30.42 80.24 30.42L70.87 30.42L71.28 35.68L74.39 35.68C75.6 35.68 76.58 36.67 76.58 37.88C76.58 39.09 75.6 40.08 74.39 40.08L71.62 40.08L71.92 43.9L91.48 43.9L91.94 38.03L88.39 36.35C87.4 35.88 86.77 34.88 86.78 33.79C86.79 32.7 87.43 31.7 88.42 31.25L92.61 29.33L92.94 25.07C92.98 24.63 92.83 24.21 92.53 23.89C92.24 23.57 91.83 23.39 91.4 23.39L72 23.39C71.57 23.39 71.16 23.57 70.86 23.89C70.57 24.21 70.42 24.63 70.46 25.07ZM90.63 55.33L72.76 55.33L73.01 59.28L90.39 59.28L90.63 55.33ZM99.24 50.93C99.97 50.93 100.56 50.34 100.56 49.62C100.56 48.89 99.97 48.3 99.24 48.3L64.15 48.3C63.43 48.3 62.84 48.89 62.84 49.62C62.84 50.34 63.43 50.93 64.15 50.93L99.24 50.93Z" />
				<path id="Shape" fill-rule="evenodd" class="shp1" d="M119.1 91.39C119.1 97.29 114.29 102.1 108.39 102.1C102.48 102.1 97.67 97.29 97.67 91.39C97.67 85.48 102.48 80.67 108.39 80.67C114.29 80.67 119.1 85.48 119.1 91.39ZM114.7 91.39C114.7 87.91 111.87 85.08 108.39 85.08C104.91 85.08 102.08 87.91 102.08 91.39C102.08 94.87 104.91 97.7 108.39 97.7C111.87 97.7 114.7 94.87 114.7 91.39Z" />
				<path id="Shape" fill-rule="evenodd" class="shp2" d="M119.62 145.44L119.62 147.22C119.62 154.9 113.34 161.16 105.61 161.16L57.85 161.16C50.13 161.16 43.84 154.9 43.84 147.22L43.84 132.98C43.84 131.92 44.3 130.92 45.11 130.24C45.92 129.55 46.98 129.25 48.03 129.41L54.68 130.44C54.67 130.25 54.67 130.05 54.67 129.86C54.67 124.64 58.93 120.39 64.18 120.39C69.42 120.39 73.68 124.64 73.68 129.86C73.68 131.05 73.46 132.21 73.04 133.29L76.48 133.82C78.28 134.1 80.08 134.23 81.89 134.22C82.2 127.19 88.05 121.56 95.19 121.56C101.03 121.56 106.04 125.25 107.82 130.59L115.43 129.41C116.48 129.25 117.55 129.55 118.35 130.24C119.16 130.92 119.62 131.93 119.62 132.98L119.62 136.7C119.62 137.91 118.64 138.88 117.43 138.88C116.22 138.88 115.23 137.91 115.23 136.7L115.23 133.86L87.66 138.14C83.72 138.75 79.74 138.75 75.81 138.14L48.23 133.86L48.23 147.22C48.23 152.5 52.55 156.79 57.85 156.79L105.61 156.79C110.92 156.79 115.23 152.5 115.23 147.22L115.23 145.44C115.23 144.23 116.22 143.25 117.43 143.25C118.64 143.25 119.62 144.23 119.62 145.44ZM86.31 133.91C86.53 133.88 86.76 133.86 86.98 133.82L103.39 131.28C102.01 128.08 98.84 125.93 95.19 125.93C90.57 125.93 86.76 129.43 86.31 133.91ZM59.05 129.86C59.05 130.3 59.11 130.73 59.22 131.15L68.5 132.58C69.01 131.78 69.3 130.84 69.3 129.86C69.3 127.05 67 124.76 64.17 124.76C61.35 124.76 59.05 127.05 59.05 129.86Z" />
				<path id="Shape" fill-rule="evenodd" class="shp3" d="M84.08 108.63C84.08 112.81 80.68 116.21 76.51 116.21C72.33 116.21 68.93 112.81 68.93 108.63C68.93 104.46 72.33 101.06 76.51 101.06C80.68 101.06 84.08 104.46 84.08 108.63ZM79.63 108.63C79.63 106.91 78.23 105.51 76.51 105.51C74.78 105.51 73.38 106.91 73.38 108.63C73.38 110.35 74.78 111.75 76.51 111.75C78.23 111.75 79.63 110.35 79.63 108.63Z" />
				<path id="Shape" fill-rule="evenodd" class="shp4" d="M76.77 147.31C76.77 151.49 73.37 154.89 69.19 154.89C65.01 154.89 61.61 151.49 61.61 147.31C61.61 143.13 65.01 139.73 69.19 139.73C73.37 139.73 76.77 143.13 76.77 147.31ZM72.31 147.31C72.31 145.59 70.91 144.19 69.19 144.19C67.47 144.19 66.07 145.59 66.07 147.31C66.07 149.03 67.47 150.43 69.19 150.43C70.91 150.43 72.31 149.03 72.31 147.31Z" />
				<path id="Shape" fill-rule="evenodd" class="shp5" d="M91.4 82.76C91.4 87.37 87.65 91.13 83.04 91.13C78.43 91.13 74.68 87.37 74.68 82.76C74.68 78.15 78.43 74.4 83.04 74.4C87.65 74.4 91.4 78.15 91.4 82.76ZM87 82.76C87 80.58 85.22 78.8 83.04 78.8C80.85 78.8 79.08 80.58 79.08 82.76C79.08 84.95 80.85 86.72 83.04 86.72C85.22 86.72 87 84.95 87 82.76Z" />
			</g>
		</g>
		<g id="Doble Terminated Crystal">
			<path id="Spacing" class="shp6" d="M257 23L407 23L407 173L257 173L257 23Z" />
			<g id="Icon">
				<path id="Shape" fill-rule="evenodd" class="shp7" d="M369.31 57.09L369.31 130.91C369.31 131.69 369 132.44 368.45 132.98L333.23 168.14C332.68 168.69 331.93 169 331.15 169C330.37 169 329.63 168.69 329.08 168.14L293.86 132.98C293.31 132.44 293 131.69 293 130.91L293 57.09C293 55.47 294.31 54.16 295.93 54.16L311.87 54.16L320.85 36.35L316.69 40.51C315.54 41.66 313.68 41.66 312.54 40.51C311.39 39.37 311.39 37.52 312.54 36.37L329.08 19.86C329.63 19.31 330.37 19 331.15 19C331.93 19 332.68 19.31 333.23 19.86L368.45 55.02C369 55.57 369.31 56.31 369.31 57.09ZM363.44 60.02L351.7 60.02L351.7 104.28C351.7 105.89 350.38 107.21 348.76 107.21C347.14 107.21 345.83 105.89 345.83 104.28L345.83 60.02L316.48 60.02L316.48 127.98L363.44 127.98L363.44 60.02ZM303.02 133.84L320.85 151.65L311.87 133.84L303.02 133.84ZM331.15 159.03L343.86 133.84L318.44 133.84L331.15 159.03ZM341.45 151.65L359.29 133.84L350.44 133.84L341.45 151.65ZM359.29 54.16L341.45 36.35L350.43 54.16L359.29 54.16ZM318.44 54.16L343.86 54.16L331.15 28.97L318.44 54.16ZM298.87 60.02L298.87 127.98L310.61 127.98L310.61 60.02L298.87 60.02Z" />
				<path id="Path" class="shp8" d="M305.28 50.88C306.06 50.88 306.84 50.56 307.41 49.94L307.41 49.94C308.48 48.76 308.39 46.95 307.22 45.88C306.04 44.81 304.22 44.9 303.16 46.07C302.09 47.25 302.17 49.07 303.35 50.13C303.9 50.63 304.59 50.88 305.28 50.88Z" />
				<path id="Path" class="shp8" d="M348.66 114.64C347.07 114.64 345.79 115.93 345.79 117.52C345.79 119.11 347.07 120.39 348.66 120.39C350.25 120.39 351.54 119.11 351.54 117.52L351.54 117.52C351.54 115.93 350.25 114.64 348.66 114.64Z" />
			</g>
		</g>
		<g id="Castle">
			<path id="Spacing" class="shp6" d="M507 19L657 19L657 169L507 169L507 19Z" />
			<g id="Icon">
				<path id="Path" class="shp9" d="M637 124C635.62 124 634.5 125.12 634.5 126.5L634.5 131.5C634.5 132.88 635.62 134 637 134C638.38 134 639.5 132.88 639.5 131.5L639.5 126.5C639.5 125.12 638.38 124 637 124Z" />
				<path id="Path" class="shp10" d="M568.38 63.74C569.62 64.36 571.12 63.85 571.74 62.62L579.5 47.09L579.5 61.5C579.5 62.88 580.62 64 582 64C583.38 64 584.5 62.88 584.5 61.5L584.5 47.09L592.26 62.62C592.7 63.5 593.58 64 594.5 64C594.88 64 595.26 63.92 595.62 63.74C596.85 63.12 597.36 61.62 596.74 60.38L584.5 35.91L584.5 24L597 24L597 29L589.5 29C588.12 29 587 30.12 587 31.5C587 32.88 588.12 34 589.5 34L599.5 34C600.88 34 602 32.88 602 31.5L602 21.5C602 20.12 600.88 19 599.5 19L582 19C580.62 19 579.5 20.12 579.5 21.5L579.5 35.91L567.26 60.38C566.64 61.62 567.15 63.12 568.38 63.74Z" />
				<path id="Path" class="shp5" d="M594.5 99C595.88 99 597 97.88 597 96.5L597 74L599.5 74C600.88 74 602 72.88 602 71.5C602 70.12 600.88 69 599.5 69L564.5 69C563.12 69 562 70.12 562 71.5C562 72.88 563.12 74 564.5 74L567 74L567 96.5C567 97.88 568.12 99 569.5 99C570.88 99 572 97.88 572 96.5L572 74L592 74L592 96.5C592 97.88 593.12 99 594.5 99Z" />
				<path id="Path" class="shp9" d="M579.5 86.5L579.5 91.5C579.5 92.88 580.62 94 582 94C583.38 94 584.5 92.88 584.5 91.5L584.5 86.5C584.5 85.12 583.38 84 582 84C580.62 84 579.5 85.12 579.5 86.5Z" />
				<path id="Path" class="shp5" d="M619.5 94L622 94L622 96.5C622 97.88 623.12 99 624.5 99C625.88 99 627 97.88 627 96.5L627 94L647 94L647 144C647 145.38 648.12 146.5 649.5 146.5C650.88 146.5 652 145.38 652 144L652 94L654.5 94C655.88 94 657 92.88 657 91.5C657 90.12 655.88 89 654.5 89L619.5 89C618.12 89 617 90.12 617 91.5C617 92.88 618.12 94 619.5 94Z" />
				<path id="Path" class="shp11" d="M627 44C627 45.38 628.12 46.5 629.5 46.5C630.88 46.5 632 45.38 632 44C633.38 44 634.5 42.88 634.5 41.5C634.5 40.12 633.38 39 632 39C632 37.62 630.88 36.5 629.5 36.5C628.12 36.5 627 37.62 627 39C625.62 39 624.5 40.12 624.5 41.5C624.5 42.88 625.62 44 627 44Z" />
				<path id="Path" class="shp10" d="M623.38 83.74C624.62 84.36 626.12 83.85 626.74 82.62L634.5 67.09L634.5 81.5C634.5 82.88 635.62 84 637 84C638.38 84 639.5 82.88 639.5 81.5L639.5 67.09L647.26 82.62C647.7 83.5 648.58 84 649.5 84C649.88 84 650.26 83.92 650.62 83.74C651.85 83.12 652.35 81.62 651.74 80.38L639.24 55.38C639.13 55.17 638.99 54.98 638.82 54.82C638.37 54.32 637.73 54 637 54C636.27 54 635.63 54.32 635.18 54.82C635.01 54.98 634.87 55.17 634.76 55.38L622.26 80.38C621.65 81.62 622.15 83.12 623.38 83.74Z" />
				<path id="Shape" fill-rule="evenodd" class="shp9" d="M597 144L597 166.5C597 167.88 595.88 169 594.5 169L569.5 169C568.12 169 567 167.88 567 166.5L567 144C567 135.73 573.73 129 582 129C590.27 129 597 135.73 597 144ZM592 159L572 159L572 164L592 164L592 159ZM592 149L572 149L572 154L592 154L592 149ZM592 144C592 138.49 587.52 134 582 134C576.49 134 572 138.48 572 144L592 144Z" />
				<path id="Path" class="shp9" d="M639.5 106.5C639.5 105.12 638.38 104 637 104C635.62 104 634.5 105.12 634.5 106.5L634.5 111.5C634.5 112.88 635.62 114 637 114C638.38 114 639.5 112.88 639.5 111.5L639.5 106.5Z" />
				<path id="Path" class="shp11" d="M557 26.5C557 27.88 558.12 29 559.5 29C560.88 29 562 27.88 562 26.5C563.38 26.5 564.5 25.38 564.5 24C564.5 22.62 563.38 21.5 562 21.5C562 20.12 560.88 19 559.5 19C558.12 19 557 20.12 557 21.5C555.62 21.5 554.5 22.62 554.5 24C554.5 25.38 555.62 26.5 557 26.5Z" />
				<path id="Path" class="shp9" d="M527 124C525.62 124 524.5 125.12 524.5 126.5L524.5 131.5C524.5 132.88 525.62 134 527 134C528.38 134 529.5 132.88 529.5 131.5L529.5 126.5C529.5 125.12 528.38 124 527 124Z" />
				<path id="Shape" fill-rule="evenodd" class="shp1" d="M562 156.5L562 166.5C562 167.88 560.88 169 559.5 169L509.5 169C508.12 169 507 167.88 507 166.5L507 156.5C507 153.74 509.24 151.5 512 151.5C512.91 151.5 513.76 151.75 514.5 152.17C515.97 151.32 518.03 151.32 519.5 152.17C520.97 151.32 523.03 151.32 524.5 152.17C525.97 151.32 528.03 151.32 529.5 152.17C530.97 151.32 533.03 151.32 534.5 152.17C535.97 151.32 538.03 151.32 539.5 152.17C540.97 151.32 543.03 151.32 544.5 152.17C545.97 151.32 548.03 151.32 549.5 152.17C550.97 151.32 553.03 151.32 554.5 152.17C555.23 151.75 556.09 151.5 557 151.5C559.76 151.5 562 153.74 562 156.5ZM557 164L557 156.5C557 157.88 555.88 159 554.5 159C553.12 159 552 157.88 552 156.5C552 157.88 550.88 159 549.5 159C548.12 159 547 157.88 547 156.5C547 157.88 545.88 159 544.5 159C543.12 159 542 157.88 542 156.5C542 157.88 540.88 159 539.5 159C538.12 159 537 157.88 537 156.5C537 157.88 535.88 159 534.5 159C533.12 159 532 157.88 532 156.5C532 157.88 530.88 159 529.5 159C528.12 159 527 157.88 527 156.5C527 157.88 525.88 159 524.5 159C523.12 159 522 157.88 522 156.5C522 157.88 520.88 159 519.5 159C518.12 159 517 157.88 517 156.5C517 157.88 515.88 159 514.5 159C513.12 159 512 157.88 512 156.5L512 164L557 164Z" />
				<path id="Shape" fill-rule="evenodd" class="shp1" d="M657 156.5L657 166.5C657 167.88 655.88 169 654.5 169L604.5 169C603.12 169 602 167.88 602 166.5L602 156.5C602 153.74 604.24 151.5 607 151.5C607.91 151.5 608.76 151.75 609.5 152.17C610.97 151.32 613.03 151.32 614.5 152.17C615.97 151.32 618.03 151.32 619.5 152.17C620.97 151.32 623.03 151.32 624.5 152.17C625.97 151.32 628.03 151.32 629.5 152.17C630.97 151.32 633.03 151.32 634.5 152.17C635.97 151.32 638.03 151.32 639.5 152.17C640.97 151.32 643.03 151.32 644.5 152.17C645.97 151.32 648.03 151.32 649.5 152.17C650.23 151.75 651.09 151.5 652 151.5C654.76 151.5 657 153.74 657 156.5ZM652 164L652 156.5C652 157.88 650.88 159 649.5 159C648.12 159 647 157.88 647 156.5C647 157.88 645.88 159 644.5 159C643.12 159 642 157.88 642 156.5C642 157.88 640.88 159 639.5 159C638.12 159 637 157.88 637 156.5C637 157.88 635.88 159 634.5 159C633.12 159 632 157.88 632 156.5C632 157.88 630.88 159 629.5 159C628.12 159 627 157.88 627 156.5C627 157.88 625.88 159 624.5 159C623.12 159 622 157.88 622 156.5C622 157.88 620.88 159 619.5 159C618.12 159 617 157.88 617 156.5C617 157.88 615.88 159 614.5 159C613.12 159 612 157.88 612 156.5C612 157.88 610.88 159 609.5 159C608.12 159 607 157.88 607 156.5L607 164L652 164Z" />
				<path id="Path" class="shp10" d="M513.38 83.74C514.62 84.36 516.12 83.85 516.74 82.62L524.5 67.09L524.5 81.5C524.5 82.88 525.62 84 527 84C528.38 84 529.5 82.88 529.5 81.5L529.5 67.09L537.26 82.62C537.7 83.5 538.58 84 539.5 84C539.88 84 540.26 83.92 540.62 83.74C541.85 83.12 542.36 81.62 541.74 80.38L529.24 55.38C529.13 55.17 528.99 54.98 528.82 54.82C528.37 54.32 527.73 54 527 54C526.27 54 525.63 54.32 525.18 54.82C525.01 54.98 524.87 55.17 524.76 55.38L512.26 80.38C511.65 81.62 512.15 83.12 513.38 83.74Z" />
				<path id="Path" class="shp2" d="M617 116.5L617 109L622 109L622 144C622 145.38 623.12 146.5 624.5 146.5C625.88 146.5 627 145.38 627 144L627 106.5C627 105.12 625.88 104 624.5 104L614.5 104C613.12 104 612 105.12 612 106.5L612 114L602 114L602 106.5C602 105.12 600.88 104 599.5 104L589.5 104C588.12 104 587 105.12 587 106.5L587 114L577 114L577 106.5C577 105.12 575.88 104 574.5 104L564.5 104C563.12 104 562 105.12 562 106.5L562 114L552 114L552 106.5C552 105.12 550.88 104 549.5 104L539.5 104C538.12 104 537 105.12 537 106.5L537 144C537 145.38 538.12 146.5 539.5 146.5C540.88 146.5 542 145.38 542 144L542 109L547 109L547 116.5C547 117.88 548.12 119 549.5 119L564.5 119C565.88 119 567 117.88 567 116.5L567 109L572 109L572 116.5C572 117.88 573.12 119 574.5 119L589.5 119C590.88 119 592 117.88 592 116.5L592 109L597 109L597 116.5C597 117.88 598.12 119 599.5 119L614.5 119C615.88 119 617 117.88 617 116.5Z" />
				<path id="Path" class="shp11" d="M509.5 34L512 34L512 36.5C512 37.88 513.12 39 514.5 39C515.88 39 517 37.88 517 36.5L517 34L519.5 34C520.88 34 522 32.88 522 31.5C522 30.12 520.88 29 519.5 29L517 29L517 26.5C517 25.12 515.88 24 514.5 24C513.12 24 512 25.12 512 26.5L512 29L509.5 29C508.12 29 507 30.12 507 31.5C507 32.88 508.12 34 509.5 34Z" />
				<path id="Path" class="shp5" d="M509.5 94L512 94L512 146.5C512 147.88 513.12 149 514.5 149C515.88 149 517 147.88 517 146.5L517 94L537 94L537 96.5C537 97.88 538.12 99 539.5 99C540.88 99 542 97.88 542 96.5L542 94L544.5 94C545.88 94 547 92.88 547 91.5C547 90.12 545.88 89 544.5 89L509.5 89C508.12 89 507 90.12 507 91.5C507 92.88 508.12 94 509.5 94Z" />
				<path id="Path" class="shp9" d="M529.5 106.5C529.5 105.12 528.38 104 527 104C525.62 104 524.5 105.12 524.5 106.5L524.5 111.5C524.5 112.88 525.62 114 527 114C528.38 114 529.5 112.88 529.5 111.5L529.5 106.5Z" />
			</g>
		</g>
		<g id="Crown">
			<path id="Spacing" class="shp6" d="M757 19L907 19L907 169L757 169L757 19Z" />
			<g id="Icon">
				<path id="Shape" fill-rule="evenodd" class="shp12" d="M900.63 99.06C904.36 100.49 907 104.85 907 110.14C907 116.64 903.03 121.72 897.97 121.72C897.13 121.72 896.3 121.58 895.51 121.3L894.5 125.67C896.36 126.26 897.71 128.01 897.71 130.06L897.71 134.04C897.71 136.58 895.64 138.65 893.1 138.65L869.57 138.65C868.35 138.65 867.37 137.66 867.37 136.45C867.37 135.23 868.35 134.25 869.57 134.25L893.1 134.25C893.22 134.25 893.31 134.15 893.31 134.04L893.31 130.06C893.31 129.95 893.22 129.85 893.1 129.85L770.9 129.85C770.78 129.85 770.69 129.95 770.69 130.06L770.69 134.04C770.69 134.15 770.78 134.25 770.9 134.25L860.01 134.25C861.23 134.25 862.21 135.23 862.21 136.45C862.21 137.66 861.23 138.65 860.01 138.65L770.9 138.65C768.36 138.65 766.29 136.58 766.29 134.04L766.29 130.06C766.29 128.01 767.64 126.26 769.5 125.67L768.49 121.3C767.7 121.58 766.87 121.72 766.03 121.72C760.96 121.72 757 116.64 757 110.14C757 104.85 759.64 100.49 763.37 99.06L760.18 85.24C759.51 82.32 762.93 80.19 765.23 82.12C767.22 83.79 770.32 86.02 773.75 87.16C776.24 87.98 778.05 89.8 778.83 92.29C779.71 95.05 779.18 98.42 777.51 100.66C776.61 101.88 776.8 103.5 777.95 104.36C779.23 105.31 780.84 105.8 782.72 105.8C785.98 105.8 787.76 98.65 788.13 91.46C785 91.77 782.43 90.74 780.94 88.53C778.88 85.45 781.91 79.51 788.82 67.61C790.59 64.56 792.27 61.68 793.25 59.66C793.72 58.68 794.64 58.03 795.71 57.91C796.79 57.79 797.83 58.23 798.5 59.07C800.95 62.16 806.65 70.19 806.65 78.13C806.65 80.97 806.95 84.27 807.5 87.41C807.7 88.61 806.9 89.74 805.71 89.95C804.51 90.16 803.37 89.36 803.17 88.16C802.58 84.78 802.25 81.22 802.25 78.13C802.25 72.58 798.52 66.55 796.26 63.41C795.26 65.29 793.97 67.51 792.62 69.82C791.06 72.5 784.57 83.36 784.69 86.21C785.65 87.42 787.69 87.16 788.85 86.89C790.79 86.43 792.63 87.92 792.59 89.91C792.45 96.01 791.21 110.2 782.72 110.2C779.87 110.2 777.38 109.42 775.33 107.89C772.25 105.6 771.65 101.18 773.98 98.04C774.7 97.07 775.16 95.24 774.64 93.62C774.28 92.48 773.52 91.71 772.37 91.33C769.71 90.45 767.26 89.06 765.25 87.66L772.09 117.33C772.09 117.34 772.09 117.34 772.09 117.35L773.96 125.45L890.04 125.45L891.91 117.35C891.91 117.34 891.91 117.34 891.91 117.33L898.75 87.66C896.74 89.06 894.29 90.45 891.63 91.33C890.48 91.71 889.72 92.48 889.36 93.62C888.84 95.24 889.3 97.07 890.02 98.04C892.35 101.18 891.75 105.6 888.67 107.89C886.62 109.42 884.13 110.2 881.28 110.2C872.79 110.2 871.55 96.01 871.42 89.91C871.37 87.92 873.21 86.43 875.15 86.89C876.31 87.16 878.35 87.42 879.32 86.2C879.34 85.74 879.14 83.87 875.91 77.82C875.33 76.75 875.74 75.42 876.81 74.84C877.88 74.27 879.21 74.68 879.78 75.75C883.61 82.92 884.5 86.38 883.06 88.53C881.57 90.74 879.01 91.76 875.87 91.46C876.24 98.65 878.02 105.8 881.28 105.8C883.16 105.8 884.77 105.31 886.05 104.36C887.2 103.5 887.39 101.88 886.49 100.66C884.83 98.42 884.29 95.05 885.17 92.29C885.95 89.8 887.76 87.98 890.25 87.16C893.68 86.02 896.78 83.79 898.77 82.12C901.07 80.2 904.49 82.32 903.82 85.24L900.63 99.06ZM766.03 117.32C766.58 117.32 767.07 117.16 767.49 116.94L764.38 103.46C762.65 104.51 761.39 107.15 761.39 110.14C761.39 114.04 763.52 117.32 766.03 117.32ZM897.97 117.32C900.48 117.32 902.61 114.04 902.61 110.14C902.61 107.15 901.35 104.51 899.62 103.46L896.51 116.94C896.93 117.16 897.42 117.32 897.97 117.32Z" />
				<path id="Path" class="shp13" d="M805.89 97.85C807.46 101.41 809.41 103.44 811.69 103.87C814.75 104.46 818.02 102.92 820.45 100.9C824.74 97.35 827.3 91.76 827.3 85.94L827.3 81.78C827.3 79.18 824.45 77.58 822.24 78.93C821.56 79.35 820.58 79.57 819.42 79.57C816.51 79.57 814.57 78.67 814.57 74.31C814.57 74.02 814.8 72.32 819.21 67.3C822.15 63.96 825.98 60.22 829.05 57.22C830.14 56.17 831.12 55.21 832 54.33C832.88 55.21 833.87 56.17 834.96 57.23C838.03 60.23 841.86 63.96 844.79 67.3C849.2 72.32 849.43 74.02 849.43 74.31C849.43 78.67 847.49 79.57 844.58 79.57C843.4 79.57 842.45 79.35 841.76 78.93C839.54 77.58 836.7 79.18 836.7 81.78L836.7 85.94C836.7 91.76 839.26 97.35 843.55 100.9C846.45 103.3 849.64 104.39 852.32 103.87C859.37 102.52 861.75 85.62 861.75 78.13C861.75 72.58 865.48 66.55 867.74 63.41C868.73 65.27 870 67.45 871.32 69.73C871.93 70.78 873.28 71.13 874.33 70.52C875.38 69.91 875.73 68.57 875.12 67.52C873.38 64.51 871.73 61.68 870.75 59.66C870.28 58.68 869.36 58.03 868.29 57.91C867.21 57.79 866.17 58.23 865.5 59.08C863.05 62.16 857.35 70.19 857.35 78.13C857.35 82.67 856.6 88.15 855.38 92.42C853.85 97.77 852.16 99.42 851.49 99.55C850.49 99.75 848.54 99.33 846.35 97.51C843.06 94.79 841.1 90.47 841.1 85.94L841.1 83.44C842.14 83.79 843.3 83.97 844.58 83.97C850.54 83.97 853.82 80.53 853.82 74.31C853.82 69.84 846.97 62.81 838.02 54.08C833.96 50.13 833.93 50.03 833.56 49.65C833.15 49.23 832.59 49 832 49C831.42 49 830.85 49.23 830.44 49.65C829.93 50.17 829.95 50.21 825.99 54.07C817.03 62.81 810.18 69.84 810.18 74.31C810.18 80.54 813.46 83.97 819.42 83.97C820.7 83.97 821.86 83.79 822.9 83.44L822.9 85.94C822.9 90.47 820.94 94.79 817.65 97.51C815.46 99.33 813.51 99.75 812.51 99.55C812.39 99.53 811.31 99.24 809.91 96.07C809.42 94.96 808.13 94.46 807.02 94.95C805.91 95.44 805.4 96.74 805.89 97.85L805.89 97.85Z" />
				<path id="Shape" fill-rule="evenodd" class="shp14" d="M832 97.27C837.06 97.27 841.17 102.47 841.17 108.85C841.17 115.24 837.06 120.43 832 120.43C826.94 120.43 822.83 115.24 822.83 108.85C822.83 102.47 826.94 97.27 832 97.27ZM827.23 108.85C827.23 112.74 829.41 116.03 832 116.03C834.59 116.03 836.77 112.74 836.77 108.85C836.77 104.96 834.59 101.67 832 101.67C829.41 101.67 827.23 104.96 827.23 108.85Z" />
				<path id="Shape" fill-rule="evenodd" class="shp15" d="M832 77.65C828.16 77.65 825.16 73.87 825.16 69.04C825.16 64.21 828.16 60.43 832 60.43C835.84 60.43 838.84 64.21 838.84 69.04C838.84 73.87 835.84 77.65 832 77.65ZM829.55 69.04C829.55 71.45 830.84 73.25 832 73.25C833.16 73.25 834.45 71.45 834.45 69.04C834.45 66.63 833.16 64.83 832 64.83C830.84 64.83 829.55 66.63 829.55 69.04Z" />
			</g>
		</g>
		<text id="Fantasy Icon Set" style="transform: matrix(1,0,0,1,-243,-615)" >
			<tspan x="0" y="0" class="txt16">Fantasy Icon Set</tspan>
		</text>
		<g id="Color Pallet">
			<path id="Oval" class="shp5" d="M697 -633C705.28 -633 712 -639.72 712 -648C712 -656.28 705.28 -663 697 -663C688.72 -663 682 -656.28 682 -648C682 -639.72 688.72 -633 697 -633Z" />
			<path id="Oval" class="shp1" d="M617 -633C625.28 -633 632 -639.72 632 -648C632 -656.28 625.28 -663 617 -663C608.72 -663 602 -656.28 602 -648C602 -639.72 608.72 -633 617 -633Z" />
			<path id="Oval" class="shp0" d="M657 -633C665.28 -633 672 -639.72 672 -648C672 -656.28 665.28 -663 657 -663C648.72 -663 642 -656.28 642 -648C642 -639.72 648.72 -633 657 -633Z" />
			<path id="Oval" class="shp17" d="M777 -633C785.28 -633 792 -639.72 792 -648C792 -656.28 785.28 -663 777 -663C768.72 -663 762 -656.28 762 -648C762 -639.72 768.72 -633 777 -633Z" />
			<path id="Oval" class="shp10" d="M737 -633C745.28 -633 752 -639.72 752 -648C752 -656.28 745.28 -663 737 -663C728.72 -663 722 -656.28 722 -648C722 -639.72 728.72 -633 737 -633Z" />
			<path id="Oval" class="shp2" d="M577 -633C585.28 -633 592 -639.72 592 -648C592 -656.28 585.28 -663 577 -663C568.72 -663 562 -656.28 562 -648C562 -639.72 568.72 -633 577 -633Z" />
			<path id="Oval" class="shp18" d="M857 -633C865.28 -633 872 -639.72 872 -648C872 -656.28 865.28 -663 857 -663C848.72 -663 842 -656.28 842 -648C842 -639.72 848.72 -633 857 -633Z" />
			<path id="Oval" class="shp15" d="M817 -633C825.28 -633 832 -639.72 832 -648C832 -656.28 825.28 -663 817 -663C808.72 -663 802 -656.28 802 -648C802 -639.72 808.72 -633 817 -633Z" />
		</g>
	</g>
</svg>