<svg xmlns="http://www.w3.org/2000/svg" viewBox="0 0 175 175" width="175" height="175">
	<defs>
		<clipPath clipPathUnits="userSpaceOnUse" id="cp1">
			<path d="M-713 -624L887 -624L887 576L-713 576Z" />
		</clipPath>
	</defs>
	<style>
		tspan { white-space:pre }
		.shp0 { fill: #23f5a5 } 
		.shp1 { fill: #8a64ff } 
		.shp2 { fill: #f831e3 } 
		.shp3 { fill: #c713ef } 
		.shp4 { fill: #5b90ff } 
		.shp5 { fill: #fff35a } 
		.shp6 { fill: #a0fff5 } 
		.shp7 { fill: #ffffff } 
		.shp8 { fill: #50e3c2 } 
		.shp9 { fill: #bd10e0 } 
		.shp10 { fill: #4a90e2 } 
		.shp11 { fill: #ff00f5 } 
		.shp12 { fill: #50e38c } 
		.shp13 { fill: #f8e71c } 
		.shp14 { fill: #9013fe } 
		.shp15 { fill: #ff00b6 } 
		.shp16 { fill: #e800ff } 
		.shp17 { fill: #ff0053 } 
		.shp18 { fill: #3c57ff } 
		.shp19 { fill: #27cedb } 
		.shp20 { fill: #0f7cfa } 
		.shp21 { fill: #00ffc6 } 
		.shp22 { fill: #9210e0 } 
		.shp23 { fill: #ff008f } 
		.shp24 { fill: #ffa7e6 } 
		.shp25 { fill: #ffcb74 } 
		.shp26 { fill: #fff683 } 
		.shp27 { fill: #ff0082 } 
		.txt28 { font-size: 100px;fill: #ffffff;font-family: "Leckerli One";font-weight: 400 } 
		.shp29 { fill: #f8c61c } 
	</style>
	<g id="Dribbble Shot" clip-path="url(#cp1)">
		<g id="Sparkle Smoke">
			<g id="Icon">
				<path id="Path" class="shp0" d="M125.52 129.02C124.21 129.02 123.16 130.02 123.16 131.26L123.16 137.2C123.16 138.43 124.21 139.44 125.52 139.44C126.82 139.44 127.88 138.43 127.88 137.2L127.88 131.26C127.88 130.02 126.82 129.02 125.52 129.02Z" />
				<path id="Path" class="shp0" d="M125.52 145.17C124.21 145.17 123.16 146.17 123.16 147.41L123.16 153.34C123.16 154.58 124.21 155.58 125.52 155.58C126.82 155.58 127.88 154.58 127.88 153.34L127.88 147.41C127.88 146.17 126.82 145.17 125.52 145.17Z" />
				<path id="Path" class="shp0" d="M136.63 139.96L130.66 139.96C129.41 139.96 128.4 141.01 128.4 142.3C128.4 143.6 129.41 144.65 130.66 144.65L136.63 144.65C137.88 144.65 138.89 143.6 138.89 142.3C138.89 141.01 137.88 139.96 136.63 139.96Z" />
				<path id="Path" class="shp0" d="M120.9 139.96L114.93 139.96C113.68 139.96 112.67 141.01 112.67 142.3C112.67 143.6 113.68 144.65 114.93 144.65L120.9 144.65C122.15 144.65 123.16 143.6 123.16 142.3C123.16 141.01 122.15 139.96 120.9 139.96Z" />
				<path id="Path" class="shp1" d="M116.65 74.82C115.45 74.57 114.27 75.35 114.02 76.55C113.18 80.58 110.47 83.64 105.48 86.2C103.72 87.09 101.74 87.89 99.64 88.6C100.42 87.19 101.02 85.56 101.42 83.65C102.43 78.74 101.46 74.81 98.54 71.97C94.94 68.47 88.53 66.93 79.48 67.4C73.3 67.72 68.07 68.87 67.43 69.01C60.29 70.28 54.18 70.81 48.92 70.81C27.6 70.81 20.52 62.03 18.31 57.56C16.3 53.51 15.93 48.8 17.24 43.95C18.54 39.15 21.47 34.48 25.49 30.81C26.4 29.98 26.46 28.57 25.63 27.66C24.8 26.75 23.39 26.69 22.48 27.52C17.83 31.76 14.44 37.18 12.93 42.79C11.33 48.7 11.8 54.49 14.3 59.53C17.43 65.86 23.56 70.53 32.02 73.04C41.51 75.86 53.7 75.98 68.26 73.39C68.3 73.38 68.34 73.37 68.38 73.37C74.04 72.06 89.95 69.83 95.43 75.16C97.21 76.89 97.74 79.38 97.04 82.75C95.6 89.75 90.58 92.48 78.53 92.8C77.3 92.83 76.32 93.85 76.36 95.08C76.39 96.29 77.38 97.25 78.59 97.25C78.61 97.25 78.63 97.25 78.65 97.25C82.25 97.15 85.81 96.87 89.01 96.07C102.81 93.01 116.04 88.85 118.39 77.45C118.64 76.24 117.86 75.07 116.65 74.82Z" />
				<path id="Path" class="shp2" d="M120.16 48C114.24 47.24 107.63 46.86 100.51 46.86C94.07 46.86 87.64 47.33 81.42 47.79C73.12 48.4 64.6 49.03 59.88 47.91C59.75 47.86 59.62 47.83 59.47 47.8C58.23 47.46 57.28 46.98 56.73 46.32C56.49 46.04 55.78 45.19 56.44 42.71C58.55 34.8 69.02 31.1 77.43 29.38C87.01 27.43 96.19 27.57 96.28 27.58C97.35 27.59 98.3 26.85 98.52 25.81C98.74 24.76 98.17 23.71 97.18 23.3C96.79 23.14 87.6 19.42 74.87 17.33C63.03 15.39 45.81 14.61 31.07 21.87C29.96 22.42 29.51 23.75 30.06 24.85C30.61 25.95 31.96 26.4 33.07 25.85C46.7 19.13 62.88 19.88 74.04 21.7C77.74 22.3 81.15 23.06 84.11 23.82C72.17 25.21 55.37 29.35 52.1 41.58C51.67 43.19 51.57 44.66 51.81 45.97C47.82 44.22 44.56 40.88 44.56 34.28C44.56 33.05 43.55 32.06 42.32 32.06C41.08 32.06 40.08 33.05 40.08 34.28C40.08 47.34 50.25 51.23 58.82 52.2C61.16 52.77 64.01 52.98 67.25 52.98C71.49 52.98 76.4 52.62 81.76 52.22C87.89 51.77 94.23 51.3 100.51 51.3C107.44 51.3 113.86 51.67 119.58 52.41C120.8 52.56 121.93 51.71 122.09 50.49C122.25 49.27 121.38 48.16 120.16 48Z" />
				<path id="Path" class="shp3" d="M158.03 67.34C155.19 62.51 150.81 58.47 145.01 55.33C143.93 54.75 142.57 55.15 141.99 56.22C141.4 57.3 141.8 58.65 142.88 59.23C152.58 64.47 157.49 72.32 157.49 82.55C157.49 93.98 151.38 103.95 141.14 109.2C140.05 109.77 139.62 111.11 140.19 112.19C140.58 112.96 141.36 113.4 142.17 113.4C142.52 113.4 142.87 113.32 143.19 113.15C154.94 107.11 161.96 95.68 161.96 82.55C161.96 76.9 160.64 71.78 158.03 67.34Z" />
				<path id="Path" class="shp4" d="M135.68 113.69C135.4 112.49 134.19 111.75 132.99 112.03C130.11 112.71 127.07 113.05 123.96 113.05C112.71 113.05 102.6 113.05 95.96 116.13C88.86 118.49 80.51 123.7 78.04 131.38C77.66 132.55 78.31 133.8 79.49 134.17C79.71 134.25 79.94 134.28 80.17 134.28C81.12 134.28 82 133.68 82.3 132.73C83.08 130.33 85.05 127.44 88.49 124.86C87.74 128.12 88.1 132.05 89.59 136.77C91.05 141.42 90.73 145.63 88.64 149.27C85.37 154.96 78.5 158.28 74.17 159.88C75.79 152.86 74.81 146.43 71.31 141.47C66.99 135.36 59.19 131.99 49.34 131.99C44.25 131.99 39.8 130.66 36.49 128.14C33.58 125.93 31.6 122.8 30.9 119.33C30.2 115.79 30.84 112.05 32.72 108.8C34.83 105.14 38.4 102.19 43.03 100.29C46.41 98.9 50.33 97.99 55.02 97.52C56.25 97.4 57.15 96.31 57.02 95.08C56.9 93.86 55.8 92.97 54.57 93.09C49.44 93.61 45.1 94.62 41.32 96.17C28.8 101.32 24.86 111.95 26.51 120.19C27.42 124.73 30 128.81 33.77 131.68C37.87 134.79 43.25 136.44 49.34 136.44C57.69 136.44 64.19 139.13 67.64 144.03C70.96 148.73 71.35 155.29 68.72 162.5C68.45 163.26 68.61 164.12 69.16 164.73C69.59 165.21 70.2 165.48 70.83 165.48C71 165.48 71.17 165.46 71.33 165.42C71.95 165.28 86.57 161.82 92.52 151.5C95.26 146.73 95.71 141.33 93.86 135.44C92.07 129.75 92.15 125.69 94.12 123.03C94.99 121.85 96.25 120.92 97.81 120.19C97.82 120.19 97.83 120.19 97.84 120.18C103.61 117.5 113.55 117.5 123.96 117.5C127.42 117.5 130.8 117.12 134.02 116.36C135.22 116.08 135.97 114.88 135.68 113.69Z" />
				<path id="Shape" fill-rule="evenodd" class="shp5" d="M156.71 40.22C156.71 42.42 155.2 44.27 153.02 44.7L147.68 45.78C143.29 46.67 139.87 50.06 138.98 54.42L137.9 59.73C137.46 61.89 135.6 63.4 133.38 63.4C131.16 63.4 129.31 61.89 128.87 59.73L127.78 54.42C126.89 50.06 123.48 46.67 119.09 45.78L113.74 44.7C111.57 44.27 110.05 42.42 110.05 40.22C110.05 38.02 111.57 36.17 113.74 35.73L119.09 34.66C123.48 33.77 126.89 30.38 127.78 26.02L128.87 20.71C129.31 18.55 131.16 17.04 133.38 17.04C135.6 17.04 137.46 18.55 137.9 20.71L138.98 26.02C139.87 30.38 143.29 33.77 147.68 34.66L153.02 35.73C155.2 36.17 156.71 38.02 156.71 40.22ZM152.2 40.12C152.2 40.13 152.18 40.12 152.13 40.11L146.79 39.03C140.62 37.79 135.83 33.03 134.58 26.9L133.5 21.6C133.49 21.55 133.47 21.52 133.47 21.52C133.44 21.5 133.33 21.5 133.29 21.52C133.29 21.52 133.28 21.54 133.27 21.6L132.18 26.9C130.94 33.03 126.14 37.79 119.98 39.03L114.63 40.11C114.59 40.12 114.56 40.13 114.55 40.13C114.53 40.16 114.53 40.28 114.56 40.31C114.56 40.31 114.56 40.31 114.56 40.31C114.57 40.31 114.59 40.32 114.63 40.33L119.98 41.41C126.14 42.65 130.93 47.41 132.18 53.53L133.27 58.84C133.28 58.89 133.29 58.92 133.29 58.92C133.33 58.94 133.44 58.94 133.48 58.92C133.48 58.92 133.49 58.89 133.5 58.84L134.58 53.53C135.83 47.41 140.62 42.65 146.79 41.41L152.13 40.33C152.18 40.32 152.21 40.31 152.21 40.31C152.23 40.28 152.23 40.16 152.2 40.12Z" />
				<path id="Shape" fill-rule="evenodd" class="shp6" d="M90.13 106.89C90.13 109.09 88.61 110.93 86.43 111.37L81.09 112.45C76.7 113.33 73.28 116.72 72.39 121.09L71.31 126.4C70.87 128.55 69.01 130.06 66.79 130.06C64.57 130.06 62.72 128.55 62.28 126.4L61.19 121.09C60.3 116.72 56.89 113.33 52.5 112.45L47.15 111.37C44.98 110.93 43.46 109.09 43.46 106.89C43.46 104.68 44.98 102.84 47.15 102.4L52.5 101.32C56.89 100.44 60.3 97.05 61.19 92.68L62.28 87.38C62.72 85.22 64.57 83.71 66.79 83.71C69.01 83.71 70.87 85.22 71.31 87.38L72.39 92.68C73.28 97.05 76.7 100.44 81.09 101.32L86.43 102.4C88.61 102.84 90.13 104.68 90.13 106.89ZM85.61 106.79C85.62 106.79 85.59 106.78 85.54 106.77L80.2 105.69C74.03 104.45 69.24 99.69 67.99 93.57L66.91 88.26C66.9 88.21 66.88 88.19 66.88 88.18C66.85 88.16 66.74 88.16 66.7 88.19C66.7 88.19 66.69 88.21 66.68 88.26L65.59 93.57C64.34 99.69 59.55 104.45 53.39 105.69L48.04 106.77C48 106.78 47.97 106.79 47.96 106.8C47.94 106.83 47.94 106.94 47.97 106.98C47.97 106.98 47.97 106.98 47.97 106.98C47.98 106.98 48 106.99 48.04 107L53.39 108.07C59.55 109.32 64.34 114.08 65.59 120.2L66.68 125.51C66.69 125.56 66.7 125.58 66.7 125.59C66.74 125.61 66.85 125.61 66.89 125.58C66.89 125.58 66.9 125.56 66.91 125.51L67.99 120.2C69.24 114.08 74.03 109.32 80.2 108.07L85.54 107C85.59 106.99 85.62 106.98 85.62 106.97C85.64 106.94 85.64 106.83 85.61 106.79Z" />
			</g>
		</g>
		<g id="Round Potion">
			<path id="Spacing" class="shp7" d="M-488 266L-338 266L-338 416L-488 416L-488 266Z" />
			<g id="Icon">
				<path id="Shape" fill-rule="evenodd" class="shp8" d="M-431.97 320.21L-431.97 303.5C-436.09 303.5 -439.45 300.14 -439.45 296C-439.45 291.87 -436.09 288.5 -431.97 288.5L-427.59 288.5L-430.56 275.13C-431.05 272.9 -430.52 270.59 -429.09 268.81C-427.66 267.02 -425.53 266 -423.25 266L-400.75 266C-398.47 266 -396.34 267.02 -394.91 268.81C-393.48 270.59 -392.95 272.89 -393.44 275.13L-396.41 288.5L-392.03 288.5C-387.91 288.5 -384.55 291.86 -384.55 296C-384.55 300.13 -387.91 303.5 -392.03 303.5L-392.03 320.21C-373.79 328.18 -362.09 345.97 -362.09 366C-362.09 393.57 -384.48 416 -412 416C-439.52 416 -461.91 393.57 -461.91 366C-461.91 345.97 -450.21 328.18 -431.97 320.21ZM-412 411C-387.23 411 -367.08 390.81 -367.08 366C-367.08 365.07 -367.13 364.14 -367.18 363.22L-370.01 364.71C-376.73 368.25 -384.04 370.02 -391.35 370.02C-399.09 370.02 -406.81 368.04 -413.8 364.1C-425.24 357.65 -439.18 357.13 -451.07 362.69L-456.9 365.41C-456.9 365.61 -456.92 365.8 -456.92 366C-456.92 390.81 -436.77 411 -412 411ZM-367.83 357.91C-367.85 357.79 -367.87 357.67 -367.9 357.54C-369.44 357.28 -371.08 357.17 -373.55 357.03C-380.16 356.65 -386.67 359.13 -391.43 363.85L-392.57 364.98C-385.66 365.19 -378.7 363.64 -372.34 360.29L-367.83 357.91ZM-422.48 288.5L-401.53 288.5L-398.32 274.04C-398.15 273.3 -398.33 272.53 -398.81 271.94C-399.28 271.34 -399.99 271 -400.75 271L-423.25 271C-424.01 271 -424.72 271.34 -425.19 271.94C-425.67 272.53 -425.85 273.3 -425.68 274.04L-422.48 288.5ZM-434.46 296C-434.46 297.38 -433.34 298.5 -431.97 298.5L-392.03 298.5C-390.66 298.5 -389.54 297.38 -389.54 296C-389.54 294.62 -390.66 293.5 -392.03 293.5L-431.97 293.5C-433.34 293.5 -434.46 294.62 -434.46 296ZM-418.94 303.5L-417.44 311L-406.56 311L-405.06 303.5L-418.94 303.5ZM-428.55 324.19C-443.8 330.26 -454.26 343.81 -456.47 359.7L-453.18 358.16C-439.83 351.92 -424.2 352.51 -411.36 359.75C-407.43 361.96 -403.25 363.46 -398.97 364.28L-394.94 360.3C-389.17 354.57 -381.25 351.55 -373.26 352.04C-371.74 352.13 -370.43 352.21 -369.19 352.33C-373.18 339.7 -382.62 329.3 -395.45 324.19C-396.4 323.82 -397.03 322.89 -397.03 321.87L-397.03 303.5L-399.97 303.5L-402.07 313.99C-402.3 315.16 -403.32 316 -404.51 316L-419.49 316C-420.68 316 -421.7 315.16 -421.94 313.99L-424.03 303.5L-426.97 303.5L-426.97 321.87C-426.97 322.89 -427.6 323.82 -428.55 324.19Z" />
				<path id="Shape" fill-rule="evenodd" class="shp9" d="M-369.4 301.02C-363.93 301.02 -359.47 305.47 -359.47 310.95C-359.47 316.42 -363.93 320.88 -369.4 320.88C-374.88 320.88 -379.33 316.42 -379.33 310.95C-379.33 305.47 -374.88 301.02 -369.4 301.02ZM-374.37 310.95C-374.37 313.69 -372.14 315.91 -369.4 315.91C-366.67 315.91 -364.44 313.69 -364.44 310.95C-364.44 308.21 -366.67 305.98 -369.4 305.98C-372.14 305.98 -374.37 308.21 -374.37 310.95Z" />
				<path id="Shape" fill-rule="evenodd" class="shp10" d="M-352.16 266C-345.24 266 -339.61 271.63 -339.61 278.54C-339.61 285.46 -345.24 291.09 -352.16 291.09C-359.07 291.09 -364.7 285.46 -364.7 278.54C-364.7 271.63 -359.07 266 -352.16 266ZM-359.68 278.54C-359.68 282.69 -356.31 286.07 -352.16 286.07C-348.01 286.07 -344.63 282.69 -344.63 278.54C-344.63 274.39 -348.01 271.02 -352.16 271.02C-356.31 271.02 -359.68 274.39 -359.68 278.54Z" />
				<path id="Shape" fill-rule="evenodd" class="shp11" d="M-446.76 298.4C-446.76 303.88 -451.21 308.33 -456.69 308.33C-462.16 308.33 -466.62 303.88 -466.62 298.4C-466.62 292.93 -462.16 288.47 -456.69 288.47C-451.21 288.47 -446.76 292.93 -446.76 298.4ZM-451.72 298.4C-451.72 295.67 -453.95 293.44 -456.69 293.44C-459.42 293.44 -461.65 295.67 -461.65 298.4C-461.65 301.14 -459.42 303.37 -456.69 303.37C-453.95 303.37 -451.72 301.14 -451.72 298.4Z" />
				<path id="Shape" fill-rule="evenodd" class="shp12" d="M-479.42 343.35C-483.6 343.35 -487 339.95 -487 335.77C-487 331.6 -483.6 328.2 -479.42 328.2C-475.24 328.2 -471.84 331.6 -471.84 335.77C-471.84 339.95 -475.24 343.35 -479.42 343.35ZM-479.42 338.3C-478.03 338.3 -476.9 337.17 -476.9 335.77C-476.9 334.38 -478.03 333.25 -479.42 333.25C-480.82 333.25 -481.95 334.38 -481.95 335.77C-481.95 337.17 -480.82 338.3 -479.42 338.3Z" />
				<path id="Path" class="shp13" d="M-443.77 352.24C-439.55 342.51 -431.3 335.31 -421.15 332.49L-422.47 327.67C-434.07 330.9 -443.49 339.12 -448.32 350.23L-443.77 352.24Z" />
			</g>
		</g>
		<g id="Potion Bottle">
			<path id="Spacing" class="shp7" d="M-238 266L-88 266L-88 416L-238 416L-238 266Z" />
			<g id="Icon">
				<path id="Shape" fill-rule="evenodd" class="shp14" d="M-117.54 366.39L-117.54 394.35C-117.54 406.29 -127.23 416 -139.14 416L-186.87 416C-198.79 416 -208.48 406.29 -208.48 394.35L-208.48 366.39C-208.48 360.89 -205.27 355.81 -200.3 353.47C-200.27 353.45 -200.23 353.44 -200.2 353.42L-184.24 346.88C-181.38 345.7 -179.53 342.94 -179.53 339.84L-179.53 335.43C-179.53 334.22 -178.55 333.24 -177.34 333.24C-176.12 333.24 -175.14 334.22 -175.14 335.43L-175.14 339.84C-175.14 344.73 -178.06 349.09 -182.58 350.94L-198.48 357.47C-201.89 359.1 -204.09 362.6 -204.09 366.39L-204.09 394.35C-204.09 403.87 -196.37 411.61 -186.87 411.61L-139.14 411.61C-129.65 411.61 -121.92 403.87 -121.92 394.35L-121.92 366.39C-121.92 362.6 -124.12 359.1 -127.53 357.47L-131.01 356.04C-131.84 355.7 -132.38 354.89 -132.38 354C-132.37 353.1 -131.83 352.3 -131 351.97C-125.49 349.74 -121.92 344.46 -121.92 338.51C-121.92 330.51 -128.42 324.01 -136.4 324.01C-140.16 324.01 -143.79 325.5 -146.49 328.12L-146.49 331.77C-146.49 332.98 -147.47 333.97 -148.68 333.97C-149.89 333.97 -150.87 332.98 -150.87 331.77L-150.87 317.56L-155.4 317.56C-156.62 317.56 -157.6 316.58 -157.6 315.37C-157.6 314.15 -156.62 313.17 -155.4 313.17L-148.97 313.17C-148.95 313.17 -148.94 313.17 -148.92 313.17C-148.9 313.17 -148.88 313.17 -148.86 313.17C-147.88 313.17 -147.07 312.36 -147.07 311.37L-147.07 302.33L-149.97 302.33L-150.27 307.22C-150.27 307.23 -150.27 307.25 -150.27 307.26C-150.42 309.18 -152.04 310.68 -153.96 310.68L-172.64 310.68C-174.56 310.68 -176.18 309.18 -176.33 307.26C-176.33 307.25 -176.33 307.23 -176.33 307.22L-176.63 302.33L-178.94 302.33L-178.94 311.37C-178.94 312.36 -178.14 313.17 -177.15 313.17L-163.01 313.17C-161.8 313.17 -160.81 314.15 -160.81 315.37C-160.81 316.58 -161.8 317.56 -163.01 317.56L-175.14 317.56L-175.14 326.64C-175.14 327.86 -176.12 328.84 -177.34 328.84C-178.55 328.84 -179.53 327.86 -179.53 326.64L-179.53 317.09C-181.76 316.15 -183.33 313.94 -183.33 311.37L-183.33 301.75C-185.23 300.82 -186.55 298.87 -186.55 296.62C-186.55 293.47 -183.99 290.9 -180.85 290.9L-177.48 290.9L-178.11 282.82L-178.92 272.41C-179.04 270.76 -178.48 269.12 -177.35 267.91C-176.23 266.7 -174.65 266 -173 266L-153.6 266C-151.95 266 -150.37 266.7 -149.25 267.91C-148.13 269.12 -147.56 270.76 -147.68 272.41L-148.11 277.96C-148.18 278.75 -148.66 279.45 -149.39 279.79L-151.66 280.83L-149.82 281.7C-149 282.09 -148.5 282.95 -148.57 283.86L-149.12 290.9L-145.76 290.9C-142.61 290.9 -140.05 293.47 -140.05 296.62C-140.05 298.63 -141.11 300.4 -142.68 301.42L-142.68 311.37C-142.68 313.94 -144.26 316.15 -146.49 317.09L-146.49 322.55C-143.49 320.65 -139.99 319.61 -136.4 319.61C-126 319.61 -117.54 328.09 -117.54 338.51C-117.54 344.64 -120.44 350.22 -125.2 353.72C-120.53 356.17 -117.54 361.08 -117.54 366.39ZM-174.54 272.07L-174.47 273.03L-164.76 273.03C-163.55 273.03 -162.57 274.01 -162.57 275.23C-162.57 276.44 -163.55 277.42 -164.76 277.42L-174.13 277.42L-173.72 282.68L-170.61 282.68C-169.4 282.68 -168.42 283.67 -168.42 284.88C-168.42 286.09 -169.4 287.08 -170.61 287.08L-173.38 287.08L-173.08 290.9L-153.52 290.9L-153.06 285.03L-156.61 283.35C-157.6 282.88 -158.23 281.88 -158.22 280.79C-158.21 279.7 -157.57 278.7 -156.58 278.25L-152.39 276.33L-152.06 272.07C-152.02 271.63 -152.17 271.21 -152.47 270.89C-152.76 270.57 -153.17 270.39 -153.6 270.39L-173 270.39C-173.43 270.39 -173.84 270.57 -174.14 270.89C-174.43 271.21 -174.58 271.63 -174.54 272.07ZM-154.37 302.33L-172.24 302.33L-171.99 306.28L-154.61 306.28L-154.37 302.33ZM-145.76 297.93C-145.03 297.93 -144.44 297.34 -144.44 296.62C-144.44 295.89 -145.03 295.3 -145.76 295.3L-180.85 295.3C-181.57 295.3 -182.16 295.89 -182.16 296.62C-182.16 297.34 -181.57 297.93 -180.85 297.93L-145.76 297.93Z" />
				<path id="Shape" fill-rule="evenodd" class="shp9" d="M-125.9 338.39C-125.9 344.29 -130.71 349.1 -136.61 349.1C-142.52 349.1 -147.33 344.29 -147.33 338.39C-147.33 332.48 -142.52 327.67 -136.61 327.67C-130.71 327.67 -125.9 332.48 -125.9 338.39ZM-130.3 338.39C-130.3 334.91 -133.13 332.08 -136.61 332.08C-140.09 332.08 -142.92 334.91 -142.92 338.39C-142.92 341.87 -140.09 344.7 -136.61 344.7C-133.13 344.7 -130.3 341.87 -130.3 338.39Z" />
				<path id="Shape" fill-rule="evenodd" class="shp15" d="M-125.38 392.44L-125.38 394.22C-125.38 401.9 -131.66 408.16 -139.39 408.16L-187.15 408.16C-194.87 408.16 -201.16 401.9 -201.16 394.22L-201.16 379.98C-201.16 378.92 -200.7 377.92 -199.89 377.24C-199.08 376.55 -198.02 376.25 -196.97 376.41L-190.32 377.44C-190.33 377.25 -190.33 377.05 -190.33 376.86C-190.33 371.64 -186.07 367.39 -180.82 367.39C-175.58 367.39 -171.32 371.64 -171.32 376.86C-171.32 378.05 -171.54 379.21 -171.96 380.29L-168.52 380.82C-166.72 381.1 -164.92 381.23 -163.11 381.22C-162.8 374.19 -156.95 368.56 -149.81 368.56C-143.97 368.56 -138.96 372.25 -137.18 377.59L-129.57 376.41C-128.52 376.25 -127.45 376.55 -126.65 377.24C-125.84 377.92 -125.38 378.93 -125.38 379.98L-125.38 383.7C-125.38 384.91 -126.36 385.88 -127.57 385.88C-128.78 385.88 -129.77 384.91 -129.77 383.7L-129.77 380.86L-157.34 385.14C-161.28 385.75 -165.26 385.75 -169.19 385.14L-196.77 380.86L-196.77 394.22C-196.77 399.5 -192.45 403.79 -187.15 403.79L-139.39 403.79C-134.08 403.79 -129.77 399.5 -129.77 394.22L-129.77 392.44C-129.77 391.23 -128.78 390.25 -127.57 390.25C-126.36 390.25 -125.38 391.23 -125.38 392.44ZM-158.69 380.91C-158.47 380.88 -158.24 380.86 -158.02 380.82L-141.61 378.28C-142.99 375.08 -146.16 372.93 -149.81 372.93C-154.43 372.93 -158.24 376.43 -158.69 380.91ZM-185.95 376.86C-185.95 377.3 -185.89 377.73 -185.78 378.15L-176.5 379.58C-175.99 378.78 -175.7 377.84 -175.7 376.86C-175.7 374.05 -178 371.76 -180.83 371.76C-183.65 371.76 -185.95 374.05 -185.95 376.86Z" />
				<path id="Shape" fill-rule="evenodd" class="shp16" d="M-160.92 355.63C-160.92 359.81 -164.32 363.21 -168.49 363.21C-172.67 363.21 -176.07 359.81 -176.07 355.63C-176.07 351.46 -172.67 348.06 -168.49 348.06C-164.32 348.06 -160.92 351.46 -160.92 355.63ZM-165.37 355.63C-165.37 353.91 -166.77 352.51 -168.49 352.51C-170.22 352.51 -171.62 353.91 -171.62 355.63C-171.62 357.35 -170.22 358.75 -168.49 358.75C-166.77 358.75 -165.37 357.35 -165.37 355.63Z" />
				<path id="Shape" fill-rule="evenodd" class="shp17" d="M-168.23 394.31C-168.23 398.49 -171.63 401.89 -175.81 401.89C-179.99 401.89 -183.39 398.49 -183.39 394.31C-183.39 390.13 -179.99 386.73 -175.81 386.73C-171.63 386.73 -168.23 390.13 -168.23 394.31ZM-172.69 394.31C-172.69 392.59 -174.09 391.19 -175.81 391.19C-177.53 391.19 -178.93 392.59 -178.93 394.31C-178.93 396.03 -177.53 397.43 -175.81 397.43C-174.09 397.43 -172.69 396.03 -172.69 394.31Z" />
				<path id="Shape" fill-rule="evenodd" class="shp10" d="M-153.6 329.76C-153.6 334.37 -157.35 338.13 -161.96 338.13C-166.57 338.13 -170.32 334.37 -170.32 329.76C-170.32 325.15 -166.57 321.4 -161.96 321.4C-157.35 321.4 -153.6 325.15 -153.6 329.76ZM-158 329.76C-158 327.58 -159.78 325.8 -161.96 325.8C-164.15 325.8 -165.92 327.58 -165.92 329.76C-165.92 331.95 -164.15 333.72 -161.96 333.72C-159.78 333.72 -158 331.95 -158 329.76Z" />
			</g>
		</g>
		<g id="Cauldren">
			<path id="Spacing" class="shp7" d="M512 16L662 16L662 166L512 166L512 16Z" />
			<g id="Icon">
				<path id="Shape" fill-rule="evenodd" class="shp8" d="M606.91 25.09C606.91 20.08 612.01 16 618.27 16C624.54 16 629.64 20.08 629.64 25.09C629.64 30.1 624.54 34.18 618.27 34.18C612.01 34.18 606.91 30.1 606.91 25.09ZM612.59 25.09C612.59 27.6 615.14 29.64 618.27 29.64C621.41 29.64 623.95 27.6 623.95 25.09C623.95 22.58 621.41 20.55 618.27 20.55C615.14 20.55 612.59 22.58 612.59 25.09Z" />
				<path id="Shape" fill-rule="evenodd" class="shp13" d="M529.64 25.09C529.64 20.08 534.73 16 541 16C547.27 16 552.36 20.08 552.36 25.09C552.36 30.1 547.27 34.18 541 34.18C534.73 34.18 529.64 30.1 529.64 25.09ZM535.32 25.09C535.32 27.6 537.87 29.64 541 29.64C544.13 29.64 546.68 27.6 546.68 25.09C546.68 22.58 544.13 20.55 541 20.55C537.87 20.55 535.32 22.58 535.32 25.09Z" />
				<path id="Shape" fill-rule="evenodd" class="shp18" d="M588.73 38.73C588.73 33.71 592.81 29.64 597.82 29.64C602.83 29.64 606.91 33.71 606.91 38.73C606.91 43.74 602.83 47.82 597.82 47.82C592.81 47.82 588.73 43.74 588.73 38.73ZM593.92 38.73C593.92 40.88 595.67 42.62 597.82 42.62C599.97 42.62 601.71 40.88 601.71 38.73C601.71 36.58 599.97 34.83 597.82 34.83C595.67 34.83 593.92 36.58 593.92 38.73Z" />
				<path id="Shape" fill-rule="evenodd" class="shp19" d="M556.91 29.64C556.91 24.62 560.99 20.55 566 20.55C571.01 20.55 575.09 24.62 575.09 29.64C575.09 34.65 571.01 38.73 566 38.73C560.99 38.73 556.91 34.65 556.91 29.64ZM562.1 29.64C562.1 31.78 563.85 33.53 566 33.53C568.15 33.53 569.9 31.78 569.9 29.64C569.9 27.49 568.15 25.74 566 25.74C563.85 25.74 562.1 27.49 562.1 29.64Z" />
				<path id="Shape" fill-rule="evenodd" class="shp20" d="M644.05 150.29C647.1 153.27 647.1 158.11 644.05 161.09C642.52 162.58 640.52 163.32 638.51 163.32C636.51 163.32 634.5 162.58 632.98 161.09L626.17 154.45C614.85 161.73 601.18 166 586.45 166C572.38 166 559.27 162.09 548.26 155.39L542.41 161.09C540.88 162.58 538.88 163.32 536.88 163.32C534.87 163.32 532.87 162.58 531.34 161.09C528.29 158.11 528.29 153.27 531.34 150.29L535.9 145.85C523.6 133.92 516 117.69 516 99.82C516 89.78 518.37 80.15 522.99 71.15L518.05 63.13C517.23 61.79 517.21 60.11 518 58.75C518.78 57.39 520.27 56.55 521.87 56.55L524.2 56.55C525.37 52.16 529.42 48.91 534.27 48.91C536.38 48.91 538.43 49.55 540.15 50.7C542.58 47.97 546.1 46.36 549.92 46.36C551.42 46.36 552.89 46.61 554.28 47.1C556.91 42.05 562.26 38.73 568.19 38.73C575.2 38.73 581.13 43.2 583.1 49.46C585.81 48.55 588.94 48.82 591.45 50.17C594.05 46.27 598.52 43.82 603.42 43.82C608.31 43.82 612.78 46.27 615.39 50.17C618.73 48.36 623.11 48.59 626.26 50.7C628.69 47.97 632.21 46.36 636.03 46.36C642.34 46.36 647.6 50.74 648.82 56.55L651.04 56.55C652.64 56.55 654.12 57.39 654.91 58.75C655.7 60.11 655.68 61.79 654.86 63.13L649.92 71.15C654.54 80.15 656.91 89.78 656.91 99.82C656.91 117.09 649.82 132.83 638.24 144.63L644.05 150.29ZM628.64 56.55L643.42 56.55C642.34 53.58 639.44 51.45 636.03 51.45C633.05 51.45 630.37 53.1 629.04 55.75L628.64 56.55ZM615.78 56.55L624.91 56.55L624.59 56.12C622.68 53.56 618.6 53.36 616.45 55.78L615.78 56.55ZM594.26 56.55L612.57 56.55L612.01 54.95C610.74 51.33 607.29 48.91 603.42 48.91C599.55 48.91 596.09 51.33 594.82 54.95L594.26 56.55ZM581.62 56.55L591.05 56.55L590.38 55.78C588.49 53.65 585.07 53.45 582.94 55.35L581.62 56.55ZM542.53 56.55L578.7 56.55L578.57 53.59C578.34 48.11 573.78 43.82 568.19 43.82C563.55 43.82 559.44 46.89 558.18 51.29L557.22 54.66L554.23 52.72C552.94 51.89 551.46 51.45 549.92 51.45C546.94 51.45 544.26 53.1 542.93 55.75L542.53 56.55ZM529.75 56.55L538.8 56.55L538.48 56.12C537.47 54.77 535.94 54 534.27 54C532.34 54 530.65 55.02 529.75 56.55ZM523.22 61.64L525.81 65.85L525.81 65.85L527.91 69.27L644.99 69.27L647.1 65.85L647.1 65.85L649.69 61.64L523.22 61.64ZM542.93 151.81C542.15 151.22 541.37 150.63 540.62 150.02C540.32 149.78 540.01 149.56 539.72 149.32L535.03 153.89C534.01 154.88 534.01 156.5 535.03 157.49C536.05 158.48 537.71 158.48 538.72 157.49L543.83 152.5C543.53 152.28 543.24 152.03 542.93 151.81ZM586.45 160.91C601.03 160.91 614.51 156.41 625.38 148.81C626.39 148.11 627.36 147.37 628.32 146.62C628.83 146.22 629.33 145.81 629.83 145.4C630.44 144.89 631.03 144.37 631.61 143.84C643.97 132.72 651.69 117.1 651.69 99.82C651.69 90.93 649.69 82.37 645.75 74.36L527.15 74.36C523.22 82.37 521.22 90.93 521.22 99.82C521.22 117.41 529.21 133.28 541.96 144.43C542.94 145.3 543.95 146.15 544.99 146.95C545.32 147.2 545.66 147.44 545.98 147.68C546.82 148.3 547.67 148.9 548.53 149.48C559.23 156.66 572.32 160.91 586.45 160.91ZM640.35 153.89L634.52 148.2C634.3 148.39 634.06 148.56 633.84 148.75C632.95 149.51 632.04 150.25 631.11 150.97C630.9 151.13 630.71 151.31 630.49 151.47L636.67 157.49C637.69 158.48 639.34 158.48 640.36 157.49C641.38 156.5 641.38 154.88 640.35 153.89Z" />
				<path id="Path" class="shp21" d="M586.1 143.03C562.88 143.03 543.99 125.86 543.99 104.76C543.99 103.43 542.81 102.36 541.36 102.36C539.9 102.36 538.73 103.43 538.73 104.76C538.73 128.5 559.98 147.82 586.1 147.82C587.55 147.82 588.73 146.75 588.73 145.43C588.73 144.1 587.55 143.03 586.1 143.03Z" />
			</g>
		</g>
		<g id="Doble Terminated Crystal">
			<path id="Spacing" class="shp7" d="M12 270L162 270L162 420L12 420L12 270Z" />
			<g id="Icon">
				<path id="Shape" fill-rule="evenodd" class="shp22" d="M124.31 304.09L124.31 377.91C124.31 378.69 124 379.44 123.45 379.98L88.23 415.14C87.68 415.69 86.93 416 86.15 416C85.37 416 84.63 415.69 84.08 415.14L48.86 379.98C48.31 379.44 48 378.69 48 377.91L48 304.09C48 302.47 49.31 301.16 50.93 301.16L66.87 301.16L75.85 283.35L71.69 287.51C70.54 288.66 68.68 288.66 67.54 287.51C66.39 286.37 66.39 284.52 67.54 283.37L84.08 266.86C84.63 266.31 85.37 266 86.15 266C86.93 266 87.68 266.31 88.23 266.86L123.45 302.02C124 302.57 124.31 303.31 124.31 304.09ZM118.44 307.02L106.7 307.02L106.7 351.28C106.7 352.89 105.38 354.21 103.76 354.21C102.14 354.21 100.83 352.89 100.83 351.28L100.83 307.02L71.48 307.02L71.48 374.98L118.44 374.98L118.44 307.02ZM58.02 380.84L75.85 398.65L66.87 380.84L58.02 380.84ZM86.15 406.03L98.86 380.84L73.44 380.84L86.15 406.03ZM96.45 398.65L114.29 380.84L105.44 380.84L96.45 398.65ZM114.29 301.16L96.45 283.35L105.43 301.16L114.29 301.16ZM73.44 301.16L98.86 301.16L86.15 275.97L73.44 301.16ZM53.87 307.02L53.87 374.98L65.61 374.98L65.61 307.02L53.87 307.02Z" />
				<path id="Path" class="shp23" d="M60.28 297.88C61.06 297.88 61.84 297.56 62.41 296.94L62.41 296.94C63.48 295.76 63.39 293.95 62.22 292.88C61.04 291.81 59.22 291.9 58.16 293.07C57.09 294.25 57.17 296.07 58.35 297.13C58.9 297.63 59.59 297.88 60.28 297.88Z" />
				<path id="Path" class="shp23" d="M103.66 361.64C102.07 361.64 100.79 362.93 100.79 364.52C100.79 366.11 102.07 367.39 103.66 367.39C105.25 367.39 106.54 366.11 106.54 364.52L106.54 364.52C106.54 362.93 105.25 361.64 103.66 361.64Z" />
			</g>
		</g>
		<g id="Castle">
			<path id="Spacing" class="shp7" d="M262 266L412 266L412 416L262 416L262 266Z" />
			<g id="Icon">
				<path id="Path" class="shp13" d="M392 371C390.62 371 389.5 372.12 389.5 373.5L389.5 378.5C389.5 379.88 390.62 381 392 381C393.38 381 394.5 379.88 394.5 378.5L394.5 373.5C394.5 372.12 393.38 371 392 371Z" />
				<path id="Path" class="shp19" d="M323.38 310.74C324.62 311.36 326.12 310.85 326.74 309.62L334.5 294.09L334.5 308.5C334.5 309.88 335.62 311 337 311C338.38 311 339.5 309.88 339.5 308.5L339.5 294.09L347.26 309.62C347.7 310.5 348.58 311 349.5 311C349.88 311 350.26 310.92 350.62 310.74C351.85 310.12 352.36 308.62 351.74 307.38L339.5 282.91L339.5 271L352 271L352 276L344.5 276C343.12 276 342 277.12 342 278.5C342 279.88 343.12 281 344.5 281L354.5 281C355.88 281 357 279.88 357 278.5L357 268.5C357 267.12 355.88 266 354.5 266L337 266C335.62 266 334.5 267.12 334.5 268.5L334.5 282.91L322.26 307.38C321.64 308.62 322.15 310.12 323.38 310.74Z" />
				<path id="Path" class="shp10" d="M349.5 346C350.88 346 352 344.88 352 343.5L352 321L354.5 321C355.88 321 357 319.88 357 318.5C357 317.12 355.88 316 354.5 316L319.5 316C318.12 316 317 317.12 317 318.5C317 319.88 318.12 321 319.5 321L322 321L322 343.5C322 344.88 323.12 346 324.5 346C325.88 346 327 344.88 327 343.5L327 321L347 321L347 343.5C347 344.88 348.12 346 349.5 346Z" />
				<path id="Path" class="shp13" d="M334.5 333.5L334.5 338.5C334.5 339.88 335.62 341 337 341C338.38 341 339.5 339.88 339.5 338.5L339.5 333.5C339.5 332.12 338.38 331 337 331C335.62 331 334.5 332.12 334.5 333.5Z" />
				<path id="Path" class="shp10" d="M374.5 341L377 341L377 343.5C377 344.88 378.12 346 379.5 346C380.88 346 382 344.88 382 343.5L382 341L402 341L402 391C402 392.38 403.12 393.5 404.5 393.5C405.88 393.5 407 392.38 407 391L407 341L409.5 341C410.88 341 412 339.88 412 338.5C412 337.12 410.88 336 409.5 336L374.5 336C373.12 336 372 337.12 372 338.5C372 339.88 373.12 341 374.5 341Z" />
				<path id="Path" class="shp24" d="M382 291C382 292.38 383.12 293.5 384.5 293.5C385.88 293.5 387 292.38 387 291C388.38 291 389.5 289.88 389.5 288.5C389.5 287.12 388.38 286 387 286C387 284.62 385.88 283.5 384.5 283.5C383.12 283.5 382 284.62 382 286C380.62 286 379.5 287.12 379.5 288.5C379.5 289.88 380.62 291 382 291Z" />
				<path id="Path" class="shp19" d="M378.38 330.74C379.62 331.36 381.12 330.85 381.74 329.62L389.5 314.09L389.5 328.5C389.5 329.88 390.62 331 392 331C393.38 331 394.5 329.88 394.5 328.5L394.5 314.09L402.26 329.62C402.7 330.5 403.58 331 404.5 331C404.88 331 405.26 330.92 405.62 330.74C406.85 330.12 407.35 328.62 406.74 327.38L394.24 302.38C394.13 302.17 393.99 301.98 393.82 301.82C393.37 301.32 392.73 301 392 301C391.27 301 390.63 301.32 390.18 301.82C390.01 301.98 389.87 302.17 389.76 302.38L377.26 327.38C376.65 328.62 377.15 330.12 378.38 330.74Z" />
				<path id="Shape" fill-rule="evenodd" class="shp13" d="M352 391L352 413.5C352 414.88 350.88 416 349.5 416L324.5 416C323.12 416 322 414.88 322 413.5L322 391C322 382.73 328.73 376 337 376C345.27 376 352 382.73 352 391ZM347 406L327 406L327 411L347 411L347 406ZM347 396L327 396L327 401L347 401L347 396ZM347 391C347 385.49 342.52 381 337 381C331.49 381 327 385.48 327 391L347 391Z" />
				<path id="Path" class="shp13" d="M394.5 353.5C394.5 352.12 393.38 351 392 351C390.62 351 389.5 352.12 389.5 353.5L389.5 358.5C389.5 359.88 390.62 361 392 361C393.38 361 394.5 359.88 394.5 358.5L394.5 353.5Z" />
				<path id="Path" class="shp24" d="M312 273.5C312 274.88 313.12 276 314.5 276C315.88 276 317 274.88 317 273.5C318.38 273.5 319.5 272.38 319.5 271C319.5 269.62 318.38 268.5 317 268.5C317 267.12 315.88 266 314.5 266C313.12 266 312 267.12 312 268.5C310.62 268.5 309.5 269.62 309.5 271C309.5 272.38 310.62 273.5 312 273.5Z" />
				<path id="Path" class="shp13" d="M282 371C280.62 371 279.5 372.12 279.5 373.5L279.5 378.5C279.5 379.88 280.62 381 282 381C283.38 381 284.5 379.88 284.5 378.5L284.5 373.5C284.5 372.12 283.38 371 282 371Z" />
				<path id="Shape" fill-rule="evenodd" class="shp9" d="M317 403.5L317 413.5C317 414.88 315.88 416 314.5 416L264.5 416C263.12 416 262 414.88 262 413.5L262 403.5C262 400.74 264.24 398.5 267 398.5C267.91 398.5 268.76 398.75 269.5 399.17C270.97 398.32 273.03 398.32 274.5 399.17C275.97 398.32 278.03 398.32 279.5 399.17C280.97 398.32 283.03 398.32 284.5 399.17C285.97 398.32 288.03 398.32 289.5 399.17C290.97 398.32 293.03 398.32 294.5 399.17C295.97 398.32 298.03 398.32 299.5 399.17C300.97 398.32 303.03 398.32 304.5 399.17C305.97 398.32 308.03 398.32 309.5 399.17C310.23 398.75 311.09 398.5 312 398.5C314.76 398.5 317 400.74 317 403.5ZM312 411L312 403.5C312 404.88 310.88 406 309.5 406C308.12 406 307 404.88 307 403.5C307 404.88 305.88 406 304.5 406C303.12 406 302 404.88 302 403.5C302 404.88 300.88 406 299.5 406C298.12 406 297 404.88 297 403.5C297 404.88 295.88 406 294.5 406C293.12 406 292 404.88 292 403.5C292 404.88 290.88 406 289.5 406C288.12 406 287 404.88 287 403.5C287 404.88 285.88 406 284.5 406C283.12 406 282 404.88 282 403.5C282 404.88 280.88 406 279.5 406C278.12 406 277 404.88 277 403.5C277 404.88 275.88 406 274.5 406C273.12 406 272 404.88 272 403.5C272 404.88 270.88 406 269.5 406C268.12 406 267 404.88 267 403.5L267 411L312 411Z" />
				<path id="Shape" fill-rule="evenodd" class="shp9" d="M412 403.5L412 413.5C412 414.88 410.88 416 409.5 416L359.5 416C358.12 416 357 414.88 357 413.5L357 403.5C357 400.74 359.24 398.5 362 398.5C362.91 398.5 363.76 398.75 364.5 399.17C365.97 398.32 368.03 398.32 369.5 399.17C370.97 398.32 373.03 398.32 374.5 399.17C375.97 398.32 378.03 398.32 379.5 399.17C380.97 398.32 383.03 398.32 384.5 399.17C385.97 398.32 388.03 398.32 389.5 399.17C390.97 398.32 393.03 398.32 394.5 399.17C395.97 398.32 398.03 398.32 399.5 399.17C400.97 398.32 403.03 398.32 404.5 399.17C405.23 398.75 406.09 398.5 407 398.5C409.76 398.5 412 400.74 412 403.5ZM407 411L407 403.5C407 404.88 405.88 406 404.5 406C403.12 406 402 404.88 402 403.5C402 404.88 400.88 406 399.5 406C398.12 406 397 404.88 397 403.5C397 404.88 395.88 406 394.5 406C393.12 406 392 404.88 392 403.5C392 404.88 390.88 406 389.5 406C388.12 406 387 404.88 387 403.5C387 404.88 385.88 406 384.5 406C383.12 406 382 404.88 382 403.5C382 404.88 380.88 406 379.5 406C378.12 406 377 404.88 377 403.5C377 404.88 375.88 406 374.5 406C373.12 406 372 404.88 372 403.5C372 404.88 370.88 406 369.5 406C368.12 406 367 404.88 367 403.5C367 404.88 365.88 406 364.5 406C363.12 406 362 404.88 362 403.5L362 411L407 411Z" />
				<path id="Path" class="shp19" d="M268.38 330.74C269.62 331.36 271.12 330.85 271.74 329.62L279.5 314.09L279.5 328.5C279.5 329.88 280.62 331 282 331C283.38 331 284.5 329.88 284.5 328.5L284.5 314.09L292.26 329.62C292.7 330.5 293.58 331 294.5 331C294.88 331 295.26 330.92 295.62 330.74C296.85 330.12 297.36 328.62 296.74 327.38L284.24 302.38C284.13 302.17 283.99 301.98 283.82 301.82C283.37 301.32 282.73 301 282 301C281.27 301 280.63 301.32 280.18 301.82C280.01 301.98 279.87 302.17 279.76 302.38L267.26 327.38C266.65 328.62 267.15 330.12 268.38 330.74Z" />
				<path id="Path" class="shp15" d="M372 363.5L372 356L377 356L377 391C377 392.38 378.12 393.5 379.5 393.5C380.88 393.5 382 392.38 382 391L382 353.5C382 352.12 380.88 351 379.5 351L369.5 351C368.12 351 367 352.12 367 353.5L367 361L357 361L357 353.5C357 352.12 355.88 351 354.5 351L344.5 351C343.12 351 342 352.12 342 353.5L342 361L332 361L332 353.5C332 352.12 330.88 351 329.5 351L319.5 351C318.12 351 317 352.12 317 353.5L317 361L307 361L307 353.5C307 352.12 305.88 351 304.5 351L294.5 351C293.12 351 292 352.12 292 353.5L292 391C292 392.38 293.12 393.5 294.5 393.5C295.88 393.5 297 392.38 297 391L297 356L302 356L302 363.5C302 364.88 303.12 366 304.5 366L319.5 366C320.88 366 322 364.88 322 363.5L322 356L327 356L327 363.5C327 364.88 328.12 366 329.5 366L344.5 366C345.88 366 347 364.88 347 363.5L347 356L352 356L352 363.5C352 364.88 353.12 366 354.5 366L369.5 366C370.88 366 372 364.88 372 363.5Z" />
				<path id="Path" class="shp24" d="M264.5 281L267 281L267 283.5C267 284.88 268.12 286 269.5 286C270.88 286 272 284.88 272 283.5L272 281L274.5 281C275.88 281 277 279.88 277 278.5C277 277.12 275.88 276 274.5 276L272 276L272 273.5C272 272.12 270.88 271 269.5 271C268.12 271 267 272.12 267 273.5L267 276L264.5 276C263.12 276 262 277.12 262 278.5C262 279.88 263.12 281 264.5 281Z" />
				<path id="Path" class="shp10" d="M264.5 341L267 341L267 393.5C267 394.88 268.12 396 269.5 396C270.88 396 272 394.88 272 393.5L272 341L292 341L292 343.5C292 344.88 293.12 346 294.5 346C295.88 346 297 344.88 297 343.5L297 341L299.5 341C300.88 341 302 339.88 302 338.5C302 337.12 300.88 336 299.5 336L264.5 336C263.12 336 262 337.12 262 338.5C262 339.88 263.12 341 264.5 341Z" />
				<path id="Path" class="shp13" d="M284.5 353.5C284.5 352.12 283.38 351 282 351C280.62 351 279.5 352.12 279.5 353.5L279.5 358.5C279.5 359.88 280.62 361 282 361C283.38 361 284.5 359.88 284.5 358.5L284.5 353.5Z" />
			</g>
		</g>
		<g id="Crown">
			<path id="Spacing" class="shp7" d="M512 266L662 266L662 416L512 416L512 266Z" />
			<g id="Icon">
				<path id="Shape" fill-rule="evenodd" class="shp25" d="M655.63 346.06C659.36 347.49 662 351.85 662 357.14C662 363.64 658.03 368.72 652.97 368.72C652.13 368.72 651.3 368.58 650.51 368.3L649.5 372.67C651.36 373.26 652.71 375.01 652.71 377.06L652.71 381.04C652.71 383.58 650.64 385.65 648.1 385.65L624.57 385.65C623.35 385.65 622.37 384.66 622.37 383.45C622.37 382.23 623.35 381.25 624.57 381.25L648.1 381.25C648.22 381.25 648.31 381.15 648.31 381.04L648.31 377.06C648.31 376.95 648.22 376.85 648.1 376.85L525.9 376.85C525.78 376.85 525.69 376.95 525.69 377.06L525.69 381.04C525.69 381.15 525.78 381.25 525.9 381.25L615.01 381.25C616.23 381.25 617.21 382.23 617.21 383.45C617.21 384.66 616.23 385.65 615.01 385.65L525.9 385.65C523.36 385.65 521.29 383.58 521.29 381.04L521.29 377.06C521.29 375.01 522.64 373.26 524.5 372.67L523.49 368.3C522.7 368.58 521.87 368.72 521.03 368.72C515.96 368.72 512 363.64 512 357.14C512 351.85 514.64 347.49 518.37 346.06L515.18 332.24C514.51 329.32 517.93 327.19 520.23 329.12C522.22 330.79 525.32 333.02 528.75 334.16C531.24 334.98 533.05 336.8 533.83 339.29C534.71 342.05 534.18 345.42 532.51 347.66C531.61 348.88 531.8 350.5 532.95 351.36C534.23 352.31 535.84 352.8 537.72 352.8C540.98 352.8 542.76 345.65 543.13 338.46C540 338.77 537.43 337.74 535.94 335.53C533.88 332.45 536.91 326.51 543.82 314.61C545.59 311.56 547.27 308.68 548.25 306.66C548.72 305.68 549.64 305.03 550.71 304.91C551.79 304.79 552.83 305.23 553.5 306.07C555.95 309.16 561.65 317.19 561.65 325.13C561.65 327.97 561.95 331.27 562.5 334.41C562.7 335.61 561.9 336.74 560.71 336.95C559.51 337.16 558.37 336.36 558.17 335.16C557.58 331.78 557.25 328.22 557.25 325.13C557.25 319.58 553.52 313.55 551.26 310.41C550.26 312.29 548.97 314.51 547.62 316.82C546.06 319.5 539.57 330.36 539.69 333.21C540.65 334.42 542.69 334.16 543.85 333.89C545.79 333.43 547.63 334.92 547.59 336.91C547.45 343.01 546.21 357.2 537.72 357.2C534.87 357.2 532.38 356.42 530.33 354.89C527.25 352.6 526.65 348.18 528.98 345.04C529.7 344.07 530.16 342.24 529.64 340.62C529.28 339.48 528.52 338.71 527.37 338.33C524.71 337.45 522.26 336.06 520.25 334.66L527.09 364.33C527.09 364.34 527.09 364.34 527.09 364.35L528.96 372.45L645.04 372.45L646.91 364.35C646.91 364.34 646.91 364.34 646.91 364.33L653.75 334.66C651.74 336.06 649.29 337.45 646.63 338.33C645.48 338.71 644.72 339.48 644.36 340.62C643.84 342.24 644.3 344.07 645.02 345.04C647.35 348.18 646.75 352.6 643.67 354.89C641.62 356.42 639.13 357.2 636.28 357.2C627.79 357.2 626.55 343.01 626.42 336.91C626.37 334.92 628.21 333.43 630.15 333.89C631.31 334.16 633.35 334.42 634.32 333.2C634.34 332.74 634.14 330.87 630.91 324.82C630.33 323.75 630.74 322.42 631.81 321.84C632.88 321.27 634.21 321.68 634.78 322.75C638.61 329.92 639.5 333.38 638.06 335.53C636.57 337.74 634.01 338.76 630.87 338.46C631.24 345.65 633.02 352.8 636.28 352.8C638.16 352.8 639.77 352.31 641.05 351.36C642.2 350.5 642.39 348.88 641.49 347.66C639.83 345.42 639.29 342.05 640.17 339.29C640.95 336.8 642.76 334.98 645.25 334.16C648.68 333.02 651.78 330.79 653.77 329.12C656.07 327.2 659.49 329.32 658.82 332.24L655.63 346.06ZM521.03 364.32C521.58 364.32 522.07 364.16 522.49 363.94L519.38 350.46C517.65 351.51 516.39 354.15 516.39 357.14C516.39 361.04 518.52 364.32 521.03 364.32ZM652.97 364.32C655.48 364.32 657.61 361.04 657.61 357.14C657.61 354.15 656.35 351.51 654.62 350.46L651.51 363.94C651.93 364.16 652.42 364.32 652.97 364.32Z" />
				<path id="Path" class="shp26" d="M560.89 344.85C562.46 348.41 564.41 350.44 566.69 350.87C569.75 351.46 573.02 349.92 575.45 347.9C579.74 344.35 582.3 338.76 582.3 332.94L582.3 328.78C582.3 326.18 579.45 324.58 577.24 325.93C576.56 326.35 575.58 326.57 574.42 326.57C571.51 326.57 569.57 325.67 569.57 321.31C569.57 321.02 569.8 319.32 574.21 314.3C577.15 310.96 580.98 307.22 584.05 304.22C585.14 303.17 586.12 302.21 587 301.33C587.88 302.21 588.87 303.17 589.96 304.23C593.03 307.23 596.86 310.96 599.79 314.3C604.2 319.32 604.43 321.02 604.43 321.31C604.43 325.67 602.49 326.57 599.58 326.57C598.4 326.57 597.45 326.35 596.76 325.93C594.54 324.58 591.7 326.18 591.7 328.78L591.7 332.94C591.7 338.76 594.26 344.35 598.55 347.9C601.45 350.3 604.64 351.39 607.32 350.87C614.37 349.52 616.75 332.62 616.75 325.13C616.75 319.58 620.48 313.55 622.74 310.41C623.73 312.27 625 314.45 626.32 316.73C626.93 317.78 628.28 318.13 629.33 317.52C630.38 316.91 630.73 315.57 630.12 314.52C628.38 311.51 626.73 308.68 625.75 306.66C625.28 305.68 624.36 305.03 623.29 304.91C622.21 304.79 621.17 305.23 620.5 306.08C618.05 309.16 612.35 317.19 612.35 325.13C612.35 329.67 611.6 335.15 610.38 339.42C608.85 344.77 607.16 346.42 606.49 346.55C605.49 346.75 603.54 346.33 601.35 344.51C598.06 341.79 596.1 337.47 596.1 332.94L596.1 330.44C597.14 330.79 598.3 330.97 599.58 330.97C605.54 330.97 608.82 327.53 608.82 321.31C608.82 316.84 601.97 309.81 593.02 301.08C588.96 297.13 588.93 297.03 588.56 296.65C588.15 296.23 587.59 296 587 296C586.42 296 585.85 296.23 585.44 296.65C584.93 297.17 584.95 297.21 580.99 301.07C572.03 309.81 565.18 316.84 565.18 321.31C565.18 327.54 568.46 330.97 574.42 330.97C575.7 330.97 576.86 330.79 577.9 330.44L577.9 332.94C577.9 337.47 575.94 341.79 572.65 344.51C570.46 346.33 568.51 346.75 567.51 346.55C567.39 346.53 566.31 346.24 564.91 343.07C564.42 341.96 563.13 341.46 562.02 341.95C560.91 342.44 560.4 343.74 560.89 344.85L560.89 344.85Z" />
				<path id="Shape" fill-rule="evenodd" class="shp27" d="M587 344.27C592.06 344.27 596.17 349.47 596.17 355.85C596.17 362.24 592.06 367.43 587 367.43C581.94 367.43 577.83 362.24 577.83 355.85C577.83 349.47 581.94 344.27 587 344.27ZM582.23 355.85C582.23 359.74 584.41 363.03 587 363.03C589.59 363.03 591.77 359.74 591.77 355.85C591.77 351.96 589.59 348.67 587 348.67C584.41 348.67 582.23 351.96 582.23 355.85Z" />
				<path id="Shape" fill-rule="evenodd" class="shp12" d="M587 324.65C583.16 324.65 580.16 320.87 580.16 316.04C580.16 311.21 583.16 307.43 587 307.43C590.84 307.43 593.84 311.21 593.84 316.04C593.84 320.87 590.84 324.65 587 324.65ZM584.55 316.04C584.55 318.45 585.84 320.25 587 320.25C588.16 320.25 589.45 318.45 589.45 316.04C589.45 313.63 588.16 311.83 587 311.83C585.84 311.83 584.55 313.63 584.55 316.04Z" />
			</g>
		</g>
		<text id="Fantasy Icon Set" style="transform: matrix(1,0,0,1,-488,-368)" >
			<tspan x="0" y="0" class="txt28">Fantasy Icon Set</tspan>
		</text>
		<g id="Color Pallet">
			<path id="Oval" class="shp10" d="M452 -386C460.28 -386 467 -392.72 467 -401C467 -409.28 460.28 -416 452 -416C443.72 -416 437 -409.28 437 -401C437 -392.72 443.72 -386 452 -386Z" />
			<path id="Oval" class="shp9" d="M372 -386C380.28 -386 387 -392.72 387 -401C387 -409.28 380.28 -416 372 -416C363.72 -416 357 -409.28 357 -401C357 -392.72 363.72 -386 372 -386Z" />
			<path id="Oval" class="shp14" d="M412 -386C420.28 -386 427 -392.72 427 -401C427 -409.28 420.28 -416 412 -416C403.72 -416 397 -409.28 397 -401C397 -392.72 403.72 -386 412 -386Z" />
			<path id="Oval" class="shp8" d="M532 -386C540.28 -386 547 -392.72 547 -401C547 -409.28 540.28 -416 532 -416C523.72 -416 517 -409.28 517 -401C517 -392.72 523.72 -386 532 -386Z" />
			<path id="Oval" class="shp19" d="M492 -386C500.28 -386 507 -392.72 507 -401C507 -409.28 500.28 -416 492 -416C483.72 -416 477 -409.28 477 -401C477 -392.72 483.72 -386 492 -386Z" />
			<path id="Oval" class="shp15" d="M332 -386C340.28 -386 347 -392.72 347 -401C347 -409.28 340.28 -416 332 -416C323.72 -416 317 -409.28 317 -401C317 -392.72 323.72 -386 332 -386Z" />
			<path id="Oval" class="shp29" d="M612 -386C620.28 -386 627 -392.72 627 -401C627 -409.28 620.28 -416 612 -416C603.72 -416 597 -409.28 597 -401C597 -392.72 603.72 -386 612 -386Z" />
			<path id="Oval" class="shp12" d="M572 -386C580.28 -386 587 -392.72 587 -401C587 -409.28 580.28 -416 572 -416C563.72 -416 557 -409.28 557 -401C557 -392.72 563.72 -386 572 -386Z" />
		</g>
	</g>
</svg>