<svg xmlns="http://www.w3.org/2000/svg" viewBox="0 0 175 175" width="175" height="175">
	<defs>
		<clipPath clipPathUnits="userSpaceOnUse" id="cp1">
			<path d="M-464 -623L1136 -623L1136 577L-464 577Z" />
		</clipPath>
	</defs>
	<style>
		tspan { white-space:pre }
		.shp0 { fill: #ffffff } 
		.shp1 { fill: #23f5a5 } 
		.shp2 { fill: #8a64ff } 
		.shp3 { fill: #f831e3 } 
		.shp4 { fill: #c713ef } 
		.shp5 { fill: #5b90ff } 
		.shp6 { fill: #fff35a } 
		.shp7 { fill: #a0fff5 } 
		.shp8 { fill: #50e3c2 } 
		.shp9 { fill: #bd10e0 } 
		.shp10 { fill: #4a90e2 } 
		.shp11 { fill: #ff00f5 } 
		.shp12 { fill: #50e38c } 
		.shp13 { fill: #f8e71c } 
		.shp14 { fill: #9013fe } 
		.shp15 { fill: #ff00b6 } 
		.shp16 { fill: #e800ff } 
		.shp17 { fill: #ff0053 } 
		.shp18 { fill: #3c57ff } 
		.shp19 { fill: #27cedb } 
		.shp20 { fill: #0f7cfa } 
		.shp21 { fill: #00ffc6 } 
		.shp22 { fill: #9210e0 } 
		.shp23 { fill: #ff008f } 
		.shp24 { fill: #f59b23 } 
		.shp25 { fill: #f5c823 } 
		.shp26 { fill: #ffa7e6 } 
		.shp27 { fill: #ffcb74 } 
		.shp28 { fill: #fff683 } 
		.shp29 { fill: #ff0082 } 
		.txt30 { font-size: 100px;fill: #ffffff;font-family: "Leckerli One";font-weight: 400 } 
		.shp31 { fill: #f8c61c } 
	</style>
	<g id="Dribbble Shot" clip-path="url(#cp1)">
		<g id="Sparkle Smoke">
			<path id="Spacing" class="shp0" d="M261 17L411 17L411 167L261 167L261 17Z" />
			<g id="Icon">
				<path id="Path" class="shp1" d="M374.52 130.02C373.21 130.02 372.16 131.02 372.16 132.26L372.16 138.2C372.16 139.43 373.21 140.44 374.52 140.44C375.82 140.44 376.88 139.43 376.88 138.2L376.88 132.26C376.88 131.02 375.82 130.02 374.52 130.02Z" />
				<path id="Path" class="shp1" d="M374.52 146.17C373.21 146.17 372.16 147.17 372.16 148.41L372.16 154.34C372.16 155.58 373.21 156.58 374.52 156.58C375.82 156.58 376.88 155.58 376.88 154.34L376.88 148.41C376.88 147.17 375.82 146.17 374.52 146.17Z" />
				<path id="Path" class="shp1" d="M385.63 140.96L379.66 140.96C378.41 140.96 377.4 142.01 377.4 143.3C377.4 144.6 378.41 145.65 379.66 145.65L385.63 145.65C386.88 145.65 387.89 144.6 387.89 143.3C387.89 142.01 386.88 140.96 385.63 140.96Z" />
				<path id="Path" class="shp1" d="M369.9 140.96L363.93 140.96C362.68 140.96 361.67 142.01 361.67 143.3C361.67 144.6 362.68 145.65 363.93 145.65L369.9 145.65C371.15 145.65 372.16 144.6 372.16 143.3C372.16 142.01 371.15 140.96 369.9 140.96Z" />
				<path id="Path" class="shp2" d="M365.65 75.82C364.45 75.57 363.27 76.35 363.02 77.55C362.18 81.58 359.47 84.64 354.48 87.2C352.72 88.09 350.74 88.89 348.64 89.6C349.42 88.19 350.02 86.56 350.42 84.65C351.43 79.74 350.46 75.81 347.54 72.97C343.94 69.47 337.53 67.93 328.48 68.4C322.3 68.72 317.07 69.87 316.43 70.01C309.29 71.28 303.18 71.81 297.92 71.81C276.6 71.81 269.52 63.03 267.31 58.56C265.3 54.51 264.93 49.8 266.24 44.95C267.54 40.15 270.47 35.48 274.49 31.81C275.4 30.98 275.46 29.57 274.63 28.66C273.8 27.75 272.39 27.69 271.48 28.52C266.83 32.76 263.44 38.18 261.93 43.79C260.33 49.7 260.8 55.49 263.3 60.53C266.43 66.86 272.56 71.53 281.02 74.04C290.51 76.86 302.7 76.98 317.26 74.39C317.3 74.38 317.34 74.37 317.38 74.37C323.04 73.06 338.95 70.83 344.43 76.16C346.21 77.89 346.74 80.38 346.04 83.75C344.6 90.75 339.58 93.48 327.53 93.8C326.3 93.83 325.32 94.85 325.36 96.08C325.39 97.29 326.38 98.25 327.59 98.25C327.61 98.25 327.63 98.25 327.65 98.25C331.25 98.15 334.81 97.87 338.01 97.07C351.81 94.01 365.04 89.85 367.39 78.45C367.64 77.24 366.86 76.07 365.65 75.82Z" />
				<path id="Path" class="shp3" d="M369.16 49C363.24 48.24 356.63 47.86 349.51 47.86C343.07 47.86 336.64 48.33 330.42 48.79C322.12 49.4 313.6 50.03 308.88 48.91C308.75 48.86 308.62 48.83 308.47 48.8C307.23 48.46 306.28 47.98 305.73 47.32C305.49 47.04 304.78 46.19 305.44 43.71C307.55 35.8 318.02 32.1 326.43 30.38C336.01 28.43 345.19 28.57 345.28 28.58C346.35 28.59 347.3 27.85 347.52 26.81C347.74 25.76 347.17 24.71 346.18 24.3C345.79 24.14 336.6 20.42 323.87 18.33C312.03 16.39 294.81 15.61 280.07 22.87C278.96 23.42 278.51 24.75 279.06 25.85C279.61 26.95 280.96 27.4 282.07 26.85C295.7 20.13 311.88 20.88 323.04 22.7C326.74 23.3 330.15 24.06 333.11 24.82C321.17 26.21 304.37 30.35 301.1 42.58C300.67 44.19 300.57 45.66 300.81 46.97C296.82 45.22 293.56 41.88 293.56 35.28C293.56 34.05 292.55 33.06 291.32 33.06C290.08 33.06 289.08 34.05 289.08 35.28C289.08 48.34 299.25 52.23 307.82 53.2C310.16 53.77 313.01 53.98 316.25 53.98C320.49 53.98 325.4 53.62 330.76 53.22C336.89 52.77 343.23 52.3 349.51 52.3C356.44 52.3 362.86 52.67 368.58 53.41C369.8 53.56 370.93 52.71 371.09 51.49C371.25 50.27 370.38 49.16 369.16 49Z" />
				<path id="Path" class="shp4" d="M407.03 68.34C404.19 63.51 399.81 59.47 394.01 56.33C392.93 55.75 391.57 56.15 390.99 57.22C390.4 58.3 390.8 59.65 391.88 60.23C401.58 65.47 406.49 73.32 406.49 83.55C406.49 94.98 400.38 104.95 390.14 110.2C389.05 110.77 388.62 112.11 389.19 113.19C389.58 113.96 390.36 114.4 391.17 114.4C391.52 114.4 391.87 114.32 392.19 114.15C403.94 108.11 410.96 96.68 410.96 83.55C410.96 77.9 409.64 72.78 407.03 68.34Z" />
				<path id="Path" class="shp5" d="M384.68 114.69C384.4 113.49 383.19 112.75 381.99 113.03C379.11 113.71 376.07 114.05 372.96 114.05C361.71 114.05 351.6 114.05 344.96 117.13C337.86 119.49 329.51 124.7 327.04 132.38C326.66 133.55 327.31 134.8 328.49 135.17C328.71 135.25 328.94 135.28 329.17 135.28C330.12 135.28 331 134.68 331.3 133.73C332.08 131.33 334.05 128.44 337.49 125.86C336.74 129.12 337.1 133.05 338.59 137.77C340.05 142.42 339.73 146.63 337.64 150.27C334.37 155.96 327.5 159.28 323.17 160.88C324.79 153.86 323.81 147.43 320.31 142.47C315.99 136.36 308.19 132.99 298.34 132.99C293.25 132.99 288.8 131.66 285.49 129.14C282.58 126.93 280.6 123.8 279.9 120.33C279.2 116.79 279.84 113.05 281.72 109.8C283.83 106.14 287.4 103.19 292.03 101.29C295.41 99.9 299.33 98.99 304.02 98.52C305.25 98.4 306.15 97.31 306.02 96.08C305.9 94.86 304.8 93.97 303.57 94.09C298.44 94.61 294.1 95.62 290.32 97.17C277.8 102.32 273.86 112.95 275.51 121.19C276.42 125.73 279 129.81 282.77 132.68C286.87 135.79 292.25 137.44 298.34 137.44C306.69 137.44 313.19 140.13 316.64 145.03C319.96 149.73 320.35 156.29 317.72 163.5C317.45 164.26 317.61 165.12 318.16 165.73C318.59 166.21 319.2 166.48 319.83 166.48C320 166.48 320.17 166.46 320.33 166.42C320.95 166.28 335.57 162.82 341.52 152.5C344.26 147.73 344.71 142.33 342.86 136.44C341.07 130.75 341.15 126.69 343.12 124.03C343.99 122.85 345.25 121.92 346.81 121.19C346.82 121.19 346.83 121.19 346.84 121.18C352.61 118.5 362.55 118.5 372.96 118.5C376.42 118.5 379.8 118.12 383.02 117.36C384.22 117.08 384.97 115.88 384.68 114.69Z" />
				<path id="Shape" fill-rule="evenodd" class="shp6" d="M405.71 41.22C405.71 43.42 404.2 45.27 402.02 45.7L396.68 46.78C392.29 47.67 388.87 51.06 387.98 55.42L386.9 60.73C386.46 62.89 384.6 64.4 382.38 64.4C380.16 64.4 378.31 62.89 377.87 60.73L376.78 55.42C375.89 51.06 372.48 47.67 368.09 46.78L362.74 45.7C360.57 45.27 359.05 43.42 359.05 41.22C359.05 39.02 360.57 37.17 362.74 36.73L368.09 35.66C372.48 34.77 375.89 31.38 376.78 27.02L377.87 21.71C378.31 19.55 380.16 18.04 382.38 18.04C384.6 18.04 386.46 19.55 386.9 21.71L387.98 27.02C388.87 31.38 392.29 34.77 396.68 35.66L402.02 36.73C404.2 37.17 405.71 39.02 405.71 41.22ZM401.2 41.12C401.2 41.13 401.18 41.12 401.13 41.11L395.79 40.03C389.62 38.79 384.83 34.03 383.58 27.9L382.5 22.6C382.49 22.55 382.47 22.52 382.47 22.52C382.44 22.5 382.33 22.5 382.29 22.52C382.29 22.52 382.28 22.54 382.27 22.6L381.18 27.9C379.94 34.03 375.14 38.79 368.98 40.03L363.63 41.11C363.59 41.12 363.56 41.13 363.55 41.13C363.53 41.16 363.53 41.28 363.56 41.31C363.56 41.31 363.56 41.31 363.56 41.31C363.57 41.31 363.59 41.32 363.63 41.33L368.98 42.41C375.14 43.65 379.93 48.41 381.18 54.53L382.27 59.84C382.28 59.89 382.29 59.92 382.29 59.92C382.33 59.94 382.44 59.94 382.48 59.92C382.48 59.92 382.49 59.89 382.5 59.84L383.58 54.53C384.83 48.41 389.62 43.65 395.79 42.41L401.13 41.33C401.18 41.32 401.21 41.31 401.21 41.31C401.23 41.28 401.23 41.16 401.2 41.12Z" />
				<path id="Shape" fill-rule="evenodd" class="shp7" d="M339.13 107.89C339.13 110.09 337.61 111.93 335.43 112.37L330.09 113.45C325.7 114.33 322.28 117.72 321.39 122.09L320.31 127.4C319.87 129.55 318.01 131.06 315.79 131.06C313.57 131.06 311.72 129.55 311.28 127.4L310.19 122.09C309.3 117.72 305.89 114.33 301.5 113.45L296.15 112.37C293.98 111.93 292.46 110.09 292.46 107.89C292.46 105.68 293.98 103.84 296.15 103.4L301.5 102.32C305.89 101.44 309.3 98.05 310.19 93.68L311.28 88.38C311.72 86.22 313.57 84.71 315.79 84.71C318.01 84.71 319.87 86.22 320.31 88.38L321.39 93.68C322.28 98.05 325.7 101.44 330.09 102.32L335.43 103.4C337.61 103.84 339.13 105.68 339.13 107.89ZM334.61 107.79C334.62 107.79 334.59 107.78 334.54 107.77L329.2 106.69C323.03 105.45 318.24 100.69 316.99 94.57L315.91 89.26C315.9 89.21 315.88 89.19 315.88 89.18C315.85 89.16 315.74 89.16 315.7 89.19C315.7 89.19 315.69 89.21 315.68 89.26L314.59 94.57C313.34 100.69 308.55 105.45 302.39 106.69L297.04 107.77C297 107.78 296.97 107.79 296.96 107.8C296.94 107.83 296.94 107.94 296.97 107.98C296.97 107.98 296.97 107.98 296.97 107.98C296.98 107.98 297 107.99 297.04 108L302.39 109.07C308.55 110.32 313.34 115.08 314.59 121.2L315.68 126.51C315.69 126.56 315.7 126.58 315.7 126.59C315.74 126.61 315.85 126.61 315.89 126.58C315.89 126.58 315.9 126.56 315.91 126.51L316.99 121.2C318.24 115.08 323.03 110.32 329.2 109.07L334.54 108C334.59 107.99 334.62 107.98 334.62 107.97C334.64 107.94 334.64 107.83 334.61 107.79Z" />
			</g>
		</g>
		<g id="Round Potion">
			<path id="Spacing" class="shp0" d="M-239 267L-89 267L-89 417L-239 417L-239 267Z" />
			<g id="Icon">
				<path id="Shape" fill-rule="evenodd" class="shp8" d="M-182.97 321.21L-182.97 304.5C-187.09 304.5 -190.45 301.14 -190.45 297C-190.45 292.87 -187.09 289.5 -182.97 289.5L-178.59 289.5L-181.56 276.13C-182.05 273.9 -181.52 271.59 -180.09 269.81C-178.66 268.02 -176.53 267 -174.25 267L-151.75 267C-149.47 267 -147.34 268.02 -145.91 269.81C-144.48 271.59 -143.95 273.89 -144.44 276.13L-147.41 289.5L-143.03 289.5C-138.91 289.5 -135.55 292.86 -135.55 297C-135.55 301.13 -138.91 304.5 -143.03 304.5L-143.03 321.21C-124.79 329.18 -113.09 346.97 -113.09 367C-113.09 394.57 -135.48 417 -163 417C-190.52 417 -212.91 394.57 -212.91 367C-212.91 346.97 -201.21 329.18 -182.97 321.21ZM-163 412C-138.23 412 -118.08 391.81 -118.08 367C-118.08 366.07 -118.13 365.14 -118.18 364.22L-121.01 365.71C-127.73 369.25 -135.04 371.02 -142.35 371.02C-150.09 371.02 -157.81 369.04 -164.8 365.1C-176.24 358.65 -190.18 358.13 -202.07 363.69L-207.9 366.41C-207.9 366.61 -207.92 366.8 -207.92 367C-207.92 391.81 -187.77 412 -163 412ZM-118.83 358.91C-118.85 358.79 -118.87 358.67 -118.9 358.54C-120.44 358.28 -122.08 358.17 -124.55 358.03C-131.16 357.65 -137.67 360.13 -142.43 364.85L-143.57 365.98C-136.66 366.19 -129.7 364.64 -123.34 361.29L-118.83 358.91ZM-173.48 289.5L-152.53 289.5L-149.32 275.04C-149.15 274.3 -149.33 273.53 -149.81 272.94C-150.28 272.34 -150.99 272 -151.75 272L-174.25 272C-175.01 272 -175.72 272.34 -176.19 272.94C-176.67 273.53 -176.85 274.3 -176.68 275.04L-173.48 289.5ZM-185.46 297C-185.46 298.38 -184.34 299.5 -182.97 299.5L-143.03 299.5C-141.66 299.5 -140.54 298.38 -140.54 297C-140.54 295.62 -141.66 294.5 -143.03 294.5L-182.97 294.5C-184.34 294.5 -185.46 295.62 -185.46 297ZM-169.94 304.5L-168.44 312L-157.56 312L-156.06 304.5L-169.94 304.5ZM-179.55 325.19C-194.8 331.26 -205.26 344.81 -207.47 360.7L-204.18 359.16C-190.83 352.92 -175.2 353.51 -162.36 360.75C-158.43 362.96 -154.25 364.46 -149.97 365.28L-145.94 361.3C-140.17 355.57 -132.25 352.55 -124.26 353.04C-122.74 353.13 -121.43 353.21 -120.19 353.33C-124.18 340.7 -133.62 330.3 -146.45 325.19C-147.4 324.82 -148.03 323.89 -148.03 322.87L-148.03 304.5L-150.97 304.5L-153.07 314.99C-153.3 316.16 -154.32 317 -155.51 317L-170.49 317C-171.68 317 -172.7 316.16 -172.94 314.99L-175.03 304.5L-177.97 304.5L-177.97 322.87C-177.97 323.89 -178.6 324.82 -179.55 325.19Z" />
				<path id="Shape" fill-rule="evenodd" class="shp9" d="M-120.4 302.02C-114.93 302.02 -110.47 306.47 -110.47 311.95C-110.47 317.42 -114.93 321.88 -120.4 321.88C-125.88 321.88 -130.33 317.42 -130.33 311.95C-130.33 306.47 -125.88 302.02 -120.4 302.02ZM-125.37 311.95C-125.37 314.69 -123.14 316.91 -120.4 316.91C-117.67 316.91 -115.44 314.69 -115.44 311.95C-115.44 309.21 -117.67 306.98 -120.4 306.98C-123.14 306.98 -125.37 309.21 -125.37 311.95Z" />
				<path id="Shape" fill-rule="evenodd" class="shp10" d="M-103.16 267C-96.24 267 -90.61 272.63 -90.61 279.54C-90.61 286.46 -96.24 292.09 -103.16 292.09C-110.07 292.09 -115.7 286.46 -115.7 279.54C-115.7 272.63 -110.07 267 -103.16 267ZM-110.68 279.54C-110.68 283.69 -107.31 287.07 -103.16 287.07C-99.01 287.07 -95.63 283.69 -95.63 279.54C-95.63 275.39 -99.01 272.02 -103.16 272.02C-107.31 272.02 -110.68 275.39 -110.68 279.54Z" />
				<path id="Shape" fill-rule="evenodd" class="shp11" d="M-197.76 299.4C-197.76 304.88 -202.21 309.33 -207.69 309.33C-213.16 309.33 -217.62 304.88 -217.62 299.4C-217.62 293.93 -213.16 289.47 -207.69 289.47C-202.21 289.47 -197.76 293.93 -197.76 299.4ZM-202.72 299.4C-202.72 296.67 -204.95 294.44 -207.69 294.44C-210.42 294.44 -212.65 296.67 -212.65 299.4C-212.65 302.14 -210.42 304.37 -207.69 304.37C-204.95 304.37 -202.72 302.14 -202.72 299.4Z" />
				<path id="Shape" fill-rule="evenodd" class="shp12" d="M-230.42 344.35C-234.6 344.35 -238 340.95 -238 336.77C-238 332.6 -234.6 329.2 -230.42 329.2C-226.24 329.2 -222.84 332.6 -222.84 336.77C-222.84 340.95 -226.24 344.35 -230.42 344.35ZM-230.42 339.3C-229.03 339.3 -227.9 338.17 -227.9 336.77C-227.9 335.38 -229.03 334.25 -230.42 334.25C-231.82 334.25 -232.95 335.38 -232.95 336.77C-232.95 338.17 -231.82 339.3 -230.42 339.3Z" />
				<path id="Path" class="shp13" d="M-194.77 353.24C-190.55 343.51 -182.3 336.31 -172.15 333.49L-173.47 328.67C-185.07 331.9 -194.49 340.12 -199.32 351.23L-194.77 353.24Z" />
			</g>
		</g>
		<g id="Potion Bottle">
			<path id="Spacing" class="shp0" d="M11 267L161 267L161 417L11 417L11 267Z" />
			<g id="Icon">
				<path id="Shape" fill-rule="evenodd" class="shp14" d="M131.46 367.39L131.46 395.35C131.46 407.29 121.77 417 109.86 417L62.13 417C50.21 417 40.52 407.29 40.52 395.35L40.52 367.39C40.52 361.89 43.73 356.81 48.7 354.47C48.73 354.45 48.77 354.44 48.8 354.42L64.76 347.88C67.62 346.7 69.47 343.94 69.47 340.84L69.47 336.43C69.47 335.22 70.45 334.24 71.66 334.24C72.88 334.24 73.86 335.22 73.86 336.43L73.86 340.84C73.86 345.73 70.94 350.09 66.42 351.94L50.52 358.47C47.11 360.1 44.91 363.6 44.91 367.39L44.91 395.35C44.91 404.87 52.63 412.61 62.13 412.61L109.86 412.61C119.35 412.61 127.08 404.87 127.08 395.35L127.08 367.39C127.08 363.6 124.88 360.1 121.47 358.47L117.99 357.04C117.16 356.7 116.62 355.89 116.62 355C116.63 354.1 117.17 353.3 118 352.97C123.51 350.74 127.08 345.46 127.08 339.51C127.08 331.51 120.58 325.01 112.6 325.01C108.84 325.01 105.21 326.5 102.51 329.12L102.51 332.77C102.51 333.98 101.53 334.97 100.32 334.97C99.11 334.97 98.13 333.98 98.13 332.77L98.13 318.56L93.6 318.56C92.38 318.56 91.4 317.58 91.4 316.37C91.4 315.15 92.38 314.17 93.6 314.17L100.03 314.17C100.05 314.17 100.06 314.17 100.08 314.17C100.1 314.17 100.12 314.17 100.14 314.17C101.12 314.17 101.93 313.36 101.93 312.37L101.93 303.33L99.03 303.33L98.73 308.22C98.73 308.23 98.73 308.25 98.73 308.26C98.58 310.18 96.96 311.68 95.04 311.68L76.36 311.68C74.44 311.68 72.82 310.18 72.67 308.26C72.67 308.25 72.67 308.23 72.67 308.22L72.37 303.33L70.06 303.33L70.06 312.37C70.06 313.36 70.86 314.17 71.85 314.17L85.99 314.17C87.2 314.17 88.19 315.15 88.19 316.37C88.19 317.58 87.2 318.56 85.99 318.56L73.86 318.56L73.86 327.64C73.86 328.86 72.88 329.84 71.66 329.84C70.45 329.84 69.47 328.86 69.47 327.64L69.47 318.09C67.24 317.15 65.67 314.94 65.67 312.37L65.67 302.75C63.77 301.82 62.45 299.87 62.45 297.62C62.45 294.47 65.01 291.9 68.15 291.9L71.52 291.9L70.89 283.82L70.08 273.41C69.96 271.76 70.52 270.12 71.65 268.91C72.77 267.7 74.35 267 76 267L95.4 267C97.05 267 98.63 267.7 99.75 268.91C100.87 270.12 101.44 271.76 101.32 273.41L100.89 278.96C100.82 279.75 100.34 280.45 99.61 280.79L97.34 281.83L99.18 282.7C100 283.09 100.5 283.95 100.43 284.86L99.88 291.9L103.24 291.9C106.39 291.9 108.95 294.47 108.95 297.62C108.95 299.63 107.89 301.4 106.32 302.42L106.32 312.37C106.32 314.94 104.74 317.15 102.51 318.09L102.51 323.55C105.51 321.65 109.01 320.61 112.6 320.61C123 320.61 131.46 329.09 131.46 339.51C131.46 345.64 128.56 351.22 123.8 354.72C128.47 357.17 131.46 362.08 131.46 367.39ZM74.46 273.07L74.53 274.03L84.24 274.03C85.45 274.03 86.43 275.01 86.43 276.23C86.43 277.44 85.45 278.42 84.24 278.42L74.87 278.42L75.28 283.68L78.39 283.68C79.6 283.68 80.58 284.67 80.58 285.88C80.58 287.09 79.6 288.08 78.39 288.08L75.62 288.08L75.92 291.9L95.48 291.9L95.94 286.03L92.39 284.35C91.4 283.88 90.77 282.88 90.78 281.79C90.79 280.7 91.43 279.7 92.42 279.25L96.61 277.33L96.94 273.07C96.98 272.63 96.83 272.21 96.53 271.89C96.24 271.57 95.83 271.39 95.4 271.39L76 271.39C75.57 271.39 75.16 271.57 74.86 271.89C74.57 272.21 74.42 272.63 74.46 273.07ZM94.63 303.33L76.76 303.33L77.01 307.28L94.39 307.28L94.63 303.33ZM103.24 298.93C103.97 298.93 104.56 298.34 104.56 297.62C104.56 296.89 103.97 296.3 103.24 296.3L68.15 296.3C67.43 296.3 66.84 296.89 66.84 297.62C66.84 298.34 67.43 298.93 68.15 298.93L103.24 298.93Z" />
				<path id="Shape" fill-rule="evenodd" class="shp9" d="M123.1 339.39C123.1 345.29 118.29 350.1 112.39 350.1C106.48 350.1 101.67 345.29 101.67 339.39C101.67 333.48 106.48 328.67 112.39 328.67C118.29 328.67 123.1 333.48 123.1 339.39ZM118.7 339.39C118.7 335.91 115.87 333.08 112.39 333.08C108.91 333.08 106.08 335.91 106.08 339.39C106.08 342.87 108.91 345.7 112.39 345.7C115.87 345.7 118.7 342.87 118.7 339.39Z" />
				<path id="Shape" fill-rule="evenodd" class="shp15" d="M123.62 393.44L123.62 395.22C123.62 402.9 117.34 409.16 109.61 409.16L61.85 409.16C54.13 409.16 47.84 402.9 47.84 395.22L47.84 380.98C47.84 379.92 48.3 378.92 49.11 378.24C49.92 377.55 50.98 377.25 52.03 377.41L58.68 378.44C58.67 378.25 58.67 378.05 58.67 377.86C58.67 372.64 62.93 368.39 68.18 368.39C73.42 368.39 77.68 372.64 77.68 377.86C77.68 379.05 77.46 380.21 77.04 381.29L80.48 381.82C82.28 382.1 84.08 382.23 85.89 382.22C86.2 375.19 92.05 369.56 99.19 369.56C105.03 369.56 110.04 373.25 111.82 378.59L119.43 377.41C120.48 377.25 121.55 377.55 122.35 378.24C123.16 378.92 123.62 379.93 123.62 380.98L123.62 384.7C123.62 385.91 122.64 386.88 121.43 386.88C120.22 386.88 119.23 385.91 119.23 384.7L119.23 381.86L91.66 386.14C87.72 386.75 83.74 386.75 79.81 386.14L52.23 381.86L52.23 395.22C52.23 400.5 56.55 404.79 61.85 404.79L109.61 404.79C114.92 404.79 119.23 400.5 119.23 395.22L119.23 393.44C119.23 392.23 120.22 391.25 121.43 391.25C122.64 391.25 123.62 392.23 123.62 393.44ZM90.31 381.91C90.53 381.88 90.76 381.86 90.98 381.82L107.39 379.28C106.01 376.08 102.84 373.93 99.19 373.93C94.57 373.93 90.76 377.43 90.31 381.91ZM63.05 377.86C63.05 378.3 63.11 378.73 63.22 379.15L72.5 380.58C73.01 379.78 73.3 378.84 73.3 377.86C73.3 375.05 71 372.76 68.17 372.76C65.35 372.76 63.05 375.05 63.05 377.86Z" />
				<path id="Shape" fill-rule="evenodd" class="shp16" d="M88.08 356.63C88.08 360.81 84.68 364.21 80.51 364.21C76.33 364.21 72.93 360.81 72.93 356.63C72.93 352.46 76.33 349.06 80.51 349.06C84.68 349.06 88.08 352.46 88.08 356.63ZM83.63 356.63C83.63 354.91 82.23 353.51 80.51 353.51C78.78 353.51 77.38 354.91 77.38 356.63C77.38 358.35 78.78 359.75 80.51 359.75C82.23 359.75 83.63 358.35 83.63 356.63Z" />
				<path id="Shape" fill-rule="evenodd" class="shp17" d="M80.77 395.31C80.77 399.49 77.37 402.89 73.19 402.89C69.01 402.89 65.61 399.49 65.61 395.31C65.61 391.13 69.01 387.73 73.19 387.73C77.37 387.73 80.77 391.13 80.77 395.31ZM76.31 395.31C76.31 393.59 74.91 392.19 73.19 392.19C71.47 392.19 70.07 393.59 70.07 395.31C70.07 397.03 71.47 398.43 73.19 398.43C74.91 398.43 76.31 397.03 76.31 395.31Z" />
				<path id="Shape" fill-rule="evenodd" class="shp10" d="M95.4 330.76C95.4 335.37 91.65 339.13 87.04 339.13C82.43 339.13 78.68 335.37 78.68 330.76C78.68 326.15 82.43 322.4 87.04 322.4C91.65 322.4 95.4 326.15 95.4 330.76ZM91 330.76C91 328.58 89.22 326.8 87.04 326.8C84.85 326.8 83.08 328.58 83.08 330.76C83.08 332.95 84.85 334.72 87.04 334.72C89.22 334.72 91 332.95 91 330.76Z" />
			</g>
		</g>
		<g id="Cauldren">
			<path id="Spacing" class="shp0" d="M761 17L911 17L911 167L761 167L761 17Z" />
			<g id="Icon">
				<path id="Shape" fill-rule="evenodd" class="shp8" d="M855.91 26.09C855.91 21.08 861.01 17 867.27 17C873.54 17 878.64 21.08 878.64 26.09C878.64 31.1 873.54 35.18 867.27 35.18C861.01 35.18 855.91 31.1 855.91 26.09ZM861.59 26.09C861.59 28.6 864.14 30.64 867.27 30.64C870.41 30.64 872.95 28.6 872.95 26.09C872.95 23.58 870.41 21.55 867.27 21.55C864.14 21.55 861.59 23.58 861.59 26.09Z" />
				<path id="Shape" fill-rule="evenodd" class="shp13" d="M778.64 26.09C778.64 21.08 783.73 17 790 17C796.27 17 801.36 21.08 801.36 26.09C801.36 31.1 796.27 35.18 790 35.18C783.73 35.18 778.64 31.1 778.64 26.09ZM784.32 26.09C784.32 28.6 786.87 30.64 790 30.64C793.13 30.64 795.68 28.6 795.68 26.09C795.68 23.58 793.13 21.55 790 21.55C786.87 21.55 784.32 23.58 784.32 26.09Z" />
				<path id="Shape" fill-rule="evenodd" class="shp18" d="M837.73 39.73C837.73 34.71 841.81 30.64 846.82 30.64C851.83 30.64 855.91 34.71 855.91 39.73C855.91 44.74 851.83 48.82 846.82 48.82C841.81 48.82 837.73 44.74 837.73 39.73ZM842.92 39.73C842.92 41.88 844.67 43.62 846.82 43.62C848.97 43.62 850.71 41.88 850.71 39.73C850.71 37.58 848.97 35.83 846.82 35.83C844.67 35.83 842.92 37.58 842.92 39.73Z" />
				<path id="Shape" fill-rule="evenodd" class="shp19" d="M805.91 30.64C805.91 25.62 809.99 21.55 815 21.55C820.01 21.55 824.09 25.62 824.09 30.64C824.09 35.65 820.01 39.73 815 39.73C809.99 39.73 805.91 35.65 805.91 30.64ZM811.1 30.64C811.1 32.78 812.85 34.53 815 34.53C817.15 34.53 818.9 32.78 818.9 30.64C818.9 28.49 817.15 26.74 815 26.74C812.85 26.74 811.1 28.49 811.1 30.64Z" />
				<path id="Shape" fill-rule="evenodd" class="shp20" d="M893.05 151.29C896.1 154.27 896.1 159.11 893.05 162.09C891.52 163.58 889.52 164.32 887.51 164.32C885.51 164.32 883.5 163.58 881.98 162.09L875.17 155.45C863.85 162.73 850.18 167 835.45 167C821.38 167 808.27 163.09 797.26 156.39L791.41 162.09C789.88 163.58 787.88 164.32 785.88 164.32C783.87 164.32 781.87 163.58 780.34 162.09C777.29 159.11 777.29 154.27 780.34 151.29L784.9 146.85C772.6 134.92 765 118.69 765 100.82C765 90.78 767.37 81.15 771.99 72.15L767.05 64.13C766.23 62.79 766.21 61.11 767 59.75C767.78 58.39 769.27 57.55 770.87 57.55L773.2 57.55C774.37 53.16 778.42 49.91 783.27 49.91C785.38 49.91 787.43 50.55 789.15 51.7C791.58 48.97 795.1 47.36 798.92 47.36C800.42 47.36 801.89 47.61 803.28 48.1C805.91 43.05 811.26 39.73 817.19 39.73C824.2 39.73 830.13 44.2 832.1 50.46C834.81 49.55 837.94 49.82 840.45 51.17C843.05 47.27 847.52 44.82 852.42 44.82C857.31 44.82 861.78 47.27 864.39 51.17C867.73 49.36 872.11 49.59 875.26 51.7C877.69 48.97 881.21 47.36 885.03 47.36C891.34 47.36 896.6 51.74 897.82 57.55L900.04 57.55C901.64 57.55 903.12 58.39 903.91 59.75C904.7 61.11 904.68 62.79 903.86 64.13L898.92 72.15C903.54 81.15 905.91 90.78 905.91 100.82C905.91 118.09 898.82 133.83 887.24 145.63L893.05 151.29ZM877.64 57.55L892.42 57.55C891.34 54.58 888.44 52.45 885.03 52.45C882.05 52.45 879.37 54.1 878.04 56.75L877.64 57.55ZM864.78 57.55L873.91 57.55L873.59 57.12C871.68 54.56 867.6 54.36 865.45 56.78L864.78 57.55ZM843.26 57.55L861.57 57.55L861.01 55.95C859.74 52.33 856.29 49.91 852.42 49.91C848.55 49.91 845.09 52.33 843.82 55.95L843.26 57.55ZM830.62 57.55L840.05 57.55L839.38 56.78C837.49 54.65 834.07 54.45 831.94 56.35L830.62 57.55ZM791.53 57.55L827.7 57.55L827.57 54.59C827.34 49.11 822.78 44.82 817.19 44.82C812.55 44.82 808.44 47.89 807.18 52.29L806.22 55.66L803.23 53.72C801.94 52.89 800.46 52.45 798.92 52.45C795.94 52.45 793.26 54.1 791.93 56.75L791.53 57.55ZM778.75 57.55L787.8 57.55L787.48 57.12C786.47 55.77 784.94 55 783.27 55C781.34 55 779.65 56.02 778.75 57.55ZM772.22 62.64L774.81 66.85L774.81 66.85L776.91 70.27L893.99 70.27L896.1 66.85L896.1 66.85L898.69 62.64L772.22 62.64ZM791.93 152.81C791.15 152.22 790.37 151.63 789.62 151.02C789.32 150.78 789.01 150.56 788.72 150.32L784.03 154.89C783.01 155.88 783.01 157.5 784.03 158.49C785.05 159.48 786.71 159.48 787.72 158.49L792.83 153.5C792.53 153.28 792.24 153.03 791.93 152.81ZM835.45 161.91C850.03 161.91 863.51 157.41 874.38 149.81C875.39 149.11 876.36 148.37 877.32 147.62C877.83 147.22 878.33 146.81 878.83 146.4C879.44 145.89 880.03 145.37 880.61 144.84C892.97 133.72 900.69 118.1 900.69 100.82C900.69 91.93 898.69 83.37 894.75 75.36L776.15 75.36C772.22 83.37 770.22 91.93 770.22 100.82C770.22 118.41 778.21 134.28 790.96 145.43C791.94 146.3 792.95 147.15 793.99 147.95C794.32 148.2 794.66 148.44 794.98 148.68C795.82 149.3 796.67 149.9 797.53 150.48C808.23 157.66 821.32 161.91 835.45 161.91ZM889.35 154.89L883.52 149.2C883.3 149.39 883.06 149.56 882.84 149.75C881.95 150.51 881.04 151.25 880.11 151.97C879.9 152.13 879.71 152.31 879.49 152.47L885.67 158.49C886.69 159.48 888.34 159.48 889.36 158.49C890.38 157.5 890.38 155.88 889.35 154.89Z" />
				<path id="Path" class="shp21" d="M835.1 144.03C811.88 144.03 792.99 126.86 792.99 105.76C792.99 104.43 791.81 103.36 790.36 103.36C788.9 103.36 787.73 104.43 787.73 105.76C787.73 129.5 808.98 148.82 835.1 148.82C836.55 148.82 837.73 147.75 837.73 146.43C837.73 145.1 836.55 144.03 835.1 144.03Z" />
			</g>
		</g>
		<g id="Doble Terminated Crystal">
			<path id="Spacing" class="shp0" d="M261 271L411 271L411 421L261 421L261 271Z" />
			<g id="Icon">
				<path id="Shape" fill-rule="evenodd" class="shp22" d="M373.31 305.09L373.31 378.91C373.31 379.69 373 380.44 372.45 380.98L337.23 416.14C336.68 416.69 335.93 417 335.15 417C334.37 417 333.63 416.69 333.08 416.14L297.86 380.98C297.31 380.44 297 379.69 297 378.91L297 305.09C297 303.47 298.31 302.16 299.93 302.16L315.87 302.16L324.85 284.35L320.69 288.51C319.54 289.66 317.68 289.66 316.54 288.51C315.39 287.37 315.39 285.52 316.54 284.37L333.08 267.86C333.63 267.31 334.37 267 335.15 267C335.93 267 336.68 267.31 337.23 267.86L372.45 303.02C373 303.57 373.31 304.31 373.31 305.09ZM367.44 308.02L355.7 308.02L355.7 352.28C355.7 353.89 354.38 355.21 352.76 355.21C351.14 355.21 349.83 353.89 349.83 352.28L349.83 308.02L320.48 308.02L320.48 375.98L367.44 375.98L367.44 308.02ZM307.02 381.84L324.85 399.65L315.87 381.84L307.02 381.84ZM335.15 407.03L347.86 381.84L322.44 381.84L335.15 407.03ZM345.45 399.65L363.29 381.84L354.44 381.84L345.45 399.65ZM363.29 302.16L345.45 284.35L354.43 302.16L363.29 302.16ZM322.44 302.16L347.86 302.16L335.15 276.97L322.44 302.16ZM302.87 308.02L302.87 375.98L314.61 375.98L314.61 308.02L302.87 308.02Z" />
				<path id="Path" class="shp23" d="M309.28 298.88C310.06 298.88 310.84 298.56 311.41 297.94L311.41 297.94C312.48 296.76 312.39 294.95 311.22 293.88C310.04 292.81 308.22 292.9 307.16 294.07C306.09 295.25 306.17 297.07 307.35 298.13C307.9 298.63 308.59 298.88 309.28 298.88Z" />
				<path id="Path" class="shp23" d="M352.66 362.64C351.07 362.64 349.79 363.93 349.79 365.52C349.79 367.11 351.07 368.39 352.66 368.39C354.25 368.39 355.54 367.11 355.54 365.52L355.54 365.52C355.54 363.93 354.25 362.64 352.66 362.64Z" />
			</g>
		</g>
		<g id="Wand">
			<g id="Icon">
				<path id="Path" class="shp24" d="M142.51 97.21C140.93 97.21 139.65 98.49 139.65 100.07C139.65 101.65 140.93 102.94 142.51 102.94C144.09 102.94 145.38 101.65 145.38 100.07C145.38 98.49 144.09 97.21 142.51 97.21Z" />
				<path id="Path" class="shp24" d="M106.51 35.55C105.4 34.43 103.58 34.43 102.46 35.55C101.35 36.66 101.35 38.48 102.46 39.6C103.58 40.72 105.4 40.72 106.51 39.6C107.63 38.48 107.63 36.67 106.51 35.55Z" />
				<path id="Shape" fill-rule="evenodd" class="shp25" d="M152.11 88.48L130.1 88.49L117.39 106.18C113.19 112.11 103.99 110.63 101.83 103.7L99.23 95.33L31 163.56C26.43 168.15 19.01 168.14 14.43 163.56C9.85 158.99 9.86 151.56 14.44 146.99L82.67 78.77L74.31 76.17C67.35 74.01 65.9 64.81 71.84 60.6L89.51 47.9L89.52 25.89C89.44 18.63 97.73 14.41 103.56 18.76L121.18 31.91L142.01 24.85C148.9 22.51 155.49 29.1 153.15 35.99L146.09 56.82L159.24 74.44C163.59 80.28 159.37 88.57 152.11 88.48ZM97.27 89.01L95.3 82.7L88.99 80.73L18.58 151.14C16.27 153.44 16.31 157.15 18.58 159.42C20.87 161.72 24.57 161.71 26.86 159.42L97.27 89.01ZM154.54 77.94L140.47 59.09C139.9 58.32 139.74 57.31 140.05 56.4L147.6 34.11C148.39 31.8 146.18 29.62 143.89 30.4L121.6 37.95C120.69 38.26 119.68 38.1 118.91 37.53L100.06 23.46C98.1 22 95.31 23.41 95.34 25.84C95.35 25.85 95.35 25.87 95.35 25.88L95.34 49.41C95.34 50.35 94.91 51.23 94.15 51.78L75.24 65.37C73.22 66.8 73.74 69.86 76.04 70.57L98.51 77.56C99.43 77.84 100.16 78.57 100.44 79.49L103.39 88.96L103.4 88.99C103.4 88.99 103.4 89 103.4 89.01L107.43 101.96C108.15 104.28 111.21 104.77 112.62 102.78L126.22 83.85C126.77 83.09 127.65 82.66 128.59 82.66L152.12 82.65C154.69 82.65 155.96 79.84 154.54 77.94Z" />
				<path id="Path" class="shp24" d="M120.21 46.15L115.27 42.58C113.94 41.62 112.07 41.88 111.07 43.17C110.08 44.45 110.36 46.27 111.68 47.23L116.63 50.8C117.96 51.76 119.83 51.49 120.82 50.21C121.81 48.92 121.54 47.11 120.21 46.15Z" />
				<path id="Path" class="shp15" d="M72.11 32.28L69.16 32.28L69.16 29.33C69.16 27.7 67.84 26.38 66.21 26.38C64.58 26.38 63.26 27.7 63.26 29.33L63.26 32.28L60.31 32.28C58.68 32.28 57.35 33.6 57.35 35.23C57.35 36.86 58.68 38.18 60.31 38.18L63.26 38.18L63.26 41.13C63.26 42.76 64.58 44.08 66.21 44.08C67.84 44.08 69.16 42.76 69.16 41.13L69.16 38.18L72.11 38.18C73.74 38.18 75.06 36.86 75.06 35.23C75.06 33.6 73.74 32.28 72.11 32.28Z" />
				<path id="Path" class="shp15" d="M136.69 120.3L133.74 120.3L133.74 117.35C133.74 115.72 132.42 114.4 130.79 114.4C129.16 114.4 127.84 115.72 127.84 117.35L127.84 120.3L124.89 120.3C123.26 120.3 121.94 121.62 121.94 123.25C121.94 124.88 123.26 126.2 124.89 126.2L127.84 126.2L127.84 129.15C127.84 130.78 129.16 132.1 130.79 132.1C132.42 132.1 133.74 130.78 133.74 129.15L133.74 126.2L136.69 126.2C138.32 126.2 139.65 124.88 139.65 123.25C139.65 121.62 138.32 120.3 136.69 120.3Z" />
			</g>
		</g>
		<g id="Castle">
			<path id="Spacing" class="shp0" d="M511 267L661 267L661 417L511 417L511 267Z" />
			<g id="Icon">
				<path id="Path" class="shp13" d="M641 372C639.62 372 638.5 373.12 638.5 374.5L638.5 379.5C638.5 380.88 639.62 382 641 382C642.38 382 643.5 380.88 643.5 379.5L643.5 374.5C643.5 373.12 642.38 372 641 372Z" />
				<path id="Path" class="shp19" d="M572.38 311.74C573.62 312.36 575.12 311.85 575.74 310.62L583.5 295.09L583.5 309.5C583.5 310.88 584.62 312 586 312C587.38 312 588.5 310.88 588.5 309.5L588.5 295.09L596.26 310.62C596.7 311.5 597.58 312 598.5 312C598.88 312 599.26 311.92 599.62 311.74C600.85 311.12 601.36 309.62 600.74 308.38L588.5 283.91L588.5 272L601 272L601 277L593.5 277C592.12 277 591 278.12 591 279.5C591 280.88 592.12 282 593.5 282L603.5 282C604.88 282 606 280.88 606 279.5L606 269.5C606 268.12 604.88 267 603.5 267L586 267C584.62 267 583.5 268.12 583.5 269.5L583.5 283.91L571.26 308.38C570.64 309.62 571.15 311.12 572.38 311.74Z" />
				<path id="Path" class="shp10" d="M598.5 347C599.88 347 601 345.88 601 344.5L601 322L603.5 322C604.88 322 606 320.88 606 319.5C606 318.12 604.88 317 603.5 317L568.5 317C567.12 317 566 318.12 566 319.5C566 320.88 567.12 322 568.5 322L571 322L571 344.5C571 345.88 572.12 347 573.5 347C574.88 347 576 345.88 576 344.5L576 322L596 322L596 344.5C596 345.88 597.12 347 598.5 347Z" />
				<path id="Path" class="shp13" d="M583.5 334.5L583.5 339.5C583.5 340.88 584.62 342 586 342C587.38 342 588.5 340.88 588.5 339.5L588.5 334.5C588.5 333.12 587.38 332 586 332C584.62 332 583.5 333.12 583.5 334.5Z" />
				<path id="Path" class="shp10" d="M623.5 342L626 342L626 344.5C626 345.88 627.12 347 628.5 347C629.88 347 631 345.88 631 344.5L631 342L651 342L651 392C651 393.38 652.12 394.5 653.5 394.5C654.88 394.5 656 393.38 656 392L656 342L658.5 342C659.88 342 661 340.88 661 339.5C661 338.12 659.88 337 658.5 337L623.5 337C622.12 337 621 338.12 621 339.5C621 340.88 622.12 342 623.5 342Z" />
				<path id="Path" class="shp26" d="M631 292C631 293.38 632.12 294.5 633.5 294.5C634.88 294.5 636 293.38 636 292C637.38 292 638.5 290.88 638.5 289.5C638.5 288.12 637.38 287 636 287C636 285.62 634.88 284.5 633.5 284.5C632.12 284.5 631 285.62 631 287C629.62 287 628.5 288.12 628.5 289.5C628.5 290.88 629.62 292 631 292Z" />
				<path id="Path" class="shp19" d="M627.38 331.74C628.62 332.36 630.12 331.85 630.74 330.62L638.5 315.09L638.5 329.5C638.5 330.88 639.62 332 641 332C642.38 332 643.5 330.88 643.5 329.5L643.5 315.09L651.26 330.62C651.7 331.5 652.58 332 653.5 332C653.88 332 654.26 331.92 654.62 331.74C655.85 331.12 656.35 329.62 655.74 328.38L643.24 303.38C643.13 303.17 642.99 302.98 642.82 302.82C642.37 302.32 641.73 302 641 302C640.27 302 639.63 302.32 639.18 302.82C639.01 302.98 638.87 303.17 638.76 303.38L626.26 328.38C625.65 329.62 626.15 331.12 627.38 331.74Z" />
				<path id="Shape" fill-rule="evenodd" class="shp13" d="M601 392L601 414.5C601 415.88 599.88 417 598.5 417L573.5 417C572.12 417 571 415.88 571 414.5L571 392C571 383.73 577.73 377 586 377C594.27 377 601 383.73 601 392ZM596 407L576 407L576 412L596 412L596 407ZM596 397L576 397L576 402L596 402L596 397ZM596 392C596 386.49 591.52 382 586 382C580.49 382 576 386.48 576 392L596 392Z" />
				<path id="Path" class="shp13" d="M643.5 354.5C643.5 353.12 642.38 352 641 352C639.62 352 638.5 353.12 638.5 354.5L638.5 359.5C638.5 360.88 639.62 362 641 362C642.38 362 643.5 360.88 643.5 359.5L643.5 354.5Z" />
				<path id="Path" class="shp26" d="M561 274.5C561 275.88 562.12 277 563.5 277C564.88 277 566 275.88 566 274.5C567.38 274.5 568.5 273.38 568.5 272C568.5 270.62 567.38 269.5 566 269.5C566 268.12 564.88 267 563.5 267C562.12 267 561 268.12 561 269.5C559.62 269.5 558.5 270.62 558.5 272C558.5 273.38 559.62 274.5 561 274.5Z" />
				<path id="Path" class="shp13" d="M531 372C529.62 372 528.5 373.12 528.5 374.5L528.5 379.5C528.5 380.88 529.62 382 531 382C532.38 382 533.5 380.88 533.5 379.5L533.5 374.5C533.5 373.12 532.38 372 531 372Z" />
				<path id="Shape" fill-rule="evenodd" class="shp9" d="M566 404.5L566 414.5C566 415.88 564.88 417 563.5 417L513.5 417C512.12 417 511 415.88 511 414.5L511 404.5C511 401.74 513.24 399.5 516 399.5C516.91 399.5 517.76 399.75 518.5 400.17C519.97 399.32 522.03 399.32 523.5 400.17C524.97 399.32 527.03 399.32 528.5 400.17C529.97 399.32 532.03 399.32 533.5 400.17C534.97 399.32 537.03 399.32 538.5 400.17C539.97 399.32 542.03 399.32 543.5 400.17C544.97 399.32 547.03 399.32 548.5 400.17C549.97 399.32 552.03 399.32 553.5 400.17C554.97 399.32 557.03 399.32 558.5 400.17C559.23 399.75 560.09 399.5 561 399.5C563.76 399.5 566 401.74 566 404.5ZM561 412L561 404.5C561 405.88 559.88 407 558.5 407C557.12 407 556 405.88 556 404.5C556 405.88 554.88 407 553.5 407C552.12 407 551 405.88 551 404.5C551 405.88 549.88 407 548.5 407C547.12 407 546 405.88 546 404.5C546 405.88 544.88 407 543.5 407C542.12 407 541 405.88 541 404.5C541 405.88 539.88 407 538.5 407C537.12 407 536 405.88 536 404.5C536 405.88 534.88 407 533.5 407C532.12 407 531 405.88 531 404.5C531 405.88 529.88 407 528.5 407C527.12 407 526 405.88 526 404.5C526 405.88 524.88 407 523.5 407C522.12 407 521 405.88 521 404.5C521 405.88 519.88 407 518.5 407C517.12 407 516 405.88 516 404.5L516 412L561 412Z" />
				<path id="Shape" fill-rule="evenodd" class="shp9" d="M661 404.5L661 414.5C661 415.88 659.88 417 658.5 417L608.5 417C607.12 417 606 415.88 606 414.5L606 404.5C606 401.74 608.24 399.5 611 399.5C611.91 399.5 612.76 399.75 613.5 400.17C614.97 399.32 617.03 399.32 618.5 400.17C619.97 399.32 622.03 399.32 623.5 400.17C624.97 399.32 627.03 399.32 628.5 400.17C629.97 399.32 632.03 399.32 633.5 400.17C634.97 399.32 637.03 399.32 638.5 400.17C639.97 399.32 642.03 399.32 643.5 400.17C644.97 399.32 647.03 399.32 648.5 400.17C649.97 399.32 652.03 399.32 653.5 400.17C654.23 399.75 655.09 399.5 656 399.5C658.76 399.5 661 401.74 661 404.5ZM656 412L656 404.5C656 405.88 654.88 407 653.5 407C652.12 407 651 405.88 651 404.5C651 405.88 649.88 407 648.5 407C647.12 407 646 405.88 646 404.5C646 405.88 644.88 407 643.5 407C642.12 407 641 405.88 641 404.5C641 405.88 639.88 407 638.5 407C637.12 407 636 405.88 636 404.5C636 405.88 634.88 407 633.5 407C632.12 407 631 405.88 631 404.5C631 405.88 629.88 407 628.5 407C627.12 407 626 405.88 626 404.5C626 405.88 624.88 407 623.5 407C622.12 407 621 405.88 621 404.5C621 405.88 619.88 407 618.5 407C617.12 407 616 405.88 616 404.5C616 405.88 614.88 407 613.5 407C612.12 407 611 405.88 611 404.5L611 412L656 412Z" />
				<path id="Path" class="shp19" d="M517.38 331.74C518.62 332.36 520.12 331.85 520.74 330.62L528.5 315.09L528.5 329.5C528.5 330.88 529.62 332 531 332C532.38 332 533.5 330.88 533.5 329.5L533.5 315.09L541.26 330.62C541.7 331.5 542.58 332 543.5 332C543.88 332 544.26 331.92 544.62 331.74C545.85 331.12 546.36 329.62 545.74 328.38L533.24 303.38C533.13 303.17 532.99 302.98 532.82 302.82C532.37 302.32 531.73 302 531 302C530.27 302 529.63 302.32 529.18 302.82C529.01 302.98 528.87 303.17 528.76 303.38L516.26 328.38C515.65 329.62 516.15 331.12 517.38 331.74Z" />
				<path id="Path" class="shp15" d="M621 364.5L621 357L626 357L626 392C626 393.38 627.12 394.5 628.5 394.5C629.88 394.5 631 393.38 631 392L631 354.5C631 353.12 629.88 352 628.5 352L618.5 352C617.12 352 616 353.12 616 354.5L616 362L606 362L606 354.5C606 353.12 604.88 352 603.5 352L593.5 352C592.12 352 591 353.12 591 354.5L591 362L581 362L581 354.5C581 353.12 579.88 352 578.5 352L568.5 352C567.12 352 566 353.12 566 354.5L566 362L556 362L556 354.5C556 353.12 554.88 352 553.5 352L543.5 352C542.12 352 541 353.12 541 354.5L541 392C541 393.38 542.12 394.5 543.5 394.5C544.88 394.5 546 393.38 546 392L546 357L551 357L551 364.5C551 365.88 552.12 367 553.5 367L568.5 367C569.88 367 571 365.88 571 364.5L571 357L576 357L576 364.5C576 365.88 577.12 367 578.5 367L593.5 367C594.88 367 596 365.88 596 364.5L596 357L601 357L601 364.5C601 365.88 602.12 367 603.5 367L618.5 367C619.88 367 621 365.88 621 364.5Z" />
				<path id="Path" class="shp26" d="M513.5 282L516 282L516 284.5C516 285.88 517.12 287 518.5 287C519.88 287 521 285.88 521 284.5L521 282L523.5 282C524.88 282 526 280.88 526 279.5C526 278.12 524.88 277 523.5 277L521 277L521 274.5C521 273.12 519.88 272 518.5 272C517.12 272 516 273.12 516 274.5L516 277L513.5 277C512.12 277 511 278.12 511 279.5C511 280.88 512.12 282 513.5 282Z" />
				<path id="Path" class="shp10" d="M513.5 342L516 342L516 394.5C516 395.88 517.12 397 518.5 397C519.88 397 521 395.88 521 394.5L521 342L541 342L541 344.5C541 345.88 542.12 347 543.5 347C544.88 347 546 345.88 546 344.5L546 342L548.5 342C549.88 342 551 340.88 551 339.5C551 338.12 549.88 337 548.5 337L513.5 337C512.12 337 511 338.12 511 339.5C511 340.88 512.12 342 513.5 342Z" />
				<path id="Path" class="shp13" d="M533.5 354.5C533.5 353.12 532.38 352 531 352C529.62 352 528.5 353.12 528.5 354.5L528.5 359.5C528.5 360.88 529.62 362 531 362C532.38 362 533.5 360.88 533.5 359.5L533.5 354.5Z" />
			</g>
		</g>
		<g id="Crown">
			<path id="Spacing" class="shp0" d="M761 267L911 267L911 417L761 417L761 267Z" />
			<g id="Icon">
				<path id="Shape" fill-rule="evenodd" class="shp27" d="M904.63 347.06C908.36 348.49 911 352.85 911 358.14C911 364.64 907.03 369.72 901.97 369.72C901.13 369.72 900.3 369.58 899.51 369.3L898.5 373.67C900.36 374.26 901.71 376.01 901.71 378.06L901.71 382.04C901.71 384.58 899.64 386.65 897.1 386.65L873.57 386.65C872.35 386.65 871.37 385.66 871.37 384.45C871.37 383.23 872.35 382.25 873.57 382.25L897.1 382.25C897.22 382.25 897.31 382.15 897.31 382.04L897.31 378.06C897.31 377.95 897.22 377.85 897.1 377.85L774.9 377.85C774.78 377.85 774.69 377.95 774.69 378.06L774.69 382.04C774.69 382.15 774.78 382.25 774.9 382.25L864.01 382.25C865.23 382.25 866.21 383.23 866.21 384.45C866.21 385.66 865.23 386.65 864.01 386.65L774.9 386.65C772.36 386.65 770.29 384.58 770.29 382.04L770.29 378.06C770.29 376.01 771.64 374.26 773.5 373.67L772.49 369.3C771.7 369.58 770.87 369.72 770.03 369.72C764.96 369.72 761 364.64 761 358.14C761 352.85 763.64 348.49 767.37 347.06L764.18 333.24C763.51 330.32 766.93 328.19 769.23 330.12C771.22 331.79 774.32 334.02 777.75 335.16C780.24 335.98 782.05 337.8 782.83 340.29C783.71 343.05 783.18 346.42 781.51 348.66C780.61 349.88 780.8 351.5 781.95 352.36C783.23 353.31 784.84 353.8 786.72 353.8C789.98 353.8 791.76 346.65 792.13 339.46C789 339.77 786.43 338.74 784.94 336.53C782.88 333.45 785.91 327.51 792.82 315.61C794.59 312.56 796.27 309.68 797.25 307.66C797.72 306.68 798.64 306.03 799.71 305.91C800.79 305.79 801.83 306.23 802.5 307.07C804.95 310.16 810.65 318.19 810.65 326.13C810.65 328.97 810.95 332.27 811.5 335.41C811.7 336.61 810.9 337.74 809.71 337.95C808.51 338.16 807.37 337.36 807.17 336.16C806.58 332.78 806.25 329.22 806.25 326.13C806.25 320.58 802.52 314.55 800.26 311.41C799.26 313.29 797.97 315.51 796.62 317.82C795.06 320.5 788.57 331.36 788.69 334.21C789.65 335.42 791.69 335.16 792.85 334.89C794.79 334.43 796.63 335.92 796.59 337.91C796.45 344.01 795.21 358.2 786.72 358.2C783.87 358.2 781.38 357.42 779.33 355.89C776.25 353.6 775.65 349.18 777.98 346.04C778.7 345.07 779.16 343.24 778.64 341.62C778.28 340.48 777.52 339.71 776.37 339.33C773.71 338.45 771.26 337.06 769.25 335.66L776.09 365.33C776.09 365.34 776.09 365.34 776.09 365.35L777.96 373.45L894.04 373.45L895.91 365.35C895.91 365.34 895.91 365.34 895.91 365.33L902.75 335.66C900.74 337.06 898.29 338.45 895.63 339.33C894.48 339.71 893.72 340.48 893.36 341.62C892.84 343.24 893.3 345.07 894.02 346.04C896.35 349.18 895.75 353.6 892.67 355.89C890.62 357.42 888.13 358.2 885.28 358.2C876.79 358.2 875.55 344.01 875.42 337.91C875.37 335.92 877.21 334.43 879.15 334.89C880.31 335.16 882.35 335.42 883.32 334.2C883.34 333.74 883.14 331.87 879.91 325.82C879.33 324.75 879.74 323.42 880.81 322.84C881.88 322.27 883.21 322.68 883.78 323.75C887.61 330.92 888.5 334.38 887.06 336.53C885.57 338.74 883.01 339.76 879.87 339.46C880.24 346.65 882.02 353.8 885.28 353.8C887.16 353.8 888.77 353.31 890.05 352.36C891.2 351.5 891.39 349.88 890.49 348.66C888.83 346.42 888.29 343.05 889.17 340.29C889.95 337.8 891.76 335.98 894.25 335.16C897.68 334.02 900.78 331.79 902.77 330.12C905.07 328.2 908.49 330.32 907.82 333.24L904.63 347.06ZM770.03 365.32C770.58 365.32 771.07 365.16 771.49 364.94L768.38 351.46C766.65 352.51 765.39 355.15 765.39 358.14C765.39 362.04 767.52 365.32 770.03 365.32ZM901.97 365.32C904.48 365.32 906.61 362.04 906.61 358.14C906.61 355.15 905.35 352.51 903.62 351.46L900.51 364.94C900.93 365.16 901.42 365.32 901.97 365.32Z" />
				<path id="Path" class="shp28" d="M809.89 345.85C811.46 349.41 813.41 351.44 815.69 351.87C818.75 352.46 822.02 350.92 824.45 348.9C828.74 345.35 831.3 339.76 831.3 333.94L831.3 329.78C831.3 327.18 828.45 325.58 826.24 326.93C825.56 327.35 824.58 327.57 823.42 327.57C820.51 327.57 818.57 326.67 818.57 322.31C818.57 322.02 818.8 320.32 823.21 315.3C826.15 311.96 829.98 308.22 833.05 305.22C834.14 304.17 835.12 303.21 836 302.33C836.88 303.21 837.87 304.17 838.96 305.23C842.03 308.23 845.86 311.96 848.79 315.3C853.2 320.32 853.43 322.02 853.43 322.31C853.43 326.67 851.49 327.57 848.58 327.57C847.4 327.57 846.45 327.35 845.76 326.93C843.54 325.58 840.7 327.18 840.7 329.78L840.7 333.94C840.7 339.76 843.26 345.35 847.55 348.9C850.45 351.3 853.64 352.39 856.32 351.87C863.37 350.52 865.75 333.62 865.75 326.13C865.75 320.58 869.48 314.55 871.74 311.41C872.73 313.27 874 315.45 875.32 317.73C875.93 318.78 877.28 319.13 878.33 318.52C879.38 317.91 879.73 316.57 879.12 315.52C877.38 312.51 875.73 309.68 874.75 307.66C874.28 306.68 873.36 306.03 872.29 305.91C871.21 305.79 870.17 306.23 869.5 307.08C867.05 310.16 861.35 318.19 861.35 326.13C861.35 330.67 860.6 336.15 859.38 340.42C857.85 345.77 856.16 347.42 855.49 347.55C854.49 347.75 852.54 347.33 850.35 345.51C847.06 342.79 845.1 338.47 845.1 333.94L845.1 331.44C846.14 331.79 847.3 331.97 848.58 331.97C854.54 331.97 857.82 328.53 857.82 322.31C857.82 317.84 850.97 310.81 842.02 302.08C837.96 298.13 837.93 298.03 837.56 297.65C837.15 297.23 836.59 297 836 297C835.42 297 834.85 297.23 834.44 297.65C833.93 298.17 833.95 298.21 829.99 302.07C821.03 310.81 814.18 317.84 814.18 322.31C814.18 328.54 817.46 331.97 823.42 331.97C824.7 331.97 825.86 331.79 826.9 331.44L826.9 333.94C826.9 338.47 824.94 342.79 821.65 345.51C819.46 347.33 817.51 347.75 816.51 347.55C816.39 347.53 815.31 347.24 813.91 344.07C813.42 342.96 812.13 342.46 811.02 342.95C809.91 343.44 809.4 344.74 809.89 345.85L809.89 345.85Z" />
				<path id="Shape" fill-rule="evenodd" class="shp29" d="M836 345.27C841.06 345.27 845.17 350.47 845.17 356.85C845.17 363.24 841.06 368.43 836 368.43C830.94 368.43 826.83 363.24 826.83 356.85C826.83 350.47 830.94 345.27 836 345.27ZM831.23 356.85C831.23 360.74 833.41 364.03 836 364.03C838.59 364.03 840.77 360.74 840.77 356.85C840.77 352.96 838.59 349.67 836 349.67C833.41 349.67 831.23 352.96 831.23 356.85Z" />
				<path id="Shape" fill-rule="evenodd" class="shp12" d="M836 325.65C832.16 325.65 829.16 321.87 829.16 317.04C829.16 312.21 832.16 308.43 836 308.43C839.84 308.43 842.84 312.21 842.84 317.04C842.84 321.87 839.84 325.65 836 325.65ZM833.55 317.04C833.55 319.45 834.84 321.25 836 321.25C837.16 321.25 838.45 319.45 838.45 317.04C838.45 314.63 837.16 312.83 836 312.83C834.84 312.83 833.55 314.63 833.55 317.04Z" />
			</g>
		</g>
		<text id="Fantasy Icon Set" style="transform: matrix(1,0,0,1,-239,-367)" >
			<tspan x="0" y="0" class="txt30">Fantasy Icon Set</tspan>
		</text>
		<g id="Color Pallet">
			<path id="Oval" class="shp10" d="M701 -385C709.28 -385 716 -391.72 716 -400C716 -408.28 709.28 -415 701 -415C692.72 -415 686 -408.28 686 -400C686 -391.72 692.72 -385 701 -385Z" />
			<path id="Oval" class="shp9" d="M621 -385C629.28 -385 636 -391.72 636 -400C636 -408.28 629.28 -415 621 -415C612.72 -415 606 -408.28 606 -400C606 -391.72 612.72 -385 621 -385Z" />
			<path id="Oval" class="shp14" d="M661 -385C669.28 -385 676 -391.72 676 -400C676 -408.28 669.28 -415 661 -415C652.72 -415 646 -408.28 646 -400C646 -391.72 652.72 -385 661 -385Z" />
			<path id="Oval" class="shp8" d="M781 -385C789.28 -385 796 -391.72 796 -400C796 -408.28 789.28 -415 781 -415C772.72 -415 766 -408.28 766 -400C766 -391.72 772.72 -385 781 -385Z" />
			<path id="Oval" class="shp19" d="M741 -385C749.28 -385 756 -391.72 756 -400C756 -408.28 749.28 -415 741 -415C732.72 -415 726 -408.28 726 -400C726 -391.72 732.72 -385 741 -385Z" />
			<path id="Oval" class="shp15" d="M581 -385C589.28 -385 596 -391.72 596 -400C596 -408.28 589.28 -415 581 -415C572.72 -415 566 -408.28 566 -400C566 -391.72 572.72 -385 581 -385Z" />
			<path id="Oval" class="shp31" d="M861 -385C869.28 -385 876 -391.72 876 -400C876 -408.28 869.28 -415 861 -415C852.72 -415 846 -408.28 846 -400C846 -391.72 852.72 -385 861 -385Z" />
			<path id="Oval" class="shp12" d="M821 -385C829.28 -385 836 -391.72 836 -400C836 -408.28 829.28 -415 821 -415C812.72 -415 806 -408.28 806 -400C806 -391.72 812.72 -385 821 -385Z" />
		</g>
	</g>
</svg>