<svg xmlns="http://www.w3.org/2000/svg" viewBox="0 0 150 151" width="150" height="151">
	<defs>
		<clipPath clipPathUnits="userSpaceOnUse" id="cp1">
			<path d="M-975 -640L625 -640L625 560L-975 560Z" />
		</clipPath>
	</defs>
	<style>
		tspan { white-space:pre }
		.shp0 { fill: #ac4eff } 
		.shp1 { fill: #e463ff } 
		.shp2 { fill: #f8e71c } 
	</style>
	<g id="Dribbble Shot" clip-path="url(#cp1)">
		<g id="Wizard Hat">
			<g id="Icon">
				<path id="Shape" fill-rule="evenodd" class="shp0" d="M149.43 127.81C149.43 132.17 145.92 136.12 139.01 139.52C138.69 139.68 138.36 139.75 138.03 139.75C137.21 139.75 136.43 139.31 136.05 138.53C135.5 137.45 135.95 136.13 137.04 135.59C142.18 133.06 145 130.29 145 127.81C145 124.39 139.45 119.46 124.15 115.45L126 119.91C126.28 120.58 126.2 121.35 125.8 121.96C125.4 122.56 115.49 136.76 74.71 136.76C33.94 136.76 24.03 122.56 23.63 121.96C23.23 121.35 23.15 120.58 23.43 119.91L25.28 115.46C19.21 117.05 14.17 118.94 10.57 120.98C8.27 122.29 4.42 124.9 4.42 127.81C4.42 132.68 14.56 137.21 24.04 139.83C37.55 143.55 55.54 145.61 74.71 145.61C94.51 145.61 113.6 143.33 127.07 139.35C128.24 139 129.47 139.67 129.82 140.83C130.17 141.99 129.5 143.22 128.33 143.56C114.26 147.71 95.22 150 74.71 150C38.49 150 0 142.22 0 127.81C0 123.9 2.82 120.32 8.38 117.17C13.01 114.54 19.4 112.27 27.38 110.41L48.58 59.37C49.04 58.25 50.34 57.72 51.47 58.18C52.6 58.64 53.13 59.93 52.67 61.05L36.38 100.27C43.22 103.43 55.12 106.8 74.71 106.8C94.31 106.8 106.2 103.43 113.05 100.27L109.51 91.74C108.42 89.12 112.51 87.45 113.6 90.06L122.05 110.41C122.07 110.41 122.08 110.41 122.1 110.42C130.27 112.33 136.76 114.67 141.4 117.37C146.73 120.47 149.43 123.99 149.43 127.81ZM121.39 120.35L114.74 104.33C102.43 109.97 86.35 111.2 74.71 111.2C63.08 111.2 47 109.97 34.69 104.33L28.03 120.35C29.16 121.5 31.72 123.7 36.51 125.9C48.17 131.25 63.72 132.37 74.71 132.37C94.99 132.37 106.94 128.73 113.4 125.67C117.91 123.54 120.32 121.46 121.39 120.35Z" />
				<path id="Path" class="shp1" d="M126.01 46.87L101.1 1.15C100.71 0.44 99.96 0 99.15 0L74.76 0C73.86 0 73.05 0.54 72.71 1.36L52.78 49.39C52.32 50.51 52.86 51.8 53.98 52.26C55.11 52.72 56.41 52.19 56.87 51.06L76.24 4.4L97.84 4.4L117.35 40.21L94.75 23.5L96.31 22.02C97.2 21.18 97.23 19.79 96.39 18.91C95.55 18.03 94.15 18 93.26 18.83L86.69 25.2L83.93 18.54C83.46 17.42 82.17 16.88 81.04 17.35C79.91 17.81 79.37 19.1 79.84 20.22L105.39 81.79C106.48 84.4 110.57 82.73 109.48 80.11L88.52 29.6L91.54 26.61L122.75 49.68C123.58 50.3 124.73 50.25 125.51 49.58C126.3 48.9 126.5 47.77 126.01 46.87Z" />
				<path id="Shape" fill-rule="evenodd" class="shp2" d="M89.3 79.54L83.88 84.73L85.16 92.06C85.46 93.8 83.53 95.18 81.94 94.35L75.23 90.9L68.53 94.35C66.93 95.18 65 93.8 65.31 92.06L66.59 84.73L61.16 79.54C59.87 78.3 60.61 76.08 62.39 75.83L69.89 74.76L73.24 68.09C74.04 66.5 76.43 66.5 77.22 68.09L80.58 74.76L88.07 75.83C88.91 75.94 89.6 76.52 89.86 77.31C90.12 78.1 89.91 78.96 89.3 79.54ZM82.98 79.5L78.78 78.9C78.06 78.8 77.43 78.36 77.11 77.71L75.23 73.98L73.35 77.71C73.03 78.36 72.41 78.8 71.68 78.9L67.48 79.5L70.52 82.41C71.05 82.91 71.28 83.63 71.16 84.34L70.44 88.44L74.2 86.5C74.85 86.17 75.62 86.17 76.27 86.5L80.02 88.44L79.3 84.34C79.18 83.63 79.42 82.91 79.94 82.41L82.98 79.5Z" />
			</g>
		</g>
	</g>
</svg>