<svg xmlns="http://www.w3.org/2000/svg" viewBox="0 0 175 175" width="175" height="175">
	<defs>
		<clipPath clipPathUnits="userSpaceOnUse" id="cp1">
			<path d="M-1213 -372L387 -372L387 828L-1213 828Z" />
		</clipPath>
	</defs>
	<style>
		tspan { white-space:pre }
		.shp0 { fill: #ffffff } 
		.shp1 { fill: #23f5a5 } 
		.shp2 { fill: #8a64ff } 
		.shp3 { fill: #f831e3 } 
		.shp4 { fill: #c713ef } 
		.shp5 { fill: #5b90ff } 
		.shp6 { fill: #fff35a } 
		.shp7 { fill: #a0fff5 } 
		.shp8 { fill: #ff008b } 
		.shp9 { fill: #ff8edf } 
		.shp10 { fill: #9013fe } 
		.shp11 { fill: #bfdcff } 
		.shp12 { fill: #bd10e0 } 
		.shp13 { fill: #27cedb } 
		.shp14 { fill: #50e3c2 } 
		.shp15 { fill: #4a90e2 } 
		.shp16 { fill: #ff00f5 } 
		.shp17 { fill: #50e38c } 
		.shp18 { fill: #f8e71c } 
		.shp19 { fill: #6fd6d9 } 
		.shp20 { fill: #ff00b6 } 
		.shp21 { fill: #e800ff } 
		.shp22 { fill: #ff0053 } 
		.shp23 { fill: #3c57ff } 
		.shp24 { fill: #0f7cfa } 
		.shp25 { fill: #00ffc6 } 
		.shp26 { fill: #9210e0 } 
		.shp27 { fill: #ff008f } 
		.shp28 { fill: #f59b23 } 
		.shp29 { fill: #f5c823 } 
		.shp30 { fill: #ffa7e6 } 
		.shp31 { fill: #ffcb74 } 
		.shp32 { fill: #fff683 } 
		.shp33 { fill: #ff0082 } 
		.txt34 { font-size: 100px;fill: #ffffff;font-family: "Leckerli One";font-weight: 400 } 
		.shp35 { fill: #f8c61c } 
	</style>
	<g id="Dribbble Shot" clip-path="url(#cp1)">
		<g id="Sparkle Smoke">
			<path id="Spacing" class="shp0" d="M-488 268L-338 268L-338 418L-488 418L-488 268Z" />
			<g id="Icon">
				<path id="Path" class="shp1" d="M-374.48 381.02C-375.79 381.02 -376.84 382.02 -376.84 383.26L-376.84 389.2C-376.84 390.43 -375.79 391.44 -374.48 391.44C-373.18 391.44 -372.12 390.43 -372.12 389.2L-372.12 383.26C-372.12 382.02 -373.18 381.02 -374.48 381.02Z" />
				<path id="Path" class="shp1" d="M-374.48 397.17C-375.79 397.17 -376.84 398.17 -376.84 399.41L-376.84 405.34C-376.84 406.58 -375.79 407.58 -374.48 407.58C-373.18 407.58 -372.12 406.58 -372.12 405.34L-372.12 399.41C-372.12 398.17 -373.18 397.17 -374.48 397.17Z" />
				<path id="Path" class="shp1" d="M-363.37 391.96L-369.34 391.96C-370.59 391.96 -371.6 393.01 -371.6 394.3C-371.6 395.6 -370.59 396.65 -369.34 396.65L-363.37 396.65C-362.12 396.65 -361.11 395.6 -361.11 394.3C-361.11 393.01 -362.12 391.96 -363.37 391.96Z" />
				<path id="Path" class="shp1" d="M-379.1 391.96L-385.07 391.96C-386.32 391.96 -387.33 393.01 -387.33 394.3C-387.33 395.6 -386.32 396.65 -385.07 396.65L-379.1 396.65C-377.85 396.65 -376.84 395.6 -376.84 394.3C-376.84 393.01 -377.85 391.96 -379.1 391.96Z" />
				<path id="Path" class="shp2" d="M-383.35 326.82C-384.55 326.57 -385.73 327.35 -385.98 328.55C-386.82 332.58 -389.53 335.64 -394.52 338.2C-396.28 339.09 -398.26 339.89 -400.36 340.6C-399.58 339.19 -398.98 337.56 -398.58 335.65C-397.57 330.74 -398.54 326.81 -401.46 323.97C-405.06 320.47 -411.47 318.93 -420.52 319.4C-426.7 319.72 -431.93 320.87 -432.57 321.01C-439.71 322.28 -445.82 322.81 -451.08 322.81C-472.4 322.81 -479.48 314.03 -481.69 309.56C-483.7 305.51 -484.07 300.8 -482.76 295.95C-481.46 291.15 -478.53 286.48 -474.51 282.81C-473.6 281.98 -473.54 280.57 -474.37 279.66C-475.2 278.75 -476.61 278.69 -477.52 279.52C-482.17 283.76 -485.56 289.18 -487.07 294.79C-488.67 300.7 -488.2 306.49 -485.7 311.53C-482.57 317.86 -476.44 322.53 -467.98 325.04C-458.49 327.86 -446.3 327.98 -431.74 325.39C-431.7 325.38 -431.66 325.37 -431.62 325.37C-425.96 324.06 -410.05 321.83 -404.57 327.16C-402.79 328.89 -402.26 331.38 -402.96 334.75C-404.4 341.75 -409.42 344.48 -421.47 344.8C-422.7 344.83 -423.68 345.85 -423.64 347.08C-423.61 348.29 -422.62 349.25 -421.41 349.25C-421.39 349.25 -421.37 349.25 -421.35 349.25C-417.75 349.15 -414.19 348.87 -410.99 348.07C-397.19 345.01 -383.96 340.85 -381.61 329.45C-381.36 328.24 -382.14 327.07 -383.35 326.82Z" />
				<path id="Path" class="shp3" d="M-379.84 300C-385.76 299.24 -392.37 298.86 -399.49 298.86C-405.93 298.86 -412.36 299.33 -418.58 299.79C-426.88 300.4 -435.4 301.03 -440.12 299.91C-440.25 299.86 -440.38 299.83 -440.53 299.8C-441.77 299.46 -442.72 298.98 -443.27 298.32C-443.51 298.04 -444.22 297.19 -443.56 294.71C-441.45 286.8 -430.98 283.1 -422.57 281.38C-412.99 279.43 -403.81 279.57 -403.72 279.58C-402.65 279.59 -401.7 278.85 -401.48 277.81C-401.26 276.76 -401.83 275.71 -402.82 275.3C-403.21 275.14 -412.4 271.42 -425.13 269.33C-436.97 267.39 -454.19 266.61 -468.93 273.87C-470.04 274.42 -470.49 275.75 -469.94 276.85C-469.39 277.95 -468.04 278.4 -466.93 277.85C-453.3 271.13 -437.12 271.88 -425.96 273.7C-422.26 274.3 -418.85 275.06 -415.89 275.82C-427.83 277.21 -444.63 281.35 -447.9 293.58C-448.33 295.19 -448.43 296.66 -448.19 297.97C-452.18 296.22 -455.44 292.88 -455.44 286.28C-455.44 285.05 -456.45 284.06 -457.68 284.06C-458.92 284.06 -459.92 285.05 -459.92 286.28C-459.92 299.34 -449.75 303.23 -441.18 304.2C-438.84 304.77 -435.99 304.98 -432.75 304.98C-428.51 304.98 -423.6 304.62 -418.24 304.22C-412.11 303.77 -405.77 303.3 -399.49 303.3C-392.56 303.3 -386.14 303.67 -380.42 304.41C-379.2 304.56 -378.07 303.71 -377.91 302.49C-377.75 301.27 -378.62 300.16 -379.84 300Z" />
				<path id="Path" class="shp4" d="M-341.97 319.34C-344.81 314.51 -349.19 310.47 -354.99 307.33C-356.07 306.75 -357.43 307.15 -358.01 308.22C-358.6 309.3 -358.2 310.65 -357.12 311.23C-347.42 316.47 -342.51 324.32 -342.51 334.55C-342.51 345.98 -348.62 355.95 -358.86 361.2C-359.95 361.77 -360.38 363.11 -359.81 364.19C-359.42 364.96 -358.64 365.4 -357.83 365.4C-357.48 365.4 -357.13 365.32 -356.81 365.15C-345.06 359.11 -338.04 347.68 -338.04 334.55C-338.04 328.9 -339.36 323.78 -341.97 319.34Z" />
				<path id="Path" class="shp5" d="M-364.32 365.69C-364.6 364.49 -365.81 363.75 -367.01 364.03C-369.89 364.71 -372.93 365.05 -376.04 365.05C-387.29 365.05 -397.4 365.05 -404.04 368.13C-411.14 370.49 -419.49 375.7 -421.96 383.38C-422.34 384.55 -421.69 385.8 -420.51 386.17C-420.29 386.25 -420.06 386.28 -419.83 386.28C-418.88 386.28 -418 385.68 -417.7 384.73C-416.92 382.33 -414.95 379.44 -411.51 376.86C-412.26 380.12 -411.9 384.05 -410.41 388.77C-408.95 393.42 -409.27 397.63 -411.36 401.27C-414.63 406.96 -421.5 410.28 -425.83 411.88C-424.21 404.86 -425.19 398.43 -428.69 393.47C-433.01 387.36 -440.81 383.99 -450.66 383.99C-455.75 383.99 -460.2 382.66 -463.51 380.14C-466.42 377.93 -468.4 374.8 -469.1 371.33C-469.8 367.79 -469.16 364.05 -467.28 360.8C-465.17 357.14 -461.6 354.19 -456.97 352.29C-453.59 350.9 -449.67 349.99 -444.98 349.52C-443.75 349.4 -442.85 348.31 -442.98 347.08C-443.1 345.86 -444.2 344.97 -445.43 345.09C-450.56 345.61 -454.9 346.62 -458.68 348.17C-471.2 353.32 -475.14 363.95 -473.49 372.19C-472.58 376.73 -470 380.81 -466.23 383.68C-462.13 386.79 -456.75 388.44 -450.66 388.44C-442.31 388.44 -435.81 391.13 -432.36 396.03C-429.04 400.73 -428.65 407.29 -431.28 414.5C-431.55 415.26 -431.39 416.12 -430.84 416.73C-430.41 417.21 -429.8 417.48 -429.17 417.48C-429 417.48 -428.83 417.46 -428.67 417.42C-428.05 417.28 -413.43 413.82 -407.48 403.5C-404.74 398.73 -404.29 393.33 -406.14 387.44C-407.93 381.75 -407.85 377.69 -405.88 375.03C-405.01 373.85 -403.75 372.92 -402.19 372.19C-402.18 372.19 -402.17 372.19 -402.16 372.18C-396.39 369.5 -386.45 369.5 -376.04 369.5C-372.58 369.5 -369.2 369.12 -365.98 368.36C-364.78 368.08 -364.03 366.88 -364.32 365.69Z" />
				<path id="Shape" fill-rule="evenodd" class="shp6" d="M-343.29 292.22C-343.29 294.42 -344.8 296.27 -346.98 296.7L-352.32 297.78C-356.71 298.67 -360.13 302.06 -361.02 306.42L-362.1 311.73C-362.54 313.89 -364.4 315.4 -366.62 315.4C-368.84 315.4 -370.69 313.89 -371.13 311.73L-372.22 306.42C-373.11 302.06 -376.52 298.67 -380.91 297.78L-386.26 296.7C-388.43 296.27 -389.95 294.42 -389.95 292.22C-389.95 290.02 -388.43 288.17 -386.26 287.73L-380.91 286.66C-376.52 285.77 -373.11 282.38 -372.22 278.02L-371.13 272.71C-370.69 270.55 -368.84 269.04 -366.62 269.04C-364.4 269.04 -362.54 270.55 -362.1 272.71L-361.02 278.02C-360.13 282.38 -356.71 285.77 -352.32 286.66L-346.98 287.73C-344.8 288.17 -343.29 290.02 -343.29 292.22ZM-347.8 292.12C-347.8 292.13 -347.82 292.12 -347.87 292.11L-353.21 291.03C-359.38 289.79 -364.17 285.03 -365.42 278.9L-366.5 273.6C-366.51 273.55 -366.53 273.52 -366.53 273.52C-366.56 273.5 -366.67 273.5 -366.71 273.52C-366.71 273.52 -366.72 273.54 -366.73 273.6L-367.82 278.9C-369.06 285.03 -373.86 289.79 -380.02 291.03L-385.37 292.11C-385.41 292.12 -385.44 292.13 -385.45 292.13C-385.47 292.16 -385.47 292.28 -385.44 292.31C-385.44 292.31 -385.44 292.31 -385.44 292.31C-385.43 292.31 -385.41 292.32 -385.37 292.33L-380.02 293.41C-373.86 294.65 -369.07 299.41 -367.82 305.53L-366.73 310.84C-366.72 310.89 -366.71 310.92 -366.71 310.92C-366.67 310.94 -366.56 310.94 -366.52 310.92C-366.52 310.92 -366.51 310.89 -366.5 310.84L-365.42 305.53C-364.17 299.41 -359.38 294.65 -353.21 293.41L-347.87 292.33C-347.82 292.32 -347.79 292.31 -347.79 292.31C-347.77 292.28 -347.77 292.16 -347.8 292.12Z" />
				<path id="Shape" fill-rule="evenodd" class="shp7" d="M-409.88 358.89C-409.88 361.09 -411.39 362.93 -413.57 363.37L-418.91 364.45C-423.3 365.33 -426.72 368.72 -427.61 373.09L-428.69 378.4C-429.13 380.55 -430.99 382.06 -433.21 382.06C-435.43 382.06 -437.28 380.55 -437.72 378.4L-438.81 373.09C-439.7 368.72 -443.11 365.33 -447.5 364.45L-452.85 363.37C-455.02 362.93 -456.54 361.09 -456.54 358.89C-456.54 356.68 -455.02 354.84 -452.85 354.4L-447.5 353.32C-443.11 352.44 -439.7 349.05 -438.81 344.68L-437.72 339.38C-437.28 337.22 -435.43 335.71 -433.21 335.71C-430.99 335.71 -429.13 337.22 -428.69 339.38L-427.61 344.68C-426.72 349.05 -423.3 352.44 -418.91 353.32L-413.57 354.4C-411.39 354.84 -409.88 356.68 -409.88 358.89ZM-414.39 358.79C-414.38 358.79 -414.41 358.78 -414.46 358.77L-419.8 357.69C-425.97 356.45 -430.76 351.69 -432.01 345.57L-433.09 340.26C-433.1 340.21 -433.12 340.19 -433.12 340.18C-433.15 340.16 -433.26 340.16 -433.3 340.19C-433.3 340.19 -433.31 340.21 -433.32 340.26L-434.41 345.57C-435.66 351.69 -440.45 356.45 -446.61 357.69L-451.96 358.77C-452 358.78 -452.03 358.79 -452.04 358.8C-452.06 358.83 -452.06 358.94 -452.03 358.98C-452.03 358.98 -452.03 358.98 -452.03 358.98C-452.02 358.98 -452 358.99 -451.96 359L-446.61 360.07C-440.45 361.32 -435.66 366.08 -434.41 372.2L-433.32 377.51C-433.31 377.56 -433.3 377.58 -433.3 377.59C-433.26 377.61 -433.15 377.61 -433.11 377.58C-433.11 377.58 -433.1 377.56 -433.09 377.51L-432.01 372.2C-430.76 366.08 -425.97 361.32 -419.8 360.07L-414.46 359C-414.41 358.99 -414.38 358.98 -414.38 358.97C-414.36 358.94 -414.36 358.83 -414.39 358.79Z" />
			</g>
		</g>
		<g id="Spell Book">
			<g id="Icon">
				<path id="Shape" fill-rule="evenodd" class="shp8" d="M159.39 152.5C160.77 152.5 161.89 153.62 161.89 154.99L161.89 164.96C161.89 166.33 160.77 167.45 159.39 167.45L96.94 167.45C95.56 167.45 94.44 166.33 94.44 164.96C94.44 160.83 91.09 157.48 86.95 157.48C82.81 157.48 79.45 160.83 79.45 164.96C79.45 166.33 78.33 167.45 76.95 167.45L14.5 167.45C13.12 167.45 12 166.33 12 164.96L12 154.99C12 153.62 13.12 152.5 14.5 152.5L17 152.5L17 130.08C17 129.38 17.29 128.71 17.81 128.24C18.34 127.77 19.03 127.54 19.73 127.61C65.99 132 81.73 140.39 85.22 142.65C85.8 142.61 86.34 142.54 86.95 142.54C87.56 142.54 88.09 142.61 88.67 142.65C92.16 140.39 107.9 132 154.16 127.61C154.86 127.54 155.56 127.77 156.08 128.24C156.6 128.71 156.9 129.38 156.9 130.08L156.9 152.5L159.39 152.5ZM96.4 144.26C100.4 145.88 103.75 148.78 105.92 152.5L151.9 152.5L151.9 147.52L121.92 147.52L121.92 142.54L151.9 142.54L151.9 132.82C119.94 136.06 103.78 141.12 96.4 144.26ZM21.99 152.5L67.97 152.5C70.13 148.8 73.45 145.91 77.42 144.28C69.94 141.12 53.67 136.02 21.99 132.82L21.99 142.54L51.97 142.54L51.97 147.52L21.99 147.52L21.99 152.5ZM31.99 162.46L31.99 157.48L17 157.48L17 162.46L31.99 162.46ZM99.19 162.46L136.91 162.46L136.91 157.48L104.43 157.48C103.48 157.49 102.61 156.95 102.19 156.11C99.34 150.41 94.21 147.52 86.95 147.52C79.68 147.52 74.55 150.41 71.69 156.11C71.27 156.95 70.41 157.48 69.46 157.48L36.98 157.48L36.98 162.46L74.71 162.46C75.9 156.67 81.01 152.51 86.95 152.5C92.88 152.51 97.99 156.67 99.19 162.46ZM156.9 157.48L141.91 157.48L141.91 162.46L156.9 162.46L156.9 157.48Z" />
				<path id="Path" class="shp9" d="M112.3 142.54L117.31 142.54L117.31 147.52L112.3 147.52L112.3 142.54Z" />
				<path id="Shape" fill-rule="evenodd" class="shp10" d="M69.47 21.83C66.41 30.87 66.4 44.39 93.7 68.86C101.11 75.52 104.54 82.72 103.86 90.25C102.55 104.66 86.54 114.63 85.86 115.05C84.95 115.6 83.8 115.52 82.98 114.85C82.16 114.18 81.85 113.06 82.22 112.07C82.32 111.78 85.68 100.42 62.96 80.02C54.54 72.47 50.15 63.73 49.9 54.06C49.42 35.31 64.7 19.92 65.35 19.28C66.17 18.46 67.44 18.32 68.42 18.93C69.4 19.54 69.84 20.74 69.47 21.83ZM90.35 72.57C72.06 56.15 63.33 42.58 63.17 29.86C59.19 35.67 54.62 44.46 54.87 53.96C55.08 62.2 58.92 69.73 66.28 76.33C82.54 90.93 86.66 101.61 87.36 107.8C91.76 104.17 98.18 97.61 98.88 89.81C99.41 83.92 96.54 78.13 90.35 72.57L90.35 72.57Z" />
				<path id="Shape" fill-rule="evenodd" class="shp10" d="M97.82 43.56C111.88 32.65 111.28 25.7 109.61 21.41C109.19 20.35 109.55 19.15 110.47 18.48C111.39 17.81 112.65 17.84 113.54 18.56C114.04 18.96 125.78 28.58 125.67 39.53C125.5 44.74 122.85 49.56 118.53 52.51C106.31 62 106.88 67.55 106.88 67.6C107.1 68.57 106.71 69.58 105.89 70.14C105.48 70.43 104.99 70.59 104.49 70.58C104 70.58 103.52 70.44 103.1 70.19C102.65 69.92 92.19 63.51 91.68 54.93C91.64 50.34 93.95 46.05 97.82 43.56ZM115.36 27.55C114.58 34.02 109.8 40.61 100.92 47.5C98.4 49.01 96.81 51.69 96.71 54.62C96.91 58.02 99.95 61.38 102.61 63.63C103.9 60.13 107.21 54.95 115.44 48.56C118.54 46.54 120.47 43.16 120.65 39.48C120.25 35.04 118.39 30.84 115.36 27.55L115.36 27.55Z" />
				<path id="Path" class="shp11" d="M87.22 85.53L92.24 85.53L92.24 90.51L87.22 90.51L87.22 85.53Z" />
				<path id="Path" class="shp11" d="M79.42 78.33L84.44 78.33L84.44 83.31L79.42 83.31L79.42 78.33Z" />
				<path id="Shape" fill-rule="evenodd" class="shp12" d="M127.07 83.31C131.22 83.31 134.59 79.97 134.59 75.84C134.59 74.47 135.71 73.35 137.1 73.35C138.48 73.35 139.6 74.47 139.6 75.84C139.6 79.97 142.97 83.31 147.13 83.31C148.51 83.31 149.63 84.43 149.63 85.8C149.63 87.18 148.51 88.3 147.13 88.3C142.97 88.3 139.6 91.64 139.6 95.77C139.6 97.14 138.48 98.26 137.1 98.26C135.71 98.26 134.59 97.14 134.59 95.77C134.59 91.64 131.22 88.3 127.07 88.3C125.68 88.3 124.56 87.18 124.56 85.8C124.56 84.43 125.68 83.31 127.07 83.31ZM137.1 83.24C136.37 84.21 135.49 85.08 134.51 85.8C135.49 86.53 136.37 87.4 137.1 88.37C137.83 87.4 138.7 86.53 139.68 85.8C138.7 85.08 137.83 84.21 137.1 83.24Z" />
				<path id="Shape" fill-rule="evenodd" class="shp12" d="M44.6 107.67C48.75 107.67 52.12 104.32 52.12 100.2C52.12 98.82 53.24 97.7 54.63 97.7C56.01 97.7 57.13 98.82 57.13 100.2C57.13 104.32 60.5 107.67 64.66 107.67C66.04 107.67 67.16 108.78 67.16 110.16C67.16 111.53 66.04 112.65 64.66 112.65C60.5 112.65 57.13 116 57.13 120.12C57.13 121.5 56.01 122.61 54.63 122.61C53.24 122.61 52.12 121.5 52.12 120.12C52.12 116 48.75 112.65 44.6 112.65C43.21 112.65 42.09 111.53 42.09 110.16C42.09 108.78 43.21 107.67 44.6 107.67ZM52.04 110.16C53.03 110.88 53.9 111.75 54.63 112.73C55.36 111.75 56.23 110.88 57.21 110.16C56.23 109.43 55.36 108.57 54.63 107.59C53.9 108.57 53.03 109.43 52.04 110.16Z" />
				<path id="Shape" fill-rule="evenodd" class="shp12" d="M99.48 31.01C99.48 32.38 98.36 33.5 96.98 33.5C92.82 33.5 89.45 36.84 89.45 40.97C89.45 42.35 88.33 43.46 86.95 43.46C85.56 43.46 84.44 42.35 84.44 40.97C84.44 36.84 81.07 33.5 76.92 33.5C75.53 33.5 74.41 32.38 74.41 31.01C74.41 29.63 75.53 28.52 76.92 28.52C81.07 28.52 84.44 25.17 84.44 21.04C84.44 19.67 85.56 18.55 86.95 18.55C88.33 18.55 89.45 19.67 89.45 21.04C89.45 25.17 92.82 28.52 96.98 28.52C98.36 28.52 99.48 29.63 99.48 31.01ZM89.53 31.01C88.55 30.28 87.68 29.42 86.95 28.44C86.22 29.42 85.34 30.28 84.36 31.01C85.34 31.73 86.22 32.6 86.95 33.57C87.68 32.6 88.55 31.73 89.53 31.01Z" />
				<path id="Path" class="shp11" d="M114.53 65.6L119.54 65.6L119.54 70.58L114.53 70.58L114.53 65.6Z" />
				<path id="Path" class="shp11" d="M114.53 98.26L119.54 98.26L119.54 103.24L114.53 103.24L114.53 98.26Z" />
				<path id="Path" class="shp11" d="M49.33 85.53L54.35 85.53L54.35 90.51L49.33 90.51L49.33 85.53Z" />
				<path id="Path" class="shp11" d="M74.41 122.61L79.42 122.61L79.42 127.59L74.41 127.59L74.41 122.61Z" />
				<path id="Path" class="shp11" d="M27.04 110.44L32.06 110.44L32.06 115.42L27.04 115.42L27.04 110.44Z" />
				<path id="Shape" fill-rule="evenodd" class="shp13" d="M104.78 110.44C108.93 110.44 112.3 113.78 112.3 117.91C112.3 122.03 108.93 125.38 104.78 125.38C100.62 125.38 97.25 122.03 97.25 117.91C97.25 113.78 100.62 110.44 104.78 110.44ZM104.78 115.42C103.39 115.42 102.27 116.53 102.27 117.91C102.27 119.28 103.39 120.4 104.78 120.4C106.16 120.4 107.28 119.28 107.28 117.91C107.28 116.53 106.16 115.42 104.78 115.42Z" />
				<path id="Shape" fill-rule="evenodd" class="shp13" d="M44.32 75.84C44.32 79.97 40.95 83.31 36.8 83.31C32.64 83.31 29.27 79.97 29.27 75.84C29.27 71.71 32.64 68.37 36.8 68.37C40.95 68.37 44.32 71.71 44.32 75.84ZM39.3 75.84C39.3 74.47 38.18 73.35 36.8 73.35C35.41 73.35 34.29 74.47 34.29 75.84C34.29 77.22 35.41 78.33 36.8 78.33C38.18 78.33 39.3 77.22 39.3 75.84Z" />
				<path id="Shape" fill-rule="evenodd" class="shp13" d="M132.36 50.93C132.36 46.81 135.73 43.46 139.88 43.46C144.04 43.46 147.4 46.81 147.4 50.93C147.4 55.06 144.04 58.41 139.88 58.41C135.73 58.41 132.36 55.06 132.36 50.93ZM137.37 50.93C137.37 52.31 138.5 53.42 139.88 53.42C141.27 53.42 142.39 52.31 142.39 50.93C142.39 49.56 141.27 48.44 139.88 48.44C138.5 48.44 137.37 49.56 137.37 50.93Z" />
			</g>
		</g>
		<g id="Round Potion">
			<path id="Spacing" class="shp0" d="M-988 518L-838 518L-838 668L-988 668L-988 518Z" />
			<g id="Icon">
				<path id="Shape" fill-rule="evenodd" class="shp14" d="M-931.97 572.21L-931.97 555.5C-936.09 555.5 -939.45 552.14 -939.45 548C-939.45 543.87 -936.09 540.5 -931.97 540.5L-927.59 540.5L-930.56 527.13C-931.05 524.9 -930.52 522.59 -929.09 520.81C-927.66 519.02 -925.53 518 -923.25 518L-900.75 518C-898.47 518 -896.34 519.02 -894.91 520.81C-893.48 522.59 -892.95 524.89 -893.44 527.13L-896.41 540.5L-892.03 540.5C-887.91 540.5 -884.55 543.86 -884.55 548C-884.55 552.13 -887.91 555.5 -892.03 555.5L-892.03 572.21C-873.79 580.18 -862.09 597.97 -862.09 618C-862.09 645.57 -884.48 668 -912 668C-939.52 668 -961.91 645.57 -961.91 618C-961.91 597.97 -950.21 580.18 -931.97 572.21ZM-912 663C-887.23 663 -867.08 642.81 -867.08 618C-867.08 617.07 -867.13 616.14 -867.18 615.22L-870.01 616.71C-876.73 620.25 -884.04 622.02 -891.35 622.02C-899.09 622.02 -906.81 620.04 -913.8 616.1C-925.24 609.65 -939.18 609.13 -951.07 614.69L-956.9 617.41C-956.9 617.61 -956.92 617.8 -956.92 618C-956.92 642.81 -936.77 663 -912 663ZM-867.83 609.91C-867.85 609.79 -867.87 609.67 -867.9 609.54C-869.44 609.28 -871.08 609.17 -873.55 609.03C-880.16 608.65 -886.67 611.13 -891.43 615.85L-892.57 616.98C-885.66 617.19 -878.7 615.64 -872.34 612.29L-867.83 609.91ZM-922.48 540.5L-901.53 540.5L-898.32 526.04C-898.15 525.3 -898.33 524.53 -898.81 523.94C-899.28 523.34 -899.99 523 -900.75 523L-923.25 523C-924.01 523 -924.72 523.34 -925.19 523.94C-925.67 524.53 -925.85 525.3 -925.68 526.04L-922.48 540.5ZM-934.46 548C-934.46 549.38 -933.34 550.5 -931.97 550.5L-892.03 550.5C-890.66 550.5 -889.54 549.38 -889.54 548C-889.54 546.62 -890.66 545.5 -892.03 545.5L-931.97 545.5C-933.34 545.5 -934.46 546.62 -934.46 548ZM-918.94 555.5L-917.44 563L-906.56 563L-905.06 555.5L-918.94 555.5ZM-928.55 576.19C-943.8 582.26 -954.26 595.81 -956.47 611.7L-953.18 610.16C-939.83 603.92 -924.2 604.51 -911.36 611.75C-907.43 613.96 -903.25 615.46 -898.97 616.28L-894.94 612.3C-889.17 606.57 -881.25 603.55 -873.26 604.04C-871.74 604.13 -870.43 604.21 -869.19 604.33C-873.18 591.7 -882.62 581.3 -895.45 576.19C-896.4 575.82 -897.03 574.89 -897.03 573.87L-897.03 555.5L-899.97 555.5L-902.07 565.99C-902.3 567.16 -903.32 568 -904.51 568L-919.49 568C-920.68 568 -921.7 567.16 -921.94 565.99L-924.03 555.5L-926.97 555.5L-926.97 573.87C-926.97 574.89 -927.6 575.82 -928.55 576.19Z" />
				<path id="Shape" fill-rule="evenodd" class="shp12" d="M-869.4 553.02C-863.93 553.02 -859.47 557.47 -859.47 562.95C-859.47 568.42 -863.93 572.88 -869.4 572.88C-874.88 572.88 -879.33 568.42 -879.33 562.95C-879.33 557.47 -874.88 553.02 -869.4 553.02ZM-874.37 562.95C-874.37 565.69 -872.14 567.91 -869.4 567.91C-866.67 567.91 -864.44 565.69 -864.44 562.95C-864.44 560.21 -866.67 557.98 -869.4 557.98C-872.14 557.98 -874.37 560.21 -874.37 562.95Z" />
				<path id="Shape" fill-rule="evenodd" class="shp15" d="M-852.16 518C-845.24 518 -839.61 523.63 -839.61 530.54C-839.61 537.46 -845.24 543.09 -852.16 543.09C-859.07 543.09 -864.7 537.46 -864.7 530.54C-864.7 523.63 -859.07 518 -852.16 518ZM-859.68 530.54C-859.68 534.69 -856.31 538.07 -852.16 538.07C-848.01 538.07 -844.63 534.69 -844.63 530.54C-844.63 526.39 -848.01 523.02 -852.16 523.02C-856.31 523.02 -859.68 526.39 -859.68 530.54Z" />
				<path id="Shape" fill-rule="evenodd" class="shp16" d="M-946.76 550.4C-946.76 555.88 -951.21 560.33 -956.69 560.33C-962.16 560.33 -966.62 555.88 -966.62 550.4C-966.62 544.93 -962.16 540.47 -956.69 540.47C-951.21 540.47 -946.76 544.93 -946.76 550.4ZM-951.72 550.4C-951.72 547.67 -953.95 545.44 -956.69 545.44C-959.42 545.44 -961.65 547.67 -961.65 550.4C-961.65 553.14 -959.42 555.37 -956.69 555.37C-953.95 555.37 -951.72 553.14 -951.72 550.4Z" />
				<path id="Shape" fill-rule="evenodd" class="shp17" d="M-979.42 595.35C-983.6 595.35 -987 591.95 -987 587.77C-987 583.6 -983.6 580.2 -979.42 580.2C-975.24 580.2 -971.84 583.6 -971.84 587.77C-971.84 591.95 -975.24 595.35 -979.42 595.35ZM-979.42 590.3C-978.03 590.3 -976.9 589.17 -976.9 587.77C-976.9 586.38 -978.03 585.25 -979.42 585.25C-980.82 585.25 -981.95 586.38 -981.95 587.77C-981.95 589.17 -980.82 590.3 -979.42 590.3Z" />
				<path id="Path" class="shp18" d="M-943.77 604.24C-939.55 594.51 -931.3 587.31 -921.15 584.49L-922.47 579.67C-934.07 582.9 -943.49 591.12 -948.32 602.23L-943.77 604.24Z" />
			</g>
		</g>
		<g id="Pestle And Morter">
			<path id="Spacing" class="shp0" d="M-988 268L-838 268L-838 418L-988 418L-988 268Z" />
			<g id="Icon">
				<path id="Path" class="shp11" d="M-918.99 388.83C-920.57 388.83 -921.85 390.12 -921.85 391.7C-921.85 393.28 -920.57 394.56 -918.99 394.56C-917.41 394.56 -916.13 393.28 -916.13 391.7C-916.13 390.12 -917.41 388.83 -918.99 388.83Z" />
				<path id="Shape" fill-rule="evenodd" class="shp19" d="M-838.52 345.96C-838.52 350.87 -841.57 355.24 -846.12 356.91C-846.29 378.71 -860.54 397.76 -881.15 404.1L-881.15 409.22C-881.15 414.06 -885.08 418 -889.91 418L-936.62 418C-941.45 418 -945.38 414.06 -945.38 409.22L-945.38 404.1C-965.99 397.76 -980.23 378.71 -980.4 356.91C-984.96 355.24 -988 350.87 -988 345.96C-988 339.51 -982.76 334.25 -976.32 334.25L-919.32 334.25L-871.79 293.91C-873.22 290.68 -872.63 286.76 -869.99 284.12C-866.52 280.65 -861 280.72 -857.61 284.11L-841.09 300.68C-837.67 304.11 -837.67 309.67 -841.09 313.1C-843.76 315.79 -847.68 316.34 -850.86 314.91L-867.17 334.25L-850.2 334.25C-843.76 334.25 -838.52 339.51 -838.52 345.96ZM-865.86 292.4C-865.86 292.4 -865.86 292.4 -865.86 292.4C-865.86 292.4 -849.34 308.96 -849.34 308.96C-849.34 308.96 -849.34 308.96 -849.34 308.97C-848.21 310.11 -846.35 310.11 -845.22 308.97C-844.06 307.8 -844.09 305.95 -845.22 304.82L-861.73 288.26C-862.87 287.12 -864.71 287.1 -865.86 288.26C-867 289.4 -867 291.26 -865.86 292.4ZM-910.28 334.25L-874.82 334.25L-855.37 311.2L-868.09 298.44L-910.28 334.25ZM-886.99 409.22L-886.99 405.51C-889.87 406.02 -892.8 406.29 -895.74 406.29L-930.78 406.29C-933.72 406.29 -936.66 406.02 -939.54 405.51L-939.54 409.22C-939.54 410.83 -938.23 412.14 -936.62 412.14L-889.91 412.14C-888.3 412.14 -886.99 410.83 -886.99 409.22ZM-851.97 357.65L-974.55 357.65C-974.04 377.21 -960.69 394.16 -941.73 399.05C-938.17 399.96 -934.49 400.43 -930.78 400.43L-895.74 400.43C-892.04 400.43 -888.35 399.96 -884.79 399.05C-865.83 394.16 -852.48 377.21 -851.97 357.65ZM-844.36 345.96C-844.36 342.74 -846.98 340.11 -850.2 340.11L-976.32 340.11C-979.54 340.11 -982.16 342.74 -982.16 345.96C-982.16 349.33 -979.39 351.82 -976.32 351.82L-850.2 351.82C-849.52 351.82 -848.93 351.72 -848.31 351.48C-848.28 351.47 -848.26 351.46 -848.23 351.45C-845.92 350.65 -844.36 348.45 -844.36 345.96Z" />
				<path id="Path" class="shp11" d="M-930.52 388.73C-944.16 388.73 -956.38 380.13 -960.95 367.34C-961.49 365.82 -963.16 365.03 -964.69 365.56C-966.22 366.1 -967.02 367.77 -966.48 369.29C-961.09 384.41 -946.64 394.56 -930.52 394.56C-928.9 394.56 -927.58 393.26 -927.58 391.65C-927.58 390.03 -928.9 388.73 -930.52 388.73Z" />
				<path id="Shape" fill-rule="evenodd" class="shp17" d="M-916.98 319.75C-918.12 320.89 -919.97 320.89 -921.11 319.75L-926.1 314.76L-936.58 314.76C-954.31 314.76 -968.73 300.34 -968.73 282.61L-968.73 270.92C-968.73 269.31 -967.42 268 -965.81 268L-954.12 268C-936.39 268 -921.97 282.42 -921.97 300.15L-921.97 310.63L-916.98 315.61C-915.84 316.76 -915.84 318.61 -916.98 319.75ZM-927.81 300.15C-927.81 285.64 -939.61 273.84 -954.12 273.84L-962.88 273.84L-962.88 282.61C-962.88 297.12 -951.09 308.91 -936.58 308.91L-931.95 308.91L-956.18 284.68C-957.32 283.54 -957.32 281.69 -956.18 280.55C-955.04 279.4 -953.19 279.4 -952.05 280.55L-927.81 304.78L-927.81 300.15Z" />
				<path id="Shape" fill-rule="evenodd" class="shp14" d="M-898.42 276.85C-898.42 281.74 -902.39 285.71 -907.27 285.71C-912.15 285.71 -916.13 281.74 -916.13 276.85C-916.13 271.97 -912.15 268 -907.27 268C-902.39 268 -898.42 271.97 -898.42 276.85ZM-904.32 276.85C-904.32 275.23 -905.64 273.9 -907.27 273.9C-908.9 273.9 -910.22 275.23 -910.22 276.85C-910.22 278.48 -908.9 279.81 -907.27 279.81C-905.64 279.81 -904.32 278.48 -904.32 276.85Z" />
			</g>
		</g>
		<g id="Potion Bottle">
			<path id="Spacing" class="shp0" d="M-738 518L-588 518L-588 668L-738 668L-738 518Z" />
			<g id="Icon">
				<path id="Shape" fill-rule="evenodd" class="shp10" d="M-617.54 618.39L-617.54 646.35C-617.54 658.29 -627.23 668 -639.14 668L-686.87 668C-698.79 668 -708.48 658.29 -708.48 646.35L-708.48 618.39C-708.48 612.89 -705.27 607.81 -700.3 605.47C-700.27 605.45 -700.23 605.44 -700.2 605.42L-684.24 598.88C-681.38 597.7 -679.53 594.94 -679.53 591.84L-679.53 587.43C-679.53 586.22 -678.55 585.24 -677.34 585.24C-676.12 585.24 -675.14 586.22 -675.14 587.43L-675.14 591.84C-675.14 596.73 -678.06 601.09 -682.58 602.94L-698.48 609.47C-701.89 611.1 -704.09 614.6 -704.09 618.39L-704.09 646.35C-704.09 655.87 -696.37 663.61 -686.87 663.61L-639.14 663.61C-629.65 663.61 -621.92 655.87 -621.92 646.35L-621.92 618.39C-621.92 614.6 -624.12 611.1 -627.53 609.47L-631.01 608.04C-631.84 607.7 -632.38 606.89 -632.38 606C-632.37 605.1 -631.83 604.3 -631 603.97C-625.49 601.74 -621.92 596.46 -621.92 590.51C-621.92 582.51 -628.42 576.01 -636.4 576.01C-640.16 576.01 -643.79 577.5 -646.49 580.12L-646.49 583.77C-646.49 584.98 -647.47 585.97 -648.68 585.97C-649.89 585.97 -650.87 584.98 -650.87 583.77L-650.87 569.56L-655.4 569.56C-656.62 569.56 -657.6 568.58 -657.6 567.37C-657.6 566.15 -656.62 565.17 -655.4 565.17L-648.97 565.17C-648.95 565.17 -648.94 565.17 -648.92 565.17C-648.9 565.17 -648.88 565.17 -648.86 565.17C-647.88 565.17 -647.07 564.36 -647.07 563.37L-647.07 554.33L-649.97 554.33L-650.27 559.22C-650.27 559.23 -650.27 559.25 -650.27 559.26C-650.42 561.18 -652.04 562.68 -653.96 562.68L-672.64 562.68C-674.56 562.68 -676.18 561.18 -676.33 559.26C-676.33 559.25 -676.33 559.23 -676.33 559.22L-676.63 554.33L-678.94 554.33L-678.94 563.37C-678.94 564.36 -678.14 565.17 -677.15 565.17L-663.01 565.17C-661.8 565.17 -660.81 566.15 -660.81 567.37C-660.81 568.58 -661.8 569.56 -663.01 569.56L-675.14 569.56L-675.14 578.64C-675.14 579.86 -676.12 580.84 -677.34 580.84C-678.55 580.84 -679.53 579.86 -679.53 578.64L-679.53 569.09C-681.76 568.15 -683.33 565.94 -683.33 563.37L-683.33 553.75C-685.23 552.82 -686.55 550.87 -686.55 548.62C-686.55 545.47 -683.99 542.9 -680.85 542.9L-677.48 542.9L-678.11 534.82L-678.92 524.41C-679.04 522.76 -678.48 521.12 -677.35 519.91C-676.23 518.7 -674.65 518 -673 518L-653.6 518C-651.95 518 -650.37 518.7 -649.25 519.91C-648.13 521.12 -647.56 522.76 -647.68 524.41L-648.11 529.96C-648.18 530.75 -648.66 531.45 -649.39 531.79L-651.66 532.83L-649.82 533.7C-649 534.09 -648.5 534.95 -648.57 535.86L-649.12 542.9L-645.76 542.9C-642.61 542.9 -640.05 545.47 -640.05 548.62C-640.05 550.63 -641.11 552.4 -642.68 553.42L-642.68 563.37C-642.68 565.94 -644.26 568.15 -646.49 569.09L-646.49 574.55C-643.49 572.65 -639.99 571.61 -636.4 571.61C-626 571.61 -617.54 580.09 -617.54 590.51C-617.54 596.64 -620.44 602.22 -625.2 605.72C-620.53 608.17 -617.54 613.08 -617.54 618.39ZM-674.54 524.07L-674.47 525.03L-664.76 525.03C-663.55 525.03 -662.57 526.01 -662.57 527.23C-662.57 528.44 -663.55 529.42 -664.76 529.42L-674.13 529.42L-673.72 534.68L-670.61 534.68C-669.4 534.68 -668.42 535.67 -668.42 536.88C-668.42 538.09 -669.4 539.08 -670.61 539.08L-673.38 539.08L-673.08 542.9L-653.52 542.9L-653.06 537.03L-656.61 535.35C-657.6 534.88 -658.23 533.88 -658.22 532.79C-658.21 531.7 -657.57 530.7 -656.58 530.25L-652.39 528.33L-652.06 524.07C-652.02 523.63 -652.17 523.21 -652.47 522.89C-652.76 522.57 -653.17 522.39 -653.6 522.39L-673 522.39C-673.43 522.39 -673.84 522.57 -674.14 522.89C-674.43 523.21 -674.58 523.63 -674.54 524.07ZM-654.37 554.33L-672.24 554.33L-671.99 558.28L-654.61 558.28L-654.37 554.33ZM-645.76 549.93C-645.03 549.93 -644.44 549.34 -644.44 548.62C-644.44 547.89 -645.03 547.3 -645.76 547.3L-680.85 547.3C-681.57 547.3 -682.16 547.89 -682.16 548.62C-682.16 549.34 -681.57 549.93 -680.85 549.93L-645.76 549.93Z" />
				<path id="Shape" fill-rule="evenodd" class="shp12" d="M-625.9 590.39C-625.9 596.29 -630.71 601.1 -636.61 601.1C-642.52 601.1 -647.33 596.29 -647.33 590.39C-647.33 584.48 -642.52 579.67 -636.61 579.67C-630.71 579.67 -625.9 584.48 -625.9 590.39ZM-630.3 590.39C-630.3 586.91 -633.13 584.08 -636.61 584.08C-640.09 584.08 -642.92 586.91 -642.92 590.39C-642.92 593.87 -640.09 596.7 -636.61 596.7C-633.13 596.7 -630.3 593.87 -630.3 590.39Z" />
				<path id="Shape" fill-rule="evenodd" class="shp20" d="M-625.38 644.44L-625.38 646.22C-625.38 653.9 -631.66 660.16 -639.39 660.16L-687.15 660.16C-694.87 660.16 -701.16 653.9 -701.16 646.22L-701.16 631.98C-701.16 630.92 -700.7 629.92 -699.89 629.24C-699.08 628.55 -698.02 628.25 -696.97 628.41L-690.32 629.44C-690.33 629.25 -690.33 629.05 -690.33 628.86C-690.33 623.64 -686.07 619.39 -680.82 619.39C-675.58 619.39 -671.32 623.64 -671.32 628.86C-671.32 630.05 -671.54 631.21 -671.96 632.29L-668.52 632.82C-666.72 633.1 -664.92 633.23 -663.11 633.22C-662.8 626.19 -656.95 620.56 -649.81 620.56C-643.97 620.56 -638.96 624.25 -637.18 629.59L-629.57 628.41C-628.52 628.25 -627.45 628.55 -626.65 629.24C-625.84 629.92 -625.38 630.93 -625.38 631.98L-625.38 635.7C-625.38 636.91 -626.36 637.88 -627.57 637.88C-628.78 637.88 -629.77 636.91 -629.77 635.7L-629.77 632.86L-657.34 637.14C-661.28 637.75 -665.26 637.75 -669.19 637.14L-696.77 632.86L-696.77 646.22C-696.77 651.5 -692.45 655.79 -687.15 655.79L-639.39 655.79C-634.08 655.79 -629.77 651.5 -629.77 646.22L-629.77 644.44C-629.77 643.23 -628.78 642.25 -627.57 642.25C-626.36 642.25 -625.38 643.23 -625.38 644.44ZM-658.69 632.91C-658.47 632.88 -658.24 632.86 -658.02 632.82L-641.61 630.28C-642.99 627.08 -646.16 624.93 -649.81 624.93C-654.43 624.93 -658.24 628.43 -658.69 632.91ZM-685.95 628.86C-685.95 629.3 -685.89 629.73 -685.78 630.15L-676.5 631.58C-675.99 630.78 -675.7 629.84 -675.7 628.86C-675.7 626.05 -678 623.76 -680.83 623.76C-683.65 623.76 -685.95 626.05 -685.95 628.86Z" />
				<path id="Shape" fill-rule="evenodd" class="shp21" d="M-660.92 607.63C-660.92 611.81 -664.32 615.21 -668.49 615.21C-672.67 615.21 -676.07 611.81 -676.07 607.63C-676.07 603.46 -672.67 600.06 -668.49 600.06C-664.32 600.06 -660.92 603.46 -660.92 607.63ZM-665.37 607.63C-665.37 605.91 -666.77 604.51 -668.49 604.51C-670.22 604.51 -671.62 605.91 -671.62 607.63C-671.62 609.35 -670.22 610.75 -668.49 610.75C-666.77 610.75 -665.37 609.35 -665.37 607.63Z" />
				<path id="Shape" fill-rule="evenodd" class="shp22" d="M-668.23 646.31C-668.23 650.49 -671.63 653.89 -675.81 653.89C-679.99 653.89 -683.39 650.49 -683.39 646.31C-683.39 642.13 -679.99 638.73 -675.81 638.73C-671.63 638.73 -668.23 642.13 -668.23 646.31ZM-672.69 646.31C-672.69 644.59 -674.09 643.19 -675.81 643.19C-677.53 643.19 -678.93 644.59 -678.93 646.31C-678.93 648.03 -677.53 649.43 -675.81 649.43C-674.09 649.43 -672.69 648.03 -672.69 646.31Z" />
				<path id="Shape" fill-rule="evenodd" class="shp15" d="M-653.6 581.76C-653.6 586.37 -657.35 590.13 -661.96 590.13C-666.57 590.13 -670.32 586.37 -670.32 581.76C-670.32 577.15 -666.57 573.4 -661.96 573.4C-657.35 573.4 -653.6 577.15 -653.6 581.76ZM-658 581.76C-658 579.58 -659.78 577.8 -661.96 577.8C-664.15 577.8 -665.92 579.58 -665.92 581.76C-665.92 583.95 -664.15 585.72 -661.96 585.72C-659.78 585.72 -658 583.95 -658 581.76Z" />
			</g>
		</g>
		<g id="Cauldren">
			<path id="Spacing" class="shp0" d="M12 268L162 268L162 418L12 418L12 268Z" />
			<g id="Icon">
				<path id="Shape" fill-rule="evenodd" class="shp14" d="M106.91 277.09C106.91 272.08 112.01 268 118.27 268C124.54 268 129.64 272.08 129.64 277.09C129.64 282.1 124.54 286.18 118.27 286.18C112.01 286.18 106.91 282.1 106.91 277.09ZM112.59 277.09C112.59 279.6 115.14 281.64 118.27 281.64C121.41 281.64 123.95 279.6 123.95 277.09C123.95 274.58 121.41 272.55 118.27 272.55C115.14 272.55 112.59 274.58 112.59 277.09Z" />
				<path id="Shape" fill-rule="evenodd" class="shp18" d="M29.64 277.09C29.64 272.08 34.73 268 41 268C47.27 268 52.36 272.08 52.36 277.09C52.36 282.1 47.27 286.18 41 286.18C34.73 286.18 29.64 282.1 29.64 277.09ZM35.32 277.09C35.32 279.6 37.87 281.64 41 281.64C44.13 281.64 46.68 279.6 46.68 277.09C46.68 274.58 44.13 272.55 41 272.55C37.87 272.55 35.32 274.58 35.32 277.09Z" />
				<path id="Shape" fill-rule="evenodd" class="shp23" d="M88.73 290.73C88.73 285.71 92.81 281.64 97.82 281.64C102.83 281.64 106.91 285.71 106.91 290.73C106.91 295.74 102.83 299.82 97.82 299.82C92.81 299.82 88.73 295.74 88.73 290.73ZM93.92 290.73C93.92 292.88 95.67 294.62 97.82 294.62C99.97 294.62 101.71 292.88 101.71 290.73C101.71 288.58 99.97 286.83 97.82 286.83C95.67 286.83 93.92 288.58 93.92 290.73Z" />
				<path id="Shape" fill-rule="evenodd" class="shp13" d="M56.91 281.64C56.91 276.62 60.99 272.55 66 272.55C71.01 272.55 75.09 276.62 75.09 281.64C75.09 286.65 71.01 290.73 66 290.73C60.99 290.73 56.91 286.65 56.91 281.64ZM62.1 281.64C62.1 283.78 63.85 285.53 66 285.53C68.15 285.53 69.9 283.78 69.9 281.64C69.9 279.49 68.15 277.74 66 277.74C63.85 277.74 62.1 279.49 62.1 281.64Z" />
				<path id="Shape" fill-rule="evenodd" class="shp24" d="M144.05 402.29C147.1 405.27 147.1 410.11 144.05 413.09C142.52 414.58 140.52 415.32 138.51 415.32C136.51 415.32 134.5 414.58 132.98 413.09L126.17 406.45C114.85 413.73 101.18 418 86.45 418C72.38 418 59.27 414.09 48.26 407.39L42.41 413.09C40.88 414.58 38.88 415.32 36.88 415.32C34.87 415.32 32.87 414.58 31.34 413.09C28.29 410.11 28.29 405.27 31.34 402.29L35.9 397.85C23.6 385.92 16 369.69 16 351.82C16 341.78 18.37 332.15 22.99 323.15L18.05 315.13C17.23 313.79 17.21 312.11 18 310.75C18.78 309.39 20.27 308.55 21.87 308.55L24.2 308.55C25.37 304.16 29.42 300.91 34.27 300.91C36.38 300.91 38.43 301.55 40.15 302.7C42.58 299.97 46.1 298.36 49.92 298.36C51.42 298.36 52.89 298.61 54.28 299.1C56.91 294.05 62.26 290.73 68.19 290.73C75.2 290.73 81.13 295.2 83.1 301.46C85.81 300.55 88.94 300.82 91.45 302.17C94.05 298.27 98.52 295.82 103.42 295.82C108.31 295.82 112.78 298.27 115.39 302.17C118.73 300.36 123.11 300.59 126.26 302.7C128.69 299.97 132.21 298.36 136.03 298.36C142.34 298.36 147.6 302.74 148.82 308.55L151.04 308.55C152.64 308.55 154.12 309.39 154.91 310.75C155.7 312.11 155.68 313.79 154.86 315.13L149.92 323.15C154.54 332.15 156.91 341.78 156.91 351.82C156.91 369.09 149.82 384.83 138.24 396.63L144.05 402.29ZM128.64 308.55L143.42 308.55C142.34 305.58 139.44 303.45 136.03 303.45C133.05 303.45 130.37 305.1 129.04 307.75L128.64 308.55ZM115.78 308.55L124.91 308.55L124.59 308.12C122.68 305.56 118.6 305.36 116.45 307.78L115.78 308.55ZM94.26 308.55L112.57 308.55L112.01 306.95C110.74 303.33 107.29 300.91 103.42 300.91C99.55 300.91 96.09 303.33 94.82 306.95L94.26 308.55ZM81.62 308.55L91.05 308.55L90.38 307.78C88.49 305.65 85.07 305.45 82.94 307.35L81.62 308.55ZM42.53 308.55L78.7 308.55L78.57 305.59C78.34 300.11 73.78 295.82 68.19 295.82C63.55 295.82 59.44 298.89 58.18 303.29L57.22 306.66L54.23 304.72C52.94 303.89 51.46 303.45 49.92 303.45C46.94 303.45 44.26 305.1 42.93 307.75L42.53 308.55ZM29.75 308.55L38.8 308.55L38.48 308.12C37.47 306.77 35.94 306 34.27 306C32.34 306 30.65 307.02 29.75 308.55ZM23.22 313.64L25.81 317.85L25.81 317.85L27.91 321.27L144.99 321.27L147.1 317.85L147.1 317.85L149.69 313.64L23.22 313.64ZM42.93 403.81C42.15 403.22 41.37 402.63 40.62 402.02C40.32 401.78 40.01 401.56 39.72 401.32L35.03 405.89C34.01 406.88 34.01 408.5 35.03 409.49C36.05 410.48 37.71 410.48 38.72 409.49L43.83 404.5C43.53 404.28 43.24 404.03 42.93 403.81ZM86.45 412.91C101.03 412.91 114.51 408.41 125.38 400.81C126.39 400.11 127.36 399.37 128.32 398.62C128.83 398.22 129.33 397.81 129.83 397.4C130.44 396.89 131.03 396.37 131.61 395.84C143.97 384.72 151.69 369.1 151.69 351.82C151.69 342.93 149.69 334.37 145.75 326.36L27.15 326.36C23.22 334.37 21.22 342.93 21.22 351.82C21.22 369.41 29.21 385.28 41.96 396.43C42.94 397.3 43.95 398.15 44.99 398.95C45.32 399.2 45.66 399.44 45.98 399.68C46.82 400.3 47.67 400.9 48.53 401.48C59.23 408.66 72.32 412.91 86.45 412.91ZM140.35 405.89L134.52 400.2C134.3 400.39 134.06 400.56 133.84 400.75C132.95 401.51 132.04 402.25 131.11 402.97C130.9 403.13 130.71 403.31 130.49 403.47L136.67 409.49C137.69 410.48 139.34 410.48 140.36 409.49C141.38 408.5 141.38 406.88 140.35 405.89Z" />
				<path id="Path" class="shp25" d="M86.1 395.03C62.88 395.03 43.99 377.86 43.99 356.76C43.99 355.43 42.81 354.36 41.36 354.36C39.9 354.36 38.73 355.43 38.73 356.76C38.73 380.5 59.98 399.82 86.1 399.82C87.55 399.82 88.73 398.75 88.73 397.43C88.73 396.1 87.55 395.03 86.1 395.03Z" />
			</g>
		</g>
		<g id="Doble Terminated Crystal">
			<path id="Spacing" class="shp0" d="M-488 522L-338 522L-338 672L-488 672L-488 522Z" />
			<g id="Icon">
				<path id="Shape" fill-rule="evenodd" class="shp26" d="M-375.69 556.09L-375.69 629.91C-375.69 630.69 -376 631.44 -376.55 631.98L-411.77 667.14C-412.32 667.69 -413.07 668 -413.85 668C-414.63 668 -415.37 667.69 -415.92 667.14L-451.14 631.98C-451.69 631.44 -452 630.69 -452 629.91L-452 556.09C-452 554.47 -450.69 553.16 -449.07 553.16L-433.13 553.16L-424.15 535.35L-428.31 539.51C-429.46 540.66 -431.32 540.66 -432.46 539.51C-433.61 538.37 -433.61 536.52 -432.46 535.37L-415.92 518.86C-415.37 518.31 -414.63 518 -413.85 518C-413.07 518 -412.32 518.31 -411.77 518.86L-376.55 554.02C-376 554.57 -375.69 555.31 -375.69 556.09ZM-381.56 559.02L-393.3 559.02L-393.3 603.28C-393.3 604.89 -394.62 606.21 -396.24 606.21C-397.86 606.21 -399.17 604.89 -399.17 603.28L-399.17 559.02L-428.52 559.02L-428.52 626.98L-381.56 626.98L-381.56 559.02ZM-441.98 632.84L-424.15 650.65L-433.13 632.84L-441.98 632.84ZM-413.85 658.03L-401.14 632.84L-426.56 632.84L-413.85 658.03ZM-403.55 650.65L-385.71 632.84L-394.56 632.84L-403.55 650.65ZM-385.71 553.16L-403.55 535.35L-394.57 553.16L-385.71 553.16ZM-426.56 553.16L-401.14 553.16L-413.85 527.97L-426.56 553.16ZM-446.13 559.02L-446.13 626.98L-434.39 626.98L-434.39 559.02L-446.13 559.02Z" />
				<path id="Path" class="shp27" d="M-439.72 549.88C-438.94 549.88 -438.16 549.56 -437.59 548.94L-437.59 548.94C-436.52 547.76 -436.61 545.95 -437.78 544.88C-438.96 543.81 -440.78 543.9 -441.84 545.07C-442.91 546.25 -442.83 548.07 -441.65 549.13C-441.1 549.63 -440.41 549.88 -439.72 549.88Z" />
				<path id="Path" class="shp27" d="M-396.34 613.64C-397.93 613.64 -399.21 614.93 -399.21 616.52C-399.21 618.11 -397.93 619.39 -396.34 619.39C-394.75 619.39 -393.46 618.11 -393.46 616.52L-393.46 616.52C-393.46 614.93 -394.75 613.64 -396.34 613.64Z" />
			</g>
		</g>
		<g id="Wand">
			<path id="Spacing" class="shp0" d="M-738 268L-588 268L-588 418L-738 418L-738 268Z" />
			<g id="Icon">
				<path id="Path" class="shp28" d="M-606.49 348.21C-608.07 348.21 -609.35 349.49 -609.35 351.07C-609.35 352.65 -608.07 353.94 -606.49 353.94C-604.91 353.94 -603.63 352.65 -603.63 351.07C-603.63 349.49 -604.91 348.21 -606.49 348.21Z" />
				<path id="Path" class="shp28" d="M-642.49 286.55C-643.6 285.43 -645.42 285.43 -646.54 286.55C-647.65 287.66 -647.65 289.48 -646.54 290.6C-645.42 291.72 -643.6 291.72 -642.49 290.6C-641.37 289.48 -641.37 287.67 -642.49 286.55Z" />
				<path id="Shape" fill-rule="evenodd" class="shp29" d="M-596.89 339.48L-618.9 339.49L-631.61 357.18C-635.81 363.11 -645.01 361.63 -647.17 354.7L-649.77 346.33L-718 414.56C-722.57 419.15 -729.99 419.14 -734.57 414.56C-739.15 409.99 -739.14 402.56 -734.56 397.99L-666.33 329.77L-674.69 327.17C-681.65 325.01 -683.1 315.81 -677.16 311.6L-659.49 298.9L-659.48 276.89C-659.56 269.63 -651.27 265.41 -645.44 269.76L-627.82 282.91L-606.99 275.85C-600.1 273.51 -593.51 280.1 -595.85 286.99L-602.91 307.82L-589.76 325.44C-585.41 331.28 -589.63 339.57 -596.89 339.48ZM-651.73 340.01L-653.7 333.7L-660.01 331.73L-730.42 402.14C-732.73 404.44 -732.69 408.15 -730.42 410.42C-728.13 412.72 -724.43 412.71 -722.14 410.42L-651.73 340.01ZM-594.46 328.94L-608.53 310.09C-609.1 309.32 -609.26 308.31 -608.95 307.4L-601.4 285.11C-600.61 282.8 -602.82 280.62 -605.11 281.4L-627.4 288.95C-628.31 289.26 -629.32 289.1 -630.09 288.53L-648.94 274.46C-650.9 273 -653.69 274.41 -653.66 276.84C-653.65 276.85 -653.65 276.87 -653.65 276.88L-653.66 300.41C-653.66 301.35 -654.09 302.23 -654.85 302.78L-673.76 316.37C-675.78 317.8 -675.26 320.86 -672.96 321.57L-650.49 328.56C-649.57 328.84 -648.84 329.57 -648.56 330.49L-645.61 339.96L-645.6 339.99C-645.6 339.99 -645.6 340 -645.6 340.01L-641.57 352.96C-640.85 355.28 -637.79 355.77 -636.38 353.78L-622.78 334.85C-622.23 334.09 -621.35 333.66 -620.41 333.66L-596.88 333.65C-594.31 333.65 -593.04 330.84 -594.46 328.94Z" />
				<path id="Path" class="shp28" d="M-628.79 297.15L-633.73 293.58C-635.06 292.62 -636.93 292.88 -637.93 294.17C-638.92 295.45 -638.64 297.27 -637.32 298.23L-632.37 301.8C-631.04 302.76 -629.17 302.49 -628.18 301.21C-627.19 299.92 -627.46 298.11 -628.79 297.15Z" />
				<path id="Path" class="shp20" d="M-676.89 283.28L-679.84 283.28L-679.84 280.33C-679.84 278.7 -681.16 277.38 -682.79 277.38C-684.42 277.38 -685.74 278.7 -685.74 280.33L-685.74 283.28L-688.69 283.28C-690.32 283.28 -691.65 284.6 -691.65 286.23C-691.65 287.86 -690.32 289.18 -688.69 289.18L-685.74 289.18L-685.74 292.13C-685.74 293.76 -684.42 295.08 -682.79 295.08C-681.16 295.08 -679.84 293.76 -679.84 292.13L-679.84 289.18L-676.89 289.18C-675.26 289.18 -673.94 287.86 -673.94 286.23C-673.94 284.6 -675.26 283.28 -676.89 283.28Z" />
				<path id="Path" class="shp20" d="M-612.31 371.3L-615.26 371.3L-615.26 368.35C-615.26 366.72 -616.58 365.4 -618.21 365.4C-619.84 365.4 -621.16 366.72 -621.16 368.35L-621.16 371.3L-624.11 371.3C-625.74 371.3 -627.06 372.62 -627.06 374.25C-627.06 375.88 -625.74 377.2 -624.11 377.2L-621.16 377.2L-621.16 380.15C-621.16 381.78 -619.84 383.1 -618.21 383.1C-616.58 383.1 -615.26 381.78 -615.26 380.15L-615.26 377.2L-612.31 377.2C-610.68 377.2 -609.35 375.88 -609.35 374.25C-609.35 372.62 -610.68 371.3 -612.31 371.3Z" />
			</g>
		</g>
		<g id="Castle">
			<path id="Spacing" class="shp0" d="M-238 518L-88 518L-88 668L-238 668L-238 518Z" />
			<g id="Icon">
				<path id="Path" class="shp18" d="M-108 623C-109.38 623 -110.5 624.12 -110.5 625.5L-110.5 630.5C-110.5 631.88 -109.38 633 -108 633C-106.62 633 -105.5 631.88 -105.5 630.5L-105.5 625.5C-105.5 624.12 -106.62 623 -108 623Z" />
				<path id="Path" class="shp13" d="M-176.62 562.74C-175.38 563.36 -173.88 562.85 -173.26 561.62L-165.5 546.09L-165.5 560.5C-165.5 561.88 -164.38 563 -163 563C-161.62 563 -160.5 561.88 -160.5 560.5L-160.5 546.09L-152.74 561.62C-152.3 562.5 -151.42 563 -150.5 563C-150.12 563 -149.74 562.92 -149.38 562.74C-148.15 562.12 -147.64 560.62 -148.26 559.38L-160.5 534.91L-160.5 523L-148 523L-148 528L-155.5 528C-156.88 528 -158 529.12 -158 530.5C-158 531.88 -156.88 533 -155.5 533L-145.5 533C-144.12 533 -143 531.88 -143 530.5L-143 520.5C-143 519.12 -144.12 518 -145.5 518L-163 518C-164.38 518 -165.5 519.12 -165.5 520.5L-165.5 534.91L-177.74 559.38C-178.36 560.62 -177.85 562.12 -176.62 562.74Z" />
				<path id="Path" class="shp15" d="M-150.5 598C-149.12 598 -148 596.88 -148 595.5L-148 573L-145.5 573C-144.12 573 -143 571.88 -143 570.5C-143 569.12 -144.12 568 -145.5 568L-180.5 568C-181.88 568 -183 569.12 -183 570.5C-183 571.88 -181.88 573 -180.5 573L-178 573L-178 595.5C-178 596.88 -176.88 598 -175.5 598C-174.12 598 -173 596.88 -173 595.5L-173 573L-153 573L-153 595.5C-153 596.88 -151.88 598 -150.5 598Z" />
				<path id="Path" class="shp18" d="M-165.5 585.5L-165.5 590.5C-165.5 591.88 -164.38 593 -163 593C-161.62 593 -160.5 591.88 -160.5 590.5L-160.5 585.5C-160.5 584.12 -161.62 583 -163 583C-164.38 583 -165.5 584.12 -165.5 585.5Z" />
				<path id="Path" class="shp15" d="M-125.5 593L-123 593L-123 595.5C-123 596.88 -121.88 598 -120.5 598C-119.12 598 -118 596.88 -118 595.5L-118 593L-98 593L-98 643C-98 644.38 -96.88 645.5 -95.5 645.5C-94.12 645.5 -93 644.38 -93 643L-93 593L-90.5 593C-89.12 593 -88 591.88 -88 590.5C-88 589.12 -89.12 588 -90.5 588L-125.5 588C-126.88 588 -128 589.12 -128 590.5C-128 591.88 -126.88 593 -125.5 593Z" />
				<path id="Path" class="shp30" d="M-118 543C-118 544.38 -116.88 545.5 -115.5 545.5C-114.12 545.5 -113 544.38 -113 543C-111.62 543 -110.5 541.88 -110.5 540.5C-110.5 539.12 -111.62 538 -113 538C-113 536.62 -114.12 535.5 -115.5 535.5C-116.88 535.5 -118 536.62 -118 538C-119.38 538 -120.5 539.12 -120.5 540.5C-120.5 541.88 -119.38 543 -118 543Z" />
				<path id="Path" class="shp13" d="M-121.62 582.74C-120.38 583.36 -118.88 582.85 -118.26 581.62L-110.5 566.09L-110.5 580.5C-110.5 581.88 -109.38 583 -108 583C-106.62 583 -105.5 581.88 -105.5 580.5L-105.5 566.09L-97.74 581.62C-97.3 582.5 -96.42 583 -95.5 583C-95.12 583 -94.74 582.92 -94.38 582.74C-93.15 582.12 -92.65 580.62 -93.26 579.38L-105.76 554.38C-105.87 554.17 -106.01 553.98 -106.18 553.82C-106.63 553.32 -107.27 553 -108 553C-108.73 553 -109.37 553.32 -109.82 553.82C-109.99 553.98 -110.13 554.17 -110.24 554.38L-122.74 579.38C-123.35 580.62 -122.85 582.12 -121.62 582.74Z" />
				<path id="Shape" fill-rule="evenodd" class="shp18" d="M-148 643L-148 665.5C-148 666.88 -149.12 668 -150.5 668L-175.5 668C-176.88 668 -178 666.88 -178 665.5L-178 643C-178 634.73 -171.27 628 -163 628C-154.73 628 -148 634.73 -148 643ZM-153 658L-173 658L-173 663L-153 663L-153 658ZM-153 648L-173 648L-173 653L-153 653L-153 648ZM-153 643C-153 637.49 -157.48 633 -163 633C-168.51 633 -173 637.48 -173 643L-153 643Z" />
				<path id="Path" class="shp18" d="M-105.5 605.5C-105.5 604.12 -106.62 603 -108 603C-109.38 603 -110.5 604.12 -110.5 605.5L-110.5 610.5C-110.5 611.88 -109.38 613 -108 613C-106.62 613 -105.5 611.88 -105.5 610.5L-105.5 605.5Z" />
				<path id="Path" class="shp30" d="M-188 525.5C-188 526.88 -186.88 528 -185.5 528C-184.12 528 -183 526.88 -183 525.5C-181.62 525.5 -180.5 524.38 -180.5 523C-180.5 521.62 -181.62 520.5 -183 520.5C-183 519.12 -184.12 518 -185.5 518C-186.88 518 -188 519.12 -188 520.5C-189.38 520.5 -190.5 521.62 -190.5 523C-190.5 524.38 -189.38 525.5 -188 525.5Z" />
				<path id="Path" class="shp18" d="M-218 623C-219.38 623 -220.5 624.12 -220.5 625.5L-220.5 630.5C-220.5 631.88 -219.38 633 -218 633C-216.62 633 -215.5 631.88 -215.5 630.5L-215.5 625.5C-215.5 624.12 -216.62 623 -218 623Z" />
				<path id="Shape" fill-rule="evenodd" class="shp12" d="M-183 655.5L-183 665.5C-183 666.88 -184.12 668 -185.5 668L-235.5 668C-236.88 668 -238 666.88 -238 665.5L-238 655.5C-238 652.74 -235.76 650.5 -233 650.5C-232.09 650.5 -231.24 650.75 -230.5 651.17C-229.03 650.32 -226.97 650.32 -225.5 651.17C-224.03 650.32 -221.97 650.32 -220.5 651.17C-219.03 650.32 -216.97 650.32 -215.5 651.17C-214.03 650.32 -211.97 650.32 -210.5 651.17C-209.03 650.32 -206.97 650.32 -205.5 651.17C-204.03 650.32 -201.97 650.32 -200.5 651.17C-199.03 650.32 -196.97 650.32 -195.5 651.17C-194.03 650.32 -191.97 650.32 -190.5 651.17C-189.77 650.75 -188.91 650.5 -188 650.5C-185.24 650.5 -183 652.74 -183 655.5ZM-188 663L-188 655.5C-188 656.88 -189.12 658 -190.5 658C-191.88 658 -193 656.88 -193 655.5C-193 656.88 -194.12 658 -195.5 658C-196.88 658 -198 656.88 -198 655.5C-198 656.88 -199.12 658 -200.5 658C-201.88 658 -203 656.88 -203 655.5C-203 656.88 -204.12 658 -205.5 658C-206.88 658 -208 656.88 -208 655.5C-208 656.88 -209.12 658 -210.5 658C-211.88 658 -213 656.88 -213 655.5C-213 656.88 -214.12 658 -215.5 658C-216.88 658 -218 656.88 -218 655.5C-218 656.88 -219.12 658 -220.5 658C-221.88 658 -223 656.88 -223 655.5C-223 656.88 -224.12 658 -225.5 658C-226.88 658 -228 656.88 -228 655.5C-228 656.88 -229.12 658 -230.5 658C-231.88 658 -233 656.88 -233 655.5L-233 663L-188 663Z" />
				<path id="Shape" fill-rule="evenodd" class="shp12" d="M-88 655.5L-88 665.5C-88 666.88 -89.12 668 -90.5 668L-140.5 668C-141.88 668 -143 666.88 -143 665.5L-143 655.5C-143 652.74 -140.76 650.5 -138 650.5C-137.09 650.5 -136.24 650.75 -135.5 651.17C-134.03 650.32 -131.97 650.32 -130.5 651.17C-129.03 650.32 -126.97 650.32 -125.5 651.17C-124.03 650.32 -121.97 650.32 -120.5 651.17C-119.03 650.32 -116.97 650.32 -115.5 651.17C-114.03 650.32 -111.97 650.32 -110.5 651.17C-109.03 650.32 -106.97 650.32 -105.5 651.17C-104.03 650.32 -101.97 650.32 -100.5 651.17C-99.03 650.32 -96.97 650.32 -95.5 651.17C-94.77 650.75 -93.91 650.5 -93 650.5C-90.24 650.5 -88 652.74 -88 655.5ZM-93 663L-93 655.5C-93 656.88 -94.12 658 -95.5 658C-96.88 658 -98 656.88 -98 655.5C-98 656.88 -99.12 658 -100.5 658C-101.88 658 -103 656.88 -103 655.5C-103 656.88 -104.12 658 -105.5 658C-106.88 658 -108 656.88 -108 655.5C-108 656.88 -109.12 658 -110.5 658C-111.88 658 -113 656.88 -113 655.5C-113 656.88 -114.12 658 -115.5 658C-116.88 658 -118 656.88 -118 655.5C-118 656.88 -119.12 658 -120.5 658C-121.88 658 -123 656.88 -123 655.5C-123 656.88 -124.12 658 -125.5 658C-126.88 658 -128 656.88 -128 655.5C-128 656.88 -129.12 658 -130.5 658C-131.88 658 -133 656.88 -133 655.5C-133 656.88 -134.12 658 -135.5 658C-136.88 658 -138 656.88 -138 655.5L-138 663L-93 663Z" />
				<path id="Path" class="shp13" d="M-231.62 582.74C-230.38 583.36 -228.88 582.85 -228.26 581.62L-220.5 566.09L-220.5 580.5C-220.5 581.88 -219.38 583 -218 583C-216.62 583 -215.5 581.88 -215.5 580.5L-215.5 566.09L-207.74 581.62C-207.3 582.5 -206.42 583 -205.5 583C-205.12 583 -204.74 582.92 -204.38 582.74C-203.15 582.12 -202.64 580.62 -203.26 579.38L-215.76 554.38C-215.87 554.17 -216.01 553.98 -216.18 553.82C-216.63 553.32 -217.27 553 -218 553C-218.73 553 -219.37 553.32 -219.82 553.82C-219.99 553.98 -220.13 554.17 -220.24 554.38L-232.74 579.38C-233.35 580.62 -232.85 582.12 -231.62 582.74Z" />
				<path id="Path" class="shp20" d="M-128 615.5L-128 608L-123 608L-123 643C-123 644.38 -121.88 645.5 -120.5 645.5C-119.12 645.5 -118 644.38 -118 643L-118 605.5C-118 604.12 -119.12 603 -120.5 603L-130.5 603C-131.88 603 -133 604.12 -133 605.5L-133 613L-143 613L-143 605.5C-143 604.12 -144.12 603 -145.5 603L-155.5 603C-156.88 603 -158 604.12 -158 605.5L-158 613L-168 613L-168 605.5C-168 604.12 -169.12 603 -170.5 603L-180.5 603C-181.88 603 -183 604.12 -183 605.5L-183 613L-193 613L-193 605.5C-193 604.12 -194.12 603 -195.5 603L-205.5 603C-206.88 603 -208 604.12 -208 605.5L-208 643C-208 644.38 -206.88 645.5 -205.5 645.5C-204.12 645.5 -203 644.38 -203 643L-203 608L-198 608L-198 615.5C-198 616.88 -196.88 618 -195.5 618L-180.5 618C-179.12 618 -178 616.88 -178 615.5L-178 608L-173 608L-173 615.5C-173 616.88 -171.88 618 -170.5 618L-155.5 618C-154.12 618 -153 616.88 -153 615.5L-153 608L-148 608L-148 615.5C-148 616.88 -146.88 618 -145.5 618L-130.5 618C-129.12 618 -128 616.88 -128 615.5Z" />
				<path id="Path" class="shp30" d="M-235.5 533L-233 533L-233 535.5C-233 536.88 -231.88 538 -230.5 538C-229.12 538 -228 536.88 -228 535.5L-228 533L-225.5 533C-224.12 533 -223 531.88 -223 530.5C-223 529.12 -224.12 528 -225.5 528L-228 528L-228 525.5C-228 524.12 -229.12 523 -230.5 523C-231.88 523 -233 524.12 -233 525.5L-233 528L-235.5 528C-236.88 528 -238 529.12 -238 530.5C-238 531.88 -236.88 533 -235.5 533Z" />
				<path id="Path" class="shp15" d="M-235.5 593L-233 593L-233 645.5C-233 646.88 -231.88 648 -230.5 648C-229.12 648 -228 646.88 -228 645.5L-228 593L-208 593L-208 595.5C-208 596.88 -206.88 598 -205.5 598C-204.12 598 -203 596.88 -203 595.5L-203 593L-200.5 593C-199.12 593 -198 591.88 -198 590.5C-198 589.12 -199.12 588 -200.5 588L-235.5 588C-236.88 588 -238 589.12 -238 590.5C-238 591.88 -236.88 593 -235.5 593Z" />
				<path id="Path" class="shp18" d="M-215.5 605.5C-215.5 604.12 -216.62 603 -218 603C-219.38 603 -220.5 604.12 -220.5 605.5L-220.5 610.5C-220.5 611.88 -219.38 613 -218 613C-216.62 613 -215.5 611.88 -215.5 610.5L-215.5 605.5Z" />
			</g>
		</g>
		<g id="Crown">
			<path id="Spacing" class="shp0" d="M12 518L162 518L162 668L12 668L12 518Z" />
			<g id="Icon">
				<path id="Shape" fill-rule="evenodd" class="shp31" d="M155.63 598.06C159.36 599.49 162 603.85 162 609.14C162 615.64 158.03 620.72 152.97 620.72C152.13 620.72 151.3 620.58 150.51 620.3L149.5 624.67C151.36 625.26 152.71 627.01 152.71 629.06L152.71 633.04C152.71 635.58 150.64 637.65 148.1 637.65L124.57 637.65C123.35 637.65 122.37 636.66 122.37 635.45C122.37 634.23 123.35 633.25 124.57 633.25L148.1 633.25C148.22 633.25 148.31 633.15 148.31 633.04L148.31 629.06C148.31 628.95 148.22 628.85 148.1 628.85L25.9 628.85C25.78 628.85 25.69 628.95 25.69 629.06L25.69 633.04C25.69 633.15 25.78 633.25 25.9 633.25L115.01 633.25C116.23 633.25 117.21 634.23 117.21 635.45C117.21 636.66 116.23 637.65 115.01 637.65L25.9 637.65C23.36 637.65 21.29 635.58 21.29 633.04L21.29 629.06C21.29 627.01 22.64 625.26 24.5 624.67L23.49 620.3C22.7 620.58 21.87 620.72 21.03 620.72C15.96 620.72 12 615.64 12 609.14C12 603.85 14.64 599.49 18.37 598.06L15.18 584.24C14.51 581.32 17.93 579.19 20.23 581.12C22.22 582.79 25.32 585.02 28.75 586.16C31.24 586.98 33.05 588.8 33.83 591.29C34.71 594.05 34.18 597.42 32.51 599.66C31.61 600.88 31.8 602.5 32.95 603.36C34.23 604.31 35.84 604.8 37.72 604.8C40.98 604.8 42.76 597.65 43.13 590.46C40 590.77 37.43 589.74 35.94 587.53C33.88 584.45 36.91 578.51 43.82 566.61C45.59 563.56 47.27 560.68 48.25 558.66C48.72 557.68 49.64 557.03 50.71 556.91C51.79 556.79 52.83 557.23 53.5 558.07C55.95 561.16 61.65 569.19 61.65 577.13C61.65 579.97 61.95 583.27 62.5 586.41C62.7 587.61 61.9 588.74 60.71 588.95C59.51 589.16 58.37 588.36 58.17 587.16C57.58 583.78 57.25 580.22 57.25 577.13C57.25 571.58 53.52 565.55 51.26 562.41C50.26 564.29 48.97 566.51 47.62 568.82C46.06 571.5 39.57 582.36 39.69 585.21C40.65 586.42 42.69 586.16 43.85 585.89C45.79 585.43 47.63 586.92 47.59 588.91C47.45 595.01 46.21 609.2 37.72 609.2C34.87 609.2 32.38 608.42 30.33 606.89C27.25 604.6 26.65 600.18 28.98 597.04C29.7 596.07 30.16 594.24 29.64 592.62C29.28 591.48 28.52 590.71 27.37 590.33C24.71 589.45 22.26 588.06 20.25 586.66L27.09 616.33C27.09 616.34 27.09 616.34 27.09 616.35L28.96 624.45L145.04 624.45L146.91 616.35C146.91 616.34 146.91 616.34 146.91 616.33L153.75 586.66C151.74 588.06 149.29 589.45 146.63 590.33C145.48 590.71 144.72 591.48 144.36 592.62C143.84 594.24 144.3 596.07 145.02 597.04C147.35 600.18 146.75 604.6 143.67 606.89C141.62 608.42 139.13 609.2 136.28 609.2C127.79 609.2 126.55 595.01 126.42 588.91C126.37 586.92 128.21 585.43 130.15 585.89C131.31 586.16 133.35 586.42 134.32 585.2C134.34 584.74 134.14 582.87 130.91 576.82C130.33 575.75 130.74 574.42 131.81 573.84C132.88 573.27 134.21 573.68 134.78 574.75C138.61 581.92 139.5 585.38 138.06 587.53C136.57 589.74 134.01 590.76 130.87 590.46C131.24 597.65 133.02 604.8 136.28 604.8C138.16 604.8 139.77 604.31 141.05 603.36C142.2 602.5 142.39 600.88 141.49 599.66C139.83 597.42 139.29 594.05 140.17 591.29C140.95 588.8 142.76 586.98 145.25 586.16C148.68 585.02 151.78 582.79 153.77 581.12C156.07 579.2 159.49 581.32 158.82 584.24L155.63 598.06ZM21.03 616.32C21.58 616.32 22.07 616.16 22.49 615.94L19.38 602.46C17.65 603.51 16.39 606.15 16.39 609.14C16.39 613.04 18.52 616.32 21.03 616.32ZM152.97 616.32C155.48 616.32 157.61 613.04 157.61 609.14C157.61 606.15 156.35 603.51 154.62 602.46L151.51 615.94C151.93 616.16 152.42 616.32 152.97 616.32Z" />
				<path id="Path" class="shp32" d="M60.89 596.85C62.46 600.41 64.41 602.44 66.69 602.87C69.75 603.46 73.02 601.92 75.45 599.9C79.74 596.35 82.3 590.76 82.3 584.94L82.3 580.78C82.3 578.18 79.45 576.58 77.24 577.93C76.56 578.35 75.58 578.57 74.42 578.57C71.51 578.57 69.57 577.67 69.57 573.31C69.57 573.02 69.8 571.32 74.21 566.3C77.15 562.96 80.98 559.22 84.05 556.22C85.14 555.17 86.12 554.21 87 553.33C87.88 554.21 88.87 555.17 89.96 556.23C93.03 559.23 96.86 562.96 99.79 566.3C104.2 571.32 104.43 573.02 104.43 573.31C104.43 577.67 102.49 578.57 99.58 578.57C98.4 578.57 97.45 578.35 96.76 577.93C94.54 576.58 91.7 578.18 91.7 580.78L91.7 584.94C91.7 590.76 94.26 596.35 98.55 599.9C101.45 602.3 104.64 603.39 107.32 602.87C114.37 601.52 116.75 584.62 116.75 577.13C116.75 571.58 120.48 565.55 122.74 562.41C123.73 564.27 125 566.45 126.32 568.73C126.93 569.78 128.28 570.13 129.33 569.52C130.38 568.91 130.73 567.57 130.12 566.52C128.38 563.51 126.73 560.68 125.75 558.66C125.28 557.68 124.36 557.03 123.29 556.91C122.21 556.79 121.17 557.23 120.5 558.08C118.05 561.16 112.35 569.19 112.35 577.13C112.35 581.67 111.6 587.15 110.38 591.42C108.85 596.77 107.16 598.42 106.49 598.55C105.49 598.75 103.54 598.33 101.35 596.51C98.06 593.79 96.1 589.47 96.1 584.94L96.1 582.44C97.14 582.79 98.3 582.97 99.58 582.97C105.54 582.97 108.82 579.53 108.82 573.31C108.82 568.84 101.97 561.81 93.02 553.08C88.96 549.13 88.93 549.03 88.56 548.65C88.15 548.23 87.59 548 87 548C86.42 548 85.85 548.23 85.44 548.65C84.93 549.17 84.95 549.21 80.99 553.07C72.03 561.81 65.18 568.84 65.18 573.31C65.18 579.54 68.46 582.97 74.42 582.97C75.7 582.97 76.86 582.79 77.9 582.44L77.9 584.94C77.9 589.47 75.94 593.79 72.65 596.51C70.46 598.33 68.51 598.75 67.51 598.55C67.39 598.53 66.31 598.24 64.91 595.07C64.42 593.96 63.13 593.46 62.02 593.95C60.91 594.44 60.4 595.74 60.89 596.85L60.89 596.85Z" />
				<path id="Shape" fill-rule="evenodd" class="shp33" d="M87 596.27C92.06 596.27 96.17 601.47 96.17 607.85C96.17 614.24 92.06 619.43 87 619.43C81.94 619.43 77.83 614.24 77.83 607.85C77.83 601.47 81.94 596.27 87 596.27ZM82.23 607.85C82.23 611.74 84.41 615.03 87 615.03C89.59 615.03 91.77 611.74 91.77 607.85C91.77 603.96 89.59 600.67 87 600.67C84.41 600.67 82.23 603.96 82.23 607.85Z" />
				<path id="Shape" fill-rule="evenodd" class="shp17" d="M87 576.65C83.16 576.65 80.16 572.87 80.16 568.04C80.16 563.21 83.16 559.43 87 559.43C90.84 559.43 93.84 563.21 93.84 568.04C93.84 572.87 90.84 576.65 87 576.65ZM84.55 568.04C84.55 570.45 85.84 572.25 87 572.25C88.16 572.25 89.45 570.45 89.45 568.04C89.45 565.63 88.16 563.83 87 563.83C85.84 563.83 84.55 565.63 84.55 568.04Z" />
			</g>
		</g>
		<text id="Fantasy Icon Set" style="transform: matrix(1,0,0,1,-988,-116)" >
			<tspan x="0" y="0" class="txt34">Fantasy Icon Set</tspan>
		</text>
		<g id="Color Pallet">
			<path id="Oval" class="shp15" d="M-48 -134C-39.72 -134 -33 -140.72 -33 -149C-33 -157.28 -39.72 -164 -48 -164C-56.28 -164 -63 -157.28 -63 -149C-63 -140.72 -56.28 -134 -48 -134Z" />
			<path id="Oval" class="shp12" d="M-128 -134C-119.72 -134 -113 -140.72 -113 -149C-113 -157.28 -119.72 -164 -128 -164C-136.28 -164 -143 -157.28 -143 -149C-143 -140.72 -136.28 -134 -128 -134Z" />
			<path id="Oval" class="shp10" d="M-88 -134C-79.72 -134 -73 -140.72 -73 -149C-73 -157.28 -79.72 -164 -88 -164C-96.28 -164 -103 -157.28 -103 -149C-103 -140.72 -96.28 -134 -88 -134Z" />
			<path id="Oval" class="shp14" d="M32 -134C40.28 -134 47 -140.72 47 -149C47 -157.28 40.28 -164 32 -164C23.72 -164 17 -157.28 17 -149C17 -140.72 23.72 -134 32 -134Z" />
			<path id="Oval" class="shp13" d="M-8 -134C0.28 -134 7 -140.72 7 -149C7 -157.28 0.28 -164 -8 -164C-16.28 -164 -23 -157.28 -23 -149C-23 -140.72 -16.28 -134 -8 -134Z" />
			<path id="Oval" class="shp20" d="M-168 -134C-159.72 -134 -153 -140.72 -153 -149C-153 -157.28 -159.72 -164 -168 -164C-176.28 -164 -183 -157.28 -183 -149C-183 -140.72 -176.28 -134 -168 -134Z" />
			<path id="Oval" class="shp35" d="M112 -134C120.28 -134 127 -140.72 127 -149C127 -157.28 120.28 -164 112 -164C103.72 -164 97 -157.28 97 -149C97 -140.72 103.72 -134 112 -134Z" />
			<path id="Oval" class="shp17" d="M72 -134C80.28 -134 87 -140.72 87 -149C87 -157.28 80.28 -164 72 -164C63.72 -164 57 -157.28 57 -149C57 -140.72 63.72 -134 72 -134Z" />
		</g>
	</g>
</svg>